M48
; DRILL file {KiCad 8.0.4} date 2024-08-06T16:15:28+0800
; FORMAT={-:-/ absolute / metric / decimal}
; #@! TF.CreationDate,2024-08-06T16:15:28+08:00
; #@! TF.GenerationSoftware,Kicad,Pcbnew,8.0.4
; #@! TF.FileFunction,Plated,1,2,PTH
FMAT,2
METRIC
; #@! TA.AperFunction,Plated,PTH,ViaDrill
T1C0.300
; #@! TA.AperFunction,Plated,PTH,ViaDrill
T2C0.400
; #@! TA.AperFunction,Plated,PTH,ComponentDrill
T3C0.700
; #@! TA.AperFunction,Plated,PTH,ComponentDrill
T4C0.800
; #@! TA.AperFunction,Plated,PTH,ComponentDrill
T5C0.950
; #@! TA.AperFunction,Plated,PTH,ComponentDrill
T6C1.000
; #@! TA.AperFunction,Plated,PTH,ComponentDrill
T7C1.700
; #@! TA.AperFunction,Plated,PTH,ComponentDrill
T8C1.800
; #@! TA.AperFunction,Plated,PTH,ComponentDrill
T9C3.200
%
G90
G05
T1
X67.715Y-150.85
X95.2Y-141.8
X98.3Y-141.8
X99.1Y-140.7
X103.575Y-124.9
X103.575Y-127.0
X125.5Y-141.2
X130.0Y-141.2
X134.4Y-141.2
X138.9Y-141.2
X142.1Y-149.0
X142.1Y-157.0
X143.4Y-141.2
X147.8Y-141.2
X152.3Y-141.2
X156.9Y-141.2
X161.4Y-141.2
X165.9Y-141.2
X170.4Y-141.2
X173.9Y-142.3
X185.0Y-141.2
X189.4Y-141.2
X193.8Y-141.2
X198.3Y-141.2
X201.55Y-148.65
X201.55Y-157.0
X202.7Y-141.2
X207.05Y-141.2
X211.5Y-141.2
X215.9Y-141.2
X220.4Y-141.2
X224.7Y-141.2
X229.1Y-141.2
X244.0Y-141.2
X248.7Y-141.2
X253.5Y-141.2
X258.1Y-141.2
X262.35Y-149.487
X262.35Y-156.887
X262.8Y-141.2
X267.5Y-141.2
X272.1Y-141.2
X276.9Y-141.2
X281.5Y-141.2
X286.1Y-141.2
X290.8Y-141.2
X306.975Y-141.1
X311.575Y-141.1
X315.9Y-150.8
X315.9Y-159.8
X316.275Y-141.1
X320.975Y-141.1
X325.675Y-141.1
X330.275Y-141.1
X334.975Y-141.1
X339.575Y-141.1
X344.275Y-141.1
X348.875Y-141.1
X353.575Y-141.1
T2
X42.0Y-136.0
X44.0Y-124.0
X44.0Y-128.0
X44.0Y-142.0
X44.0Y-146.0
X44.0Y-150.0
X44.0Y-154.0
X44.0Y-158.0
X46.0Y-126.0
X46.0Y-130.0
X46.0Y-138.0
X48.0Y-133.0
X48.0Y-138.0
X48.5Y-127.5
X50.0Y-122.0
X50.0Y-138.0
X51.0Y-147.0
X51.0Y-166.0
X52.0Y-122.0
X52.0Y-128.0
X52.0Y-134.0
X52.0Y-149.0
X52.0Y-160.0
X53.0Y-153.0
X53.0Y-155.0
X54.0Y-144.0
X54.0Y-146.0
X55.0Y-151.0
X56.0Y-122.0
X56.0Y-124.0
X56.0Y-128.0
X56.0Y-136.0
X56.0Y-140.0
X56.0Y-142.0
X56.0Y-144.0
X56.0Y-146.0
X56.0Y-152.0
X56.0Y-154.0
X56.0Y-157.0
X56.0Y-162.0
X56.0Y-167.0
X58.0Y-132.0
X60.0Y-122.0
X60.0Y-142.0
X60.0Y-144.0
X60.0Y-150.0
X60.0Y-154.0
X60.0Y-158.0
X60.0Y-162.0
X60.0Y-166.0
X62.0Y-132.0
X62.0Y-134.0
X62.0Y-136.0
X62.0Y-138.0
X62.0Y-140.0
X62.0Y-142.0
X62.0Y-144.0
X64.0Y-132.0
X64.0Y-134.0
X65.0Y-121.0
X65.0Y-125.0
X66.0Y-132.0
X66.0Y-134.0
X68.0Y-162.0
X68.0Y-166.0
X72.0Y-122.0
X72.0Y-126.0
X72.0Y-130.0
X72.0Y-134.0
X72.0Y-138.0
X72.0Y-146.0
X72.0Y-150.0
X72.0Y-154.0
X72.0Y-158.0
X72.0Y-162.0
X72.0Y-166.0
X76.0Y-130.0
X76.0Y-134.0
X76.0Y-138.0
X76.0Y-146.0
X76.0Y-158.0
X76.0Y-162.0
X76.0Y-166.0
X80.0Y-130.0
X80.0Y-138.0
X80.0Y-146.0
X80.0Y-158.0
X80.0Y-162.0
X80.0Y-166.0
X84.0Y-130.0
X84.0Y-138.0
X84.0Y-146.0
X84.0Y-158.0
X84.0Y-162.0
X84.0Y-166.0
X88.0Y-130.0
X88.0Y-138.0
X88.0Y-146.0
X88.0Y-158.0
X88.0Y-162.0
X88.0Y-166.0
X92.0Y-130.0
X92.0Y-134.0
X92.0Y-138.0
X92.0Y-146.0
X92.0Y-150.0
X92.0Y-154.0
X92.0Y-158.0
X92.0Y-162.0
X92.0Y-166.0
X98.0Y-122.0
X98.0Y-126.0
X98.5Y-134.0
X98.5Y-136.0
X98.5Y-138.0
X100.0Y-122.0
X100.0Y-126.0
X100.0Y-154.0
X100.0Y-158.0
X104.0Y-122.0
X104.0Y-154.0
X104.0Y-158.0
X106.0Y-128.0
X106.0Y-130.0
X106.0Y-132.0
X106.0Y-134.0
X106.0Y-136.0
X106.0Y-140.0
X106.0Y-142.0
X106.0Y-144.0
X106.0Y-146.0
X106.0Y-148.0
X106.0Y-164.0
X106.4Y-122.0
X106.4Y-124.6
X108.0Y-134.0
X108.0Y-138.0
X108.0Y-142.0
X108.0Y-154.0
X108.0Y-158.0
X108.0Y-164.0
X108.0Y-167.0
X112.0Y-142.0
X112.0Y-146.0
X112.0Y-150.0
X112.0Y-154.0
X112.0Y-158.0
X112.0Y-162.0
X112.0Y-164.0
X112.0Y-167.0
X114.0Y-164.0
X114.0Y-167.0
X116.0Y-128.0
X116.0Y-132.0
X116.0Y-136.0
X116.0Y-140.0
X116.0Y-144.0
X116.0Y-148.0
X116.0Y-152.0
X116.0Y-156.0
X116.0Y-164.0
X116.0Y-166.75
X118.6Y-118.0
X118.6Y-122.0
X118.6Y-128.0
X118.6Y-136.0
X118.6Y-140.0
X118.6Y-144.0
X118.6Y-148.0
X118.6Y-152.0
X118.6Y-156.0
X118.7Y-132.0
X120.0Y-162.0
X120.0Y-164.0
X120.0Y-166.0
X120.0Y-168.0
X120.75Y-141.9
X120.75Y-144.0
X120.75Y-146.0
X120.75Y-148.0
X121.0Y-128.0
X121.0Y-130.0
X122.0Y-146.0
X123.0Y-128.0
X123.0Y-130.0
X124.0Y-121.0
X124.0Y-123.0
X124.0Y-125.0
X124.0Y-146.0
X126.0Y-121.0
X126.0Y-146.0
X128.0Y-146.0
X128.0Y-162.0
X128.0Y-164.0
X128.0Y-166.0
X128.0Y-168.0
X134.0Y-150.1
X134.0Y-158.1
X134.0Y-161.0
X138.0Y-150.1
X138.0Y-158.1
X138.0Y-161.0
X138.0Y-164.0
X138.0Y-166.0
X141.0Y-150.0
X141.0Y-151.25
X142.0Y-160.1
X142.0Y-164.0
X142.0Y-166.0
X143.75Y-151.25
X145.2Y-118.1
X145.7Y-155.6
X146.0Y-151.25
X146.0Y-160.1
X146.0Y-164.0
X146.0Y-166.0
X147.2Y-118.1
X147.2Y-120.25
X149.2Y-116.1
X149.2Y-120.25
X149.2Y-152.0
X151.2Y-116.1
X151.2Y-118.1
X151.2Y-120.25
X151.2Y-152.1
X153.0Y-164.0
X153.0Y-166.0
X153.2Y-116.1
X153.2Y-152.1
X154.0Y-168.1
X155.2Y-152.1
X156.0Y-158.1
X157.2Y-116.1
X158.0Y-160.1
X158.0Y-164.1
X158.0Y-168.1
X159.2Y-150.1
X161.2Y-116.1
X162.0Y-160.0
X162.0Y-168.1
X165.2Y-116.1
X166.0Y-148.1
X166.0Y-150.25
X166.0Y-160.0
X166.0Y-162.0
X166.0Y-164.0
X166.0Y-167.0
X169.2Y-116.1
X170.0Y-148.1
X170.0Y-152.1
X171.0Y-154.0
X171.0Y-160.0
X173.0Y-146.0
X173.0Y-148.0
X173.0Y-150.0
X173.0Y-154.0
X173.2Y-116.1
X174.0Y-152.1
X174.0Y-157.0
X174.0Y-160.0
X174.0Y-162.0
X174.0Y-164.0
X174.0Y-166.0
X174.0Y-168.0
X176.5Y-123.9
X176.5Y-128.0
X176.5Y-132.0
X176.5Y-136.0
X176.5Y-140.0
X176.5Y-144.0
X176.5Y-148.0
X176.5Y-152.0
X176.5Y-156.0
X176.5Y-160.0
X178.4Y-123.9
X178.4Y-128.0
X178.4Y-132.0
X178.4Y-136.0
X178.4Y-140.0
X178.4Y-144.0
X178.4Y-148.0
X178.4Y-152.0
X178.4Y-156.0
X178.4Y-160.0
X180.5Y-141.9
X180.5Y-144.0
X181.2Y-128.1
X181.2Y-130.1
X181.2Y-146.1
X182.0Y-162.0
X182.0Y-164.0
X182.0Y-166.0
X182.0Y-168.0
X183.2Y-146.1
X185.2Y-146.1
X187.2Y-146.1
X188.0Y-162.0
X188.0Y-164.1
X188.0Y-167.1
X189.0Y-148.0
X191.2Y-150.1
X193.0Y-164.1
X193.0Y-167.1
X193.2Y-150.1
X194.0Y-157.0
X194.0Y-160.0
X194.0Y-162.0
X195.2Y-150.1
X198.0Y-157.0
X198.0Y-160.0
X198.0Y-168.0
X200.0Y-157.0
X202.0Y-160.0
X202.0Y-168.0
X204.9Y-155.5
X206.0Y-119.0
X206.0Y-159.0
X206.0Y-168.0
X208.0Y-116.0
X209.2Y-152.1
X210.0Y-119.0
X212.0Y-116.0
X213.2Y-152.1
X214.0Y-160.1
X216.0Y-116.0
X216.0Y-151.0
X216.0Y-158.0
X218.0Y-160.0
X218.0Y-168.1
X219.0Y-149.0
X220.0Y-116.0
X220.0Y-162.0
X221.0Y-149.0
X222.0Y-160.0
X222.0Y-164.1
X222.0Y-168.1
X223.0Y-149.0
X224.0Y-116.0
X226.0Y-147.0
X226.0Y-149.0
X226.0Y-160.0
X226.1Y-164.1
X226.1Y-167.0
X228.0Y-116.0
X228.0Y-147.0
X230.0Y-147.0
X230.0Y-149.0
X230.0Y-160.0
X232.0Y-116.0
X232.0Y-152.0
X232.0Y-154.0
X233.2Y-138.1
X233.2Y-142.1
X234.0Y-156.1
X234.0Y-160.0
X234.0Y-164.1
X234.0Y-168.1
X235.6Y-116.0
X235.6Y-120.0
X235.6Y-124.0
X235.6Y-128.0
X235.6Y-132.0
X235.6Y-136.0
X235.6Y-140.0
X235.6Y-144.0
X235.6Y-148.0
X235.6Y-152.0
X235.6Y-156.0
X237.4Y-116.0
X237.4Y-120.0
X237.4Y-124.0
X237.4Y-128.0
X237.4Y-132.0
X237.4Y-136.0
X237.4Y-140.0
X237.4Y-144.0
X237.4Y-148.0
X237.4Y-152.0
X237.4Y-156.0
X237.4Y-160.0
X239.5Y-142.0
X239.6Y-144.3
X240.0Y-116.0
X240.0Y-146.0
X240.0Y-148.0
X240.0Y-152.0
X240.0Y-156.0
X241.2Y-128.1
X242.0Y-116.0
X242.0Y-164.1
X242.0Y-168.1
X244.0Y-146.0
X244.0Y-148.0
X247.2Y-164.1
X247.2Y-167.1
X248.0Y-146.0
X248.0Y-148.0
X249.2Y-164.1
X249.2Y-167.1
X252.0Y-150.0
X252.0Y-160.0
X252.0Y-162.0
X253.2Y-164.1
X253.2Y-167.1
X254.0Y-150.0
X254.0Y-158.0
X254.0Y-160.0
X254.0Y-162.0
X256.0Y-150.0
X256.0Y-158.0
X256.0Y-160.0
X256.0Y-162.0
X258.0Y-150.0
X258.0Y-158.0
X258.0Y-160.0
X258.0Y-162.0
X258.0Y-164.1
X258.0Y-168.1
X260.0Y-158.0
X260.0Y-160.0
X260.0Y-162.0
X261.0Y-149.0
X261.0Y-150.0
X261.0Y-151.0
X262.0Y-158.0
X262.0Y-160.0
X262.0Y-168.1
X264.0Y-151.2
X264.0Y-160.0
X265.75Y-155.55
X266.0Y-118.0
X266.0Y-160.0
X266.0Y-168.1
X268.0Y-120.0
X268.0Y-151.2
X270.0Y-120.0
X272.0Y-116.0
X272.0Y-118.0
X272.0Y-151.2
X274.8Y-159.8
X276.0Y-116.0
X276.0Y-151.2
X276.0Y-158.0
X276.7Y-161.6
X278.0Y-160.0
X280.0Y-116.0
X280.0Y-151.2
X280.0Y-162.0
X282.0Y-151.2
X284.0Y-116.0
X286.0Y-151.2
X287.2Y-164.1
X287.2Y-167.1
X288.0Y-116.0
X288.0Y-148.0
X288.0Y-150.0
X288.0Y-151.2
X290.0Y-146.0
X290.0Y-148.0
X290.0Y-150.0
X292.0Y-116.0
X292.0Y-148.0
X292.0Y-150.0
X292.0Y-162.0
X292.0Y-164.0
X292.0Y-166.0
X292.0Y-168.0
X294.0Y-146.0
X294.0Y-148.0
X294.0Y-150.0
X294.0Y-153.0
X294.0Y-155.0
X294.0Y-160.0
X294.0Y-162.0
X294.0Y-164.0
X294.0Y-166.0
X294.0Y-168.0
X295.0Y-140.0
X295.0Y-142.0
X296.0Y-116.0
X296.0Y-120.0
X296.0Y-124.0
X296.0Y-128.0
X296.0Y-132.0
X296.0Y-136.0
X296.0Y-158.0
X296.0Y-160.0
X296.0Y-162.0
X296.0Y-164.0
X296.0Y-166.0
X296.0Y-168.0
X298.8Y-124.0
X298.8Y-128.0
X298.8Y-132.0
X298.8Y-136.0
X298.8Y-140.0
X300.0Y-162.0
X300.0Y-164.0
X300.0Y-166.0
X300.0Y-168.0
X301.975Y-128.0
X301.975Y-130.0
X301.975Y-141.0
X301.975Y-144.0
X302.0Y-120.0
X302.0Y-122.0
X302.0Y-124.0
X302.0Y-148.0
X302.0Y-162.0
X302.0Y-164.0
X302.0Y-166.0
X302.0Y-168.0
X303.975Y-128.0
X303.975Y-130.0
X306.0Y-122.0
X306.0Y-124.0
X306.0Y-148.0
X308.0Y-164.0
X308.0Y-167.0
X310.0Y-148.0
X310.0Y-164.0
X310.0Y-167.0
X312.0Y-160.0
X312.0Y-162.0
X314.0Y-148.0
X314.0Y-152.0
X314.0Y-160.0
X314.0Y-162.0
X314.0Y-164.0
X314.0Y-167.0
X316.0Y-162.0
X318.0Y-162.0
X318.0Y-164.0
X318.0Y-168.0
X319.299Y-158.524
X320.0Y-162.0
X320.0Y-164.0
X320.0Y-168.0
X322.0Y-118.0
X322.0Y-154.0
X322.0Y-168.0
X324.0Y-118.0
X324.0Y-168.0
X326.0Y-154.0
X326.0Y-156.0
X328.0Y-116.0
X329.975Y-120.15
X330.0Y-116.0
X330.0Y-118.0
X330.0Y-154.0
X330.3Y-157.8
X330.8Y-165.3
X331.975Y-152.0
X332.2Y-159.9
X333.975Y-116.0
X334.0Y-151.0
X335.975Y-116.0
X336.0Y-151.0
X336.0Y-164.0
X336.0Y-168.0
X338.0Y-151.0
X339.975Y-116.0
X340.0Y-151.0
X341.975Y-149.0
X343.975Y-116.0
X345.0Y-149.0
X347.975Y-116.0
X349.0Y-149.0
X349.0Y-151.0
X351.0Y-148.0
X351.0Y-151.0
X353.0Y-148.0
X353.0Y-151.0
X355.0Y-148.0
X355.0Y-151.0
X357.0Y-148.0
X357.0Y-151.0
X357.475Y-139.5
X357.475Y-142.5
X359.0Y-124.0
X359.0Y-128.0
X359.0Y-132.0
X359.0Y-136.0
X359.0Y-147.0
X359.0Y-149.0
X359.0Y-151.0
T3
X124.495Y-150.5
X124.495Y-152.7
X124.495Y-154.9
X124.495Y-157.1
X126.395Y-150.5
X126.395Y-152.7
X126.395Y-154.9
X126.395Y-157.1
X184.095Y-150.8
X184.095Y-153.0
X184.095Y-155.3
X184.095Y-158.0
X185.995Y-150.8
X185.995Y-153.0
X185.995Y-155.3
X185.995Y-158.0
X245.195Y-151.9
X245.195Y-154.6
X245.195Y-156.8
X245.195Y-159.0
X247.095Y-151.9
X247.095Y-154.6
X247.095Y-156.8
X247.095Y-159.0
X304.295Y-152.2
X304.295Y-154.4
X304.3Y-156.5
X304.3Y-158.8
X306.195Y-152.2
X306.195Y-154.4
X306.2Y-156.5
X306.2Y-158.8
T4
X41.6Y-141.46
X41.6Y-144.0
X41.6Y-146.54
X41.6Y-149.08
X41.6Y-151.62
X41.6Y-154.16
X41.6Y-156.7
X41.6Y-159.24
X49.22Y-141.46
X49.22Y-144.0
X49.22Y-146.54
X49.22Y-149.08
X49.22Y-151.62
X49.22Y-154.16
X49.22Y-156.7
X49.22Y-159.24
X57.68Y-135.27
X57.68Y-137.81
X57.68Y-140.35
X57.68Y-142.89
X57.68Y-145.43
X57.68Y-147.97
X57.68Y-150.51
X57.68Y-153.05
X57.68Y-155.59
X57.68Y-158.13
X57.68Y-160.67
X57.68Y-163.21
X57.68Y-165.75
X57.68Y-168.29
X65.3Y-135.27
X65.3Y-137.81
X65.3Y-140.35
X65.3Y-142.89
X65.3Y-145.43
X65.3Y-147.97
X65.3Y-150.51
X65.3Y-153.05
X65.3Y-155.59
X65.3Y-158.13
X65.3Y-160.67
X65.3Y-163.21
X65.3Y-165.75
X65.3Y-168.29
X70.365Y-122.78
X70.365Y-125.32
X70.365Y-127.86
X70.365Y-130.4
X70.365Y-132.94
X70.365Y-135.48
X70.365Y-138.02
X70.365Y-140.56
X70.365Y-143.1
X70.365Y-145.64
X70.365Y-148.18
X70.365Y-150.72
X70.365Y-153.26
X70.365Y-155.8
X70.365Y-158.34
X70.365Y-160.88
X70.365Y-163.42
X70.365Y-165.96
X70.365Y-168.5
X95.765Y-122.78
X95.765Y-125.32
X95.765Y-127.86
X95.765Y-130.4
X95.765Y-132.94
X95.765Y-135.48
X95.765Y-138.02
X95.765Y-140.56
X95.765Y-143.1
X95.765Y-145.64
X95.765Y-148.18
X95.765Y-150.72
X95.765Y-153.26
X95.765Y-155.8
X95.765Y-158.34
X95.765Y-160.88
X95.765Y-163.42
X95.765Y-165.96
X95.765Y-168.5
T5
X127.7Y-119.0
X130.2Y-119.0
X132.7Y-119.0
X135.2Y-119.0
X137.7Y-119.0
X140.2Y-119.0
X142.7Y-119.0
X154.7Y-119.0
X157.2Y-119.0
X159.7Y-119.0
X162.2Y-119.0
X164.7Y-119.0
X167.2Y-119.0
X169.7Y-119.0
X187.2Y-119.0
X189.7Y-119.0
X192.2Y-119.0
X194.7Y-119.0
X197.2Y-119.0
X199.7Y-119.0
X202.2Y-119.0
X213.6Y-119.0
X216.1Y-119.0
X218.6Y-119.0
X221.1Y-119.0
X223.6Y-119.0
X226.1Y-119.0
X228.6Y-119.0
X247.15Y-119.0
X249.65Y-119.0
X252.15Y-119.0
X254.65Y-119.0
X257.15Y-119.0
X259.65Y-119.0
X262.15Y-119.0
X275.2Y-119.0
X277.7Y-119.0
X280.2Y-119.0
X282.7Y-119.0
X285.2Y-119.0
X287.7Y-119.0
X290.2Y-119.0
X305.0Y-119.0
X307.5Y-119.0
X310.0Y-119.0
X312.5Y-119.0
X315.0Y-119.0
X317.5Y-119.0
X320.0Y-119.0
X333.0Y-119.0
X335.5Y-119.0
X338.0Y-119.0
X340.5Y-119.0
X343.0Y-119.0
X345.5Y-119.0
X348.0Y-119.0
T6
X41.9Y-124.86
X41.9Y-127.4
X41.9Y-129.94
X41.9Y-132.48
T7
X355.75Y-154.743
X355.75Y-158.702
T8
X109.4Y-125.4
X109.4Y-130.9
X113.6Y-125.4
X113.6Y-130.9
T9
X44.0Y-119.0
X44.0Y-166.0
X101.1Y-166.0
X111.0Y-119.0
X178.4Y-119.0
X212.7Y-166.0
X274.1Y-166.0
X355.9Y-165.9
X356.0Y-119.0
M30
