M48
; DRILL file {KiCad 8.0.4} date 2024-09-13T16:29:25+0900
; FORMAT={-:-/ absolute / metric / decimal}
; #@! TF.CreationDate,2024-09-13T16:29:25+09:00
; #@! TF.GenerationSoftware,Kicad,Pcbnew,8.0.4
; #@! TF.FileFunction,Plated,1,2,PTH
FMAT,2
METRIC
; #@! TA.AperFunction,Plated,PTH,ViaDrill
T1C0.300
; #@! TA.AperFunction,Plated,PTH,ViaDrill
T2C0.400
; #@! TA.AperFunction,Plated,PTH,ComponentDrill
T3C0.700
; #@! TA.AperFunction,Plated,PTH,ComponentDrill
T4C0.800
; #@! TA.AperFunction,Plated,PTH,ComponentDrill
T5C0.950
; #@! TA.AperFunction,Plated,PTH,ComponentDrill
T6C1.700
%
G90
G05
T1
X52.7Y-127.2
X55.7Y-132.4
X58.0Y-126.2
X62.25Y-126.2
X69.3Y-141.9
X96.488Y-139.312
X97.8Y-141.9
X98.0Y-139.8
X101.5Y-140.7
X116.4Y-141.2
X120.9Y-141.2
X125.3Y-141.2
X129.8Y-141.2
X133.0Y-149.0
X133.0Y-157.0
X134.3Y-141.2
X138.7Y-141.2
X143.2Y-141.2
X147.8Y-141.2
X152.3Y-141.2
X156.8Y-141.2
X161.3Y-141.2
X164.8Y-142.3
X175.9Y-141.2
X180.3Y-141.2
X184.7Y-141.2
X189.2Y-141.2
X192.45Y-148.65
X192.45Y-157.0
X193.6Y-141.2
X197.95Y-141.2
X202.4Y-141.2
X206.8Y-141.2
X211.3Y-141.2
X215.6Y-141.2
X220.0Y-141.2
T2
X39.0Y-126.0
X43.0Y-126.0
X43.0Y-132.0
X43.0Y-134.0
X43.0Y-138.0
X43.0Y-146.0
X43.0Y-150.0
X45.0Y-116.0
X45.0Y-120.0
X45.0Y-124.0
X45.0Y-132.0
X47.0Y-126.0
X47.0Y-132.0
X47.0Y-146.0
X47.0Y-162.0
X47.0Y-166.0
X47.0Y-168.0
X49.0Y-116.0
X49.0Y-132.0
X51.0Y-126.0
X51.0Y-132.0
X51.0Y-146.0
X51.0Y-162.0
X51.0Y-168.0
X53.0Y-116.0
X53.0Y-132.0
X55.0Y-118.0
X55.0Y-120.0
X55.0Y-122.0
X55.0Y-134.0
X55.0Y-136.0
X55.0Y-138.0
X55.0Y-146.0
X55.0Y-162.0
X55.0Y-168.0
X56.9Y-125.7
X56.9Y-137.6
X57.0Y-116.0
X57.0Y-120.0
X59.0Y-120.0
X59.0Y-122.0
X59.0Y-138.0
X59.0Y-146.0
X59.0Y-160.0
X59.0Y-162.0
X59.0Y-168.0
X60.0Y-127.5
X60.0Y-129.0
X60.0Y-131.0
X60.5Y-132.5
X61.0Y-116.0
X61.0Y-136.0
X61.0Y-138.0
X61.0Y-140.0
X61.0Y-158.0
X61.5Y-154.0
X63.0Y-120.0
X63.0Y-122.0
X63.0Y-124.0
X63.0Y-132.5
X63.0Y-146.0
X63.0Y-162.0
X63.0Y-168.0
X64.7Y-129.7
X65.0Y-116.0
X65.0Y-120.0
X65.0Y-122.0
X65.0Y-160.0
X65.5Y-132.5
X67.0Y-158.0
X67.0Y-168.0
X67.3Y-140.5
X67.5Y-138.0
X68.0Y-127.0
X68.0Y-129.0
X69.0Y-116.0
X69.0Y-118.0
X69.0Y-120.0
X73.0Y-116.0
X73.0Y-118.0
X73.0Y-120.0
X75.0Y-122.0
X75.0Y-126.0
X75.0Y-130.0
X75.0Y-134.0
X75.0Y-138.0
X75.0Y-146.0
X75.0Y-150.0
X75.0Y-154.0
X75.0Y-158.0
X75.0Y-162.0
X75.0Y-166.0
X79.0Y-122.0
X79.0Y-126.0
X79.0Y-130.0
X79.0Y-134.0
X79.0Y-138.0
X79.0Y-146.0
X79.0Y-150.0
X79.0Y-154.0
X79.0Y-158.0
X79.0Y-162.0
X79.0Y-166.0
X83.0Y-122.0
X83.0Y-126.0
X83.0Y-130.0
X83.0Y-134.0
X83.0Y-138.0
X83.0Y-146.0
X83.0Y-150.0
X83.0Y-154.0
X83.0Y-158.0
X83.0Y-162.0
X83.0Y-166.0
X87.0Y-122.0
X87.0Y-126.0
X87.0Y-130.0
X87.0Y-134.0
X87.0Y-138.0
X87.0Y-146.0
X87.0Y-150.0
X87.0Y-154.0
X87.0Y-158.0
X87.0Y-162.0
X87.0Y-166.0
X91.0Y-122.0
X91.0Y-126.0
X91.0Y-130.0
X91.0Y-134.0
X91.0Y-138.0
X91.0Y-146.0
X91.0Y-150.0
X91.0Y-154.0
X91.0Y-158.0
X91.0Y-162.0
X95.0Y-116.0
X95.0Y-120.0
X97.0Y-116.0
X97.0Y-120.0
X99.0Y-126.0
X99.0Y-130.0
X99.0Y-134.0
X99.0Y-146.0
X99.0Y-150.0
X99.0Y-154.0
X99.0Y-158.0
X103.0Y-126.0
X103.0Y-130.0
X103.25Y-141.35
X103.3Y-142.85
X106.0Y-136.0
X107.0Y-126.0
X107.0Y-130.0
X107.0Y-134.0
X107.0Y-146.0
X107.0Y-150.0
X107.0Y-154.0
X107.0Y-158.0
X107.05Y-142.85
X109.5Y-118.0
X109.5Y-122.0
X109.5Y-128.0
X109.5Y-136.0
X109.5Y-140.0
X109.5Y-144.0
X109.5Y-148.0
X109.5Y-152.0
X109.5Y-156.0
X109.6Y-132.0
X111.65Y-141.9
X111.65Y-144.0
X111.65Y-146.0
X111.65Y-148.0
X111.9Y-128.0
X111.9Y-130.0
X112.0Y-164.0
X112.0Y-166.8
X112.9Y-146.0
X113.9Y-128.0
X113.9Y-130.0
X114.0Y-164.0
X114.0Y-166.7
X114.9Y-123.0
X114.9Y-125.0
X114.9Y-146.0
X116.0Y-164.0
X116.0Y-166.8
X116.9Y-121.0
X116.9Y-146.0
X116.9Y-160.0
X118.9Y-146.0
X120.9Y-160.0
X124.9Y-150.1
X124.9Y-158.0
X124.9Y-160.0
X128.9Y-150.1
X128.9Y-158.0
X128.9Y-160.0
X131.9Y-150.0
X131.9Y-151.25
X132.9Y-160.0
X132.9Y-164.0
X132.9Y-168.0
X134.65Y-151.25
X136.1Y-118.1
X136.6Y-155.6
X136.9Y-151.25
X136.9Y-160.1
X137.4Y-166.6
X138.1Y-118.1
X138.1Y-120.25
X139.0Y-165.014
X140.1Y-116.1
X140.1Y-120.25
X140.1Y-152.0
X142.1Y-116.1
X142.1Y-118.1
X142.1Y-120.25
X142.1Y-152.1
X143.9Y-164.0
X143.9Y-166.0
X144.1Y-116.1
X144.1Y-152.1
X144.9Y-168.1
X146.1Y-152.1
X148.1Y-116.1
X148.9Y-164.1
X148.9Y-168.1
X150.1Y-150.1
X152.1Y-116.1
X152.9Y-160.0
X156.0Y-164.0
X156.1Y-116.1
X156.9Y-148.1
X156.9Y-150.25
X156.9Y-160.0
X158.8Y-166.8
X160.1Y-116.1
X160.9Y-148.1
X160.9Y-152.1
X161.9Y-154.0
X161.9Y-160.0
X163.0Y-116.0
X163.9Y-146.0
X163.9Y-148.0
X163.9Y-150.0
X163.9Y-154.0
X164.9Y-152.1
X164.9Y-157.0
X164.9Y-160.0
X164.9Y-162.0
X164.9Y-164.0
X164.9Y-166.0
X164.9Y-168.0
X167.0Y-116.0
X167.0Y-120.0
X167.4Y-123.9
X167.4Y-128.0
X167.4Y-132.0
X167.4Y-136.0
X167.4Y-140.0
X167.4Y-144.0
X167.4Y-148.0
X167.4Y-152.0
X167.4Y-156.0
X167.4Y-160.0
X169.3Y-123.9
X169.3Y-128.0
X169.3Y-132.0
X169.3Y-136.0
X169.3Y-140.0
X169.3Y-144.0
X169.3Y-148.0
X169.3Y-152.0
X169.3Y-156.0
X169.3Y-160.0
X171.0Y-116.0
X171.0Y-119.7
X171.4Y-141.9
X171.4Y-144.0
X172.1Y-128.1
X172.1Y-130.1
X172.1Y-146.1
X172.9Y-162.0
X172.9Y-164.0
X172.9Y-166.0
X172.9Y-168.0
X174.1Y-146.1
X175.0Y-116.0
X176.0Y-122.0
X176.0Y-124.0
X176.1Y-146.1
X178.1Y-146.1
X178.9Y-162.0
X178.9Y-164.1
X178.9Y-167.1
X179.9Y-148.0
X181.0Y-150.0
X183.0Y-149.0
X183.0Y-151.0
X183.9Y-164.1
X183.9Y-167.1
X184.9Y-157.0
X184.9Y-159.958
X184.9Y-162.0
X185.0Y-149.0
X185.0Y-151.0
X187.0Y-149.0
X188.9Y-157.0
X188.9Y-160.0
X188.9Y-168.0
X189.0Y-149.0
X190.9Y-157.0
X191.0Y-149.0
X192.9Y-160.0
X192.9Y-168.0
X195.8Y-155.5
X196.9Y-119.0
X196.9Y-168.0
X198.9Y-116.0
X200.1Y-152.1
X200.9Y-119.0
X201.0Y-168.0
X202.9Y-116.0
X203.0Y-166.0
X204.1Y-152.1
X206.9Y-116.0
X206.9Y-151.0
X207.0Y-160.0
X209.0Y-160.0
X209.9Y-149.0
X210.9Y-116.0
X211.0Y-160.0
X211.9Y-149.0
X213.0Y-160.0
X213.0Y-162.0
X213.0Y-164.0
X213.0Y-166.0
X213.0Y-168.0
X213.9Y-149.0
X214.9Y-116.0
X216.9Y-147.0
X216.9Y-149.0
X217.0Y-160.0
X218.9Y-116.0
X218.9Y-147.0
X220.9Y-147.0
X220.9Y-149.0
X221.0Y-160.0
X222.9Y-116.0
X222.9Y-152.0
X222.9Y-154.0
X223.0Y-158.0
X224.1Y-138.1
X224.1Y-142.1
X224.9Y-156.1
X227.0Y-126.0
X227.0Y-130.0
X227.0Y-134.0
X227.0Y-138.0
X227.0Y-142.0
X227.0Y-146.0
X227.0Y-150.0
X231.0Y-126.0
X231.0Y-130.0
X231.0Y-134.0
X231.0Y-138.0
X231.0Y-142.0
X231.0Y-146.0
X231.0Y-150.0
T3
X115.395Y-150.5
X115.395Y-152.7
X115.395Y-154.9
X115.395Y-157.1
X117.295Y-150.5
X117.295Y-152.7
X117.295Y-154.9
X117.295Y-157.1
X174.995Y-150.8
X174.995Y-153.0
X174.995Y-155.3
X174.995Y-158.0
X176.895Y-150.8
X176.895Y-153.0
X176.895Y-155.3
X176.895Y-158.0
T4
X47.02Y-143.332
X47.02Y-150.952
X49.56Y-143.332
X49.56Y-150.952
X52.1Y-143.332
X52.1Y-150.952
X54.64Y-143.332
X54.64Y-150.952
X57.18Y-143.332
X57.18Y-150.952
X59.72Y-143.332
X59.72Y-150.952
X62.26Y-143.332
X62.26Y-150.952
X64.8Y-143.332
X64.8Y-150.952
X70.365Y-122.822
X70.365Y-125.362
X70.365Y-127.902
X70.365Y-130.442
X70.365Y-132.982
X70.365Y-135.522
X70.365Y-138.062
X70.365Y-140.602
X70.365Y-143.142
X70.365Y-145.682
X70.365Y-148.222
X70.365Y-150.762
X70.365Y-153.302
X70.365Y-155.842
X70.365Y-158.382
X70.365Y-160.922
X70.365Y-163.462
X70.365Y-166.002
X70.365Y-168.542
X95.765Y-122.822
X95.765Y-125.362
X95.765Y-127.902
X95.765Y-130.442
X95.765Y-132.982
X95.765Y-135.522
X95.765Y-138.062
X95.765Y-140.602
X95.765Y-143.142
X95.765Y-145.682
X95.765Y-148.222
X95.765Y-150.762
X95.765Y-153.302
X95.765Y-155.842
X95.765Y-158.382
X95.765Y-160.922
X95.765Y-163.462
X95.765Y-166.002
X95.765Y-168.542
T5
X38.8Y-127.8
X38.8Y-130.3
X38.8Y-132.8
X38.8Y-135.3
X39.825Y-141.45
X39.825Y-143.95
X39.825Y-146.45
X39.825Y-148.95
X118.6Y-119.0
X121.1Y-119.0
X123.6Y-119.0
X126.1Y-119.0
X128.6Y-119.0
X131.1Y-119.0
X133.6Y-119.0
X145.6Y-119.0
X148.1Y-119.0
X150.6Y-119.0
X153.1Y-119.0
X155.6Y-119.0
X158.1Y-119.0
X160.6Y-119.0
X178.1Y-119.0
X180.6Y-119.0
X183.1Y-119.0
X185.6Y-119.0
X188.1Y-119.0
X190.6Y-119.0
X193.1Y-119.0
X204.5Y-119.0
X207.0Y-119.0
X209.5Y-119.0
X212.0Y-119.0
X214.5Y-119.0
X217.0Y-119.0
X219.5Y-119.0
T6
X230.7Y-154.1
X230.7Y-158.06
M30
