%TF.GenerationSoftware,KiCad,Pcbnew,8.0.4*%
%TF.CreationDate,2024-09-13T16:29:25+09:00*%
%TF.ProjectId,LTC6811_ESP32_Master_V5,4c544336-3831-4315-9f45-535033325f4d,rev?*%
%TF.SameCoordinates,Original*%
%TF.FileFunction,Copper,L2,Bot*%
%TF.FilePolarity,Positive*%
%FSLAX46Y46*%
G04 Gerber Fmt 4.6, Leading zero omitted, Abs format (unit mm)*
G04 Created by KiCad (PCBNEW 8.0.4) date 2024-09-13 16:29:25*
%MOMM*%
%LPD*%
G01*
G04 APERTURE LIST*
G04 Aperture macros list*
%AMRoundRect*
0 Rectangle with rounded corners*
0 $1 Rounding radius*
0 $2 $3 $4 $5 $6 $7 $8 $9 X,Y pos of 4 corners*
0 Add a 4 corners polygon primitive as box body*
4,1,4,$2,$3,$4,$5,$6,$7,$8,$9,$2,$3,0*
0 Add four circle primitives for the rounded corners*
1,1,$1+$1,$2,$3*
1,1,$1+$1,$4,$5*
1,1,$1+$1,$6,$7*
1,1,$1+$1,$8,$9*
0 Add four rect primitives between the rounded corners*
20,1,$1+$1,$2,$3,$4,$5,0*
20,1,$1+$1,$4,$5,$6,$7,0*
20,1,$1+$1,$6,$7,$8,$9,0*
20,1,$1+$1,$8,$9,$2,$3,0*%
G04 Aperture macros list end*
%TA.AperFunction,ComponentPad*%
%ADD10R,1.600000X1.600000*%
%TD*%
%TA.AperFunction,ComponentPad*%
%ADD11O,1.600000X1.600000*%
%TD*%
%TA.AperFunction,ComponentPad*%
%ADD12C,1.400000*%
%TD*%
%TA.AperFunction,ComponentPad*%
%ADD13O,1.400000X1.400000*%
%TD*%
%TA.AperFunction,ComponentPad*%
%ADD14O,1.700000X1.950000*%
%TD*%
%TA.AperFunction,ComponentPad*%
%ADD15RoundRect,0.250000X0.600000X0.725000X-0.600000X0.725000X-0.600000X-0.725000X0.600000X-0.725000X0*%
%TD*%
%TA.AperFunction,ComponentPad*%
%ADD16RoundRect,0.250001X-1.099999X1.099999X-1.099999X-1.099999X1.099999X-1.099999X1.099999X1.099999X0*%
%TD*%
%TA.AperFunction,ComponentPad*%
%ADD17C,2.700000*%
%TD*%
%TA.AperFunction,ComponentPad*%
%ADD18RoundRect,0.250000X-0.725000X0.600000X-0.725000X-0.600000X0.725000X-0.600000X0.725000X0.600000X0*%
%TD*%
%TA.AperFunction,ComponentPad*%
%ADD19O,1.950000X1.700000*%
%TD*%
%TA.AperFunction,ComponentPad*%
%ADD20RoundRect,0.250000X0.725000X-0.600000X0.725000X0.600000X-0.725000X0.600000X-0.725000X-0.600000X0*%
%TD*%
%TA.AperFunction,ViaPad*%
%ADD21C,0.500000*%
%TD*%
%TA.AperFunction,ViaPad*%
%ADD22C,0.800000*%
%TD*%
%TA.AperFunction,ViaPad*%
%ADD23C,0.600000*%
%TD*%
%TA.AperFunction,Conductor*%
%ADD24C,0.500000*%
%TD*%
%TA.AperFunction,Conductor*%
%ADD25C,0.300000*%
%TD*%
%TA.AperFunction,Conductor*%
%ADD26C,0.800000*%
%TD*%
%ADD27C,0.300000*%
%ADD28C,0.350000*%
G04 APERTURE END LIST*
D10*
%TO.P,U8,1,3V3*%
%TO.N,+3V3*%
X70365000Y-122821928D03*
D11*
%TO.P,U8,2,EN*%
%TO.N,/MCU/NRST*%
X70365000Y-125361928D03*
%TO.P,U8,3,SENSOR_VP*%
%TO.N,unconnected-(U8-SENSOR_VP-Pad3)*%
X70365000Y-127901928D03*
%TO.P,U8,4,SENSOR_VN*%
%TO.N,unconnected-(U8-SENSOR_VN-Pad4)*%
X70365000Y-130441928D03*
%TO.P,U8,5,IO34*%
%TO.N,/CAN/RXD*%
X70365000Y-132981928D03*
%TO.P,U8,6,IO35*%
%TO.N,unconnected-(U8-IO35-Pad6)*%
X70365000Y-135521928D03*
%TO.P,U8,7,IO32*%
%TO.N,/CAN/TXD*%
X70365000Y-138061928D03*
%TO.P,U8,8,IO33*%
%TO.N,unconnected-(U8-IO33-Pad8)*%
X70365000Y-140601928D03*
%TO.P,U8,9,IO25*%
%TO.N,unconnected-(U8-IO25-Pad9)*%
X70365000Y-143141928D03*
%TO.P,U8,10,IO26*%
%TO.N,unconnected-(U8-IO26-Pad10)*%
X70365000Y-145681928D03*
%TO.P,U8,11,IO27*%
%TO.N,unconnected-(U8-IO27-Pad11)*%
X70365000Y-148221928D03*
%TO.P,U8,12,IO14*%
%TO.N,/MCU/HSPI_SCK*%
X70365000Y-150761928D03*
%TO.P,U8,13,IO12*%
%TO.N,/MCU/HSPI_MISO*%
X70365000Y-153301928D03*
%TO.P,U8,14,GND*%
%TO.N,GND*%
X70365000Y-155841928D03*
%TO.P,U8,15,IO13*%
%TO.N,/MCU/HSPI_MOSI*%
X70365000Y-158381928D03*
%TO.P,U8,16,SD2*%
%TO.N,unconnected-(U8-SD2-Pad16)*%
X70365000Y-160921928D03*
%TO.P,U8,17,SD3*%
%TO.N,unconnected-(U8-SD3-Pad17)*%
X70365000Y-163461928D03*
%TO.P,U8,18,CMD*%
%TO.N,unconnected-(U8-CMD-Pad18)*%
X70365000Y-166001928D03*
%TO.P,U8,19,5V*%
%TO.N,/MCU/5V*%
X70365000Y-168541928D03*
%TO.P,U8,20,CLK*%
%TO.N,unconnected-(U8-CLK-Pad20)*%
X95765000Y-168541928D03*
%TO.P,U8,21,SD0*%
%TO.N,unconnected-(U8-SD0-Pad21)*%
X95765000Y-166001928D03*
%TO.P,U8,22,SD1*%
%TO.N,unconnected-(U8-SD1-Pad22)*%
X95765000Y-163461928D03*
%TO.P,U8,23,IO15*%
%TO.N,/MCU/HSPI_CS*%
X95765000Y-160921928D03*
%TO.P,U8,24,IO2*%
%TO.N,unconnected-(U8-IO2-Pad24)*%
X95765000Y-158381928D03*
%TO.P,U8,25,IO0*%
%TO.N,unconnected-(U8-IO0-Pad25)*%
X95765000Y-155841928D03*
%TO.P,U8,26,IO4*%
%TO.N,unconnected-(U8-IO4-Pad26)*%
X95765000Y-153301928D03*
%TO.P,U8,27,IO16*%
%TO.N,unconnected-(U8-IO16-Pad27)*%
X95765000Y-150761928D03*
%TO.P,U8,28,IO17*%
%TO.N,unconnected-(U8-IO17-Pad28)*%
X95765000Y-148221928D03*
%TO.P,U8,29,IO5*%
%TO.N,/MCU/VSPI_CS*%
X95765000Y-145681928D03*
%TO.P,U8,30,IO18*%
%TO.N,/MCU/VSPI_SCK*%
X95765000Y-143141928D03*
%TO.P,U8,31,IO19*%
%TO.N,/MCU/VSPI_MISO*%
X95765000Y-140601928D03*
%TO.P,U8,32,GND*%
%TO.N,GND*%
X95765000Y-138061928D03*
%TO.P,U8,33,IO21*%
%TO.N,unconnected-(U8-IO21-Pad33)*%
X95765000Y-135521928D03*
%TO.P,U8,34,RXD0*%
%TO.N,unconnected-(U8-RXD0-Pad34)*%
X95765000Y-132981928D03*
%TO.P,U8,35,TXD0*%
%TO.N,unconnected-(U8-TXD0-Pad35)*%
X95765000Y-130441928D03*
%TO.P,U8,36,IO22*%
%TO.N,unconnected-(U8-IO22-Pad36)*%
X95765000Y-127901928D03*
%TO.P,U8,37,IO23*%
%TO.N,/MCU/VSPI_MOSI*%
X95765000Y-125361928D03*
%TO.P,U8,38,GND*%
%TO.N,GND*%
X95765000Y-122821928D03*
%TD*%
D12*
%TO.P,TH8,1*%
%TO.N,/Slaves/LTC6811_2/T3*%
X174995000Y-155300000D03*
D13*
%TO.P,TH8,2*%
%TO.N,GND_PACK*%
X176895000Y-155300000D03*
%TD*%
D10*
%TO.P,SW1,1*%
%TO.N,+3V3*%
X64800000Y-143332500D03*
D11*
%TO.P,SW1,2*%
X62260000Y-143332500D03*
%TO.P,SW1,3*%
X59720000Y-143332500D03*
%TO.P,SW1,4*%
X57180000Y-143332500D03*
%TO.P,SW1,5*%
X54640000Y-143332500D03*
%TO.P,SW1,6*%
X52100000Y-143332500D03*
%TO.P,SW1,7*%
X49560000Y-143332500D03*
%TO.P,SW1,8*%
X47020000Y-143332500D03*
%TO.P,SW1,9*%
%TO.N,Net-(U1-GPA7)*%
X47020000Y-150952500D03*
%TO.P,SW1,10*%
%TO.N,Net-(U1-GPA6)*%
X49560000Y-150952500D03*
%TO.P,SW1,11*%
%TO.N,Net-(U1-GPA5)*%
X52100000Y-150952500D03*
%TO.P,SW1,12*%
%TO.N,Net-(U1-GPA4)*%
X54640000Y-150952500D03*
%TO.P,SW1,13*%
%TO.N,Net-(U1-GPA3)*%
X57180000Y-150952500D03*
%TO.P,SW1,14*%
%TO.N,Net-(U1-GPA2)*%
X59720000Y-150952500D03*
%TO.P,SW1,15*%
%TO.N,Net-(U1-GPA1)*%
X62260000Y-150952500D03*
%TO.P,SW1,16*%
%TO.N,Net-(U1-GPA0)*%
X64800000Y-150952500D03*
%TD*%
D12*
%TO.P,TH3,1*%
%TO.N,/Slaves/LTC6811_1/T3*%
X115395000Y-154900000D03*
D13*
%TO.P,TH3,2*%
%TO.N,GND_PACK*%
X117295000Y-154900000D03*
%TD*%
D12*
%TO.P,TH9,1*%
%TO.N,/Slaves/LTC6811_2/T4*%
X174995000Y-153000000D03*
D13*
%TO.P,TH9,2*%
%TO.N,GND_PACK*%
X176895000Y-153000000D03*
%TD*%
D12*
%TO.P,TH7,1*%
%TO.N,/Slaves/LTC6811_2/T2*%
X174995000Y-158000000D03*
D13*
%TO.P,TH7,2*%
%TO.N,GND_PACK*%
X176895000Y-158000000D03*
%TD*%
D14*
%TO.P,J11,0,Pin_1*%
%TO.N,/Slaves/LTC6811_1/C1_G*%
X118600000Y-119000000D03*
%TO.P,J11,1,Pin_2*%
%TO.N,/Slaves/LTC6811_1/C1*%
X121100000Y-119000000D03*
%TO.P,J11,2,Pin_3*%
%TO.N,/Slaves/LTC6811_1/C2*%
X123600000Y-119000000D03*
%TO.P,J11,3,Pin_4*%
%TO.N,/Slaves/LTC6811_1/C3*%
X126100000Y-119000000D03*
%TO.P,J11,4,Pin_5*%
%TO.N,/Slaves/LTC6811_1/C4*%
X128600000Y-119000000D03*
%TO.P,J11,5,Pin_6*%
%TO.N,/Slaves/LTC6811_1/C5*%
X131100000Y-119000000D03*
D15*
%TO.P,J11,6,Pin_7*%
%TO.N,/Slaves/LTC6811_1/C6*%
X133600000Y-119000000D03*
%TD*%
D12*
%TO.P,TH5,1*%
%TO.N,/Slaves/LTC6811_1/T5*%
X115395000Y-150500000D03*
D13*
%TO.P,TH5,2*%
%TO.N,GND_PACK*%
X117295000Y-150500000D03*
%TD*%
D16*
%TO.P,J6,1,Pin_1*%
%TO.N,/Slaves/PB*%
X230700000Y-154100000D03*
D17*
%TO.P,J6,2,Pin_2*%
%TO.N,/Slaves/MB*%
X230700000Y-158060000D03*
%TD*%
D14*
%TO.P,J10,0,Pin_1*%
%TO.N,/Slaves/LTC6811_1/C6*%
X145600000Y-119000000D03*
%TO.P,J10,1,Pin_2*%
%TO.N,/Slaves/LTC6811_1/C7*%
X148100000Y-119000000D03*
%TO.P,J10,2,Pin_3*%
%TO.N,/Slaves/LTC6811_1/C8*%
X150600000Y-119000000D03*
%TO.P,J10,3,Pin_4*%
%TO.N,/Slaves/LTC6811_1/C9*%
X153100000Y-119000000D03*
%TO.P,J10,4,Pin_5*%
%TO.N,/Slaves/LTC6811_1/C10*%
X155600000Y-119000000D03*
%TO.P,J10,5,Pin_6*%
%TO.N,/Slaves/LTC6811_1/C11*%
X158100000Y-119000000D03*
D15*
%TO.P,J10,6,Pin_7*%
%TO.N,/Slaves/LTC6811_1/C12*%
X160600000Y-119000000D03*
%TD*%
D12*
%TO.P,TH4,1*%
%TO.N,/Slaves/LTC6811_1/T4*%
X115395000Y-152700000D03*
D13*
%TO.P,TH4,2*%
%TO.N,GND_PACK*%
X117295000Y-152700000D03*
%TD*%
D14*
%TO.P,J13,0,Pin_1*%
%TO.N,/Slaves/LTC6811_2/C1_G*%
X178100000Y-119000000D03*
%TO.P,J13,1,Pin_2*%
%TO.N,/Slaves/LTC6811_2/C1*%
X180600000Y-119000000D03*
%TO.P,J13,2,Pin_3*%
%TO.N,/Slaves/LTC6811_2/C2*%
X183100000Y-119000000D03*
%TO.P,J13,3,Pin_4*%
%TO.N,/Slaves/LTC6811_2/C3*%
X185600000Y-119000000D03*
%TO.P,J13,4,Pin_5*%
%TO.N,/Slaves/LTC6811_2/C4*%
X188100000Y-119000000D03*
%TO.P,J13,5,Pin_6*%
%TO.N,/Slaves/LTC6811_2/C5*%
X190600000Y-119000000D03*
D15*
%TO.P,J13,6,Pin_7*%
%TO.N,/Slaves/LTC6811_2/C6*%
X193100000Y-119000000D03*
%TD*%
D18*
%TO.P,J23,1,Pin_1*%
%TO.N,/PowerSupply/+12V*%
X39825000Y-141450000D03*
D19*
%TO.P,J23,2,Pin_2*%
%TO.N,GND*%
X39825000Y-143950000D03*
%TO.P,J23,3,Pin_3*%
%TO.N,/CAN/CAN_H*%
X39825000Y-146450000D03*
%TO.P,J23,4,Pin_4*%
%TO.N,/CAN/CAN_L*%
X39825000Y-148950000D03*
%TD*%
D14*
%TO.P,J12,0,Pin_1*%
%TO.N,/Slaves/LTC6811_2/C6*%
X204500000Y-119000000D03*
%TO.P,J12,1,Pin_2*%
%TO.N,/Slaves/LTC6811_2/C7*%
X207000000Y-119000000D03*
%TO.P,J12,2,Pin_3*%
%TO.N,/Slaves/LTC6811_2/C8*%
X209500000Y-119000000D03*
%TO.P,J12,3,Pin_4*%
%TO.N,/Slaves/LTC6811_2/C9*%
X212000000Y-119000000D03*
%TO.P,J12,4,Pin_5*%
%TO.N,/Slaves/LTC6811_2/C10*%
X214500000Y-119000000D03*
%TO.P,J12,5,Pin_6*%
%TO.N,/Slaves/LTC6811_2/C11*%
X217000000Y-119000000D03*
D15*
%TO.P,J12,6,Pin_7*%
%TO.N,/Slaves/LTC6811_2/C12*%
X219500000Y-119000000D03*
%TD*%
D12*
%TO.P,TH10,1*%
%TO.N,/Slaves/LTC6811_2/T5*%
X174995000Y-150800000D03*
D13*
%TO.P,TH10,2*%
%TO.N,GND_PACK*%
X176895000Y-150800000D03*
%TD*%
D20*
%TO.P,J5,1,Pin_1*%
%TO.N,/PowerSupply/+12V*%
X38800000Y-135300000D03*
D19*
%TO.P,J5,2,Pin_2*%
%TO.N,GND*%
X38800000Y-132800000D03*
%TO.P,J5,3,Pin_3*%
%TO.N,/CAN/CAN_H*%
X38800000Y-130300000D03*
%TO.P,J5,4,Pin_4*%
%TO.N,/CAN/CAN_L*%
X38800000Y-127800000D03*
%TD*%
D12*
%TO.P,TH2,1*%
%TO.N,/Slaves/LTC6811_1/T2*%
X115395000Y-157100000D03*
D13*
%TO.P,TH2,2*%
%TO.N,GND_PACK*%
X117295000Y-157100000D03*
%TD*%
D21*
%TO.N,+3V3*%
X52700000Y-127200000D03*
X98000000Y-139800000D03*
X62250000Y-126200000D03*
X69300000Y-141900000D03*
X55700000Y-132400000D03*
X58000000Y-126200000D03*
X96488072Y-139311928D03*
D22*
%TO.N,GND*%
X61000000Y-136000000D03*
X51000000Y-126000000D03*
X55000000Y-136000000D03*
X75000000Y-150000000D03*
X107000000Y-130000000D03*
X59000000Y-162000000D03*
X97000000Y-120000000D03*
X114000000Y-164000000D03*
X39000000Y-126000000D03*
X61000000Y-138000000D03*
X63000000Y-162000000D03*
X59000000Y-122000000D03*
X83000000Y-158000000D03*
X75000000Y-162000000D03*
X63000000Y-122000000D03*
X79000000Y-158000000D03*
X112000000Y-166800000D03*
X87000000Y-146000000D03*
X55000000Y-146000000D03*
X43000000Y-150000000D03*
X106000000Y-136000000D03*
X91000000Y-134000000D03*
X43000000Y-132000000D03*
X75000000Y-126000000D03*
X65000000Y-122000000D03*
X87000000Y-138000000D03*
X73000000Y-118000000D03*
X83000000Y-162000000D03*
X97000000Y-116000000D03*
X47000000Y-146000000D03*
X63000000Y-132500000D03*
X61000000Y-140000000D03*
X53000000Y-132000000D03*
X68000000Y-127000000D03*
X83000000Y-130000000D03*
X65000000Y-120000000D03*
X67000000Y-158000000D03*
X83000000Y-138000000D03*
X63000000Y-120000000D03*
X43000000Y-146000000D03*
X55000000Y-122000000D03*
X91000000Y-162000000D03*
X60000000Y-131000000D03*
X107000000Y-158000000D03*
X63000000Y-124000000D03*
X55000000Y-168000000D03*
X107000000Y-154000000D03*
X61000000Y-116000000D03*
X75000000Y-134000000D03*
X79000000Y-126000000D03*
X79000000Y-122000000D03*
X61000000Y-158000000D03*
X79000000Y-138000000D03*
X69000000Y-118000000D03*
X91000000Y-158000000D03*
X67500000Y-138000000D03*
X51000000Y-168000000D03*
X69000000Y-116000000D03*
X99000000Y-134000000D03*
X51000000Y-162000000D03*
X63000000Y-146000000D03*
X91000000Y-146000000D03*
X59000000Y-146000000D03*
X65000000Y-116000000D03*
X75000000Y-154000000D03*
X99000000Y-126000000D03*
X59000000Y-120000000D03*
X87000000Y-134000000D03*
X55000000Y-138000000D03*
X91000000Y-138000000D03*
X73000000Y-116000000D03*
X75000000Y-146000000D03*
X61500000Y-154000000D03*
X83000000Y-166000000D03*
X79000000Y-166000000D03*
X83000000Y-146000000D03*
X83000000Y-134000000D03*
X79000000Y-146000000D03*
X95000000Y-116000000D03*
X116000000Y-164000000D03*
X99000000Y-146000000D03*
X47000000Y-162000000D03*
X91000000Y-122000000D03*
X83000000Y-150000000D03*
X49000000Y-116000000D03*
X107050000Y-142850000D03*
X43000000Y-138000000D03*
X87000000Y-158000000D03*
X65500000Y-132500000D03*
X51000000Y-146000000D03*
X99000000Y-158000000D03*
X103000000Y-126000000D03*
X60000000Y-127500000D03*
X79000000Y-130000000D03*
X107000000Y-146000000D03*
X87000000Y-122000000D03*
X75000000Y-138000000D03*
X45000000Y-120000000D03*
X51000000Y-132000000D03*
X67300000Y-140500000D03*
X53000000Y-116000000D03*
X107000000Y-134000000D03*
X107000000Y-126000000D03*
X67000000Y-168000000D03*
X43000000Y-126000000D03*
X87000000Y-126000000D03*
X59000000Y-168000000D03*
X47000000Y-132000000D03*
X87000000Y-154000000D03*
X99000000Y-150000000D03*
X49000000Y-132000000D03*
X65000000Y-160000000D03*
X107000000Y-150000000D03*
X91000000Y-130000000D03*
X73000000Y-120000000D03*
X55000000Y-118000000D03*
X87000000Y-150000000D03*
X45000000Y-116000000D03*
X75000000Y-158000000D03*
X79000000Y-154000000D03*
X59000000Y-138000000D03*
X68000000Y-129000000D03*
X57000000Y-120000000D03*
X114000000Y-166700000D03*
X55000000Y-120000000D03*
X79000000Y-134000000D03*
X59000000Y-160000000D03*
X87000000Y-162000000D03*
X83000000Y-122000000D03*
X57000000Y-116000000D03*
X55000000Y-134000000D03*
X83000000Y-126000000D03*
X43000000Y-134000000D03*
X83000000Y-154000000D03*
X112000000Y-164000000D03*
X47000000Y-166000000D03*
X55000000Y-162000000D03*
X75000000Y-166000000D03*
X79000000Y-162000000D03*
X75000000Y-122000000D03*
X63000000Y-168000000D03*
X87000000Y-130000000D03*
X45000000Y-124000000D03*
X47000000Y-168000000D03*
X79000000Y-150000000D03*
X64700000Y-129700000D03*
X95000000Y-120000000D03*
X103000000Y-130000000D03*
X103300000Y-142850000D03*
X87000000Y-166000000D03*
X91000000Y-150000000D03*
X91000000Y-154000000D03*
X75000000Y-130000000D03*
X47000000Y-126000000D03*
X45000000Y-132000000D03*
X116000000Y-166800000D03*
X99000000Y-154000000D03*
X60500000Y-132500000D03*
X103250000Y-141350000D03*
X69000000Y-120000000D03*
X60000000Y-129000000D03*
X91000000Y-126000000D03*
X99000000Y-130000000D03*
D21*
%TO.N,GND_PACK*%
X161300000Y-141200000D03*
D22*
X131900000Y-150000000D03*
X109500000Y-152000000D03*
X214900000Y-116000000D03*
X172900000Y-162000000D03*
X169300000Y-140000000D03*
D21*
X189200000Y-141200000D03*
D22*
X163900000Y-148000000D03*
X188900000Y-160000000D03*
X169300000Y-144000000D03*
X172100000Y-130100000D03*
X227000000Y-126000000D03*
X169300000Y-148000000D03*
X156900000Y-160000000D03*
X138100000Y-118100000D03*
X176000000Y-124000000D03*
X190900000Y-157000000D03*
X196900000Y-119000000D03*
X213000000Y-166000000D03*
X161900000Y-160000000D03*
X132900000Y-164000000D03*
X189000000Y-149000000D03*
X203000000Y-166000000D03*
D21*
X125300000Y-141200000D03*
D22*
X169300000Y-128000000D03*
X128900000Y-160000000D03*
X179900000Y-148000000D03*
X185000000Y-149000000D03*
X227000000Y-142000000D03*
X220900000Y-147000000D03*
X169300000Y-123900000D03*
X187000000Y-149000000D03*
X114900000Y-123000000D03*
X148900000Y-168100000D03*
X224100000Y-138100000D03*
X213000000Y-160000000D03*
X136100000Y-118100000D03*
X148100000Y-116100000D03*
X139000000Y-165014382D03*
X142100000Y-120250000D03*
X188900000Y-157000000D03*
X144100000Y-152100000D03*
X183000000Y-149000000D03*
X152100000Y-116100000D03*
X169300000Y-132000000D03*
X134650000Y-151250000D03*
X161900000Y-154000000D03*
X109500000Y-128000000D03*
X223000000Y-158000000D03*
D21*
X138700000Y-141200000D03*
D22*
X163900000Y-146000000D03*
X163000000Y-116000000D03*
X221000000Y-160000000D03*
X216900000Y-147000000D03*
X222900000Y-154000000D03*
X167000000Y-120000000D03*
X176100000Y-146100000D03*
X172900000Y-164000000D03*
X222900000Y-116000000D03*
X174100000Y-146100000D03*
X131900000Y-151250000D03*
X128900000Y-158000000D03*
X136900000Y-160100000D03*
X118900000Y-146000000D03*
D21*
X156800000Y-141200000D03*
D22*
X150100000Y-150100000D03*
D21*
X184700000Y-141200000D03*
D22*
X188900000Y-168000000D03*
X167400000Y-136000000D03*
X156900000Y-148100000D03*
X184900000Y-159958072D03*
X231000000Y-134000000D03*
X178900000Y-162000000D03*
X160900000Y-152100000D03*
X172900000Y-166000000D03*
X171000000Y-119700000D03*
X231000000Y-150000000D03*
X200100000Y-152100000D03*
X184900000Y-162000000D03*
X111900000Y-130000000D03*
X167400000Y-140000000D03*
X116900000Y-160000000D03*
X213000000Y-162000000D03*
X167400000Y-160000000D03*
X109500000Y-136000000D03*
X209900000Y-149000000D03*
X164900000Y-166000000D03*
D21*
X116400000Y-141200000D03*
D22*
X222900000Y-152000000D03*
X109500000Y-156000000D03*
X164900000Y-160000000D03*
D21*
X211300000Y-141200000D03*
D22*
X191000000Y-149000000D03*
X164900000Y-157000000D03*
D21*
X202400000Y-141200000D03*
D22*
X231000000Y-138000000D03*
X213000000Y-164000000D03*
X211900000Y-149000000D03*
X213000000Y-168000000D03*
X206900000Y-151000000D03*
X167400000Y-128000000D03*
X178900000Y-167100000D03*
X167400000Y-152000000D03*
X158800000Y-166800000D03*
X227000000Y-134000000D03*
X144900000Y-168100000D03*
X169300000Y-160000000D03*
X113900000Y-128000000D03*
X195800000Y-155500000D03*
X167000000Y-116000000D03*
X152900000Y-160000000D03*
X171000000Y-116000000D03*
X142100000Y-118100000D03*
X163900000Y-154000000D03*
X183000000Y-151000000D03*
X111650000Y-148000000D03*
X231000000Y-146000000D03*
X109500000Y-148000000D03*
X143900000Y-164000000D03*
X111650000Y-141900000D03*
X196900000Y-168000000D03*
X172900000Y-168000000D03*
X172100000Y-128100000D03*
X124900000Y-158000000D03*
D21*
X134300000Y-141200000D03*
D22*
X124900000Y-150100000D03*
X140100000Y-152000000D03*
X111900000Y-128000000D03*
X231000000Y-126000000D03*
X114900000Y-146000000D03*
D21*
X147800000Y-141200000D03*
D22*
X113900000Y-130000000D03*
X227000000Y-138000000D03*
D21*
X120900000Y-141200000D03*
D22*
X227000000Y-130000000D03*
X167400000Y-156000000D03*
X132900000Y-168000000D03*
X140100000Y-116100000D03*
X231000000Y-130000000D03*
D21*
X206800000Y-141200000D03*
D22*
X164900000Y-168000000D03*
D21*
X175900000Y-141200000D03*
D22*
X143900000Y-166000000D03*
X160900000Y-148100000D03*
X175000000Y-116000000D03*
X142100000Y-116100000D03*
D21*
X215600000Y-141200000D03*
D22*
X201000000Y-168000000D03*
X178900000Y-164100000D03*
X128900000Y-150100000D03*
X178100000Y-146100000D03*
X109500000Y-118000000D03*
X112900000Y-146000000D03*
X167400000Y-123900000D03*
X224100000Y-142100000D03*
X114900000Y-125000000D03*
D21*
X164800000Y-142300000D03*
D22*
X202900000Y-116000000D03*
X146100000Y-152100000D03*
X124900000Y-160000000D03*
X216900000Y-149000000D03*
X220900000Y-149000000D03*
X218900000Y-147000000D03*
X109500000Y-122000000D03*
X169300000Y-152000000D03*
D21*
X220000000Y-141200000D03*
D22*
X184900000Y-157000000D03*
X210900000Y-116000000D03*
X192900000Y-168000000D03*
X164900000Y-164000000D03*
X156000000Y-164000000D03*
X198900000Y-116000000D03*
X109500000Y-140000000D03*
X181000000Y-150000000D03*
D21*
X143200000Y-141200000D03*
D22*
X167400000Y-132000000D03*
X163900000Y-150000000D03*
X136600000Y-155600000D03*
X156900000Y-150250000D03*
X164900000Y-162000000D03*
X142100000Y-152100000D03*
X164900000Y-152100000D03*
D21*
X180300000Y-141200000D03*
D22*
X183900000Y-164100000D03*
X217000000Y-160000000D03*
X148900000Y-164100000D03*
X109600000Y-132000000D03*
X172100000Y-146100000D03*
X167400000Y-144000000D03*
X224900000Y-156100000D03*
X207000000Y-160000000D03*
X116900000Y-121000000D03*
X120900000Y-160000000D03*
X206900000Y-116000000D03*
D21*
X129800000Y-141200000D03*
D22*
X169300000Y-156000000D03*
X160100000Y-116100000D03*
X213900000Y-149000000D03*
X227000000Y-146000000D03*
D21*
X193600000Y-141200000D03*
D22*
X209000000Y-160000000D03*
X200900000Y-119000000D03*
X144100000Y-116100000D03*
X109500000Y-144000000D03*
X132900000Y-160000000D03*
X156100000Y-116100000D03*
X111650000Y-144000000D03*
X111650000Y-146000000D03*
X136900000Y-151250000D03*
X169300000Y-136000000D03*
D21*
X197950000Y-141200000D03*
D22*
X218900000Y-116000000D03*
D21*
X152300000Y-141200000D03*
D22*
X183900000Y-167100000D03*
X231000000Y-142000000D03*
X185000000Y-151000000D03*
X176000000Y-122000000D03*
X192900000Y-160000000D03*
X137400000Y-166600000D03*
X140100000Y-120250000D03*
X167400000Y-148000000D03*
X211000000Y-160000000D03*
X227000000Y-150000000D03*
X171400000Y-144000000D03*
X116900000Y-146000000D03*
X171400000Y-141900000D03*
X138100000Y-120250000D03*
X204100000Y-152100000D03*
D23*
%TO.N,/Slaves/LTC6811_1/cell1/S*%
X133000000Y-149000000D03*
X133000000Y-157000000D03*
D21*
%TO.N,/Slaves/LTC6811_2/cell1/S*%
X192450000Y-157000000D03*
X192450000Y-148650000D03*
%TO.N,/MCU/VSPI_MISO*%
X97800000Y-141900000D03*
X101500000Y-140700000D03*
D22*
%TO.N,/PowerSupply/+12V*%
X56900000Y-125700000D03*
X56900000Y-137600000D03*
%TD*%
D24*
%TO.N,+3V3*%
X55700000Y-132400000D02*
X55700000Y-128100000D01*
X69300000Y-141900000D02*
X67867500Y-143332500D01*
X58000000Y-126200000D02*
X62250000Y-126200000D01*
X54800000Y-127200000D02*
X52700000Y-127200000D01*
X55700000Y-128100000D02*
X54800000Y-127200000D01*
X97511928Y-139311928D02*
X96488072Y-139311928D01*
X98000000Y-139800000D02*
X97511928Y-139311928D01*
X67867500Y-143332500D02*
X64800000Y-143332500D01*
D25*
%TO.N,/Slaves/LTC6811_1/cell1/S*%
X133000000Y-157000000D02*
X133000000Y-149000000D01*
%TO.N,/Slaves/LTC6811_2/cell1/S*%
X192450000Y-157000000D02*
X192450000Y-148650000D01*
%TO.N,/MCU/VSPI_MISO*%
X99000000Y-140700000D02*
X97800000Y-141900000D01*
X101500000Y-140700000D02*
X99000000Y-140700000D01*
D26*
%TO.N,/PowerSupply/+12V*%
X56900000Y-137600000D02*
X56900000Y-125700000D01*
%TD*%
%TA.AperFunction,Conductor*%
%TO.N,GND_PACK*%
G36*
X167646288Y-115519454D02*
G01*
X167727070Y-115573430D01*
X167781046Y-115654212D01*
X167800000Y-115749500D01*
X167800000Y-160951000D01*
X167781046Y-161046288D01*
X167727070Y-161127070D01*
X167646288Y-161181046D01*
X167551000Y-161200000D01*
X165400000Y-161200000D01*
X165400000Y-161200001D01*
X165400000Y-169250500D01*
X165381046Y-169345788D01*
X165327070Y-169426570D01*
X165246288Y-169480546D01*
X165151000Y-169499500D01*
X131349000Y-169499500D01*
X131253712Y-169480546D01*
X131172930Y-169426570D01*
X131118954Y-169345788D01*
X131100000Y-169250500D01*
X131100000Y-160300001D01*
X131100000Y-160300000D01*
X131099999Y-160300000D01*
X110497355Y-160300000D01*
X110402067Y-160281046D01*
X110328463Y-160233966D01*
X109180108Y-159173945D01*
X109122946Y-159095385D01*
X109100199Y-159000931D01*
X109100000Y-158990979D01*
X109100000Y-150500000D01*
X114189357Y-150500000D01*
X114209884Y-150721533D01*
X114209885Y-150721536D01*
X114270771Y-150935528D01*
X114369942Y-151134689D01*
X114504019Y-151312236D01*
X114504020Y-151312237D01*
X114504021Y-151312238D01*
X114617828Y-151415988D01*
X114675477Y-151494190D01*
X114698811Y-151588502D01*
X114684278Y-151684563D01*
X114634089Y-151767751D01*
X114617828Y-151784012D01*
X114504021Y-151887761D01*
X114504020Y-151887762D01*
X114369941Y-152065312D01*
X114369941Y-152065313D01*
X114270772Y-152264469D01*
X114209884Y-152478466D01*
X114189357Y-152700000D01*
X114209884Y-152921533D01*
X114209885Y-152921536D01*
X114270771Y-153135528D01*
X114369942Y-153334689D01*
X114504019Y-153512236D01*
X114504020Y-153512237D01*
X114504021Y-153512238D01*
X114617828Y-153615988D01*
X114675477Y-153694190D01*
X114698811Y-153788502D01*
X114684278Y-153884563D01*
X114634089Y-153967751D01*
X114617828Y-153984012D01*
X114504021Y-154087761D01*
X114504020Y-154087762D01*
X114369941Y-154265312D01*
X114369941Y-154265313D01*
X114270772Y-154464469D01*
X114209884Y-154678466D01*
X114189357Y-154900000D01*
X114209884Y-155121533D01*
X114209885Y-155121536D01*
X114270771Y-155335528D01*
X114369942Y-155534689D01*
X114504019Y-155712236D01*
X114504020Y-155712237D01*
X114504021Y-155712238D01*
X114617828Y-155815988D01*
X114675477Y-155894190D01*
X114698811Y-155988502D01*
X114684278Y-156084563D01*
X114634089Y-156167751D01*
X114617828Y-156184012D01*
X114504021Y-156287761D01*
X114504020Y-156287762D01*
X114369941Y-156465312D01*
X114369941Y-156465313D01*
X114270772Y-156664469D01*
X114209884Y-156878466D01*
X114189357Y-157100000D01*
X114209884Y-157321533D01*
X114209885Y-157321536D01*
X114270771Y-157535528D01*
X114369942Y-157734689D01*
X114504019Y-157912236D01*
X114656090Y-158050867D01*
X114668439Y-158062125D01*
X114776632Y-158129114D01*
X114857599Y-158179247D01*
X115065060Y-158259618D01*
X115065063Y-158259619D01*
X115283754Y-158300500D01*
X115283757Y-158300500D01*
X115506246Y-158300500D01*
X115724936Y-158259619D01*
X115724937Y-158259618D01*
X115724940Y-158259618D01*
X115932401Y-158179247D01*
X116121562Y-158062124D01*
X116285981Y-157912236D01*
X116420058Y-157734689D01*
X116519229Y-157535528D01*
X116580115Y-157321536D01*
X116600643Y-157100000D01*
X116580115Y-156878464D01*
X116519229Y-156664472D01*
X116420058Y-156465311D01*
X116285981Y-156287764D01*
X116172171Y-156184012D01*
X116114522Y-156105810D01*
X116091188Y-156011499D01*
X116105721Y-155915437D01*
X116155909Y-155832250D01*
X116172172Y-155815987D01*
X116194084Y-155796010D01*
X116285981Y-155712236D01*
X116420058Y-155534689D01*
X116519229Y-155335528D01*
X116580115Y-155121536D01*
X116600643Y-154900000D01*
X116580115Y-154678464D01*
X116519229Y-154464472D01*
X116420058Y-154265311D01*
X116285981Y-154087764D01*
X116172171Y-153984012D01*
X116114522Y-153905810D01*
X116091188Y-153811499D01*
X116105721Y-153715437D01*
X116155909Y-153632250D01*
X116172172Y-153615987D01*
X116194084Y-153596010D01*
X116285981Y-153512236D01*
X116420058Y-153334689D01*
X116519229Y-153135528D01*
X116580115Y-152921536D01*
X116600643Y-152700000D01*
X116580115Y-152478464D01*
X116519229Y-152264472D01*
X116420058Y-152065311D01*
X116285981Y-151887764D01*
X116172171Y-151784012D01*
X116114522Y-151705810D01*
X116091188Y-151611499D01*
X116105721Y-151515437D01*
X116155909Y-151432250D01*
X116172172Y-151415987D01*
X116194084Y-151396010D01*
X116285981Y-151312236D01*
X116420058Y-151134689D01*
X116519229Y-150935528D01*
X116580115Y-150721536D01*
X116600643Y-150500000D01*
X116580115Y-150278464D01*
X116519229Y-150064472D01*
X116420058Y-149865311D01*
X116285981Y-149687764D01*
X116121562Y-149537876D01*
X116121560Y-149537874D01*
X115932406Y-149420756D01*
X115932405Y-149420755D01*
X115932401Y-149420753D01*
X115877464Y-149399470D01*
X115724936Y-149340380D01*
X115506246Y-149299500D01*
X115506243Y-149299500D01*
X115283757Y-149299500D01*
X115283754Y-149299500D01*
X115065063Y-149340380D01*
X114857601Y-149420752D01*
X114857593Y-149420756D01*
X114668439Y-149537874D01*
X114504018Y-149687765D01*
X114369941Y-149865312D01*
X114369941Y-149865313D01*
X114270772Y-150064469D01*
X114209884Y-150278466D01*
X114189357Y-150500000D01*
X109100000Y-150500000D01*
X109100000Y-148999996D01*
X132194435Y-148999996D01*
X132194435Y-149000003D01*
X132214630Y-149179245D01*
X132214631Y-149179251D01*
X132214632Y-149179255D01*
X132274211Y-149349522D01*
X132274212Y-149349523D01*
X132274212Y-149349524D01*
X132311334Y-149408602D01*
X132345982Y-149499369D01*
X132349500Y-149541079D01*
X132349500Y-156458920D01*
X132330546Y-156554208D01*
X132311335Y-156591395D01*
X132274213Y-156650473D01*
X132274211Y-156650476D01*
X132274211Y-156650478D01*
X132269315Y-156664472D01*
X132214632Y-156820746D01*
X132214630Y-156820754D01*
X132194435Y-156999996D01*
X132194435Y-157000003D01*
X132214630Y-157179245D01*
X132214631Y-157179251D01*
X132214632Y-157179255D01*
X132274211Y-157349522D01*
X132274212Y-157349523D01*
X132274214Y-157349529D01*
X132370180Y-157502257D01*
X132370182Y-157502259D01*
X132370184Y-157502262D01*
X132497738Y-157629816D01*
X132497740Y-157629817D01*
X132497742Y-157629819D01*
X132650470Y-157725785D01*
X132650473Y-157725786D01*
X132650478Y-157725789D01*
X132820745Y-157785368D01*
X132820754Y-157785369D01*
X132999996Y-157805565D01*
X133000000Y-157805565D01*
X133000004Y-157805565D01*
X133139908Y-157789801D01*
X133179255Y-157785368D01*
X133349522Y-157725789D01*
X133349527Y-157725785D01*
X133349529Y-157725785D01*
X133502257Y-157629819D01*
X133502256Y-157629819D01*
X133502262Y-157629816D01*
X133629816Y-157502262D01*
X133725789Y-157349522D01*
X133785368Y-157179255D01*
X133805565Y-157000000D01*
X133785368Y-156820745D01*
X133725789Y-156650478D01*
X133688665Y-156591395D01*
X133654018Y-156500628D01*
X133650500Y-156458920D01*
X133650500Y-149541079D01*
X133669454Y-149445791D01*
X133688666Y-149408602D01*
X133725789Y-149349522D01*
X133785368Y-149179255D01*
X133805565Y-149000000D01*
X133785368Y-148820745D01*
X133725789Y-148650478D01*
X133725786Y-148650473D01*
X133725785Y-148650470D01*
X133629819Y-148497742D01*
X133629817Y-148497740D01*
X133629816Y-148497738D01*
X133502262Y-148370184D01*
X133502259Y-148370182D01*
X133502257Y-148370180D01*
X133349529Y-148274214D01*
X133349524Y-148274212D01*
X133349522Y-148274211D01*
X133179255Y-148214632D01*
X133179251Y-148214631D01*
X133179245Y-148214630D01*
X133000004Y-148194435D01*
X132999996Y-148194435D01*
X132820754Y-148214630D01*
X132820746Y-148214631D01*
X132820745Y-148214632D01*
X132650478Y-148274211D01*
X132650476Y-148274211D01*
X132650476Y-148274212D01*
X132650470Y-148274214D01*
X132497742Y-148370180D01*
X132370180Y-148497742D01*
X132274214Y-148650470D01*
X132274212Y-148650476D01*
X132214632Y-148820746D01*
X132214630Y-148820754D01*
X132194435Y-148999996D01*
X109100000Y-148999996D01*
X109100000Y-118768703D01*
X117249500Y-118768703D01*
X117249500Y-119231296D01*
X117282753Y-119441240D01*
X117282754Y-119441243D01*
X117348443Y-119643412D01*
X117444949Y-119832816D01*
X117569896Y-120004792D01*
X117720208Y-120155104D01*
X117892184Y-120280051D01*
X118081588Y-120376557D01*
X118283757Y-120442246D01*
X118357601Y-120453941D01*
X118493703Y-120475499D01*
X118493710Y-120475499D01*
X118493713Y-120475500D01*
X118493716Y-120475500D01*
X118706284Y-120475500D01*
X118706287Y-120475500D01*
X118706290Y-120475499D01*
X118706296Y-120475499D01*
X118805476Y-120459789D01*
X118916243Y-120442246D01*
X119118412Y-120376557D01*
X119307816Y-120280051D01*
X119479792Y-120155104D01*
X119630104Y-120004792D01*
X119648554Y-119979396D01*
X119719894Y-119913449D01*
X119811044Y-119879820D01*
X119908124Y-119883633D01*
X119996355Y-119924306D01*
X120051444Y-119979395D01*
X120069896Y-120004792D01*
X120220208Y-120155104D01*
X120392184Y-120280051D01*
X120581588Y-120376557D01*
X120783757Y-120442246D01*
X120857601Y-120453941D01*
X120993703Y-120475499D01*
X120993710Y-120475499D01*
X120993713Y-120475500D01*
X120993716Y-120475500D01*
X121206284Y-120475500D01*
X121206287Y-120475500D01*
X121206290Y-120475499D01*
X121206296Y-120475499D01*
X121305476Y-120459789D01*
X121416243Y-120442246D01*
X121618412Y-120376557D01*
X121807816Y-120280051D01*
X121979792Y-120155104D01*
X122130104Y-120004792D01*
X122148554Y-119979396D01*
X122219894Y-119913449D01*
X122311044Y-119879820D01*
X122408124Y-119883633D01*
X122496355Y-119924306D01*
X122551444Y-119979395D01*
X122569896Y-120004792D01*
X122720208Y-120155104D01*
X122892184Y-120280051D01*
X123081588Y-120376557D01*
X123283757Y-120442246D01*
X123357601Y-120453941D01*
X123493703Y-120475499D01*
X123493710Y-120475499D01*
X123493713Y-120475500D01*
X123493716Y-120475500D01*
X123706284Y-120475500D01*
X123706287Y-120475500D01*
X123706290Y-120475499D01*
X123706296Y-120475499D01*
X123805476Y-120459789D01*
X123916243Y-120442246D01*
X124118412Y-120376557D01*
X124307816Y-120280051D01*
X124479792Y-120155104D01*
X124630104Y-120004792D01*
X124648554Y-119979396D01*
X124719894Y-119913449D01*
X124811044Y-119879820D01*
X124908124Y-119883633D01*
X124996355Y-119924306D01*
X125051444Y-119979395D01*
X125069896Y-120004792D01*
X125220208Y-120155104D01*
X125392184Y-120280051D01*
X125581588Y-120376557D01*
X125783757Y-120442246D01*
X125857601Y-120453941D01*
X125993703Y-120475499D01*
X125993710Y-120475499D01*
X125993713Y-120475500D01*
X125993716Y-120475500D01*
X126206284Y-120475500D01*
X126206287Y-120475500D01*
X126206290Y-120475499D01*
X126206296Y-120475499D01*
X126305476Y-120459789D01*
X126416243Y-120442246D01*
X126618412Y-120376557D01*
X126807816Y-120280051D01*
X126979792Y-120155104D01*
X127130104Y-120004792D01*
X127148554Y-119979396D01*
X127219894Y-119913449D01*
X127311044Y-119879820D01*
X127408124Y-119883633D01*
X127496355Y-119924306D01*
X127551444Y-119979395D01*
X127569896Y-120004792D01*
X127720208Y-120155104D01*
X127892184Y-120280051D01*
X128081588Y-120376557D01*
X128283757Y-120442246D01*
X128357601Y-120453941D01*
X128493703Y-120475499D01*
X128493710Y-120475499D01*
X128493713Y-120475500D01*
X128493716Y-120475500D01*
X128706284Y-120475500D01*
X128706287Y-120475500D01*
X128706290Y-120475499D01*
X128706296Y-120475499D01*
X128805476Y-120459789D01*
X128916243Y-120442246D01*
X129118412Y-120376557D01*
X129307816Y-120280051D01*
X129479792Y-120155104D01*
X129630104Y-120004792D01*
X129648554Y-119979396D01*
X129719894Y-119913449D01*
X129811044Y-119879820D01*
X129908124Y-119883633D01*
X129996355Y-119924306D01*
X130051444Y-119979395D01*
X130069896Y-120004792D01*
X130220208Y-120155104D01*
X130392184Y-120280051D01*
X130581588Y-120376557D01*
X130783757Y-120442246D01*
X130857601Y-120453941D01*
X130993703Y-120475499D01*
X130993710Y-120475499D01*
X130993713Y-120475500D01*
X130993716Y-120475500D01*
X131206284Y-120475500D01*
X131206287Y-120475500D01*
X131206290Y-120475499D01*
X131206296Y-120475499D01*
X131305476Y-120459789D01*
X131416243Y-120442246D01*
X131618412Y-120376557D01*
X131807816Y-120280051D01*
X131979792Y-120155104D01*
X132006813Y-120128083D01*
X132087593Y-120074105D01*
X132182881Y-120055150D01*
X132278170Y-120074103D01*
X132358952Y-120128078D01*
X132394813Y-120173430D01*
X132407288Y-120193656D01*
X132531344Y-120317712D01*
X132680666Y-120409814D01*
X132680669Y-120409815D01*
X132680667Y-120409815D01*
X132844310Y-120464040D01*
X132847203Y-120464999D01*
X132949991Y-120475500D01*
X134250008Y-120475499D01*
X134352797Y-120464999D01*
X134519334Y-120409814D01*
X134668656Y-120317712D01*
X134792712Y-120193656D01*
X134884814Y-120044334D01*
X134939999Y-119877797D01*
X134950500Y-119775009D01*
X134950499Y-118768703D01*
X144249500Y-118768703D01*
X144249500Y-119231296D01*
X144282753Y-119441240D01*
X144282754Y-119441243D01*
X144348443Y-119643412D01*
X144444949Y-119832816D01*
X144569896Y-120004792D01*
X144720208Y-120155104D01*
X144892184Y-120280051D01*
X145081588Y-120376557D01*
X145283757Y-120442246D01*
X145357601Y-120453941D01*
X145493703Y-120475499D01*
X145493710Y-120475499D01*
X145493713Y-120475500D01*
X145493716Y-120475500D01*
X145706284Y-120475500D01*
X145706287Y-120475500D01*
X145706290Y-120475499D01*
X145706296Y-120475499D01*
X145805476Y-120459789D01*
X145916243Y-120442246D01*
X146118412Y-120376557D01*
X146307816Y-120280051D01*
X146479792Y-120155104D01*
X146630104Y-120004792D01*
X146648554Y-119979396D01*
X146719894Y-119913449D01*
X146811044Y-119879820D01*
X146908124Y-119883633D01*
X146996355Y-119924306D01*
X147051444Y-119979395D01*
X147069896Y-120004792D01*
X147220208Y-120155104D01*
X147392184Y-120280051D01*
X147581588Y-120376557D01*
X147783757Y-120442246D01*
X147857601Y-120453941D01*
X147993703Y-120475499D01*
X147993710Y-120475499D01*
X147993713Y-120475500D01*
X147993716Y-120475500D01*
X148206284Y-120475500D01*
X148206287Y-120475500D01*
X148206290Y-120475499D01*
X148206296Y-120475499D01*
X148305476Y-120459789D01*
X148416243Y-120442246D01*
X148618412Y-120376557D01*
X148807816Y-120280051D01*
X148979792Y-120155104D01*
X149130104Y-120004792D01*
X149148554Y-119979396D01*
X149219894Y-119913449D01*
X149311044Y-119879820D01*
X149408124Y-119883633D01*
X149496355Y-119924306D01*
X149551444Y-119979395D01*
X149569896Y-120004792D01*
X149720208Y-120155104D01*
X149892184Y-120280051D01*
X150081588Y-120376557D01*
X150283757Y-120442246D01*
X150357601Y-120453941D01*
X150493703Y-120475499D01*
X150493710Y-120475499D01*
X150493713Y-120475500D01*
X150493716Y-120475500D01*
X150706284Y-120475500D01*
X150706287Y-120475500D01*
X150706290Y-120475499D01*
X150706296Y-120475499D01*
X150805476Y-120459789D01*
X150916243Y-120442246D01*
X151118412Y-120376557D01*
X151307816Y-120280051D01*
X151479792Y-120155104D01*
X151630104Y-120004792D01*
X151648554Y-119979396D01*
X151719894Y-119913449D01*
X151811044Y-119879820D01*
X151908124Y-119883633D01*
X151996355Y-119924306D01*
X152051444Y-119979395D01*
X152069896Y-120004792D01*
X152220208Y-120155104D01*
X152392184Y-120280051D01*
X152581588Y-120376557D01*
X152783757Y-120442246D01*
X152857601Y-120453941D01*
X152993703Y-120475499D01*
X152993710Y-120475499D01*
X152993713Y-120475500D01*
X152993716Y-120475500D01*
X153206284Y-120475500D01*
X153206287Y-120475500D01*
X153206290Y-120475499D01*
X153206296Y-120475499D01*
X153305476Y-120459789D01*
X153416243Y-120442246D01*
X153618412Y-120376557D01*
X153807816Y-120280051D01*
X153979792Y-120155104D01*
X154130104Y-120004792D01*
X154148554Y-119979396D01*
X154219894Y-119913449D01*
X154311044Y-119879820D01*
X154408124Y-119883633D01*
X154496355Y-119924306D01*
X154551444Y-119979395D01*
X154569896Y-120004792D01*
X154720208Y-120155104D01*
X154892184Y-120280051D01*
X155081588Y-120376557D01*
X155283757Y-120442246D01*
X155357601Y-120453941D01*
X155493703Y-120475499D01*
X155493710Y-120475499D01*
X155493713Y-120475500D01*
X155493716Y-120475500D01*
X155706284Y-120475500D01*
X155706287Y-120475500D01*
X155706290Y-120475499D01*
X155706296Y-120475499D01*
X155805476Y-120459789D01*
X155916243Y-120442246D01*
X156118412Y-120376557D01*
X156307816Y-120280051D01*
X156479792Y-120155104D01*
X156630104Y-120004792D01*
X156648554Y-119979396D01*
X156719894Y-119913449D01*
X156811044Y-119879820D01*
X156908124Y-119883633D01*
X156996355Y-119924306D01*
X157051444Y-119979395D01*
X157069896Y-120004792D01*
X157220208Y-120155104D01*
X157392184Y-120280051D01*
X157581588Y-120376557D01*
X157783757Y-120442246D01*
X157857601Y-120453941D01*
X157993703Y-120475499D01*
X157993710Y-120475499D01*
X157993713Y-120475500D01*
X157993716Y-120475500D01*
X158206284Y-120475500D01*
X158206287Y-120475500D01*
X158206290Y-120475499D01*
X158206296Y-120475499D01*
X158305476Y-120459789D01*
X158416243Y-120442246D01*
X158618412Y-120376557D01*
X158807816Y-120280051D01*
X158979792Y-120155104D01*
X159006813Y-120128083D01*
X159087593Y-120074105D01*
X159182881Y-120055150D01*
X159278170Y-120074103D01*
X159358952Y-120128078D01*
X159394813Y-120173430D01*
X159407288Y-120193656D01*
X159531344Y-120317712D01*
X159680666Y-120409814D01*
X159680669Y-120409815D01*
X159680667Y-120409815D01*
X159844310Y-120464040D01*
X159847203Y-120464999D01*
X159949991Y-120475500D01*
X161250008Y-120475499D01*
X161352797Y-120464999D01*
X161519334Y-120409814D01*
X161668656Y-120317712D01*
X161792712Y-120193656D01*
X161884814Y-120044334D01*
X161939999Y-119877797D01*
X161950500Y-119775009D01*
X161950499Y-118224992D01*
X161939999Y-118122203D01*
X161939328Y-118120179D01*
X161884814Y-117955667D01*
X161884814Y-117955666D01*
X161792712Y-117806344D01*
X161668656Y-117682288D01*
X161519334Y-117590186D01*
X161519332Y-117590185D01*
X161519330Y-117590184D01*
X161519332Y-117590184D01*
X161352802Y-117535002D01*
X161352798Y-117535001D01*
X161352797Y-117535001D01*
X161250009Y-117524500D01*
X161250005Y-117524500D01*
X159949993Y-117524500D01*
X159847199Y-117535001D01*
X159680667Y-117590185D01*
X159531346Y-117682286D01*
X159407285Y-117806347D01*
X159394812Y-117826570D01*
X159328655Y-117897720D01*
X159240306Y-117938138D01*
X159143216Y-117941669D01*
X159052164Y-117907776D01*
X159006815Y-117871919D01*
X158979793Y-117844897D01*
X158807817Y-117719950D01*
X158807818Y-117719950D01*
X158807816Y-117719949D01*
X158618412Y-117623443D01*
X158618409Y-117623442D01*
X158618407Y-117623441D01*
X158416240Y-117557753D01*
X158206296Y-117524500D01*
X158206287Y-117524500D01*
X157993713Y-117524500D01*
X157993703Y-117524500D01*
X157783759Y-117557753D01*
X157581592Y-117623441D01*
X157392182Y-117719950D01*
X157220206Y-117844897D01*
X157069897Y-117995206D01*
X157051446Y-118020603D01*
X156980103Y-118086552D01*
X156888953Y-118120179D01*
X156791873Y-118116365D01*
X156703642Y-118075691D01*
X156648554Y-118020603D01*
X156630104Y-117995208D01*
X156479792Y-117844896D01*
X156307816Y-117719949D01*
X156118412Y-117623443D01*
X156118409Y-117623442D01*
X156118407Y-117623441D01*
X155916240Y-117557753D01*
X155706296Y-117524500D01*
X155706287Y-117524500D01*
X155493713Y-117524500D01*
X155493703Y-117524500D01*
X155283759Y-117557753D01*
X155081592Y-117623441D01*
X154892182Y-117719950D01*
X154720206Y-117844897D01*
X154569897Y-117995206D01*
X154551446Y-118020603D01*
X154480103Y-118086552D01*
X154388953Y-118120179D01*
X154291873Y-118116365D01*
X154203642Y-118075691D01*
X154148554Y-118020603D01*
X154130104Y-117995208D01*
X153979792Y-117844896D01*
X153807816Y-117719949D01*
X153618412Y-117623443D01*
X153618409Y-117623442D01*
X153618407Y-117623441D01*
X153416240Y-117557753D01*
X153206296Y-117524500D01*
X153206287Y-117524500D01*
X152993713Y-117524500D01*
X152993703Y-117524500D01*
X152783759Y-117557753D01*
X152581592Y-117623441D01*
X152392182Y-117719950D01*
X152220206Y-117844897D01*
X152069897Y-117995206D01*
X152051446Y-118020603D01*
X151980103Y-118086552D01*
X151888953Y-118120179D01*
X151791873Y-118116365D01*
X151703642Y-118075691D01*
X151648554Y-118020603D01*
X151630104Y-117995208D01*
X151479792Y-117844896D01*
X151307816Y-117719949D01*
X151118412Y-117623443D01*
X151118409Y-117623442D01*
X151118407Y-117623441D01*
X150916240Y-117557753D01*
X150706296Y-117524500D01*
X150706287Y-117524500D01*
X150493713Y-117524500D01*
X150493703Y-117524500D01*
X150283759Y-117557753D01*
X150081592Y-117623441D01*
X149892182Y-117719950D01*
X149720206Y-117844897D01*
X149569897Y-117995206D01*
X149551446Y-118020603D01*
X149480103Y-118086552D01*
X149388953Y-118120179D01*
X149291873Y-118116365D01*
X149203642Y-118075691D01*
X149148554Y-118020603D01*
X149130104Y-117995208D01*
X148979792Y-117844896D01*
X148807816Y-117719949D01*
X148618412Y-117623443D01*
X148618409Y-117623442D01*
X148618407Y-117623441D01*
X148416240Y-117557753D01*
X148206296Y-117524500D01*
X148206287Y-117524500D01*
X147993713Y-117524500D01*
X147993703Y-117524500D01*
X147783759Y-117557753D01*
X147581592Y-117623441D01*
X147392182Y-117719950D01*
X147220206Y-117844897D01*
X147069897Y-117995206D01*
X147051446Y-118020603D01*
X146980103Y-118086552D01*
X146888953Y-118120179D01*
X146791873Y-118116365D01*
X146703642Y-118075691D01*
X146648554Y-118020603D01*
X146630104Y-117995208D01*
X146479792Y-117844896D01*
X146307816Y-117719949D01*
X146118412Y-117623443D01*
X146118409Y-117623442D01*
X146118407Y-117623441D01*
X145916240Y-117557753D01*
X145706296Y-117524500D01*
X145706287Y-117524500D01*
X145493713Y-117524500D01*
X145493703Y-117524500D01*
X145283759Y-117557753D01*
X145081592Y-117623441D01*
X144892182Y-117719950D01*
X144720206Y-117844897D01*
X144569897Y-117995206D01*
X144444950Y-118167182D01*
X144348441Y-118356592D01*
X144282753Y-118558759D01*
X144249500Y-118768703D01*
X134950499Y-118768703D01*
X134950499Y-118224992D01*
X134939999Y-118122203D01*
X134939328Y-118120179D01*
X134884814Y-117955667D01*
X134884814Y-117955666D01*
X134792712Y-117806344D01*
X134668656Y-117682288D01*
X134519334Y-117590186D01*
X134519332Y-117590185D01*
X134519330Y-117590184D01*
X134519332Y-117590184D01*
X134352802Y-117535002D01*
X134352798Y-117535001D01*
X134352797Y-117535001D01*
X134250009Y-117524500D01*
X134250005Y-117524500D01*
X132949993Y-117524500D01*
X132847199Y-117535001D01*
X132680667Y-117590185D01*
X132531346Y-117682286D01*
X132407285Y-117806347D01*
X132394812Y-117826570D01*
X132328655Y-117897720D01*
X132240306Y-117938138D01*
X132143216Y-117941669D01*
X132052164Y-117907776D01*
X132006815Y-117871919D01*
X131979793Y-117844897D01*
X131807817Y-117719950D01*
X131807818Y-117719950D01*
X131807816Y-117719949D01*
X131618412Y-117623443D01*
X131618409Y-117623442D01*
X131618407Y-117623441D01*
X131416240Y-117557753D01*
X131206296Y-117524500D01*
X131206287Y-117524500D01*
X130993713Y-117524500D01*
X130993703Y-117524500D01*
X130783759Y-117557753D01*
X130581592Y-117623441D01*
X130392182Y-117719950D01*
X130220206Y-117844897D01*
X130069897Y-117995206D01*
X130051446Y-118020603D01*
X129980103Y-118086552D01*
X129888953Y-118120179D01*
X129791873Y-118116365D01*
X129703642Y-118075691D01*
X129648554Y-118020603D01*
X129630104Y-117995208D01*
X129479792Y-117844896D01*
X129307816Y-117719949D01*
X129118412Y-117623443D01*
X129118409Y-117623442D01*
X129118407Y-117623441D01*
X128916240Y-117557753D01*
X128706296Y-117524500D01*
X128706287Y-117524500D01*
X128493713Y-117524500D01*
X128493703Y-117524500D01*
X128283759Y-117557753D01*
X128081592Y-117623441D01*
X127892182Y-117719950D01*
X127720206Y-117844897D01*
X127569897Y-117995206D01*
X127551446Y-118020603D01*
X127480103Y-118086552D01*
X127388953Y-118120179D01*
X127291873Y-118116365D01*
X127203642Y-118075691D01*
X127148554Y-118020603D01*
X127130104Y-117995208D01*
X126979792Y-117844896D01*
X126807816Y-117719949D01*
X126618412Y-117623443D01*
X126618409Y-117623442D01*
X126618407Y-117623441D01*
X126416240Y-117557753D01*
X126206296Y-117524500D01*
X126206287Y-117524500D01*
X125993713Y-117524500D01*
X125993703Y-117524500D01*
X125783759Y-117557753D01*
X125581592Y-117623441D01*
X125392182Y-117719950D01*
X125220206Y-117844897D01*
X125069897Y-117995206D01*
X125051446Y-118020603D01*
X124980103Y-118086552D01*
X124888953Y-118120179D01*
X124791873Y-118116365D01*
X124703642Y-118075691D01*
X124648554Y-118020603D01*
X124630104Y-117995208D01*
X124479792Y-117844896D01*
X124307816Y-117719949D01*
X124118412Y-117623443D01*
X124118409Y-117623442D01*
X124118407Y-117623441D01*
X123916240Y-117557753D01*
X123706296Y-117524500D01*
X123706287Y-117524500D01*
X123493713Y-117524500D01*
X123493703Y-117524500D01*
X123283759Y-117557753D01*
X123081592Y-117623441D01*
X122892182Y-117719950D01*
X122720206Y-117844897D01*
X122569897Y-117995206D01*
X122551446Y-118020603D01*
X122480103Y-118086552D01*
X122388953Y-118120179D01*
X122291873Y-118116365D01*
X122203642Y-118075691D01*
X122148554Y-118020603D01*
X122130104Y-117995208D01*
X121979792Y-117844896D01*
X121807816Y-117719949D01*
X121618412Y-117623443D01*
X121618409Y-117623442D01*
X121618407Y-117623441D01*
X121416240Y-117557753D01*
X121206296Y-117524500D01*
X121206287Y-117524500D01*
X120993713Y-117524500D01*
X120993703Y-117524500D01*
X120783759Y-117557753D01*
X120581592Y-117623441D01*
X120392182Y-117719950D01*
X120220206Y-117844897D01*
X120069897Y-117995206D01*
X120051446Y-118020603D01*
X119980103Y-118086552D01*
X119888953Y-118120179D01*
X119791873Y-118116365D01*
X119703642Y-118075691D01*
X119648554Y-118020603D01*
X119630104Y-117995208D01*
X119479792Y-117844896D01*
X119307816Y-117719949D01*
X119118412Y-117623443D01*
X119118409Y-117623442D01*
X119118407Y-117623441D01*
X118916240Y-117557753D01*
X118706296Y-117524500D01*
X118706287Y-117524500D01*
X118493713Y-117524500D01*
X118493703Y-117524500D01*
X118283759Y-117557753D01*
X118081592Y-117623441D01*
X117892182Y-117719950D01*
X117720206Y-117844897D01*
X117569897Y-117995206D01*
X117444950Y-118167182D01*
X117348441Y-118356592D01*
X117282753Y-118558759D01*
X117249500Y-118768703D01*
X109100000Y-118768703D01*
X109100000Y-115749500D01*
X109118954Y-115654212D01*
X109172930Y-115573430D01*
X109253712Y-115519454D01*
X109349000Y-115500500D01*
X167551000Y-115500500D01*
X167646288Y-115519454D01*
G37*
%TD.AperFunction*%
%TD*%
%TA.AperFunction,Conductor*%
%TO.N,GND_PACK*%
G36*
X226746288Y-115519454D02*
G01*
X226827070Y-115573430D01*
X226881046Y-115654212D01*
X226900000Y-115749500D01*
X226900000Y-123100000D01*
X234250500Y-123100000D01*
X234345788Y-123118954D01*
X234426570Y-123172930D01*
X234480546Y-123253712D01*
X234499500Y-123349000D01*
X234499500Y-151351000D01*
X234480546Y-151446288D01*
X234426570Y-151527070D01*
X234345788Y-151581046D01*
X234250500Y-151600000D01*
X226900000Y-151600000D01*
X226900000Y-151600001D01*
X226900000Y-155996860D01*
X226881046Y-156092148D01*
X226827070Y-156172930D01*
X222472930Y-160527070D01*
X222392148Y-160581046D01*
X222296860Y-160600000D01*
X214600000Y-160600000D01*
X214600000Y-160600001D01*
X214600000Y-169250500D01*
X214581046Y-169345788D01*
X214527070Y-169426570D01*
X214446288Y-169480546D01*
X214351000Y-169499500D01*
X171449000Y-169499500D01*
X171353712Y-169480546D01*
X171272930Y-169426570D01*
X171218954Y-169345788D01*
X171200000Y-169250500D01*
X171200000Y-161200001D01*
X171200000Y-161200000D01*
X169149000Y-161200000D01*
X169053712Y-161181046D01*
X168972930Y-161127070D01*
X168918954Y-161046288D01*
X168900000Y-160951000D01*
X168900000Y-150800000D01*
X173789357Y-150800000D01*
X173809884Y-151021533D01*
X173809885Y-151021536D01*
X173870771Y-151235528D01*
X173969942Y-151434689D01*
X174094779Y-151600000D01*
X174104020Y-151612237D01*
X174104021Y-151612238D01*
X174217828Y-151715988D01*
X174275477Y-151794190D01*
X174298811Y-151888502D01*
X174284278Y-151984563D01*
X174234089Y-152067751D01*
X174217828Y-152084012D01*
X174104021Y-152187761D01*
X174104020Y-152187762D01*
X173969941Y-152365312D01*
X173969941Y-152365313D01*
X173870772Y-152564469D01*
X173809884Y-152778466D01*
X173789357Y-153000000D01*
X173809884Y-153221533D01*
X173809885Y-153221536D01*
X173870771Y-153435528D01*
X173969942Y-153634689D01*
X174104019Y-153812236D01*
X174104020Y-153812237D01*
X174104021Y-153812238D01*
X174272675Y-153965988D01*
X174330324Y-154044190D01*
X174353658Y-154138502D01*
X174339125Y-154234563D01*
X174288936Y-154317751D01*
X174272675Y-154334012D01*
X174104021Y-154487761D01*
X174104020Y-154487762D01*
X173969941Y-154665312D01*
X173969941Y-154665313D01*
X173870772Y-154864469D01*
X173809884Y-155078466D01*
X173789357Y-155300000D01*
X173809884Y-155521533D01*
X173809885Y-155521536D01*
X173870771Y-155735528D01*
X173969942Y-155934689D01*
X174104019Y-156112236D01*
X174256090Y-156250867D01*
X174268439Y-156262125D01*
X174376632Y-156329114D01*
X174457599Y-156379247D01*
X174457607Y-156379250D01*
X174557153Y-156417815D01*
X174639159Y-156469911D01*
X174694987Y-156549424D01*
X174716137Y-156644249D01*
X174699388Y-156739950D01*
X174647292Y-156821956D01*
X174567779Y-156877784D01*
X174557153Y-156882185D01*
X174457607Y-156920749D01*
X174457593Y-156920756D01*
X174268439Y-157037874D01*
X174104018Y-157187765D01*
X173969941Y-157365312D01*
X173969941Y-157365313D01*
X173870772Y-157564469D01*
X173809884Y-157778466D01*
X173789357Y-158000000D01*
X173809884Y-158221533D01*
X173809885Y-158221536D01*
X173870771Y-158435528D01*
X173969942Y-158634689D01*
X174104019Y-158812236D01*
X174256090Y-158950867D01*
X174268439Y-158962125D01*
X174376632Y-159029114D01*
X174457599Y-159079247D01*
X174665060Y-159159618D01*
X174665063Y-159159619D01*
X174883754Y-159200500D01*
X174883757Y-159200500D01*
X175106246Y-159200500D01*
X175324936Y-159159619D01*
X175324937Y-159159618D01*
X175324940Y-159159618D01*
X175532401Y-159079247D01*
X175721562Y-158962124D01*
X175885981Y-158812236D01*
X176020058Y-158634689D01*
X176119229Y-158435528D01*
X176180115Y-158221536D01*
X176200643Y-158000000D01*
X176180115Y-157778464D01*
X176119229Y-157564472D01*
X176020058Y-157365311D01*
X175885981Y-157187764D01*
X175721562Y-157037876D01*
X175721560Y-157037874D01*
X175532406Y-156920756D01*
X175532405Y-156920755D01*
X175532401Y-156920753D01*
X175432844Y-156882184D01*
X175350840Y-156830090D01*
X175295012Y-156750577D01*
X175273862Y-156655752D01*
X175290610Y-156560051D01*
X175342706Y-156478044D01*
X175422219Y-156422216D01*
X175432827Y-156417821D01*
X175532401Y-156379247D01*
X175721562Y-156262124D01*
X175885981Y-156112236D01*
X176020058Y-155934689D01*
X176119229Y-155735528D01*
X176180115Y-155521536D01*
X176200643Y-155300000D01*
X176180115Y-155078464D01*
X176119229Y-154864472D01*
X176020058Y-154665311D01*
X175885981Y-154487764D01*
X175721562Y-154337876D01*
X175721560Y-154337875D01*
X175717324Y-154334013D01*
X175659675Y-154255810D01*
X175636341Y-154161499D01*
X175650874Y-154065437D01*
X175701062Y-153982249D01*
X175717324Y-153965987D01*
X175721560Y-153962125D01*
X175721562Y-153962124D01*
X175885981Y-153812236D01*
X176020058Y-153634689D01*
X176119229Y-153435528D01*
X176180115Y-153221536D01*
X176200643Y-153000000D01*
X176180115Y-152778464D01*
X176119229Y-152564472D01*
X176020058Y-152365311D01*
X175885981Y-152187764D01*
X175772171Y-152084012D01*
X175714522Y-152005810D01*
X175691188Y-151911499D01*
X175705721Y-151815437D01*
X175755909Y-151732250D01*
X175772172Y-151715987D01*
X175794084Y-151696010D01*
X175885981Y-151612236D01*
X176020058Y-151434689D01*
X176119229Y-151235528D01*
X176180115Y-151021536D01*
X176200643Y-150800000D01*
X176180115Y-150578464D01*
X176119229Y-150364472D01*
X176020058Y-150165311D01*
X175885981Y-149987764D01*
X175721562Y-149837876D01*
X175721560Y-149837874D01*
X175532406Y-149720756D01*
X175532405Y-149720755D01*
X175532401Y-149720753D01*
X175477464Y-149699470D01*
X175324936Y-149640380D01*
X175106246Y-149599500D01*
X175106243Y-149599500D01*
X174883757Y-149599500D01*
X174883754Y-149599500D01*
X174665063Y-149640380D01*
X174457601Y-149720752D01*
X174457593Y-149720756D01*
X174268439Y-149837874D01*
X174104018Y-149987765D01*
X173969941Y-150165312D01*
X173969941Y-150165313D01*
X173870772Y-150364469D01*
X173809884Y-150578466D01*
X173789357Y-150800000D01*
X168900000Y-150800000D01*
X168900000Y-148649996D01*
X191694751Y-148649996D01*
X191694751Y-148650003D01*
X191713685Y-148818053D01*
X191713685Y-148818054D01*
X191769544Y-148977690D01*
X191774840Y-148988686D01*
X191799108Y-149082761D01*
X191799500Y-149096725D01*
X191799500Y-156553273D01*
X191780546Y-156648561D01*
X191774840Y-156661313D01*
X191769541Y-156672315D01*
X191713686Y-156831942D01*
X191713685Y-156831946D01*
X191694751Y-156999996D01*
X191694751Y-157000003D01*
X191713685Y-157168053D01*
X191713686Y-157168057D01*
X191769541Y-157327686D01*
X191793184Y-157365313D01*
X191859523Y-157470890D01*
X191979110Y-157590477D01*
X192100164Y-157666540D01*
X192122313Y-157680458D01*
X192238981Y-157721280D01*
X192281941Y-157736313D01*
X192281942Y-157736313D01*
X192281946Y-157736314D01*
X192449996Y-157755249D01*
X192450000Y-157755249D01*
X192450004Y-157755249D01*
X192618053Y-157736314D01*
X192618055Y-157736313D01*
X192618059Y-157736313D01*
X192703978Y-157706248D01*
X192777686Y-157680458D01*
X192777688Y-157680456D01*
X192777690Y-157680456D01*
X192920890Y-157590477D01*
X193040477Y-157470890D01*
X193130456Y-157327690D01*
X193130456Y-157327688D01*
X193130458Y-157327686D01*
X193156248Y-157253978D01*
X193186313Y-157168059D01*
X193186314Y-157168053D01*
X193205249Y-157000003D01*
X193205249Y-156999996D01*
X193186314Y-156831946D01*
X193186313Y-156831942D01*
X193130458Y-156672315D01*
X193125160Y-156661313D01*
X193100892Y-156567237D01*
X193100500Y-156553273D01*
X193100500Y-149096725D01*
X193119454Y-149001437D01*
X193125160Y-148988686D01*
X193130451Y-148977696D01*
X193130456Y-148977690D01*
X193186313Y-148818059D01*
X193205249Y-148650000D01*
X193186313Y-148481941D01*
X193171280Y-148438981D01*
X193130458Y-148322313D01*
X193116540Y-148300164D01*
X193040477Y-148179110D01*
X192920890Y-148059523D01*
X192871435Y-148028448D01*
X192777686Y-147969541D01*
X192618057Y-147913686D01*
X192618053Y-147913685D01*
X192450004Y-147894751D01*
X192449996Y-147894751D01*
X192281946Y-147913685D01*
X192281942Y-147913686D01*
X192122313Y-147969541D01*
X191979111Y-148059522D01*
X191859522Y-148179111D01*
X191769541Y-148322313D01*
X191713686Y-148481942D01*
X191713685Y-148481946D01*
X191694751Y-148649996D01*
X168900000Y-148649996D01*
X168900000Y-118768703D01*
X176749500Y-118768703D01*
X176749500Y-119231296D01*
X176782753Y-119441240D01*
X176782754Y-119441243D01*
X176848443Y-119643412D01*
X176944949Y-119832816D01*
X177069896Y-120004792D01*
X177220208Y-120155104D01*
X177392184Y-120280051D01*
X177581588Y-120376557D01*
X177783757Y-120442246D01*
X177857601Y-120453941D01*
X177993703Y-120475499D01*
X177993710Y-120475499D01*
X177993713Y-120475500D01*
X177993716Y-120475500D01*
X178206284Y-120475500D01*
X178206287Y-120475500D01*
X178206290Y-120475499D01*
X178206296Y-120475499D01*
X178305476Y-120459789D01*
X178416243Y-120442246D01*
X178618412Y-120376557D01*
X178807816Y-120280051D01*
X178979792Y-120155104D01*
X179130104Y-120004792D01*
X179148554Y-119979396D01*
X179219894Y-119913449D01*
X179311044Y-119879820D01*
X179408124Y-119883633D01*
X179496355Y-119924306D01*
X179551444Y-119979395D01*
X179569896Y-120004792D01*
X179720208Y-120155104D01*
X179892184Y-120280051D01*
X180081588Y-120376557D01*
X180283757Y-120442246D01*
X180357601Y-120453941D01*
X180493703Y-120475499D01*
X180493710Y-120475499D01*
X180493713Y-120475500D01*
X180493716Y-120475500D01*
X180706284Y-120475500D01*
X180706287Y-120475500D01*
X180706290Y-120475499D01*
X180706296Y-120475499D01*
X180805476Y-120459789D01*
X180916243Y-120442246D01*
X181118412Y-120376557D01*
X181307816Y-120280051D01*
X181479792Y-120155104D01*
X181630104Y-120004792D01*
X181648554Y-119979396D01*
X181719894Y-119913449D01*
X181811044Y-119879820D01*
X181908124Y-119883633D01*
X181996355Y-119924306D01*
X182051444Y-119979395D01*
X182069896Y-120004792D01*
X182220208Y-120155104D01*
X182392184Y-120280051D01*
X182581588Y-120376557D01*
X182783757Y-120442246D01*
X182857601Y-120453941D01*
X182993703Y-120475499D01*
X182993710Y-120475499D01*
X182993713Y-120475500D01*
X182993716Y-120475500D01*
X183206284Y-120475500D01*
X183206287Y-120475500D01*
X183206290Y-120475499D01*
X183206296Y-120475499D01*
X183305476Y-120459789D01*
X183416243Y-120442246D01*
X183618412Y-120376557D01*
X183807816Y-120280051D01*
X183979792Y-120155104D01*
X184130104Y-120004792D01*
X184148554Y-119979396D01*
X184219894Y-119913449D01*
X184311044Y-119879820D01*
X184408124Y-119883633D01*
X184496355Y-119924306D01*
X184551444Y-119979395D01*
X184569896Y-120004792D01*
X184720208Y-120155104D01*
X184892184Y-120280051D01*
X185081588Y-120376557D01*
X185283757Y-120442246D01*
X185357601Y-120453941D01*
X185493703Y-120475499D01*
X185493710Y-120475499D01*
X185493713Y-120475500D01*
X185493716Y-120475500D01*
X185706284Y-120475500D01*
X185706287Y-120475500D01*
X185706290Y-120475499D01*
X185706296Y-120475499D01*
X185805476Y-120459789D01*
X185916243Y-120442246D01*
X186118412Y-120376557D01*
X186307816Y-120280051D01*
X186479792Y-120155104D01*
X186630104Y-120004792D01*
X186648554Y-119979396D01*
X186719894Y-119913449D01*
X186811044Y-119879820D01*
X186908124Y-119883633D01*
X186996355Y-119924306D01*
X187051444Y-119979395D01*
X187069896Y-120004792D01*
X187220208Y-120155104D01*
X187392184Y-120280051D01*
X187581588Y-120376557D01*
X187783757Y-120442246D01*
X187857601Y-120453941D01*
X187993703Y-120475499D01*
X187993710Y-120475499D01*
X187993713Y-120475500D01*
X187993716Y-120475500D01*
X188206284Y-120475500D01*
X188206287Y-120475500D01*
X188206290Y-120475499D01*
X188206296Y-120475499D01*
X188305476Y-120459789D01*
X188416243Y-120442246D01*
X188618412Y-120376557D01*
X188807816Y-120280051D01*
X188979792Y-120155104D01*
X189130104Y-120004792D01*
X189148554Y-119979396D01*
X189219894Y-119913449D01*
X189311044Y-119879820D01*
X189408124Y-119883633D01*
X189496355Y-119924306D01*
X189551444Y-119979395D01*
X189569896Y-120004792D01*
X189720208Y-120155104D01*
X189892184Y-120280051D01*
X190081588Y-120376557D01*
X190283757Y-120442246D01*
X190357601Y-120453941D01*
X190493703Y-120475499D01*
X190493710Y-120475499D01*
X190493713Y-120475500D01*
X190493716Y-120475500D01*
X190706284Y-120475500D01*
X190706287Y-120475500D01*
X190706290Y-120475499D01*
X190706296Y-120475499D01*
X190805476Y-120459789D01*
X190916243Y-120442246D01*
X191118412Y-120376557D01*
X191307816Y-120280051D01*
X191479792Y-120155104D01*
X191506813Y-120128083D01*
X191587593Y-120074105D01*
X191682881Y-120055150D01*
X191778170Y-120074103D01*
X191858952Y-120128078D01*
X191894813Y-120173430D01*
X191907288Y-120193656D01*
X192031344Y-120317712D01*
X192180666Y-120409814D01*
X192180669Y-120409815D01*
X192180667Y-120409815D01*
X192344310Y-120464040D01*
X192347203Y-120464999D01*
X192449991Y-120475500D01*
X193750008Y-120475499D01*
X193852797Y-120464999D01*
X194019334Y-120409814D01*
X194168656Y-120317712D01*
X194292712Y-120193656D01*
X194384814Y-120044334D01*
X194439999Y-119877797D01*
X194450500Y-119775009D01*
X194450499Y-118768703D01*
X203149500Y-118768703D01*
X203149500Y-119231296D01*
X203182753Y-119441240D01*
X203182754Y-119441243D01*
X203248443Y-119643412D01*
X203344949Y-119832816D01*
X203469896Y-120004792D01*
X203620208Y-120155104D01*
X203792184Y-120280051D01*
X203981588Y-120376557D01*
X204183757Y-120442246D01*
X204257601Y-120453941D01*
X204393703Y-120475499D01*
X204393710Y-120475499D01*
X204393713Y-120475500D01*
X204393716Y-120475500D01*
X204606284Y-120475500D01*
X204606287Y-120475500D01*
X204606290Y-120475499D01*
X204606296Y-120475499D01*
X204705476Y-120459789D01*
X204816243Y-120442246D01*
X205018412Y-120376557D01*
X205207816Y-120280051D01*
X205379792Y-120155104D01*
X205530104Y-120004792D01*
X205548554Y-119979396D01*
X205619894Y-119913449D01*
X205711044Y-119879820D01*
X205808124Y-119883633D01*
X205896355Y-119924306D01*
X205951444Y-119979395D01*
X205969896Y-120004792D01*
X206120208Y-120155104D01*
X206292184Y-120280051D01*
X206481588Y-120376557D01*
X206683757Y-120442246D01*
X206757601Y-120453941D01*
X206893703Y-120475499D01*
X206893710Y-120475499D01*
X206893713Y-120475500D01*
X206893716Y-120475500D01*
X207106284Y-120475500D01*
X207106287Y-120475500D01*
X207106290Y-120475499D01*
X207106296Y-120475499D01*
X207205476Y-120459789D01*
X207316243Y-120442246D01*
X207518412Y-120376557D01*
X207707816Y-120280051D01*
X207879792Y-120155104D01*
X208030104Y-120004792D01*
X208048554Y-119979396D01*
X208119894Y-119913449D01*
X208211044Y-119879820D01*
X208308124Y-119883633D01*
X208396355Y-119924306D01*
X208451444Y-119979395D01*
X208469896Y-120004792D01*
X208620208Y-120155104D01*
X208792184Y-120280051D01*
X208981588Y-120376557D01*
X209183757Y-120442246D01*
X209257601Y-120453941D01*
X209393703Y-120475499D01*
X209393710Y-120475499D01*
X209393713Y-120475500D01*
X209393716Y-120475500D01*
X209606284Y-120475500D01*
X209606287Y-120475500D01*
X209606290Y-120475499D01*
X209606296Y-120475499D01*
X209705476Y-120459789D01*
X209816243Y-120442246D01*
X210018412Y-120376557D01*
X210207816Y-120280051D01*
X210379792Y-120155104D01*
X210530104Y-120004792D01*
X210548554Y-119979396D01*
X210619894Y-119913449D01*
X210711044Y-119879820D01*
X210808124Y-119883633D01*
X210896355Y-119924306D01*
X210951444Y-119979395D01*
X210969896Y-120004792D01*
X211120208Y-120155104D01*
X211292184Y-120280051D01*
X211481588Y-120376557D01*
X211683757Y-120442246D01*
X211757601Y-120453941D01*
X211893703Y-120475499D01*
X211893710Y-120475499D01*
X211893713Y-120475500D01*
X211893716Y-120475500D01*
X212106284Y-120475500D01*
X212106287Y-120475500D01*
X212106290Y-120475499D01*
X212106296Y-120475499D01*
X212205476Y-120459789D01*
X212316243Y-120442246D01*
X212518412Y-120376557D01*
X212707816Y-120280051D01*
X212879792Y-120155104D01*
X213030104Y-120004792D01*
X213048554Y-119979396D01*
X213119894Y-119913449D01*
X213211044Y-119879820D01*
X213308124Y-119883633D01*
X213396355Y-119924306D01*
X213451444Y-119979395D01*
X213469896Y-120004792D01*
X213620208Y-120155104D01*
X213792184Y-120280051D01*
X213981588Y-120376557D01*
X214183757Y-120442246D01*
X214257601Y-120453941D01*
X214393703Y-120475499D01*
X214393710Y-120475499D01*
X214393713Y-120475500D01*
X214393716Y-120475500D01*
X214606284Y-120475500D01*
X214606287Y-120475500D01*
X214606290Y-120475499D01*
X214606296Y-120475499D01*
X214705476Y-120459789D01*
X214816243Y-120442246D01*
X215018412Y-120376557D01*
X215207816Y-120280051D01*
X215379792Y-120155104D01*
X215530104Y-120004792D01*
X215548554Y-119979396D01*
X215619894Y-119913449D01*
X215711044Y-119879820D01*
X215808124Y-119883633D01*
X215896355Y-119924306D01*
X215951444Y-119979395D01*
X215969896Y-120004792D01*
X216120208Y-120155104D01*
X216292184Y-120280051D01*
X216481588Y-120376557D01*
X216683757Y-120442246D01*
X216757601Y-120453941D01*
X216893703Y-120475499D01*
X216893710Y-120475499D01*
X216893713Y-120475500D01*
X216893716Y-120475500D01*
X217106284Y-120475500D01*
X217106287Y-120475500D01*
X217106290Y-120475499D01*
X217106296Y-120475499D01*
X217205476Y-120459789D01*
X217316243Y-120442246D01*
X217518412Y-120376557D01*
X217707816Y-120280051D01*
X217879792Y-120155104D01*
X217906813Y-120128083D01*
X217987593Y-120074105D01*
X218082881Y-120055150D01*
X218178170Y-120074103D01*
X218258952Y-120128078D01*
X218294813Y-120173430D01*
X218307288Y-120193656D01*
X218431344Y-120317712D01*
X218580666Y-120409814D01*
X218580669Y-120409815D01*
X218580667Y-120409815D01*
X218744310Y-120464040D01*
X218747203Y-120464999D01*
X218849991Y-120475500D01*
X220150008Y-120475499D01*
X220252797Y-120464999D01*
X220419334Y-120409814D01*
X220568656Y-120317712D01*
X220692712Y-120193656D01*
X220784814Y-120044334D01*
X220839999Y-119877797D01*
X220850500Y-119775009D01*
X220850499Y-118224992D01*
X220839999Y-118122203D01*
X220839328Y-118120179D01*
X220784814Y-117955667D01*
X220784814Y-117955666D01*
X220692712Y-117806344D01*
X220568656Y-117682288D01*
X220419334Y-117590186D01*
X220419332Y-117590185D01*
X220419330Y-117590184D01*
X220419332Y-117590184D01*
X220252802Y-117535002D01*
X220252798Y-117535001D01*
X220252797Y-117535001D01*
X220150009Y-117524500D01*
X220150005Y-117524500D01*
X218849993Y-117524500D01*
X218747199Y-117535001D01*
X218580667Y-117590185D01*
X218431346Y-117682286D01*
X218307285Y-117806347D01*
X218294812Y-117826570D01*
X218228655Y-117897720D01*
X218140306Y-117938138D01*
X218043216Y-117941669D01*
X217952164Y-117907776D01*
X217906815Y-117871919D01*
X217879793Y-117844897D01*
X217707817Y-117719950D01*
X217707818Y-117719950D01*
X217707816Y-117719949D01*
X217518412Y-117623443D01*
X217518409Y-117623442D01*
X217518407Y-117623441D01*
X217316240Y-117557753D01*
X217106296Y-117524500D01*
X217106287Y-117524500D01*
X216893713Y-117524500D01*
X216893703Y-117524500D01*
X216683759Y-117557753D01*
X216481592Y-117623441D01*
X216292182Y-117719950D01*
X216120206Y-117844897D01*
X215969897Y-117995206D01*
X215951446Y-118020603D01*
X215880103Y-118086552D01*
X215788953Y-118120179D01*
X215691873Y-118116365D01*
X215603642Y-118075691D01*
X215548554Y-118020603D01*
X215530104Y-117995208D01*
X215379792Y-117844896D01*
X215207816Y-117719949D01*
X215018412Y-117623443D01*
X215018409Y-117623442D01*
X215018407Y-117623441D01*
X214816240Y-117557753D01*
X214606296Y-117524500D01*
X214606287Y-117524500D01*
X214393713Y-117524500D01*
X214393703Y-117524500D01*
X214183759Y-117557753D01*
X213981592Y-117623441D01*
X213792182Y-117719950D01*
X213620206Y-117844897D01*
X213469897Y-117995206D01*
X213451446Y-118020603D01*
X213380103Y-118086552D01*
X213288953Y-118120179D01*
X213191873Y-118116365D01*
X213103642Y-118075691D01*
X213048554Y-118020603D01*
X213030104Y-117995208D01*
X212879792Y-117844896D01*
X212707816Y-117719949D01*
X212518412Y-117623443D01*
X212518409Y-117623442D01*
X212518407Y-117623441D01*
X212316240Y-117557753D01*
X212106296Y-117524500D01*
X212106287Y-117524500D01*
X211893713Y-117524500D01*
X211893703Y-117524500D01*
X211683759Y-117557753D01*
X211481592Y-117623441D01*
X211292182Y-117719950D01*
X211120206Y-117844897D01*
X210969897Y-117995206D01*
X210951446Y-118020603D01*
X210880103Y-118086552D01*
X210788953Y-118120179D01*
X210691873Y-118116365D01*
X210603642Y-118075691D01*
X210548554Y-118020603D01*
X210530104Y-117995208D01*
X210379792Y-117844896D01*
X210207816Y-117719949D01*
X210018412Y-117623443D01*
X210018409Y-117623442D01*
X210018407Y-117623441D01*
X209816240Y-117557753D01*
X209606296Y-117524500D01*
X209606287Y-117524500D01*
X209393713Y-117524500D01*
X209393703Y-117524500D01*
X209183759Y-117557753D01*
X208981592Y-117623441D01*
X208792182Y-117719950D01*
X208620206Y-117844897D01*
X208469897Y-117995206D01*
X208451446Y-118020603D01*
X208380103Y-118086552D01*
X208288953Y-118120179D01*
X208191873Y-118116365D01*
X208103642Y-118075691D01*
X208048554Y-118020603D01*
X208030104Y-117995208D01*
X207879792Y-117844896D01*
X207707816Y-117719949D01*
X207518412Y-117623443D01*
X207518409Y-117623442D01*
X207518407Y-117623441D01*
X207316240Y-117557753D01*
X207106296Y-117524500D01*
X207106287Y-117524500D01*
X206893713Y-117524500D01*
X206893703Y-117524500D01*
X206683759Y-117557753D01*
X206481592Y-117623441D01*
X206292182Y-117719950D01*
X206120206Y-117844897D01*
X205969897Y-117995206D01*
X205951446Y-118020603D01*
X205880103Y-118086552D01*
X205788953Y-118120179D01*
X205691873Y-118116365D01*
X205603642Y-118075691D01*
X205548554Y-118020603D01*
X205530104Y-117995208D01*
X205379792Y-117844896D01*
X205207816Y-117719949D01*
X205018412Y-117623443D01*
X205018409Y-117623442D01*
X205018407Y-117623441D01*
X204816240Y-117557753D01*
X204606296Y-117524500D01*
X204606287Y-117524500D01*
X204393713Y-117524500D01*
X204393703Y-117524500D01*
X204183759Y-117557753D01*
X203981592Y-117623441D01*
X203792182Y-117719950D01*
X203620206Y-117844897D01*
X203469897Y-117995206D01*
X203344950Y-118167182D01*
X203248441Y-118356592D01*
X203182753Y-118558759D01*
X203149500Y-118768703D01*
X194450499Y-118768703D01*
X194450499Y-118224992D01*
X194439999Y-118122203D01*
X194439328Y-118120179D01*
X194384814Y-117955667D01*
X194384814Y-117955666D01*
X194292712Y-117806344D01*
X194168656Y-117682288D01*
X194019334Y-117590186D01*
X194019332Y-117590185D01*
X194019330Y-117590184D01*
X194019332Y-117590184D01*
X193852802Y-117535002D01*
X193852798Y-117535001D01*
X193852797Y-117535001D01*
X193750009Y-117524500D01*
X193750005Y-117524500D01*
X192449993Y-117524500D01*
X192347199Y-117535001D01*
X192180667Y-117590185D01*
X192031346Y-117682286D01*
X191907285Y-117806347D01*
X191894812Y-117826570D01*
X191828655Y-117897720D01*
X191740306Y-117938138D01*
X191643216Y-117941669D01*
X191552164Y-117907776D01*
X191506815Y-117871919D01*
X191479793Y-117844897D01*
X191307817Y-117719950D01*
X191307818Y-117719950D01*
X191307816Y-117719949D01*
X191118412Y-117623443D01*
X191118409Y-117623442D01*
X191118407Y-117623441D01*
X190916240Y-117557753D01*
X190706296Y-117524500D01*
X190706287Y-117524500D01*
X190493713Y-117524500D01*
X190493703Y-117524500D01*
X190283759Y-117557753D01*
X190081592Y-117623441D01*
X189892182Y-117719950D01*
X189720206Y-117844897D01*
X189569897Y-117995206D01*
X189551446Y-118020603D01*
X189480103Y-118086552D01*
X189388953Y-118120179D01*
X189291873Y-118116365D01*
X189203642Y-118075691D01*
X189148554Y-118020603D01*
X189130104Y-117995208D01*
X188979792Y-117844896D01*
X188807816Y-117719949D01*
X188618412Y-117623443D01*
X188618409Y-117623442D01*
X188618407Y-117623441D01*
X188416240Y-117557753D01*
X188206296Y-117524500D01*
X188206287Y-117524500D01*
X187993713Y-117524500D01*
X187993703Y-117524500D01*
X187783759Y-117557753D01*
X187581592Y-117623441D01*
X187392182Y-117719950D01*
X187220206Y-117844897D01*
X187069897Y-117995206D01*
X187051446Y-118020603D01*
X186980103Y-118086552D01*
X186888953Y-118120179D01*
X186791873Y-118116365D01*
X186703642Y-118075691D01*
X186648554Y-118020603D01*
X186630104Y-117995208D01*
X186479792Y-117844896D01*
X186307816Y-117719949D01*
X186118412Y-117623443D01*
X186118409Y-117623442D01*
X186118407Y-117623441D01*
X185916240Y-117557753D01*
X185706296Y-117524500D01*
X185706287Y-117524500D01*
X185493713Y-117524500D01*
X185493703Y-117524500D01*
X185283759Y-117557753D01*
X185081592Y-117623441D01*
X184892182Y-117719950D01*
X184720206Y-117844897D01*
X184569897Y-117995206D01*
X184551446Y-118020603D01*
X184480103Y-118086552D01*
X184388953Y-118120179D01*
X184291873Y-118116365D01*
X184203642Y-118075691D01*
X184148554Y-118020603D01*
X184130104Y-117995208D01*
X183979792Y-117844896D01*
X183807816Y-117719949D01*
X183618412Y-117623443D01*
X183618409Y-117623442D01*
X183618407Y-117623441D01*
X183416240Y-117557753D01*
X183206296Y-117524500D01*
X183206287Y-117524500D01*
X182993713Y-117524500D01*
X182993703Y-117524500D01*
X182783759Y-117557753D01*
X182581592Y-117623441D01*
X182392182Y-117719950D01*
X182220206Y-117844897D01*
X182069897Y-117995206D01*
X182051446Y-118020603D01*
X181980103Y-118086552D01*
X181888953Y-118120179D01*
X181791873Y-118116365D01*
X181703642Y-118075691D01*
X181648554Y-118020603D01*
X181630104Y-117995208D01*
X181479792Y-117844896D01*
X181307816Y-117719949D01*
X181118412Y-117623443D01*
X181118409Y-117623442D01*
X181118407Y-117623441D01*
X180916240Y-117557753D01*
X180706296Y-117524500D01*
X180706287Y-117524500D01*
X180493713Y-117524500D01*
X180493703Y-117524500D01*
X180283759Y-117557753D01*
X180081592Y-117623441D01*
X179892182Y-117719950D01*
X179720206Y-117844897D01*
X179569897Y-117995206D01*
X179551446Y-118020603D01*
X179480103Y-118086552D01*
X179388953Y-118120179D01*
X179291873Y-118116365D01*
X179203642Y-118075691D01*
X179148554Y-118020603D01*
X179130104Y-117995208D01*
X178979792Y-117844896D01*
X178807816Y-117719949D01*
X178618412Y-117623443D01*
X178618409Y-117623442D01*
X178618407Y-117623441D01*
X178416240Y-117557753D01*
X178206296Y-117524500D01*
X178206287Y-117524500D01*
X177993713Y-117524500D01*
X177993703Y-117524500D01*
X177783759Y-117557753D01*
X177581592Y-117623441D01*
X177392182Y-117719950D01*
X177220206Y-117844897D01*
X177069897Y-117995206D01*
X176944950Y-118167182D01*
X176848441Y-118356592D01*
X176782753Y-118558759D01*
X176749500Y-118768703D01*
X168900000Y-118768703D01*
X168900000Y-115749500D01*
X168918954Y-115654212D01*
X168972930Y-115573430D01*
X169053712Y-115519454D01*
X169149000Y-115500500D01*
X226651000Y-115500500D01*
X226746288Y-115519454D01*
G37*
%TD.AperFunction*%
%TD*%
%TA.AperFunction,Conductor*%
%TO.N,GND*%
G36*
X74043039Y-115520185D02*
G01*
X74088794Y-115572989D01*
X74100000Y-115624500D01*
X74100000Y-121599999D01*
X74100000Y-121600000D01*
X94600000Y-121500000D01*
X94600000Y-115624500D01*
X94619685Y-115557461D01*
X94672489Y-115511706D01*
X94724000Y-115500500D01*
X98576000Y-115500500D01*
X98643039Y-115520185D01*
X98688794Y-115572989D01*
X98700000Y-115624500D01*
X98700000Y-123200000D01*
X107876000Y-123200000D01*
X107943039Y-123219685D01*
X107988794Y-123272489D01*
X108000000Y-123324000D01*
X108000000Y-159500000D01*
X107999999Y-159500000D01*
X109564122Y-160921929D01*
X110200000Y-161500000D01*
X116676000Y-161500000D01*
X116743039Y-161519685D01*
X116788794Y-161572489D01*
X116800000Y-161624000D01*
X116800000Y-169375500D01*
X116780315Y-169442539D01*
X116727511Y-169488294D01*
X116676000Y-169499500D01*
X106724000Y-169499500D01*
X106656961Y-169479815D01*
X106611206Y-169427011D01*
X106600000Y-169375500D01*
X106600000Y-161700000D01*
X98600000Y-161700000D01*
X98600000Y-169375500D01*
X98580315Y-169442539D01*
X98527511Y-169488294D01*
X98476000Y-169499500D01*
X96920320Y-169499500D01*
X96853281Y-169479815D01*
X96807526Y-169427011D01*
X96797582Y-169357853D01*
X96818745Y-169304377D01*
X96895568Y-169194662D01*
X96991739Y-168988424D01*
X97050635Y-168768620D01*
X97070468Y-168541928D01*
X97050635Y-168315236D01*
X96991739Y-168095432D01*
X96895568Y-167889194D01*
X96765047Y-167702789D01*
X96765045Y-167702786D01*
X96604141Y-167541882D01*
X96417734Y-167411360D01*
X96417728Y-167411357D01*
X96359725Y-167384310D01*
X96307285Y-167338138D01*
X96288133Y-167270945D01*
X96308348Y-167204063D01*
X96359725Y-167159546D01*
X96417734Y-167132496D01*
X96604139Y-167001975D01*
X96765047Y-166841067D01*
X96895568Y-166654662D01*
X96991739Y-166448424D01*
X97050635Y-166228620D01*
X97070468Y-166001928D01*
X97050635Y-165775236D01*
X96991739Y-165555432D01*
X96895568Y-165349194D01*
X96765047Y-165162789D01*
X96765045Y-165162786D01*
X96604141Y-165001882D01*
X96417734Y-164871360D01*
X96417728Y-164871357D01*
X96359725Y-164844310D01*
X96307285Y-164798138D01*
X96288133Y-164730945D01*
X96308348Y-164664063D01*
X96359725Y-164619546D01*
X96417734Y-164592496D01*
X96604139Y-164461975D01*
X96765047Y-164301067D01*
X96895568Y-164114662D01*
X96991739Y-163908424D01*
X97050635Y-163688620D01*
X97070468Y-163461928D01*
X97050635Y-163235236D01*
X96991739Y-163015432D01*
X96895568Y-162809194D01*
X96765047Y-162622789D01*
X96765045Y-162622786D01*
X96604141Y-162461882D01*
X96417734Y-162331360D01*
X96417728Y-162331357D01*
X96359725Y-162304310D01*
X96307285Y-162258138D01*
X96288133Y-162190945D01*
X96308348Y-162124063D01*
X96359725Y-162079546D01*
X96417734Y-162052496D01*
X96604139Y-161921975D01*
X96765047Y-161761067D01*
X96895568Y-161574662D01*
X96991739Y-161368424D01*
X97050635Y-161148620D01*
X97070468Y-160921928D01*
X97050635Y-160695236D01*
X96991739Y-160475432D01*
X96895568Y-160269194D01*
X96765047Y-160082789D01*
X96765045Y-160082786D01*
X96604141Y-159921882D01*
X96417734Y-159791360D01*
X96417728Y-159791357D01*
X96359725Y-159764310D01*
X96307285Y-159718138D01*
X96288133Y-159650945D01*
X96308348Y-159584063D01*
X96359725Y-159539546D01*
X96417734Y-159512496D01*
X96604139Y-159381975D01*
X96765047Y-159221067D01*
X96895568Y-159034662D01*
X96991739Y-158828424D01*
X97050635Y-158608620D01*
X97070468Y-158381928D01*
X97050635Y-158155236D01*
X96991739Y-157935432D01*
X96895568Y-157729194D01*
X96765047Y-157542789D01*
X96765045Y-157542786D01*
X96604141Y-157381882D01*
X96417734Y-157251360D01*
X96417728Y-157251357D01*
X96359725Y-157224310D01*
X96307285Y-157178138D01*
X96288133Y-157110945D01*
X96308348Y-157044063D01*
X96359725Y-156999546D01*
X96417734Y-156972496D01*
X96604139Y-156841975D01*
X96765047Y-156681067D01*
X96895568Y-156494662D01*
X96991739Y-156288424D01*
X97050635Y-156068620D01*
X97070468Y-155841928D01*
X97050635Y-155615236D01*
X96991739Y-155395432D01*
X96895568Y-155189194D01*
X96765047Y-155002789D01*
X96765045Y-155002786D01*
X96604141Y-154841882D01*
X96417734Y-154711360D01*
X96417728Y-154711357D01*
X96359725Y-154684310D01*
X96307285Y-154638138D01*
X96288133Y-154570945D01*
X96308348Y-154504063D01*
X96359725Y-154459546D01*
X96417734Y-154432496D01*
X96604139Y-154301975D01*
X96765047Y-154141067D01*
X96895568Y-153954662D01*
X96991739Y-153748424D01*
X97050635Y-153528620D01*
X97070468Y-153301928D01*
X97050635Y-153075236D01*
X96991739Y-152855432D01*
X96895568Y-152649194D01*
X96765047Y-152462789D01*
X96765045Y-152462786D01*
X96604141Y-152301882D01*
X96417734Y-152171360D01*
X96417728Y-152171357D01*
X96359725Y-152144310D01*
X96307285Y-152098138D01*
X96288133Y-152030945D01*
X96308348Y-151964063D01*
X96359725Y-151919546D01*
X96417734Y-151892496D01*
X96604139Y-151761975D01*
X96765047Y-151601067D01*
X96895568Y-151414662D01*
X96991739Y-151208424D01*
X97050635Y-150988620D01*
X97070468Y-150761928D01*
X97050635Y-150535236D01*
X96991739Y-150315432D01*
X96895568Y-150109194D01*
X96797839Y-149969621D01*
X96765045Y-149922786D01*
X96604141Y-149761882D01*
X96417734Y-149631360D01*
X96417728Y-149631357D01*
X96359725Y-149604310D01*
X96307285Y-149558138D01*
X96288133Y-149490945D01*
X96308348Y-149424063D01*
X96359725Y-149379546D01*
X96417734Y-149352496D01*
X96604139Y-149221975D01*
X96765047Y-149061067D01*
X96895568Y-148874662D01*
X96991739Y-148668424D01*
X97050635Y-148448620D01*
X97070468Y-148221928D01*
X97050635Y-147995236D01*
X96991739Y-147775432D01*
X96895568Y-147569194D01*
X96765047Y-147382789D01*
X96765045Y-147382786D01*
X96604141Y-147221882D01*
X96417734Y-147091360D01*
X96417728Y-147091357D01*
X96359725Y-147064310D01*
X96307285Y-147018138D01*
X96288133Y-146950945D01*
X96308348Y-146884063D01*
X96359725Y-146839546D01*
X96417734Y-146812496D01*
X96604139Y-146681975D01*
X96765047Y-146521067D01*
X96895568Y-146334662D01*
X96991739Y-146128424D01*
X97050635Y-145908620D01*
X97070468Y-145681928D01*
X97050635Y-145455236D01*
X96991739Y-145235432D01*
X96895568Y-145029194D01*
X96765047Y-144842789D01*
X96765045Y-144842786D01*
X96604141Y-144681882D01*
X96417734Y-144551360D01*
X96417728Y-144551357D01*
X96359725Y-144524310D01*
X96307285Y-144478138D01*
X96288133Y-144410945D01*
X96308348Y-144344063D01*
X96359725Y-144299546D01*
X96417734Y-144272496D01*
X96604139Y-144141975D01*
X96765047Y-143981067D01*
X96895568Y-143794662D01*
X96991739Y-143588424D01*
X97050635Y-143368620D01*
X97070468Y-143141928D01*
X97050635Y-142915236D01*
X96991739Y-142695432D01*
X96895568Y-142489194D01*
X96797839Y-142349621D01*
X96765045Y-142302786D01*
X96604141Y-142141882D01*
X96417734Y-142011360D01*
X96417728Y-142011357D01*
X96359725Y-141984310D01*
X96307285Y-141938138D01*
X96288133Y-141870945D01*
X96308348Y-141804063D01*
X96359725Y-141759546D01*
X96417734Y-141732496D01*
X96604139Y-141601975D01*
X96765047Y-141441067D01*
X96895568Y-141254662D01*
X96991739Y-141048424D01*
X97050635Y-140828620D01*
X97070468Y-140601928D01*
X97050635Y-140375236D01*
X97030858Y-140301430D01*
X97008644Y-140218521D01*
X97010307Y-140148671D01*
X97049470Y-140090809D01*
X97113698Y-140063305D01*
X97128419Y-140062428D01*
X97149698Y-140062428D01*
X97216737Y-140082113D01*
X97237379Y-140098747D01*
X97525903Y-140387272D01*
X97525925Y-140387292D01*
X97529110Y-140390477D01*
X97590329Y-140428943D01*
X97593238Y-140430828D01*
X97644506Y-140465084D01*
X97644639Y-140465139D01*
X97663165Y-140474710D01*
X97667635Y-140477518D01*
X97672310Y-140480456D01*
X97728974Y-140500283D01*
X97735471Y-140502763D01*
X97781087Y-140521658D01*
X97781096Y-140521659D01*
X97781097Y-140521660D01*
X97793332Y-140524094D01*
X97810101Y-140528671D01*
X97820233Y-140532216D01*
X97831941Y-140536313D01*
X97879410Y-140541661D01*
X97889687Y-140543259D01*
X97902503Y-140545809D01*
X97926080Y-140550500D01*
X97926083Y-140550500D01*
X97930191Y-140550500D01*
X97997230Y-140570185D01*
X98042985Y-140622989D01*
X98052929Y-140692147D01*
X98023904Y-140755703D01*
X98017872Y-140762181D01*
X97627996Y-141152056D01*
X97581271Y-141181416D01*
X97472308Y-141219544D01*
X97472300Y-141219548D01*
X97329115Y-141309518D01*
X97329109Y-141309523D01*
X97209523Y-141429109D01*
X97209518Y-141429115D01*
X97119547Y-141572302D01*
X97119545Y-141572305D01*
X97063685Y-141731943D01*
X97044751Y-141899997D01*
X97044751Y-141900002D01*
X97063685Y-142068056D01*
X97119545Y-142227694D01*
X97119547Y-142227697D01*
X97209518Y-142370884D01*
X97209523Y-142370890D01*
X97329109Y-142490476D01*
X97329115Y-142490481D01*
X97472302Y-142580452D01*
X97472305Y-142580454D01*
X97472309Y-142580455D01*
X97472310Y-142580456D01*
X97476723Y-142582000D01*
X97631943Y-142636314D01*
X97799997Y-142655249D01*
X97800000Y-142655249D01*
X97800003Y-142655249D01*
X97968056Y-142636314D01*
X97968059Y-142636313D01*
X98127690Y-142580456D01*
X98127692Y-142580454D01*
X98127694Y-142580454D01*
X98127697Y-142580452D01*
X98270884Y-142490481D01*
X98270885Y-142490480D01*
X98270890Y-142490477D01*
X98390477Y-142370890D01*
X98390481Y-142370884D01*
X98480452Y-142227697D01*
X98480456Y-142227689D01*
X98518583Y-142118727D01*
X98547941Y-142072003D01*
X99233127Y-141386819D01*
X99294450Y-141353334D01*
X99320808Y-141350500D01*
X101088912Y-141350500D01*
X101154883Y-141369506D01*
X101172310Y-141380456D01*
X101331941Y-141436313D01*
X101373955Y-141441047D01*
X101499997Y-141455249D01*
X101500000Y-141455249D01*
X101500003Y-141455249D01*
X101668056Y-141436314D01*
X101668059Y-141436313D01*
X101827690Y-141380456D01*
X101827692Y-141380454D01*
X101827694Y-141380454D01*
X101827697Y-141380452D01*
X101970884Y-141290481D01*
X101970885Y-141290480D01*
X101970890Y-141290477D01*
X102090477Y-141170890D01*
X102099264Y-141156906D01*
X102180452Y-141027697D01*
X102180454Y-141027694D01*
X102180454Y-141027692D01*
X102180456Y-141027690D01*
X102236313Y-140868059D01*
X102236313Y-140868058D01*
X102236314Y-140868056D01*
X102255249Y-140700002D01*
X102255249Y-140699997D01*
X102236314Y-140531943D01*
X102186813Y-140390477D01*
X102180456Y-140372310D01*
X102180455Y-140372309D01*
X102180454Y-140372305D01*
X102180452Y-140372302D01*
X102090481Y-140229115D01*
X102090476Y-140229109D01*
X101970890Y-140109523D01*
X101970884Y-140109518D01*
X101827697Y-140019547D01*
X101827694Y-140019545D01*
X101668056Y-139963685D01*
X101500003Y-139944751D01*
X101499997Y-139944751D01*
X101331942Y-139963686D01*
X101172311Y-140019543D01*
X101154883Y-140030494D01*
X101088912Y-140049500D01*
X98935930Y-140049500D01*
X98888755Y-140058883D01*
X98819164Y-140052654D01*
X98763987Y-140009790D01*
X98740744Y-139943900D01*
X98741347Y-139923372D01*
X98741660Y-139920596D01*
X98743257Y-139910320D01*
X98750500Y-139873917D01*
X98750500Y-139849108D01*
X98751280Y-139835223D01*
X98755249Y-139800000D01*
X98755249Y-139799997D01*
X98751280Y-139764774D01*
X98750500Y-139750890D01*
X98750500Y-139726079D01*
X98743261Y-139689695D01*
X98741661Y-139679410D01*
X98736313Y-139631941D01*
X98733483Y-139623855D01*
X98728671Y-139610101D01*
X98724094Y-139593332D01*
X98721660Y-139581097D01*
X98721659Y-139581096D01*
X98721658Y-139581087D01*
X98702763Y-139535471D01*
X98700283Y-139528974D01*
X98680456Y-139472310D01*
X98674710Y-139463165D01*
X98665137Y-139444635D01*
X98665084Y-139444506D01*
X98630828Y-139393238D01*
X98628943Y-139390329D01*
X98592866Y-139332912D01*
X98590477Y-139329110D01*
X98587292Y-139325925D01*
X98587272Y-139325903D01*
X97990349Y-138728980D01*
X97990342Y-138728974D01*
X97916657Y-138679740D01*
X97916657Y-138679741D01*
X97867419Y-138646841D01*
X97730845Y-138590271D01*
X97730835Y-138590268D01*
X97585848Y-138561428D01*
X97585846Y-138561428D01*
X96537182Y-138561428D01*
X96523298Y-138560648D01*
X96488074Y-138556679D01*
X96488070Y-138556679D01*
X96452846Y-138560648D01*
X96438962Y-138561428D01*
X96414154Y-138561428D01*
X96377757Y-138568667D01*
X96367454Y-138570269D01*
X96320012Y-138575615D01*
X96320011Y-138575615D01*
X96298169Y-138583258D01*
X96281413Y-138587831D01*
X96269169Y-138590267D01*
X96269160Y-138590269D01*
X96223538Y-138609165D01*
X96217046Y-138611643D01*
X96160386Y-138631470D01*
X96160381Y-138631472D01*
X96151219Y-138637228D01*
X96132729Y-138646780D01*
X96132585Y-138646839D01*
X96132571Y-138646846D01*
X96081326Y-138681087D01*
X96078411Y-138682976D01*
X96017186Y-138721447D01*
X96017179Y-138721453D01*
X95897597Y-138841035D01*
X95897591Y-138841042D01*
X95859120Y-138902267D01*
X95857231Y-138905182D01*
X95822990Y-138956427D01*
X95822983Y-138956441D01*
X95822924Y-138956585D01*
X95813372Y-138975075D01*
X95807616Y-138984237D01*
X95807614Y-138984242D01*
X95787787Y-139040902D01*
X95785309Y-139047394D01*
X95766413Y-139093016D01*
X95766411Y-139093025D01*
X95763975Y-139105269D01*
X95759402Y-139122025D01*
X95751759Y-139143867D01*
X95751759Y-139143868D01*
X95746413Y-139191310D01*
X95744809Y-139201620D01*
X95743398Y-139208712D01*
X95711011Y-139270622D01*
X95650293Y-139305194D01*
X95632590Y-139308044D01*
X95538312Y-139316292D01*
X95538302Y-139316294D01*
X95318511Y-139375186D01*
X95318502Y-139375189D01*
X95112267Y-139471359D01*
X95112265Y-139471360D01*
X94925858Y-139601882D01*
X94764954Y-139762786D01*
X94634432Y-139949193D01*
X94634431Y-139949195D01*
X94538261Y-140155430D01*
X94538258Y-140155439D01*
X94479366Y-140375230D01*
X94479364Y-140375241D01*
X94459532Y-140601926D01*
X94459532Y-140601929D01*
X94479364Y-140828614D01*
X94479366Y-140828625D01*
X94538258Y-141048416D01*
X94538261Y-141048425D01*
X94634431Y-141254660D01*
X94634432Y-141254662D01*
X94764954Y-141441069D01*
X94925858Y-141601973D01*
X94925861Y-141601975D01*
X95112266Y-141732496D01*
X95170275Y-141759546D01*
X95222714Y-141805719D01*
X95241866Y-141872912D01*
X95221650Y-141939793D01*
X95170275Y-141984310D01*
X95112267Y-142011359D01*
X95112265Y-142011360D01*
X94925858Y-142141882D01*
X94764954Y-142302786D01*
X94634432Y-142489193D01*
X94634431Y-142489195D01*
X94538261Y-142695430D01*
X94538258Y-142695439D01*
X94479366Y-142915230D01*
X94479364Y-142915241D01*
X94459532Y-143141926D01*
X94459532Y-143141929D01*
X94479364Y-143368614D01*
X94479366Y-143368625D01*
X94538258Y-143588416D01*
X94538261Y-143588425D01*
X94634431Y-143794660D01*
X94634432Y-143794662D01*
X94764954Y-143981069D01*
X94925858Y-144141973D01*
X94925861Y-144141975D01*
X95112266Y-144272496D01*
X95170275Y-144299546D01*
X95222714Y-144345719D01*
X95241866Y-144412912D01*
X95221650Y-144479793D01*
X95170275Y-144524310D01*
X95112267Y-144551359D01*
X95112265Y-144551360D01*
X94925858Y-144681882D01*
X94764954Y-144842786D01*
X94634432Y-145029193D01*
X94634431Y-145029195D01*
X94538261Y-145235430D01*
X94538258Y-145235439D01*
X94479366Y-145455230D01*
X94479364Y-145455241D01*
X94459532Y-145681926D01*
X94459532Y-145681929D01*
X94479364Y-145908614D01*
X94479366Y-145908625D01*
X94538258Y-146128416D01*
X94538261Y-146128425D01*
X94634431Y-146334660D01*
X94634432Y-146334662D01*
X94764954Y-146521069D01*
X94925858Y-146681973D01*
X94925861Y-146681975D01*
X95112266Y-146812496D01*
X95170275Y-146839546D01*
X95222714Y-146885719D01*
X95241866Y-146952912D01*
X95221650Y-147019793D01*
X95170275Y-147064310D01*
X95112267Y-147091359D01*
X95112265Y-147091360D01*
X94925858Y-147221882D01*
X94764954Y-147382786D01*
X94634432Y-147569193D01*
X94634431Y-147569195D01*
X94538261Y-147775430D01*
X94538258Y-147775439D01*
X94479366Y-147995230D01*
X94479364Y-147995241D01*
X94459532Y-148221926D01*
X94459532Y-148221929D01*
X94479364Y-148448614D01*
X94479366Y-148448625D01*
X94538258Y-148668416D01*
X94538261Y-148668425D01*
X94634431Y-148874660D01*
X94634432Y-148874662D01*
X94764954Y-149061069D01*
X94925858Y-149221973D01*
X94925861Y-149221975D01*
X95112266Y-149352496D01*
X95170275Y-149379546D01*
X95222714Y-149425719D01*
X95241866Y-149492912D01*
X95221650Y-149559793D01*
X95170275Y-149604310D01*
X95112267Y-149631359D01*
X95112265Y-149631360D01*
X94925858Y-149761882D01*
X94764954Y-149922786D01*
X94634432Y-150109193D01*
X94634431Y-150109195D01*
X94538261Y-150315430D01*
X94538258Y-150315439D01*
X94479366Y-150535230D01*
X94479364Y-150535241D01*
X94459532Y-150761926D01*
X94459532Y-150761929D01*
X94479364Y-150988614D01*
X94479366Y-150988625D01*
X94538258Y-151208416D01*
X94538261Y-151208425D01*
X94634431Y-151414660D01*
X94634432Y-151414662D01*
X94764954Y-151601069D01*
X94925858Y-151761973D01*
X94925861Y-151761975D01*
X95112266Y-151892496D01*
X95170275Y-151919546D01*
X95222714Y-151965719D01*
X95241866Y-152032912D01*
X95221650Y-152099793D01*
X95170275Y-152144310D01*
X95112267Y-152171359D01*
X95112265Y-152171360D01*
X94925858Y-152301882D01*
X94764954Y-152462786D01*
X94634432Y-152649193D01*
X94634431Y-152649195D01*
X94538261Y-152855430D01*
X94538258Y-152855439D01*
X94479366Y-153075230D01*
X94479364Y-153075241D01*
X94459532Y-153301926D01*
X94459532Y-153301929D01*
X94479364Y-153528614D01*
X94479366Y-153528625D01*
X94538258Y-153748416D01*
X94538261Y-153748425D01*
X94634431Y-153954660D01*
X94634432Y-153954662D01*
X94764954Y-154141069D01*
X94925858Y-154301973D01*
X94925861Y-154301975D01*
X95112266Y-154432496D01*
X95170275Y-154459546D01*
X95222714Y-154505719D01*
X95241866Y-154572912D01*
X95221650Y-154639793D01*
X95170275Y-154684310D01*
X95112267Y-154711359D01*
X95112265Y-154711360D01*
X94925858Y-154841882D01*
X94764954Y-155002786D01*
X94634432Y-155189193D01*
X94634431Y-155189195D01*
X94538261Y-155395430D01*
X94538258Y-155395439D01*
X94479366Y-155615230D01*
X94479364Y-155615241D01*
X94459532Y-155841926D01*
X94459532Y-155841929D01*
X94479364Y-156068614D01*
X94479366Y-156068625D01*
X94538258Y-156288416D01*
X94538261Y-156288425D01*
X94634431Y-156494660D01*
X94634432Y-156494662D01*
X94764954Y-156681069D01*
X94925858Y-156841973D01*
X94925861Y-156841975D01*
X95112266Y-156972496D01*
X95170275Y-156999546D01*
X95222714Y-157045719D01*
X95241866Y-157112912D01*
X95221650Y-157179793D01*
X95170275Y-157224310D01*
X95112267Y-157251359D01*
X95112265Y-157251360D01*
X94925858Y-157381882D01*
X94764954Y-157542786D01*
X94634432Y-157729193D01*
X94634431Y-157729195D01*
X94538261Y-157935430D01*
X94538258Y-157935439D01*
X94479366Y-158155230D01*
X94479364Y-158155241D01*
X94459532Y-158381926D01*
X94459532Y-158381929D01*
X94479364Y-158608614D01*
X94479366Y-158608625D01*
X94538258Y-158828416D01*
X94538261Y-158828425D01*
X94634431Y-159034660D01*
X94634432Y-159034662D01*
X94764954Y-159221069D01*
X94925858Y-159381973D01*
X94925861Y-159381975D01*
X95112266Y-159512496D01*
X95170275Y-159539546D01*
X95222714Y-159585719D01*
X95241866Y-159652912D01*
X95221650Y-159719793D01*
X95170275Y-159764310D01*
X95112267Y-159791359D01*
X95112265Y-159791360D01*
X94925858Y-159921882D01*
X94764954Y-160082786D01*
X94634432Y-160269193D01*
X94634431Y-160269195D01*
X94538261Y-160475430D01*
X94538258Y-160475439D01*
X94479366Y-160695230D01*
X94479364Y-160695241D01*
X94459532Y-160921926D01*
X94459532Y-160921929D01*
X94479364Y-161148614D01*
X94479366Y-161148625D01*
X94538258Y-161368416D01*
X94538261Y-161368425D01*
X94634431Y-161574660D01*
X94634432Y-161574662D01*
X94764954Y-161761069D01*
X94925858Y-161921973D01*
X94925861Y-161921975D01*
X95112266Y-162052496D01*
X95170275Y-162079546D01*
X95222714Y-162125719D01*
X95241866Y-162192912D01*
X95221650Y-162259793D01*
X95170275Y-162304310D01*
X95112267Y-162331359D01*
X95112265Y-162331360D01*
X94925858Y-162461882D01*
X94764954Y-162622786D01*
X94634432Y-162809193D01*
X94634431Y-162809195D01*
X94538261Y-163015430D01*
X94538258Y-163015439D01*
X94479366Y-163235230D01*
X94479364Y-163235241D01*
X94459532Y-163461926D01*
X94459532Y-163461929D01*
X94479364Y-163688614D01*
X94479366Y-163688625D01*
X94538258Y-163908416D01*
X94538261Y-163908425D01*
X94634431Y-164114660D01*
X94634432Y-164114662D01*
X94764954Y-164301069D01*
X94925858Y-164461973D01*
X94925861Y-164461975D01*
X95112266Y-164592496D01*
X95170275Y-164619546D01*
X95222714Y-164665719D01*
X95241866Y-164732912D01*
X95221650Y-164799793D01*
X95170275Y-164844310D01*
X95112267Y-164871359D01*
X95112265Y-164871360D01*
X94925858Y-165001882D01*
X94764954Y-165162786D01*
X94634432Y-165349193D01*
X94634431Y-165349195D01*
X94538261Y-165555430D01*
X94538258Y-165555439D01*
X94479366Y-165775230D01*
X94479364Y-165775241D01*
X94459532Y-166001926D01*
X94459532Y-166001929D01*
X94479364Y-166228614D01*
X94479366Y-166228625D01*
X94538258Y-166448416D01*
X94538261Y-166448425D01*
X94634431Y-166654660D01*
X94634432Y-166654662D01*
X94764954Y-166841069D01*
X94925858Y-167001973D01*
X94925861Y-167001975D01*
X95112266Y-167132496D01*
X95170275Y-167159546D01*
X95222714Y-167205719D01*
X95241866Y-167272912D01*
X95221650Y-167339793D01*
X95170275Y-167384310D01*
X95112267Y-167411359D01*
X95112265Y-167411360D01*
X94925858Y-167541882D01*
X94764954Y-167702786D01*
X94634432Y-167889193D01*
X94634431Y-167889195D01*
X94538261Y-168095430D01*
X94538258Y-168095439D01*
X94479366Y-168315230D01*
X94479364Y-168315241D01*
X94459532Y-168541926D01*
X94459532Y-168541929D01*
X94479364Y-168768614D01*
X94479366Y-168768625D01*
X94538258Y-168988416D01*
X94538261Y-168988425D01*
X94634431Y-169194660D01*
X94634432Y-169194662D01*
X94711255Y-169304377D01*
X94733582Y-169370583D01*
X94716572Y-169438350D01*
X94665623Y-169486163D01*
X94609680Y-169499500D01*
X71520320Y-169499500D01*
X71453281Y-169479815D01*
X71407526Y-169427011D01*
X71397582Y-169357853D01*
X71418745Y-169304377D01*
X71495568Y-169194662D01*
X71591739Y-168988424D01*
X71650635Y-168768620D01*
X71670468Y-168541928D01*
X71650635Y-168315236D01*
X71591739Y-168095432D01*
X71495568Y-167889194D01*
X71365047Y-167702789D01*
X71365045Y-167702786D01*
X71204141Y-167541882D01*
X71017734Y-167411360D01*
X71017728Y-167411357D01*
X70959725Y-167384310D01*
X70907285Y-167338138D01*
X70888133Y-167270945D01*
X70908348Y-167204063D01*
X70959725Y-167159546D01*
X71017734Y-167132496D01*
X71204139Y-167001975D01*
X71365047Y-166841067D01*
X71495568Y-166654662D01*
X71591739Y-166448424D01*
X71650635Y-166228620D01*
X71670468Y-166001928D01*
X71650635Y-165775236D01*
X71591739Y-165555432D01*
X71495568Y-165349194D01*
X71365047Y-165162789D01*
X71365045Y-165162786D01*
X71204141Y-165001882D01*
X71017734Y-164871360D01*
X71017728Y-164871357D01*
X70959725Y-164844310D01*
X70907285Y-164798138D01*
X70888133Y-164730945D01*
X70908348Y-164664063D01*
X70959725Y-164619546D01*
X71017734Y-164592496D01*
X71204139Y-164461975D01*
X71365047Y-164301067D01*
X71495568Y-164114662D01*
X71591739Y-163908424D01*
X71650635Y-163688620D01*
X71670468Y-163461928D01*
X71650635Y-163235236D01*
X71591739Y-163015432D01*
X71495568Y-162809194D01*
X71365047Y-162622789D01*
X71365045Y-162622786D01*
X71204141Y-162461882D01*
X71017734Y-162331360D01*
X71017728Y-162331357D01*
X70959725Y-162304310D01*
X70907285Y-162258138D01*
X70888133Y-162190945D01*
X70908348Y-162124063D01*
X70959725Y-162079546D01*
X71017734Y-162052496D01*
X71204139Y-161921975D01*
X71365047Y-161761067D01*
X71495568Y-161574662D01*
X71591739Y-161368424D01*
X71650635Y-161148620D01*
X71670468Y-160921928D01*
X71650635Y-160695236D01*
X71591739Y-160475432D01*
X71495568Y-160269194D01*
X71365047Y-160082789D01*
X71365045Y-160082786D01*
X71204141Y-159921882D01*
X71017734Y-159791360D01*
X71017728Y-159791357D01*
X70959725Y-159764310D01*
X70907285Y-159718138D01*
X70888133Y-159650945D01*
X70908348Y-159584063D01*
X70959725Y-159539546D01*
X71017734Y-159512496D01*
X71204139Y-159381975D01*
X71365047Y-159221067D01*
X71495568Y-159034662D01*
X71591739Y-158828424D01*
X71650635Y-158608620D01*
X71670468Y-158381928D01*
X71650635Y-158155236D01*
X71591739Y-157935432D01*
X71495568Y-157729194D01*
X71365047Y-157542789D01*
X71365045Y-157542786D01*
X71204141Y-157381882D01*
X71017734Y-157251360D01*
X71017732Y-157251359D01*
X70811497Y-157155189D01*
X70811488Y-157155186D01*
X70591697Y-157096294D01*
X70591693Y-157096293D01*
X70591692Y-157096293D01*
X70591691Y-157096292D01*
X70591686Y-157096292D01*
X70365002Y-157076460D01*
X70364998Y-157076460D01*
X70138313Y-157096292D01*
X70138302Y-157096294D01*
X69918511Y-157155186D01*
X69918502Y-157155189D01*
X69712267Y-157251359D01*
X69712265Y-157251360D01*
X69525858Y-157381882D01*
X69364954Y-157542786D01*
X69234432Y-157729193D01*
X69234431Y-157729195D01*
X69138261Y-157935430D01*
X69138258Y-157935439D01*
X69079366Y-158155230D01*
X69079364Y-158155241D01*
X69059532Y-158381926D01*
X69059532Y-158381929D01*
X69079364Y-158608614D01*
X69079366Y-158608625D01*
X69138258Y-158828416D01*
X69138261Y-158828425D01*
X69234431Y-159034660D01*
X69234432Y-159034662D01*
X69364954Y-159221069D01*
X69525858Y-159381973D01*
X69525861Y-159381975D01*
X69712266Y-159512496D01*
X69770275Y-159539546D01*
X69822714Y-159585719D01*
X69841866Y-159652912D01*
X69821650Y-159719793D01*
X69770275Y-159764310D01*
X69712267Y-159791359D01*
X69712265Y-159791360D01*
X69525858Y-159921882D01*
X69364954Y-160082786D01*
X69234432Y-160269193D01*
X69234431Y-160269195D01*
X69138261Y-160475430D01*
X69138258Y-160475439D01*
X69079366Y-160695230D01*
X69079364Y-160695241D01*
X69059532Y-160921926D01*
X69059532Y-160921929D01*
X69079364Y-161148614D01*
X69079366Y-161148625D01*
X69138258Y-161368416D01*
X69138261Y-161368425D01*
X69234431Y-161574660D01*
X69234432Y-161574662D01*
X69364954Y-161761069D01*
X69525858Y-161921973D01*
X69525861Y-161921975D01*
X69712266Y-162052496D01*
X69770275Y-162079546D01*
X69822714Y-162125719D01*
X69841866Y-162192912D01*
X69821650Y-162259793D01*
X69770275Y-162304310D01*
X69712267Y-162331359D01*
X69712265Y-162331360D01*
X69525858Y-162461882D01*
X69364954Y-162622786D01*
X69234432Y-162809193D01*
X69234431Y-162809195D01*
X69138261Y-163015430D01*
X69138258Y-163015439D01*
X69079366Y-163235230D01*
X69079364Y-163235241D01*
X69059532Y-163461926D01*
X69059532Y-163461929D01*
X69079364Y-163688614D01*
X69079366Y-163688625D01*
X69138258Y-163908416D01*
X69138261Y-163908425D01*
X69234431Y-164114660D01*
X69234432Y-164114662D01*
X69364954Y-164301069D01*
X69525858Y-164461973D01*
X69525861Y-164461975D01*
X69712266Y-164592496D01*
X69770275Y-164619546D01*
X69822714Y-164665719D01*
X69841866Y-164732912D01*
X69821650Y-164799793D01*
X69770275Y-164844310D01*
X69712267Y-164871359D01*
X69712265Y-164871360D01*
X69525858Y-165001882D01*
X69364954Y-165162786D01*
X69234432Y-165349193D01*
X69234431Y-165349195D01*
X69138261Y-165555430D01*
X69138258Y-165555439D01*
X69079366Y-165775230D01*
X69079364Y-165775241D01*
X69059532Y-166001926D01*
X69059532Y-166001929D01*
X69079364Y-166228614D01*
X69079366Y-166228625D01*
X69138258Y-166448416D01*
X69138261Y-166448425D01*
X69234431Y-166654660D01*
X69234432Y-166654662D01*
X69364954Y-166841069D01*
X69525858Y-167001973D01*
X69525861Y-167001975D01*
X69712266Y-167132496D01*
X69770275Y-167159546D01*
X69822714Y-167205719D01*
X69841866Y-167272912D01*
X69821650Y-167339793D01*
X69770275Y-167384310D01*
X69712267Y-167411359D01*
X69712265Y-167411360D01*
X69525858Y-167541882D01*
X69364954Y-167702786D01*
X69234432Y-167889193D01*
X69234431Y-167889195D01*
X69138261Y-168095430D01*
X69138258Y-168095439D01*
X69079366Y-168315230D01*
X69079364Y-168315241D01*
X69059532Y-168541926D01*
X69059532Y-168541929D01*
X69079364Y-168768614D01*
X69079366Y-168768625D01*
X69138258Y-168988416D01*
X69138261Y-168988425D01*
X69234431Y-169194660D01*
X69234432Y-169194662D01*
X69311255Y-169304377D01*
X69333582Y-169370583D01*
X69316572Y-169438350D01*
X69265623Y-169486163D01*
X69209680Y-169499500D01*
X43224000Y-169499500D01*
X43156961Y-169479815D01*
X43111206Y-169427011D01*
X43100000Y-169375500D01*
X43100000Y-161900000D01*
X35624500Y-161900000D01*
X35557461Y-161880315D01*
X35511706Y-161827511D01*
X35500500Y-161776000D01*
X35500500Y-150952498D01*
X45714532Y-150952498D01*
X45714532Y-150952501D01*
X45734364Y-151179186D01*
X45734366Y-151179197D01*
X45793258Y-151398988D01*
X45793261Y-151398997D01*
X45889431Y-151605232D01*
X45889432Y-151605234D01*
X46019954Y-151791641D01*
X46180858Y-151952545D01*
X46227693Y-151985339D01*
X46367266Y-152083068D01*
X46573504Y-152179239D01*
X46793308Y-152238135D01*
X46955230Y-152252301D01*
X47019998Y-152257968D01*
X47020000Y-152257968D01*
X47020002Y-152257968D01*
X47076673Y-152253009D01*
X47246692Y-152238135D01*
X47466496Y-152179239D01*
X47672734Y-152083068D01*
X47859139Y-151952547D01*
X48020047Y-151791639D01*
X48150568Y-151605234D01*
X48177618Y-151547224D01*
X48223790Y-151494785D01*
X48290983Y-151475633D01*
X48357865Y-151495848D01*
X48402382Y-151547225D01*
X48429429Y-151605228D01*
X48429432Y-151605234D01*
X48559954Y-151791641D01*
X48720858Y-151952545D01*
X48767693Y-151985339D01*
X48907266Y-152083068D01*
X49113504Y-152179239D01*
X49333308Y-152238135D01*
X49495230Y-152252301D01*
X49559998Y-152257968D01*
X49560000Y-152257968D01*
X49560002Y-152257968D01*
X49616673Y-152253009D01*
X49786692Y-152238135D01*
X50006496Y-152179239D01*
X50212734Y-152083068D01*
X50399139Y-151952547D01*
X50560047Y-151791639D01*
X50690568Y-151605234D01*
X50717618Y-151547224D01*
X50763790Y-151494785D01*
X50830983Y-151475633D01*
X50897865Y-151495848D01*
X50942382Y-151547225D01*
X50969429Y-151605228D01*
X50969432Y-151605234D01*
X51099954Y-151791641D01*
X51260858Y-151952545D01*
X51307693Y-151985339D01*
X51447266Y-152083068D01*
X51653504Y-152179239D01*
X51873308Y-152238135D01*
X52035230Y-152252301D01*
X52099998Y-152257968D01*
X52100000Y-152257968D01*
X52100002Y-152257968D01*
X52156673Y-152253009D01*
X52326692Y-152238135D01*
X52546496Y-152179239D01*
X52752734Y-152083068D01*
X52939139Y-151952547D01*
X53100047Y-151791639D01*
X53230568Y-151605234D01*
X53257618Y-151547224D01*
X53303790Y-151494785D01*
X53370983Y-151475633D01*
X53437865Y-151495848D01*
X53482382Y-151547225D01*
X53509429Y-151605228D01*
X53509432Y-151605234D01*
X53639954Y-151791641D01*
X53800858Y-151952545D01*
X53847693Y-151985339D01*
X53987266Y-152083068D01*
X54193504Y-152179239D01*
X54413308Y-152238135D01*
X54575230Y-152252301D01*
X54639998Y-152257968D01*
X54640000Y-152257968D01*
X54640002Y-152257968D01*
X54696673Y-152253009D01*
X54866692Y-152238135D01*
X55086496Y-152179239D01*
X55292734Y-152083068D01*
X55479139Y-151952547D01*
X55640047Y-151791639D01*
X55770568Y-151605234D01*
X55797618Y-151547224D01*
X55843790Y-151494785D01*
X55910983Y-151475633D01*
X55977865Y-151495848D01*
X56022382Y-151547225D01*
X56049429Y-151605228D01*
X56049432Y-151605234D01*
X56179954Y-151791641D01*
X56340858Y-151952545D01*
X56387693Y-151985339D01*
X56527266Y-152083068D01*
X56733504Y-152179239D01*
X56953308Y-152238135D01*
X57115230Y-152252301D01*
X57179998Y-152257968D01*
X57180000Y-152257968D01*
X57180002Y-152257968D01*
X57236673Y-152253009D01*
X57406692Y-152238135D01*
X57626496Y-152179239D01*
X57832734Y-152083068D01*
X58019139Y-151952547D01*
X58180047Y-151791639D01*
X58310568Y-151605234D01*
X58337618Y-151547224D01*
X58383790Y-151494785D01*
X58450983Y-151475633D01*
X58517865Y-151495848D01*
X58562382Y-151547225D01*
X58589429Y-151605228D01*
X58589432Y-151605234D01*
X58719954Y-151791641D01*
X58880858Y-151952545D01*
X58927693Y-151985339D01*
X59067266Y-152083068D01*
X59273504Y-152179239D01*
X59493308Y-152238135D01*
X59655230Y-152252301D01*
X59719998Y-152257968D01*
X59720000Y-152257968D01*
X59720002Y-152257968D01*
X59776673Y-152253009D01*
X59946692Y-152238135D01*
X60166496Y-152179239D01*
X60372734Y-152083068D01*
X60559139Y-151952547D01*
X60720047Y-151791639D01*
X60850568Y-151605234D01*
X60877618Y-151547224D01*
X60923790Y-151494785D01*
X60990983Y-151475633D01*
X61057865Y-151495848D01*
X61102382Y-151547225D01*
X61129429Y-151605228D01*
X61129432Y-151605234D01*
X61259954Y-151791641D01*
X61420858Y-151952545D01*
X61467693Y-151985339D01*
X61607266Y-152083068D01*
X61813504Y-152179239D01*
X62033308Y-152238135D01*
X62195230Y-152252301D01*
X62259998Y-152257968D01*
X62260000Y-152257968D01*
X62260002Y-152257968D01*
X62316673Y-152253009D01*
X62486692Y-152238135D01*
X62706496Y-152179239D01*
X62912734Y-152083068D01*
X63099139Y-151952547D01*
X63260047Y-151791639D01*
X63390568Y-151605234D01*
X63417618Y-151547224D01*
X63463790Y-151494785D01*
X63530983Y-151475633D01*
X63597865Y-151495848D01*
X63642382Y-151547225D01*
X63669429Y-151605228D01*
X63669432Y-151605234D01*
X63799954Y-151791641D01*
X63960858Y-151952545D01*
X64007693Y-151985339D01*
X64147266Y-152083068D01*
X64353504Y-152179239D01*
X64573308Y-152238135D01*
X64735230Y-152252301D01*
X64799998Y-152257968D01*
X64800000Y-152257968D01*
X64800002Y-152257968D01*
X64856673Y-152253009D01*
X65026692Y-152238135D01*
X65246496Y-152179239D01*
X65452734Y-152083068D01*
X65639139Y-151952547D01*
X65800047Y-151791639D01*
X65930568Y-151605234D01*
X66026739Y-151398996D01*
X66085635Y-151179192D01*
X66105468Y-150952500D01*
X66085635Y-150725808D01*
X66026739Y-150506004D01*
X65930568Y-150299766D01*
X65800047Y-150113361D01*
X65800045Y-150113358D01*
X65639141Y-149952454D01*
X65452734Y-149821932D01*
X65452732Y-149821931D01*
X65246497Y-149725761D01*
X65246488Y-149725758D01*
X65026697Y-149666866D01*
X65026693Y-149666865D01*
X65026692Y-149666865D01*
X65026691Y-149666864D01*
X65026686Y-149666864D01*
X64800002Y-149647032D01*
X64799998Y-149647032D01*
X64573313Y-149666864D01*
X64573302Y-149666866D01*
X64353511Y-149725758D01*
X64353502Y-149725761D01*
X64147267Y-149821931D01*
X64147265Y-149821932D01*
X63960858Y-149952454D01*
X63799954Y-150113358D01*
X63669432Y-150299765D01*
X63669431Y-150299767D01*
X63642382Y-150357775D01*
X63596209Y-150410214D01*
X63529016Y-150429366D01*
X63462135Y-150409150D01*
X63417618Y-150357775D01*
X63390568Y-150299767D01*
X63390567Y-150299765D01*
X63321800Y-150201555D01*
X63260047Y-150113361D01*
X63260045Y-150113358D01*
X63099141Y-149952454D01*
X62912734Y-149821932D01*
X62912732Y-149821931D01*
X62706497Y-149725761D01*
X62706488Y-149725758D01*
X62486697Y-149666866D01*
X62486693Y-149666865D01*
X62486692Y-149666865D01*
X62486691Y-149666864D01*
X62486686Y-149666864D01*
X62260002Y-149647032D01*
X62259998Y-149647032D01*
X62033313Y-149666864D01*
X62033302Y-149666866D01*
X61813511Y-149725758D01*
X61813502Y-149725761D01*
X61607267Y-149821931D01*
X61607265Y-149821932D01*
X61420858Y-149952454D01*
X61259954Y-150113358D01*
X61129432Y-150299765D01*
X61129431Y-150299767D01*
X61102382Y-150357775D01*
X61056209Y-150410214D01*
X60989016Y-150429366D01*
X60922135Y-150409150D01*
X60877618Y-150357775D01*
X60850568Y-150299767D01*
X60850567Y-150299765D01*
X60781800Y-150201555D01*
X60720047Y-150113361D01*
X60720045Y-150113358D01*
X60559141Y-149952454D01*
X60372734Y-149821932D01*
X60372732Y-149821931D01*
X60166497Y-149725761D01*
X60166488Y-149725758D01*
X59946697Y-149666866D01*
X59946693Y-149666865D01*
X59946692Y-149666865D01*
X59946691Y-149666864D01*
X59946686Y-149666864D01*
X59720002Y-149647032D01*
X59719998Y-149647032D01*
X59493313Y-149666864D01*
X59493302Y-149666866D01*
X59273511Y-149725758D01*
X59273502Y-149725761D01*
X59067267Y-149821931D01*
X59067265Y-149821932D01*
X58880858Y-149952454D01*
X58719954Y-150113358D01*
X58589432Y-150299765D01*
X58589431Y-150299767D01*
X58562382Y-150357775D01*
X58516209Y-150410214D01*
X58449016Y-150429366D01*
X58382135Y-150409150D01*
X58337618Y-150357775D01*
X58310568Y-150299767D01*
X58310567Y-150299765D01*
X58241800Y-150201555D01*
X58180047Y-150113361D01*
X58180045Y-150113358D01*
X58019141Y-149952454D01*
X57832734Y-149821932D01*
X57832732Y-149821931D01*
X57626497Y-149725761D01*
X57626488Y-149725758D01*
X57406697Y-149666866D01*
X57406693Y-149666865D01*
X57406692Y-149666865D01*
X57406691Y-149666864D01*
X57406686Y-149666864D01*
X57180002Y-149647032D01*
X57179998Y-149647032D01*
X56953313Y-149666864D01*
X56953302Y-149666866D01*
X56733511Y-149725758D01*
X56733502Y-149725761D01*
X56527267Y-149821931D01*
X56527265Y-149821932D01*
X56340858Y-149952454D01*
X56179954Y-150113358D01*
X56049432Y-150299765D01*
X56049431Y-150299767D01*
X56022382Y-150357775D01*
X55976209Y-150410214D01*
X55909016Y-150429366D01*
X55842135Y-150409150D01*
X55797618Y-150357775D01*
X55770568Y-150299767D01*
X55770567Y-150299765D01*
X55701800Y-150201555D01*
X55640047Y-150113361D01*
X55640045Y-150113358D01*
X55479141Y-149952454D01*
X55292734Y-149821932D01*
X55292732Y-149821931D01*
X55086497Y-149725761D01*
X55086488Y-149725758D01*
X54866697Y-149666866D01*
X54866693Y-149666865D01*
X54866692Y-149666865D01*
X54866691Y-149666864D01*
X54866686Y-149666864D01*
X54640002Y-149647032D01*
X54639998Y-149647032D01*
X54413313Y-149666864D01*
X54413302Y-149666866D01*
X54193511Y-149725758D01*
X54193502Y-149725761D01*
X53987267Y-149821931D01*
X53987265Y-149821932D01*
X53800858Y-149952454D01*
X53639954Y-150113358D01*
X53509432Y-150299765D01*
X53509431Y-150299767D01*
X53482382Y-150357775D01*
X53436209Y-150410214D01*
X53369016Y-150429366D01*
X53302135Y-150409150D01*
X53257618Y-150357775D01*
X53230568Y-150299767D01*
X53230567Y-150299765D01*
X53161800Y-150201555D01*
X53100047Y-150113361D01*
X53100045Y-150113358D01*
X52939141Y-149952454D01*
X52752734Y-149821932D01*
X52752732Y-149821931D01*
X52546497Y-149725761D01*
X52546488Y-149725758D01*
X52326697Y-149666866D01*
X52326693Y-149666865D01*
X52326692Y-149666865D01*
X52326691Y-149666864D01*
X52326686Y-149666864D01*
X52100002Y-149647032D01*
X52099998Y-149647032D01*
X51873313Y-149666864D01*
X51873302Y-149666866D01*
X51653511Y-149725758D01*
X51653502Y-149725761D01*
X51447267Y-149821931D01*
X51447265Y-149821932D01*
X51260858Y-149952454D01*
X51099954Y-150113358D01*
X50969432Y-150299765D01*
X50969431Y-150299767D01*
X50942382Y-150357775D01*
X50896209Y-150410214D01*
X50829016Y-150429366D01*
X50762135Y-150409150D01*
X50717618Y-150357775D01*
X50690568Y-150299767D01*
X50690567Y-150299765D01*
X50621800Y-150201555D01*
X50560047Y-150113361D01*
X50560045Y-150113358D01*
X50399141Y-149952454D01*
X50212734Y-149821932D01*
X50212732Y-149821931D01*
X50006497Y-149725761D01*
X50006488Y-149725758D01*
X49786697Y-149666866D01*
X49786693Y-149666865D01*
X49786692Y-149666865D01*
X49786691Y-149666864D01*
X49786686Y-149666864D01*
X49560002Y-149647032D01*
X49559998Y-149647032D01*
X49333313Y-149666864D01*
X49333302Y-149666866D01*
X49113511Y-149725758D01*
X49113502Y-149725761D01*
X48907267Y-149821931D01*
X48907265Y-149821932D01*
X48720858Y-149952454D01*
X48559954Y-150113358D01*
X48429432Y-150299765D01*
X48429431Y-150299767D01*
X48402382Y-150357775D01*
X48356209Y-150410214D01*
X48289016Y-150429366D01*
X48222135Y-150409150D01*
X48177618Y-150357775D01*
X48150568Y-150299767D01*
X48150567Y-150299765D01*
X48081800Y-150201555D01*
X48020047Y-150113361D01*
X48020045Y-150113358D01*
X47859141Y-149952454D01*
X47672734Y-149821932D01*
X47672732Y-149821931D01*
X47466497Y-149725761D01*
X47466488Y-149725758D01*
X47246697Y-149666866D01*
X47246693Y-149666865D01*
X47246692Y-149666865D01*
X47246691Y-149666864D01*
X47246686Y-149666864D01*
X47020002Y-149647032D01*
X47019998Y-149647032D01*
X46793313Y-149666864D01*
X46793302Y-149666866D01*
X46573511Y-149725758D01*
X46573502Y-149725761D01*
X46367267Y-149821931D01*
X46367265Y-149821932D01*
X46180858Y-149952454D01*
X46019954Y-150113358D01*
X45889432Y-150299765D01*
X45889431Y-150299767D01*
X45793261Y-150506002D01*
X45793258Y-150506011D01*
X45734366Y-150725802D01*
X45734364Y-150725813D01*
X45714532Y-150952498D01*
X35500500Y-150952498D01*
X35500500Y-146343713D01*
X38349500Y-146343713D01*
X38349500Y-146556287D01*
X38382754Y-146766243D01*
X38421574Y-146885719D01*
X38448444Y-146968414D01*
X38544951Y-147157820D01*
X38669890Y-147329786D01*
X38820209Y-147480105D01*
X38820214Y-147480109D01*
X38984793Y-147599682D01*
X39027459Y-147655011D01*
X39033438Y-147724625D01*
X39000833Y-147786420D01*
X38984793Y-147800318D01*
X38820214Y-147919890D01*
X38820209Y-147919894D01*
X38669890Y-148070213D01*
X38544951Y-148242179D01*
X38448444Y-148431585D01*
X38382753Y-148633760D01*
X38377263Y-148668424D01*
X38349500Y-148843713D01*
X38349500Y-149056287D01*
X38359534Y-149119644D01*
X38375742Y-149221975D01*
X38382754Y-149266243D01*
X38442027Y-149448667D01*
X38448444Y-149468414D01*
X38544951Y-149657820D01*
X38669890Y-149829786D01*
X38820213Y-149980109D01*
X38992179Y-150105048D01*
X38992181Y-150105049D01*
X38992184Y-150105051D01*
X39181588Y-150201557D01*
X39383757Y-150267246D01*
X39593713Y-150300500D01*
X39593714Y-150300500D01*
X40056286Y-150300500D01*
X40056287Y-150300500D01*
X40266243Y-150267246D01*
X40468412Y-150201557D01*
X40657816Y-150105051D01*
X40713669Y-150064472D01*
X40829786Y-149980109D01*
X40829788Y-149980106D01*
X40829792Y-149980104D01*
X40980104Y-149829792D01*
X40980106Y-149829788D01*
X40980109Y-149829786D01*
X41105048Y-149657820D01*
X41105047Y-149657820D01*
X41105051Y-149657816D01*
X41201557Y-149468412D01*
X41267246Y-149266243D01*
X41300500Y-149056287D01*
X41300500Y-148843713D01*
X41267246Y-148633757D01*
X41201557Y-148431588D01*
X41105051Y-148242184D01*
X41105049Y-148242181D01*
X41105048Y-148242179D01*
X40980109Y-148070213D01*
X40829792Y-147919896D01*
X40829784Y-147919890D01*
X40665204Y-147800316D01*
X40622540Y-147744989D01*
X40616561Y-147675376D01*
X40649166Y-147613580D01*
X40665199Y-147599686D01*
X40829792Y-147480104D01*
X40980104Y-147329792D01*
X40980106Y-147329788D01*
X40980109Y-147329786D01*
X41105048Y-147157820D01*
X41105047Y-147157820D01*
X41105051Y-147157816D01*
X41201557Y-146968412D01*
X41267246Y-146766243D01*
X41300500Y-146556287D01*
X41300500Y-146343713D01*
X41267246Y-146133757D01*
X41201557Y-145931588D01*
X41105051Y-145742184D01*
X41105049Y-145742181D01*
X41105048Y-145742179D01*
X40980109Y-145570213D01*
X40829786Y-145419890D01*
X40657820Y-145294951D01*
X40468414Y-145198444D01*
X40468413Y-145198443D01*
X40468412Y-145198443D01*
X40266243Y-145132754D01*
X40266241Y-145132753D01*
X40266240Y-145132753D01*
X40104957Y-145107208D01*
X40056287Y-145099500D01*
X39593713Y-145099500D01*
X39545042Y-145107208D01*
X39383760Y-145132753D01*
X39181585Y-145198444D01*
X38992179Y-145294951D01*
X38820213Y-145419890D01*
X38669890Y-145570213D01*
X38544951Y-145742179D01*
X38448444Y-145931585D01*
X38382753Y-146133760D01*
X38374122Y-146188256D01*
X38349500Y-146343713D01*
X35500500Y-146343713D01*
X35500500Y-143332498D01*
X45714532Y-143332498D01*
X45714532Y-143332501D01*
X45734364Y-143559186D01*
X45734366Y-143559197D01*
X45793258Y-143778988D01*
X45793261Y-143778997D01*
X45889431Y-143985232D01*
X45889432Y-143985234D01*
X46019954Y-144171641D01*
X46180858Y-144332545D01*
X46180861Y-144332547D01*
X46367266Y-144463068D01*
X46573504Y-144559239D01*
X46793308Y-144618135D01*
X46955230Y-144632301D01*
X47019998Y-144637968D01*
X47020000Y-144637968D01*
X47020002Y-144637968D01*
X47076807Y-144632998D01*
X47246692Y-144618135D01*
X47466496Y-144559239D01*
X47672734Y-144463068D01*
X47859139Y-144332547D01*
X48020047Y-144171639D01*
X48150568Y-143985234D01*
X48177618Y-143927224D01*
X48223790Y-143874785D01*
X48290983Y-143855633D01*
X48357865Y-143875848D01*
X48402382Y-143927225D01*
X48429429Y-143985228D01*
X48429432Y-143985234D01*
X48559954Y-144171641D01*
X48720858Y-144332545D01*
X48720861Y-144332547D01*
X48907266Y-144463068D01*
X49113504Y-144559239D01*
X49333308Y-144618135D01*
X49495230Y-144632301D01*
X49559998Y-144637968D01*
X49560000Y-144637968D01*
X49560002Y-144637968D01*
X49616807Y-144632998D01*
X49786692Y-144618135D01*
X50006496Y-144559239D01*
X50212734Y-144463068D01*
X50399139Y-144332547D01*
X50560047Y-144171639D01*
X50690568Y-143985234D01*
X50717618Y-143927224D01*
X50763790Y-143874785D01*
X50830983Y-143855633D01*
X50897865Y-143875848D01*
X50942382Y-143927225D01*
X50969429Y-143985228D01*
X50969432Y-143985234D01*
X51099954Y-144171641D01*
X51260858Y-144332545D01*
X51260861Y-144332547D01*
X51447266Y-144463068D01*
X51653504Y-144559239D01*
X51873308Y-144618135D01*
X52035230Y-144632301D01*
X52099998Y-144637968D01*
X52100000Y-144637968D01*
X52100002Y-144637968D01*
X52156807Y-144632998D01*
X52326692Y-144618135D01*
X52546496Y-144559239D01*
X52752734Y-144463068D01*
X52939139Y-144332547D01*
X53100047Y-144171639D01*
X53230568Y-143985234D01*
X53257618Y-143927224D01*
X53303790Y-143874785D01*
X53370983Y-143855633D01*
X53437865Y-143875848D01*
X53482382Y-143927225D01*
X53509429Y-143985228D01*
X53509432Y-143985234D01*
X53639954Y-144171641D01*
X53800858Y-144332545D01*
X53800861Y-144332547D01*
X53987266Y-144463068D01*
X54193504Y-144559239D01*
X54413308Y-144618135D01*
X54575230Y-144632301D01*
X54639998Y-144637968D01*
X54640000Y-144637968D01*
X54640002Y-144637968D01*
X54696807Y-144632998D01*
X54866692Y-144618135D01*
X55086496Y-144559239D01*
X55292734Y-144463068D01*
X55479139Y-144332547D01*
X55640047Y-144171639D01*
X55770568Y-143985234D01*
X55797618Y-143927224D01*
X55843790Y-143874785D01*
X55910983Y-143855633D01*
X55977865Y-143875848D01*
X56022382Y-143927225D01*
X56049429Y-143985228D01*
X56049432Y-143985234D01*
X56179954Y-144171641D01*
X56340858Y-144332545D01*
X56340861Y-144332547D01*
X56527266Y-144463068D01*
X56733504Y-144559239D01*
X56953308Y-144618135D01*
X57115230Y-144632301D01*
X57179998Y-144637968D01*
X57180000Y-144637968D01*
X57180002Y-144637968D01*
X57236807Y-144632998D01*
X57406692Y-144618135D01*
X57626496Y-144559239D01*
X57832734Y-144463068D01*
X58019139Y-144332547D01*
X58180047Y-144171639D01*
X58310568Y-143985234D01*
X58337618Y-143927224D01*
X58383790Y-143874785D01*
X58450983Y-143855633D01*
X58517865Y-143875848D01*
X58562382Y-143927225D01*
X58589429Y-143985228D01*
X58589432Y-143985234D01*
X58719954Y-144171641D01*
X58880858Y-144332545D01*
X58880861Y-144332547D01*
X59067266Y-144463068D01*
X59273504Y-144559239D01*
X59493308Y-144618135D01*
X59655230Y-144632301D01*
X59719998Y-144637968D01*
X59720000Y-144637968D01*
X59720002Y-144637968D01*
X59776807Y-144632998D01*
X59946692Y-144618135D01*
X60166496Y-144559239D01*
X60372734Y-144463068D01*
X60559139Y-144332547D01*
X60720047Y-144171639D01*
X60850568Y-143985234D01*
X60877618Y-143927224D01*
X60923790Y-143874785D01*
X60990983Y-143855633D01*
X61057865Y-143875848D01*
X61102382Y-143927225D01*
X61129429Y-143985228D01*
X61129432Y-143985234D01*
X61259954Y-144171641D01*
X61420858Y-144332545D01*
X61420861Y-144332547D01*
X61607266Y-144463068D01*
X61813504Y-144559239D01*
X62033308Y-144618135D01*
X62195230Y-144632301D01*
X62259998Y-144637968D01*
X62260000Y-144637968D01*
X62260002Y-144637968D01*
X62316807Y-144632998D01*
X62486692Y-144618135D01*
X62706496Y-144559239D01*
X62912734Y-144463068D01*
X63099139Y-144332547D01*
X63260047Y-144171639D01*
X63277272Y-144147039D01*
X63331848Y-144103413D01*
X63401346Y-144096218D01*
X63463701Y-144127739D01*
X63499116Y-144187968D01*
X63502138Y-144204906D01*
X63505908Y-144239983D01*
X63556202Y-144374828D01*
X63556206Y-144374835D01*
X63642452Y-144490044D01*
X63642455Y-144490047D01*
X63757664Y-144576293D01*
X63757671Y-144576297D01*
X63892517Y-144626591D01*
X63892516Y-144626591D01*
X63899444Y-144627335D01*
X63952127Y-144633000D01*
X65647872Y-144632999D01*
X65707483Y-144626591D01*
X65842331Y-144576296D01*
X65957546Y-144490046D01*
X66043796Y-144374831D01*
X66094091Y-144239983D01*
X66099062Y-144193742D01*
X66125799Y-144129194D01*
X66183191Y-144089346D01*
X66222351Y-144083000D01*
X67941420Y-144083000D01*
X68038962Y-144063596D01*
X68086413Y-144054158D01*
X68222995Y-143997584D01*
X68272229Y-143964686D01*
X68345916Y-143915452D01*
X68888061Y-143373305D01*
X68949382Y-143339822D01*
X69019073Y-143344806D01*
X69075007Y-143386677D01*
X69095515Y-143428894D01*
X69138259Y-143588419D01*
X69138261Y-143588425D01*
X69234431Y-143794660D01*
X69234432Y-143794662D01*
X69364954Y-143981069D01*
X69525858Y-144141973D01*
X69525861Y-144141975D01*
X69712266Y-144272496D01*
X69770275Y-144299546D01*
X69822714Y-144345719D01*
X69841866Y-144412912D01*
X69821650Y-144479793D01*
X69770275Y-144524310D01*
X69712267Y-144551359D01*
X69712265Y-144551360D01*
X69525858Y-144681882D01*
X69364954Y-144842786D01*
X69234432Y-145029193D01*
X69234431Y-145029195D01*
X69138261Y-145235430D01*
X69138258Y-145235439D01*
X69079366Y-145455230D01*
X69079364Y-145455241D01*
X69059532Y-145681926D01*
X69059532Y-145681929D01*
X69079364Y-145908614D01*
X69079366Y-145908625D01*
X69138258Y-146128416D01*
X69138261Y-146128425D01*
X69234431Y-146334660D01*
X69234432Y-146334662D01*
X69364954Y-146521069D01*
X69525858Y-146681973D01*
X69525861Y-146681975D01*
X69712266Y-146812496D01*
X69770275Y-146839546D01*
X69822714Y-146885719D01*
X69841866Y-146952912D01*
X69821650Y-147019793D01*
X69770275Y-147064310D01*
X69712267Y-147091359D01*
X69712265Y-147091360D01*
X69525858Y-147221882D01*
X69364954Y-147382786D01*
X69234432Y-147569193D01*
X69234431Y-147569195D01*
X69138261Y-147775430D01*
X69138258Y-147775439D01*
X69079366Y-147995230D01*
X69079364Y-147995241D01*
X69059532Y-148221926D01*
X69059532Y-148221929D01*
X69079364Y-148448614D01*
X69079366Y-148448625D01*
X69138258Y-148668416D01*
X69138261Y-148668425D01*
X69234431Y-148874660D01*
X69234432Y-148874662D01*
X69364954Y-149061069D01*
X69525858Y-149221973D01*
X69525861Y-149221975D01*
X69712266Y-149352496D01*
X69770275Y-149379546D01*
X69822714Y-149425719D01*
X69841866Y-149492912D01*
X69821650Y-149559793D01*
X69770275Y-149604310D01*
X69712267Y-149631359D01*
X69712265Y-149631360D01*
X69525858Y-149761882D01*
X69364954Y-149922786D01*
X69234432Y-150109193D01*
X69234431Y-150109195D01*
X69138261Y-150315430D01*
X69138258Y-150315439D01*
X69079366Y-150535230D01*
X69079364Y-150535241D01*
X69059532Y-150761926D01*
X69059532Y-150761929D01*
X69079364Y-150988614D01*
X69079366Y-150988625D01*
X69138258Y-151208416D01*
X69138261Y-151208425D01*
X69234431Y-151414660D01*
X69234432Y-151414662D01*
X69364954Y-151601069D01*
X69525858Y-151761973D01*
X69525861Y-151761975D01*
X69712266Y-151892496D01*
X69770275Y-151919546D01*
X69822714Y-151965719D01*
X69841866Y-152032912D01*
X69821650Y-152099793D01*
X69770275Y-152144310D01*
X69712267Y-152171359D01*
X69712265Y-152171360D01*
X69525858Y-152301882D01*
X69364954Y-152462786D01*
X69234432Y-152649193D01*
X69234431Y-152649195D01*
X69138261Y-152855430D01*
X69138258Y-152855439D01*
X69079366Y-153075230D01*
X69079364Y-153075241D01*
X69059532Y-153301926D01*
X69059532Y-153301929D01*
X69079364Y-153528614D01*
X69079366Y-153528625D01*
X69138258Y-153748416D01*
X69138261Y-153748425D01*
X69234431Y-153954660D01*
X69234432Y-153954662D01*
X69364954Y-154141069D01*
X69525858Y-154301973D01*
X69525861Y-154301975D01*
X69712266Y-154432496D01*
X69918504Y-154528667D01*
X70138308Y-154587563D01*
X70300230Y-154601729D01*
X70364998Y-154607396D01*
X70365000Y-154607396D01*
X70365002Y-154607396D01*
X70421673Y-154602437D01*
X70591692Y-154587563D01*
X70811496Y-154528667D01*
X71017734Y-154432496D01*
X71204139Y-154301975D01*
X71365047Y-154141067D01*
X71495568Y-153954662D01*
X71591739Y-153748424D01*
X71650635Y-153528620D01*
X71670468Y-153301928D01*
X71650635Y-153075236D01*
X71591739Y-152855432D01*
X71495568Y-152649194D01*
X71365047Y-152462789D01*
X71365045Y-152462786D01*
X71204141Y-152301882D01*
X71017734Y-152171360D01*
X71017728Y-152171357D01*
X70959725Y-152144310D01*
X70907285Y-152098138D01*
X70888133Y-152030945D01*
X70908348Y-151964063D01*
X70959725Y-151919546D01*
X71017734Y-151892496D01*
X71204139Y-151761975D01*
X71365047Y-151601067D01*
X71495568Y-151414662D01*
X71591739Y-151208424D01*
X71650635Y-150988620D01*
X71670468Y-150761928D01*
X71650635Y-150535236D01*
X71591739Y-150315432D01*
X71495568Y-150109194D01*
X71397839Y-149969621D01*
X71365045Y-149922786D01*
X71204141Y-149761882D01*
X71017734Y-149631360D01*
X71017728Y-149631357D01*
X70959725Y-149604310D01*
X70907285Y-149558138D01*
X70888133Y-149490945D01*
X70908348Y-149424063D01*
X70959725Y-149379546D01*
X71017734Y-149352496D01*
X71204139Y-149221975D01*
X71365047Y-149061067D01*
X71495568Y-148874662D01*
X71591739Y-148668424D01*
X71650635Y-148448620D01*
X71670468Y-148221928D01*
X71650635Y-147995236D01*
X71591739Y-147775432D01*
X71495568Y-147569194D01*
X71365047Y-147382789D01*
X71365045Y-147382786D01*
X71204141Y-147221882D01*
X71017734Y-147091360D01*
X71017728Y-147091357D01*
X70959725Y-147064310D01*
X70907285Y-147018138D01*
X70888133Y-146950945D01*
X70908348Y-146884063D01*
X70959725Y-146839546D01*
X71017734Y-146812496D01*
X71204139Y-146681975D01*
X71365047Y-146521067D01*
X71495568Y-146334662D01*
X71591739Y-146128424D01*
X71650635Y-145908620D01*
X71670468Y-145681928D01*
X71650635Y-145455236D01*
X71591739Y-145235432D01*
X71495568Y-145029194D01*
X71365047Y-144842789D01*
X71365045Y-144842786D01*
X71204141Y-144681882D01*
X71017734Y-144551360D01*
X71017728Y-144551357D01*
X70959725Y-144524310D01*
X70907285Y-144478138D01*
X70888133Y-144410945D01*
X70908348Y-144344063D01*
X70959725Y-144299546D01*
X71017734Y-144272496D01*
X71204139Y-144141975D01*
X71365047Y-143981067D01*
X71495568Y-143794662D01*
X71591739Y-143588424D01*
X71650635Y-143368620D01*
X71670468Y-143141928D01*
X71650635Y-142915236D01*
X71591739Y-142695432D01*
X71495568Y-142489194D01*
X71397839Y-142349621D01*
X71365045Y-142302786D01*
X71204141Y-142141882D01*
X71017734Y-142011360D01*
X71017728Y-142011357D01*
X70959725Y-141984310D01*
X70907285Y-141938138D01*
X70888133Y-141870945D01*
X70908348Y-141804063D01*
X70959725Y-141759546D01*
X71017734Y-141732496D01*
X71204139Y-141601975D01*
X71365047Y-141441067D01*
X71495568Y-141254662D01*
X71591739Y-141048424D01*
X71650635Y-140828620D01*
X71670468Y-140601928D01*
X71650635Y-140375236D01*
X71591739Y-140155432D01*
X71495568Y-139949194D01*
X71365047Y-139762789D01*
X71365045Y-139762786D01*
X71204141Y-139601882D01*
X71017734Y-139471360D01*
X71017728Y-139471357D01*
X70960422Y-139444635D01*
X70959724Y-139444309D01*
X70907285Y-139398138D01*
X70888133Y-139330945D01*
X70908348Y-139264063D01*
X70959725Y-139219546D01*
X71017734Y-139192496D01*
X71204139Y-139061975D01*
X71365047Y-138901067D01*
X71495568Y-138714662D01*
X71591739Y-138508424D01*
X71650635Y-138288620D01*
X71670468Y-138061928D01*
X71650635Y-137835236D01*
X71591739Y-137615432D01*
X71495568Y-137409194D01*
X71365047Y-137222789D01*
X71365045Y-137222786D01*
X71204141Y-137061882D01*
X71017734Y-136931360D01*
X71017728Y-136931357D01*
X70959725Y-136904310D01*
X70907285Y-136858138D01*
X70888133Y-136790945D01*
X70908348Y-136724063D01*
X70959725Y-136679546D01*
X71017734Y-136652496D01*
X71204139Y-136521975D01*
X71365047Y-136361067D01*
X71495568Y-136174662D01*
X71591739Y-135968424D01*
X71650635Y-135748620D01*
X71670468Y-135521928D01*
X71650635Y-135295236D01*
X71591739Y-135075432D01*
X71495568Y-134869194D01*
X71365047Y-134682789D01*
X71365045Y-134682786D01*
X71204141Y-134521882D01*
X71017734Y-134391360D01*
X71017728Y-134391357D01*
X70959725Y-134364310D01*
X70907285Y-134318138D01*
X70888133Y-134250945D01*
X70908348Y-134184063D01*
X70959725Y-134139546D01*
X71017734Y-134112496D01*
X71204139Y-133981975D01*
X71365047Y-133821067D01*
X71495568Y-133634662D01*
X71591739Y-133428424D01*
X71650635Y-133208620D01*
X71670468Y-132981928D01*
X71650635Y-132755236D01*
X71591739Y-132535432D01*
X71495568Y-132329194D01*
X71365047Y-132142789D01*
X71365045Y-132142786D01*
X71204141Y-131981882D01*
X71017734Y-131851360D01*
X71017728Y-131851357D01*
X70959725Y-131824310D01*
X70907285Y-131778138D01*
X70888133Y-131710945D01*
X70908348Y-131644063D01*
X70959725Y-131599546D01*
X71017734Y-131572496D01*
X71204139Y-131441975D01*
X71365047Y-131281067D01*
X71495568Y-131094662D01*
X71591739Y-130888424D01*
X71650635Y-130668620D01*
X71670468Y-130441928D01*
X71650635Y-130215236D01*
X71591739Y-129995432D01*
X71495568Y-129789194D01*
X71365047Y-129602789D01*
X71365045Y-129602786D01*
X71204141Y-129441882D01*
X71017734Y-129311360D01*
X71017728Y-129311357D01*
X70959725Y-129284310D01*
X70907285Y-129238138D01*
X70888133Y-129170945D01*
X70908348Y-129104063D01*
X70959725Y-129059546D01*
X71017734Y-129032496D01*
X71204139Y-128901975D01*
X71365047Y-128741067D01*
X71495568Y-128554662D01*
X71591739Y-128348424D01*
X71650635Y-128128620D01*
X71670468Y-127901928D01*
X71668589Y-127880456D01*
X71660717Y-127790476D01*
X71650635Y-127675236D01*
X71595037Y-127467739D01*
X71591741Y-127455439D01*
X71591738Y-127455430D01*
X71565014Y-127398121D01*
X71495568Y-127249194D01*
X71380301Y-127084574D01*
X71365045Y-127062786D01*
X71204141Y-126901882D01*
X71017734Y-126771360D01*
X71017728Y-126771357D01*
X70959725Y-126744310D01*
X70907285Y-126698138D01*
X70888133Y-126630945D01*
X70908348Y-126564063D01*
X70959725Y-126519546D01*
X71017734Y-126492496D01*
X71204139Y-126361975D01*
X71365047Y-126201067D01*
X71495568Y-126014662D01*
X71591739Y-125808424D01*
X71650635Y-125588620D01*
X71670468Y-125361928D01*
X71670468Y-125361926D01*
X94459532Y-125361926D01*
X94459532Y-125361929D01*
X94479364Y-125588614D01*
X94479366Y-125588625D01*
X94538258Y-125808416D01*
X94538261Y-125808425D01*
X94634431Y-126014660D01*
X94634432Y-126014662D01*
X94764954Y-126201069D01*
X94925858Y-126361973D01*
X94925861Y-126361975D01*
X95112266Y-126492496D01*
X95170275Y-126519546D01*
X95222714Y-126565719D01*
X95241866Y-126632912D01*
X95221650Y-126699793D01*
X95170275Y-126744310D01*
X95112267Y-126771359D01*
X95112265Y-126771360D01*
X94925858Y-126901882D01*
X94764954Y-127062786D01*
X94634432Y-127249193D01*
X94634431Y-127249195D01*
X94538261Y-127455430D01*
X94538258Y-127455439D01*
X94479366Y-127675230D01*
X94479364Y-127675241D01*
X94459532Y-127901926D01*
X94459532Y-127901929D01*
X94479364Y-128128614D01*
X94479366Y-128128625D01*
X94538258Y-128348416D01*
X94538261Y-128348425D01*
X94634431Y-128554660D01*
X94634432Y-128554662D01*
X94764954Y-128741069D01*
X94925858Y-128901973D01*
X94925861Y-128901975D01*
X95112266Y-129032496D01*
X95170275Y-129059546D01*
X95222714Y-129105719D01*
X95241866Y-129172912D01*
X95221650Y-129239793D01*
X95170275Y-129284310D01*
X95112267Y-129311359D01*
X95112265Y-129311360D01*
X94925858Y-129441882D01*
X94764954Y-129602786D01*
X94634432Y-129789193D01*
X94634431Y-129789195D01*
X94538261Y-129995430D01*
X94538258Y-129995439D01*
X94479366Y-130215230D01*
X94479364Y-130215241D01*
X94459532Y-130441926D01*
X94459532Y-130441929D01*
X94479364Y-130668614D01*
X94479366Y-130668625D01*
X94538258Y-130888416D01*
X94538261Y-130888425D01*
X94634431Y-131094660D01*
X94634432Y-131094662D01*
X94764954Y-131281069D01*
X94925858Y-131441973D01*
X94925861Y-131441975D01*
X95112266Y-131572496D01*
X95170275Y-131599546D01*
X95222714Y-131645719D01*
X95241866Y-131712912D01*
X95221650Y-131779793D01*
X95170275Y-131824310D01*
X95112267Y-131851359D01*
X95112265Y-131851360D01*
X94925858Y-131981882D01*
X94764954Y-132142786D01*
X94634432Y-132329193D01*
X94634431Y-132329195D01*
X94538261Y-132535430D01*
X94538258Y-132535439D01*
X94479366Y-132755230D01*
X94479364Y-132755241D01*
X94459532Y-132981926D01*
X94459532Y-132981929D01*
X94479364Y-133208614D01*
X94479366Y-133208625D01*
X94538258Y-133428416D01*
X94538261Y-133428425D01*
X94634431Y-133634660D01*
X94634432Y-133634662D01*
X94764954Y-133821069D01*
X94925858Y-133981973D01*
X94925861Y-133981975D01*
X95112266Y-134112496D01*
X95170275Y-134139546D01*
X95222714Y-134185719D01*
X95241866Y-134252912D01*
X95221650Y-134319793D01*
X95170275Y-134364310D01*
X95112267Y-134391359D01*
X95112265Y-134391360D01*
X94925858Y-134521882D01*
X94764954Y-134682786D01*
X94634432Y-134869193D01*
X94634431Y-134869195D01*
X94538261Y-135075430D01*
X94538258Y-135075439D01*
X94479366Y-135295230D01*
X94479364Y-135295241D01*
X94459532Y-135521926D01*
X94459532Y-135521929D01*
X94479364Y-135748614D01*
X94479366Y-135748625D01*
X94538258Y-135968416D01*
X94538261Y-135968425D01*
X94634431Y-136174660D01*
X94634432Y-136174662D01*
X94764954Y-136361069D01*
X94925858Y-136521973D01*
X94925861Y-136521975D01*
X95112266Y-136652496D01*
X95318504Y-136748667D01*
X95538308Y-136807563D01*
X95700230Y-136821729D01*
X95764998Y-136827396D01*
X95765000Y-136827396D01*
X95765002Y-136827396D01*
X95821673Y-136822437D01*
X95991692Y-136807563D01*
X96211496Y-136748667D01*
X96417734Y-136652496D01*
X96604139Y-136521975D01*
X96765047Y-136361067D01*
X96895568Y-136174662D01*
X96991739Y-135968424D01*
X97050635Y-135748620D01*
X97070468Y-135521928D01*
X97050635Y-135295236D01*
X96991739Y-135075432D01*
X96895568Y-134869194D01*
X96765047Y-134682789D01*
X96765045Y-134682786D01*
X96604141Y-134521882D01*
X96417734Y-134391360D01*
X96417728Y-134391357D01*
X96359725Y-134364310D01*
X96307285Y-134318138D01*
X96288133Y-134250945D01*
X96308348Y-134184063D01*
X96359725Y-134139546D01*
X96417734Y-134112496D01*
X96604139Y-133981975D01*
X96765047Y-133821067D01*
X96895568Y-133634662D01*
X96991739Y-133428424D01*
X97050635Y-133208620D01*
X97070468Y-132981928D01*
X97050635Y-132755236D01*
X96991739Y-132535432D01*
X96895568Y-132329194D01*
X96765047Y-132142789D01*
X96765045Y-132142786D01*
X96604141Y-131981882D01*
X96417734Y-131851360D01*
X96417728Y-131851357D01*
X96359725Y-131824310D01*
X96307285Y-131778138D01*
X96288133Y-131710945D01*
X96308348Y-131644063D01*
X96359725Y-131599546D01*
X96417734Y-131572496D01*
X96604139Y-131441975D01*
X96765047Y-131281067D01*
X96895568Y-131094662D01*
X96991739Y-130888424D01*
X97050635Y-130668620D01*
X97070468Y-130441928D01*
X97050635Y-130215236D01*
X96991739Y-129995432D01*
X96895568Y-129789194D01*
X96765047Y-129602789D01*
X96765045Y-129602786D01*
X96604141Y-129441882D01*
X96417734Y-129311360D01*
X96417728Y-129311357D01*
X96359725Y-129284310D01*
X96307285Y-129238138D01*
X96288133Y-129170945D01*
X96308348Y-129104063D01*
X96359725Y-129059546D01*
X96417734Y-129032496D01*
X96604139Y-128901975D01*
X96765047Y-128741067D01*
X96895568Y-128554662D01*
X96991739Y-128348424D01*
X97050635Y-128128620D01*
X97070468Y-127901928D01*
X97068589Y-127880456D01*
X97060717Y-127790476D01*
X97050635Y-127675236D01*
X96995037Y-127467739D01*
X96991741Y-127455439D01*
X96991738Y-127455430D01*
X96965014Y-127398121D01*
X96895568Y-127249194D01*
X96780301Y-127084574D01*
X96765045Y-127062786D01*
X96604141Y-126901882D01*
X96417734Y-126771360D01*
X96417728Y-126771357D01*
X96359725Y-126744310D01*
X96307285Y-126698138D01*
X96288133Y-126630945D01*
X96308348Y-126564063D01*
X96359725Y-126519546D01*
X96417734Y-126492496D01*
X96604139Y-126361975D01*
X96765047Y-126201067D01*
X96895568Y-126014662D01*
X96991739Y-125808424D01*
X97050635Y-125588620D01*
X97070468Y-125361928D01*
X97050635Y-125135236D01*
X96991851Y-124915849D01*
X96991741Y-124915439D01*
X96991738Y-124915430D01*
X96990556Y-124912895D01*
X96895568Y-124709194D01*
X96765047Y-124522789D01*
X96765045Y-124522786D01*
X96604141Y-124361882D01*
X96417734Y-124231360D01*
X96417732Y-124231359D01*
X96211497Y-124135189D01*
X96211488Y-124135186D01*
X95991697Y-124076294D01*
X95991693Y-124076293D01*
X95991692Y-124076293D01*
X95991691Y-124076292D01*
X95991686Y-124076292D01*
X95765002Y-124056460D01*
X95764998Y-124056460D01*
X95538313Y-124076292D01*
X95538302Y-124076294D01*
X95318511Y-124135186D01*
X95318502Y-124135189D01*
X95112267Y-124231359D01*
X95112265Y-124231360D01*
X94925858Y-124361882D01*
X94764954Y-124522786D01*
X94634432Y-124709193D01*
X94634431Y-124709195D01*
X94538261Y-124915430D01*
X94538258Y-124915439D01*
X94479366Y-125135230D01*
X94479364Y-125135241D01*
X94459532Y-125361926D01*
X71670468Y-125361926D01*
X71650635Y-125135236D01*
X71591851Y-124915849D01*
X71591741Y-124915439D01*
X71591738Y-124915430D01*
X71590556Y-124912895D01*
X71495568Y-124709194D01*
X71365047Y-124522789D01*
X71365045Y-124522786D01*
X71204143Y-124361884D01*
X71179536Y-124344654D01*
X71135912Y-124290077D01*
X71128719Y-124220578D01*
X71160241Y-124158224D01*
X71220471Y-124122810D01*
X71237404Y-124119789D01*
X71272483Y-124116019D01*
X71407331Y-124065724D01*
X71522546Y-123979474D01*
X71608796Y-123864259D01*
X71659091Y-123729411D01*
X71665500Y-123669801D01*
X71665499Y-121974056D01*
X71659091Y-121914445D01*
X71608796Y-121779597D01*
X71608795Y-121779596D01*
X71608793Y-121779592D01*
X71522547Y-121664383D01*
X71522544Y-121664380D01*
X71407335Y-121578134D01*
X71407328Y-121578130D01*
X71272482Y-121527836D01*
X71272483Y-121527836D01*
X71212883Y-121521429D01*
X71212881Y-121521428D01*
X71212873Y-121521428D01*
X71212864Y-121521428D01*
X69517129Y-121521428D01*
X69517123Y-121521429D01*
X69457516Y-121527836D01*
X69322671Y-121578130D01*
X69322664Y-121578134D01*
X69207455Y-121664380D01*
X69207452Y-121664383D01*
X69121206Y-121779592D01*
X69121202Y-121779599D01*
X69070908Y-121914445D01*
X69064501Y-121974044D01*
X69064501Y-121974051D01*
X69064500Y-121974063D01*
X69064500Y-123669798D01*
X69064501Y-123669804D01*
X69070908Y-123729411D01*
X69121202Y-123864256D01*
X69121206Y-123864263D01*
X69207452Y-123979472D01*
X69207455Y-123979475D01*
X69322664Y-124065721D01*
X69322671Y-124065725D01*
X69367618Y-124082489D01*
X69457517Y-124116019D01*
X69492596Y-124119790D01*
X69557144Y-124146527D01*
X69596993Y-124203919D01*
X69599488Y-124273744D01*
X69563836Y-124333833D01*
X69550464Y-124344653D01*
X69525858Y-124361882D01*
X69364954Y-124522786D01*
X69234432Y-124709193D01*
X69234431Y-124709195D01*
X69138261Y-124915430D01*
X69138258Y-124915439D01*
X69079366Y-125135230D01*
X69079364Y-125135241D01*
X69059532Y-125361926D01*
X69059532Y-125361929D01*
X69079364Y-125588614D01*
X69079366Y-125588625D01*
X69138258Y-125808416D01*
X69138261Y-125808425D01*
X69234431Y-126014660D01*
X69234432Y-126014662D01*
X69364954Y-126201069D01*
X69525858Y-126361973D01*
X69525861Y-126361975D01*
X69712266Y-126492496D01*
X69770275Y-126519546D01*
X69822714Y-126565719D01*
X69841866Y-126632912D01*
X69821650Y-126699793D01*
X69770275Y-126744310D01*
X69712267Y-126771359D01*
X69712265Y-126771360D01*
X69525858Y-126901882D01*
X69364954Y-127062786D01*
X69234432Y-127249193D01*
X69234431Y-127249195D01*
X69138261Y-127455430D01*
X69138258Y-127455439D01*
X69079366Y-127675230D01*
X69079364Y-127675241D01*
X69059532Y-127901926D01*
X69059532Y-127901929D01*
X69079364Y-128128614D01*
X69079366Y-128128625D01*
X69138258Y-128348416D01*
X69138261Y-128348425D01*
X69234431Y-128554660D01*
X69234432Y-128554662D01*
X69364954Y-128741069D01*
X69525858Y-128901973D01*
X69525861Y-128901975D01*
X69712266Y-129032496D01*
X69770275Y-129059546D01*
X69822714Y-129105719D01*
X69841866Y-129172912D01*
X69821650Y-129239793D01*
X69770275Y-129284310D01*
X69712267Y-129311359D01*
X69712265Y-129311360D01*
X69525858Y-129441882D01*
X69364954Y-129602786D01*
X69234432Y-129789193D01*
X69234431Y-129789195D01*
X69138261Y-129995430D01*
X69138258Y-129995439D01*
X69079366Y-130215230D01*
X69079364Y-130215241D01*
X69059532Y-130441926D01*
X69059532Y-130441929D01*
X69079364Y-130668614D01*
X69079366Y-130668625D01*
X69138258Y-130888416D01*
X69138261Y-130888425D01*
X69234431Y-131094660D01*
X69234432Y-131094662D01*
X69364954Y-131281069D01*
X69525858Y-131441973D01*
X69525861Y-131441975D01*
X69712266Y-131572496D01*
X69770275Y-131599546D01*
X69822714Y-131645719D01*
X69841866Y-131712912D01*
X69821650Y-131779793D01*
X69770275Y-131824310D01*
X69712267Y-131851359D01*
X69712265Y-131851360D01*
X69525858Y-131981882D01*
X69364954Y-132142786D01*
X69234432Y-132329193D01*
X69234431Y-132329195D01*
X69138261Y-132535430D01*
X69138258Y-132535439D01*
X69079366Y-132755230D01*
X69079364Y-132755241D01*
X69059532Y-132981926D01*
X69059532Y-132981929D01*
X69079364Y-133208614D01*
X69079366Y-133208625D01*
X69138258Y-133428416D01*
X69138261Y-133428425D01*
X69234431Y-133634660D01*
X69234432Y-133634662D01*
X69364954Y-133821069D01*
X69525858Y-133981973D01*
X69525861Y-133981975D01*
X69712266Y-134112496D01*
X69770275Y-134139546D01*
X69822714Y-134185719D01*
X69841866Y-134252912D01*
X69821650Y-134319793D01*
X69770275Y-134364310D01*
X69712267Y-134391359D01*
X69712265Y-134391360D01*
X69525858Y-134521882D01*
X69364954Y-134682786D01*
X69234432Y-134869193D01*
X69234431Y-134869195D01*
X69138261Y-135075430D01*
X69138258Y-135075439D01*
X69079366Y-135295230D01*
X69079364Y-135295241D01*
X69059532Y-135521926D01*
X69059532Y-135521929D01*
X69079364Y-135748614D01*
X69079366Y-135748625D01*
X69138258Y-135968416D01*
X69138261Y-135968425D01*
X69234431Y-136174660D01*
X69234432Y-136174662D01*
X69364954Y-136361069D01*
X69525858Y-136521973D01*
X69525861Y-136521975D01*
X69712266Y-136652496D01*
X69770275Y-136679546D01*
X69822714Y-136725719D01*
X69841866Y-136792912D01*
X69821650Y-136859793D01*
X69770275Y-136904310D01*
X69712267Y-136931359D01*
X69712265Y-136931360D01*
X69525858Y-137061882D01*
X69364954Y-137222786D01*
X69234432Y-137409193D01*
X69234431Y-137409195D01*
X69138261Y-137615430D01*
X69138258Y-137615439D01*
X69079366Y-137835230D01*
X69079364Y-137835241D01*
X69059532Y-138061926D01*
X69059532Y-138061929D01*
X69079364Y-138288614D01*
X69079366Y-138288625D01*
X69138258Y-138508416D01*
X69138261Y-138508425D01*
X69234431Y-138714660D01*
X69234432Y-138714662D01*
X69364954Y-138901069D01*
X69525858Y-139061973D01*
X69525861Y-139061975D01*
X69712266Y-139192496D01*
X69770275Y-139219546D01*
X69822714Y-139265719D01*
X69841866Y-139332912D01*
X69821650Y-139399793D01*
X69770275Y-139444309D01*
X69769578Y-139444635D01*
X69712267Y-139471359D01*
X69712265Y-139471360D01*
X69525858Y-139601882D01*
X69364954Y-139762786D01*
X69234432Y-139949193D01*
X69234431Y-139949195D01*
X69138261Y-140155430D01*
X69138258Y-140155439D01*
X69079366Y-140375230D01*
X69079364Y-140375241D01*
X69059532Y-140601926D01*
X69059532Y-140601929D01*
X69079364Y-140828614D01*
X69079366Y-140828625D01*
X69135737Y-141039008D01*
X69134074Y-141108858D01*
X69094911Y-141166720D01*
X69063412Y-141185663D01*
X69035478Y-141197233D01*
X69028984Y-141199712D01*
X68972309Y-141219543D01*
X68963154Y-141225296D01*
X68944651Y-141234856D01*
X68944508Y-141234914D01*
X68944503Y-141234917D01*
X68893253Y-141269160D01*
X68890339Y-141271049D01*
X68829111Y-141309522D01*
X68829110Y-141309523D01*
X68821587Y-141317045D01*
X68821586Y-141317045D01*
X67592951Y-142545681D01*
X67531628Y-142579166D01*
X67505270Y-142582000D01*
X66222351Y-142582000D01*
X66155312Y-142562315D01*
X66109557Y-142509511D01*
X66099061Y-142471252D01*
X66094091Y-142425016D01*
X66043797Y-142290171D01*
X66043793Y-142290164D01*
X65957547Y-142174955D01*
X65957544Y-142174952D01*
X65842335Y-142088706D01*
X65842328Y-142088702D01*
X65707482Y-142038408D01*
X65707483Y-142038408D01*
X65647883Y-142032001D01*
X65647881Y-142032000D01*
X65647873Y-142032000D01*
X65647864Y-142032000D01*
X63952129Y-142032000D01*
X63952123Y-142032001D01*
X63892516Y-142038408D01*
X63757671Y-142088702D01*
X63757664Y-142088706D01*
X63642455Y-142174952D01*
X63642452Y-142174955D01*
X63556206Y-142290164D01*
X63556202Y-142290171D01*
X63505908Y-142425016D01*
X63502137Y-142460096D01*
X63475398Y-142524646D01*
X63418006Y-142564494D01*
X63348180Y-142566987D01*
X63288092Y-142531334D01*
X63277273Y-142517962D01*
X63260045Y-142493358D01*
X63099141Y-142332454D01*
X62912734Y-142201932D01*
X62912732Y-142201931D01*
X62706497Y-142105761D01*
X62706488Y-142105758D01*
X62486697Y-142046866D01*
X62486693Y-142046865D01*
X62486692Y-142046865D01*
X62486691Y-142046864D01*
X62486686Y-142046864D01*
X62260002Y-142027032D01*
X62259998Y-142027032D01*
X62033313Y-142046864D01*
X62033302Y-142046866D01*
X61813511Y-142105758D01*
X61813502Y-142105761D01*
X61607267Y-142201931D01*
X61607265Y-142201932D01*
X61420858Y-142332454D01*
X61259954Y-142493358D01*
X61129432Y-142679765D01*
X61129431Y-142679767D01*
X61110310Y-142720772D01*
X61103764Y-142734812D01*
X61102382Y-142737775D01*
X61056209Y-142790214D01*
X60989016Y-142809366D01*
X60922135Y-142789150D01*
X60877618Y-142737775D01*
X60876237Y-142734814D01*
X60850568Y-142679766D01*
X60720047Y-142493361D01*
X60720045Y-142493358D01*
X60559141Y-142332454D01*
X60372734Y-142201932D01*
X60372732Y-142201931D01*
X60166497Y-142105761D01*
X60166488Y-142105758D01*
X59946697Y-142046866D01*
X59946693Y-142046865D01*
X59946692Y-142046865D01*
X59946691Y-142046864D01*
X59946686Y-142046864D01*
X59720002Y-142027032D01*
X59719998Y-142027032D01*
X59493313Y-142046864D01*
X59493302Y-142046866D01*
X59273511Y-142105758D01*
X59273502Y-142105761D01*
X59067267Y-142201931D01*
X59067265Y-142201932D01*
X58880858Y-142332454D01*
X58719954Y-142493358D01*
X58589432Y-142679765D01*
X58589431Y-142679767D01*
X58570310Y-142720772D01*
X58563764Y-142734812D01*
X58562382Y-142737775D01*
X58516209Y-142790214D01*
X58449016Y-142809366D01*
X58382135Y-142789150D01*
X58337618Y-142737775D01*
X58336237Y-142734814D01*
X58310568Y-142679766D01*
X58180047Y-142493361D01*
X58180045Y-142493358D01*
X58019141Y-142332454D01*
X57832734Y-142201932D01*
X57832732Y-142201931D01*
X57626497Y-142105761D01*
X57626488Y-142105758D01*
X57406697Y-142046866D01*
X57406693Y-142046865D01*
X57406692Y-142046865D01*
X57406691Y-142046864D01*
X57406686Y-142046864D01*
X57180002Y-142027032D01*
X57179998Y-142027032D01*
X56953313Y-142046864D01*
X56953302Y-142046866D01*
X56733511Y-142105758D01*
X56733502Y-142105761D01*
X56527267Y-142201931D01*
X56527265Y-142201932D01*
X56340858Y-142332454D01*
X56179954Y-142493358D01*
X56049432Y-142679765D01*
X56049431Y-142679767D01*
X56030310Y-142720772D01*
X56023764Y-142734812D01*
X56022382Y-142737775D01*
X55976209Y-142790214D01*
X55909016Y-142809366D01*
X55842135Y-142789150D01*
X55797618Y-142737775D01*
X55796237Y-142734814D01*
X55770568Y-142679766D01*
X55640047Y-142493361D01*
X55640045Y-142493358D01*
X55479141Y-142332454D01*
X55292734Y-142201932D01*
X55292732Y-142201931D01*
X55086497Y-142105761D01*
X55086488Y-142105758D01*
X54866697Y-142046866D01*
X54866693Y-142046865D01*
X54866692Y-142046865D01*
X54866691Y-142046864D01*
X54866686Y-142046864D01*
X54640002Y-142027032D01*
X54639998Y-142027032D01*
X54413313Y-142046864D01*
X54413302Y-142046866D01*
X54193511Y-142105758D01*
X54193502Y-142105761D01*
X53987267Y-142201931D01*
X53987265Y-142201932D01*
X53800858Y-142332454D01*
X53639954Y-142493358D01*
X53509432Y-142679765D01*
X53509431Y-142679767D01*
X53490310Y-142720772D01*
X53483764Y-142734812D01*
X53482382Y-142737775D01*
X53436209Y-142790214D01*
X53369016Y-142809366D01*
X53302135Y-142789150D01*
X53257618Y-142737775D01*
X53256237Y-142734814D01*
X53230568Y-142679766D01*
X53100047Y-142493361D01*
X53100045Y-142493358D01*
X52939141Y-142332454D01*
X52752734Y-142201932D01*
X52752732Y-142201931D01*
X52546497Y-142105761D01*
X52546488Y-142105758D01*
X52326697Y-142046866D01*
X52326693Y-142046865D01*
X52326692Y-142046865D01*
X52326691Y-142046864D01*
X52326686Y-142046864D01*
X52100002Y-142027032D01*
X52099998Y-142027032D01*
X51873313Y-142046864D01*
X51873302Y-142046866D01*
X51653511Y-142105758D01*
X51653502Y-142105761D01*
X51447267Y-142201931D01*
X51447265Y-142201932D01*
X51260858Y-142332454D01*
X51099954Y-142493358D01*
X50969432Y-142679765D01*
X50969431Y-142679767D01*
X50950310Y-142720772D01*
X50943764Y-142734812D01*
X50942382Y-142737775D01*
X50896209Y-142790214D01*
X50829016Y-142809366D01*
X50762135Y-142789150D01*
X50717618Y-142737775D01*
X50716237Y-142734814D01*
X50690568Y-142679766D01*
X50560047Y-142493361D01*
X50560045Y-142493358D01*
X50399141Y-142332454D01*
X50212734Y-142201932D01*
X50212732Y-142201931D01*
X50006497Y-142105761D01*
X50006488Y-142105758D01*
X49786697Y-142046866D01*
X49786693Y-142046865D01*
X49786692Y-142046865D01*
X49786691Y-142046864D01*
X49786686Y-142046864D01*
X49560002Y-142027032D01*
X49559998Y-142027032D01*
X49333313Y-142046864D01*
X49333302Y-142046866D01*
X49113511Y-142105758D01*
X49113502Y-142105761D01*
X48907267Y-142201931D01*
X48907265Y-142201932D01*
X48720858Y-142332454D01*
X48559954Y-142493358D01*
X48429432Y-142679765D01*
X48429431Y-142679767D01*
X48410310Y-142720772D01*
X48403764Y-142734812D01*
X48402382Y-142737775D01*
X48356209Y-142790214D01*
X48289016Y-142809366D01*
X48222135Y-142789150D01*
X48177618Y-142737775D01*
X48176237Y-142734814D01*
X48150568Y-142679766D01*
X48020047Y-142493361D01*
X48020045Y-142493358D01*
X47859141Y-142332454D01*
X47672734Y-142201932D01*
X47672732Y-142201931D01*
X47466497Y-142105761D01*
X47466488Y-142105758D01*
X47246697Y-142046866D01*
X47246693Y-142046865D01*
X47246692Y-142046865D01*
X47246691Y-142046864D01*
X47246686Y-142046864D01*
X47020002Y-142027032D01*
X47019998Y-142027032D01*
X46793313Y-142046864D01*
X46793302Y-142046866D01*
X46573511Y-142105758D01*
X46573502Y-142105761D01*
X46367267Y-142201931D01*
X46367265Y-142201932D01*
X46180858Y-142332454D01*
X46019954Y-142493358D01*
X45889432Y-142679765D01*
X45889431Y-142679767D01*
X45793261Y-142886002D01*
X45793258Y-142886011D01*
X45734366Y-143105802D01*
X45734364Y-143105813D01*
X45714532Y-143332498D01*
X35500500Y-143332498D01*
X35500500Y-140799983D01*
X38349500Y-140799983D01*
X38349500Y-142100001D01*
X38349501Y-142100018D01*
X38360000Y-142202796D01*
X38360001Y-142202799D01*
X38388953Y-142290169D01*
X38415186Y-142369334D01*
X38507288Y-142518656D01*
X38631344Y-142642712D01*
X38780666Y-142734814D01*
X38947203Y-142789999D01*
X39049991Y-142800500D01*
X40600008Y-142800499D01*
X40702797Y-142789999D01*
X40869334Y-142734814D01*
X41018656Y-142642712D01*
X41142712Y-142518656D01*
X41234814Y-142369334D01*
X41289999Y-142202797D01*
X41300500Y-142100009D01*
X41300499Y-140799992D01*
X41289999Y-140697203D01*
X41234814Y-140530666D01*
X41142712Y-140381344D01*
X41018656Y-140257288D01*
X40869334Y-140165186D01*
X40702797Y-140110001D01*
X40702795Y-140110000D01*
X40600010Y-140099500D01*
X39049998Y-140099500D01*
X39049981Y-140099501D01*
X38947203Y-140110000D01*
X38947200Y-140110001D01*
X38780668Y-140165185D01*
X38780663Y-140165187D01*
X38631342Y-140257289D01*
X38507289Y-140381342D01*
X38415187Y-140530663D01*
X38415185Y-140530668D01*
X38391573Y-140601926D01*
X38360001Y-140697203D01*
X38360001Y-140697204D01*
X38360000Y-140697204D01*
X38349500Y-140799983D01*
X35500500Y-140799983D01*
X35500500Y-134649983D01*
X37324500Y-134649983D01*
X37324500Y-135950001D01*
X37324501Y-135950018D01*
X37335000Y-136052796D01*
X37335001Y-136052799D01*
X37375382Y-136174660D01*
X37390186Y-136219334D01*
X37482288Y-136368656D01*
X37606344Y-136492712D01*
X37755666Y-136584814D01*
X37922203Y-136639999D01*
X38024991Y-136650500D01*
X39575008Y-136650499D01*
X39677797Y-136639999D01*
X39844334Y-136584814D01*
X39993656Y-136492712D01*
X40117712Y-136368656D01*
X40209814Y-136219334D01*
X40264999Y-136052797D01*
X40275500Y-135950009D01*
X40275499Y-134649992D01*
X40264999Y-134547203D01*
X40209814Y-134380666D01*
X40117712Y-134231344D01*
X39993656Y-134107288D01*
X39844334Y-134015186D01*
X39677797Y-133960001D01*
X39677795Y-133960000D01*
X39575010Y-133949500D01*
X38024998Y-133949500D01*
X38024981Y-133949501D01*
X37922203Y-133960000D01*
X37922200Y-133960001D01*
X37755668Y-134015185D01*
X37755663Y-134015187D01*
X37606342Y-134107289D01*
X37482289Y-134231342D01*
X37390187Y-134380663D01*
X37390185Y-134380668D01*
X37386642Y-134391360D01*
X37335001Y-134547203D01*
X37335001Y-134547204D01*
X37335000Y-134547204D01*
X37324500Y-134649983D01*
X35500500Y-134649983D01*
X35500500Y-127693713D01*
X37324500Y-127693713D01*
X37324500Y-127906287D01*
X37328045Y-127928671D01*
X37357753Y-128116239D01*
X37423444Y-128318414D01*
X37519951Y-128507820D01*
X37644890Y-128679786D01*
X37795209Y-128830105D01*
X37795214Y-128830109D01*
X37959793Y-128949682D01*
X38002459Y-129005011D01*
X38008438Y-129074625D01*
X37975833Y-129136420D01*
X37959793Y-129150318D01*
X37795214Y-129269890D01*
X37795209Y-129269894D01*
X37644890Y-129420213D01*
X37519951Y-129592179D01*
X37423444Y-129781585D01*
X37357753Y-129983760D01*
X37355181Y-130000000D01*
X37324500Y-130193713D01*
X37324500Y-130406287D01*
X37357754Y-130616243D01*
X37374772Y-130668620D01*
X37423444Y-130818414D01*
X37519951Y-131007820D01*
X37644890Y-131179786D01*
X37795213Y-131330109D01*
X37967179Y-131455048D01*
X37967181Y-131455049D01*
X37967184Y-131455051D01*
X38156588Y-131551557D01*
X38358757Y-131617246D01*
X38568713Y-131650500D01*
X38568714Y-131650500D01*
X39031286Y-131650500D01*
X39031287Y-131650500D01*
X39241243Y-131617246D01*
X39443412Y-131551557D01*
X39632816Y-131455051D01*
X39654789Y-131439086D01*
X39804786Y-131330109D01*
X39804788Y-131330106D01*
X39804792Y-131330104D01*
X39955104Y-131179792D01*
X39955106Y-131179788D01*
X39955109Y-131179786D01*
X40080048Y-131007820D01*
X40080047Y-131007820D01*
X40080051Y-131007816D01*
X40176557Y-130818412D01*
X40242246Y-130616243D01*
X40275500Y-130406287D01*
X40275500Y-130193713D01*
X40242246Y-129983757D01*
X40176557Y-129781588D01*
X40080051Y-129592184D01*
X40080049Y-129592181D01*
X40080048Y-129592179D01*
X39955109Y-129420213D01*
X39804792Y-129269896D01*
X39763358Y-129239793D01*
X39640204Y-129150316D01*
X39597540Y-129094989D01*
X39591561Y-129025376D01*
X39624166Y-128963580D01*
X39640199Y-128949686D01*
X39804792Y-128830104D01*
X39955104Y-128679792D01*
X39955106Y-128679788D01*
X39955109Y-128679786D01*
X40080048Y-128507820D01*
X40080047Y-128507820D01*
X40080051Y-128507816D01*
X40176557Y-128318412D01*
X40242246Y-128116243D01*
X40275500Y-127906287D01*
X40275500Y-127693713D01*
X40242246Y-127483757D01*
X40176557Y-127281588D01*
X40134984Y-127199997D01*
X51944751Y-127199997D01*
X51944751Y-127200000D01*
X51948720Y-127235223D01*
X51949500Y-127249108D01*
X51949500Y-127273916D01*
X51956739Y-127310312D01*
X51958341Y-127320616D01*
X51963687Y-127368059D01*
X51971330Y-127389902D01*
X51975904Y-127406659D01*
X51978342Y-127418913D01*
X51993471Y-127455439D01*
X51997235Y-127464525D01*
X51999708Y-127471003D01*
X52019543Y-127527687D01*
X52019546Y-127527694D01*
X52025295Y-127536844D01*
X52034851Y-127555340D01*
X52034912Y-127555488D01*
X52034916Y-127555495D01*
X52069169Y-127606760D01*
X52071054Y-127609669D01*
X52109523Y-127670890D01*
X52229110Y-127790477D01*
X52290338Y-127828949D01*
X52293247Y-127830834D01*
X52344505Y-127865084D01*
X52344648Y-127865143D01*
X52363162Y-127874708D01*
X52372310Y-127880456D01*
X52426332Y-127899358D01*
X52428979Y-127900285D01*
X52435477Y-127902766D01*
X52481087Y-127921658D01*
X52481095Y-127921660D01*
X52493332Y-127924094D01*
X52510101Y-127928671D01*
X52531938Y-127936312D01*
X52531941Y-127936313D01*
X52579398Y-127941659D01*
X52589689Y-127943260D01*
X52601926Y-127945694D01*
X52626081Y-127950500D01*
X52626082Y-127950500D01*
X52650890Y-127950500D01*
X52664774Y-127951280D01*
X52699998Y-127955249D01*
X52700000Y-127955249D01*
X52700002Y-127955249D01*
X52735226Y-127951280D01*
X52749110Y-127950500D01*
X54437770Y-127950500D01*
X54504809Y-127970185D01*
X54525451Y-127986819D01*
X54913181Y-128374548D01*
X54946666Y-128435871D01*
X54949500Y-128462229D01*
X54949500Y-132350890D01*
X54948720Y-132364774D01*
X54944751Y-132399997D01*
X54944751Y-132400000D01*
X54948720Y-132435223D01*
X54949500Y-132449108D01*
X54949500Y-132473916D01*
X54956739Y-132510312D01*
X54958340Y-132520614D01*
X54960011Y-132535439D01*
X54963687Y-132568059D01*
X54971330Y-132589902D01*
X54975906Y-132606665D01*
X54978341Y-132618910D01*
X54997235Y-132664525D01*
X54999708Y-132671003D01*
X55000368Y-132672888D01*
X55019543Y-132727687D01*
X55019546Y-132727694D01*
X55025295Y-132736844D01*
X55034851Y-132755340D01*
X55034912Y-132755488D01*
X55034916Y-132755495D01*
X55069169Y-132806760D01*
X55071054Y-132809669D01*
X55109523Y-132870890D01*
X55229110Y-132990477D01*
X55290338Y-133028949D01*
X55293247Y-133030834D01*
X55344505Y-133065084D01*
X55344648Y-133065143D01*
X55363162Y-133074708D01*
X55372310Y-133080456D01*
X55426332Y-133099358D01*
X55428979Y-133100285D01*
X55435477Y-133102766D01*
X55481087Y-133121658D01*
X55481095Y-133121660D01*
X55493332Y-133124094D01*
X55510101Y-133128671D01*
X55531938Y-133136312D01*
X55531941Y-133136313D01*
X55579398Y-133141659D01*
X55589689Y-133143260D01*
X55601926Y-133145694D01*
X55626081Y-133150500D01*
X55626082Y-133150500D01*
X55650890Y-133150500D01*
X55664774Y-133151280D01*
X55699998Y-133155249D01*
X55700000Y-133155249D01*
X55700002Y-133155249D01*
X55735226Y-133151280D01*
X55749110Y-133150500D01*
X55773918Y-133150500D01*
X55810317Y-133143259D01*
X55820596Y-133141660D01*
X55861620Y-133137038D01*
X55930440Y-133149094D01*
X55981819Y-133196444D01*
X55999500Y-133260259D01*
X55999500Y-137546306D01*
X55998821Y-137559266D01*
X55994540Y-137599999D01*
X55998821Y-137640731D01*
X55999500Y-137653692D01*
X55999500Y-137688695D01*
X56007637Y-137729602D01*
X56009341Y-137740831D01*
X56014325Y-137788253D01*
X56014325Y-137788254D01*
X56024904Y-137820811D01*
X56028590Y-137834938D01*
X56034104Y-137862662D01*
X56034105Y-137862664D01*
X56052644Y-137907423D01*
X56056012Y-137916554D01*
X56072819Y-137968279D01*
X56072822Y-137968286D01*
X56086569Y-137992097D01*
X56093742Y-138006643D01*
X56101984Y-138026542D01*
X56132634Y-138072413D01*
X56136912Y-138079294D01*
X56159506Y-138118427D01*
X56167468Y-138132218D01*
X56167469Y-138132219D01*
X56181357Y-138147643D01*
X56192307Y-138161721D01*
X56200534Y-138174033D01*
X56244274Y-138217773D01*
X56248744Y-138222483D01*
X56294129Y-138272888D01*
X56294131Y-138272890D01*
X56305467Y-138281126D01*
X56320263Y-138293763D01*
X56325961Y-138299461D01*
X56325965Y-138299464D01*
X56382994Y-138337570D01*
X56386966Y-138340338D01*
X56447270Y-138384151D01*
X56453902Y-138387104D01*
X56472361Y-138397283D01*
X56473453Y-138398013D01*
X56543042Y-138426836D01*
X56545987Y-138428102D01*
X56620197Y-138461144D01*
X56620668Y-138461244D01*
X56620696Y-138461250D01*
X56631370Y-138464562D01*
X56631503Y-138464125D01*
X56637330Y-138465892D01*
X56637334Y-138465894D01*
X56717816Y-138481902D01*
X56719282Y-138482204D01*
X56805354Y-138500500D01*
X56805355Y-138500500D01*
X56994645Y-138500500D01*
X56994646Y-138500500D01*
X57080746Y-138482198D01*
X57082180Y-138481902D01*
X57162666Y-138465894D01*
X57162669Y-138465892D01*
X57162672Y-138465892D01*
X57168496Y-138464126D01*
X57168631Y-138464573D01*
X57179315Y-138461247D01*
X57179803Y-138461144D01*
X57254057Y-138428082D01*
X57256955Y-138426837D01*
X57326547Y-138398013D01*
X57327633Y-138397287D01*
X57346095Y-138387104D01*
X57352730Y-138384151D01*
X57413054Y-138340322D01*
X57416952Y-138337605D01*
X57474035Y-138299464D01*
X57479739Y-138293758D01*
X57494531Y-138281126D01*
X57505871Y-138272888D01*
X57551274Y-138222461D01*
X57555687Y-138217810D01*
X57599464Y-138174035D01*
X57607687Y-138161727D01*
X57618642Y-138147643D01*
X57632531Y-138132218D01*
X57632530Y-138132218D01*
X57632533Y-138132216D01*
X57663091Y-138079284D01*
X57667368Y-138072408D01*
X57698012Y-138026548D01*
X57698013Y-138026547D01*
X57706259Y-138006637D01*
X57713433Y-137992091D01*
X57727177Y-137968287D01*
X57727178Y-137968286D01*
X57727179Y-137968284D01*
X57743995Y-137916528D01*
X57747355Y-137907423D01*
X57765894Y-137862666D01*
X57771411Y-137834927D01*
X57775094Y-137820813D01*
X57785674Y-137788256D01*
X57790656Y-137740837D01*
X57792361Y-137729604D01*
X57800500Y-137688695D01*
X57800500Y-137653692D01*
X57801179Y-137640731D01*
X57803837Y-137615439D01*
X57805460Y-137600000D01*
X57801179Y-137559266D01*
X57800500Y-137546306D01*
X57800500Y-127074500D01*
X57820185Y-127007461D01*
X57872989Y-126961706D01*
X57924500Y-126950500D01*
X57926082Y-126950500D01*
X57950890Y-126950500D01*
X57964774Y-126951280D01*
X57999998Y-126955249D01*
X58000000Y-126955249D01*
X58000002Y-126955249D01*
X58035226Y-126951280D01*
X58049110Y-126950500D01*
X62200890Y-126950500D01*
X62214774Y-126951280D01*
X62249998Y-126955249D01*
X62250000Y-126955249D01*
X62250002Y-126955249D01*
X62285226Y-126951280D01*
X62299110Y-126950500D01*
X62323918Y-126950500D01*
X62360317Y-126943259D01*
X62370599Y-126941659D01*
X62418059Y-126936313D01*
X62439911Y-126928665D01*
X62456660Y-126924094D01*
X62468913Y-126921658D01*
X62514531Y-126902762D01*
X62520988Y-126900295D01*
X62577690Y-126880456D01*
X62586836Y-126874708D01*
X62605365Y-126865138D01*
X62605415Y-126865116D01*
X62605495Y-126865084D01*
X62656780Y-126830815D01*
X62659618Y-126828975D01*
X62720890Y-126790477D01*
X62840477Y-126670890D01*
X62878975Y-126609618D01*
X62880821Y-126606772D01*
X62915084Y-126555495D01*
X62915138Y-126555365D01*
X62924708Y-126536836D01*
X62930456Y-126527690D01*
X62950295Y-126470988D01*
X62952762Y-126464531D01*
X62971655Y-126418920D01*
X62971654Y-126418920D01*
X62971658Y-126418913D01*
X62974094Y-126406660D01*
X62978665Y-126389911D01*
X62986313Y-126368059D01*
X62991659Y-126320599D01*
X62993259Y-126310317D01*
X63000500Y-126273918D01*
X63000500Y-126249108D01*
X63001280Y-126235223D01*
X63005249Y-126200000D01*
X63005249Y-126199997D01*
X63001280Y-126164774D01*
X63000500Y-126150890D01*
X63000500Y-126126081D01*
X62993261Y-126089692D01*
X62991659Y-126079398D01*
X62986313Y-126031941D01*
X62980266Y-126014660D01*
X62978671Y-126010101D01*
X62974094Y-125993332D01*
X62971660Y-125981095D01*
X62971658Y-125981087D01*
X62952766Y-125935477D01*
X62950285Y-125928979D01*
X62949358Y-125926332D01*
X62930456Y-125872310D01*
X62924708Y-125863162D01*
X62915143Y-125844648D01*
X62915084Y-125844505D01*
X62880834Y-125793247D01*
X62878949Y-125790338D01*
X62840477Y-125729110D01*
X62720890Y-125609523D01*
X62720889Y-125609522D01*
X62659677Y-125571060D01*
X62656760Y-125569169D01*
X62605495Y-125534916D01*
X62605488Y-125534912D01*
X62605340Y-125534851D01*
X62586844Y-125525295D01*
X62577694Y-125519546D01*
X62577691Y-125519544D01*
X62577690Y-125519544D01*
X62521003Y-125499708D01*
X62514532Y-125497238D01*
X62468913Y-125478342D01*
X62468911Y-125478341D01*
X62468910Y-125478341D01*
X62462799Y-125477125D01*
X62456659Y-125475904D01*
X62439902Y-125471330D01*
X62418059Y-125463687D01*
X62418060Y-125463687D01*
X62370625Y-125458342D01*
X62370614Y-125458340D01*
X62360312Y-125456739D01*
X62323918Y-125449500D01*
X62323917Y-125449500D01*
X62299110Y-125449500D01*
X62285226Y-125448720D01*
X62250002Y-125444751D01*
X62249998Y-125444751D01*
X62214774Y-125448720D01*
X62200890Y-125449500D01*
X58049110Y-125449500D01*
X58035226Y-125448720D01*
X58000002Y-125444751D01*
X57999998Y-125444751D01*
X57964774Y-125448720D01*
X57950890Y-125449500D01*
X57926082Y-125449500D01*
X57889685Y-125456739D01*
X57879374Y-125458342D01*
X57872786Y-125459084D01*
X57803965Y-125447026D01*
X57752588Y-125399675D01*
X57740977Y-125374181D01*
X57727180Y-125331719D01*
X57727179Y-125331718D01*
X57727179Y-125331716D01*
X57713424Y-125307892D01*
X57706256Y-125293355D01*
X57698014Y-125273456D01*
X57698013Y-125273454D01*
X57698013Y-125273453D01*
X57667359Y-125227577D01*
X57663088Y-125220708D01*
X57632534Y-125167785D01*
X57632530Y-125167780D01*
X57618637Y-125152350D01*
X57607684Y-125138268D01*
X57599464Y-125125965D01*
X57555721Y-125082222D01*
X57551255Y-125077516D01*
X57505871Y-125027112D01*
X57505870Y-125027111D01*
X57494527Y-125018870D01*
X57479737Y-125006238D01*
X57474035Y-125000536D01*
X57417008Y-124962431D01*
X57413016Y-124959649D01*
X57352730Y-124915849D01*
X57346092Y-124912893D01*
X57327643Y-124902719D01*
X57326551Y-124901989D01*
X57326546Y-124901986D01*
X57256993Y-124873177D01*
X57254010Y-124871895D01*
X57179806Y-124838856D01*
X57179797Y-124838853D01*
X57179285Y-124838745D01*
X57168626Y-124835438D01*
X57168494Y-124835874D01*
X57162667Y-124834106D01*
X57162666Y-124834106D01*
X57162663Y-124834105D01*
X57162662Y-124834105D01*
X57082268Y-124818113D01*
X57080715Y-124817794D01*
X56994646Y-124799500D01*
X56805354Y-124799500D01*
X56805350Y-124799500D01*
X56719334Y-124817783D01*
X56717745Y-124818110D01*
X56637336Y-124834105D01*
X56631514Y-124835871D01*
X56631382Y-124835437D01*
X56620720Y-124838744D01*
X56620200Y-124838854D01*
X56620199Y-124838854D01*
X56545969Y-124871904D01*
X56542986Y-124873185D01*
X56473457Y-124901984D01*
X56473450Y-124901988D01*
X56472346Y-124902726D01*
X56453911Y-124912892D01*
X56447272Y-124915848D01*
X56447264Y-124915853D01*
X56386976Y-124959653D01*
X56382986Y-124962434D01*
X56325968Y-125000533D01*
X56325958Y-125000542D01*
X56320253Y-125006246D01*
X56305472Y-125018870D01*
X56294129Y-125027111D01*
X56294126Y-125027114D01*
X56248742Y-125077517D01*
X56244277Y-125082222D01*
X56200539Y-125125961D01*
X56200532Y-125125969D01*
X56192310Y-125138275D01*
X56181362Y-125152350D01*
X56167472Y-125167776D01*
X56167467Y-125167784D01*
X56136914Y-125220703D01*
X56132630Y-125227591D01*
X56101988Y-125273450D01*
X56093741Y-125293360D01*
X56086569Y-125307902D01*
X56072824Y-125331710D01*
X56072821Y-125331715D01*
X56056010Y-125383451D01*
X56052643Y-125392578D01*
X56034106Y-125437333D01*
X56028589Y-125465066D01*
X56024905Y-125479183D01*
X56014325Y-125511747D01*
X56009340Y-125559171D01*
X56007638Y-125570396D01*
X55999856Y-125609522D01*
X55999500Y-125611310D01*
X55999500Y-125646306D01*
X55998821Y-125659266D01*
X55994540Y-125700000D01*
X55997600Y-125729110D01*
X55998821Y-125740731D01*
X55999500Y-125753692D01*
X55999500Y-127038769D01*
X55979815Y-127105808D01*
X55927011Y-127151563D01*
X55857853Y-127161507D01*
X55794297Y-127132482D01*
X55787819Y-127126450D01*
X55278421Y-126617052D01*
X55278414Y-126617046D01*
X55194748Y-126561143D01*
X55194747Y-126561143D01*
X55155500Y-126534919D01*
X55155488Y-126534912D01*
X55018917Y-126478343D01*
X55018907Y-126478340D01*
X54873920Y-126449500D01*
X54873918Y-126449500D01*
X52749110Y-126449500D01*
X52735226Y-126448720D01*
X52700002Y-126444751D01*
X52699998Y-126444751D01*
X52664774Y-126448720D01*
X52650890Y-126449500D01*
X52626082Y-126449500D01*
X52589685Y-126456739D01*
X52579382Y-126458341D01*
X52531940Y-126463687D01*
X52531939Y-126463687D01*
X52510097Y-126471330D01*
X52493341Y-126475903D01*
X52481097Y-126478339D01*
X52481088Y-126478341D01*
X52435466Y-126497237D01*
X52428974Y-126499715D01*
X52372314Y-126519542D01*
X52372309Y-126519544D01*
X52363147Y-126525300D01*
X52344657Y-126534852D01*
X52344513Y-126534911D01*
X52344499Y-126534918D01*
X52293254Y-126569159D01*
X52290339Y-126571048D01*
X52229114Y-126609519D01*
X52229107Y-126609525D01*
X52109525Y-126729107D01*
X52109519Y-126729114D01*
X52071048Y-126790339D01*
X52069159Y-126793254D01*
X52034918Y-126844499D01*
X52034911Y-126844513D01*
X52034852Y-126844657D01*
X52025300Y-126863147D01*
X52019544Y-126872309D01*
X52019542Y-126872314D01*
X51999715Y-126928974D01*
X51997237Y-126935466D01*
X51978341Y-126981088D01*
X51978339Y-126981097D01*
X51975903Y-126993341D01*
X51971330Y-127010097D01*
X51963687Y-127031939D01*
X51963687Y-127031940D01*
X51958341Y-127079382D01*
X51956739Y-127089685D01*
X51949500Y-127126081D01*
X51949500Y-127150890D01*
X51948720Y-127164774D01*
X51944751Y-127199997D01*
X40134984Y-127199997D01*
X40080051Y-127092184D01*
X40080049Y-127092181D01*
X40080048Y-127092179D01*
X39955109Y-126920213D01*
X39804786Y-126769890D01*
X39632820Y-126644951D01*
X39443414Y-126548444D01*
X39443413Y-126548443D01*
X39443412Y-126548443D01*
X39241243Y-126482754D01*
X39241241Y-126482753D01*
X39241240Y-126482753D01*
X39076992Y-126456739D01*
X39031287Y-126449500D01*
X38568713Y-126449500D01*
X38523008Y-126456739D01*
X38358760Y-126482753D01*
X38358757Y-126482754D01*
X38198214Y-126534918D01*
X38156585Y-126548444D01*
X37967179Y-126644951D01*
X37795213Y-126769890D01*
X37644890Y-126920213D01*
X37519951Y-127092179D01*
X37423444Y-127281585D01*
X37357753Y-127483760D01*
X37338272Y-127606760D01*
X37324500Y-127693713D01*
X35500500Y-127693713D01*
X35500500Y-123124000D01*
X35520185Y-123056961D01*
X35572989Y-123011206D01*
X35624500Y-123000000D01*
X43000000Y-123000000D01*
X43000000Y-115624500D01*
X43019685Y-115557461D01*
X43072489Y-115511706D01*
X43124000Y-115500500D01*
X73976000Y-115500500D01*
X74043039Y-115520185D01*
G37*
%TD.AperFunction*%
%TD*%
D27*
X52700000Y-127200000D03*
X98000000Y-139800000D03*
X62250000Y-126200000D03*
X69300000Y-141900000D03*
X55700000Y-132400000D03*
X58000000Y-126200000D03*
X96488072Y-139311928D03*
D28*
X61000000Y-136000000D03*
X51000000Y-126000000D03*
X55000000Y-136000000D03*
X75000000Y-150000000D03*
X107000000Y-130000000D03*
X59000000Y-162000000D03*
X97000000Y-120000000D03*
X114000000Y-164000000D03*
X39000000Y-126000000D03*
X61000000Y-138000000D03*
X63000000Y-162000000D03*
X59000000Y-122000000D03*
X83000000Y-158000000D03*
X75000000Y-162000000D03*
X63000000Y-122000000D03*
X79000000Y-158000000D03*
X112000000Y-166800000D03*
X87000000Y-146000000D03*
X55000000Y-146000000D03*
X43000000Y-150000000D03*
X106000000Y-136000000D03*
X91000000Y-134000000D03*
X43000000Y-132000000D03*
X75000000Y-126000000D03*
X65000000Y-122000000D03*
X87000000Y-138000000D03*
X73000000Y-118000000D03*
X83000000Y-162000000D03*
X97000000Y-116000000D03*
X47000000Y-146000000D03*
X63000000Y-132500000D03*
X61000000Y-140000000D03*
X53000000Y-132000000D03*
X68000000Y-127000000D03*
X83000000Y-130000000D03*
X65000000Y-120000000D03*
X67000000Y-158000000D03*
X83000000Y-138000000D03*
X63000000Y-120000000D03*
X43000000Y-146000000D03*
X55000000Y-122000000D03*
X91000000Y-162000000D03*
X60000000Y-131000000D03*
X107000000Y-158000000D03*
X63000000Y-124000000D03*
X55000000Y-168000000D03*
X107000000Y-154000000D03*
X61000000Y-116000000D03*
X75000000Y-134000000D03*
X79000000Y-126000000D03*
X79000000Y-122000000D03*
X61000000Y-158000000D03*
X79000000Y-138000000D03*
X69000000Y-118000000D03*
X91000000Y-158000000D03*
X67500000Y-138000000D03*
X51000000Y-168000000D03*
X69000000Y-116000000D03*
X99000000Y-134000000D03*
X51000000Y-162000000D03*
X63000000Y-146000000D03*
X91000000Y-146000000D03*
X59000000Y-146000000D03*
X65000000Y-116000000D03*
X75000000Y-154000000D03*
X99000000Y-126000000D03*
X59000000Y-120000000D03*
X87000000Y-134000000D03*
X55000000Y-138000000D03*
X91000000Y-138000000D03*
X73000000Y-116000000D03*
X75000000Y-146000000D03*
X61500000Y-154000000D03*
X83000000Y-166000000D03*
X79000000Y-166000000D03*
X83000000Y-146000000D03*
X83000000Y-134000000D03*
X79000000Y-146000000D03*
X95000000Y-116000000D03*
X116000000Y-164000000D03*
X99000000Y-146000000D03*
X47000000Y-162000000D03*
X91000000Y-122000000D03*
X83000000Y-150000000D03*
X49000000Y-116000000D03*
X107050000Y-142850000D03*
X43000000Y-138000000D03*
X87000000Y-158000000D03*
X65500000Y-132500000D03*
X51000000Y-146000000D03*
X99000000Y-158000000D03*
X103000000Y-126000000D03*
X60000000Y-127500000D03*
X79000000Y-130000000D03*
X107000000Y-146000000D03*
X87000000Y-122000000D03*
X75000000Y-138000000D03*
X45000000Y-120000000D03*
X51000000Y-132000000D03*
X67300000Y-140500000D03*
X53000000Y-116000000D03*
X107000000Y-134000000D03*
X107000000Y-126000000D03*
X67000000Y-168000000D03*
X43000000Y-126000000D03*
X87000000Y-126000000D03*
X59000000Y-168000000D03*
X47000000Y-132000000D03*
X87000000Y-154000000D03*
X99000000Y-150000000D03*
X49000000Y-132000000D03*
X65000000Y-160000000D03*
X107000000Y-150000000D03*
X91000000Y-130000000D03*
X73000000Y-120000000D03*
X55000000Y-118000000D03*
X87000000Y-150000000D03*
X45000000Y-116000000D03*
X75000000Y-158000000D03*
X79000000Y-154000000D03*
X59000000Y-138000000D03*
X68000000Y-129000000D03*
X57000000Y-120000000D03*
X114000000Y-166700000D03*
X55000000Y-120000000D03*
X79000000Y-134000000D03*
X59000000Y-160000000D03*
X87000000Y-162000000D03*
X83000000Y-122000000D03*
X57000000Y-116000000D03*
X55000000Y-134000000D03*
X83000000Y-126000000D03*
X43000000Y-134000000D03*
X83000000Y-154000000D03*
X112000000Y-164000000D03*
X47000000Y-166000000D03*
X55000000Y-162000000D03*
X75000000Y-166000000D03*
X79000000Y-162000000D03*
X75000000Y-122000000D03*
X63000000Y-168000000D03*
X87000000Y-130000000D03*
X45000000Y-124000000D03*
X47000000Y-168000000D03*
X79000000Y-150000000D03*
X64700000Y-129700000D03*
X95000000Y-120000000D03*
X103000000Y-130000000D03*
X103300000Y-142850000D03*
X87000000Y-166000000D03*
X91000000Y-150000000D03*
X91000000Y-154000000D03*
X75000000Y-130000000D03*
X47000000Y-126000000D03*
X45000000Y-132000000D03*
X116000000Y-166800000D03*
X99000000Y-154000000D03*
X60500000Y-132500000D03*
X103250000Y-141350000D03*
X69000000Y-120000000D03*
X60000000Y-129000000D03*
X91000000Y-126000000D03*
X99000000Y-130000000D03*
D27*
X161300000Y-141200000D03*
D28*
X131900000Y-150000000D03*
X109500000Y-152000000D03*
X214900000Y-116000000D03*
X172900000Y-162000000D03*
X169300000Y-140000000D03*
D27*
X189200000Y-141200000D03*
D28*
X163900000Y-148000000D03*
X188900000Y-160000000D03*
X169300000Y-144000000D03*
X172100000Y-130100000D03*
X227000000Y-126000000D03*
X169300000Y-148000000D03*
X156900000Y-160000000D03*
X138100000Y-118100000D03*
X176000000Y-124000000D03*
X190900000Y-157000000D03*
X196900000Y-119000000D03*
X213000000Y-166000000D03*
X161900000Y-160000000D03*
X132900000Y-164000000D03*
X189000000Y-149000000D03*
X203000000Y-166000000D03*
D27*
X125300000Y-141200000D03*
D28*
X169300000Y-128000000D03*
X128900000Y-160000000D03*
X179900000Y-148000000D03*
X185000000Y-149000000D03*
X227000000Y-142000000D03*
X220900000Y-147000000D03*
X169300000Y-123900000D03*
X187000000Y-149000000D03*
X114900000Y-123000000D03*
X148900000Y-168100000D03*
X224100000Y-138100000D03*
X213000000Y-160000000D03*
X136100000Y-118100000D03*
X148100000Y-116100000D03*
X139000000Y-165014382D03*
X142100000Y-120250000D03*
X188900000Y-157000000D03*
X144100000Y-152100000D03*
X183000000Y-149000000D03*
X152100000Y-116100000D03*
X169300000Y-132000000D03*
X134650000Y-151250000D03*
X161900000Y-154000000D03*
X109500000Y-128000000D03*
X223000000Y-158000000D03*
D27*
X138700000Y-141200000D03*
D28*
X163900000Y-146000000D03*
X163000000Y-116000000D03*
X221000000Y-160000000D03*
X216900000Y-147000000D03*
X222900000Y-154000000D03*
X167000000Y-120000000D03*
X176100000Y-146100000D03*
X172900000Y-164000000D03*
X222900000Y-116000000D03*
X174100000Y-146100000D03*
X131900000Y-151250000D03*
X128900000Y-158000000D03*
X136900000Y-160100000D03*
X118900000Y-146000000D03*
D27*
X156800000Y-141200000D03*
D28*
X150100000Y-150100000D03*
D27*
X184700000Y-141200000D03*
D28*
X188900000Y-168000000D03*
X167400000Y-136000000D03*
X156900000Y-148100000D03*
X184900000Y-159958072D03*
X231000000Y-134000000D03*
X178900000Y-162000000D03*
X160900000Y-152100000D03*
X172900000Y-166000000D03*
X171000000Y-119700000D03*
X231000000Y-150000000D03*
X200100000Y-152100000D03*
X184900000Y-162000000D03*
X111900000Y-130000000D03*
X167400000Y-140000000D03*
X116900000Y-160000000D03*
X213000000Y-162000000D03*
X167400000Y-160000000D03*
X109500000Y-136000000D03*
X209900000Y-149000000D03*
X164900000Y-166000000D03*
D27*
X116400000Y-141200000D03*
D28*
X222900000Y-152000000D03*
X109500000Y-156000000D03*
X164900000Y-160000000D03*
D27*
X211300000Y-141200000D03*
D28*
X191000000Y-149000000D03*
X164900000Y-157000000D03*
D27*
X202400000Y-141200000D03*
D28*
X231000000Y-138000000D03*
X213000000Y-164000000D03*
X211900000Y-149000000D03*
X213000000Y-168000000D03*
X206900000Y-151000000D03*
X167400000Y-128000000D03*
X178900000Y-167100000D03*
X167400000Y-152000000D03*
X158800000Y-166800000D03*
X227000000Y-134000000D03*
X144900000Y-168100000D03*
X169300000Y-160000000D03*
X113900000Y-128000000D03*
X195800000Y-155500000D03*
X167000000Y-116000000D03*
X152900000Y-160000000D03*
X171000000Y-116000000D03*
X142100000Y-118100000D03*
X163900000Y-154000000D03*
X183000000Y-151000000D03*
X111650000Y-148000000D03*
X231000000Y-146000000D03*
X109500000Y-148000000D03*
X143900000Y-164000000D03*
X111650000Y-141900000D03*
X196900000Y-168000000D03*
X172900000Y-168000000D03*
X172100000Y-128100000D03*
X124900000Y-158000000D03*
D27*
X134300000Y-141200000D03*
D28*
X124900000Y-150100000D03*
X140100000Y-152000000D03*
X111900000Y-128000000D03*
X231000000Y-126000000D03*
X114900000Y-146000000D03*
D27*
X147800000Y-141200000D03*
D28*
X113900000Y-130000000D03*
X227000000Y-138000000D03*
D27*
X120900000Y-141200000D03*
D28*
X227000000Y-130000000D03*
X167400000Y-156000000D03*
X132900000Y-168000000D03*
X140100000Y-116100000D03*
X231000000Y-130000000D03*
D27*
X206800000Y-141200000D03*
D28*
X164900000Y-168000000D03*
D27*
X175900000Y-141200000D03*
D28*
X143900000Y-166000000D03*
X160900000Y-148100000D03*
X175000000Y-116000000D03*
X142100000Y-116100000D03*
D27*
X215600000Y-141200000D03*
D28*
X201000000Y-168000000D03*
X178900000Y-164100000D03*
X128900000Y-150100000D03*
X178100000Y-146100000D03*
X109500000Y-118000000D03*
X112900000Y-146000000D03*
X167400000Y-123900000D03*
X224100000Y-142100000D03*
X114900000Y-125000000D03*
D27*
X164800000Y-142300000D03*
D28*
X202900000Y-116000000D03*
X146100000Y-152100000D03*
X124900000Y-160000000D03*
X216900000Y-149000000D03*
X220900000Y-149000000D03*
X218900000Y-147000000D03*
X109500000Y-122000000D03*
X169300000Y-152000000D03*
D27*
X220000000Y-141200000D03*
D28*
X184900000Y-157000000D03*
X210900000Y-116000000D03*
X192900000Y-168000000D03*
X164900000Y-164000000D03*
X156000000Y-164000000D03*
X198900000Y-116000000D03*
X109500000Y-140000000D03*
X181000000Y-150000000D03*
D27*
X143200000Y-141200000D03*
D28*
X167400000Y-132000000D03*
X163900000Y-150000000D03*
X136600000Y-155600000D03*
X156900000Y-150250000D03*
X164900000Y-162000000D03*
X142100000Y-152100000D03*
X164900000Y-152100000D03*
D27*
X180300000Y-141200000D03*
D28*
X183900000Y-164100000D03*
X217000000Y-160000000D03*
X148900000Y-164100000D03*
X109600000Y-132000000D03*
X172100000Y-146100000D03*
X167400000Y-144000000D03*
X224900000Y-156100000D03*
X207000000Y-160000000D03*
X116900000Y-121000000D03*
X120900000Y-160000000D03*
X206900000Y-116000000D03*
D27*
X129800000Y-141200000D03*
D28*
X169300000Y-156000000D03*
X160100000Y-116100000D03*
X213900000Y-149000000D03*
X227000000Y-146000000D03*
D27*
X193600000Y-141200000D03*
D28*
X209000000Y-160000000D03*
X200900000Y-119000000D03*
X144100000Y-116100000D03*
X109500000Y-144000000D03*
X132900000Y-160000000D03*
X156100000Y-116100000D03*
X111650000Y-144000000D03*
X111650000Y-146000000D03*
X136900000Y-151250000D03*
X169300000Y-136000000D03*
D27*
X197950000Y-141200000D03*
D28*
X218900000Y-116000000D03*
D27*
X152300000Y-141200000D03*
D28*
X183900000Y-167100000D03*
X231000000Y-142000000D03*
X185000000Y-151000000D03*
X176000000Y-122000000D03*
X192900000Y-160000000D03*
X137400000Y-166600000D03*
X140100000Y-120250000D03*
X167400000Y-148000000D03*
X211000000Y-160000000D03*
X227000000Y-150000000D03*
X171400000Y-144000000D03*
X116900000Y-146000000D03*
X171400000Y-141900000D03*
X138100000Y-120250000D03*
X204100000Y-152100000D03*
D27*
X133000000Y-149000000D03*
X133000000Y-157000000D03*
X192450000Y-157000000D03*
X192450000Y-148650000D03*
X97800000Y-141900000D03*
X101500000Y-140700000D03*
D28*
X56900000Y-125700000D03*
X56900000Y-137600000D03*
X70365000Y-122821928D03*
X70365000Y-125361928D03*
X70365000Y-127901928D03*
X70365000Y-130441928D03*
X70365000Y-132981928D03*
X70365000Y-135521928D03*
X70365000Y-138061928D03*
X70365000Y-140601928D03*
X70365000Y-143141928D03*
X70365000Y-145681928D03*
X70365000Y-148221928D03*
X70365000Y-150761928D03*
X70365000Y-153301928D03*
X70365000Y-155841928D03*
X70365000Y-158381928D03*
X70365000Y-160921928D03*
X70365000Y-163461928D03*
X70365000Y-166001928D03*
X70365000Y-168541928D03*
X95765000Y-168541928D03*
X95765000Y-166001928D03*
X95765000Y-163461928D03*
X95765000Y-160921928D03*
X95765000Y-158381928D03*
X95765000Y-155841928D03*
X95765000Y-153301928D03*
X95765000Y-150761928D03*
X95765000Y-148221928D03*
X95765000Y-145681928D03*
X95765000Y-143141928D03*
X95765000Y-140601928D03*
X95765000Y-138061928D03*
X95765000Y-135521928D03*
X95765000Y-132981928D03*
X95765000Y-130441928D03*
X95765000Y-127901928D03*
X95765000Y-125361928D03*
X95765000Y-122821928D03*
X174995000Y-155300000D03*
X176895000Y-155300000D03*
X230900000Y-119100000D03*
X64800000Y-143332500D03*
X62260000Y-143332500D03*
X59720000Y-143332500D03*
X57180000Y-143332500D03*
X54640000Y-143332500D03*
X52100000Y-143332500D03*
X49560000Y-143332500D03*
X47020000Y-143332500D03*
X47020000Y-150952500D03*
X49560000Y-150952500D03*
X52100000Y-150952500D03*
X54640000Y-150952500D03*
X57180000Y-150952500D03*
X59720000Y-150952500D03*
X62260000Y-150952500D03*
X64800000Y-150952500D03*
X115395000Y-154900000D03*
X117295000Y-154900000D03*
X174995000Y-153000000D03*
X176895000Y-153000000D03*
X174995000Y-158000000D03*
X176895000Y-158000000D03*
X118600000Y-119000000D03*
X121100000Y-119000000D03*
X123600000Y-119000000D03*
X126100000Y-119000000D03*
X128600000Y-119000000D03*
X131100000Y-119000000D03*
X133600000Y-119000000D03*
X115395000Y-150500000D03*
X117295000Y-150500000D03*
X102600000Y-165700000D03*
X230700000Y-154100000D03*
X230700000Y-158060000D03*
X231000000Y-166000000D03*
X145600000Y-119000000D03*
X148100000Y-119000000D03*
X150600000Y-119000000D03*
X153100000Y-119000000D03*
X155600000Y-119000000D03*
X158100000Y-119000000D03*
X160600000Y-119000000D03*
X39000000Y-119000000D03*
X115395000Y-152700000D03*
X117295000Y-152700000D03*
X178100000Y-119000000D03*
X180600000Y-119000000D03*
X183100000Y-119000000D03*
X185600000Y-119000000D03*
X188100000Y-119000000D03*
X190600000Y-119000000D03*
X193100000Y-119000000D03*
X102600000Y-119200000D03*
X39825000Y-141450000D03*
X39825000Y-143950000D03*
X39825000Y-146450000D03*
X39825000Y-148950000D03*
X204500000Y-119000000D03*
X207000000Y-119000000D03*
X209500000Y-119000000D03*
X212000000Y-119000000D03*
X214500000Y-119000000D03*
X217000000Y-119000000D03*
X219500000Y-119000000D03*
X39100000Y-165900000D03*
X174995000Y-150800000D03*
X176895000Y-150800000D03*
X38800000Y-135300000D03*
X38800000Y-132800000D03*
X38800000Y-130300000D03*
X38800000Y-127800000D03*
X115395000Y-157100000D03*
X117295000Y-157100000D03*
M02*
