%TF.GenerationSoftware,KiCad,Pcbnew,8.0.4*%
%TF.CreationDate,2024-08-06T18:21:14+08:00*%
%TF.ProjectId,LTC6811_ESP32_V3,4c544336-3831-4315-9f45-535033325f56,rev?*%
%TF.SameCoordinates,Original*%
%TF.FileFunction,Profile,NP*%
%FSLAX46Y46*%
G04 Gerber Fmt 4.6, Leading zero omitted, Abs format (unit mm)*
G04 Created by KiCad (PCBNEW 8.0.4) date 2024-08-06 18:21:14*
%MOMM*%
%LPD*%
G01*
G04 APERTURE LIST*
%TA.AperFunction,Profile*%
%ADD10C,0.050000*%
%TD*%
%ADD11C,0.350000*%
G04 APERTURE END LIST*
D10*
X40000000Y-115000000D02*
X360000000Y-115000000D01*
X360000000Y-170000000D01*
X40000000Y-170000000D01*
X40000000Y-115000000D01*
D11*
X70365000Y-122821928D03*
X70365000Y-125361928D03*
X70365000Y-127901928D03*
X70365000Y-130441928D03*
X70365000Y-132981928D03*
X70365000Y-135521928D03*
X70365000Y-138061928D03*
X70365000Y-140601928D03*
X70365000Y-143141928D03*
X70365000Y-145681928D03*
X70365000Y-148221928D03*
X70365000Y-150761928D03*
X70365000Y-153301928D03*
X70365000Y-155841928D03*
X70365000Y-158381928D03*
X70365000Y-160921928D03*
X70365000Y-163461928D03*
X70365000Y-166001928D03*
X70365000Y-168541928D03*
X95765000Y-168541928D03*
X95765000Y-166001928D03*
X95765000Y-163461928D03*
X95765000Y-160921928D03*
X95765000Y-158381928D03*
X95765000Y-155841928D03*
X95765000Y-153301928D03*
X95765000Y-150761928D03*
X95765000Y-148221928D03*
X95765000Y-145681928D03*
X95765000Y-143141928D03*
X95765000Y-140601928D03*
X95765000Y-138061928D03*
X95765000Y-135521928D03*
X95765000Y-132981928D03*
X95765000Y-130441928D03*
X95765000Y-127901928D03*
X95765000Y-125361928D03*
X95765000Y-122821928D03*
X355750000Y-154042500D03*
X355750000Y-158002500D03*
X304295000Y-154441928D03*
X306195000Y-154441928D03*
X247150000Y-119041928D03*
X249650000Y-119041928D03*
X252150000Y-119041928D03*
X254650000Y-119041928D03*
X257150000Y-119041928D03*
X259650000Y-119041928D03*
X262150000Y-119041928D03*
X275200000Y-119041928D03*
X277700000Y-119041928D03*
X280200000Y-119041928D03*
X282700000Y-119041928D03*
X285200000Y-119041928D03*
X287700000Y-119041928D03*
X290200000Y-119041928D03*
X356000000Y-119000000D03*
X184095000Y-155341928D03*
X185995000Y-155341928D03*
X178400000Y-119041928D03*
X122550000Y-166999428D03*
X122550000Y-163039428D03*
X41600000Y-141501928D03*
X41600000Y-144041928D03*
X41600000Y-146581928D03*
X41600000Y-149121928D03*
X41600000Y-151661928D03*
X41600000Y-154201928D03*
X41600000Y-156741928D03*
X41600000Y-159281928D03*
X49220000Y-159281928D03*
X49220000Y-156741928D03*
X49220000Y-154201928D03*
X49220000Y-151661928D03*
X49220000Y-149121928D03*
X49220000Y-146581928D03*
X49220000Y-144041928D03*
X49220000Y-141501928D03*
X304295000Y-152241928D03*
X306195000Y-152241928D03*
X304300000Y-158841928D03*
X306200000Y-158841928D03*
X305400000Y-119000000D03*
X307900000Y-119000000D03*
X310400000Y-119000000D03*
X312900000Y-119000000D03*
X315400000Y-119000000D03*
X317900000Y-119000000D03*
X320400000Y-119000000D03*
X124495000Y-154941928D03*
X126395000Y-154941928D03*
X356000000Y-166000000D03*
X184095000Y-153041928D03*
X185995000Y-153041928D03*
X184095000Y-158041928D03*
X185995000Y-158041928D03*
X274100000Y-166041928D03*
X65300000Y-168331928D03*
X65300000Y-165791928D03*
X65300000Y-163251928D03*
X65300000Y-160711928D03*
X65300000Y-158171928D03*
X65300000Y-155631928D03*
X65300000Y-153091928D03*
X65300000Y-150551928D03*
X65300000Y-148011928D03*
X65300000Y-145471928D03*
X65300000Y-142931928D03*
X65300000Y-140391928D03*
X65300000Y-137851928D03*
X65300000Y-135311928D03*
X57680000Y-135311928D03*
X57680000Y-137851928D03*
X57680000Y-140391928D03*
X57680000Y-142931928D03*
X57680000Y-145471928D03*
X57680000Y-148011928D03*
X57680000Y-150551928D03*
X57680000Y-153091928D03*
X57680000Y-155631928D03*
X57680000Y-158171928D03*
X57680000Y-160711928D03*
X57680000Y-163251928D03*
X57680000Y-165791928D03*
X57680000Y-168331928D03*
X112450000Y-163084428D03*
X112450000Y-167044428D03*
X127700000Y-119041928D03*
X130200000Y-119041928D03*
X132700000Y-119041928D03*
X135200000Y-119041928D03*
X137700000Y-119041928D03*
X140200000Y-119041928D03*
X142700000Y-119041928D03*
X124495000Y-150541928D03*
X126395000Y-150541928D03*
X112000000Y-136750000D03*
X112000000Y-131250000D03*
X304300000Y-156541928D03*
X306200000Y-156541928D03*
X212700000Y-166041928D03*
X154700000Y-119041928D03*
X157200000Y-119041928D03*
X159700000Y-119041928D03*
X162200000Y-119041928D03*
X164700000Y-119041928D03*
X167200000Y-119041928D03*
X169700000Y-119041928D03*
X44000000Y-119041928D03*
X124495000Y-152741928D03*
X126395000Y-152741928D03*
X187200000Y-119041928D03*
X189700000Y-119041928D03*
X192200000Y-119041928D03*
X194700000Y-119041928D03*
X197200000Y-119041928D03*
X199700000Y-119041928D03*
X202200000Y-119041928D03*
X111000000Y-119041928D03*
X245195000Y-151941928D03*
X247095000Y-151941928D03*
X213600000Y-119041928D03*
X216100000Y-119041928D03*
X218600000Y-119041928D03*
X221100000Y-119041928D03*
X223600000Y-119041928D03*
X226100000Y-119041928D03*
X228600000Y-119041928D03*
X332300000Y-118975000D03*
X334800000Y-118975000D03*
X337300000Y-118975000D03*
X339800000Y-118975000D03*
X342300000Y-118975000D03*
X344800000Y-118975000D03*
X347300000Y-118975000D03*
X245195000Y-159041928D03*
X247095000Y-159041928D03*
X44000000Y-166041928D03*
X184095000Y-150841928D03*
X185995000Y-150841928D03*
X245195000Y-156841928D03*
X247095000Y-156841928D03*
X245195000Y-154641928D03*
X247095000Y-154641928D03*
X41900000Y-124901928D03*
X41900000Y-127441928D03*
X41900000Y-129981928D03*
X41900000Y-132521928D03*
X124495000Y-157141928D03*
X126395000Y-157141928D03*
M02*
