M48
; DRILL file {KiCad 8.0.4} date 2024-08-06T18:21:13+0800
; FORMAT={-:-/ absolute / metric / decimal}
; #@! TF.CreationDate,2024-08-06T18:21:13+08:00
; #@! TF.GenerationSoftware,Kicad,Pcbnew,8.0.4
; #@! TF.FileFunction,MixedPlating,1,2
FMAT,2
METRIC
; #@! TA.AperFunction,Plated,PTH,ViaDrill
T1C0.300
; #@! TA.AperFunction,Plated,PTH,ViaDrill
T2C0.400
; #@! TA.AperFunction,Plated,PTH,ComponentDrill
T3C0.700
; #@! TA.AperFunction,Plated,PTH,ComponentDrill
T4C0.800
; #@! TA.AperFunction,Plated,PTH,ComponentDrill
T5C0.950
; #@! TA.AperFunction,Plated,PTH,ComponentDrill
T6C1.000
; #@! TA.AperFunction,Plated,PTH,ComponentDrill
T7C1.400
; #@! TA.AperFunction,Plated,PTH,ComponentDrill
T8C1.700
; #@! TA.AperFunction,Plated,PTH,ComponentDrill
T9C3.200
%
G90
G05
T1
X27.715Y19.108
X55.2Y28.158
X58.275Y29.946
X58.275Y28.158
X62.6Y19.458
X64.772Y47.758
X64.807Y50.008
X85.5Y28.758
X90.0Y28.758
X94.4Y28.758
X98.9Y28.758
X102.1Y20.958
X102.1Y12.958
X103.4Y28.758
X107.8Y28.758
X112.3Y28.758
X116.9Y28.758
X121.4Y28.758
X125.9Y28.758
X130.4Y28.758
X133.9Y27.658
X145.0Y28.758
X149.4Y28.758
X153.8Y28.758
X158.3Y28.758
X161.55Y21.308
X161.55Y12.958
X162.7Y28.758
X167.05Y28.758
X171.5Y28.758
X175.9Y28.758
X180.4Y28.758
X184.7Y28.758
X189.1Y28.758
X204.0Y28.758
X208.7Y28.758
X213.5Y28.758
X218.1Y28.758
X222.35Y20.471
X222.35Y13.071
X222.8Y28.758
X227.5Y28.758
X232.1Y28.758
X236.9Y28.758
X241.5Y28.758
X246.1Y28.758
X250.8Y28.758
X266.975Y28.858
X271.575Y28.858
X275.9Y19.158
X275.9Y10.158
X276.275Y28.858
X280.975Y28.858
X285.675Y28.858
X290.275Y28.858
X294.975Y28.858
X299.575Y28.858
X304.275Y28.858
X308.875Y28.858
X313.575Y28.858
T2
X2.0Y33.958
X4.0Y45.958
X4.0Y41.958
X4.0Y27.958
X4.0Y23.958
X4.0Y19.958
X4.0Y15.958
X4.0Y11.958
X6.0Y43.958
X6.0Y39.958
X6.0Y31.958
X8.0Y36.958
X8.0Y31.958
X8.5Y42.458
X10.0Y47.958
X10.0Y31.958
X11.0Y22.5
X11.1Y4.3
X12.0Y47.958
X12.0Y41.958
X12.0Y35.958
X12.2Y21.2
X12.2Y9.4
X13.2Y16.9
X13.2Y14.9
X14.0Y25.958
X14.6Y18.9
X16.0Y47.958
X16.0Y45.958
X16.0Y41.958
X16.0Y33.958
X16.0Y29.958
X16.0Y27.958
X16.0Y25.958
X16.0Y23.958
X16.0Y17.6
X16.0Y15.958
X16.0Y12.958
X16.0Y7.958
X16.0Y2.958
X18.0Y37.958
X20.0Y47.958
X20.0Y27.958
X20.0Y25.958
X20.0Y19.958
X20.0Y15.958
X20.0Y11.958
X20.0Y7.958
X20.0Y3.958
X22.0Y37.958
X22.0Y35.958
X22.0Y33.958
X22.0Y31.958
X22.0Y29.958
X22.0Y27.958
X22.0Y25.958
X24.0Y37.958
X24.0Y35.958
X25.0Y48.958
X25.0Y44.958
X26.0Y37.958
X26.0Y35.958
X28.0Y7.958
X28.0Y3.958
X32.0Y47.958
X32.0Y43.958
X32.0Y39.958
X32.0Y35.958
X32.0Y31.958
X32.0Y23.958
X32.0Y19.958
X32.0Y15.958
X32.0Y11.958
X32.0Y7.958
X32.0Y3.958
X36.0Y39.958
X36.0Y35.958
X36.0Y31.958
X36.0Y23.958
X36.0Y11.958
X36.0Y7.958
X36.0Y3.958
X40.0Y39.958
X40.0Y31.958
X40.0Y23.958
X40.0Y11.958
X40.0Y7.958
X40.0Y3.958
X44.0Y39.958
X44.0Y31.958
X44.0Y23.958
X44.0Y11.958
X44.0Y7.958
X44.0Y3.958
X48.0Y39.958
X48.0Y31.958
X48.0Y23.958
X48.0Y11.958
X48.0Y7.958
X48.0Y3.958
X52.0Y43.958
X52.0Y39.958
X52.0Y35.958
X52.0Y31.958
X52.0Y23.958
X52.0Y19.958
X52.0Y15.958
X52.0Y11.958
X52.0Y7.958
X52.0Y3.958
X58.0Y53.958
X58.0Y51.958
X58.0Y49.958
X58.0Y47.958
X58.0Y45.958
X58.0Y43.958
X58.0Y41.958
X58.0Y39.958
X58.0Y37.958
X58.0Y35.958
X58.0Y33.958
X58.0Y21.958
X58.0Y19.958
X58.0Y17.958
X58.0Y15.958
X58.0Y13.958
X58.0Y11.958
X60.0Y53.958
X60.0Y47.958
X60.0Y45.958
X60.0Y43.958
X60.0Y41.958
X60.0Y39.958
X60.0Y37.958
X60.0Y35.958
X60.0Y33.958
X60.0Y13.958
X60.0Y11.958
X62.0Y53.958
X62.0Y31.958
X62.0Y13.958
X62.0Y11.958
X62.4Y26.158
X62.416Y29.558
X62.416Y27.708
X64.0Y53.958
X64.0Y33.958
X64.0Y31.958
X64.0Y13.958
X64.0Y11.958
X66.0Y53.958
X66.0Y51.958
X66.0Y39.958
X66.0Y37.958
X66.0Y35.958
X66.0Y33.958
X66.0Y31.958
X66.0Y13.958
X66.0Y11.958
X68.0Y42.0
X68.0Y40.0
X68.0Y38.0
X68.0Y35.958
X68.0Y33.958
X68.0Y31.958
X68.0Y29.958
X68.0Y27.958
X68.0Y25.958
X68.0Y17.958
X68.0Y15.958
X68.0Y13.958
X68.0Y11.958
X70.0Y27.958
X70.0Y25.958
X70.0Y23.958
X70.0Y21.958
X70.0Y19.958
X70.0Y17.958
X70.0Y11.958
X72.0Y46.0
X72.0Y30.0
X72.0Y11.958
X74.0Y11.958
X76.0Y46.0
X76.0Y41.958
X76.0Y37.958
X76.0Y33.958
X76.0Y29.958
X76.0Y25.958
X76.0Y21.958
X76.0Y17.958
X76.0Y13.958
X76.0Y11.958
X78.6Y51.958
X78.6Y47.958
X78.6Y41.958
X78.6Y33.958
X78.6Y29.958
X78.6Y25.958
X78.6Y21.958
X78.6Y17.958
X78.6Y13.958
X78.7Y37.958
X80.75Y28.058
X80.75Y25.958
X80.75Y23.958
X80.75Y21.958
X81.0Y41.958
X81.0Y39.958
X82.0Y23.958
X83.0Y41.958
X83.0Y39.958
X84.0Y46.958
X84.0Y44.958
X84.0Y23.958
X86.0Y48.958
X86.0Y23.958
X86.0Y9.958
X88.0Y23.958
X90.0Y9.958
X94.0Y19.858
X94.0Y11.958
X94.0Y9.958
X98.0Y19.858
X98.0Y11.958
X98.0Y9.958
X101.0Y19.958
X101.0Y18.708
X102.0Y9.958
X102.0Y5.958
X102.0Y1.958
X103.75Y18.708
X105.2Y51.858
X105.7Y14.358
X106.0Y18.708
X106.0Y9.858
X106.5Y3.358
X107.2Y51.858
X107.2Y49.708
X108.1Y4.944
X109.2Y53.858
X109.2Y49.708
X109.2Y17.958
X111.2Y53.858
X111.2Y51.858
X111.2Y49.708
X111.2Y17.858
X113.0Y5.958
X113.0Y3.958
X113.2Y53.858
X113.2Y17.858
X114.0Y1.858
X115.2Y17.858
X117.2Y53.858
X118.0Y5.858
X118.0Y1.858
X119.2Y19.858
X121.2Y53.858
X122.0Y9.958
X125.1Y5.958
X125.2Y53.858
X126.0Y21.858
X126.0Y19.708
X126.0Y9.958
X127.9Y3.158
X129.2Y53.858
X130.0Y21.858
X130.0Y17.858
X131.0Y15.958
X131.0Y9.958
X133.0Y23.958
X133.0Y21.958
X133.0Y19.958
X133.0Y15.958
X133.2Y53.858
X134.0Y17.858
X134.0Y12.958
X134.0Y9.958
X134.0Y7.958
X134.0Y5.958
X134.0Y3.958
X134.0Y1.958
X136.5Y46.058
X136.5Y41.958
X136.5Y37.958
X136.5Y33.958
X136.5Y29.958
X136.5Y25.958
X136.5Y21.958
X136.5Y17.958
X136.5Y13.958
X136.5Y9.958
X138.4Y46.058
X138.4Y41.958
X138.4Y37.958
X138.4Y33.958
X138.4Y29.958
X138.4Y25.958
X138.4Y21.958
X138.4Y17.958
X138.4Y13.958
X138.4Y9.958
X140.5Y28.058
X140.5Y25.958
X141.2Y41.858
X141.2Y39.858
X141.2Y23.858
X142.0Y7.958
X142.0Y5.958
X142.0Y3.958
X142.0Y1.958
X143.2Y23.858
X145.2Y23.858
X147.2Y23.858
X148.0Y7.958
X148.0Y5.858
X148.0Y2.858
X149.0Y21.958
X151.2Y19.858
X153.0Y5.858
X153.0Y2.858
X153.2Y19.858
X154.0Y12.958
X154.0Y10.0
X154.0Y7.958
X155.2Y19.858
X158.0Y12.958
X158.0Y9.958
X158.0Y1.958
X160.0Y12.958
X162.0Y9.958
X162.0Y1.958
X164.9Y14.458
X166.0Y50.958
X166.0Y10.958
X166.0Y1.958
X168.0Y53.958
X169.2Y17.858
X170.0Y50.958
X172.0Y53.958
X173.2Y17.858
X174.0Y10.3
X176.0Y53.958
X176.0Y18.958
X176.0Y8.4
X178.0Y6.0
X178.0Y1.858
X179.0Y20.958
X180.0Y53.958
X181.0Y20.958
X182.0Y9.958
X182.0Y1.858
X183.0Y20.958
X184.0Y53.958
X186.0Y22.958
X186.0Y20.958
X186.0Y9.958
X186.7Y4.458
X188.0Y53.958
X188.0Y22.958
X190.0Y22.958
X190.0Y20.958
X190.0Y9.958
X192.0Y53.958
X192.0Y17.958
X192.0Y15.958
X193.2Y31.858
X193.2Y27.858
X194.0Y13.858
X194.0Y10.1
X194.0Y6.0
X194.0Y2.0
X195.6Y53.958
X195.6Y49.958
X195.6Y45.958
X195.6Y41.958
X195.6Y37.958
X195.6Y33.958
X195.6Y29.958
X195.6Y25.958
X195.6Y21.958
X195.6Y17.958
X195.6Y13.958
X197.4Y53.958
X197.4Y49.958
X197.4Y45.958
X197.4Y41.958
X197.4Y37.958
X197.4Y33.958
X197.4Y29.958
X197.4Y25.958
X197.4Y21.958
X197.4Y17.958
X197.4Y13.958
X197.4Y9.958
X198.0Y6.0
X198.0Y2.0
X199.2Y28.858
X199.2Y25.858
X200.0Y54.0
X200.0Y42.0
X200.0Y40.0
X200.0Y23.958
X200.0Y21.958
X200.0Y18.0
X200.0Y14.0
X201.0Y42.0
X201.0Y40.0
X202.0Y46.0
X202.0Y5.858
X202.0Y1.858
X203.0Y48.0
X204.0Y23.958
X204.0Y21.958
X205.0Y49.0
X208.0Y23.958
X208.0Y21.958
X208.0Y8.0
X208.6Y5.858
X208.6Y2.858
X210.0Y8.0
X212.0Y19.958
X212.0Y10.0
X212.0Y8.0
X213.2Y5.858
X213.2Y2.858
X214.0Y19.958
X214.0Y12.0
X214.0Y10.0
X214.0Y8.0
X216.0Y19.958
X216.0Y12.0
X216.0Y10.0
X216.0Y8.0
X218.0Y19.958
X218.0Y12.0
X218.0Y10.0
X218.0Y8.0
X218.0Y5.858
X218.0Y1.858
X220.0Y12.0
X220.0Y10.0
X220.0Y8.0
X221.0Y20.958
X221.0Y19.958
X221.0Y18.958
X222.0Y12.0
X222.0Y10.0
X222.0Y1.858
X224.0Y18.758
X224.0Y10.0
X225.75Y14.408
X226.0Y10.0
X226.0Y1.858
X227.2Y51.858
X228.0Y18.758
X229.2Y49.708
X231.2Y51.858
X232.0Y18.758
X233.2Y53.858
X234.8Y10.158
X236.0Y18.758
X236.7Y8.358
X237.2Y53.858
X240.0Y18.758
X240.0Y3.958
X240.0Y1.958
X241.2Y53.858
X242.0Y18.758
X242.0Y1.958
X245.2Y53.858
X246.0Y18.758
X247.2Y4.4
X248.0Y21.958
X248.0Y19.958
X248.0Y18.758
X249.2Y53.858
X250.0Y23.958
X250.0Y21.958
X250.0Y19.958
X252.0Y21.958
X252.0Y19.958
X252.0Y7.958
X252.0Y5.958
X252.0Y3.958
X252.0Y1.958
X253.2Y53.858
X254.0Y23.958
X254.0Y21.958
X254.0Y19.958
X254.0Y16.958
X254.0Y14.958
X254.0Y9.958
X254.0Y7.958
X254.0Y5.958
X254.0Y3.958
X254.0Y1.958
X255.0Y29.958
X255.0Y27.958
X256.0Y54.0
X256.0Y50.0
X256.0Y45.958
X256.0Y41.958
X256.0Y37.958
X256.0Y33.958
X256.0Y11.958
X256.0Y9.958
X256.0Y7.958
X256.0Y5.958
X256.0Y3.958
X256.0Y1.958
X258.8Y45.958
X258.8Y41.958
X258.8Y37.958
X258.8Y33.958
X258.8Y29.958
X260.0Y54.0
X260.0Y7.958
X260.0Y5.958
X260.0Y3.958
X260.0Y1.958
X261.975Y41.958
X261.975Y39.958
X261.975Y28.958
X261.975Y25.958
X262.0Y48.0
X262.0Y46.0
X262.0Y21.958
X262.0Y7.958
X262.0Y5.958
X262.0Y3.958
X262.0Y1.958
X263.975Y41.958
X263.975Y39.958
X264.0Y50.0
X266.0Y48.0
X266.0Y46.0
X266.775Y21.958
X268.0Y5.958
X268.0Y2.958
X270.0Y5.958
X270.0Y2.958
X270.775Y21.958
X272.0Y9.958
X274.0Y9.958
X274.0Y5.958
X274.0Y2.958
X274.775Y21.958
X274.8Y17.958
X276.0Y7.958
X278.0Y7.958
X278.0Y5.958
X278.0Y1.958
X279.299Y11.434
X280.0Y7.958
X280.0Y5.958
X280.0Y1.958
X282.0Y15.958
X282.0Y1.958
X284.0Y52.0
X284.0Y1.958
X286.0Y15.958
X286.0Y13.958
X288.0Y54.0
X288.0Y52.0
X288.0Y50.0
X289.975Y49.808
X290.0Y54.0
X290.0Y52.0
X290.0Y15.958
X290.7Y12.3
X291.975Y17.958
X292.2Y10.3
X294.0Y54.0
X294.0Y18.958
X296.0Y18.958
X296.0Y5.958
X296.0Y1.958
X298.0Y54.0
X298.0Y18.958
X300.0Y18.958
X301.975Y20.958
X302.0Y54.0
X304.7Y21.3
X306.0Y54.0
X310.0Y54.0
X310.0Y22.0
X310.0Y20.0
X312.0Y20.0
X314.0Y22.0
X314.0Y20.0
X316.0Y22.0
X316.0Y20.0
X317.475Y30.458
X317.475Y27.458
X318.0Y22.0
X318.0Y20.0
X319.0Y45.958
X319.0Y37.958
X319.0Y33.958
T3
X84.495Y19.458
X84.495Y17.258
X84.495Y15.058
X84.495Y12.858
X86.395Y19.458
X86.395Y17.258
X86.395Y15.058
X86.395Y12.858
X144.095Y19.158
X144.095Y16.958
X144.095Y14.658
X144.095Y11.958
X145.995Y19.158
X145.995Y16.958
X145.995Y14.658
X145.995Y11.958
X205.195Y18.058
X205.195Y15.358
X205.195Y13.158
X205.195Y10.958
X207.095Y18.058
X207.095Y15.358
X207.095Y13.158
X207.095Y10.958
X264.295Y17.758
X264.295Y15.558
X264.3Y13.458
X264.3Y11.158
X266.195Y17.758
X266.195Y15.558
X266.2Y13.458
X266.2Y11.158
T4
X1.6Y28.498
X1.6Y25.958
X1.6Y23.418
X1.6Y20.878
X1.6Y18.338
X1.6Y15.798
X1.6Y13.258
X1.6Y10.718
X9.22Y28.498
X9.22Y25.958
X9.22Y23.418
X9.22Y20.878
X9.22Y18.338
X9.22Y15.798
X9.22Y13.258
X9.22Y10.718
X17.68Y34.688
X17.68Y32.148
X17.68Y29.608
X17.68Y27.068
X17.68Y24.528
X17.68Y21.988
X17.68Y19.448
X17.68Y16.908
X17.68Y14.368
X17.68Y11.828
X17.68Y9.288
X17.68Y6.748
X17.68Y4.208
X17.68Y1.668
X25.3Y34.688
X25.3Y32.148
X25.3Y29.608
X25.3Y27.068
X25.3Y24.528
X25.3Y21.988
X25.3Y19.448
X25.3Y16.908
X25.3Y14.368
X25.3Y11.828
X25.3Y9.288
X25.3Y6.748
X25.3Y4.208
X25.3Y1.668
X30.365Y47.178
X30.365Y44.638
X30.365Y42.098
X30.365Y39.558
X30.365Y37.018
X30.365Y34.478
X30.365Y31.938
X30.365Y29.398
X30.365Y26.858
X30.365Y24.318
X30.365Y21.778
X30.365Y19.238
X30.365Y16.698
X30.365Y14.158
X30.365Y11.618
X30.365Y9.078
X30.365Y6.538
X30.365Y3.998
X30.365Y1.458
X55.765Y47.178
X55.765Y44.638
X55.765Y42.098
X55.765Y39.558
X55.765Y37.018
X55.765Y34.478
X55.765Y31.938
X55.765Y29.398
X55.765Y26.858
X55.765Y24.318
X55.765Y21.778
X55.765Y19.238
X55.765Y16.698
X55.765Y14.158
X55.765Y11.618
X55.765Y9.078
X55.765Y6.538
X55.765Y3.998
X55.765Y1.458
T5
X87.7Y50.958
X90.2Y50.958
X92.7Y50.958
X95.2Y50.958
X97.7Y50.958
X100.2Y50.958
X102.7Y50.958
X114.7Y50.958
X117.2Y50.958
X119.7Y50.958
X122.2Y50.958
X124.7Y50.958
X127.2Y50.958
X129.7Y50.958
X147.2Y50.958
X149.7Y50.958
X152.2Y50.958
X154.7Y50.958
X157.2Y50.958
X159.7Y50.958
X162.2Y50.958
X173.6Y50.958
X176.1Y50.958
X178.6Y50.958
X181.1Y50.958
X183.6Y50.958
X186.1Y50.958
X188.6Y50.958
X207.15Y50.958
X209.65Y50.958
X212.15Y50.958
X214.65Y50.958
X217.15Y50.958
X219.65Y50.958
X222.15Y50.958
X235.2Y50.958
X237.7Y50.958
X240.2Y50.958
X242.7Y50.958
X245.2Y50.958
X247.7Y50.958
X250.2Y50.958
X265.4Y51.0
X267.9Y51.0
X270.4Y51.0
X272.9Y51.0
X275.4Y51.0
X277.9Y51.0
X280.4Y51.0
X292.3Y51.025
X294.8Y51.025
X297.3Y51.025
X299.8Y51.025
X302.3Y51.025
X304.8Y51.025
X307.3Y51.025
T6
X1.9Y45.098
X1.9Y42.558
X1.9Y40.018
X1.9Y37.478
T7
X72.0Y38.75
X72.0Y33.25
T8
X72.45Y6.916
X72.45Y2.956
X82.55Y6.961
X82.55Y3.001
X315.75Y15.957
X315.75Y11.997
T9
X4.0Y50.958
X4.0Y3.958
X71.0Y50.958
X138.4Y50.958
X172.7Y3.958
X234.1Y3.958
X316.0Y51.0
X316.0Y4.0
M30
