M48
; DRILL file {KiCad 8.0.4} date 2024-09-13T15:55:04+0900
; FORMAT={-:-/ absolute / metric / decimal}
; #@! TF.CreationDate,2024-09-13T15:55:04+09:00
; #@! TF.GenerationSoftware,Kicad,Pcbnew,8.0.4
; #@! TF.FileFunction,Plated,1,2,PTH
FMAT,2
METRIC
; #@! TA.AperFunction,Plated,PTH,ViaDrill
T1C0.300
; #@! TA.AperFunction,Plated,PTH,ViaDrill
T2C0.400
; #@! TA.AperFunction,Plated,PTH,ComponentDrill
T3C0.700
; #@! TA.AperFunction,Plated,PTH,ComponentDrill
T4C0.950
; #@! TA.AperFunction,Plated,PTH,ComponentDrill
T5C1.700
%
G90
G05
T1
X244.05Y-141.242
X248.75Y-141.242
X253.55Y-141.242
X258.15Y-141.242
X262.4Y-149.529
X262.4Y-156.929
X262.85Y-141.242
X267.55Y-141.242
X272.15Y-141.242
X276.95Y-141.242
X281.55Y-141.242
X286.15Y-141.242
X290.85Y-141.242
X306.975Y-141.1
X311.575Y-141.1
X315.9Y-150.8
X315.9Y-159.8
X316.275Y-141.1
X320.975Y-141.1
X325.675Y-141.1
X330.275Y-141.1
X334.975Y-141.1
X339.575Y-141.1
X344.275Y-141.1
X348.875Y-141.1
X353.575Y-141.1
T2
X235.7Y-128.0
X235.7Y-148.3
X235.75Y-132.05
X235.75Y-136.05
X235.75Y-140.05
X235.75Y-144.05
X238.0Y-128.0
X238.0Y-130.0
X238.0Y-132.1
X238.0Y-136.042
X238.0Y-140.042
X238.0Y-144.042
X238.0Y-146.0
X238.0Y-148.0
X239.25Y-141.142
X239.25Y-144.142
X240.0Y-128.0
X240.0Y-130.0
X240.0Y-146.0
X240.0Y-148.0
X242.0Y-128.0
X242.0Y-130.0
X242.0Y-146.0
X242.0Y-148.0
X243.6Y-115.8
X244.0Y-146.0
X244.0Y-148.0
X246.0Y-146.0
X248.0Y-146.0
X256.0Y-158.0
X256.0Y-160.0
X256.25Y-148.95
X257.9Y-148.95
X258.0Y-158.0
X258.0Y-160.0
X258.0Y-162.0
X258.0Y-164.0
X258.0Y-166.0
X258.0Y-168.0
X259.5Y-148.95
X260.0Y-160.0
X261.0Y-150.225
X262.0Y-158.0
X263.0Y-164.0
X265.0Y-164.0
X265.0Y-167.0
X265.8Y-155.592
X265.8Y-158.3
X267.0Y-164.0
X267.25Y-118.142
X269.025Y-151.225
X269.25Y-120.292
X271.25Y-118.142
X272.05Y-151.242
X273.25Y-116.142
X274.0Y-164.0
X274.0Y-168.0
X276.0Y-164.0
X276.0Y-168.0
X276.05Y-151.242
X276.75Y-161.642
X277.25Y-116.142
X278.0Y-164.0
X278.0Y-168.0
X280.05Y-151.242
X280.05Y-168.042
X281.25Y-116.142
X282.05Y-151.242
X282.05Y-168.042
X285.25Y-116.142
X289.25Y-116.142
X290.05Y-146.042
X290.05Y-148.042
X292.05Y-148.042
X292.05Y-150.042
X293.0Y-163.0
X293.0Y-165.0
X293.0Y-167.0
X293.0Y-169.0
X293.25Y-116.142
X294.05Y-146.042
X294.05Y-148.042
X294.05Y-150.042
X294.05Y-153.042
X294.05Y-155.042
X294.05Y-160.5
X295.05Y-140.042
X295.05Y-142.042
X296.05Y-116.0
X296.05Y-120.0
X296.05Y-124.042
X296.05Y-128.042
X296.05Y-132.042
X296.05Y-136.042
X296.05Y-158.042
X296.05Y-160.5
X299.2Y-160.5
X300.0Y-115.958
X301.0Y-160.5
X301.975Y-128.0
X301.975Y-130.0
X301.975Y-141.0
X301.975Y-144.0
X302.0Y-121.958
X302.0Y-123.958
X302.0Y-148.0
X303.0Y-160.5
X303.0Y-163.0
X303.0Y-165.0
X303.0Y-167.0
X303.0Y-169.0
X303.975Y-128.0
X303.975Y-130.0
X304.0Y-119.958
X306.0Y-121.958
X306.0Y-123.958
X306.775Y-148.0
X308.0Y-164.0
X308.0Y-167.0
X308.0Y-169.5
X310.0Y-161.5
X310.0Y-164.0
X310.0Y-167.0
X310.0Y-169.5
X310.775Y-148.0
X312.0Y-160.0
X312.0Y-161.5
X314.0Y-160.0
X314.0Y-161.5
X314.0Y-164.0
X314.0Y-167.0
X314.775Y-148.0
X315.5Y-165.5
X316.0Y-162.0
X318.0Y-162.0
X318.0Y-164.0
X318.0Y-168.0
X319.299Y-158.524
X320.0Y-162.0
X320.0Y-164.0
X320.0Y-168.0
X322.0Y-154.0
X322.0Y-168.0
X324.0Y-117.958
X324.0Y-168.0
X326.0Y-154.0
X326.0Y-156.0
X326.0Y-169.5
X328.0Y-115.958
X328.0Y-117.958
X328.0Y-119.958
X329.975Y-120.15
X330.0Y-115.958
X330.0Y-117.958
X330.0Y-154.0
X330.7Y-157.658
X330.8Y-165.5
X331.0Y-169.5
X331.975Y-152.0
X332.2Y-159.658
X334.0Y-115.958
X334.0Y-151.0
X336.0Y-151.0
X336.0Y-162.5
X336.0Y-164.0
X336.0Y-166.0
X336.0Y-168.0
X336.0Y-169.5
X338.0Y-115.958
X338.0Y-151.0
X340.0Y-151.0
X341.975Y-149.0
X342.0Y-115.958
X344.7Y-148.658
X346.0Y-115.958
X350.0Y-115.958
X350.0Y-147.958
X350.0Y-149.958
X352.0Y-149.958
X354.0Y-147.958
X354.0Y-149.958
X356.0Y-147.958
X356.0Y-149.958
X357.475Y-139.5
X357.475Y-142.5
X358.0Y-147.958
X358.0Y-149.958
X359.4Y-123.95
X359.4Y-131.875
X359.4Y-136.075
X359.45Y-127.4
T3
X249.545Y-150.1
X249.545Y-152.2
X249.545Y-156.9
X249.55Y-154.3
X251.445Y-150.1
X251.445Y-152.2
X251.445Y-156.9
X251.45Y-154.3
X304.295Y-152.2
X304.295Y-154.4
X304.3Y-156.5
X304.3Y-158.8
X306.195Y-152.2
X306.195Y-154.4
X306.2Y-156.5
X306.2Y-158.8
T4
X247.2Y-119.042
X249.7Y-119.042
X252.2Y-119.042
X254.7Y-119.042
X257.2Y-119.042
X259.7Y-119.042
X262.2Y-119.042
X275.25Y-119.042
X277.75Y-119.042
X280.25Y-119.042
X282.75Y-119.042
X285.25Y-119.042
X287.75Y-119.042
X290.25Y-119.042
X305.4Y-118.958
X307.9Y-118.958
X310.4Y-118.958
X312.9Y-118.958
X315.4Y-118.958
X317.9Y-118.958
X320.4Y-118.958
X333.15Y-118.925
X335.65Y-118.925
X338.15Y-118.925
X340.65Y-118.925
X343.15Y-118.925
X345.65Y-118.925
X348.15Y-118.925
T5
X239.3Y-154.097
X239.3Y-158.058
X355.75Y-153.951
X355.75Y-157.911
M30
