%TF.GenerationSoftware,KiCad,Pcbnew,8.0.3*%
%TF.CreationDate,2024-06-10T17:44:00+09:00*%
%TF.ProjectId,ESP32_Master,45535033-325f-44d6-9173-7465722e6b69,rev?*%
%TF.SameCoordinates,Original*%
%TF.FileFunction,Paste,Top*%
%TF.FilePolarity,Positive*%
%FSLAX46Y46*%
G04 Gerber Fmt 4.6, Leading zero omitted, Abs format (unit mm)*
G04 Created by KiCad (PCBNEW 8.0.3) date 2024-06-10 17:44:00*
%MOMM*%
%LPD*%
G01*
G04 APERTURE LIST*
G04 Aperture macros list*
%AMRoundRect*
0 Rectangle with rounded corners*
0 $1 Rounding radius*
0 $2 $3 $4 $5 $6 $7 $8 $9 X,Y pos of 4 corners*
0 Add a 4 corners polygon primitive as box body*
4,1,4,$2,$3,$4,$5,$6,$7,$8,$9,$2,$3,0*
0 Add four circle primitives for the rounded corners*
1,1,$1+$1,$2,$3*
1,1,$1+$1,$4,$5*
1,1,$1+$1,$6,$7*
1,1,$1+$1,$8,$9*
0 Add four rect primitives between the rounded corners*
20,1,$1+$1,$2,$3,$4,$5,0*
20,1,$1+$1,$4,$5,$6,$7,0*
20,1,$1+$1,$6,$7,$8,$9,0*
20,1,$1+$1,$8,$9,$2,$3,0*%
G04 Aperture macros list end*
%ADD10RoundRect,0.200000X0.200000X0.275000X-0.200000X0.275000X-0.200000X-0.275000X0.200000X-0.275000X0*%
%ADD11RoundRect,0.200000X-0.200000X-0.275000X0.200000X-0.275000X0.200000X0.275000X-0.200000X0.275000X0*%
%ADD12RoundRect,0.218750X-0.218750X-0.256250X0.218750X-0.256250X0.218750X0.256250X-0.218750X0.256250X0*%
%ADD13RoundRect,0.250000X-0.262500X-0.450000X0.262500X-0.450000X0.262500X0.450000X-0.262500X0.450000X0*%
%ADD14RoundRect,0.162500X0.162500X-1.012500X0.162500X1.012500X-0.162500X1.012500X-0.162500X-1.012500X0*%
%ADD15RoundRect,0.250000X0.450000X-0.262500X0.450000X0.262500X-0.450000X0.262500X-0.450000X-0.262500X0*%
%ADD16RoundRect,0.225000X-0.250000X0.225000X-0.250000X-0.225000X0.250000X-0.225000X0.250000X0.225000X0*%
%ADD17RoundRect,0.225000X0.225000X0.250000X-0.225000X0.250000X-0.225000X-0.250000X0.225000X-0.250000X0*%
%ADD18RoundRect,0.250000X-0.250000X-0.475000X0.250000X-0.475000X0.250000X0.475000X-0.250000X0.475000X0*%
%ADD19RoundRect,0.200000X0.275000X-0.200000X0.275000X0.200000X-0.275000X0.200000X-0.275000X-0.200000X0*%
%ADD20RoundRect,0.150000X-0.150000X0.825000X-0.150000X-0.825000X0.150000X-0.825000X0.150000X0.825000X0*%
%ADD21RoundRect,0.225000X-0.225000X-0.250000X0.225000X-0.250000X0.225000X0.250000X-0.225000X0.250000X0*%
%ADD22RoundRect,0.200000X-0.275000X0.200000X-0.275000X-0.200000X0.275000X-0.200000X0.275000X0.200000X0*%
%ADD23RoundRect,0.225000X0.250000X-0.225000X0.250000X0.225000X-0.250000X0.225000X-0.250000X-0.225000X0*%
%ADD24RoundRect,0.250000X0.262500X0.450000X-0.262500X0.450000X-0.262500X-0.450000X0.262500X-0.450000X0*%
%ADD25RoundRect,0.075000X-0.075000X0.650000X-0.075000X-0.650000X0.075000X-0.650000X0.075000X0.650000X0*%
%ADD26RoundRect,0.225000X0.375000X-0.225000X0.375000X0.225000X-0.375000X0.225000X-0.375000X-0.225000X0*%
%ADD27R,0.640000X1.905000*%
%ADD28RoundRect,0.150000X0.150000X-0.512500X0.150000X0.512500X-0.150000X0.512500X-0.150000X-0.512500X0*%
%ADD29RoundRect,0.150000X-0.150000X0.512500X-0.150000X-0.512500X0.150000X-0.512500X0.150000X0.512500X0*%
%ADD30R,1.020000X1.950000*%
%ADD31R,1.100000X1.300000*%
%ADD32RoundRect,0.150000X0.150000X-0.587500X0.150000X0.587500X-0.150000X0.587500X-0.150000X-0.587500X0*%
%ADD33RoundRect,0.218750X0.218750X0.256250X-0.218750X0.256250X-0.218750X-0.256250X0.218750X-0.256250X0*%
%ADD34RoundRect,0.250000X0.250000X0.475000X-0.250000X0.475000X-0.250000X-0.475000X0.250000X-0.475000X0*%
%ADD35RoundRect,0.450000X0.450000X-0.550000X0.450000X0.550000X-0.450000X0.550000X-0.450000X-0.550000X0*%
%ADD36R,1.905000X0.640000*%
%ADD37RoundRect,0.162500X-0.162500X0.617500X-0.162500X-0.617500X0.162500X-0.617500X0.162500X0.617500X0*%
%ADD38R,1.400000X0.300000*%
G04 APERTURE END LIST*
D10*
%TO.C,R17*%
X131725000Y-88300000D03*
X130075000Y-88300000D03*
%TD*%
D11*
%TO.C,R47*%
X98075000Y-103800000D03*
X99725000Y-103800000D03*
%TD*%
D12*
%TO.C,D3*%
X100097500Y-148900000D03*
X101672500Y-148900000D03*
%TD*%
D13*
%TO.C,R15*%
X112237500Y-141900000D03*
X114062500Y-141900000D03*
%TD*%
D14*
%TO.C,U10*%
X95300000Y-78750000D03*
X97840000Y-78750000D03*
X100380000Y-78750000D03*
X102920000Y-78750000D03*
X102920000Y-69700000D03*
X100380000Y-69700000D03*
X97840000Y-69700000D03*
X95300000Y-69700000D03*
%TD*%
D15*
%TO.C,R14*%
X112200000Y-145650000D03*
X112200000Y-143825000D03*
%TD*%
D16*
%TO.C,C19*%
X98480000Y-86725000D03*
X98480000Y-88275000D03*
%TD*%
%TO.C,C16*%
X104695000Y-88325000D03*
X104695000Y-89875000D03*
%TD*%
D17*
%TO.C,C12*%
X110730000Y-119000000D03*
X109180000Y-119000000D03*
%TD*%
D18*
%TO.C,C13*%
X102200000Y-121900000D03*
X104100000Y-121900000D03*
%TD*%
D17*
%TO.C,C29*%
X95300000Y-81200000D03*
X93750000Y-81200000D03*
%TD*%
D19*
%TO.C,R27*%
X112305000Y-116025000D03*
X112305000Y-114375000D03*
%TD*%
D17*
%TO.C,C15*%
X113830000Y-117600000D03*
X112280000Y-117600000D03*
%TD*%
D20*
%TO.C,U5*%
X116265000Y-100145000D03*
X114995000Y-100145000D03*
X113725000Y-100145000D03*
X112455000Y-100145000D03*
X112455000Y-105095000D03*
X113725000Y-105095000D03*
X114995000Y-105095000D03*
X116265000Y-105095000D03*
%TD*%
D19*
%TO.C,R45*%
X94750000Y-109365000D03*
X94750000Y-107715000D03*
%TD*%
D21*
%TO.C,C7*%
X112325000Y-136600000D03*
X113875000Y-136600000D03*
%TD*%
D19*
%TO.C,R26*%
X113855000Y-116025000D03*
X113855000Y-114375000D03*
%TD*%
D22*
%TO.C,R22*%
X113855000Y-119075000D03*
X113855000Y-120725000D03*
%TD*%
D21*
%TO.C,C31*%
X93750000Y-66400000D03*
X95300000Y-66400000D03*
%TD*%
%TO.C,C33*%
X55625000Y-75725000D03*
X57175000Y-75725000D03*
%TD*%
%TO.C,C25*%
X102200000Y-115800000D03*
X103750000Y-115800000D03*
%TD*%
D11*
%TO.C,R21*%
X110770000Y-89900000D03*
X112420000Y-89900000D03*
%TD*%
D23*
%TO.C,C4*%
X128500000Y-89875000D03*
X128500000Y-88325000D03*
%TD*%
D18*
%TO.C,C27*%
X102200000Y-113550000D03*
X104100000Y-113550000D03*
%TD*%
D24*
%TO.C,R12*%
X115912500Y-145650000D03*
X114087500Y-145650000D03*
%TD*%
D25*
%TO.C,U9*%
X96700000Y-99540000D03*
X96200000Y-99540000D03*
X95700000Y-99540000D03*
X95200000Y-99540000D03*
X94700000Y-99540000D03*
X94200000Y-99540000D03*
X93700000Y-99540000D03*
X93200000Y-99540000D03*
X93200000Y-103840000D03*
X93700000Y-103840000D03*
X94200000Y-103840000D03*
X94700000Y-103840000D03*
X95200000Y-103840000D03*
X95700000Y-103840000D03*
X96200000Y-103840000D03*
X96700000Y-103840000D03*
%TD*%
D26*
%TO.C,D5*%
X104730000Y-139050000D03*
X104730000Y-135750000D03*
%TD*%
D11*
%TO.C,R30*%
X101570000Y-88300000D03*
X103220000Y-88300000D03*
%TD*%
D17*
%TO.C,C2*%
X102200000Y-140800000D03*
X100650000Y-140800000D03*
%TD*%
D10*
%TO.C,R35*%
X93425000Y-92600000D03*
X91775000Y-92600000D03*
%TD*%
D19*
%TO.C,R28*%
X113855000Y-111425000D03*
X113855000Y-109775000D03*
%TD*%
D10*
%TO.C,R48*%
X93425000Y-95800000D03*
X91775000Y-95800000D03*
%TD*%
D27*
%TO.C,U3*%
X111195000Y-134447500D03*
X112465000Y-134447500D03*
X113735000Y-134447500D03*
X115005000Y-134447500D03*
X115005000Y-123752500D03*
X113735000Y-123752500D03*
X112465000Y-123752500D03*
X111195000Y-123752500D03*
%TD*%
D18*
%TO.C,C24*%
X64400000Y-121490000D03*
X66300000Y-121490000D03*
%TD*%
D28*
%TO.C,U4*%
X101250000Y-119927500D03*
X102200000Y-119927500D03*
X103150000Y-119927500D03*
X103150000Y-117652500D03*
X101250000Y-117652500D03*
%TD*%
D10*
%TO.C,R25*%
X107820000Y-89900000D03*
X106170000Y-89900000D03*
%TD*%
D29*
%TO.C,U1*%
X102165000Y-142737500D03*
X101215000Y-142737500D03*
X100265000Y-142737500D03*
X100265000Y-145012500D03*
X102165000Y-145012500D03*
%TD*%
D19*
%TO.C,R19*%
X112300000Y-139825000D03*
X112300000Y-138175000D03*
%TD*%
D17*
%TO.C,C18*%
X99175000Y-93050000D03*
X97625000Y-93050000D03*
%TD*%
%TO.C,C17*%
X113880000Y-112900000D03*
X112330000Y-112900000D03*
%TD*%
D23*
%TO.C,C32*%
X54850000Y-73450000D03*
X54850000Y-71900000D03*
%TD*%
D22*
%TO.C,R43*%
X56400000Y-71850000D03*
X56400000Y-73500000D03*
%TD*%
%TO.C,R18*%
X113900000Y-138175000D03*
X113900000Y-139825000D03*
%TD*%
D11*
%TO.C,R38*%
X63587500Y-136270000D03*
X65237500Y-136270000D03*
%TD*%
D10*
%TO.C,R24*%
X107820000Y-88300000D03*
X106170000Y-88300000D03*
%TD*%
D30*
%TO.C,TR2*%
X96490000Y-121280000D03*
X93950000Y-121280000D03*
X91410000Y-121280000D03*
X96490000Y-136920000D03*
X93950000Y-136920000D03*
X91410000Y-136920000D03*
%TD*%
D31*
%TO.C,TR1*%
X104730000Y-124510000D03*
X102190000Y-124510000D03*
X99650000Y-124510000D03*
X99650000Y-133650000D03*
X102190000Y-133650000D03*
X104730000Y-133650000D03*
%TD*%
D22*
%TO.C,R23*%
X112305000Y-119075000D03*
X112305000Y-120725000D03*
%TD*%
D23*
%TO.C,C26*%
X102190000Y-139050000D03*
X102190000Y-137500000D03*
%TD*%
D17*
%TO.C,C6*%
X108850000Y-134300000D03*
X107300000Y-134300000D03*
%TD*%
D18*
%TO.C,C10*%
X64400000Y-119390000D03*
X66300000Y-119390000D03*
%TD*%
D16*
%TO.C,C14*%
X109295000Y-88325000D03*
X109295000Y-89875000D03*
%TD*%
D17*
%TO.C,C22*%
X95300000Y-82900000D03*
X93750000Y-82900000D03*
%TD*%
D23*
%TO.C,C34*%
X93950000Y-116915000D03*
X93950000Y-115365000D03*
%TD*%
D32*
%TO.C,D2*%
X98150000Y-66837500D03*
X100050000Y-66837500D03*
X99100000Y-64962500D03*
%TD*%
D17*
%TO.C,C5*%
X124075000Y-93500000D03*
X122525000Y-93500000D03*
%TD*%
D23*
%TO.C,C35*%
X93950000Y-113715000D03*
X93950000Y-112165000D03*
%TD*%
D10*
%TO.C,R36*%
X93425000Y-94200000D03*
X91775000Y-94200000D03*
%TD*%
D33*
%TO.C,D1*%
X71087500Y-117290000D03*
X69512500Y-117290000D03*
%TD*%
D24*
%TO.C,R11*%
X119412500Y-145650000D03*
X117587500Y-145650000D03*
%TD*%
D10*
%TO.C,R1*%
X68025000Y-117290000D03*
X66375000Y-117290000D03*
%TD*%
D34*
%TO.C,C1*%
X102165000Y-147025000D03*
X100265000Y-147025000D03*
%TD*%
D35*
%TO.C,L1*%
X64400000Y-128490000D03*
X64400000Y-123990000D03*
%TD*%
D11*
%TO.C,R34*%
X113830000Y-108300000D03*
X115480000Y-108300000D03*
%TD*%
D22*
%TO.C,R32*%
X100100000Y-88275000D03*
X100100000Y-89925000D03*
%TD*%
D26*
%TO.C,D4*%
X99650000Y-139050000D03*
X99650000Y-135750000D03*
%TD*%
D16*
%TO.C,C71*%
X109000000Y-100425000D03*
X109000000Y-101975000D03*
%TD*%
D10*
%TO.C,R33*%
X112380000Y-108300000D03*
X110730000Y-108300000D03*
%TD*%
D23*
%TO.C,C20*%
X98500000Y-91450000D03*
X98500000Y-89900000D03*
%TD*%
D36*
%TO.C,U2*%
X125647500Y-91005000D03*
X125647500Y-89735000D03*
X125647500Y-88465000D03*
X125647500Y-87195000D03*
X114952500Y-87195000D03*
X114952500Y-88465000D03*
X114952500Y-89735000D03*
X114952500Y-91005000D03*
%TD*%
D19*
%TO.C,R29*%
X112305000Y-111425000D03*
X112305000Y-109775000D03*
%TD*%
D22*
%TO.C,R46*%
X93150000Y-107715000D03*
X93150000Y-109365000D03*
%TD*%
D16*
%TO.C,C28*%
X67222500Y-132195000D03*
X67222500Y-133745000D03*
%TD*%
D24*
%TO.C,R9*%
X122912500Y-145650000D03*
X121087500Y-145650000D03*
%TD*%
D37*
%TO.C,U7*%
X65502500Y-131020000D03*
X64552500Y-131020000D03*
X63602500Y-131020000D03*
X63602500Y-133720000D03*
X64552500Y-133720000D03*
X65502500Y-133720000D03*
%TD*%
D11*
%TO.C,R10*%
X103100000Y-148900000D03*
X104750000Y-148900000D03*
%TD*%
D10*
%TO.C,R16*%
X131725000Y-89900000D03*
X130075000Y-89900000D03*
%TD*%
D23*
%TO.C,C23*%
X110600000Y-101975000D03*
X110600000Y-100425000D03*
%TD*%
D10*
%TO.C,R44*%
X99725000Y-105600000D03*
X98075000Y-105600000D03*
%TD*%
D21*
%TO.C,C8*%
X114950000Y-93200000D03*
X116500000Y-93200000D03*
%TD*%
D38*
%TO.C,U6*%
X90600000Y-88875000D03*
X90600000Y-89375000D03*
X90600000Y-89875000D03*
X90600000Y-90375000D03*
X90600000Y-90875000D03*
X95000000Y-90875000D03*
X95000000Y-90375000D03*
X95000000Y-89875000D03*
X95000000Y-89375000D03*
X95000000Y-88875000D03*
%TD*%
D11*
%TO.C,R20*%
X110770000Y-88300000D03*
X112420000Y-88300000D03*
%TD*%
D16*
%TO.C,C3*%
X61732500Y-131010000D03*
X61732500Y-132560000D03*
%TD*%
D21*
%TO.C,C11*%
X114950000Y-94800000D03*
X116500000Y-94800000D03*
%TD*%
D17*
%TO.C,C30*%
X95300000Y-64800000D03*
X93750000Y-64800000D03*
%TD*%
D11*
%TO.C,R31*%
X101570000Y-89900000D03*
X103220000Y-89900000D03*
%TD*%
D16*
%TO.C,C37*%
X91400000Y-103900000D03*
X91400000Y-105450000D03*
%TD*%
D23*
%TO.C,C21*%
X95000000Y-94125000D03*
X95000000Y-92575000D03*
%TD*%
D11*
%TO.C,R37*%
X63587500Y-137970000D03*
X65237500Y-137970000D03*
%TD*%
D23*
%TO.C,C36*%
X89800000Y-105450000D03*
X89800000Y-103900000D03*
%TD*%
D17*
%TO.C,C9*%
X110730000Y-120600000D03*
X109180000Y-120600000D03*
%TD*%
M02*
