%TF.GenerationSoftware,KiCad,Pcbnew,8.0.3*%
%TF.CreationDate,2024-06-10T17:44:00+09:00*%
%TF.ProjectId,ESP32_Master,45535033-325f-44d6-9173-7465722e6b69,rev?*%
%TF.SameCoordinates,Original*%
%TF.FileFunction,Copper,L2,Bot*%
%TF.FilePolarity,Positive*%
%FSLAX46Y46*%
G04 Gerber Fmt 4.6, Leading zero omitted, Abs format (unit mm)*
G04 Created by KiCad (PCBNEW 8.0.3) date 2024-06-10 17:44:00*
%MOMM*%
%LPD*%
G01*
G04 APERTURE LIST*
G04 Aperture macros list*
%AMRoundRect*
0 Rectangle with rounded corners*
0 $1 Rounding radius*
0 $2 $3 $4 $5 $6 $7 $8 $9 X,Y pos of 4 corners*
0 Add a 4 corners polygon primitive as box body*
4,1,4,$2,$3,$4,$5,$6,$7,$8,$9,$2,$3,0*
0 Add four circle primitives for the rounded corners*
1,1,$1+$1,$2,$3*
1,1,$1+$1,$4,$5*
1,1,$1+$1,$6,$7*
1,1,$1+$1,$8,$9*
0 Add four rect primitives between the rounded corners*
20,1,$1+$1,$2,$3,$4,$5,0*
20,1,$1+$1,$4,$5,$6,$7,0*
20,1,$1+$1,$6,$7,$8,$9,0*
20,1,$1+$1,$8,$9,$2,$3,0*%
%AMOutline4P*
0 Free polygon, 4 corners , with rotation*
0 The origin of the aperture is its center*
0 number of corners: always 4*
0 $1 to $8 corner X, Y*
0 $9 Rotation angle, in degrees counterclockwise*
0 create outline with 4 corners*
4,1,4,$1,$2,$3,$4,$5,$6,$7,$8,$1,$2,$9*%
G04 Aperture macros list end*
%TA.AperFunction,ComponentPad*%
%ADD10RoundRect,0.250001X1.099999X1.099999X-1.099999X1.099999X-1.099999X-1.099999X1.099999X-1.099999X0*%
%TD*%
%TA.AperFunction,ComponentPad*%
%ADD11C,2.700000*%
%TD*%
%TA.AperFunction,ComponentPad*%
%ADD12R,20.000000X15.000000*%
%TD*%
%TA.AperFunction,ComponentPad*%
%ADD13Outline4P,-10.000000X-2.500000X10.000000X-2.500000X5.000000X2.500000X-5.000000X2.500000X0.000000*%
%TD*%
%TA.AperFunction,ComponentPad*%
%ADD14R,10.000000X6.000000*%
%TD*%
%TA.AperFunction,ComponentPad*%
%ADD15Outline4P,-10.000000X-2.500000X10.000000X-2.500000X5.000000X2.500000X-5.000000X2.500000X180.000000*%
%TD*%
%TA.AperFunction,ComponentPad*%
%ADD16C,5.700000*%
%TD*%
%TA.AperFunction,ComponentPad*%
%ADD17R,1.700000X1.700000*%
%TD*%
%TA.AperFunction,ComponentPad*%
%ADD18O,1.700000X1.700000*%
%TD*%
%TA.AperFunction,ComponentPad*%
%ADD19R,1.600000X1.600000*%
%TD*%
%TA.AperFunction,ComponentPad*%
%ADD20O,1.600000X1.600000*%
%TD*%
%TA.AperFunction,ComponentPad*%
%ADD21RoundRect,0.250001X1.099999X-1.099999X1.099999X1.099999X-1.099999X1.099999X-1.099999X-1.099999X0*%
%TD*%
%TA.AperFunction,ComponentPad*%
%ADD22RoundRect,0.250001X-1.099999X1.099999X-1.099999X-1.099999X1.099999X-1.099999X1.099999X1.099999X0*%
%TD*%
%TA.AperFunction,ViaPad*%
%ADD23C,0.500000*%
%TD*%
%TA.AperFunction,ViaPad*%
%ADD24C,0.600000*%
%TD*%
%TA.AperFunction,Conductor*%
%ADD25C,0.500000*%
%TD*%
%TA.AperFunction,Conductor*%
%ADD26C,0.300000*%
%TD*%
G04 APERTURE END LIST*
D10*
%TO.P,J7,1,Pin_1*%
%TO.N,unconnected-(J7-Pin_1-Pad1)*%
X131200000Y-145650000D03*
D11*
%TO.P,J7,2,Pin_2*%
%TO.N,/PowerMonitor/BAT+*%
X127240000Y-145650000D03*
%TD*%
D12*
%TO.P,R13,1*%
%TO.N,GNDA*%
X139275000Y-109900000D03*
D13*
X139275000Y-99900000D03*
D14*
X139275000Y-94400000D03*
%TO.P,R13,2*%
%TO.N,/PowerMonitor/INN*%
X139275000Y-83600000D03*
D15*
X139275000Y-78100000D03*
D12*
X139275000Y-68100000D03*
%TD*%
D16*
%TO.P,J12,1,Pin_1*%
%TO.N,unconnected-(J12-Pin_1-Pad1)*%
X55000000Y-145100000D03*
%TD*%
D17*
%TO.P,J2,1,Pin_1*%
%TO.N,/CAN/CAN_GND*%
X102900000Y-62000000D03*
D18*
%TO.P,J2,2,Pin_2*%
%TO.N,/CAN/CANH*%
X100360000Y-62000000D03*
%TO.P,J2,3,Pin_3*%
%TO.N,/CAN/CANL*%
X97820000Y-62000000D03*
%TO.P,J2,4,Pin_4*%
%TO.N,/CAN/5V_CAN*%
X95280000Y-62000000D03*
%TD*%
D16*
%TO.P,J10,1,Pin_1*%
%TO.N,unconnected-(J10-Pin_1-Pad1)*%
X145000000Y-145000000D03*
%TD*%
D17*
%TO.P,J6,1,Pin_1*%
%TO.N,/MCU/MTMS*%
X57000000Y-97260000D03*
D18*
%TO.P,J6,2,Pin_2*%
%TO.N,/MCU/MTDI*%
X57000000Y-99800000D03*
%TO.P,J6,3,Pin_3*%
%TO.N,/MCU/MTCK*%
X57000000Y-102340000D03*
%TO.P,J6,4,Pin_4*%
%TO.N,/MCU/MTDO*%
X57000000Y-104880000D03*
%TD*%
D10*
%TO.P,J3,1,Pin_1*%
%TO.N,/PA*%
X95837500Y-145610000D03*
D11*
%TO.P,J3,2,Pin_2*%
%TO.N,/MA*%
X91877500Y-145610000D03*
%TD*%
D19*
%TO.P,U8,1,3V3*%
%TO.N,+3V3*%
X60900000Y-68240000D03*
D20*
%TO.P,U8,2,EN*%
%TO.N,/MCU/NRST*%
X60900000Y-70780000D03*
%TO.P,U8,3,SENSOR_VP*%
%TO.N,unconnected-(U8-SENSOR_VP-Pad3)*%
X60900000Y-73320000D03*
%TO.P,U8,4,SENSOR_VN*%
%TO.N,unconnected-(U8-SENSOR_VN-Pad4)*%
X60900000Y-75860000D03*
%TO.P,U8,5,IO34*%
%TO.N,unconnected-(U8-IO34-Pad5)*%
X60900000Y-78400000D03*
%TO.P,U8,6,IO35*%
%TO.N,unconnected-(U8-IO35-Pad6)*%
X60900000Y-80940000D03*
%TO.P,U8,7,IO32*%
%TO.N,unconnected-(U8-IO32-Pad7)*%
X60900000Y-83480000D03*
%TO.P,U8,8,IO33*%
%TO.N,unconnected-(U8-IO33-Pad8)*%
X60900000Y-86020000D03*
%TO.P,U8,9,IO25*%
%TO.N,unconnected-(U8-IO25-Pad9)*%
X60900000Y-88560000D03*
%TO.P,U8,10,IO26*%
%TO.N,unconnected-(U8-IO26-Pad10)*%
X60900000Y-91100000D03*
%TO.P,U8,11,IO27*%
%TO.N,unconnected-(U8-IO27-Pad11)*%
X60900000Y-93640000D03*
%TO.P,U8,12,IO14*%
%TO.N,/MCU/MTMS*%
X60900000Y-96180000D03*
%TO.P,U8,13,IO12*%
%TO.N,/MCU/MTDI*%
X60900000Y-98720000D03*
%TO.P,U8,14,GND*%
%TO.N,GND*%
X60900000Y-101260000D03*
%TO.P,U8,15,IO13*%
%TO.N,/MCU/MTCK*%
X60900000Y-103800000D03*
%TO.P,U8,16,SD2*%
%TO.N,unconnected-(U8-SD2-Pad16)*%
X60900000Y-106340000D03*
%TO.P,U8,17,SD3*%
%TO.N,unconnected-(U8-SD3-Pad17)*%
X60900000Y-108880000D03*
%TO.P,U8,18,CMD*%
%TO.N,unconnected-(U8-CMD-Pad18)*%
X60900000Y-111420000D03*
%TO.P,U8,19,5V*%
%TO.N,+5V*%
X60900000Y-113960000D03*
%TO.P,U8,20,CLK*%
%TO.N,unconnected-(U8-CLK-Pad20)*%
X86300000Y-113960000D03*
%TO.P,U8,21,SD0*%
%TO.N,unconnected-(U8-SD0-Pad21)*%
X86300000Y-111420000D03*
%TO.P,U8,22,SD1*%
%TO.N,unconnected-(U8-SD1-Pad22)*%
X86300000Y-108880000D03*
%TO.P,U8,23,IO15*%
%TO.N,/MCU/MTDO*%
X86300000Y-106340000D03*
%TO.P,U8,24,IO2*%
%TO.N,unconnected-(U8-IO2-Pad24)*%
X86300000Y-103800000D03*
%TO.P,U8,25,IO0*%
%TO.N,/MCU/Boot*%
X86300000Y-101260000D03*
%TO.P,U8,26,IO4*%
%TO.N,unconnected-(U8-IO4-Pad26)*%
X86300000Y-98720000D03*
%TO.P,U8,27,IO16*%
%TO.N,unconnected-(U8-IO16-Pad27)*%
X86300000Y-96180000D03*
%TO.P,U8,28,IO17*%
%TO.N,unconnected-(U8-IO17-Pad28)*%
X86300000Y-93640000D03*
%TO.P,U8,29,IO5*%
%TO.N,/MCU/SS*%
X86300000Y-91100000D03*
%TO.P,U8,30,IO18*%
%TO.N,/MCU/SCK*%
X86300000Y-88560000D03*
%TO.P,U8,31,IO19*%
%TO.N,/MCU/MISO*%
X86300000Y-86020000D03*
%TO.P,U8,32,GND*%
%TO.N,GND*%
X86300000Y-83480000D03*
%TO.P,U8,33,IO21*%
%TO.N,/MCU/SDA*%
X86300000Y-80940000D03*
%TO.P,U8,34,RXD0*%
%TO.N,/CAN/CAN_RX*%
X86300000Y-78400000D03*
%TO.P,U8,35,TXD0*%
%TO.N,/CAN/CAN_TX*%
X86300000Y-75860000D03*
%TO.P,U8,36,IO22*%
%TO.N,/MCU/SCL*%
X86300000Y-73320000D03*
%TO.P,U8,37,IO23*%
%TO.N,/MCU/MOSI*%
X86300000Y-70780000D03*
%TO.P,U8,38,GND*%
%TO.N,GND*%
X86300000Y-68240000D03*
%TD*%
D21*
%TO.P,J1,1,Pin_1*%
%TO.N,GND*%
X54630000Y-134980000D03*
D11*
%TO.P,J1,2,Pin_2*%
%TO.N,+12V*%
X54630000Y-131020000D03*
%TD*%
D16*
%TO.P,J11,1,Pin_1*%
%TO.N,unconnected-(J11-Pin_1-Pad1)*%
X55100000Y-65042500D03*
%TD*%
D22*
%TO.P,J8,1,Pin_1*%
%TO.N,GNDA*%
X145750000Y-131142500D03*
D11*
%TO.P,J8,2,Pin_2*%
%TO.N,unconnected-(J8-Pin_2-Pad2)*%
X145750000Y-135102500D03*
%TD*%
D16*
%TO.P,J9,1,Pin_1*%
%TO.N,unconnected-(J9-Pin_1-Pad1)*%
X111800000Y-65100000D03*
%TD*%
D23*
%TO.N,+3V3*%
X69300000Y-118300000D03*
X64400000Y-104900000D03*
X64400000Y-118300000D03*
X96800000Y-97700000D03*
X64400000Y-101200000D03*
X104200000Y-97700000D03*
%TO.N,Net-(D4-K)*%
X102160000Y-143670000D03*
X100270000Y-143670000D03*
%TO.N,GND*%
X92500000Y-112000000D03*
X106000000Y-86000000D03*
X102000000Y-126000000D03*
X70000000Y-146000000D03*
X90000000Y-78000000D03*
X78000000Y-74000000D03*
X74000000Y-134000000D03*
X98000000Y-114000000D03*
X96000000Y-93000000D03*
X112000000Y-103000000D03*
X62000000Y-126000000D03*
X90000000Y-118000000D03*
X67000000Y-137000000D03*
X54000000Y-106000000D03*
X54000000Y-98000000D03*
X98000000Y-82000000D03*
X54000000Y-110000000D03*
X98000000Y-112000000D03*
X66000000Y-78000000D03*
X54000000Y-90000000D03*
X66000000Y-86000000D03*
X74000000Y-70000000D03*
X66000000Y-90000000D03*
X86000000Y-118000000D03*
X78000000Y-90000000D03*
X86000000Y-126000000D03*
X70000000Y-138000000D03*
X74000000Y-98000000D03*
X118000000Y-110000000D03*
X102000000Y-86000000D03*
X58000000Y-134000000D03*
X54000000Y-118000000D03*
X70000000Y-110000000D03*
X54000000Y-86000000D03*
X94000000Y-80000000D03*
X78000000Y-114000000D03*
X95500000Y-118000000D03*
X106000000Y-82000000D03*
X54000000Y-138000000D03*
X78000000Y-126000000D03*
X66000000Y-114000000D03*
X70000000Y-98000000D03*
X92000000Y-80000000D03*
X58000000Y-138000000D03*
X66000000Y-130000000D03*
X97000000Y-106000000D03*
X82000000Y-98000000D03*
X74000000Y-114000000D03*
X102000000Y-78000000D03*
X74000000Y-86000000D03*
X54000000Y-78000000D03*
X95500000Y-112000000D03*
X98000000Y-102000000D03*
X82000000Y-86000000D03*
X66000000Y-74000000D03*
X90000000Y-126000000D03*
X74000000Y-90000000D03*
X118000000Y-126000000D03*
X95500000Y-114000000D03*
X118000000Y-94000000D03*
X82000000Y-118000000D03*
X118000000Y-102000000D03*
X70000000Y-78000000D03*
X54000000Y-114000000D03*
X106000000Y-110000000D03*
X70000000Y-70000000D03*
X94000000Y-86000000D03*
X98000000Y-122000000D03*
X78000000Y-78000000D03*
X110000000Y-98000000D03*
X70000000Y-86000000D03*
X74000000Y-126000000D03*
X110000000Y-110000000D03*
X66000000Y-70000000D03*
X58000000Y-78000000D03*
X68000000Y-135000000D03*
X118000000Y-86000000D03*
X110000000Y-118000000D03*
X94000000Y-78000000D03*
X110000000Y-78000000D03*
X78000000Y-110000000D03*
X114000000Y-126000000D03*
X98000000Y-108000000D03*
X106000000Y-106000000D03*
X92000000Y-86000000D03*
X66000000Y-146000000D03*
X118000000Y-78000000D03*
X92000000Y-78000000D03*
X62000000Y-146000000D03*
X106000000Y-122000000D03*
X96000000Y-95000000D03*
X62000000Y-142000000D03*
X58000000Y-114000000D03*
X99000000Y-102000000D03*
X92500000Y-114000000D03*
X114000000Y-103000000D03*
X101000000Y-101000000D03*
X82000000Y-74000000D03*
X100000000Y-108000000D03*
X106000000Y-98000000D03*
X70000000Y-134000000D03*
X98000000Y-126000000D03*
X90000000Y-122000000D03*
X54000000Y-82000000D03*
X66000000Y-82000000D03*
X67000000Y-136000000D03*
X90000000Y-80000000D03*
X78000000Y-130000000D03*
X94000000Y-126000000D03*
X62000000Y-138000000D03*
X58000000Y-122000000D03*
X74000000Y-94000000D03*
X106000000Y-114000000D03*
X118000000Y-90000000D03*
X106000000Y-118000000D03*
X78000000Y-82000000D03*
X70000000Y-126000000D03*
X70000000Y-74000000D03*
X82000000Y-110000000D03*
X58000000Y-86000000D03*
X78000000Y-70000000D03*
X74000000Y-74000000D03*
X118000000Y-82000000D03*
X70000000Y-130000000D03*
X82000000Y-90000000D03*
X74000000Y-82000000D03*
X100000000Y-110000000D03*
X98000000Y-118000000D03*
X106000000Y-103000000D03*
X82000000Y-122000000D03*
X67000000Y-135000000D03*
X92000000Y-82000000D03*
X58000000Y-110000000D03*
X70000000Y-122000000D03*
X82000000Y-114000000D03*
X102000000Y-94000000D03*
X96000000Y-92000000D03*
X58000000Y-126000000D03*
X100000000Y-112000000D03*
X74000000Y-110000000D03*
X118000000Y-106000000D03*
X118000000Y-118000000D03*
X66000000Y-142000000D03*
X70000000Y-142000000D03*
X74000000Y-118000000D03*
X110000000Y-122000000D03*
X118000000Y-114000000D03*
X66000000Y-94000000D03*
X82000000Y-82000000D03*
X102000000Y-82000000D03*
X74000000Y-130000000D03*
X118000000Y-122000000D03*
X74000000Y-78000000D03*
X68000000Y-136000000D03*
X92500000Y-118000000D03*
X110000000Y-103000000D03*
X82000000Y-70000000D03*
X66000000Y-126000000D03*
X102000000Y-99000000D03*
X95000000Y-102000000D03*
X58000000Y-130000000D03*
X96000000Y-94000000D03*
X66000000Y-98000000D03*
X98000000Y-110000000D03*
X62000000Y-130000000D03*
X114000000Y-94000000D03*
X95500000Y-110500000D03*
X94000000Y-102000000D03*
X90000000Y-110000000D03*
X70000000Y-114000000D03*
X106000000Y-94000000D03*
X97000000Y-102000000D03*
X104000000Y-101000000D03*
X104000000Y-99000000D03*
X110000000Y-106000000D03*
X70000000Y-90000000D03*
X78000000Y-86000000D03*
X114000000Y-98000000D03*
X95000000Y-106000000D03*
X58000000Y-118000000D03*
X62000000Y-118000000D03*
X114000000Y-86000000D03*
X110000000Y-126000000D03*
X66000000Y-110000000D03*
X78000000Y-94000000D03*
X82000000Y-78000000D03*
X78000000Y-118000000D03*
X96000000Y-106000000D03*
X82000000Y-126000000D03*
X96000000Y-102000000D03*
X78000000Y-98000000D03*
X92500000Y-110500000D03*
X70000000Y-94000000D03*
X110000000Y-82000000D03*
X106000000Y-126000000D03*
X102000000Y-102000000D03*
X54000000Y-94000000D03*
X92000000Y-84000000D03*
X78000000Y-122000000D03*
X54000000Y-102000000D03*
X86000000Y-122000000D03*
X114000000Y-82000000D03*
X114000000Y-78000000D03*
X106000000Y-78000000D03*
X70000000Y-82000000D03*
X110000000Y-94000000D03*
X54000000Y-122000000D03*
X118000000Y-98000000D03*
X58000000Y-94000000D03*
X90000000Y-114000000D03*
X58000000Y-82000000D03*
X62000000Y-122000000D03*
X82000000Y-94000000D03*
X62000000Y-134000000D03*
X100000000Y-114000000D03*
X58000000Y-90000000D03*
X98000000Y-86000000D03*
X110000000Y-86000000D03*
X54000000Y-74000000D03*
X58000000Y-106000000D03*
%TO.N,GNDA*%
X122000000Y-98000000D03*
X106000000Y-144000000D03*
X94000000Y-134000000D03*
X126000000Y-134000000D03*
X98000000Y-134000000D03*
X126000000Y-122000000D03*
X126000000Y-106000000D03*
X134000000Y-130000000D03*
X126000000Y-102000000D03*
X142000000Y-134000000D03*
X122000000Y-86000000D03*
X86000000Y-131000000D03*
X130000000Y-130000000D03*
X82000000Y-146000000D03*
X134000000Y-126000000D03*
X122000000Y-138000000D03*
X106000000Y-142000000D03*
X106000000Y-131000000D03*
X82000000Y-138000000D03*
X118000000Y-134000000D03*
X146000000Y-118000000D03*
X134000000Y-138000000D03*
X130000000Y-98000000D03*
X86000000Y-138000000D03*
X130000000Y-126000000D03*
X130000000Y-134000000D03*
X104000000Y-142000000D03*
X98000000Y-138000000D03*
X114000000Y-131000000D03*
X130000000Y-138000000D03*
X98000000Y-146000000D03*
X142000000Y-138000000D03*
X146000000Y-138000000D03*
X106000000Y-136000000D03*
X142000000Y-118000000D03*
X118000000Y-138000000D03*
X78000000Y-142000000D03*
X122000000Y-126000000D03*
X122000000Y-118000000D03*
X86000000Y-134000000D03*
X126000000Y-130000000D03*
X122000000Y-110000000D03*
X102000000Y-131000000D03*
X138000000Y-118000000D03*
X126000000Y-126000000D03*
X126000000Y-94000000D03*
X94000000Y-131000000D03*
X122000000Y-122000000D03*
X138000000Y-138000000D03*
X90000000Y-134000000D03*
X130000000Y-122000000D03*
X126000000Y-86000000D03*
X86000000Y-146000000D03*
X122000000Y-114000000D03*
X104000000Y-144000000D03*
X146000000Y-126000000D03*
X126000000Y-110000000D03*
X138000000Y-122000000D03*
X110000000Y-131000000D03*
X126000000Y-98000000D03*
X122000000Y-102000000D03*
X138000000Y-130000000D03*
X98000000Y-142000000D03*
X126000000Y-118000000D03*
X122000000Y-106000000D03*
X142000000Y-126000000D03*
X86000000Y-142000000D03*
X130000000Y-118000000D03*
X90000000Y-131000000D03*
X122000000Y-134000000D03*
X142000000Y-122000000D03*
X138000000Y-134000000D03*
X134000000Y-118000000D03*
X138000000Y-126000000D03*
X106000000Y-138000000D03*
X146000000Y-94000000D03*
X126000000Y-138000000D03*
X134000000Y-134000000D03*
X146000000Y-98000000D03*
X82000000Y-142000000D03*
X98000000Y-131000000D03*
X142000000Y-130000000D03*
X130000000Y-94000000D03*
X106000000Y-140000000D03*
X78000000Y-146000000D03*
X134000000Y-122000000D03*
X122000000Y-90000000D03*
X146000000Y-122000000D03*
X118000000Y-131000000D03*
X126000000Y-114000000D03*
%TO.N,/MCU/MTDO*%
X65080000Y-106340000D03*
D24*
%TO.N,/CAN/CAN_GND*%
X100000000Y-72000000D03*
X92000000Y-66000000D03*
X106000000Y-70000000D03*
X106000000Y-64000000D03*
X104000000Y-66000000D03*
X102000000Y-64000000D03*
X94000000Y-68000000D03*
X92000000Y-68000000D03*
X99000000Y-68000000D03*
X106000000Y-72000000D03*
X99000000Y-70000000D03*
X98000000Y-72000000D03*
X92000000Y-62000000D03*
X104000000Y-68000000D03*
X106000000Y-62000000D03*
X92000000Y-70000000D03*
X104000000Y-64000000D03*
X106000000Y-66000000D03*
X104000000Y-72000000D03*
X94000000Y-70000000D03*
X94000000Y-72000000D03*
X96000000Y-72000000D03*
X99000000Y-63000000D03*
X102000000Y-72000000D03*
X92000000Y-64000000D03*
X106000000Y-68000000D03*
X102000000Y-68000000D03*
X102000000Y-66000000D03*
D23*
%TO.N,/MCU/MISO*%
X91000000Y-95800000D03*
X89100000Y-95800000D03*
%TO.N,/PowerMonitor/INN*%
X134000000Y-82000000D03*
X126000000Y-74000000D03*
X130000000Y-78000000D03*
X122000000Y-70000000D03*
X130000000Y-82000000D03*
X126000000Y-82000000D03*
X134000000Y-86000000D03*
X126000000Y-66000000D03*
X126000000Y-62000000D03*
X146000000Y-86000000D03*
X122000000Y-62000000D03*
X146000000Y-82000000D03*
X126000000Y-78000000D03*
X122000000Y-66000000D03*
X122000000Y-78000000D03*
X126000000Y-70000000D03*
X122000000Y-74000000D03*
X122000000Y-82000000D03*
%TO.N,+12V*%
X92400000Y-100000000D03*
X104200000Y-100000000D03*
%TD*%
D25*
%TO.N,+3V3*%
X96800000Y-97700000D02*
X104200000Y-97700000D01*
D26*
X69300000Y-118300000D02*
X64400000Y-118300000D01*
D25*
X64400000Y-104900000D02*
X64400000Y-101200000D01*
%TO.N,Net-(D4-K)*%
X102160000Y-143670000D02*
X100270000Y-143670000D01*
%TO.N,/MCU/MTDO*%
X61417767Y-105050000D02*
X57170000Y-105050000D01*
X57170000Y-105050000D02*
X57000000Y-104880000D01*
X62707767Y-106340000D02*
X61417767Y-105050000D01*
X65080000Y-106340000D02*
X62707767Y-106340000D01*
D26*
%TO.N,/MCU/MISO*%
X91000000Y-95800000D02*
X89100000Y-95800000D01*
D25*
%TO.N,+12V*%
X104200000Y-100000000D02*
X92400000Y-100000000D01*
%TD*%
%TA.AperFunction,Conductor*%
%TO.N,GND*%
G36*
X87743039Y-67019685D02*
G01*
X87788794Y-67072489D01*
X87800000Y-67124000D01*
X87800000Y-71400001D01*
X88853221Y-72573589D01*
X91300000Y-75300000D01*
X118676000Y-75300000D01*
X118743039Y-75319685D01*
X118788794Y-75372489D01*
X118800000Y-75424000D01*
X118800000Y-125840402D01*
X118780315Y-125907441D01*
X118753462Y-125937230D01*
X116833965Y-127472828D01*
X116769319Y-127499336D01*
X116756503Y-127500000D01*
X84200000Y-127500000D01*
X84199999Y-127500000D01*
X84199998Y-127500001D01*
X73900000Y-137999999D01*
X73900000Y-149865500D01*
X73880315Y-149932539D01*
X73827511Y-149978294D01*
X73776000Y-149989500D01*
X60124000Y-149989500D01*
X60056961Y-149969815D01*
X60011206Y-149917011D01*
X60000000Y-149865500D01*
X60000000Y-140000000D01*
X50134500Y-140000000D01*
X50067461Y-139980315D01*
X50021706Y-139927511D01*
X50010500Y-139876000D01*
X50010500Y-133830014D01*
X52780000Y-133830014D01*
X52780000Y-134730000D01*
X53813520Y-134730000D01*
X53812665Y-134732064D01*
X53780000Y-134896282D01*
X53780000Y-135063718D01*
X53812665Y-135227936D01*
X53813520Y-135230000D01*
X52780000Y-135230000D01*
X52780000Y-136129985D01*
X52790493Y-136232689D01*
X52790494Y-136232696D01*
X52845641Y-136399118D01*
X52845643Y-136399123D01*
X52937684Y-136548344D01*
X53061655Y-136672315D01*
X53210876Y-136764356D01*
X53210881Y-136764358D01*
X53377303Y-136819505D01*
X53377310Y-136819506D01*
X53480014Y-136829999D01*
X53480027Y-136830000D01*
X54380000Y-136830000D01*
X54380000Y-135796480D01*
X54382064Y-135797335D01*
X54546282Y-135830000D01*
X54713718Y-135830000D01*
X54877936Y-135797335D01*
X54880000Y-135796480D01*
X54880000Y-136830000D01*
X55779973Y-136830000D01*
X55779985Y-136829999D01*
X55882689Y-136819506D01*
X55882696Y-136819505D01*
X56049118Y-136764358D01*
X56049123Y-136764356D01*
X56198344Y-136672315D01*
X56322315Y-136548344D01*
X56414356Y-136399123D01*
X56414358Y-136399118D01*
X56469505Y-136232696D01*
X56469506Y-136232689D01*
X56479999Y-136129985D01*
X56480000Y-136129972D01*
X56480000Y-135230000D01*
X55446480Y-135230000D01*
X55447335Y-135227936D01*
X55480000Y-135063718D01*
X55480000Y-134896282D01*
X55447335Y-134732064D01*
X55446480Y-134730000D01*
X56480000Y-134730000D01*
X56480000Y-133830027D01*
X56479999Y-133830014D01*
X56469506Y-133727310D01*
X56469505Y-133727303D01*
X56414358Y-133560881D01*
X56414356Y-133560876D01*
X56322315Y-133411655D01*
X56198344Y-133287684D01*
X56049123Y-133195643D01*
X56049118Y-133195641D01*
X55882696Y-133140494D01*
X55882689Y-133140493D01*
X55779985Y-133130000D01*
X54880000Y-133130000D01*
X54880000Y-134163519D01*
X54877936Y-134162665D01*
X54713718Y-134130000D01*
X54546282Y-134130000D01*
X54382064Y-134162665D01*
X54380000Y-134163519D01*
X54380000Y-133130000D01*
X53480014Y-133130000D01*
X53377310Y-133140493D01*
X53377303Y-133140494D01*
X53210881Y-133195641D01*
X53210876Y-133195643D01*
X53061655Y-133287684D01*
X52937684Y-133411655D01*
X52845643Y-133560876D01*
X52845641Y-133560881D01*
X52790494Y-133727303D01*
X52790493Y-133727310D01*
X52780000Y-133830014D01*
X50010500Y-133830014D01*
X50010500Y-131020000D01*
X53024551Y-131020000D01*
X53044317Y-131271151D01*
X53103126Y-131516110D01*
X53199533Y-131748859D01*
X53331160Y-131963653D01*
X53331161Y-131963656D01*
X53331164Y-131963659D01*
X53494776Y-132155224D01*
X53643066Y-132281875D01*
X53686343Y-132318838D01*
X53686346Y-132318839D01*
X53901140Y-132450466D01*
X54133889Y-132546873D01*
X54378852Y-132605683D01*
X54630000Y-132625449D01*
X54881148Y-132605683D01*
X55126111Y-132546873D01*
X55358859Y-132450466D01*
X55573659Y-132318836D01*
X55765224Y-132155224D01*
X55928836Y-131963659D01*
X56060466Y-131748859D01*
X56156873Y-131516111D01*
X56215683Y-131271148D01*
X56235449Y-131020000D01*
X56215683Y-130768852D01*
X56156873Y-130523889D01*
X56060466Y-130291141D01*
X56060466Y-130291140D01*
X55928839Y-130076346D01*
X55928838Y-130076343D01*
X55891875Y-130033066D01*
X55765224Y-129884776D01*
X55638571Y-129776604D01*
X55573656Y-129721161D01*
X55573653Y-129721160D01*
X55358859Y-129589533D01*
X55126110Y-129493126D01*
X54881151Y-129434317D01*
X54630000Y-129414551D01*
X54378848Y-129434317D01*
X54133889Y-129493126D01*
X53901140Y-129589533D01*
X53686346Y-129721160D01*
X53686343Y-129721161D01*
X53494776Y-129884776D01*
X53331161Y-130076343D01*
X53331160Y-130076346D01*
X53199533Y-130291140D01*
X53103126Y-130523889D01*
X53044317Y-130768848D01*
X53024551Y-131020000D01*
X50010500Y-131020000D01*
X50010500Y-118300000D01*
X63894353Y-118300000D01*
X63914834Y-118442456D01*
X63974622Y-118573371D01*
X63974623Y-118573373D01*
X64068872Y-118682143D01*
X64189947Y-118759953D01*
X64189950Y-118759954D01*
X64189949Y-118759954D01*
X64328036Y-118800499D01*
X64328038Y-118800500D01*
X64328039Y-118800500D01*
X64471962Y-118800500D01*
X64471962Y-118800499D01*
X64610050Y-118759954D01*
X64610051Y-118759954D01*
X64671936Y-118720184D01*
X64738974Y-118700500D01*
X68961026Y-118700500D01*
X69028064Y-118720184D01*
X69089949Y-118759954D01*
X69228036Y-118800499D01*
X69228038Y-118800500D01*
X69228039Y-118800500D01*
X69371962Y-118800500D01*
X69371962Y-118800499D01*
X69510053Y-118759953D01*
X69631128Y-118682143D01*
X69725377Y-118573373D01*
X69785165Y-118442457D01*
X69805647Y-118300000D01*
X69785165Y-118157543D01*
X69725377Y-118026627D01*
X69631128Y-117917857D01*
X69510053Y-117840047D01*
X69510051Y-117840046D01*
X69510049Y-117840045D01*
X69510050Y-117840045D01*
X69371963Y-117799500D01*
X69371961Y-117799500D01*
X69228039Y-117799500D01*
X69228036Y-117799500D01*
X69089950Y-117840045D01*
X69089948Y-117840045D01*
X69028064Y-117879816D01*
X68961026Y-117899500D01*
X64738974Y-117899500D01*
X64671936Y-117879816D01*
X64610050Y-117840045D01*
X64471963Y-117799500D01*
X64471961Y-117799500D01*
X64328039Y-117799500D01*
X64328036Y-117799500D01*
X64189949Y-117840045D01*
X64068873Y-117917856D01*
X63974623Y-118026626D01*
X63974622Y-118026628D01*
X63914834Y-118157543D01*
X63894353Y-118300000D01*
X50010500Y-118300000D01*
X50010500Y-113960000D01*
X59844417Y-113960000D01*
X59864699Y-114165932D01*
X59864700Y-114165934D01*
X59924768Y-114363954D01*
X60022315Y-114546450D01*
X60022317Y-114546452D01*
X60153589Y-114706410D01*
X60250209Y-114785702D01*
X60313550Y-114837685D01*
X60496046Y-114935232D01*
X60694066Y-114995300D01*
X60694065Y-114995300D01*
X60712529Y-114997118D01*
X60900000Y-115015583D01*
X61105934Y-114995300D01*
X61303954Y-114935232D01*
X61486450Y-114837685D01*
X61646410Y-114706410D01*
X61777685Y-114546450D01*
X61875232Y-114363954D01*
X61935300Y-114165934D01*
X61955583Y-113960000D01*
X85244417Y-113960000D01*
X85264699Y-114165932D01*
X85264700Y-114165934D01*
X85324768Y-114363954D01*
X85422315Y-114546450D01*
X85422317Y-114546452D01*
X85553589Y-114706410D01*
X85650209Y-114785702D01*
X85713550Y-114837685D01*
X85896046Y-114935232D01*
X86094066Y-114995300D01*
X86094065Y-114995300D01*
X86112529Y-114997118D01*
X86300000Y-115015583D01*
X86505934Y-114995300D01*
X86703954Y-114935232D01*
X86886450Y-114837685D01*
X87046410Y-114706410D01*
X87177685Y-114546450D01*
X87275232Y-114363954D01*
X87335300Y-114165934D01*
X87355583Y-113960000D01*
X87335300Y-113754066D01*
X87275232Y-113556046D01*
X87177685Y-113373550D01*
X87125702Y-113310209D01*
X87046410Y-113213589D01*
X86886452Y-113082317D01*
X86886453Y-113082317D01*
X86886450Y-113082315D01*
X86703954Y-112984768D01*
X86505934Y-112924700D01*
X86505932Y-112924699D01*
X86505934Y-112924699D01*
X86300000Y-112904417D01*
X86094067Y-112924699D01*
X85896043Y-112984769D01*
X85785898Y-113043643D01*
X85713550Y-113082315D01*
X85713548Y-113082316D01*
X85713547Y-113082317D01*
X85553589Y-113213589D01*
X85422317Y-113373547D01*
X85324769Y-113556043D01*
X85264699Y-113754067D01*
X85244417Y-113960000D01*
X61955583Y-113960000D01*
X61935300Y-113754066D01*
X61875232Y-113556046D01*
X61777685Y-113373550D01*
X61725702Y-113310209D01*
X61646410Y-113213589D01*
X61486452Y-113082317D01*
X61486453Y-113082317D01*
X61486450Y-113082315D01*
X61303954Y-112984768D01*
X61105934Y-112924700D01*
X61105932Y-112924699D01*
X61105934Y-112924699D01*
X60900000Y-112904417D01*
X60694067Y-112924699D01*
X60496043Y-112984769D01*
X60385898Y-113043643D01*
X60313550Y-113082315D01*
X60313548Y-113082316D01*
X60313547Y-113082317D01*
X60153589Y-113213589D01*
X60022317Y-113373547D01*
X59924769Y-113556043D01*
X59864699Y-113754067D01*
X59844417Y-113960000D01*
X50010500Y-113960000D01*
X50010500Y-111420000D01*
X59844417Y-111420000D01*
X59864699Y-111625932D01*
X59864700Y-111625934D01*
X59924768Y-111823954D01*
X60022315Y-112006450D01*
X60022317Y-112006452D01*
X60153589Y-112166410D01*
X60250209Y-112245702D01*
X60313550Y-112297685D01*
X60496046Y-112395232D01*
X60694066Y-112455300D01*
X60694065Y-112455300D01*
X60712529Y-112457118D01*
X60900000Y-112475583D01*
X61105934Y-112455300D01*
X61303954Y-112395232D01*
X61486450Y-112297685D01*
X61646410Y-112166410D01*
X61777685Y-112006450D01*
X61875232Y-111823954D01*
X61935300Y-111625934D01*
X61955583Y-111420000D01*
X85244417Y-111420000D01*
X85264699Y-111625932D01*
X85264700Y-111625934D01*
X85324768Y-111823954D01*
X85422315Y-112006450D01*
X85422317Y-112006452D01*
X85553589Y-112166410D01*
X85650209Y-112245702D01*
X85713550Y-112297685D01*
X85896046Y-112395232D01*
X86094066Y-112455300D01*
X86094065Y-112455300D01*
X86112529Y-112457118D01*
X86300000Y-112475583D01*
X86505934Y-112455300D01*
X86703954Y-112395232D01*
X86886450Y-112297685D01*
X87046410Y-112166410D01*
X87177685Y-112006450D01*
X87275232Y-111823954D01*
X87335300Y-111625934D01*
X87355583Y-111420000D01*
X87335300Y-111214066D01*
X87275232Y-111016046D01*
X87177685Y-110833550D01*
X87125702Y-110770209D01*
X87046410Y-110673589D01*
X86886452Y-110542317D01*
X86886453Y-110542317D01*
X86886450Y-110542315D01*
X86703954Y-110444768D01*
X86505934Y-110384700D01*
X86505932Y-110384699D01*
X86505934Y-110384699D01*
X86300000Y-110364417D01*
X86094067Y-110384699D01*
X85896043Y-110444769D01*
X85785898Y-110503643D01*
X85713550Y-110542315D01*
X85713548Y-110542316D01*
X85713547Y-110542317D01*
X85553589Y-110673589D01*
X85422317Y-110833547D01*
X85324769Y-111016043D01*
X85264699Y-111214067D01*
X85244417Y-111420000D01*
X61955583Y-111420000D01*
X61935300Y-111214066D01*
X61875232Y-111016046D01*
X61777685Y-110833550D01*
X61725702Y-110770209D01*
X61646410Y-110673589D01*
X61486452Y-110542317D01*
X61486453Y-110542317D01*
X61486450Y-110542315D01*
X61303954Y-110444768D01*
X61105934Y-110384700D01*
X61105932Y-110384699D01*
X61105934Y-110384699D01*
X60900000Y-110364417D01*
X60694067Y-110384699D01*
X60496043Y-110444769D01*
X60385898Y-110503643D01*
X60313550Y-110542315D01*
X60313548Y-110542316D01*
X60313547Y-110542317D01*
X60153589Y-110673589D01*
X60022317Y-110833547D01*
X59924769Y-111016043D01*
X59864699Y-111214067D01*
X59844417Y-111420000D01*
X50010500Y-111420000D01*
X50010500Y-108880000D01*
X59844417Y-108880000D01*
X59864699Y-109085932D01*
X59864700Y-109085934D01*
X59924768Y-109283954D01*
X60022315Y-109466450D01*
X60022317Y-109466452D01*
X60153589Y-109626410D01*
X60250209Y-109705702D01*
X60313550Y-109757685D01*
X60496046Y-109855232D01*
X60694066Y-109915300D01*
X60694065Y-109915300D01*
X60712529Y-109917118D01*
X60900000Y-109935583D01*
X61105934Y-109915300D01*
X61303954Y-109855232D01*
X61486450Y-109757685D01*
X61646410Y-109626410D01*
X61777685Y-109466450D01*
X61875232Y-109283954D01*
X61935300Y-109085934D01*
X61955583Y-108880000D01*
X85244417Y-108880000D01*
X85264699Y-109085932D01*
X85264700Y-109085934D01*
X85324768Y-109283954D01*
X85422315Y-109466450D01*
X85422317Y-109466452D01*
X85553589Y-109626410D01*
X85650209Y-109705702D01*
X85713550Y-109757685D01*
X85896046Y-109855232D01*
X86094066Y-109915300D01*
X86094065Y-109915300D01*
X86112529Y-109917118D01*
X86300000Y-109935583D01*
X86505934Y-109915300D01*
X86703954Y-109855232D01*
X86886450Y-109757685D01*
X87046410Y-109626410D01*
X87177685Y-109466450D01*
X87275232Y-109283954D01*
X87335300Y-109085934D01*
X87355583Y-108880000D01*
X87335300Y-108674066D01*
X87275232Y-108476046D01*
X87177685Y-108293550D01*
X87125702Y-108230209D01*
X87046410Y-108133589D01*
X86886452Y-108002317D01*
X86886453Y-108002317D01*
X86886450Y-108002315D01*
X86703954Y-107904768D01*
X86505934Y-107844700D01*
X86505932Y-107844699D01*
X86505934Y-107844699D01*
X86300000Y-107824417D01*
X86094067Y-107844699D01*
X85896043Y-107904769D01*
X85785898Y-107963643D01*
X85713550Y-108002315D01*
X85713548Y-108002316D01*
X85713547Y-108002317D01*
X85553589Y-108133589D01*
X85422317Y-108293547D01*
X85324769Y-108476043D01*
X85264699Y-108674067D01*
X85244417Y-108880000D01*
X61955583Y-108880000D01*
X61935300Y-108674066D01*
X61875232Y-108476046D01*
X61777685Y-108293550D01*
X61725702Y-108230209D01*
X61646410Y-108133589D01*
X61486452Y-108002317D01*
X61486453Y-108002317D01*
X61486450Y-108002315D01*
X61303954Y-107904768D01*
X61105934Y-107844700D01*
X61105932Y-107844699D01*
X61105934Y-107844699D01*
X60900000Y-107824417D01*
X60694067Y-107844699D01*
X60496043Y-107904769D01*
X60385898Y-107963643D01*
X60313550Y-108002315D01*
X60313548Y-108002316D01*
X60313547Y-108002317D01*
X60153589Y-108133589D01*
X60022317Y-108293547D01*
X59924769Y-108476043D01*
X59864699Y-108674067D01*
X59844417Y-108880000D01*
X50010500Y-108880000D01*
X50010500Y-104879999D01*
X55894785Y-104879999D01*
X55894785Y-104880000D01*
X55913602Y-105083082D01*
X55969417Y-105279247D01*
X55969422Y-105279260D01*
X56060327Y-105461821D01*
X56183237Y-105624581D01*
X56333958Y-105761980D01*
X56333960Y-105761982D01*
X56400499Y-105803181D01*
X56507363Y-105869348D01*
X56697544Y-105943024D01*
X56898024Y-105980500D01*
X56898026Y-105980500D01*
X57101974Y-105980500D01*
X57101976Y-105980500D01*
X57302456Y-105943024D01*
X57492637Y-105869348D01*
X57666041Y-105761981D01*
X57816764Y-105624579D01*
X57822339Y-105617195D01*
X57835498Y-105599772D01*
X57891607Y-105558137D01*
X57934451Y-105550500D01*
X59926778Y-105550500D01*
X59993817Y-105570185D01*
X60039572Y-105622989D01*
X60049516Y-105692147D01*
X60024922Y-105747959D01*
X60025702Y-105748480D01*
X60022740Y-105752913D01*
X60022627Y-105753170D01*
X60022316Y-105753548D01*
X59924769Y-105936043D01*
X59864699Y-106134067D01*
X59844417Y-106340000D01*
X59864699Y-106545932D01*
X59864700Y-106545934D01*
X59924768Y-106743954D01*
X60022315Y-106926450D01*
X60022317Y-106926452D01*
X60153589Y-107086410D01*
X60250209Y-107165702D01*
X60313550Y-107217685D01*
X60496046Y-107315232D01*
X60694066Y-107375300D01*
X60694065Y-107375300D01*
X60712529Y-107377118D01*
X60900000Y-107395583D01*
X61105934Y-107375300D01*
X61303954Y-107315232D01*
X61486450Y-107217685D01*
X61646410Y-107086410D01*
X61777685Y-106926450D01*
X61875232Y-106743954D01*
X61935300Y-106545934D01*
X61935300Y-106545932D01*
X61937068Y-106540105D01*
X61938688Y-106540596D01*
X61967314Y-106485865D01*
X62028027Y-106451287D01*
X62097797Y-106455021D01*
X62144233Y-106484280D01*
X62307267Y-106647314D01*
X62400453Y-106740500D01*
X62503428Y-106799953D01*
X62514581Y-106806392D01*
X62641874Y-106840500D01*
X62641875Y-106840500D01*
X62641876Y-106840500D01*
X65151963Y-106840500D01*
X65151963Y-106840499D01*
X65190226Y-106829263D01*
X65213902Y-106822312D01*
X65216681Y-106821531D01*
X65273186Y-106806392D01*
X65273189Y-106806389D01*
X65279367Y-106803832D01*
X65288996Y-106800434D01*
X65290045Y-106799955D01*
X65290053Y-106799953D01*
X65338087Y-106769082D01*
X65343102Y-106766025D01*
X65387314Y-106740500D01*
X65387321Y-106740492D01*
X65391828Y-106737035D01*
X65407067Y-106724752D01*
X65411128Y-106722143D01*
X65443653Y-106684605D01*
X65449673Y-106678140D01*
X65480500Y-106647314D01*
X65483628Y-106641894D01*
X65497304Y-106622688D01*
X65505377Y-106613373D01*
X65522912Y-106574974D01*
X65528311Y-106564502D01*
X65546392Y-106533186D01*
X65549952Y-106519898D01*
X65556934Y-106500479D01*
X65565165Y-106482457D01*
X65570111Y-106448053D01*
X65573074Y-106433606D01*
X65574263Y-106429165D01*
X65580500Y-106405892D01*
X65580500Y-106384667D01*
X65581762Y-106367020D01*
X65585647Y-106340000D01*
X85244417Y-106340000D01*
X85264699Y-106545932D01*
X85264700Y-106545934D01*
X85324768Y-106743954D01*
X85422315Y-106926450D01*
X85422317Y-106926452D01*
X85553589Y-107086410D01*
X85650209Y-107165702D01*
X85713550Y-107217685D01*
X85896046Y-107315232D01*
X86094066Y-107375300D01*
X86094065Y-107375300D01*
X86112529Y-107377118D01*
X86300000Y-107395583D01*
X86505934Y-107375300D01*
X86703954Y-107315232D01*
X86886450Y-107217685D01*
X87046410Y-107086410D01*
X87177685Y-106926450D01*
X87275232Y-106743954D01*
X87335300Y-106545934D01*
X87355583Y-106340000D01*
X87335300Y-106134066D01*
X87275232Y-105936046D01*
X87177685Y-105753550D01*
X87071842Y-105624579D01*
X87046410Y-105593589D01*
X86886452Y-105462317D01*
X86886453Y-105462317D01*
X86886450Y-105462315D01*
X86703954Y-105364768D01*
X86505934Y-105304700D01*
X86505932Y-105304699D01*
X86505934Y-105304699D01*
X86300000Y-105284417D01*
X86094067Y-105304699D01*
X85918692Y-105357898D01*
X85910334Y-105360434D01*
X85896043Y-105364769D01*
X85785898Y-105423643D01*
X85713550Y-105462315D01*
X85713548Y-105462316D01*
X85713547Y-105462317D01*
X85553589Y-105593589D01*
X85422317Y-105753547D01*
X85422316Y-105753548D01*
X85422315Y-105753550D01*
X85386895Y-105819815D01*
X85324769Y-105936043D01*
X85264699Y-106134067D01*
X85244417Y-106340000D01*
X65585647Y-106340000D01*
X65585647Y-106339999D01*
X65581762Y-106312977D01*
X65580500Y-106295331D01*
X65580500Y-106274110D01*
X65580500Y-106274108D01*
X65573073Y-106246390D01*
X65570111Y-106231946D01*
X65565165Y-106197545D01*
X65565165Y-106197543D01*
X65556928Y-106179509D01*
X65549949Y-106160091D01*
X65546392Y-106146814D01*
X65528316Y-106115506D01*
X65522911Y-106105020D01*
X65505380Y-106066633D01*
X65505379Y-106066631D01*
X65505377Y-106066627D01*
X65505372Y-106066621D01*
X65497306Y-106057312D01*
X65483628Y-106038104D01*
X65480499Y-106032685D01*
X65449677Y-106001863D01*
X65443659Y-105995401D01*
X65411128Y-105957857D01*
X65411125Y-105957854D01*
X65407066Y-105955246D01*
X65391793Y-105942937D01*
X65387318Y-105939504D01*
X65387314Y-105939500D01*
X65375404Y-105932623D01*
X65343121Y-105913984D01*
X65338085Y-105910915D01*
X65337879Y-105910782D01*
X65290053Y-105880047D01*
X65290051Y-105880046D01*
X65290049Y-105880045D01*
X65289004Y-105879567D01*
X65279375Y-105876171D01*
X65273192Y-105873610D01*
X65273187Y-105873608D01*
X65273186Y-105873608D01*
X65216701Y-105858473D01*
X65213862Y-105857675D01*
X65151963Y-105839500D01*
X65151961Y-105839500D01*
X65145892Y-105839500D01*
X62966443Y-105839500D01*
X62899404Y-105819815D01*
X62878762Y-105803181D01*
X61719334Y-104643753D01*
X61720600Y-104642486D01*
X61685338Y-104594185D01*
X61681189Y-104524439D01*
X61706178Y-104473582D01*
X61737473Y-104435449D01*
X61777685Y-104386450D01*
X61875232Y-104203954D01*
X61935300Y-104005934D01*
X61955583Y-103800000D01*
X61935300Y-103594066D01*
X61875232Y-103396046D01*
X61777685Y-103213550D01*
X61671842Y-103084579D01*
X61646410Y-103053589D01*
X61486452Y-102922317D01*
X61486453Y-102922317D01*
X61486450Y-102922315D01*
X61303954Y-102824768D01*
X61105934Y-102764700D01*
X61105932Y-102764699D01*
X61105934Y-102764699D01*
X60900000Y-102744417D01*
X60694067Y-102764699D01*
X60496043Y-102824769D01*
X60385898Y-102883643D01*
X60313550Y-102922315D01*
X60313548Y-102922316D01*
X60313547Y-102922317D01*
X60153589Y-103053589D01*
X60022317Y-103213547D01*
X60022315Y-103213550D01*
X60017808Y-103221982D01*
X59924769Y-103396043D01*
X59864699Y-103594067D01*
X59844417Y-103800000D01*
X59864699Y-104005932D01*
X59864700Y-104005934D01*
X59924768Y-104203954D01*
X60011944Y-104367048D01*
X60026186Y-104435449D01*
X60001186Y-104500693D01*
X59944882Y-104542064D01*
X59902586Y-104549500D01*
X58141593Y-104549500D01*
X58074554Y-104529815D01*
X58030593Y-104480771D01*
X57939674Y-104298180D01*
X57816762Y-104135418D01*
X57666041Y-103998019D01*
X57666039Y-103998017D01*
X57492642Y-103890655D01*
X57492635Y-103890651D01*
X57397546Y-103853814D01*
X57302456Y-103816976D01*
X57101976Y-103779500D01*
X56898024Y-103779500D01*
X56697544Y-103816976D01*
X56697541Y-103816976D01*
X56697541Y-103816977D01*
X56507364Y-103890651D01*
X56507357Y-103890655D01*
X56333960Y-103998017D01*
X56333958Y-103998019D01*
X56183237Y-104135418D01*
X56060327Y-104298178D01*
X55969422Y-104480739D01*
X55969417Y-104480752D01*
X55913602Y-104676917D01*
X55894785Y-104879999D01*
X50010500Y-104879999D01*
X50010500Y-102339999D01*
X55894785Y-102339999D01*
X55894785Y-102340000D01*
X55913602Y-102543082D01*
X55969417Y-102739247D01*
X55969422Y-102739260D01*
X56060327Y-102921821D01*
X56183237Y-103084581D01*
X56333958Y-103221980D01*
X56333960Y-103221982D01*
X56433141Y-103283392D01*
X56507363Y-103329348D01*
X56697544Y-103403024D01*
X56898024Y-103440500D01*
X56898026Y-103440500D01*
X57101974Y-103440500D01*
X57101976Y-103440500D01*
X57302456Y-103403024D01*
X57492637Y-103329348D01*
X57666041Y-103221981D01*
X57816764Y-103084579D01*
X57939673Y-102921821D01*
X58030582Y-102739250D01*
X58086397Y-102543083D01*
X58105215Y-102340000D01*
X58102952Y-102315583D01*
X58086397Y-102136917D01*
X58049264Y-102006410D01*
X58030582Y-101940750D01*
X57939673Y-101758179D01*
X57816764Y-101595421D01*
X57816762Y-101595418D01*
X57666041Y-101458019D01*
X57666039Y-101458017D01*
X57492642Y-101350655D01*
X57492635Y-101350651D01*
X57397546Y-101313814D01*
X57302456Y-101276976D01*
X57101976Y-101239500D01*
X56898024Y-101239500D01*
X56697544Y-101276976D01*
X56697541Y-101276976D01*
X56697541Y-101276977D01*
X56507364Y-101350651D01*
X56507357Y-101350655D01*
X56333960Y-101458017D01*
X56333958Y-101458019D01*
X56183237Y-101595418D01*
X56060327Y-101758178D01*
X55969422Y-101940739D01*
X55969417Y-101940752D01*
X55913602Y-102136917D01*
X55894785Y-102339999D01*
X50010500Y-102339999D01*
X50010500Y-101199999D01*
X63894353Y-101199999D01*
X63898238Y-101227020D01*
X63899500Y-101244667D01*
X63899500Y-104855331D01*
X63898238Y-104872977D01*
X63894353Y-104899999D01*
X63898238Y-104927020D01*
X63899500Y-104944667D01*
X63899500Y-104965894D01*
X63906923Y-104993596D01*
X63909885Y-105008037D01*
X63914835Y-105042456D01*
X63914837Y-105042464D01*
X63923069Y-105060489D01*
X63930048Y-105079903D01*
X63930901Y-105083083D01*
X63933607Y-105093183D01*
X63933610Y-105093190D01*
X63951681Y-105124491D01*
X63957086Y-105134974D01*
X63974623Y-105173373D01*
X63982694Y-105182687D01*
X63996368Y-105201890D01*
X63999497Y-105207310D01*
X63999501Y-105207315D01*
X64030322Y-105238136D01*
X64036354Y-105244615D01*
X64068870Y-105282141D01*
X64068874Y-105282145D01*
X64072928Y-105284750D01*
X64088211Y-105297066D01*
X64092689Y-105300502D01*
X64106897Y-105308705D01*
X64136887Y-105326019D01*
X64141871Y-105329056D01*
X64189947Y-105359953D01*
X64189950Y-105359954D01*
X64189952Y-105359955D01*
X64190994Y-105360431D01*
X64200621Y-105363827D01*
X64206811Y-105366390D01*
X64206814Y-105366392D01*
X64263246Y-105381512D01*
X64263261Y-105381516D01*
X64266098Y-105382312D01*
X64328039Y-105400500D01*
X64471963Y-105400500D01*
X64471963Y-105400499D01*
X64510226Y-105389263D01*
X64533902Y-105382312D01*
X64536681Y-105381531D01*
X64593186Y-105366392D01*
X64593189Y-105366389D01*
X64599367Y-105363832D01*
X64608996Y-105360434D01*
X64610045Y-105359955D01*
X64610053Y-105359953D01*
X64658087Y-105329082D01*
X64663102Y-105326025D01*
X64707314Y-105300500D01*
X64707321Y-105300492D01*
X64711828Y-105297035D01*
X64727067Y-105284752D01*
X64731128Y-105282143D01*
X64763653Y-105244605D01*
X64769673Y-105238140D01*
X64769677Y-105238136D01*
X64800500Y-105207314D01*
X64803628Y-105201894D01*
X64817306Y-105182687D01*
X64825377Y-105173373D01*
X64842912Y-105134974D01*
X64848311Y-105124502D01*
X64866392Y-105093186D01*
X64869952Y-105079898D01*
X64876934Y-105060479D01*
X64885164Y-105042459D01*
X64885163Y-105042459D01*
X64885165Y-105042457D01*
X64890111Y-105008053D01*
X64893074Y-104993606D01*
X64894263Y-104989165D01*
X64900500Y-104965892D01*
X64900500Y-104944667D01*
X64901762Y-104927020D01*
X64905647Y-104899999D01*
X64901762Y-104872977D01*
X64900500Y-104855331D01*
X64900500Y-103800000D01*
X85244417Y-103800000D01*
X85264699Y-104005932D01*
X85264700Y-104005934D01*
X85324768Y-104203954D01*
X85422315Y-104386450D01*
X85456969Y-104428677D01*
X85553589Y-104546410D01*
X85596486Y-104581614D01*
X85713550Y-104677685D01*
X85896046Y-104775232D01*
X86094066Y-104835300D01*
X86094065Y-104835300D01*
X86112529Y-104837118D01*
X86300000Y-104855583D01*
X86505934Y-104835300D01*
X86703954Y-104775232D01*
X86886450Y-104677685D01*
X87046410Y-104546410D01*
X87177685Y-104386450D01*
X87275232Y-104203954D01*
X87335300Y-104005934D01*
X87355583Y-103800000D01*
X87335300Y-103594066D01*
X87275232Y-103396046D01*
X87177685Y-103213550D01*
X87071842Y-103084579D01*
X87046410Y-103053589D01*
X86886452Y-102922317D01*
X86886453Y-102922317D01*
X86886450Y-102922315D01*
X86703954Y-102824768D01*
X86505934Y-102764700D01*
X86505932Y-102764699D01*
X86505934Y-102764699D01*
X86300000Y-102744417D01*
X86094067Y-102764699D01*
X85896043Y-102824769D01*
X85785898Y-102883643D01*
X85713550Y-102922315D01*
X85713548Y-102922316D01*
X85713547Y-102922317D01*
X85553589Y-103053589D01*
X85422317Y-103213547D01*
X85422315Y-103213550D01*
X85417808Y-103221982D01*
X85324769Y-103396043D01*
X85264699Y-103594067D01*
X85244417Y-103800000D01*
X64900500Y-103800000D01*
X64900500Y-101260000D01*
X85244417Y-101260000D01*
X85264699Y-101465932D01*
X85264700Y-101465934D01*
X85324768Y-101663954D01*
X85422315Y-101846450D01*
X85422317Y-101846452D01*
X85553589Y-102006410D01*
X85650209Y-102085702D01*
X85713550Y-102137685D01*
X85896046Y-102235232D01*
X86094066Y-102295300D01*
X86094065Y-102295300D01*
X86112529Y-102297118D01*
X86300000Y-102315583D01*
X86505934Y-102295300D01*
X86703954Y-102235232D01*
X86886450Y-102137685D01*
X87046410Y-102006410D01*
X87177685Y-101846450D01*
X87275232Y-101663954D01*
X87335300Y-101465934D01*
X87355583Y-101260000D01*
X87335300Y-101054066D01*
X87275232Y-100856046D01*
X87177685Y-100673550D01*
X87071842Y-100544579D01*
X87046410Y-100513589D01*
X86908611Y-100400502D01*
X86886450Y-100382315D01*
X86703954Y-100284768D01*
X86505934Y-100224700D01*
X86505932Y-100224699D01*
X86505934Y-100224699D01*
X86300000Y-100204417D01*
X86094067Y-100224699D01*
X85896043Y-100284769D01*
X85796202Y-100338136D01*
X85713550Y-100382315D01*
X85713548Y-100382316D01*
X85713547Y-100382317D01*
X85553589Y-100513589D01*
X85422317Y-100673547D01*
X85422315Y-100673550D01*
X85398305Y-100718469D01*
X85324769Y-100856043D01*
X85324768Y-100856045D01*
X85324768Y-100856046D01*
X85322652Y-100863022D01*
X85264699Y-101054067D01*
X85244417Y-101260000D01*
X64900500Y-101260000D01*
X64900500Y-101244667D01*
X64901762Y-101227020D01*
X64905647Y-101199999D01*
X64901762Y-101172977D01*
X64900500Y-101155331D01*
X64900500Y-101134110D01*
X64900500Y-101134108D01*
X64893073Y-101106390D01*
X64890111Y-101091946D01*
X64885165Y-101057545D01*
X64885165Y-101057543D01*
X64876928Y-101039509D01*
X64869949Y-101020091D01*
X64866392Y-101006814D01*
X64848316Y-100975506D01*
X64842911Y-100965020D01*
X64825380Y-100926633D01*
X64825379Y-100926631D01*
X64825377Y-100926627D01*
X64825372Y-100926621D01*
X64817306Y-100917312D01*
X64803628Y-100898104D01*
X64800499Y-100892685D01*
X64769677Y-100861863D01*
X64763659Y-100855401D01*
X64731128Y-100817857D01*
X64731125Y-100817854D01*
X64727066Y-100815246D01*
X64711793Y-100802937D01*
X64707318Y-100799504D01*
X64707314Y-100799500D01*
X64695404Y-100792623D01*
X64663121Y-100773984D01*
X64658085Y-100770915D01*
X64657879Y-100770782D01*
X64610053Y-100740047D01*
X64610051Y-100740046D01*
X64610049Y-100740045D01*
X64609004Y-100739567D01*
X64599375Y-100736171D01*
X64593192Y-100733610D01*
X64593187Y-100733608D01*
X64593186Y-100733608D01*
X64536701Y-100718473D01*
X64533862Y-100717675D01*
X64471963Y-100699500D01*
X64471961Y-100699500D01*
X64328039Y-100699500D01*
X64266145Y-100717673D01*
X64263307Y-100718469D01*
X64206817Y-100733606D01*
X64200609Y-100736177D01*
X64190985Y-100739572D01*
X64189949Y-100740045D01*
X64141915Y-100770914D01*
X64136880Y-100773983D01*
X64092689Y-100799497D01*
X64088266Y-100802892D01*
X64072945Y-100815238D01*
X64068877Y-100817852D01*
X64068868Y-100817860D01*
X64036355Y-100855383D01*
X64030324Y-100861860D01*
X63999498Y-100892686D01*
X63996364Y-100898115D01*
X63982701Y-100917303D01*
X63974623Y-100926626D01*
X63974623Y-100926627D01*
X63957088Y-100965019D01*
X63951687Y-100975495D01*
X63933607Y-101006813D01*
X63933606Y-101006816D01*
X63930046Y-101020103D01*
X63923069Y-101039511D01*
X63914835Y-101057541D01*
X63909886Y-101091956D01*
X63906925Y-101106394D01*
X63899500Y-101134105D01*
X63899500Y-101155331D01*
X63898238Y-101172977D01*
X63894353Y-101199999D01*
X50010500Y-101199999D01*
X50010500Y-99799999D01*
X55894785Y-99799999D01*
X55894785Y-99800000D01*
X55913602Y-100003082D01*
X55969417Y-100199247D01*
X55969422Y-100199260D01*
X56060327Y-100381821D01*
X56183237Y-100544581D01*
X56333958Y-100681980D01*
X56333960Y-100681982D01*
X56417336Y-100733606D01*
X56507363Y-100789348D01*
X56697544Y-100863024D01*
X56898024Y-100900500D01*
X56898026Y-100900500D01*
X57101974Y-100900500D01*
X57101976Y-100900500D01*
X57302456Y-100863024D01*
X57492637Y-100789348D01*
X57666041Y-100681981D01*
X57816764Y-100544579D01*
X57939673Y-100381821D01*
X58030582Y-100199250D01*
X58086397Y-100003083D01*
X58086683Y-99999999D01*
X91894353Y-99999999D01*
X91898238Y-100027020D01*
X91899500Y-100044667D01*
X91899500Y-100065894D01*
X91906923Y-100093596D01*
X91909885Y-100108037D01*
X91914835Y-100142456D01*
X91914837Y-100142464D01*
X91923069Y-100160489D01*
X91930050Y-100179907D01*
X91933607Y-100193183D01*
X91933610Y-100193190D01*
X91951681Y-100224491D01*
X91957086Y-100234974D01*
X91974623Y-100273373D01*
X91982694Y-100282687D01*
X91996368Y-100301890D01*
X91999497Y-100307310D01*
X91999501Y-100307315D01*
X92030322Y-100338136D01*
X92036354Y-100344615D01*
X92068870Y-100382141D01*
X92068874Y-100382145D01*
X92072928Y-100384750D01*
X92088211Y-100397066D01*
X92092684Y-100400498D01*
X92092686Y-100400500D01*
X92136887Y-100426019D01*
X92141871Y-100429056D01*
X92189947Y-100459953D01*
X92189950Y-100459954D01*
X92189952Y-100459955D01*
X92190994Y-100460431D01*
X92200621Y-100463827D01*
X92206811Y-100466390D01*
X92206814Y-100466392D01*
X92263246Y-100481512D01*
X92263261Y-100481516D01*
X92266098Y-100482312D01*
X92328039Y-100500500D01*
X104271963Y-100500500D01*
X104271963Y-100500499D01*
X104310226Y-100489263D01*
X104333902Y-100482312D01*
X104336681Y-100481531D01*
X104393186Y-100466392D01*
X104393189Y-100466389D01*
X104399367Y-100463832D01*
X104408996Y-100460434D01*
X104410045Y-100459955D01*
X104410053Y-100459953D01*
X104458087Y-100429082D01*
X104463102Y-100426025D01*
X104507314Y-100400500D01*
X104507321Y-100400492D01*
X104511828Y-100397035D01*
X104527067Y-100384752D01*
X104531128Y-100382143D01*
X104563653Y-100344605D01*
X104569673Y-100338140D01*
X104569677Y-100338136D01*
X104600500Y-100307314D01*
X104603628Y-100301894D01*
X104617306Y-100282687D01*
X104625377Y-100273373D01*
X104642912Y-100234974D01*
X104648311Y-100224502D01*
X104666392Y-100193186D01*
X104669952Y-100179898D01*
X104676934Y-100160479D01*
X104685164Y-100142459D01*
X104685163Y-100142459D01*
X104685165Y-100142457D01*
X104690111Y-100108053D01*
X104693074Y-100093606D01*
X104694263Y-100089165D01*
X104700500Y-100065892D01*
X104700500Y-100044667D01*
X104701762Y-100027020D01*
X104705647Y-99999999D01*
X104701762Y-99972977D01*
X104700500Y-99955331D01*
X104700500Y-99934110D01*
X104700500Y-99934108D01*
X104693073Y-99906390D01*
X104690111Y-99891946D01*
X104685165Y-99857545D01*
X104685165Y-99857543D01*
X104676928Y-99839509D01*
X104669949Y-99820091D01*
X104666392Y-99806814D01*
X104648316Y-99775506D01*
X104642911Y-99765020D01*
X104625380Y-99726633D01*
X104625379Y-99726631D01*
X104625377Y-99726627D01*
X104625372Y-99726621D01*
X104617306Y-99717312D01*
X104603628Y-99698104D01*
X104600499Y-99692685D01*
X104569677Y-99661863D01*
X104563659Y-99655401D01*
X104531128Y-99617857D01*
X104531125Y-99617854D01*
X104527066Y-99615246D01*
X104511793Y-99602937D01*
X104507318Y-99599504D01*
X104507314Y-99599500D01*
X104495404Y-99592623D01*
X104463121Y-99573984D01*
X104458085Y-99570915D01*
X104457879Y-99570782D01*
X104410053Y-99540047D01*
X104410051Y-99540046D01*
X104410049Y-99540045D01*
X104409004Y-99539567D01*
X104399375Y-99536171D01*
X104393192Y-99533610D01*
X104393187Y-99533608D01*
X104393186Y-99533608D01*
X104336701Y-99518473D01*
X104333862Y-99517675D01*
X104271963Y-99499500D01*
X104271961Y-99499500D01*
X104265892Y-99499500D01*
X92471961Y-99499500D01*
X92328039Y-99499500D01*
X92266145Y-99517673D01*
X92263307Y-99518469D01*
X92206817Y-99533606D01*
X92200609Y-99536177D01*
X92190985Y-99539572D01*
X92189949Y-99540045D01*
X92141915Y-99570914D01*
X92136880Y-99573983D01*
X92092689Y-99599497D01*
X92088266Y-99602892D01*
X92072945Y-99615238D01*
X92068877Y-99617852D01*
X92068868Y-99617860D01*
X92036355Y-99655383D01*
X92030324Y-99661860D01*
X91999498Y-99692686D01*
X91996364Y-99698115D01*
X91982701Y-99717303D01*
X91974623Y-99726626D01*
X91974623Y-99726627D01*
X91957088Y-99765019D01*
X91951687Y-99775495D01*
X91933607Y-99806813D01*
X91933606Y-99806816D01*
X91930046Y-99820103D01*
X91923069Y-99839511D01*
X91914835Y-99857541D01*
X91909886Y-99891956D01*
X91906925Y-99906394D01*
X91899500Y-99934105D01*
X91899500Y-99955331D01*
X91898238Y-99972977D01*
X91894353Y-99999999D01*
X58086683Y-99999999D01*
X58105215Y-99800000D01*
X58102952Y-99775583D01*
X58086397Y-99596917D01*
X58049264Y-99466410D01*
X58030582Y-99400750D01*
X57939673Y-99218179D01*
X57816764Y-99055421D01*
X57816762Y-99055418D01*
X57666041Y-98918019D01*
X57666039Y-98918017D01*
X57492642Y-98810655D01*
X57492635Y-98810651D01*
X57397546Y-98773814D01*
X57302456Y-98736976D01*
X57211642Y-98720000D01*
X59844417Y-98720000D01*
X59864699Y-98925932D01*
X59864700Y-98925934D01*
X59924768Y-99123954D01*
X60022315Y-99306450D01*
X60022317Y-99306452D01*
X60153589Y-99466410D01*
X60238602Y-99536177D01*
X60313550Y-99597685D01*
X60496046Y-99695232D01*
X60694066Y-99755300D01*
X60694065Y-99755300D01*
X60712529Y-99757118D01*
X60900000Y-99775583D01*
X61105934Y-99755300D01*
X61303954Y-99695232D01*
X61486450Y-99597685D01*
X61646410Y-99466410D01*
X61777685Y-99306450D01*
X61875232Y-99123954D01*
X61935300Y-98925934D01*
X61955583Y-98720000D01*
X85244417Y-98720000D01*
X85264699Y-98925932D01*
X85264700Y-98925934D01*
X85324768Y-99123954D01*
X85422315Y-99306450D01*
X85422317Y-99306452D01*
X85553589Y-99466410D01*
X85638602Y-99536177D01*
X85713550Y-99597685D01*
X85896046Y-99695232D01*
X86094066Y-99755300D01*
X86094065Y-99755300D01*
X86112529Y-99757118D01*
X86300000Y-99775583D01*
X86505934Y-99755300D01*
X86703954Y-99695232D01*
X86886450Y-99597685D01*
X87046410Y-99466410D01*
X87177685Y-99306450D01*
X87275232Y-99123954D01*
X87335300Y-98925934D01*
X87355583Y-98720000D01*
X87335300Y-98514066D01*
X87275232Y-98316046D01*
X87177685Y-98133550D01*
X87104705Y-98044623D01*
X87046410Y-97973589D01*
X86908583Y-97860479D01*
X86886450Y-97842315D01*
X86703954Y-97744768D01*
X86556369Y-97699999D01*
X96294353Y-97699999D01*
X96298238Y-97727020D01*
X96299500Y-97744667D01*
X96299500Y-97765894D01*
X96306923Y-97793596D01*
X96309885Y-97808037D01*
X96314835Y-97842456D01*
X96314837Y-97842464D01*
X96323069Y-97860489D01*
X96330050Y-97879907D01*
X96333607Y-97893183D01*
X96333610Y-97893190D01*
X96351681Y-97924491D01*
X96357086Y-97934974D01*
X96374623Y-97973373D01*
X96382694Y-97982687D01*
X96396368Y-98001890D01*
X96399497Y-98007310D01*
X96399501Y-98007315D01*
X96430322Y-98038136D01*
X96436354Y-98044615D01*
X96468870Y-98082141D01*
X96468874Y-98082145D01*
X96472928Y-98084750D01*
X96488211Y-98097066D01*
X96492684Y-98100498D01*
X96492686Y-98100500D01*
X96536887Y-98126019D01*
X96541871Y-98129056D01*
X96589947Y-98159953D01*
X96589950Y-98159954D01*
X96589952Y-98159955D01*
X96590994Y-98160431D01*
X96600621Y-98163827D01*
X96606811Y-98166390D01*
X96606814Y-98166392D01*
X96663246Y-98181512D01*
X96663261Y-98181516D01*
X96666098Y-98182312D01*
X96728039Y-98200500D01*
X104271963Y-98200500D01*
X104271963Y-98200499D01*
X104310226Y-98189263D01*
X104333902Y-98182312D01*
X104336681Y-98181531D01*
X104393186Y-98166392D01*
X104393189Y-98166389D01*
X104399367Y-98163832D01*
X104408996Y-98160434D01*
X104410045Y-98159955D01*
X104410053Y-98159953D01*
X104458087Y-98129082D01*
X104463102Y-98126025D01*
X104507314Y-98100500D01*
X104507321Y-98100492D01*
X104511828Y-98097035D01*
X104527067Y-98084752D01*
X104531128Y-98082143D01*
X104563653Y-98044605D01*
X104569673Y-98038140D01*
X104569677Y-98038136D01*
X104600500Y-98007314D01*
X104603628Y-98001894D01*
X104617306Y-97982687D01*
X104625377Y-97973373D01*
X104642912Y-97934974D01*
X104648311Y-97924502D01*
X104666392Y-97893186D01*
X104669952Y-97879898D01*
X104676934Y-97860479D01*
X104685164Y-97842459D01*
X104685163Y-97842459D01*
X104685165Y-97842457D01*
X104690111Y-97808053D01*
X104693074Y-97793606D01*
X104694263Y-97789165D01*
X104700500Y-97765892D01*
X104700500Y-97744667D01*
X104701762Y-97727020D01*
X104705647Y-97699999D01*
X104701762Y-97672977D01*
X104700500Y-97655331D01*
X104700500Y-97634110D01*
X104700500Y-97634108D01*
X104693073Y-97606390D01*
X104690111Y-97591946D01*
X104685165Y-97557545D01*
X104685165Y-97557543D01*
X104676928Y-97539509D01*
X104669949Y-97520091D01*
X104666392Y-97506814D01*
X104648316Y-97475506D01*
X104642911Y-97465020D01*
X104625380Y-97426633D01*
X104625379Y-97426631D01*
X104625377Y-97426627D01*
X104625372Y-97426621D01*
X104617306Y-97417312D01*
X104603628Y-97398104D01*
X104600499Y-97392685D01*
X104569677Y-97361863D01*
X104563659Y-97355401D01*
X104531128Y-97317857D01*
X104531125Y-97317854D01*
X104527066Y-97315246D01*
X104511793Y-97302937D01*
X104507318Y-97299504D01*
X104507314Y-97299500D01*
X104495404Y-97292623D01*
X104463121Y-97273984D01*
X104458085Y-97270915D01*
X104457879Y-97270782D01*
X104410053Y-97240047D01*
X104410051Y-97240046D01*
X104410049Y-97240045D01*
X104409004Y-97239567D01*
X104399375Y-97236171D01*
X104393192Y-97233610D01*
X104393187Y-97233608D01*
X104393186Y-97233608D01*
X104336701Y-97218473D01*
X104333862Y-97217675D01*
X104271963Y-97199500D01*
X104271961Y-97199500D01*
X104265892Y-97199500D01*
X96871961Y-97199500D01*
X96728039Y-97199500D01*
X96666145Y-97217673D01*
X96663307Y-97218469D01*
X96606817Y-97233606D01*
X96600609Y-97236177D01*
X96590985Y-97239572D01*
X96589949Y-97240045D01*
X96541915Y-97270914D01*
X96536880Y-97273983D01*
X96492689Y-97299497D01*
X96488266Y-97302892D01*
X96472945Y-97315238D01*
X96468877Y-97317852D01*
X96468868Y-97317860D01*
X96436355Y-97355383D01*
X96430324Y-97361860D01*
X96399498Y-97392686D01*
X96396364Y-97398115D01*
X96382701Y-97417303D01*
X96374623Y-97426626D01*
X96374623Y-97426627D01*
X96357088Y-97465019D01*
X96351687Y-97475495D01*
X96333607Y-97506813D01*
X96333606Y-97506816D01*
X96330046Y-97520103D01*
X96323069Y-97539511D01*
X96314835Y-97557541D01*
X96309886Y-97591956D01*
X96306925Y-97606394D01*
X96299500Y-97634105D01*
X96299500Y-97655331D01*
X96298238Y-97672977D01*
X96294353Y-97699999D01*
X86556369Y-97699999D01*
X86505934Y-97684700D01*
X86505932Y-97684699D01*
X86505934Y-97684699D01*
X86300000Y-97664417D01*
X86094067Y-97684699D01*
X85896043Y-97744769D01*
X85856522Y-97765894D01*
X85713550Y-97842315D01*
X85713548Y-97842316D01*
X85713547Y-97842317D01*
X85553589Y-97973589D01*
X85422317Y-98133547D01*
X85422315Y-98133550D01*
X85396470Y-98181903D01*
X85324769Y-98316043D01*
X85264699Y-98514067D01*
X85244417Y-98720000D01*
X61955583Y-98720000D01*
X61935300Y-98514066D01*
X61875232Y-98316046D01*
X61777685Y-98133550D01*
X61704705Y-98044623D01*
X61646410Y-97973589D01*
X61508583Y-97860479D01*
X61486450Y-97842315D01*
X61303954Y-97744768D01*
X61105934Y-97684700D01*
X61105932Y-97684699D01*
X61105934Y-97684699D01*
X60900000Y-97664417D01*
X60694067Y-97684699D01*
X60496043Y-97744769D01*
X60456522Y-97765894D01*
X60313550Y-97842315D01*
X60313548Y-97842316D01*
X60313547Y-97842317D01*
X60153589Y-97973589D01*
X60022317Y-98133547D01*
X60022315Y-98133550D01*
X59996470Y-98181903D01*
X59924769Y-98316043D01*
X59864699Y-98514067D01*
X59844417Y-98720000D01*
X57211642Y-98720000D01*
X57101976Y-98699500D01*
X56898024Y-98699500D01*
X56697544Y-98736976D01*
X56697541Y-98736976D01*
X56697541Y-98736977D01*
X56507364Y-98810651D01*
X56507357Y-98810655D01*
X56333960Y-98918017D01*
X56333958Y-98918019D01*
X56183237Y-99055418D01*
X56060327Y-99218178D01*
X55969422Y-99400739D01*
X55969417Y-99400752D01*
X55913602Y-99596917D01*
X55894785Y-99799999D01*
X50010500Y-99799999D01*
X50010500Y-96385321D01*
X55899500Y-96385321D01*
X55899500Y-98134678D01*
X55914032Y-98207735D01*
X55914033Y-98207739D01*
X55914034Y-98207740D01*
X55969399Y-98290601D01*
X56052260Y-98345966D01*
X56052264Y-98345967D01*
X56125321Y-98360499D01*
X56125324Y-98360500D01*
X56125326Y-98360500D01*
X57874676Y-98360500D01*
X57874677Y-98360499D01*
X57947740Y-98345966D01*
X58030601Y-98290601D01*
X58085966Y-98207740D01*
X58100500Y-98134674D01*
X58100500Y-96385326D01*
X58100500Y-96385323D01*
X58100499Y-96385321D01*
X58085967Y-96312264D01*
X58085966Y-96312260D01*
X58078108Y-96300499D01*
X58030601Y-96229399D01*
X57956669Y-96180000D01*
X59844417Y-96180000D01*
X59864699Y-96385932D01*
X59864700Y-96385934D01*
X59924768Y-96583954D01*
X60022315Y-96766450D01*
X60022317Y-96766452D01*
X60153589Y-96926410D01*
X60250209Y-97005702D01*
X60313550Y-97057685D01*
X60496046Y-97155232D01*
X60694066Y-97215300D01*
X60694065Y-97215300D01*
X60712529Y-97217118D01*
X60900000Y-97235583D01*
X61105934Y-97215300D01*
X61303954Y-97155232D01*
X61486450Y-97057685D01*
X61646410Y-96926410D01*
X61777685Y-96766450D01*
X61875232Y-96583954D01*
X61935300Y-96385934D01*
X61955583Y-96180000D01*
X85244417Y-96180000D01*
X85264699Y-96385932D01*
X85264700Y-96385934D01*
X85324768Y-96583954D01*
X85422315Y-96766450D01*
X85422317Y-96766452D01*
X85553589Y-96926410D01*
X85650209Y-97005702D01*
X85713550Y-97057685D01*
X85896046Y-97155232D01*
X86094066Y-97215300D01*
X86094065Y-97215300D01*
X86112529Y-97217118D01*
X86300000Y-97235583D01*
X86505934Y-97215300D01*
X86703954Y-97155232D01*
X86886450Y-97057685D01*
X87046410Y-96926410D01*
X87177685Y-96766450D01*
X87275232Y-96583954D01*
X87335300Y-96385934D01*
X87355583Y-96180000D01*
X87335300Y-95974066D01*
X87282498Y-95800000D01*
X88594353Y-95800000D01*
X88614834Y-95942456D01*
X88629271Y-95974067D01*
X88674623Y-96073373D01*
X88768872Y-96182143D01*
X88889947Y-96259953D01*
X88889950Y-96259954D01*
X88889949Y-96259954D01*
X89028036Y-96300499D01*
X89028038Y-96300500D01*
X89028039Y-96300500D01*
X89171962Y-96300500D01*
X89171962Y-96300499D01*
X89310050Y-96259954D01*
X89310051Y-96259954D01*
X89371936Y-96220184D01*
X89438974Y-96200500D01*
X90661026Y-96200500D01*
X90728064Y-96220184D01*
X90789949Y-96259954D01*
X90928036Y-96300499D01*
X90928038Y-96300500D01*
X90928039Y-96300500D01*
X91071962Y-96300500D01*
X91071962Y-96300499D01*
X91210053Y-96259953D01*
X91331128Y-96182143D01*
X91425377Y-96073373D01*
X91485165Y-95942457D01*
X91505647Y-95800000D01*
X91485165Y-95657543D01*
X91425377Y-95526627D01*
X91331128Y-95417857D01*
X91210053Y-95340047D01*
X91210051Y-95340046D01*
X91210049Y-95340045D01*
X91210050Y-95340045D01*
X91071963Y-95299500D01*
X91071961Y-95299500D01*
X90928039Y-95299500D01*
X90928036Y-95299500D01*
X90789950Y-95340045D01*
X90789948Y-95340045D01*
X90728064Y-95379816D01*
X90661026Y-95399500D01*
X89438974Y-95399500D01*
X89371936Y-95379816D01*
X89310050Y-95340045D01*
X89171963Y-95299500D01*
X89171961Y-95299500D01*
X89028039Y-95299500D01*
X89028036Y-95299500D01*
X88889949Y-95340045D01*
X88768873Y-95417856D01*
X88674623Y-95526626D01*
X88674622Y-95526628D01*
X88614834Y-95657543D01*
X88594353Y-95800000D01*
X87282498Y-95800000D01*
X87275232Y-95776046D01*
X87177685Y-95593550D01*
X87122762Y-95526626D01*
X87046410Y-95433589D01*
X86886452Y-95302317D01*
X86886453Y-95302317D01*
X86886450Y-95302315D01*
X86703954Y-95204768D01*
X86505934Y-95144700D01*
X86505932Y-95144699D01*
X86505934Y-95144699D01*
X86300000Y-95124417D01*
X86094067Y-95144699D01*
X85896043Y-95204769D01*
X85785898Y-95263643D01*
X85713550Y-95302315D01*
X85713548Y-95302316D01*
X85713547Y-95302317D01*
X85553589Y-95433589D01*
X85422317Y-95593547D01*
X85324769Y-95776043D01*
X85264699Y-95974067D01*
X85244417Y-96180000D01*
X61955583Y-96180000D01*
X61935300Y-95974066D01*
X61875232Y-95776046D01*
X61777685Y-95593550D01*
X61722762Y-95526626D01*
X61646410Y-95433589D01*
X61486452Y-95302317D01*
X61486453Y-95302317D01*
X61486450Y-95302315D01*
X61303954Y-95204768D01*
X61105934Y-95144700D01*
X61105932Y-95144699D01*
X61105934Y-95144699D01*
X60900000Y-95124417D01*
X60694067Y-95144699D01*
X60496043Y-95204769D01*
X60385898Y-95263643D01*
X60313550Y-95302315D01*
X60313548Y-95302316D01*
X60313547Y-95302317D01*
X60153589Y-95433589D01*
X60022317Y-95593547D01*
X59924769Y-95776043D01*
X59864699Y-95974067D01*
X59844417Y-96180000D01*
X57956669Y-96180000D01*
X57947740Y-96174034D01*
X57947739Y-96174033D01*
X57947735Y-96174032D01*
X57874677Y-96159500D01*
X57874674Y-96159500D01*
X56125326Y-96159500D01*
X56125323Y-96159500D01*
X56052264Y-96174032D01*
X56052260Y-96174033D01*
X55969399Y-96229399D01*
X55914033Y-96312260D01*
X55914032Y-96312264D01*
X55899500Y-96385321D01*
X50010500Y-96385321D01*
X50010500Y-93640000D01*
X59844417Y-93640000D01*
X59864699Y-93845932D01*
X59864700Y-93845934D01*
X59924768Y-94043954D01*
X60022315Y-94226450D01*
X60022317Y-94226452D01*
X60153589Y-94386410D01*
X60250209Y-94465702D01*
X60313550Y-94517685D01*
X60496046Y-94615232D01*
X60694066Y-94675300D01*
X60694065Y-94675300D01*
X60712529Y-94677118D01*
X60900000Y-94695583D01*
X61105934Y-94675300D01*
X61303954Y-94615232D01*
X61486450Y-94517685D01*
X61646410Y-94386410D01*
X61777685Y-94226450D01*
X61875232Y-94043954D01*
X61935300Y-93845934D01*
X61955583Y-93640000D01*
X85244417Y-93640000D01*
X85264699Y-93845932D01*
X85264700Y-93845934D01*
X85324768Y-94043954D01*
X85422315Y-94226450D01*
X85422317Y-94226452D01*
X85553589Y-94386410D01*
X85650209Y-94465702D01*
X85713550Y-94517685D01*
X85896046Y-94615232D01*
X86094066Y-94675300D01*
X86094065Y-94675300D01*
X86112529Y-94677118D01*
X86300000Y-94695583D01*
X86505934Y-94675300D01*
X86703954Y-94615232D01*
X86886450Y-94517685D01*
X87046410Y-94386410D01*
X87177685Y-94226450D01*
X87275232Y-94043954D01*
X87335300Y-93845934D01*
X87355583Y-93640000D01*
X87335300Y-93434066D01*
X87275232Y-93236046D01*
X87177685Y-93053550D01*
X87125702Y-92990209D01*
X87046410Y-92893589D01*
X86886452Y-92762317D01*
X86886453Y-92762317D01*
X86886450Y-92762315D01*
X86703954Y-92664768D01*
X86505934Y-92604700D01*
X86505932Y-92604699D01*
X86505934Y-92604699D01*
X86300000Y-92584417D01*
X86094067Y-92604699D01*
X85896043Y-92664769D01*
X85785898Y-92723643D01*
X85713550Y-92762315D01*
X85713548Y-92762316D01*
X85713547Y-92762317D01*
X85553589Y-92893589D01*
X85422317Y-93053547D01*
X85324769Y-93236043D01*
X85264699Y-93434067D01*
X85244417Y-93640000D01*
X61955583Y-93640000D01*
X61935300Y-93434066D01*
X61875232Y-93236046D01*
X61777685Y-93053550D01*
X61725702Y-92990209D01*
X61646410Y-92893589D01*
X61486452Y-92762317D01*
X61486453Y-92762317D01*
X61486450Y-92762315D01*
X61303954Y-92664768D01*
X61105934Y-92604700D01*
X61105932Y-92604699D01*
X61105934Y-92604699D01*
X60900000Y-92584417D01*
X60694067Y-92604699D01*
X60496043Y-92664769D01*
X60385898Y-92723643D01*
X60313550Y-92762315D01*
X60313548Y-92762316D01*
X60313547Y-92762317D01*
X60153589Y-92893589D01*
X60022317Y-93053547D01*
X59924769Y-93236043D01*
X59864699Y-93434067D01*
X59844417Y-93640000D01*
X50010500Y-93640000D01*
X50010500Y-91100000D01*
X59844417Y-91100000D01*
X59864699Y-91305932D01*
X59864700Y-91305934D01*
X59924768Y-91503954D01*
X60022315Y-91686450D01*
X60022317Y-91686452D01*
X60153589Y-91846410D01*
X60250209Y-91925702D01*
X60313550Y-91977685D01*
X60496046Y-92075232D01*
X60694066Y-92135300D01*
X60694065Y-92135300D01*
X60712529Y-92137118D01*
X60900000Y-92155583D01*
X61105934Y-92135300D01*
X61303954Y-92075232D01*
X61486450Y-91977685D01*
X61646410Y-91846410D01*
X61777685Y-91686450D01*
X61875232Y-91503954D01*
X61935300Y-91305934D01*
X61955583Y-91100000D01*
X85244417Y-91100000D01*
X85264699Y-91305932D01*
X85264700Y-91305934D01*
X85324768Y-91503954D01*
X85422315Y-91686450D01*
X85422317Y-91686452D01*
X85553589Y-91846410D01*
X85650209Y-91925702D01*
X85713550Y-91977685D01*
X85896046Y-92075232D01*
X86094066Y-92135300D01*
X86094065Y-92135300D01*
X86112529Y-92137118D01*
X86300000Y-92155583D01*
X86505934Y-92135300D01*
X86703954Y-92075232D01*
X86886450Y-91977685D01*
X87046410Y-91846410D01*
X87177685Y-91686450D01*
X87275232Y-91503954D01*
X87335300Y-91305934D01*
X87355583Y-91100000D01*
X87335300Y-90894066D01*
X87275232Y-90696046D01*
X87177685Y-90513550D01*
X87125702Y-90450209D01*
X87046410Y-90353589D01*
X86886452Y-90222317D01*
X86886453Y-90222317D01*
X86886450Y-90222315D01*
X86703954Y-90124768D01*
X86505934Y-90064700D01*
X86505932Y-90064699D01*
X86505934Y-90064699D01*
X86300000Y-90044417D01*
X86094067Y-90064699D01*
X85896043Y-90124769D01*
X85785898Y-90183643D01*
X85713550Y-90222315D01*
X85713548Y-90222316D01*
X85713547Y-90222317D01*
X85553589Y-90353589D01*
X85422317Y-90513547D01*
X85324769Y-90696043D01*
X85264699Y-90894067D01*
X85244417Y-91100000D01*
X61955583Y-91100000D01*
X61935300Y-90894066D01*
X61875232Y-90696046D01*
X61777685Y-90513550D01*
X61725702Y-90450209D01*
X61646410Y-90353589D01*
X61486452Y-90222317D01*
X61486453Y-90222317D01*
X61486450Y-90222315D01*
X61303954Y-90124768D01*
X61105934Y-90064700D01*
X61105932Y-90064699D01*
X61105934Y-90064699D01*
X60900000Y-90044417D01*
X60694067Y-90064699D01*
X60496043Y-90124769D01*
X60385898Y-90183643D01*
X60313550Y-90222315D01*
X60313548Y-90222316D01*
X60313547Y-90222317D01*
X60153589Y-90353589D01*
X60022317Y-90513547D01*
X59924769Y-90696043D01*
X59864699Y-90894067D01*
X59844417Y-91100000D01*
X50010500Y-91100000D01*
X50010500Y-88560000D01*
X59844417Y-88560000D01*
X59864699Y-88765932D01*
X59864700Y-88765934D01*
X59924768Y-88963954D01*
X60022315Y-89146450D01*
X60022317Y-89146452D01*
X60153589Y-89306410D01*
X60250209Y-89385702D01*
X60313550Y-89437685D01*
X60496046Y-89535232D01*
X60694066Y-89595300D01*
X60694065Y-89595300D01*
X60712529Y-89597118D01*
X60900000Y-89615583D01*
X61105934Y-89595300D01*
X61303954Y-89535232D01*
X61486450Y-89437685D01*
X61646410Y-89306410D01*
X61777685Y-89146450D01*
X61875232Y-88963954D01*
X61935300Y-88765934D01*
X61955583Y-88560000D01*
X85244417Y-88560000D01*
X85264699Y-88765932D01*
X85264700Y-88765934D01*
X85324768Y-88963954D01*
X85422315Y-89146450D01*
X85422317Y-89146452D01*
X85553589Y-89306410D01*
X85650209Y-89385702D01*
X85713550Y-89437685D01*
X85896046Y-89535232D01*
X86094066Y-89595300D01*
X86094065Y-89595300D01*
X86112529Y-89597118D01*
X86300000Y-89615583D01*
X86505934Y-89595300D01*
X86703954Y-89535232D01*
X86886450Y-89437685D01*
X87046410Y-89306410D01*
X87177685Y-89146450D01*
X87275232Y-88963954D01*
X87335300Y-88765934D01*
X87355583Y-88560000D01*
X87335300Y-88354066D01*
X87275232Y-88156046D01*
X87177685Y-87973550D01*
X87125702Y-87910209D01*
X87046410Y-87813589D01*
X86886452Y-87682317D01*
X86886453Y-87682317D01*
X86886450Y-87682315D01*
X86703954Y-87584768D01*
X86505934Y-87524700D01*
X86505932Y-87524699D01*
X86505934Y-87524699D01*
X86300000Y-87504417D01*
X86094067Y-87524699D01*
X85896043Y-87584769D01*
X85785898Y-87643643D01*
X85713550Y-87682315D01*
X85713548Y-87682316D01*
X85713547Y-87682317D01*
X85553589Y-87813589D01*
X85422317Y-87973547D01*
X85324769Y-88156043D01*
X85264699Y-88354067D01*
X85244417Y-88560000D01*
X61955583Y-88560000D01*
X61935300Y-88354066D01*
X61875232Y-88156046D01*
X61777685Y-87973550D01*
X61725702Y-87910209D01*
X61646410Y-87813589D01*
X61486452Y-87682317D01*
X61486453Y-87682317D01*
X61486450Y-87682315D01*
X61303954Y-87584768D01*
X61105934Y-87524700D01*
X61105932Y-87524699D01*
X61105934Y-87524699D01*
X60900000Y-87504417D01*
X60694067Y-87524699D01*
X60496043Y-87584769D01*
X60385898Y-87643643D01*
X60313550Y-87682315D01*
X60313548Y-87682316D01*
X60313547Y-87682317D01*
X60153589Y-87813589D01*
X60022317Y-87973547D01*
X59924769Y-88156043D01*
X59864699Y-88354067D01*
X59844417Y-88560000D01*
X50010500Y-88560000D01*
X50010500Y-86020000D01*
X59844417Y-86020000D01*
X59864699Y-86225932D01*
X59864700Y-86225934D01*
X59924768Y-86423954D01*
X60022315Y-86606450D01*
X60022317Y-86606452D01*
X60153589Y-86766410D01*
X60250209Y-86845702D01*
X60313550Y-86897685D01*
X60496046Y-86995232D01*
X60694066Y-87055300D01*
X60694065Y-87055300D01*
X60712529Y-87057118D01*
X60900000Y-87075583D01*
X61105934Y-87055300D01*
X61303954Y-86995232D01*
X61486450Y-86897685D01*
X61646410Y-86766410D01*
X61777685Y-86606450D01*
X61875232Y-86423954D01*
X61935300Y-86225934D01*
X61955583Y-86020000D01*
X85244417Y-86020000D01*
X85264699Y-86225932D01*
X85264700Y-86225934D01*
X85324768Y-86423954D01*
X85422315Y-86606450D01*
X85422317Y-86606452D01*
X85553589Y-86766410D01*
X85650209Y-86845702D01*
X85713550Y-86897685D01*
X85896046Y-86995232D01*
X86094066Y-87055300D01*
X86094065Y-87055300D01*
X86112529Y-87057118D01*
X86300000Y-87075583D01*
X86505934Y-87055300D01*
X86703954Y-86995232D01*
X86886450Y-86897685D01*
X87046410Y-86766410D01*
X87177685Y-86606450D01*
X87275232Y-86423954D01*
X87335300Y-86225934D01*
X87355583Y-86020000D01*
X87335300Y-85814066D01*
X87275232Y-85616046D01*
X87177685Y-85433550D01*
X87125702Y-85370209D01*
X87046410Y-85273589D01*
X86886452Y-85142317D01*
X86886453Y-85142317D01*
X86886450Y-85142315D01*
X86703954Y-85044768D01*
X86505934Y-84984700D01*
X86505932Y-84984699D01*
X86505934Y-84984699D01*
X86300000Y-84964417D01*
X86094067Y-84984699D01*
X85896043Y-85044769D01*
X85785898Y-85103643D01*
X85713550Y-85142315D01*
X85713548Y-85142316D01*
X85713547Y-85142317D01*
X85553589Y-85273589D01*
X85422317Y-85433547D01*
X85324769Y-85616043D01*
X85264699Y-85814067D01*
X85244417Y-86020000D01*
X61955583Y-86020000D01*
X61935300Y-85814066D01*
X61875232Y-85616046D01*
X61777685Y-85433550D01*
X61725702Y-85370209D01*
X61646410Y-85273589D01*
X61486452Y-85142317D01*
X61486453Y-85142317D01*
X61486450Y-85142315D01*
X61303954Y-85044768D01*
X61105934Y-84984700D01*
X61105932Y-84984699D01*
X61105934Y-84984699D01*
X60900000Y-84964417D01*
X60694067Y-84984699D01*
X60496043Y-85044769D01*
X60385898Y-85103643D01*
X60313550Y-85142315D01*
X60313548Y-85142316D01*
X60313547Y-85142317D01*
X60153589Y-85273589D01*
X60022317Y-85433547D01*
X59924769Y-85616043D01*
X59864699Y-85814067D01*
X59844417Y-86020000D01*
X50010500Y-86020000D01*
X50010500Y-83480000D01*
X59844417Y-83480000D01*
X59864699Y-83685932D01*
X59864700Y-83685934D01*
X59924768Y-83883954D01*
X60022315Y-84066450D01*
X60022317Y-84066452D01*
X60153589Y-84226410D01*
X60250209Y-84305702D01*
X60313550Y-84357685D01*
X60496046Y-84455232D01*
X60694066Y-84515300D01*
X60694065Y-84515300D01*
X60712529Y-84517118D01*
X60900000Y-84535583D01*
X61105934Y-84515300D01*
X61303954Y-84455232D01*
X61486450Y-84357685D01*
X61646410Y-84226410D01*
X61777685Y-84066450D01*
X61875232Y-83883954D01*
X61935300Y-83685934D01*
X61955583Y-83480000D01*
X61935300Y-83274066D01*
X61875232Y-83076046D01*
X61777685Y-82893550D01*
X61725702Y-82830209D01*
X61646410Y-82733589D01*
X61486452Y-82602317D01*
X61486453Y-82602317D01*
X61486450Y-82602315D01*
X61303954Y-82504768D01*
X61105934Y-82444700D01*
X61105932Y-82444699D01*
X61105934Y-82444699D01*
X60900000Y-82424417D01*
X60694067Y-82444699D01*
X60496043Y-82504769D01*
X60385898Y-82563643D01*
X60313550Y-82602315D01*
X60313548Y-82602316D01*
X60313547Y-82602317D01*
X60153589Y-82733589D01*
X60022317Y-82893547D01*
X59924769Y-83076043D01*
X59864699Y-83274067D01*
X59844417Y-83480000D01*
X50010500Y-83480000D01*
X50010500Y-80940000D01*
X59844417Y-80940000D01*
X59864699Y-81145932D01*
X59864700Y-81145934D01*
X59924768Y-81343954D01*
X60022315Y-81526450D01*
X60022317Y-81526452D01*
X60153589Y-81686410D01*
X60250209Y-81765702D01*
X60313550Y-81817685D01*
X60496046Y-81915232D01*
X60694066Y-81975300D01*
X60694065Y-81975300D01*
X60712529Y-81977118D01*
X60900000Y-81995583D01*
X61105934Y-81975300D01*
X61303954Y-81915232D01*
X61486450Y-81817685D01*
X61646410Y-81686410D01*
X61777685Y-81526450D01*
X61875232Y-81343954D01*
X61935300Y-81145934D01*
X61955583Y-80940000D01*
X85244417Y-80940000D01*
X85264699Y-81145932D01*
X85264700Y-81145934D01*
X85324768Y-81343954D01*
X85422315Y-81526450D01*
X85422317Y-81526452D01*
X85553589Y-81686410D01*
X85650209Y-81765702D01*
X85713550Y-81817685D01*
X85896046Y-81915232D01*
X86094066Y-81975300D01*
X86094065Y-81975300D01*
X86112529Y-81977118D01*
X86300000Y-81995583D01*
X86505934Y-81975300D01*
X86703954Y-81915232D01*
X86886450Y-81817685D01*
X87046410Y-81686410D01*
X87177685Y-81526450D01*
X87275232Y-81343954D01*
X87335300Y-81145934D01*
X87355583Y-80940000D01*
X87335300Y-80734066D01*
X87275232Y-80536046D01*
X87177685Y-80353550D01*
X87125702Y-80290209D01*
X87046410Y-80193589D01*
X86886452Y-80062317D01*
X86886453Y-80062317D01*
X86886450Y-80062315D01*
X86703954Y-79964768D01*
X86505934Y-79904700D01*
X86505932Y-79904699D01*
X86505934Y-79904699D01*
X86300000Y-79884417D01*
X86094067Y-79904699D01*
X85896043Y-79964769D01*
X85785898Y-80023643D01*
X85713550Y-80062315D01*
X85713548Y-80062316D01*
X85713547Y-80062317D01*
X85553589Y-80193589D01*
X85422317Y-80353547D01*
X85324769Y-80536043D01*
X85264699Y-80734067D01*
X85244417Y-80940000D01*
X61955583Y-80940000D01*
X61935300Y-80734066D01*
X61875232Y-80536046D01*
X61777685Y-80353550D01*
X61725702Y-80290209D01*
X61646410Y-80193589D01*
X61486452Y-80062317D01*
X61486453Y-80062317D01*
X61486450Y-80062315D01*
X61303954Y-79964768D01*
X61105934Y-79904700D01*
X61105932Y-79904699D01*
X61105934Y-79904699D01*
X60900000Y-79884417D01*
X60694067Y-79904699D01*
X60496043Y-79964769D01*
X60385898Y-80023643D01*
X60313550Y-80062315D01*
X60313548Y-80062316D01*
X60313547Y-80062317D01*
X60153589Y-80193589D01*
X60022317Y-80353547D01*
X59924769Y-80536043D01*
X59864699Y-80734067D01*
X59844417Y-80940000D01*
X50010500Y-80940000D01*
X50010500Y-78400000D01*
X59844417Y-78400000D01*
X59864699Y-78605932D01*
X59864700Y-78605934D01*
X59924768Y-78803954D01*
X60022315Y-78986450D01*
X60022317Y-78986452D01*
X60153589Y-79146410D01*
X60250209Y-79225702D01*
X60313550Y-79277685D01*
X60496046Y-79375232D01*
X60694066Y-79435300D01*
X60694065Y-79435300D01*
X60712529Y-79437118D01*
X60900000Y-79455583D01*
X61105934Y-79435300D01*
X61303954Y-79375232D01*
X61486450Y-79277685D01*
X61646410Y-79146410D01*
X61777685Y-78986450D01*
X61875232Y-78803954D01*
X61935300Y-78605934D01*
X61955583Y-78400000D01*
X85244417Y-78400000D01*
X85264699Y-78605932D01*
X85264700Y-78605934D01*
X85324768Y-78803954D01*
X85422315Y-78986450D01*
X85422317Y-78986452D01*
X85553589Y-79146410D01*
X85650209Y-79225702D01*
X85713550Y-79277685D01*
X85896046Y-79375232D01*
X86094066Y-79435300D01*
X86094065Y-79435300D01*
X86112529Y-79437118D01*
X86300000Y-79455583D01*
X86505934Y-79435300D01*
X86703954Y-79375232D01*
X86886450Y-79277685D01*
X87046410Y-79146410D01*
X87177685Y-78986450D01*
X87275232Y-78803954D01*
X87335300Y-78605934D01*
X87355583Y-78400000D01*
X87335300Y-78194066D01*
X87275232Y-77996046D01*
X87177685Y-77813550D01*
X87125702Y-77750209D01*
X87046410Y-77653589D01*
X86886452Y-77522317D01*
X86886453Y-77522317D01*
X86886450Y-77522315D01*
X86703954Y-77424768D01*
X86505934Y-77364700D01*
X86505932Y-77364699D01*
X86505934Y-77364699D01*
X86300000Y-77344417D01*
X86094067Y-77364699D01*
X85896043Y-77424769D01*
X85785898Y-77483643D01*
X85713550Y-77522315D01*
X85713548Y-77522316D01*
X85713547Y-77522317D01*
X85553589Y-77653589D01*
X85422317Y-77813547D01*
X85324769Y-77996043D01*
X85264699Y-78194067D01*
X85244417Y-78400000D01*
X61955583Y-78400000D01*
X61935300Y-78194066D01*
X61875232Y-77996046D01*
X61777685Y-77813550D01*
X61725702Y-77750209D01*
X61646410Y-77653589D01*
X61486452Y-77522317D01*
X61486453Y-77522317D01*
X61486450Y-77522315D01*
X61303954Y-77424768D01*
X61105934Y-77364700D01*
X61105932Y-77364699D01*
X61105934Y-77364699D01*
X60900000Y-77344417D01*
X60694067Y-77364699D01*
X60496043Y-77424769D01*
X60385898Y-77483643D01*
X60313550Y-77522315D01*
X60313548Y-77522316D01*
X60313547Y-77522317D01*
X60153589Y-77653589D01*
X60022317Y-77813547D01*
X59924769Y-77996043D01*
X59864699Y-78194067D01*
X59844417Y-78400000D01*
X50010500Y-78400000D01*
X50010500Y-75860000D01*
X59844417Y-75860000D01*
X59864699Y-76065932D01*
X59864700Y-76065934D01*
X59924768Y-76263954D01*
X60022315Y-76446450D01*
X60022317Y-76446452D01*
X60153589Y-76606410D01*
X60250209Y-76685702D01*
X60313550Y-76737685D01*
X60496046Y-76835232D01*
X60694066Y-76895300D01*
X60694065Y-76895300D01*
X60712529Y-76897118D01*
X60900000Y-76915583D01*
X61105934Y-76895300D01*
X61303954Y-76835232D01*
X61486450Y-76737685D01*
X61646410Y-76606410D01*
X61777685Y-76446450D01*
X61875232Y-76263954D01*
X61935300Y-76065934D01*
X61955583Y-75860000D01*
X85244417Y-75860000D01*
X85264699Y-76065932D01*
X85264700Y-76065934D01*
X85324768Y-76263954D01*
X85422315Y-76446450D01*
X85422317Y-76446452D01*
X85553589Y-76606410D01*
X85650209Y-76685702D01*
X85713550Y-76737685D01*
X85896046Y-76835232D01*
X86094066Y-76895300D01*
X86094065Y-76895300D01*
X86112529Y-76897118D01*
X86300000Y-76915583D01*
X86505934Y-76895300D01*
X86703954Y-76835232D01*
X86886450Y-76737685D01*
X87046410Y-76606410D01*
X87177685Y-76446450D01*
X87275232Y-76263954D01*
X87335300Y-76065934D01*
X87355583Y-75860000D01*
X87335300Y-75654066D01*
X87275232Y-75456046D01*
X87177685Y-75273550D01*
X87125702Y-75210209D01*
X87046410Y-75113589D01*
X86886452Y-74982317D01*
X86886453Y-74982317D01*
X86886450Y-74982315D01*
X86703954Y-74884768D01*
X86505934Y-74824700D01*
X86505932Y-74824699D01*
X86505934Y-74824699D01*
X86300000Y-74804417D01*
X86094067Y-74824699D01*
X85896043Y-74884769D01*
X85785898Y-74943643D01*
X85713550Y-74982315D01*
X85713548Y-74982316D01*
X85713547Y-74982317D01*
X85553589Y-75113589D01*
X85422317Y-75273547D01*
X85324769Y-75456043D01*
X85264699Y-75654067D01*
X85244417Y-75860000D01*
X61955583Y-75860000D01*
X61935300Y-75654066D01*
X61875232Y-75456046D01*
X61777685Y-75273550D01*
X61725702Y-75210209D01*
X61646410Y-75113589D01*
X61486452Y-74982317D01*
X61486453Y-74982317D01*
X61486450Y-74982315D01*
X61303954Y-74884768D01*
X61105934Y-74824700D01*
X61105932Y-74824699D01*
X61105934Y-74824699D01*
X60900000Y-74804417D01*
X60694067Y-74824699D01*
X60496043Y-74884769D01*
X60385898Y-74943643D01*
X60313550Y-74982315D01*
X60313548Y-74982316D01*
X60313547Y-74982317D01*
X60153589Y-75113589D01*
X60022317Y-75273547D01*
X59924769Y-75456043D01*
X59864699Y-75654067D01*
X59844417Y-75860000D01*
X50010500Y-75860000D01*
X50010500Y-73320000D01*
X59844417Y-73320000D01*
X59864699Y-73525932D01*
X59864700Y-73525934D01*
X59924768Y-73723954D01*
X60022315Y-73906450D01*
X60022317Y-73906452D01*
X60153589Y-74066410D01*
X60250209Y-74145702D01*
X60313550Y-74197685D01*
X60496046Y-74295232D01*
X60694066Y-74355300D01*
X60694065Y-74355300D01*
X60712529Y-74357118D01*
X60900000Y-74375583D01*
X61105934Y-74355300D01*
X61303954Y-74295232D01*
X61486450Y-74197685D01*
X61646410Y-74066410D01*
X61777685Y-73906450D01*
X61875232Y-73723954D01*
X61935300Y-73525934D01*
X61955583Y-73320000D01*
X85244417Y-73320000D01*
X85264699Y-73525932D01*
X85264700Y-73525934D01*
X85324768Y-73723954D01*
X85422315Y-73906450D01*
X85422317Y-73906452D01*
X85553589Y-74066410D01*
X85650209Y-74145702D01*
X85713550Y-74197685D01*
X85896046Y-74295232D01*
X86094066Y-74355300D01*
X86094065Y-74355300D01*
X86112529Y-74357118D01*
X86300000Y-74375583D01*
X86505934Y-74355300D01*
X86703954Y-74295232D01*
X86886450Y-74197685D01*
X87046410Y-74066410D01*
X87177685Y-73906450D01*
X87275232Y-73723954D01*
X87335300Y-73525934D01*
X87355583Y-73320000D01*
X87335300Y-73114066D01*
X87275232Y-72916046D01*
X87177685Y-72733550D01*
X87080351Y-72614947D01*
X87046410Y-72573589D01*
X86886452Y-72442317D01*
X86886453Y-72442317D01*
X86886450Y-72442315D01*
X86703954Y-72344768D01*
X86505934Y-72284700D01*
X86505932Y-72284699D01*
X86505934Y-72284699D01*
X86300000Y-72264417D01*
X86094067Y-72284699D01*
X85896043Y-72344769D01*
X85829026Y-72380591D01*
X85713550Y-72442315D01*
X85713548Y-72442316D01*
X85713547Y-72442317D01*
X85553589Y-72573589D01*
X85422317Y-72733547D01*
X85422315Y-72733550D01*
X85399180Y-72776833D01*
X85324769Y-72916043D01*
X85264699Y-73114067D01*
X85244417Y-73320000D01*
X61955583Y-73320000D01*
X61935300Y-73114066D01*
X61875232Y-72916046D01*
X61777685Y-72733550D01*
X61680351Y-72614947D01*
X61646410Y-72573589D01*
X61486452Y-72442317D01*
X61486453Y-72442317D01*
X61486450Y-72442315D01*
X61303954Y-72344768D01*
X61105934Y-72284700D01*
X61105932Y-72284699D01*
X61105934Y-72284699D01*
X60900000Y-72264417D01*
X60694067Y-72284699D01*
X60496043Y-72344769D01*
X60429026Y-72380591D01*
X60313550Y-72442315D01*
X60313548Y-72442316D01*
X60313547Y-72442317D01*
X60153589Y-72573589D01*
X60022317Y-72733547D01*
X60022315Y-72733550D01*
X59999180Y-72776833D01*
X59924769Y-72916043D01*
X59864699Y-73114067D01*
X59844417Y-73320000D01*
X50010500Y-73320000D01*
X50010500Y-70154000D01*
X50030185Y-70086961D01*
X50082989Y-70041206D01*
X50134500Y-70030000D01*
X59902853Y-70030000D01*
X59969892Y-70049685D01*
X60015647Y-70102489D01*
X60025591Y-70171647D01*
X60012211Y-70212454D01*
X59924769Y-70376043D01*
X59864699Y-70574067D01*
X59844417Y-70780000D01*
X59864699Y-70985932D01*
X59864700Y-70985934D01*
X59924768Y-71183954D01*
X60022315Y-71366450D01*
X60056969Y-71408677D01*
X60153589Y-71526410D01*
X60250209Y-71605702D01*
X60313550Y-71657685D01*
X60496046Y-71755232D01*
X60694066Y-71815300D01*
X60694065Y-71815300D01*
X60712529Y-71817118D01*
X60900000Y-71835583D01*
X61105934Y-71815300D01*
X61303954Y-71755232D01*
X61486450Y-71657685D01*
X61646410Y-71526410D01*
X61777685Y-71366450D01*
X61875232Y-71183954D01*
X61935300Y-70985934D01*
X61955583Y-70780000D01*
X85244417Y-70780000D01*
X85264699Y-70985932D01*
X85264700Y-70985934D01*
X85324768Y-71183954D01*
X85422315Y-71366450D01*
X85456969Y-71408677D01*
X85553589Y-71526410D01*
X85650209Y-71605702D01*
X85713550Y-71657685D01*
X85896046Y-71755232D01*
X86094066Y-71815300D01*
X86094065Y-71815300D01*
X86112529Y-71817118D01*
X86300000Y-71835583D01*
X86505934Y-71815300D01*
X86703954Y-71755232D01*
X86886450Y-71657685D01*
X87046410Y-71526410D01*
X87177685Y-71366450D01*
X87275232Y-71183954D01*
X87335300Y-70985934D01*
X87355583Y-70780000D01*
X87335300Y-70574066D01*
X87275232Y-70376046D01*
X87177685Y-70193550D01*
X87100911Y-70100000D01*
X87046410Y-70033589D01*
X86886452Y-69902317D01*
X86886453Y-69902317D01*
X86886450Y-69902315D01*
X86703954Y-69804768D01*
X86505934Y-69744700D01*
X86505932Y-69744699D01*
X86505934Y-69744699D01*
X86300000Y-69724417D01*
X86094067Y-69744699D01*
X85896043Y-69804769D01*
X85785898Y-69863643D01*
X85713550Y-69902315D01*
X85713548Y-69902316D01*
X85713547Y-69902317D01*
X85553589Y-70033589D01*
X85422317Y-70193547D01*
X85324769Y-70376043D01*
X85264699Y-70574067D01*
X85244417Y-70780000D01*
X61955583Y-70780000D01*
X61935300Y-70574066D01*
X61875232Y-70376046D01*
X61777685Y-70193550D01*
X61700911Y-70100000D01*
X61646410Y-70033589D01*
X61486452Y-69902317D01*
X61486453Y-69902317D01*
X61486450Y-69902315D01*
X61303954Y-69804768D01*
X61105934Y-69744700D01*
X61105932Y-69744699D01*
X61105934Y-69744699D01*
X60900000Y-69724417D01*
X60694067Y-69744699D01*
X60496043Y-69804769D01*
X60385898Y-69863643D01*
X60313550Y-69902315D01*
X60313548Y-69902316D01*
X60313547Y-69902317D01*
X60212664Y-69985109D01*
X60148354Y-70012421D01*
X60079487Y-70000630D01*
X60027927Y-69953477D01*
X60010000Y-69889255D01*
X60010000Y-69414500D01*
X60029685Y-69347461D01*
X60082489Y-69301706D01*
X60134000Y-69290500D01*
X61724676Y-69290500D01*
X61724677Y-69290499D01*
X61797740Y-69275966D01*
X61880601Y-69220601D01*
X61935966Y-69137740D01*
X61950500Y-69064674D01*
X61950500Y-67415326D01*
X61950500Y-67415323D01*
X61950499Y-67415321D01*
X61935967Y-67342264D01*
X61935966Y-67342260D01*
X61880601Y-67259399D01*
X61832263Y-67227101D01*
X61787459Y-67173491D01*
X61778752Y-67104166D01*
X61808906Y-67041138D01*
X61868349Y-67004418D01*
X61901155Y-67000000D01*
X87676000Y-67000000D01*
X87743039Y-67019685D01*
G37*
%TD.AperFunction*%
%TD*%
%TA.AperFunction,Conductor*%
%TO.N,/CAN/CAN_GND*%
G36*
X106646288Y-60079454D02*
G01*
X106727070Y-60133430D01*
X106781046Y-60214212D01*
X106800000Y-60309500D01*
X106800000Y-72051000D01*
X106781046Y-72146288D01*
X106727070Y-72227070D01*
X106646288Y-72281046D01*
X106551000Y-72300000D01*
X92810503Y-72300000D01*
X92715215Y-72281046D01*
X92634433Y-72227070D01*
X92625861Y-72218057D01*
X90864358Y-70271132D01*
X90814483Y-70187756D01*
X90800000Y-70104075D01*
X90800000Y-61999994D01*
X93924341Y-61999994D01*
X93924341Y-62000005D01*
X93944935Y-62235401D01*
X93944937Y-62235408D01*
X94006097Y-62463663D01*
X94105965Y-62677830D01*
X94241505Y-62871401D01*
X94408599Y-63038495D01*
X94602170Y-63174035D01*
X94816337Y-63273903D01*
X95044592Y-63335063D01*
X95044595Y-63335063D01*
X95044598Y-63335064D01*
X95279995Y-63355659D01*
X95280000Y-63355659D01*
X95280005Y-63355659D01*
X95515401Y-63335064D01*
X95515403Y-63335063D01*
X95515408Y-63335063D01*
X95743663Y-63273903D01*
X95957830Y-63174035D01*
X96151401Y-63038495D01*
X96318495Y-62871401D01*
X96346032Y-62832074D01*
X96416211Y-62764891D01*
X96506760Y-62729678D01*
X96603892Y-62731797D01*
X96692819Y-62770925D01*
X96753967Y-62832073D01*
X96781505Y-62871401D01*
X96948599Y-63038495D01*
X97142170Y-63174035D01*
X97356337Y-63273903D01*
X97584592Y-63335063D01*
X97584595Y-63335063D01*
X97584598Y-63335064D01*
X97819995Y-63355659D01*
X97820000Y-63355659D01*
X97820005Y-63355659D01*
X98055401Y-63335064D01*
X98055403Y-63335063D01*
X98055408Y-63335063D01*
X98283663Y-63273903D01*
X98497830Y-63174035D01*
X98691401Y-63038495D01*
X98858495Y-62871401D01*
X98886032Y-62832074D01*
X98956211Y-62764891D01*
X99046760Y-62729678D01*
X99143892Y-62731797D01*
X99232819Y-62770925D01*
X99293967Y-62832073D01*
X99321505Y-62871401D01*
X99488599Y-63038495D01*
X99682170Y-63174035D01*
X99896337Y-63273903D01*
X100124592Y-63335063D01*
X100124595Y-63335063D01*
X100124598Y-63335064D01*
X100359995Y-63355659D01*
X100360000Y-63355659D01*
X100360005Y-63355659D01*
X100595401Y-63335064D01*
X100595403Y-63335063D01*
X100595408Y-63335063D01*
X100823663Y-63273903D01*
X101037830Y-63174035D01*
X101231401Y-63038495D01*
X101231409Y-63038486D01*
X101235768Y-63034830D01*
X101239775Y-63032631D01*
X101240307Y-63032259D01*
X101240347Y-63032317D01*
X101320945Y-62988096D01*
X101417522Y-62977516D01*
X101510797Y-63004699D01*
X101586568Y-63065508D01*
X101595318Y-63078321D01*
X101595974Y-63077831D01*
X101692810Y-63207187D01*
X101692812Y-63207189D01*
X101807912Y-63293353D01*
X101942621Y-63343596D01*
X101942628Y-63343598D01*
X102002167Y-63349999D01*
X102002175Y-63350000D01*
X102649999Y-63350000D01*
X102650000Y-63349999D01*
X102650000Y-62433012D01*
X102707007Y-62465925D01*
X102834174Y-62500000D01*
X102965826Y-62500000D01*
X103092993Y-62465925D01*
X103150000Y-62433012D01*
X103150000Y-63349999D01*
X103150001Y-63350000D01*
X103797825Y-63350000D01*
X103797832Y-63349999D01*
X103857371Y-63343598D01*
X103857378Y-63343596D01*
X103992087Y-63293353D01*
X104107187Y-63207189D01*
X104107189Y-63207187D01*
X104193353Y-63092087D01*
X104243596Y-62957378D01*
X104243598Y-62957371D01*
X104249999Y-62897832D01*
X104250000Y-62897825D01*
X104250000Y-62250001D01*
X104249999Y-62250000D01*
X103333012Y-62250000D01*
X103365925Y-62192993D01*
X103400000Y-62065826D01*
X103400000Y-61934174D01*
X103365925Y-61807007D01*
X103333012Y-61750000D01*
X104249999Y-61750000D01*
X104250000Y-61749999D01*
X104250000Y-61102175D01*
X104249999Y-61102167D01*
X104243598Y-61042628D01*
X104243596Y-61042621D01*
X104193353Y-60907912D01*
X104107189Y-60792812D01*
X104107187Y-60792810D01*
X103992087Y-60706646D01*
X103857378Y-60656403D01*
X103857371Y-60656401D01*
X103797832Y-60650000D01*
X103150001Y-60650000D01*
X103150000Y-60650001D01*
X103150000Y-61566988D01*
X103092993Y-61534075D01*
X102965826Y-61500000D01*
X102834174Y-61500000D01*
X102707007Y-61534075D01*
X102650000Y-61566988D01*
X102650000Y-60650001D01*
X102649999Y-60650000D01*
X102002167Y-60650000D01*
X101942628Y-60656401D01*
X101942621Y-60656403D01*
X101807912Y-60706646D01*
X101692812Y-60792810D01*
X101692810Y-60792812D01*
X101595974Y-60922169D01*
X101592695Y-60919714D01*
X101551946Y-60968411D01*
X101465829Y-61013388D01*
X101369055Y-61021986D01*
X101276357Y-60992896D01*
X101235777Y-60965177D01*
X101231399Y-60961503D01*
X101037830Y-60825965D01*
X100966729Y-60792810D01*
X100823663Y-60726097D01*
X100823660Y-60726096D01*
X100595401Y-60664935D01*
X100360005Y-60644341D01*
X100359995Y-60644341D01*
X100124598Y-60664935D01*
X99896335Y-60726097D01*
X99896333Y-60726098D01*
X99682177Y-60825961D01*
X99682169Y-60825965D01*
X99488600Y-60961504D01*
X99321501Y-61128603D01*
X99293968Y-61167925D01*
X99223787Y-61235109D01*
X99133237Y-61270321D01*
X99036106Y-61268201D01*
X98947179Y-61229072D01*
X98886032Y-61167925D01*
X98858498Y-61128603D01*
X98858497Y-61128602D01*
X98858495Y-61128599D01*
X98691401Y-60961505D01*
X98635223Y-60922169D01*
X98497830Y-60825965D01*
X98426729Y-60792810D01*
X98283663Y-60726097D01*
X98283660Y-60726096D01*
X98055401Y-60664935D01*
X97820005Y-60644341D01*
X97819995Y-60644341D01*
X97584598Y-60664935D01*
X97356335Y-60726097D01*
X97356333Y-60726098D01*
X97142177Y-60825961D01*
X97142169Y-60825965D01*
X96948600Y-60961504D01*
X96781501Y-61128603D01*
X96753968Y-61167925D01*
X96683787Y-61235109D01*
X96593237Y-61270321D01*
X96496106Y-61268201D01*
X96407179Y-61229072D01*
X96346032Y-61167925D01*
X96318498Y-61128603D01*
X96318497Y-61128602D01*
X96318495Y-61128599D01*
X96151401Y-60961505D01*
X96095223Y-60922169D01*
X95957830Y-60825965D01*
X95886729Y-60792810D01*
X95743663Y-60726097D01*
X95743660Y-60726096D01*
X95515401Y-60664935D01*
X95280005Y-60644341D01*
X95279995Y-60644341D01*
X95044598Y-60664935D01*
X94816335Y-60726097D01*
X94816333Y-60726098D01*
X94602177Y-60825961D01*
X94602169Y-60825965D01*
X94408600Y-60961504D01*
X94241504Y-61128600D01*
X94105965Y-61322169D01*
X94105961Y-61322177D01*
X94006098Y-61536333D01*
X94006097Y-61536335D01*
X93944935Y-61764598D01*
X93924341Y-61999994D01*
X90800000Y-61999994D01*
X90800000Y-60309500D01*
X90818954Y-60214212D01*
X90872930Y-60133430D01*
X90953712Y-60079454D01*
X91049000Y-60060500D01*
X106551000Y-60060500D01*
X106646288Y-60079454D01*
G37*
%TD.AperFunction*%
%TD*%
%TA.AperFunction,Conductor*%
%TO.N,GNDA*%
G36*
X126746288Y-85118954D02*
G01*
X126827070Y-85172930D01*
X126881046Y-85253712D01*
X126900000Y-85349000D01*
X126900000Y-91400000D01*
X132499961Y-91400000D01*
X132500000Y-91400000D01*
X149648654Y-91202889D01*
X149744154Y-91220747D01*
X149825550Y-91273791D01*
X149880452Y-91353947D01*
X149900500Y-91449011D01*
X149900515Y-91451363D01*
X149939499Y-110475490D01*
X149939500Y-110476000D01*
X149939500Y-139751000D01*
X149920546Y-139846288D01*
X149866570Y-139927070D01*
X149785788Y-139981046D01*
X149690500Y-140000000D01*
X139997452Y-140000000D01*
X139924346Y-140048847D01*
X139830720Y-140067794D01*
X120000000Y-140199999D01*
X119999998Y-140200000D01*
X116768793Y-142843715D01*
X116683042Y-142889386D01*
X116611117Y-142900000D01*
X114800000Y-142900000D01*
X114800000Y-142900001D01*
X114800000Y-149740500D01*
X114781046Y-149835788D01*
X114727070Y-149916570D01*
X114646288Y-149970546D01*
X114551000Y-149989500D01*
X77149000Y-149989500D01*
X77053712Y-149970546D01*
X76972930Y-149916570D01*
X76918954Y-149835788D01*
X76900000Y-149740500D01*
X76900000Y-145610000D01*
X90022273Y-145610000D01*
X90041157Y-145874026D01*
X90097423Y-146132678D01*
X90189926Y-146380689D01*
X90316784Y-146613011D01*
X90475413Y-146824915D01*
X90662585Y-147012087D01*
X90874489Y-147170716D01*
X91106811Y-147297574D01*
X91354822Y-147390077D01*
X91613474Y-147446343D01*
X91877500Y-147465227D01*
X92141526Y-147446343D01*
X92400178Y-147390077D01*
X92648189Y-147297574D01*
X92880511Y-147170716D01*
X93092415Y-147012087D01*
X93279587Y-146824915D01*
X93438216Y-146613011D01*
X93519458Y-146464227D01*
X93581760Y-146389679D01*
X93667849Y-146344647D01*
X93764617Y-146335988D01*
X93857333Y-146365019D01*
X93931882Y-146427321D01*
X93976914Y-146513410D01*
X93987000Y-146583561D01*
X93987000Y-146760012D01*
X93997501Y-146862794D01*
X93997501Y-146862798D01*
X94052686Y-147029334D01*
X94139891Y-147170715D01*
X94144789Y-147178655D01*
X94268845Y-147302711D01*
X94418166Y-147394814D01*
X94584703Y-147449999D01*
X94687492Y-147460500D01*
X94687501Y-147460500D01*
X96987499Y-147460500D01*
X96987508Y-147460500D01*
X97090297Y-147449999D01*
X97256834Y-147394814D01*
X97406155Y-147302711D01*
X97530211Y-147178655D01*
X97622314Y-147029334D01*
X97677499Y-146862797D01*
X97688000Y-146760008D01*
X97688000Y-144459992D01*
X97677499Y-144357203D01*
X97622314Y-144190666D01*
X97530211Y-144041345D01*
X97406155Y-143917289D01*
X97256834Y-143825186D01*
X97256835Y-143825186D01*
X97136843Y-143785425D01*
X97090297Y-143770001D01*
X97069739Y-143767900D01*
X96987512Y-143759500D01*
X96987508Y-143759500D01*
X94687492Y-143759500D01*
X94687487Y-143759500D01*
X94614071Y-143767000D01*
X94584703Y-143770001D01*
X94584701Y-143770001D01*
X94418165Y-143825186D01*
X94268847Y-143917287D01*
X94144787Y-144041347D01*
X94052686Y-144190665D01*
X93997501Y-144357201D01*
X93997501Y-144357205D01*
X93987000Y-144459987D01*
X93987000Y-144636438D01*
X93968046Y-144731726D01*
X93914070Y-144812508D01*
X93833288Y-144866484D01*
X93738000Y-144885438D01*
X93642712Y-144866484D01*
X93561930Y-144812508D01*
X93519458Y-144755772D01*
X93438216Y-144606989D01*
X93279587Y-144395085D01*
X93092415Y-144207913D01*
X92880511Y-144049284D01*
X92786020Y-143997688D01*
X92648191Y-143922427D01*
X92648187Y-143922425D01*
X92548537Y-143885258D01*
X92400178Y-143829923D01*
X92195623Y-143785425D01*
X92141527Y-143773657D01*
X91877500Y-143754773D01*
X91613472Y-143773657D01*
X91516405Y-143794773D01*
X91354822Y-143829923D01*
X91296709Y-143851598D01*
X91106812Y-143922425D01*
X91106808Y-143922427D01*
X90874495Y-144049280D01*
X90874489Y-144049284D01*
X90662585Y-144207913D01*
X90475413Y-144395085D01*
X90426818Y-144460001D01*
X90316784Y-144606989D01*
X90316780Y-144606995D01*
X90189927Y-144839308D01*
X90189925Y-144839312D01*
X90124095Y-145015810D01*
X90097423Y-145087322D01*
X90041157Y-145345974D01*
X90022273Y-145610000D01*
X76900000Y-145610000D01*
X76900000Y-143669997D01*
X99514751Y-143669997D01*
X99514751Y-143670000D01*
X99517934Y-143698248D01*
X99519500Y-143726129D01*
X99519500Y-143743919D01*
X99525712Y-143775152D01*
X99528929Y-143795836D01*
X99533687Y-143838058D01*
X99533689Y-143838065D01*
X99538430Y-143851615D01*
X99547614Y-143885258D01*
X99548340Y-143888907D01*
X99548340Y-143888910D01*
X99565895Y-143931293D01*
X99570872Y-143944332D01*
X99589541Y-143997684D01*
X99589543Y-143997688D01*
X99589687Y-143997917D01*
X99598532Y-144015034D01*
X99599148Y-144014705D01*
X99604913Y-144025491D01*
X99638191Y-144075296D01*
X99641984Y-144081150D01*
X99679519Y-144140885D01*
X99679521Y-144140887D01*
X99679523Y-144140890D01*
X99799110Y-144260477D01*
X99858923Y-144298060D01*
X99864663Y-144301781D01*
X99914505Y-144335084D01*
X99914509Y-144335085D01*
X99925302Y-144340855D01*
X99924970Y-144341474D01*
X99942083Y-144350313D01*
X99942310Y-144350456D01*
X99995665Y-144369125D01*
X100008703Y-144374102D01*
X100031322Y-144383471D01*
X100051087Y-144391658D01*
X100054715Y-144392379D01*
X100088389Y-144401570D01*
X100101941Y-144406313D01*
X100144165Y-144411070D01*
X100164863Y-144414290D01*
X100182206Y-144417739D01*
X100196078Y-144420499D01*
X100196080Y-144420500D01*
X100196082Y-144420500D01*
X100213870Y-144420500D01*
X100241749Y-144422065D01*
X100251702Y-144423187D01*
X100269999Y-144425249D01*
X100270000Y-144425249D01*
X100270001Y-144425249D01*
X100288297Y-144423187D01*
X100298250Y-144422065D01*
X100326130Y-144420500D01*
X102103870Y-144420500D01*
X102131749Y-144422065D01*
X102141702Y-144423187D01*
X102159999Y-144425249D01*
X102160000Y-144425249D01*
X102160001Y-144425249D01*
X102178297Y-144423187D01*
X102188250Y-144422065D01*
X102216130Y-144420500D01*
X102233918Y-144420500D01*
X102265140Y-144414289D01*
X102285844Y-144411070D01*
X102322602Y-144406927D01*
X102328059Y-144406313D01*
X102341612Y-144401570D01*
X102375291Y-144392378D01*
X102378913Y-144391658D01*
X102421294Y-144374102D01*
X102434336Y-144369125D01*
X102455959Y-144361558D01*
X102487690Y-144350456D01*
X102487905Y-144350320D01*
X102505042Y-144341470D01*
X102504710Y-144340848D01*
X102515486Y-144335087D01*
X102515495Y-144335084D01*
X102565316Y-144301793D01*
X102571162Y-144298006D01*
X102571164Y-144298005D01*
X102630890Y-144260477D01*
X102750477Y-144140890D01*
X102788014Y-144081150D01*
X102791807Y-144075296D01*
X102809188Y-144049284D01*
X102825084Y-144025495D01*
X102825087Y-144025486D01*
X102830848Y-144014710D01*
X102831470Y-144015042D01*
X102840320Y-143997905D01*
X102840456Y-143997690D01*
X102852795Y-143962426D01*
X102859125Y-143944336D01*
X102864108Y-143931280D01*
X102881658Y-143888913D01*
X102882378Y-143885291D01*
X102891570Y-143851612D01*
X102896313Y-143838059D01*
X102897230Y-143829923D01*
X102901070Y-143795844D01*
X102904289Y-143775140D01*
X102910500Y-143743918D01*
X102910500Y-143726129D01*
X102912066Y-143698248D01*
X102915249Y-143670000D01*
X102915249Y-143669997D01*
X102912066Y-143641749D01*
X102910500Y-143613869D01*
X102910500Y-143596079D01*
X102910499Y-143596078D01*
X102904290Y-143564863D01*
X102901069Y-143544157D01*
X102896313Y-143501941D01*
X102891570Y-143488389D01*
X102882379Y-143454713D01*
X102881658Y-143451088D01*
X102881658Y-143451087D01*
X102864102Y-143408703D01*
X102859120Y-143395651D01*
X102840456Y-143342310D01*
X102840313Y-143342083D01*
X102831474Y-143324970D01*
X102830855Y-143325302D01*
X102825084Y-143314506D01*
X102825084Y-143314505D01*
X102791781Y-143264663D01*
X102788060Y-143258923D01*
X102750477Y-143199110D01*
X102630890Y-143079523D01*
X102630887Y-143079521D01*
X102630885Y-143079519D01*
X102571150Y-143041984D01*
X102565296Y-143038191D01*
X102515491Y-143004913D01*
X102504705Y-142999148D01*
X102505034Y-142998532D01*
X102487920Y-142989688D01*
X102487690Y-142989544D01*
X102487689Y-142989543D01*
X102487688Y-142989543D01*
X102487684Y-142989541D01*
X102434332Y-142970872D01*
X102421293Y-142965895D01*
X102378908Y-142948340D01*
X102375258Y-142947614D01*
X102341615Y-142938430D01*
X102328065Y-142933689D01*
X102328063Y-142933688D01*
X102328059Y-142933687D01*
X102310029Y-142931655D01*
X102285836Y-142928929D01*
X102265152Y-142925712D01*
X102233919Y-142919500D01*
X102233918Y-142919500D01*
X102216130Y-142919500D01*
X102188250Y-142917934D01*
X102178297Y-142916812D01*
X102160001Y-142914751D01*
X102159999Y-142914751D01*
X102141702Y-142916812D01*
X102131749Y-142917934D01*
X102103870Y-142919500D01*
X100326130Y-142919500D01*
X100298250Y-142917934D01*
X100288297Y-142916812D01*
X100270001Y-142914751D01*
X100269999Y-142914751D01*
X100251702Y-142916812D01*
X100241749Y-142917934D01*
X100213870Y-142919500D01*
X100196078Y-142919500D01*
X100164847Y-142925712D01*
X100144164Y-142928929D01*
X100139954Y-142929403D01*
X100101941Y-142933687D01*
X100101938Y-142933687D01*
X100101937Y-142933688D01*
X100088375Y-142938433D01*
X100054748Y-142947613D01*
X100051088Y-142948341D01*
X100008716Y-142965892D01*
X99995672Y-142970871D01*
X99942315Y-142989541D01*
X99942301Y-142989548D01*
X99942062Y-142989699D01*
X99924959Y-142998539D01*
X99925287Y-142999152D01*
X99914510Y-143004912D01*
X99881931Y-143026680D01*
X99864704Y-143038191D01*
X99858864Y-143041975D01*
X99799112Y-143079521D01*
X99679521Y-143199112D01*
X99641975Y-143258864D01*
X99638182Y-143264718D01*
X99604912Y-143314510D01*
X99599152Y-143325287D01*
X99598539Y-143324959D01*
X99589699Y-143342062D01*
X99589548Y-143342301D01*
X99589541Y-143342315D01*
X99570871Y-143395672D01*
X99565892Y-143408716D01*
X99548341Y-143451088D01*
X99547613Y-143454748D01*
X99538433Y-143488375D01*
X99538428Y-143488390D01*
X99533687Y-143501941D01*
X99529403Y-143539954D01*
X99528929Y-143544164D01*
X99525712Y-143564847D01*
X99519500Y-143596078D01*
X99519500Y-143613869D01*
X99517934Y-143641749D01*
X99514751Y-143669997D01*
X76900000Y-143669997D01*
X76900000Y-139301447D01*
X76918954Y-139206159D01*
X76970893Y-139127438D01*
X80903304Y-135102500D01*
X143894773Y-135102500D01*
X143913657Y-135366526D01*
X143969923Y-135625178D01*
X144062426Y-135873189D01*
X144189284Y-136105511D01*
X144347913Y-136317415D01*
X144535085Y-136504587D01*
X144746989Y-136663216D01*
X144979311Y-136790074D01*
X145227322Y-136882577D01*
X145485974Y-136938843D01*
X145750000Y-136957727D01*
X146014026Y-136938843D01*
X146272678Y-136882577D01*
X146520689Y-136790074D01*
X146753011Y-136663216D01*
X146964915Y-136504587D01*
X147152087Y-136317415D01*
X147310716Y-136105511D01*
X147437574Y-135873189D01*
X147530077Y-135625178D01*
X147586343Y-135366526D01*
X147605227Y-135102500D01*
X147586343Y-134838474D01*
X147530077Y-134579822D01*
X147437574Y-134331811D01*
X147310716Y-134099489D01*
X147152087Y-133887585D01*
X146964915Y-133700413D01*
X146753011Y-133541784D01*
X146753004Y-133541780D01*
X146603313Y-133460042D01*
X146528764Y-133397739D01*
X146483732Y-133311651D01*
X146475073Y-133214883D01*
X146504104Y-133122167D01*
X146566407Y-133047618D01*
X146652495Y-133002586D01*
X146722646Y-132992500D01*
X146899970Y-132992500D01*
X146899980Y-132992499D01*
X147002693Y-132982005D01*
X147002700Y-132982004D01*
X147169119Y-132926859D01*
X147169120Y-132926858D01*
X147318340Y-132834818D01*
X147318344Y-132834815D01*
X147442315Y-132710844D01*
X147442318Y-132710840D01*
X147534358Y-132561620D01*
X147534359Y-132561619D01*
X147589504Y-132395200D01*
X147589505Y-132395193D01*
X147599999Y-132292480D01*
X147600000Y-132292470D01*
X147600000Y-131392501D01*
X147599999Y-131392500D01*
X146566480Y-131392500D01*
X146567335Y-131390436D01*
X146600000Y-131226218D01*
X146600000Y-131058782D01*
X146567335Y-130894564D01*
X146566480Y-130892500D01*
X147599999Y-130892500D01*
X147600000Y-130892499D01*
X147600000Y-129992529D01*
X147599999Y-129992519D01*
X147589505Y-129889806D01*
X147589504Y-129889799D01*
X147534359Y-129723380D01*
X147534358Y-129723379D01*
X147442318Y-129574159D01*
X147442315Y-129574155D01*
X147318344Y-129450184D01*
X147318340Y-129450181D01*
X147169120Y-129358141D01*
X147169119Y-129358140D01*
X147002700Y-129302995D01*
X147002693Y-129302994D01*
X146899980Y-129292500D01*
X146000001Y-129292500D01*
X146000000Y-129292501D01*
X146000000Y-130326019D01*
X145997936Y-130325165D01*
X145833718Y-130292500D01*
X145666282Y-130292500D01*
X145502064Y-130325165D01*
X145500000Y-130326019D01*
X145500000Y-129292501D01*
X145499999Y-129292500D01*
X144600019Y-129292500D01*
X144497306Y-129302994D01*
X144497299Y-129302995D01*
X144330880Y-129358140D01*
X144330879Y-129358141D01*
X144181659Y-129450181D01*
X144181655Y-129450184D01*
X144057684Y-129574155D01*
X144057681Y-129574159D01*
X143965641Y-129723379D01*
X143965640Y-129723380D01*
X143910495Y-129889799D01*
X143910494Y-129889806D01*
X143900000Y-129992519D01*
X143900000Y-130892499D01*
X143900001Y-130892500D01*
X144933520Y-130892500D01*
X144932665Y-130894564D01*
X144900000Y-131058782D01*
X144900000Y-131226218D01*
X144932665Y-131390436D01*
X144933520Y-131392500D01*
X143900001Y-131392500D01*
X143900000Y-131392501D01*
X143900000Y-132292480D01*
X143910494Y-132395193D01*
X143910495Y-132395200D01*
X143965640Y-132561619D01*
X143965641Y-132561620D01*
X144057681Y-132710840D01*
X144057684Y-132710844D01*
X144181655Y-132834815D01*
X144181659Y-132834818D01*
X144330879Y-132926858D01*
X144330880Y-132926859D01*
X144497299Y-132982004D01*
X144497306Y-132982005D01*
X144600019Y-132992499D01*
X144600030Y-132992500D01*
X144777354Y-132992500D01*
X144872642Y-133011454D01*
X144953424Y-133065430D01*
X145007400Y-133146212D01*
X145026354Y-133241500D01*
X145007400Y-133336788D01*
X144953424Y-133417570D01*
X144896687Y-133460042D01*
X144746995Y-133541780D01*
X144746989Y-133541784D01*
X144535085Y-133700413D01*
X144535084Y-133700414D01*
X144347914Y-133887584D01*
X144347912Y-133887587D01*
X144189284Y-134099489D01*
X144189280Y-134099495D01*
X144062427Y-134331808D01*
X144062425Y-134331812D01*
X143996595Y-134508310D01*
X143969923Y-134579822D01*
X143913657Y-134838474D01*
X143894773Y-135102500D01*
X80903304Y-135102500D01*
X85326735Y-130574989D01*
X85406884Y-130520077D01*
X85501945Y-130500017D01*
X85504840Y-130500000D01*
X117799999Y-130500000D01*
X117800000Y-130500000D01*
X121700000Y-126600000D01*
X121799401Y-85348397D01*
X121818584Y-85253158D01*
X121872755Y-85172507D01*
X121953666Y-85118725D01*
X122048400Y-85100000D01*
X126651000Y-85100000D01*
X126746288Y-85118954D01*
G37*
%TD.AperFunction*%
%TD*%
%TA.AperFunction,Conductor*%
%TO.N,/PowerMonitor/INN*%
G36*
X149776441Y-60199560D02*
G01*
X149843410Y-60219483D01*
X149888977Y-60272449D01*
X149900000Y-60323559D01*
X149900000Y-86476000D01*
X149880315Y-86543039D01*
X149827511Y-86588794D01*
X149776000Y-86600000D01*
X134343048Y-86600000D01*
X134276009Y-86580315D01*
X134266212Y-86573325D01*
X133324658Y-85829993D01*
X130500000Y-83600000D01*
X130499999Y-83600000D01*
X121924000Y-83600000D01*
X121856961Y-83580315D01*
X121811206Y-83527511D01*
X121800000Y-83476000D01*
X121800000Y-60224441D01*
X121819685Y-60157402D01*
X121872489Y-60111647D01*
X121924437Y-60100442D01*
X149776441Y-60199560D01*
G37*
%TD.AperFunction*%
%TD*%
M02*
