%TF.GenerationSoftware,KiCad,Pcbnew,8.0.4*%
%TF.CreationDate,2024-09-13T16:34:39+09:00*%
%TF.ProjectId,LTC6811_ESP32_Slaves_V5,4c544336-3831-4315-9f45-535033325f53,rev?*%
%TF.SameCoordinates,Original*%
%TF.FileFunction,Profile,NP*%
%FSLAX46Y46*%
G04 Gerber Fmt 4.6, Leading zero omitted, Abs format (unit mm)*
G04 Created by KiCad (PCBNEW 8.0.4) date 2024-09-13 16:34:39*
%MOMM*%
%LPD*%
G01*
G04 APERTURE LIST*
%TA.AperFunction,Profile*%
%ADD10C,0.050000*%
%TD*%
%ADD11C,0.350000*%
G04 APERTURE END LIST*
D10*
X195000000Y55000000D02*
X320000000Y55000000D01*
X320000000Y0D01*
X195000000Y0D01*
X195000000Y55000000D01*
D11*
X315750000Y16049428D03*
X315750000Y12089428D03*
X264295000Y15600000D03*
X266195000Y15600000D03*
X207200000Y50958072D03*
X209700000Y50958072D03*
X212200000Y50958072D03*
X214700000Y50958072D03*
X217200000Y50958072D03*
X219700000Y50958072D03*
X222200000Y50958072D03*
X235250000Y50958072D03*
X237750000Y50958072D03*
X240250000Y50958072D03*
X242750000Y50958072D03*
X245250000Y50958072D03*
X247750000Y50958072D03*
X250250000Y50958072D03*
X316000000Y51091928D03*
X264295000Y17800000D03*
X266195000Y17800000D03*
X264300000Y11200000D03*
X266200000Y11200000D03*
X265400000Y51041928D03*
X267900000Y51041928D03*
X270400000Y51041928D03*
X272900000Y51041928D03*
X275400000Y51041928D03*
X277900000Y51041928D03*
X280400000Y51041928D03*
X315900000Y4091928D03*
X199000000Y4000000D03*
X199300000Y11942500D03*
X199300000Y15902500D03*
X264300000Y13500000D03*
X266200000Y13500000D03*
X199150000Y50950000D03*
X209545000Y19900000D03*
X211445000Y19900000D03*
X293150000Y51075000D03*
X295650000Y51075000D03*
X298150000Y51075000D03*
X300650000Y51075000D03*
X303150000Y51075000D03*
X305650000Y51075000D03*
X308150000Y51075000D03*
X209545000Y13100000D03*
X211445000Y13100000D03*
X209550000Y15700000D03*
X211450000Y15700000D03*
X209545000Y17800000D03*
X211445000Y17800000D03*
M02*
