M48
METRIC,TZ
T1C0.300
T2C0.400
T3C0.700
T4C0.950
T5C1.700
%
G90
G05
T1
X204050Y28758
X208750Y28758
X213550Y28758
X218150Y28758
X222400Y20471
X222400Y13071
X222850Y28758
X227550Y28758
X232150Y28758
X236950Y28758
X241550Y28758
X246150Y28758
X250850Y28758
X266975Y28900
X271575Y28900
X275900Y19200
X275900Y10200
X276275Y28900
X280975Y28900
X285675Y28900
X290275Y28900
X294975Y28900
X299575Y28900
X304275Y28900
X308875Y28900
X313575Y28900
T2
X195700Y42000
X195700Y21700
X195750Y37950
X195750Y33950
X195750Y29950
X195750Y25950
X198000Y42000
X198000Y40000
X198000Y37900
X198000Y33958
X198000Y29958
X198000Y25958
X198000Y24000
X198000Y22000
X199250Y28858
X199250Y25858
X200000Y42000
X200000Y40000
X200000Y24000
X200000Y22000
X202000Y42000
X202000Y40000
X202000Y24000
X202000Y22000
X203600Y54200
X204000Y24000
X204000Y22000
X206000Y24000
X208000Y24000
X216000Y12000
X216000Y10000
X216250Y21050
X217900Y21050
X218000Y12000
X218000Y10000
X218000Y8000
X218000Y6000
X218000Y4000
X218000Y2000
X219500Y21050
X220000Y10000
X221000Y19775
X222000Y12000
X223000Y6000
X225000Y6000
X225000Y3000
X225800Y14408
X225800Y11700
X227000Y6000
X227250Y51858
X229025Y18775
X229250Y49708
X231250Y51858
X232050Y18758
X233250Y53858
X234000Y6000
X234000Y2000
X236000Y6000
X236000Y2000
X236050Y18758
X236750Y8358
X237250Y53858
X238000Y6000
X238000Y2000
X240050Y18758
X240050Y1958
X241250Y53858
X242050Y18758
X242050Y1958
X245250Y53858
X249250Y53858
X250050Y23958
X250050Y21958
X252050Y21958
X252050Y19958
X253000Y7000
X253000Y5000
X253000Y3000
X253000Y1000
X253250Y53858
X254050Y23958
X254050Y21958
X254050Y19958
X254050Y16958
X254050Y14958
X254050Y9500
X255050Y29958
X255050Y27958
X256050Y54000
X256050Y50000
X256050Y45958
X256050Y41958
X256050Y37958
X256050Y33958
X256050Y11958
X256050Y9500
X259200Y9500
X260000Y54042
X261000Y9500
X261975Y42000
X261975Y40000
X261975Y29000
X261975Y26000
X262000Y48042
X262000Y46042
X262000Y22000
X263000Y9500
X263000Y7000
X263000Y5000
X263000Y3000
X263000Y1000
X263975Y42000
X263975Y40000
X264000Y50042
X266000Y48042
X266000Y46042
X266775Y22000
X268000Y6000
X268000Y3000
X268000Y500
X270000Y8500
X270000Y6000
X270000Y3000
X270000Y500
X270775Y22000
X272000Y10000
X272000Y8500
X274000Y10000
X274000Y8500
X274000Y6000
X274000Y3000
X274775Y22000
X275500Y4500
X276000Y8000
X278000Y8000
X278000Y6000
X278000Y2000
X279299Y11476
X280000Y8000
X280000Y6000
X280000Y2000
X282000Y16000
X282000Y2000
X284000Y52042
X284000Y2000
X286000Y16000
X286000Y14000
X286000Y500
X288000Y54042
X288000Y52042
X288000Y50042
X289975Y49850
X290000Y54042
X290000Y52042
X290000Y16000
X290700Y12342
X290800Y4500
X291000Y500
X291975Y18000
X292200Y10342
X294000Y54042
X294000Y19000
X296000Y19000
X296000Y7500
X296000Y6000
X296000Y4000
X296000Y2000
X296000Y500
X298000Y54042
X298000Y19000
X300000Y19000
X301975Y21000
X302000Y54042
X304700Y21342
X306000Y54042
X310000Y54042
X310000Y22042
X310000Y20042
X312000Y20042
X314000Y22042
X314000Y20042
X316000Y22042
X316000Y20042
X317475Y30500
X317475Y27500
X318000Y22042
X318000Y20042
X319400Y46050
X319400Y38125
X319400Y33925
X319450Y42600
T3
X209545Y19900
X209545Y17800
X209545Y13100
X209550Y15700
X211445Y19900
X211445Y17800
X211445Y13100
X211450Y15700
X264295Y17800
X264295Y15600
X264300Y13500
X264300Y11200
X266195Y17800
X266195Y15600
X266200Y13500
X266200Y11200
T4
X207200Y50958
X209700Y50958
X212200Y50958
X214700Y50958
X217200Y50958
X219700Y50958
X222200Y50958
X235250Y50958
X237750Y50958
X240250Y50958
X242750Y50958
X245250Y50958
X247750Y50958
X250250Y50958
X265400Y51042
X267900Y51042
X270400Y51042
X272900Y51042
X275400Y51042
X277900Y51042
X280400Y51042
X293150Y51075
X295650Y51075
X298150Y51075
X300650Y51075
X303150Y51075
X305650Y51075
X308150Y51075
T5
X199300Y15903
X199300Y11942
X315750Y16049
X315750Y12089
M30
