%TF.GenerationSoftware,KiCad,Pcbnew,8.0.4*%
%TF.CreationDate,2024-09-13T16:34:39+09:00*%
%TF.ProjectId,LTC6811_ESP32_Slaves_V5,4c544336-3831-4315-9f45-535033325f53,rev?*%
%TF.SameCoordinates,Original*%
%TF.FileFunction,Copper,L2,Bot*%
%TF.FilePolarity,Positive*%
%FSLAX46Y46*%
G04 Gerber Fmt 4.6, Leading zero omitted, Abs format (unit mm)*
G04 Created by KiCad (PCBNEW 8.0.4) date 2024-09-13 16:34:39*
%MOMM*%
%LPD*%
G01*
G04 APERTURE LIST*
G04 Aperture macros list*
%AMRoundRect*
0 Rectangle with rounded corners*
0 $1 Rounding radius*
0 $2 $3 $4 $5 $6 $7 $8 $9 X,Y pos of 4 corners*
0 Add a 4 corners polygon primitive as box body*
4,1,4,$2,$3,$4,$5,$6,$7,$8,$9,$2,$3,0*
0 Add four circle primitives for the rounded corners*
1,1,$1+$1,$2,$3*
1,1,$1+$1,$4,$5*
1,1,$1+$1,$6,$7*
1,1,$1+$1,$8,$9*
0 Add four rect primitives between the rounded corners*
20,1,$1+$1,$2,$3,$4,$5,0*
20,1,$1+$1,$4,$5,$6,$7,0*
20,1,$1+$1,$6,$7,$8,$9,0*
20,1,$1+$1,$8,$9,$2,$3,0*%
G04 Aperture macros list end*
%TA.AperFunction,ComponentPad*%
%ADD10RoundRect,0.250001X-1.099999X1.099999X-1.099999X-1.099999X1.099999X-1.099999X1.099999X1.099999X0*%
%TD*%
%TA.AperFunction,ComponentPad*%
%ADD11C,2.700000*%
%TD*%
%TA.AperFunction,ComponentPad*%
%ADD12C,1.400000*%
%TD*%
%TA.AperFunction,ComponentPad*%
%ADD13O,1.400000X1.400000*%
%TD*%
%TA.AperFunction,ComponentPad*%
%ADD14O,1.700000X1.950000*%
%TD*%
%TA.AperFunction,ComponentPad*%
%ADD15RoundRect,0.250000X0.600000X0.725000X-0.600000X0.725000X-0.600000X-0.725000X0.600000X-0.725000X0*%
%TD*%
%TA.AperFunction,ComponentPad*%
%ADD16RoundRect,0.250001X1.099999X-1.099999X1.099999X1.099999X-1.099999X1.099999X-1.099999X-1.099999X0*%
%TD*%
%TA.AperFunction,ViaPad*%
%ADD17C,0.800000*%
%TD*%
%TA.AperFunction,ViaPad*%
%ADD18C,0.500000*%
%TD*%
%TA.AperFunction,Conductor*%
%ADD19C,0.300000*%
%TD*%
%ADD20C,0.350000*%
%ADD21C,0.300000*%
G04 APERTURE END LIST*
D10*
%TO.P,J9,1,Pin_1*%
%TO.N,Net-(J9-Pin_1)*%
X315750000Y16049428D03*
D11*
%TO.P,J9,2,Pin_2*%
%TO.N,Net-(J9-Pin_2)*%
X315750000Y12089428D03*
%TD*%
D12*
%TO.P,TH19,1*%
%TO.N,/LTC6811_4/T4*%
X264295000Y15600000D03*
D13*
%TO.P,TH19,2*%
%TO.N,GND_PACK*%
X266195000Y15600000D03*
%TD*%
D14*
%TO.P,J15,0,Pin_1*%
%TO.N,/LTC6811_3/C1_G*%
X207200000Y50958072D03*
%TO.P,J15,1,Pin_2*%
%TO.N,/LTC6811_3/C1*%
X209700000Y50958072D03*
%TO.P,J15,2,Pin_3*%
%TO.N,/LTC6811_3/C2*%
X212200000Y50958072D03*
%TO.P,J15,3,Pin_4*%
%TO.N,/LTC6811_3/C3*%
X214700000Y50958072D03*
%TO.P,J15,4,Pin_5*%
%TO.N,/LTC6811_3/C4*%
X217200000Y50958072D03*
%TO.P,J15,5,Pin_6*%
%TO.N,/LTC6811_3/C5*%
X219700000Y50958072D03*
D15*
%TO.P,J15,6,Pin_7*%
%TO.N,/LTC6811_3/C6*%
X222200000Y50958072D03*
%TD*%
D14*
%TO.P,J14,0,Pin_1*%
%TO.N,/LTC6811_3/C6*%
X235250000Y50958072D03*
%TO.P,J14,1,Pin_2*%
%TO.N,/LTC6811_3/C7*%
X237750000Y50958072D03*
%TO.P,J14,2,Pin_3*%
%TO.N,/LTC6811_3/C8*%
X240250000Y50958072D03*
%TO.P,J14,3,Pin_4*%
%TO.N,/LTC6811_3/C9*%
X242750000Y50958072D03*
%TO.P,J14,4,Pin_5*%
%TO.N,/LTC6811_3/C10*%
X245250000Y50958072D03*
%TO.P,J14,5,Pin_6*%
%TO.N,/LTC6811_3/C11*%
X247750000Y50958072D03*
D15*
%TO.P,J14,6,Pin_7*%
%TO.N,/LTC6811_3/C12*%
X250250000Y50958072D03*
%TD*%
D12*
%TO.P,TH20,1*%
%TO.N,/LTC6811_4/T5*%
X264295000Y17800000D03*
D13*
%TO.P,TH20,2*%
%TO.N,GND_PACK*%
X266195000Y17800000D03*
%TD*%
D12*
%TO.P,TH17,1*%
%TO.N,/LTC6811_4/T2*%
X264300000Y11200000D03*
D13*
%TO.P,TH17,2*%
%TO.N,GND_PACK*%
X266200000Y11200000D03*
%TD*%
D14*
%TO.P,J17,0,Pin_1*%
%TO.N,/LTC6811_4/C1_G*%
X265400000Y51041928D03*
%TO.P,J17,1,Pin_2*%
%TO.N,/LTC6811_4/C1*%
X267900000Y51041928D03*
%TO.P,J17,2,Pin_3*%
%TO.N,/LTC6811_4/C2*%
X270400000Y51041928D03*
%TO.P,J17,3,Pin_4*%
%TO.N,/LTC6811_4/C3*%
X272900000Y51041928D03*
%TO.P,J17,4,Pin_5*%
%TO.N,/LTC6811_4/C4*%
X275400000Y51041928D03*
%TO.P,J17,5,Pin_6*%
%TO.N,/LTC6811_4/C5*%
X277900000Y51041928D03*
D15*
%TO.P,J17,6,Pin_7*%
%TO.N,/LTC6811_4/C6*%
X280400000Y51041928D03*
%TD*%
D16*
%TO.P,J22,1,Pin_1*%
%TO.N,Net-(J22-Pin_1)*%
X199300000Y11942500D03*
D11*
%TO.P,J22,2,Pin_2*%
%TO.N,Net-(J22-Pin_2)*%
X199300000Y15902500D03*
%TD*%
D12*
%TO.P,TH18,1*%
%TO.N,/LTC6811_4/T3*%
X264300000Y13500000D03*
D13*
%TO.P,TH18,2*%
%TO.N,GND_PACK*%
X266200000Y13500000D03*
%TD*%
D12*
%TO.P,TH15,1*%
%TO.N,/LTC6811_3/T5*%
X209545000Y19900000D03*
D13*
%TO.P,TH15,2*%
%TO.N,GND_PACK*%
X211445000Y19900000D03*
%TD*%
D14*
%TO.P,J16,0,Pin_1*%
%TO.N,/LTC6811_4/C6*%
X293150000Y51075000D03*
%TO.P,J16,1,Pin_2*%
%TO.N,/LTC6811_4/C7*%
X295650000Y51075000D03*
%TO.P,J16,2,Pin_3*%
%TO.N,/LTC6811_4/C8*%
X298150000Y51075000D03*
%TO.P,J16,3,Pin_4*%
%TO.N,/LTC6811_4/C9*%
X300650000Y51075000D03*
%TO.P,J16,4,Pin_5*%
%TO.N,/LTC6811_4/C10*%
X303150000Y51075000D03*
%TO.P,J16,5,Pin_6*%
%TO.N,/LTC6811_4/C11*%
X305650000Y51075000D03*
D15*
%TO.P,J16,6,Pin_7*%
%TO.N,/LTC6811_4/C12*%
X308150000Y51075000D03*
%TD*%
D12*
%TO.P,TH12,1*%
%TO.N,/LTC6811_3/T2*%
X209545000Y13100000D03*
D13*
%TO.P,TH12,2*%
%TO.N,GND_PACK*%
X211445000Y13100000D03*
%TD*%
D12*
%TO.P,TH13,1*%
%TO.N,/LTC6811_3/T3*%
X209550000Y15700000D03*
D13*
%TO.P,TH13,2*%
%TO.N,GND_PACK*%
X211450000Y15700000D03*
%TD*%
D12*
%TO.P,TH14,1*%
%TO.N,/LTC6811_3/T4*%
X209545000Y17800000D03*
D13*
%TO.P,TH14,2*%
%TO.N,GND_PACK*%
X211445000Y17800000D03*
%TD*%
D17*
%TO.N,GND_PACK*%
X227250000Y51858072D03*
X238000000Y6000000D03*
D18*
X236950000Y28758072D03*
D17*
X227000000Y6000000D03*
X319450000Y42600000D03*
X266000000Y48041928D03*
X254050000Y9500000D03*
X204000000Y22000000D03*
X262000000Y22000000D03*
X319400000Y38125000D03*
X290000000Y16000000D03*
X288000000Y54041928D03*
X203600000Y54200000D03*
X217900000Y21050000D03*
X254050000Y14958072D03*
X208000000Y24000000D03*
D18*
X218150000Y28758072D03*
D17*
X316000000Y20041928D03*
X225800000Y14408072D03*
X216000000Y10000000D03*
D18*
X222850000Y28758072D03*
D17*
X314000000Y22041928D03*
X274000000Y10000000D03*
X284000000Y52041928D03*
X288000000Y52041928D03*
X316000000Y22041928D03*
X284000000Y2000000D03*
D18*
X271575000Y28900000D03*
D17*
X195750000Y33950000D03*
X256050000Y41958072D03*
X250050000Y21958072D03*
X229025000Y18775000D03*
X242050000Y18758072D03*
X294000000Y54041928D03*
X255050000Y29958072D03*
D18*
X304275000Y28900000D03*
X204050000Y28758072D03*
D17*
X253000000Y5000000D03*
X274000000Y3000000D03*
X288000000Y50041928D03*
X296000000Y500000D03*
X289975000Y49850000D03*
X238000000Y2000000D03*
X301975000Y21000000D03*
X298000000Y54041928D03*
X278000000Y2000000D03*
X256050000Y45958072D03*
X276000000Y8000000D03*
X195750000Y29950000D03*
X225800000Y11700000D03*
X314000000Y20041928D03*
X310000000Y22041928D03*
X280000000Y8000000D03*
X198000000Y37900000D03*
X304700000Y21341928D03*
D18*
X213550000Y28758072D03*
D17*
X219500000Y21050000D03*
X200000000Y24000000D03*
X317475000Y27500000D03*
X229250000Y49708072D03*
X318000000Y20041928D03*
X318000000Y22041928D03*
X282000000Y16000000D03*
D18*
X290275000Y28900000D03*
D17*
X223000000Y6000000D03*
X278000000Y8000000D03*
X275500000Y4500000D03*
X234000000Y2000000D03*
X198000000Y29958072D03*
X236750000Y8358072D03*
X256050000Y33958072D03*
X198000000Y22000000D03*
X198000000Y25958072D03*
X263000000Y3000000D03*
X270000000Y6000000D03*
X220000000Y10000000D03*
X250050000Y23958072D03*
X268000000Y3000000D03*
X256050000Y9500000D03*
X240050000Y1958072D03*
X264000000Y50041928D03*
X241250000Y53858072D03*
X236000000Y6000000D03*
X199250000Y28858072D03*
X296000000Y6000000D03*
X312000000Y20041928D03*
X218000000Y8000000D03*
X256050000Y50000000D03*
X202000000Y24000000D03*
X266775000Y22000000D03*
X310000000Y54041928D03*
X234000000Y6000000D03*
X254050000Y21958072D03*
X270775000Y22000000D03*
X233250000Y53858072D03*
X274775000Y22000000D03*
X290000000Y54041928D03*
X195750000Y37950000D03*
X204000000Y24000000D03*
X202000000Y40000000D03*
X261000000Y9500000D03*
X290700000Y12341928D03*
X221000000Y19775000D03*
X199250000Y25858072D03*
X270000000Y3000000D03*
X292200000Y10341928D03*
X286000000Y16000000D03*
X259200000Y9500000D03*
X237250000Y53858072D03*
X202000000Y42000000D03*
D18*
X250850000Y28758072D03*
D17*
X294000000Y19000000D03*
X291000000Y500000D03*
X263000000Y5000000D03*
X296000000Y7500000D03*
X272000000Y10000000D03*
X218000000Y4000000D03*
X198000000Y40000000D03*
X317475000Y30500000D03*
X319400000Y33925000D03*
X195700000Y21700000D03*
X263000000Y9500000D03*
X255050000Y27958072D03*
X306000000Y54041928D03*
X268000000Y500000D03*
D18*
X266975000Y28900000D03*
D17*
X270000000Y8500000D03*
X280000000Y6000000D03*
X272000000Y8500000D03*
X236000000Y2000000D03*
X263000000Y7000000D03*
X261975000Y26000000D03*
X254050000Y23958072D03*
X262000000Y48041928D03*
D18*
X232150000Y28758072D03*
D17*
X266000000Y46041928D03*
X263000000Y1000000D03*
X200000000Y22000000D03*
X286000000Y500000D03*
X254050000Y16958072D03*
D18*
X299575000Y28900000D03*
X241550000Y28758072D03*
X246150000Y28758072D03*
D17*
X270000000Y500000D03*
X290800000Y4500000D03*
D18*
X285675000Y28900000D03*
D17*
X296000000Y4000000D03*
X262000000Y46041928D03*
X249250000Y53858072D03*
X253000000Y7000000D03*
X300000000Y19000000D03*
X252050000Y21958072D03*
X268000000Y6000000D03*
X240050000Y18758072D03*
D18*
X294975000Y28900000D03*
D17*
X261975000Y42000000D03*
X253000000Y1000000D03*
X278000000Y6000000D03*
X232050000Y18758072D03*
X253250000Y53858072D03*
X260000000Y54041928D03*
X252050000Y19958072D03*
X263975000Y42000000D03*
D18*
X276275000Y28900000D03*
D17*
X256050000Y37958072D03*
X274000000Y8500000D03*
D18*
X313575000Y28900000D03*
D17*
X218000000Y12000000D03*
X222000000Y12000000D03*
X291975000Y18000000D03*
X253000000Y3000000D03*
X282000000Y2000000D03*
X298000000Y19000000D03*
X254050000Y19958072D03*
X218000000Y6000000D03*
X242050000Y1958072D03*
X280000000Y2000000D03*
X245250000Y53858072D03*
X195750000Y25950000D03*
X256050000Y54000000D03*
X225000000Y6000000D03*
X302000000Y54041928D03*
X274000000Y6000000D03*
X200000000Y40000000D03*
X310000000Y20041928D03*
X286000000Y14000000D03*
X290000000Y52041928D03*
X319400000Y46050000D03*
X198000000Y42000000D03*
X231250000Y51858072D03*
X216250000Y21050000D03*
X296000000Y2000000D03*
X279299250Y11475878D03*
D18*
X208750000Y28758072D03*
D17*
X263975000Y40000000D03*
D18*
X280975000Y28900000D03*
D17*
X236050000Y18758072D03*
X200000000Y42000000D03*
X198000000Y24000000D03*
X195700000Y42000000D03*
D18*
X227550000Y28758072D03*
D17*
X198000000Y33958072D03*
D18*
X308875000Y28900000D03*
D17*
X218000000Y10000000D03*
X218000000Y2000000D03*
X256050000Y11958072D03*
X261975000Y29000000D03*
X261975000Y40000000D03*
X225000000Y3000000D03*
X216000000Y12000000D03*
X206000000Y24000000D03*
X296000000Y19000000D03*
X202000000Y22000000D03*
D18*
%TO.N,/LTC6811_3/cell1/S*%
X222400000Y20470572D03*
X222400000Y13070572D03*
%TO.N,/LTC6811_4/cell1/S*%
X275900000Y19200000D03*
X275900000Y10200000D03*
%TD*%
D19*
%TO.N,/LTC6811_3/cell1/S*%
X222400000Y13070572D02*
X222400000Y20470572D01*
%TO.N,/LTC6811_4/cell1/S*%
X275900000Y10200000D02*
X275900000Y19200000D01*
%TD*%
%TA.AperFunction,Conductor*%
%TO.N,GND_PACK*%
G36*
X257343039Y54969815D02*
G01*
X257388794Y54917011D01*
X257400000Y54865500D01*
X257400000Y9024000D01*
X257380315Y8956961D01*
X257327511Y8911206D01*
X257276000Y8900000D01*
X254600000Y8900000D01*
X254600000Y272701D01*
X254580315Y205662D01*
X254527511Y159907D01*
X254476397Y148702D01*
X215224397Y22895D01*
X215157295Y42364D01*
X215111371Y95021D01*
X215100000Y146894D01*
X215100000Y10800000D01*
X205524000Y10800000D01*
X205456961Y10819685D01*
X205411206Y10872489D01*
X205400000Y10924000D01*
X205400000Y18900000D01*
X195134500Y18900000D01*
X195067461Y18919685D01*
X195021706Y18972489D01*
X195010500Y19024000D01*
X195010500Y19900001D01*
X208339357Y19900001D01*
X208339357Y19900000D01*
X208359884Y19678465D01*
X208359885Y19678463D01*
X208420769Y19464477D01*
X208420775Y19464462D01*
X208519938Y19265317D01*
X208519943Y19265309D01*
X208654018Y19087765D01*
X208814312Y18941637D01*
X208850593Y18881925D01*
X208848832Y18812078D01*
X208814312Y18758363D01*
X208654018Y18612236D01*
X208519943Y18434692D01*
X208519938Y18434684D01*
X208420775Y18235539D01*
X208420769Y18235524D01*
X208359885Y18021538D01*
X208359884Y18021536D01*
X208339357Y17800001D01*
X208339357Y17800000D01*
X208359884Y17578465D01*
X208359885Y17578463D01*
X208420769Y17364477D01*
X208420775Y17364462D01*
X208519938Y17165317D01*
X208519943Y17165309D01*
X208654018Y16987765D01*
X208816812Y16839358D01*
X208853093Y16779646D01*
X208851332Y16709799D01*
X208816812Y16656084D01*
X208659018Y16512236D01*
X208524943Y16334692D01*
X208524938Y16334684D01*
X208425775Y16135539D01*
X208425769Y16135524D01*
X208364885Y15921538D01*
X208364884Y15921536D01*
X208344357Y15700001D01*
X208344357Y15700000D01*
X208364884Y15478465D01*
X208364885Y15478463D01*
X208425769Y15264477D01*
X208425775Y15264462D01*
X208524938Y15065317D01*
X208524943Y15065309D01*
X208659020Y14887762D01*
X208823437Y14737877D01*
X208823439Y14737875D01*
X209012595Y14620755D01*
X209012596Y14620755D01*
X209012599Y14620753D01*
X209220060Y14540382D01*
X209316493Y14522356D01*
X209378771Y14490689D01*
X209414044Y14430377D01*
X209411110Y14360569D01*
X209370902Y14303428D01*
X209316491Y14278580D01*
X209215071Y14259621D01*
X209215062Y14259619D01*
X209215060Y14259618D01*
X209083864Y14208793D01*
X209007601Y14179248D01*
X209007595Y14179246D01*
X208818439Y14062126D01*
X208818437Y14062124D01*
X208654020Y13912239D01*
X208519943Y13734692D01*
X208519938Y13734684D01*
X208420775Y13535539D01*
X208420769Y13535524D01*
X208359885Y13321538D01*
X208359884Y13321536D01*
X208339357Y13100001D01*
X208339357Y13100000D01*
X208359884Y12878465D01*
X208359885Y12878463D01*
X208420769Y12664477D01*
X208420775Y12664462D01*
X208519938Y12465317D01*
X208519943Y12465309D01*
X208654020Y12287762D01*
X208818437Y12137877D01*
X208818439Y12137875D01*
X209007595Y12020755D01*
X209007596Y12020755D01*
X209007599Y12020753D01*
X209215060Y11940382D01*
X209433757Y11899500D01*
X209433759Y11899500D01*
X209656241Y11899500D01*
X209656243Y11899500D01*
X209874940Y11940382D01*
X210082401Y12020753D01*
X210271562Y12137876D01*
X210435981Y12287764D01*
X210570058Y12465311D01*
X210669229Y12664472D01*
X210730115Y12878464D01*
X210750643Y13100000D01*
X210730115Y13321536D01*
X210669229Y13535528D01*
X210669224Y13535539D01*
X210570061Y13734684D01*
X210570056Y13734692D01*
X210435979Y13912239D01*
X210271562Y14062124D01*
X210271560Y14062126D01*
X210082404Y14179246D01*
X210082398Y14179248D01*
X209874940Y14259618D01*
X209778506Y14277645D01*
X209716228Y14309313D01*
X209680955Y14369625D01*
X209683889Y14439433D01*
X209724098Y14496573D01*
X209778505Y14521421D01*
X209879940Y14540382D01*
X210087401Y14620753D01*
X210276562Y14737876D01*
X210440981Y14887764D01*
X210575058Y15065311D01*
X210674229Y15264472D01*
X210735115Y15478464D01*
X210755643Y15700000D01*
X210735115Y15921536D01*
X210674229Y16135528D01*
X210674224Y16135539D01*
X210575061Y16334684D01*
X210575056Y16334692D01*
X210440981Y16512236D01*
X210278187Y16660643D01*
X210241906Y16720355D01*
X210243667Y16790202D01*
X210278187Y16843916D01*
X210435981Y16987764D01*
X210570058Y17165311D01*
X210669229Y17364472D01*
X210730115Y17578464D01*
X210750643Y17800000D01*
X210730115Y18021536D01*
X210669229Y18235528D01*
X210669224Y18235539D01*
X210570061Y18434684D01*
X210570056Y18434692D01*
X210435979Y18612239D01*
X210275688Y18758363D01*
X210239406Y18818074D01*
X210241167Y18887922D01*
X210275688Y18941637D01*
X210435979Y19087762D01*
X210435982Y19087765D01*
X210570058Y19265311D01*
X210669229Y19464472D01*
X210730115Y19678464D01*
X210750643Y19900000D01*
X210730115Y20121536D01*
X210669229Y20335528D01*
X210601985Y20470572D01*
X210601984Y20470575D01*
X221644751Y20470575D01*
X221644751Y20470570D01*
X221663686Y20302515D01*
X221719542Y20142885D01*
X221719544Y20142882D01*
X221730493Y20125457D01*
X221749500Y20059485D01*
X221749500Y13481661D01*
X221730495Y13415690D01*
X221719544Y13398262D01*
X221663685Y13238629D01*
X221644751Y13070575D01*
X221644751Y13070570D01*
X221663685Y12902516D01*
X221719545Y12742878D01*
X221719547Y12742875D01*
X221809518Y12599688D01*
X221809523Y12599682D01*
X221929109Y12480096D01*
X221929115Y12480091D01*
X222072302Y12390120D01*
X222072305Y12390118D01*
X222072309Y12390117D01*
X222072310Y12390116D01*
X222144913Y12364712D01*
X222231943Y12334258D01*
X222399997Y12315323D01*
X222400000Y12315323D01*
X222400003Y12315323D01*
X222568056Y12334258D01*
X222568059Y12334259D01*
X222727690Y12390116D01*
X222727692Y12390118D01*
X222727694Y12390118D01*
X222727697Y12390120D01*
X222870884Y12480091D01*
X222870885Y12480092D01*
X222870890Y12480095D01*
X222990477Y12599682D01*
X223031181Y12664462D01*
X223080452Y12742875D01*
X223080454Y12742878D01*
X223080454Y12742880D01*
X223080456Y12742882D01*
X223136313Y12902513D01*
X223136313Y12902514D01*
X223136314Y12902516D01*
X223155249Y13070570D01*
X223155249Y13070575D01*
X223136314Y13238629D01*
X223107303Y13321536D01*
X223080456Y13398262D01*
X223069504Y13415691D01*
X223050500Y13481661D01*
X223050500Y20059485D01*
X223069506Y20125457D01*
X223080456Y20142882D01*
X223136313Y20302513D01*
X223155249Y20470572D01*
X223155249Y20470575D01*
X223136314Y20638629D01*
X223080454Y20798267D01*
X223080452Y20798270D01*
X222990481Y20941457D01*
X222990476Y20941463D01*
X222870890Y21061049D01*
X222870884Y21061054D01*
X222727697Y21151025D01*
X222727694Y21151027D01*
X222568056Y21206887D01*
X222400003Y21225821D01*
X222399997Y21225821D01*
X222231943Y21206887D01*
X222072305Y21151027D01*
X222072302Y21151025D01*
X221929115Y21061054D01*
X221929109Y21061049D01*
X221809523Y20941463D01*
X221809518Y20941457D01*
X221719547Y20798270D01*
X221719545Y20798267D01*
X221663685Y20638629D01*
X221644751Y20470575D01*
X210601984Y20470575D01*
X210570061Y20534684D01*
X210570056Y20534692D01*
X210435979Y20712239D01*
X210271562Y20862124D01*
X210271560Y20862126D01*
X210082404Y20979246D01*
X210082398Y20979248D01*
X209874940Y21059618D01*
X209656243Y21100500D01*
X209433757Y21100500D01*
X209215060Y21059618D01*
X209083864Y21008793D01*
X209007601Y20979248D01*
X209007595Y20979246D01*
X208818439Y20862126D01*
X208818437Y20862124D01*
X208654020Y20712239D01*
X208519943Y20534692D01*
X208519938Y20534684D01*
X208420775Y20335539D01*
X208420769Y20335524D01*
X208359885Y20121538D01*
X208359884Y20121536D01*
X208339357Y19900001D01*
X195010500Y19900001D01*
X195010500Y46876000D01*
X195030185Y46943039D01*
X195082989Y46988794D01*
X195134500Y47000000D01*
X203000000Y47000000D01*
X203000000Y51189359D01*
X205849500Y51189359D01*
X205849500Y50726786D01*
X205882753Y50516833D01*
X205948444Y50314658D01*
X206044951Y50125252D01*
X206169890Y49953286D01*
X206320213Y49802963D01*
X206492179Y49678024D01*
X206492181Y49678023D01*
X206492184Y49678021D01*
X206681588Y49581515D01*
X206883757Y49515826D01*
X207093713Y49482572D01*
X207093714Y49482572D01*
X207306286Y49482572D01*
X207306287Y49482572D01*
X207516243Y49515826D01*
X207718412Y49581515D01*
X207907816Y49678021D01*
X207929789Y49693986D01*
X208079786Y49802963D01*
X208079788Y49802966D01*
X208079792Y49802968D01*
X208230104Y49953280D01*
X208349683Y50117868D01*
X208405011Y50160532D01*
X208474624Y50166511D01*
X208536420Y50133906D01*
X208550313Y50117873D01*
X208653925Y49975263D01*
X208669896Y49953280D01*
X208820213Y49802963D01*
X208992179Y49678024D01*
X208992181Y49678023D01*
X208992184Y49678021D01*
X209181588Y49581515D01*
X209383757Y49515826D01*
X209593713Y49482572D01*
X209593714Y49482572D01*
X209806286Y49482572D01*
X209806287Y49482572D01*
X210016243Y49515826D01*
X210218412Y49581515D01*
X210407816Y49678021D01*
X210429789Y49693986D01*
X210579786Y49802963D01*
X210579788Y49802966D01*
X210579792Y49802968D01*
X210730104Y49953280D01*
X210849683Y50117868D01*
X210905011Y50160532D01*
X210974624Y50166511D01*
X211036420Y50133906D01*
X211050313Y50117873D01*
X211153925Y49975263D01*
X211169896Y49953280D01*
X211320213Y49802963D01*
X211492179Y49678024D01*
X211492181Y49678023D01*
X211492184Y49678021D01*
X211681588Y49581515D01*
X211883757Y49515826D01*
X212093713Y49482572D01*
X212093714Y49482572D01*
X212306286Y49482572D01*
X212306287Y49482572D01*
X212516243Y49515826D01*
X212718412Y49581515D01*
X212907816Y49678021D01*
X212929789Y49693986D01*
X213079786Y49802963D01*
X213079788Y49802966D01*
X213079792Y49802968D01*
X213230104Y49953280D01*
X213349683Y50117868D01*
X213405011Y50160532D01*
X213474624Y50166511D01*
X213536420Y50133906D01*
X213550313Y50117873D01*
X213653925Y49975263D01*
X213669896Y49953280D01*
X213820213Y49802963D01*
X213992179Y49678024D01*
X213992181Y49678023D01*
X213992184Y49678021D01*
X214181588Y49581515D01*
X214383757Y49515826D01*
X214593713Y49482572D01*
X214593714Y49482572D01*
X214806286Y49482572D01*
X214806287Y49482572D01*
X215016243Y49515826D01*
X215218412Y49581515D01*
X215407816Y49678021D01*
X215429789Y49693986D01*
X215579786Y49802963D01*
X215579788Y49802966D01*
X215579792Y49802968D01*
X215730104Y49953280D01*
X215849683Y50117868D01*
X215905011Y50160532D01*
X215974624Y50166511D01*
X216036420Y50133906D01*
X216050313Y50117873D01*
X216153925Y49975263D01*
X216169896Y49953280D01*
X216320213Y49802963D01*
X216492179Y49678024D01*
X216492181Y49678023D01*
X216492184Y49678021D01*
X216681588Y49581515D01*
X216883757Y49515826D01*
X217093713Y49482572D01*
X217093714Y49482572D01*
X217306286Y49482572D01*
X217306287Y49482572D01*
X217516243Y49515826D01*
X217718412Y49581515D01*
X217907816Y49678021D01*
X217929789Y49693986D01*
X218079786Y49802963D01*
X218079788Y49802966D01*
X218079792Y49802968D01*
X218230104Y49953280D01*
X218349683Y50117868D01*
X218405011Y50160532D01*
X218474624Y50166511D01*
X218536420Y50133906D01*
X218550313Y50117873D01*
X218653925Y49975263D01*
X218669896Y49953280D01*
X218820213Y49802963D01*
X218992179Y49678024D01*
X218992181Y49678023D01*
X218992184Y49678021D01*
X219181588Y49581515D01*
X219383757Y49515826D01*
X219593713Y49482572D01*
X219593714Y49482572D01*
X219806286Y49482572D01*
X219806287Y49482572D01*
X220016243Y49515826D01*
X220218412Y49581515D01*
X220407816Y49678021D01*
X220579792Y49802968D01*
X220718604Y49941781D01*
X220779923Y49975263D01*
X220849615Y49970279D01*
X220905549Y49928408D01*
X220911821Y49919194D01*
X220915185Y49913739D01*
X220915186Y49913738D01*
X221007288Y49764416D01*
X221131344Y49640360D01*
X221280666Y49548258D01*
X221447203Y49493073D01*
X221549991Y49482572D01*
X222850008Y49482573D01*
X222952797Y49493073D01*
X223119334Y49548258D01*
X223268656Y49640360D01*
X223392712Y49764416D01*
X223484814Y49913738D01*
X223539999Y50080275D01*
X223550500Y50183063D01*
X223550499Y51189359D01*
X233899500Y51189359D01*
X233899500Y50726786D01*
X233932753Y50516833D01*
X233998444Y50314658D01*
X234094951Y50125252D01*
X234219890Y49953286D01*
X234370213Y49802963D01*
X234542179Y49678024D01*
X234542181Y49678023D01*
X234542184Y49678021D01*
X234731588Y49581515D01*
X234933757Y49515826D01*
X235143713Y49482572D01*
X235143714Y49482572D01*
X235356286Y49482572D01*
X235356287Y49482572D01*
X235566243Y49515826D01*
X235768412Y49581515D01*
X235957816Y49678021D01*
X235979789Y49693986D01*
X236129786Y49802963D01*
X236129788Y49802966D01*
X236129792Y49802968D01*
X236280104Y49953280D01*
X236399683Y50117868D01*
X236455011Y50160532D01*
X236524624Y50166511D01*
X236586420Y50133906D01*
X236600313Y50117873D01*
X236703925Y49975263D01*
X236719896Y49953280D01*
X236870213Y49802963D01*
X237042179Y49678024D01*
X237042181Y49678023D01*
X237042184Y49678021D01*
X237231588Y49581515D01*
X237433757Y49515826D01*
X237643713Y49482572D01*
X237643714Y49482572D01*
X237856286Y49482572D01*
X237856287Y49482572D01*
X238066243Y49515826D01*
X238268412Y49581515D01*
X238457816Y49678021D01*
X238479789Y49693986D01*
X238629786Y49802963D01*
X238629788Y49802966D01*
X238629792Y49802968D01*
X238780104Y49953280D01*
X238899683Y50117868D01*
X238955011Y50160532D01*
X239024624Y50166511D01*
X239086420Y50133906D01*
X239100313Y50117873D01*
X239203925Y49975263D01*
X239219896Y49953280D01*
X239370213Y49802963D01*
X239542179Y49678024D01*
X239542181Y49678023D01*
X239542184Y49678021D01*
X239731588Y49581515D01*
X239933757Y49515826D01*
X240143713Y49482572D01*
X240143714Y49482572D01*
X240356286Y49482572D01*
X240356287Y49482572D01*
X240566243Y49515826D01*
X240768412Y49581515D01*
X240957816Y49678021D01*
X240979789Y49693986D01*
X241129786Y49802963D01*
X241129788Y49802966D01*
X241129792Y49802968D01*
X241280104Y49953280D01*
X241399683Y50117868D01*
X241455011Y50160532D01*
X241524624Y50166511D01*
X241586420Y50133906D01*
X241600313Y50117873D01*
X241703925Y49975263D01*
X241719896Y49953280D01*
X241870213Y49802963D01*
X242042179Y49678024D01*
X242042181Y49678023D01*
X242042184Y49678021D01*
X242231588Y49581515D01*
X242433757Y49515826D01*
X242643713Y49482572D01*
X242643714Y49482572D01*
X242856286Y49482572D01*
X242856287Y49482572D01*
X243066243Y49515826D01*
X243268412Y49581515D01*
X243457816Y49678021D01*
X243479789Y49693986D01*
X243629786Y49802963D01*
X243629788Y49802966D01*
X243629792Y49802968D01*
X243780104Y49953280D01*
X243899683Y50117868D01*
X243955011Y50160532D01*
X244024624Y50166511D01*
X244086420Y50133906D01*
X244100313Y50117873D01*
X244203925Y49975263D01*
X244219896Y49953280D01*
X244370213Y49802963D01*
X244542179Y49678024D01*
X244542181Y49678023D01*
X244542184Y49678021D01*
X244731588Y49581515D01*
X244933757Y49515826D01*
X245143713Y49482572D01*
X245143714Y49482572D01*
X245356286Y49482572D01*
X245356287Y49482572D01*
X245566243Y49515826D01*
X245768412Y49581515D01*
X245957816Y49678021D01*
X245979789Y49693986D01*
X246129786Y49802963D01*
X246129788Y49802966D01*
X246129792Y49802968D01*
X246280104Y49953280D01*
X246399683Y50117868D01*
X246455011Y50160532D01*
X246524624Y50166511D01*
X246586420Y50133906D01*
X246600313Y50117873D01*
X246703925Y49975263D01*
X246719896Y49953280D01*
X246870213Y49802963D01*
X247042179Y49678024D01*
X247042181Y49678023D01*
X247042184Y49678021D01*
X247231588Y49581515D01*
X247433757Y49515826D01*
X247643713Y49482572D01*
X247643714Y49482572D01*
X247856286Y49482572D01*
X247856287Y49482572D01*
X248066243Y49515826D01*
X248268412Y49581515D01*
X248457816Y49678021D01*
X248629792Y49802968D01*
X248768604Y49941781D01*
X248829923Y49975263D01*
X248899615Y49970279D01*
X248955549Y49928408D01*
X248961821Y49919194D01*
X248965185Y49913739D01*
X248965186Y49913738D01*
X249057288Y49764416D01*
X249181344Y49640360D01*
X249330666Y49548258D01*
X249497203Y49493073D01*
X249599991Y49482572D01*
X250900008Y49482573D01*
X251002797Y49493073D01*
X251169334Y49548258D01*
X251318656Y49640360D01*
X251442712Y49764416D01*
X251534814Y49913738D01*
X251589999Y50080275D01*
X251600500Y50183063D01*
X251600499Y51733080D01*
X251589999Y51835869D01*
X251534814Y52002406D01*
X251442712Y52151728D01*
X251318656Y52275784D01*
X251169334Y52367886D01*
X251002797Y52423071D01*
X251002795Y52423072D01*
X250900010Y52433572D01*
X249599998Y52433572D01*
X249599981Y52433571D01*
X249497203Y52423072D01*
X249497200Y52423071D01*
X249330668Y52367887D01*
X249330663Y52367885D01*
X249181342Y52275783D01*
X249057289Y52151730D01*
X248961821Y51996951D01*
X248909873Y51950227D01*
X248840910Y51939004D01*
X248776828Y51966848D01*
X248768601Y51974367D01*
X248629786Y52113182D01*
X248457820Y52238121D01*
X248268414Y52334628D01*
X248268413Y52334629D01*
X248268412Y52334629D01*
X248066243Y52400318D01*
X248066241Y52400319D01*
X248066240Y52400319D01*
X247904957Y52425864D01*
X247856287Y52433572D01*
X247643713Y52433572D01*
X247595042Y52425864D01*
X247433760Y52400319D01*
X247231585Y52334628D01*
X247042179Y52238121D01*
X246870213Y52113182D01*
X246719894Y51962863D01*
X246719890Y51962858D01*
X246600318Y51798279D01*
X246544989Y51755613D01*
X246475375Y51749634D01*
X246413580Y51782239D01*
X246399682Y51798279D01*
X246280109Y51962858D01*
X246280105Y51962863D01*
X246129786Y52113182D01*
X245957820Y52238121D01*
X245768414Y52334628D01*
X245768413Y52334629D01*
X245768412Y52334629D01*
X245566243Y52400318D01*
X245566241Y52400319D01*
X245566240Y52400319D01*
X245404957Y52425864D01*
X245356287Y52433572D01*
X245143713Y52433572D01*
X245095042Y52425864D01*
X244933760Y52400319D01*
X244731585Y52334628D01*
X244542179Y52238121D01*
X244370213Y52113182D01*
X244219894Y51962863D01*
X244219890Y51962858D01*
X244100318Y51798279D01*
X244044989Y51755613D01*
X243975375Y51749634D01*
X243913580Y51782239D01*
X243899682Y51798279D01*
X243780109Y51962858D01*
X243780105Y51962863D01*
X243629786Y52113182D01*
X243457820Y52238121D01*
X243268414Y52334628D01*
X243268413Y52334629D01*
X243268412Y52334629D01*
X243066243Y52400318D01*
X243066241Y52400319D01*
X243066240Y52400319D01*
X242904957Y52425864D01*
X242856287Y52433572D01*
X242643713Y52433572D01*
X242595042Y52425864D01*
X242433760Y52400319D01*
X242231585Y52334628D01*
X242042179Y52238121D01*
X241870213Y52113182D01*
X241719894Y51962863D01*
X241719890Y51962858D01*
X241600318Y51798279D01*
X241544989Y51755613D01*
X241475375Y51749634D01*
X241413580Y51782239D01*
X241399682Y51798279D01*
X241280109Y51962858D01*
X241280105Y51962863D01*
X241129786Y52113182D01*
X240957820Y52238121D01*
X240768414Y52334628D01*
X240768413Y52334629D01*
X240768412Y52334629D01*
X240566243Y52400318D01*
X240566241Y52400319D01*
X240566240Y52400319D01*
X240404957Y52425864D01*
X240356287Y52433572D01*
X240143713Y52433572D01*
X240095042Y52425864D01*
X239933760Y52400319D01*
X239731585Y52334628D01*
X239542179Y52238121D01*
X239370213Y52113182D01*
X239219894Y51962863D01*
X239219890Y51962858D01*
X239100318Y51798279D01*
X239044989Y51755613D01*
X238975375Y51749634D01*
X238913580Y51782239D01*
X238899682Y51798279D01*
X238780109Y51962858D01*
X238780105Y51962863D01*
X238629786Y52113182D01*
X238457820Y52238121D01*
X238268414Y52334628D01*
X238268413Y52334629D01*
X238268412Y52334629D01*
X238066243Y52400318D01*
X238066241Y52400319D01*
X238066240Y52400319D01*
X237904957Y52425864D01*
X237856287Y52433572D01*
X237643713Y52433572D01*
X237595042Y52425864D01*
X237433760Y52400319D01*
X237231585Y52334628D01*
X237042179Y52238121D01*
X236870213Y52113182D01*
X236719894Y51962863D01*
X236719890Y51962858D01*
X236600318Y51798279D01*
X236544989Y51755613D01*
X236475375Y51749634D01*
X236413580Y51782239D01*
X236399682Y51798279D01*
X236280109Y51962858D01*
X236280105Y51962863D01*
X236129786Y52113182D01*
X235957820Y52238121D01*
X235768414Y52334628D01*
X235768413Y52334629D01*
X235768412Y52334629D01*
X235566243Y52400318D01*
X235566241Y52400319D01*
X235566240Y52400319D01*
X235404957Y52425864D01*
X235356287Y52433572D01*
X235143713Y52433572D01*
X235095042Y52425864D01*
X234933760Y52400319D01*
X234731585Y52334628D01*
X234542179Y52238121D01*
X234370213Y52113182D01*
X234219890Y51962859D01*
X234094951Y51790893D01*
X233998444Y51601487D01*
X233932753Y51399312D01*
X233899500Y51189359D01*
X223550499Y51189359D01*
X223550499Y51733080D01*
X223539999Y51835869D01*
X223484814Y52002406D01*
X223392712Y52151728D01*
X223268656Y52275784D01*
X223119334Y52367886D01*
X222952797Y52423071D01*
X222952795Y52423072D01*
X222850010Y52433572D01*
X221549998Y52433572D01*
X221549981Y52433571D01*
X221447203Y52423072D01*
X221447200Y52423071D01*
X221280668Y52367887D01*
X221280663Y52367885D01*
X221131342Y52275783D01*
X221007289Y52151730D01*
X220911821Y51996951D01*
X220859873Y51950227D01*
X220790910Y51939004D01*
X220726828Y51966848D01*
X220718601Y51974367D01*
X220579786Y52113182D01*
X220407820Y52238121D01*
X220218414Y52334628D01*
X220218413Y52334629D01*
X220218412Y52334629D01*
X220016243Y52400318D01*
X220016241Y52400319D01*
X220016240Y52400319D01*
X219854957Y52425864D01*
X219806287Y52433572D01*
X219593713Y52433572D01*
X219545042Y52425864D01*
X219383760Y52400319D01*
X219181585Y52334628D01*
X218992179Y52238121D01*
X218820213Y52113182D01*
X218669894Y51962863D01*
X218669890Y51962858D01*
X218550318Y51798279D01*
X218494989Y51755613D01*
X218425375Y51749634D01*
X218363580Y51782239D01*
X218349682Y51798279D01*
X218230109Y51962858D01*
X218230105Y51962863D01*
X218079786Y52113182D01*
X217907820Y52238121D01*
X217718414Y52334628D01*
X217718413Y52334629D01*
X217718412Y52334629D01*
X217516243Y52400318D01*
X217516241Y52400319D01*
X217516240Y52400319D01*
X217354957Y52425864D01*
X217306287Y52433572D01*
X217093713Y52433572D01*
X217045042Y52425864D01*
X216883760Y52400319D01*
X216681585Y52334628D01*
X216492179Y52238121D01*
X216320213Y52113182D01*
X216169894Y51962863D01*
X216169890Y51962858D01*
X216050318Y51798279D01*
X215994989Y51755613D01*
X215925375Y51749634D01*
X215863580Y51782239D01*
X215849682Y51798279D01*
X215730109Y51962858D01*
X215730105Y51962863D01*
X215579786Y52113182D01*
X215407820Y52238121D01*
X215218414Y52334628D01*
X215218413Y52334629D01*
X215218412Y52334629D01*
X215016243Y52400318D01*
X215016241Y52400319D01*
X215016240Y52400319D01*
X214854957Y52425864D01*
X214806287Y52433572D01*
X214593713Y52433572D01*
X214545042Y52425864D01*
X214383760Y52400319D01*
X214181585Y52334628D01*
X213992179Y52238121D01*
X213820213Y52113182D01*
X213669894Y51962863D01*
X213669890Y51962858D01*
X213550318Y51798279D01*
X213494989Y51755613D01*
X213425375Y51749634D01*
X213363580Y51782239D01*
X213349682Y51798279D01*
X213230109Y51962858D01*
X213230105Y51962863D01*
X213079786Y52113182D01*
X212907820Y52238121D01*
X212718414Y52334628D01*
X212718413Y52334629D01*
X212718412Y52334629D01*
X212516243Y52400318D01*
X212516241Y52400319D01*
X212516240Y52400319D01*
X212354957Y52425864D01*
X212306287Y52433572D01*
X212093713Y52433572D01*
X212045042Y52425864D01*
X211883760Y52400319D01*
X211681585Y52334628D01*
X211492179Y52238121D01*
X211320213Y52113182D01*
X211169894Y51962863D01*
X211169890Y51962858D01*
X211050318Y51798279D01*
X210994989Y51755613D01*
X210925375Y51749634D01*
X210863580Y51782239D01*
X210849682Y51798279D01*
X210730109Y51962858D01*
X210730105Y51962863D01*
X210579786Y52113182D01*
X210407820Y52238121D01*
X210218414Y52334628D01*
X210218413Y52334629D01*
X210218412Y52334629D01*
X210016243Y52400318D01*
X210016241Y52400319D01*
X210016240Y52400319D01*
X209854957Y52425864D01*
X209806287Y52433572D01*
X209593713Y52433572D01*
X209545042Y52425864D01*
X209383760Y52400319D01*
X209181585Y52334628D01*
X208992179Y52238121D01*
X208820213Y52113182D01*
X208669894Y51962863D01*
X208669890Y51962858D01*
X208550318Y51798279D01*
X208494989Y51755613D01*
X208425375Y51749634D01*
X208363580Y51782239D01*
X208349682Y51798279D01*
X208230109Y51962858D01*
X208230105Y51962863D01*
X208079786Y52113182D01*
X207907820Y52238121D01*
X207718414Y52334628D01*
X207718413Y52334629D01*
X207718412Y52334629D01*
X207516243Y52400318D01*
X207516241Y52400319D01*
X207516240Y52400319D01*
X207354957Y52425864D01*
X207306287Y52433572D01*
X207093713Y52433572D01*
X207045042Y52425864D01*
X206883760Y52400319D01*
X206681585Y52334628D01*
X206492179Y52238121D01*
X206320213Y52113182D01*
X206169890Y51962859D01*
X206044951Y51790893D01*
X205948444Y51601487D01*
X205882753Y51399312D01*
X205849500Y51189359D01*
X203000000Y51189359D01*
X203000000Y54847092D01*
X203019685Y54914131D01*
X203072489Y54959886D01*
X203123795Y54971091D01*
X214611072Y54989500D01*
X257276000Y54989500D01*
X257343039Y54969815D01*
G37*
%TD.AperFunction*%
%TD*%
%TA.AperFunction,Conductor*%
%TO.N,GND_PACK*%
G36*
X311993039Y54969815D02*
G01*
X312038794Y54917011D01*
X312050000Y54865500D01*
X312050000Y47050000D01*
X319865500Y47050000D01*
X319932539Y47030315D01*
X319978294Y46977511D01*
X319989500Y46926000D01*
X319989500Y18615928D01*
X319969815Y18548889D01*
X319917011Y18503134D01*
X319865500Y18491928D01*
X306500000Y18491928D01*
X306500000Y9074000D01*
X306480315Y9006961D01*
X306427511Y8961206D01*
X306376000Y8950000D01*
X298900000Y8950000D01*
X298900000Y173691D01*
X298880315Y106652D01*
X298827511Y60897D01*
X298776310Y49691D01*
X283100000Y10500D01*
X261524000Y10500D01*
X261456961Y30185D01*
X261411206Y82989D01*
X261400000Y134500D01*
X261400000Y8900000D01*
X259024000Y8900000D01*
X258956961Y8919685D01*
X258911206Y8972489D01*
X258900000Y9024000D01*
X258900000Y17800001D01*
X263089357Y17800001D01*
X263089357Y17800000D01*
X263109884Y17578465D01*
X263109885Y17578463D01*
X263170769Y17364477D01*
X263170775Y17364462D01*
X263269938Y17165317D01*
X263269943Y17165309D01*
X263404020Y16987762D01*
X263545464Y16858819D01*
X263568438Y16837876D01*
X263614392Y16809423D01*
X263620845Y16805427D01*
X263667480Y16753399D01*
X263678584Y16684417D01*
X263650631Y16620383D01*
X263620845Y16594573D01*
X263568436Y16562123D01*
X263404020Y16412239D01*
X263269943Y16234692D01*
X263269938Y16234684D01*
X263170775Y16035539D01*
X263170769Y16035524D01*
X263109885Y15821538D01*
X263109884Y15821536D01*
X263089357Y15600001D01*
X263089357Y15600000D01*
X263109884Y15378465D01*
X263109885Y15378463D01*
X263170769Y15164477D01*
X263170775Y15164462D01*
X263269938Y14965317D01*
X263269943Y14965309D01*
X263404018Y14787765D01*
X263566812Y14639358D01*
X263603093Y14579646D01*
X263601332Y14509799D01*
X263566812Y14456084D01*
X263409018Y14312236D01*
X263274943Y14134692D01*
X263274938Y14134684D01*
X263175775Y13935539D01*
X263175769Y13935524D01*
X263114885Y13721538D01*
X263114884Y13721536D01*
X263094357Y13500001D01*
X263094357Y13500000D01*
X263114884Y13278465D01*
X263114885Y13278463D01*
X263175769Y13064477D01*
X263175775Y13064462D01*
X263274938Y12865317D01*
X263274943Y12865309D01*
X263409020Y12687762D01*
X263550464Y12558819D01*
X263573438Y12537876D01*
X263679617Y12472133D01*
X263706598Y12455427D01*
X263753233Y12403399D01*
X263764337Y12334417D01*
X263736384Y12270383D01*
X263706598Y12244573D01*
X263573436Y12162123D01*
X263409020Y12012239D01*
X263274943Y11834692D01*
X263274938Y11834684D01*
X263175775Y11635539D01*
X263175769Y11635524D01*
X263114885Y11421538D01*
X263114884Y11421536D01*
X263094357Y11200001D01*
X263094357Y11200000D01*
X263114884Y10978465D01*
X263114885Y10978463D01*
X263175769Y10764477D01*
X263175775Y10764462D01*
X263274938Y10565317D01*
X263274943Y10565309D01*
X263409020Y10387762D01*
X263573437Y10237877D01*
X263573439Y10237875D01*
X263762595Y10120755D01*
X263762596Y10120755D01*
X263762599Y10120753D01*
X263970060Y10040382D01*
X264188757Y9999500D01*
X264188759Y9999500D01*
X264411241Y9999500D01*
X264411243Y9999500D01*
X264629940Y10040382D01*
X264837401Y10120753D01*
X265026562Y10237876D01*
X265166282Y10365249D01*
X265190979Y10387762D01*
X265297420Y10528712D01*
X265325058Y10565311D01*
X265424229Y10764472D01*
X265485115Y10978464D01*
X265505643Y11200000D01*
X265485115Y11421536D01*
X265424229Y11635528D01*
X265424224Y11635539D01*
X265325061Y11834684D01*
X265325056Y11834692D01*
X265190979Y12012239D01*
X265026562Y12162124D01*
X265026560Y12162126D01*
X264893402Y12244573D01*
X264846766Y12296601D01*
X264835662Y12365582D01*
X264863615Y12429617D01*
X264893402Y12455427D01*
X265026560Y12537875D01*
X265026559Y12537875D01*
X265026562Y12537876D01*
X265190981Y12687764D01*
X265325058Y12865311D01*
X265424229Y13064472D01*
X265485115Y13278464D01*
X265505643Y13500000D01*
X265485115Y13721536D01*
X265424229Y13935528D01*
X265424224Y13935539D01*
X265325061Y14134684D01*
X265325056Y14134692D01*
X265190981Y14312236D01*
X265028187Y14460643D01*
X264991906Y14520355D01*
X264993667Y14590202D01*
X265028187Y14643916D01*
X265185981Y14787764D01*
X265320058Y14965311D01*
X265419229Y15164472D01*
X265480115Y15378464D01*
X265500643Y15600000D01*
X265480115Y15821536D01*
X265419229Y16035528D01*
X265419224Y16035539D01*
X265320061Y16234684D01*
X265320056Y16234692D01*
X265185979Y16412239D01*
X265021562Y16562124D01*
X265021560Y16562126D01*
X264969155Y16594573D01*
X264922519Y16646600D01*
X264911415Y16715582D01*
X264939368Y16779616D01*
X264969155Y16805427D01*
X265021560Y16837875D01*
X265021559Y16837875D01*
X265021562Y16837876D01*
X265185981Y16987764D01*
X265320058Y17165311D01*
X265419229Y17364472D01*
X265480115Y17578464D01*
X265500643Y17800000D01*
X265491383Y17899928D01*
X265480115Y18021536D01*
X265480114Y18021538D01*
X265419230Y18235524D01*
X265419229Y18235528D01*
X265419224Y18235539D01*
X265320061Y18434684D01*
X265320056Y18434692D01*
X265185979Y18612239D01*
X265021562Y18762124D01*
X265021560Y18762126D01*
X264832404Y18879246D01*
X264832398Y18879248D01*
X264624940Y18959618D01*
X264406243Y19000500D01*
X264183757Y19000500D01*
X263965060Y18959618D01*
X263833864Y18908793D01*
X263757601Y18879248D01*
X263757595Y18879246D01*
X263568439Y18762126D01*
X263568437Y18762124D01*
X263404020Y18612239D01*
X263269943Y18434692D01*
X263269938Y18434684D01*
X263170775Y18235539D01*
X263170769Y18235524D01*
X263109885Y18021538D01*
X263109884Y18021536D01*
X263089357Y17800001D01*
X258900000Y17800001D01*
X258900000Y19200003D01*
X275144751Y19200003D01*
X275144751Y19199998D01*
X275163686Y19031943D01*
X275219542Y18872313D01*
X275219544Y18872310D01*
X275230493Y18854885D01*
X275249500Y18788913D01*
X275249500Y10611089D01*
X275230495Y10545118D01*
X275219544Y10527690D01*
X275163685Y10368057D01*
X275144751Y10200003D01*
X275144751Y10199998D01*
X275163685Y10031944D01*
X275219545Y9872306D01*
X275219547Y9872303D01*
X275309518Y9729116D01*
X275309523Y9729110D01*
X275429109Y9609524D01*
X275429115Y9609519D01*
X275572302Y9519548D01*
X275572305Y9519546D01*
X275572309Y9519545D01*
X275572310Y9519544D01*
X275644913Y9494140D01*
X275731943Y9463686D01*
X275899997Y9444751D01*
X275900000Y9444751D01*
X275900003Y9444751D01*
X276068056Y9463686D01*
X276068059Y9463687D01*
X276227690Y9519544D01*
X276227692Y9519546D01*
X276227694Y9519546D01*
X276227697Y9519548D01*
X276370884Y9609519D01*
X276370885Y9609520D01*
X276370890Y9609523D01*
X276490477Y9729110D01*
X276580452Y9872303D01*
X276580454Y9872306D01*
X276580454Y9872308D01*
X276580456Y9872310D01*
X276636313Y10031941D01*
X276636313Y10031942D01*
X276636314Y10031944D01*
X276655249Y10199998D01*
X276655249Y10200003D01*
X276636314Y10368057D01*
X276623417Y10404912D01*
X276580456Y10527690D01*
X276569504Y10545119D01*
X276550500Y10611089D01*
X276550500Y18788913D01*
X276569506Y18854885D01*
X276580456Y18872310D01*
X276636313Y19031941D01*
X276655249Y19200000D01*
X276655249Y19200003D01*
X276636314Y19368057D01*
X276580454Y19527695D01*
X276580452Y19527698D01*
X276490481Y19670885D01*
X276490476Y19670891D01*
X276370890Y19790477D01*
X276370884Y19790482D01*
X276227697Y19880453D01*
X276227694Y19880455D01*
X276068056Y19936315D01*
X275900003Y19955249D01*
X275899997Y19955249D01*
X275731943Y19936315D01*
X275572305Y19880455D01*
X275572302Y19880453D01*
X275429115Y19790482D01*
X275429109Y19790477D01*
X275309523Y19670891D01*
X275309518Y19670885D01*
X275219547Y19527698D01*
X275219545Y19527695D01*
X275163685Y19368057D01*
X275144751Y19200003D01*
X258900000Y19200003D01*
X258900000Y51273215D01*
X264049500Y51273215D01*
X264049500Y50810641D01*
X264082754Y50600685D01*
X264137697Y50431588D01*
X264148444Y50398514D01*
X264244951Y50209108D01*
X264369890Y50037142D01*
X264520213Y49886819D01*
X264692179Y49761880D01*
X264692181Y49761879D01*
X264692184Y49761877D01*
X264881588Y49665371D01*
X265083757Y49599682D01*
X265293713Y49566428D01*
X265293714Y49566428D01*
X265506286Y49566428D01*
X265506287Y49566428D01*
X265716243Y49599682D01*
X265918412Y49665371D01*
X266107816Y49761877D01*
X266153340Y49794952D01*
X266279786Y49886819D01*
X266279788Y49886822D01*
X266279792Y49886824D01*
X266430104Y50037136D01*
X266549683Y50201724D01*
X266605011Y50244388D01*
X266674624Y50250367D01*
X266736420Y50217762D01*
X266750313Y50201729D01*
X266833518Y50087207D01*
X266869896Y50037136D01*
X267020213Y49886819D01*
X267192179Y49761880D01*
X267192181Y49761879D01*
X267192184Y49761877D01*
X267381588Y49665371D01*
X267583757Y49599682D01*
X267793713Y49566428D01*
X267793714Y49566428D01*
X268006286Y49566428D01*
X268006287Y49566428D01*
X268216243Y49599682D01*
X268418412Y49665371D01*
X268607816Y49761877D01*
X268653340Y49794952D01*
X268779786Y49886819D01*
X268779788Y49886822D01*
X268779792Y49886824D01*
X268930104Y50037136D01*
X269049683Y50201724D01*
X269105011Y50244388D01*
X269174624Y50250367D01*
X269236420Y50217762D01*
X269250313Y50201729D01*
X269333518Y50087207D01*
X269369896Y50037136D01*
X269520213Y49886819D01*
X269692179Y49761880D01*
X269692181Y49761879D01*
X269692184Y49761877D01*
X269881588Y49665371D01*
X270083757Y49599682D01*
X270293713Y49566428D01*
X270293714Y49566428D01*
X270506286Y49566428D01*
X270506287Y49566428D01*
X270716243Y49599682D01*
X270918412Y49665371D01*
X271107816Y49761877D01*
X271153340Y49794952D01*
X271279786Y49886819D01*
X271279788Y49886822D01*
X271279792Y49886824D01*
X271430104Y50037136D01*
X271549683Y50201724D01*
X271605011Y50244388D01*
X271674624Y50250367D01*
X271736420Y50217762D01*
X271750313Y50201729D01*
X271833518Y50087207D01*
X271869896Y50037136D01*
X272020213Y49886819D01*
X272192179Y49761880D01*
X272192181Y49761879D01*
X272192184Y49761877D01*
X272381588Y49665371D01*
X272583757Y49599682D01*
X272793713Y49566428D01*
X272793714Y49566428D01*
X273006286Y49566428D01*
X273006287Y49566428D01*
X273216243Y49599682D01*
X273418412Y49665371D01*
X273607816Y49761877D01*
X273653340Y49794952D01*
X273779786Y49886819D01*
X273779788Y49886822D01*
X273779792Y49886824D01*
X273930104Y50037136D01*
X274049683Y50201724D01*
X274105011Y50244388D01*
X274174624Y50250367D01*
X274236420Y50217762D01*
X274250313Y50201729D01*
X274333518Y50087207D01*
X274369896Y50037136D01*
X274520213Y49886819D01*
X274692179Y49761880D01*
X274692181Y49761879D01*
X274692184Y49761877D01*
X274881588Y49665371D01*
X275083757Y49599682D01*
X275293713Y49566428D01*
X275293714Y49566428D01*
X275506286Y49566428D01*
X275506287Y49566428D01*
X275716243Y49599682D01*
X275918412Y49665371D01*
X276107816Y49761877D01*
X276153340Y49794952D01*
X276279786Y49886819D01*
X276279788Y49886822D01*
X276279792Y49886824D01*
X276430104Y50037136D01*
X276549683Y50201724D01*
X276605011Y50244388D01*
X276674624Y50250367D01*
X276736420Y50217762D01*
X276750313Y50201729D01*
X276833518Y50087207D01*
X276869896Y50037136D01*
X277020213Y49886819D01*
X277192179Y49761880D01*
X277192181Y49761879D01*
X277192184Y49761877D01*
X277381588Y49665371D01*
X277583757Y49599682D01*
X277793713Y49566428D01*
X277793714Y49566428D01*
X278006286Y49566428D01*
X278006287Y49566428D01*
X278216243Y49599682D01*
X278418412Y49665371D01*
X278607816Y49761877D01*
X278772248Y49881343D01*
X278779784Y49886818D01*
X278779784Y49886819D01*
X278779792Y49886824D01*
X278918604Y50025637D01*
X278979923Y50059119D01*
X279049615Y50054135D01*
X279105549Y50012264D01*
X279111821Y50003050D01*
X279115185Y49997595D01*
X279115186Y49997594D01*
X279207288Y49848272D01*
X279331344Y49724216D01*
X279480666Y49632114D01*
X279647203Y49576929D01*
X279749991Y49566428D01*
X281050008Y49566429D01*
X281152797Y49576929D01*
X281319334Y49632114D01*
X281468656Y49724216D01*
X281592712Y49848272D01*
X281684814Y49997594D01*
X281739999Y50164131D01*
X281750500Y50266919D01*
X281750499Y51306287D01*
X291799500Y51306287D01*
X291799500Y50843713D01*
X291832754Y50633757D01*
X291843498Y50600689D01*
X291898444Y50431586D01*
X291994951Y50242180D01*
X292119890Y50070214D01*
X292270213Y49919891D01*
X292442179Y49794952D01*
X292442181Y49794951D01*
X292442184Y49794949D01*
X292631588Y49698443D01*
X292833757Y49632754D01*
X293043713Y49599500D01*
X293043714Y49599500D01*
X293256286Y49599500D01*
X293256287Y49599500D01*
X293466243Y49632754D01*
X293668412Y49698443D01*
X293857816Y49794949D01*
X293931208Y49848271D01*
X294029786Y49919891D01*
X294029788Y49919894D01*
X294029792Y49919896D01*
X294180104Y50070208D01*
X294299683Y50234796D01*
X294355011Y50277460D01*
X294424624Y50283439D01*
X294486420Y50250834D01*
X294500313Y50234801D01*
X294603925Y50092191D01*
X294619896Y50070208D01*
X294770213Y49919891D01*
X294942179Y49794952D01*
X294942181Y49794951D01*
X294942184Y49794949D01*
X295131588Y49698443D01*
X295333757Y49632754D01*
X295543713Y49599500D01*
X295543714Y49599500D01*
X295756286Y49599500D01*
X295756287Y49599500D01*
X295966243Y49632754D01*
X296168412Y49698443D01*
X296357816Y49794949D01*
X296431208Y49848271D01*
X296529786Y49919891D01*
X296529788Y49919894D01*
X296529792Y49919896D01*
X296680104Y50070208D01*
X296799683Y50234796D01*
X296855011Y50277460D01*
X296924624Y50283439D01*
X296986420Y50250834D01*
X297000313Y50234801D01*
X297103925Y50092191D01*
X297119896Y50070208D01*
X297270213Y49919891D01*
X297442179Y49794952D01*
X297442181Y49794951D01*
X297442184Y49794949D01*
X297631588Y49698443D01*
X297833757Y49632754D01*
X298043713Y49599500D01*
X298043714Y49599500D01*
X298256286Y49599500D01*
X298256287Y49599500D01*
X298466243Y49632754D01*
X298668412Y49698443D01*
X298857816Y49794949D01*
X298931208Y49848271D01*
X299029786Y49919891D01*
X299029788Y49919894D01*
X299029792Y49919896D01*
X299180104Y50070208D01*
X299299683Y50234796D01*
X299355011Y50277460D01*
X299424624Y50283439D01*
X299486420Y50250834D01*
X299500313Y50234801D01*
X299603925Y50092191D01*
X299619896Y50070208D01*
X299770213Y49919891D01*
X299942179Y49794952D01*
X299942181Y49794951D01*
X299942184Y49794949D01*
X300131588Y49698443D01*
X300333757Y49632754D01*
X300543713Y49599500D01*
X300543714Y49599500D01*
X300756286Y49599500D01*
X300756287Y49599500D01*
X300966243Y49632754D01*
X301168412Y49698443D01*
X301357816Y49794949D01*
X301431208Y49848271D01*
X301529786Y49919891D01*
X301529788Y49919894D01*
X301529792Y49919896D01*
X301680104Y50070208D01*
X301799683Y50234796D01*
X301855011Y50277460D01*
X301924624Y50283439D01*
X301986420Y50250834D01*
X302000313Y50234801D01*
X302103925Y50092191D01*
X302119896Y50070208D01*
X302270213Y49919891D01*
X302442179Y49794952D01*
X302442181Y49794951D01*
X302442184Y49794949D01*
X302631588Y49698443D01*
X302833757Y49632754D01*
X303043713Y49599500D01*
X303043714Y49599500D01*
X303256286Y49599500D01*
X303256287Y49599500D01*
X303466243Y49632754D01*
X303668412Y49698443D01*
X303857816Y49794949D01*
X303931208Y49848271D01*
X304029786Y49919891D01*
X304029788Y49919894D01*
X304029792Y49919896D01*
X304180104Y50070208D01*
X304299683Y50234796D01*
X304355011Y50277460D01*
X304424624Y50283439D01*
X304486420Y50250834D01*
X304500313Y50234801D01*
X304603925Y50092191D01*
X304619896Y50070208D01*
X304770213Y49919891D01*
X304942179Y49794952D01*
X304942181Y49794951D01*
X304942184Y49794949D01*
X305131588Y49698443D01*
X305333757Y49632754D01*
X305543713Y49599500D01*
X305543714Y49599500D01*
X305756286Y49599500D01*
X305756287Y49599500D01*
X305966243Y49632754D01*
X306168412Y49698443D01*
X306357816Y49794949D01*
X306529792Y49919896D01*
X306668604Y50058709D01*
X306729923Y50092191D01*
X306799615Y50087207D01*
X306855549Y50045336D01*
X306861821Y50036122D01*
X306865185Y50030667D01*
X306865186Y50030666D01*
X306957288Y49881344D01*
X307081344Y49757288D01*
X307230666Y49665186D01*
X307397203Y49610001D01*
X307499991Y49599500D01*
X308800008Y49599501D01*
X308902797Y49610001D01*
X309069334Y49665186D01*
X309218656Y49757288D01*
X309342712Y49881344D01*
X309434814Y50030666D01*
X309489999Y50197203D01*
X309500500Y50299991D01*
X309500499Y51850008D01*
X309489999Y51952797D01*
X309434814Y52119334D01*
X309342712Y52268656D01*
X309218656Y52392712D01*
X309069334Y52484814D01*
X308902797Y52539999D01*
X308902795Y52540000D01*
X308800010Y52550500D01*
X307499998Y52550500D01*
X307499981Y52550499D01*
X307397203Y52540000D01*
X307397200Y52539999D01*
X307230668Y52484815D01*
X307230663Y52484813D01*
X307081342Y52392711D01*
X306957289Y52268658D01*
X306861821Y52113879D01*
X306809873Y52067155D01*
X306740910Y52055932D01*
X306676828Y52083776D01*
X306668601Y52091295D01*
X306529786Y52230110D01*
X306357820Y52355049D01*
X306168414Y52451556D01*
X306168413Y52451557D01*
X306168412Y52451557D01*
X305966243Y52517246D01*
X305966241Y52517247D01*
X305966240Y52517247D01*
X305804957Y52542792D01*
X305756287Y52550500D01*
X305543713Y52550500D01*
X305495042Y52542792D01*
X305333760Y52517247D01*
X305233945Y52484815D01*
X305132161Y52451743D01*
X305131585Y52451556D01*
X304942179Y52355049D01*
X304770213Y52230110D01*
X304619894Y52079791D01*
X304619890Y52079786D01*
X304500318Y51915207D01*
X304444989Y51872541D01*
X304375375Y51866562D01*
X304313580Y51899167D01*
X304299682Y51915207D01*
X304180109Y52079786D01*
X304180105Y52079791D01*
X304029786Y52230110D01*
X303857820Y52355049D01*
X303668414Y52451556D01*
X303668413Y52451557D01*
X303668412Y52451557D01*
X303466243Y52517246D01*
X303466241Y52517247D01*
X303466240Y52517247D01*
X303304957Y52542792D01*
X303256287Y52550500D01*
X303043713Y52550500D01*
X302995042Y52542792D01*
X302833760Y52517247D01*
X302733945Y52484815D01*
X302632161Y52451743D01*
X302631585Y52451556D01*
X302442179Y52355049D01*
X302270213Y52230110D01*
X302119894Y52079791D01*
X302119890Y52079786D01*
X302000318Y51915207D01*
X301944989Y51872541D01*
X301875375Y51866562D01*
X301813580Y51899167D01*
X301799682Y51915207D01*
X301680109Y52079786D01*
X301680105Y52079791D01*
X301529786Y52230110D01*
X301357820Y52355049D01*
X301168414Y52451556D01*
X301168413Y52451557D01*
X301168412Y52451557D01*
X300966243Y52517246D01*
X300966241Y52517247D01*
X300966240Y52517247D01*
X300804957Y52542792D01*
X300756287Y52550500D01*
X300543713Y52550500D01*
X300495042Y52542792D01*
X300333760Y52517247D01*
X300233945Y52484815D01*
X300132161Y52451743D01*
X300131585Y52451556D01*
X299942179Y52355049D01*
X299770213Y52230110D01*
X299619894Y52079791D01*
X299619890Y52079786D01*
X299500318Y51915207D01*
X299444989Y51872541D01*
X299375375Y51866562D01*
X299313580Y51899167D01*
X299299682Y51915207D01*
X299180109Y52079786D01*
X299180105Y52079791D01*
X299029786Y52230110D01*
X298857820Y52355049D01*
X298668414Y52451556D01*
X298668413Y52451557D01*
X298668412Y52451557D01*
X298466243Y52517246D01*
X298466241Y52517247D01*
X298466240Y52517247D01*
X298304957Y52542792D01*
X298256287Y52550500D01*
X298043713Y52550500D01*
X297995042Y52542792D01*
X297833760Y52517247D01*
X297733945Y52484815D01*
X297632161Y52451743D01*
X297631585Y52451556D01*
X297442179Y52355049D01*
X297270213Y52230110D01*
X297119894Y52079791D01*
X297119890Y52079786D01*
X297000318Y51915207D01*
X296944989Y51872541D01*
X296875375Y51866562D01*
X296813580Y51899167D01*
X296799682Y51915207D01*
X296680109Y52079786D01*
X296680105Y52079791D01*
X296529786Y52230110D01*
X296357820Y52355049D01*
X296168414Y52451556D01*
X296168413Y52451557D01*
X296168412Y52451557D01*
X295966243Y52517246D01*
X295966241Y52517247D01*
X295966240Y52517247D01*
X295804957Y52542792D01*
X295756287Y52550500D01*
X295543713Y52550500D01*
X295495042Y52542792D01*
X295333760Y52517247D01*
X295233945Y52484815D01*
X295132161Y52451743D01*
X295131585Y52451556D01*
X294942179Y52355049D01*
X294770213Y52230110D01*
X294619894Y52079791D01*
X294619890Y52079786D01*
X294500318Y51915207D01*
X294444989Y51872541D01*
X294375375Y51866562D01*
X294313580Y51899167D01*
X294299682Y51915207D01*
X294180109Y52079786D01*
X294180105Y52079791D01*
X294029786Y52230110D01*
X293857820Y52355049D01*
X293668414Y52451556D01*
X293668413Y52451557D01*
X293668412Y52451557D01*
X293466243Y52517246D01*
X293466241Y52517247D01*
X293466240Y52517247D01*
X293304957Y52542792D01*
X293256287Y52550500D01*
X293043713Y52550500D01*
X292995042Y52542792D01*
X292833760Y52517247D01*
X292733945Y52484815D01*
X292632161Y52451743D01*
X292631585Y52451556D01*
X292442179Y52355049D01*
X292270213Y52230110D01*
X292119890Y52079787D01*
X291994951Y51907821D01*
X291898444Y51718415D01*
X291832753Y51516240D01*
X291827515Y51483168D01*
X291799500Y51306287D01*
X281750499Y51306287D01*
X281750499Y51816936D01*
X281739999Y51919725D01*
X281684814Y52086262D01*
X281592712Y52235584D01*
X281468656Y52359640D01*
X281319334Y52451742D01*
X281152797Y52506927D01*
X281152795Y52506928D01*
X281050010Y52517428D01*
X279749998Y52517428D01*
X279749981Y52517427D01*
X279647203Y52506928D01*
X279647200Y52506927D01*
X279480668Y52451743D01*
X279480663Y52451741D01*
X279331342Y52359639D01*
X279207289Y52235586D01*
X279111821Y52080807D01*
X279059873Y52034083D01*
X278990910Y52022860D01*
X278926828Y52050704D01*
X278918601Y52058223D01*
X278779786Y52197038D01*
X278607820Y52321977D01*
X278418414Y52418484D01*
X278418413Y52418485D01*
X278418412Y52418485D01*
X278216243Y52484174D01*
X278216241Y52484175D01*
X278216240Y52484175D01*
X278054957Y52509720D01*
X278006287Y52517428D01*
X277793713Y52517428D01*
X277745042Y52509720D01*
X277583760Y52484175D01*
X277381585Y52418484D01*
X277192179Y52321977D01*
X277020213Y52197038D01*
X276869894Y52046719D01*
X276869890Y52046714D01*
X276750318Y51882135D01*
X276694989Y51839469D01*
X276625375Y51833490D01*
X276563580Y51866095D01*
X276549682Y51882135D01*
X276430109Y52046714D01*
X276430105Y52046719D01*
X276279786Y52197038D01*
X276107820Y52321977D01*
X275918414Y52418484D01*
X275918413Y52418485D01*
X275918412Y52418485D01*
X275716243Y52484174D01*
X275716241Y52484175D01*
X275716240Y52484175D01*
X275554957Y52509720D01*
X275506287Y52517428D01*
X275293713Y52517428D01*
X275245042Y52509720D01*
X275083760Y52484175D01*
X274881585Y52418484D01*
X274692179Y52321977D01*
X274520213Y52197038D01*
X274369894Y52046719D01*
X274369890Y52046714D01*
X274250318Y51882135D01*
X274194989Y51839469D01*
X274125375Y51833490D01*
X274063580Y51866095D01*
X274049682Y51882135D01*
X273930109Y52046714D01*
X273930105Y52046719D01*
X273779786Y52197038D01*
X273607820Y52321977D01*
X273418414Y52418484D01*
X273418413Y52418485D01*
X273418412Y52418485D01*
X273216243Y52484174D01*
X273216241Y52484175D01*
X273216240Y52484175D01*
X273054957Y52509720D01*
X273006287Y52517428D01*
X272793713Y52517428D01*
X272745042Y52509720D01*
X272583760Y52484175D01*
X272381585Y52418484D01*
X272192179Y52321977D01*
X272020213Y52197038D01*
X271869894Y52046719D01*
X271869890Y52046714D01*
X271750318Y51882135D01*
X271694989Y51839469D01*
X271625375Y51833490D01*
X271563580Y51866095D01*
X271549682Y51882135D01*
X271430109Y52046714D01*
X271430105Y52046719D01*
X271279786Y52197038D01*
X271107820Y52321977D01*
X270918414Y52418484D01*
X270918413Y52418485D01*
X270918412Y52418485D01*
X270716243Y52484174D01*
X270716241Y52484175D01*
X270716240Y52484175D01*
X270554957Y52509720D01*
X270506287Y52517428D01*
X270293713Y52517428D01*
X270245042Y52509720D01*
X270083760Y52484175D01*
X269881585Y52418484D01*
X269692179Y52321977D01*
X269520213Y52197038D01*
X269369894Y52046719D01*
X269369890Y52046714D01*
X269250318Y51882135D01*
X269194989Y51839469D01*
X269125375Y51833490D01*
X269063580Y51866095D01*
X269049682Y51882135D01*
X268930109Y52046714D01*
X268930105Y52046719D01*
X268779786Y52197038D01*
X268607820Y52321977D01*
X268418414Y52418484D01*
X268418413Y52418485D01*
X268418412Y52418485D01*
X268216243Y52484174D01*
X268216241Y52484175D01*
X268216240Y52484175D01*
X268054957Y52509720D01*
X268006287Y52517428D01*
X267793713Y52517428D01*
X267745042Y52509720D01*
X267583760Y52484175D01*
X267381585Y52418484D01*
X267192179Y52321977D01*
X267020213Y52197038D01*
X266869894Y52046719D01*
X266869890Y52046714D01*
X266750318Y51882135D01*
X266694989Y51839469D01*
X266625375Y51833490D01*
X266563580Y51866095D01*
X266549682Y51882135D01*
X266430109Y52046714D01*
X266430105Y52046719D01*
X266279786Y52197038D01*
X266107820Y52321977D01*
X265918414Y52418484D01*
X265918413Y52418485D01*
X265918412Y52418485D01*
X265716243Y52484174D01*
X265716241Y52484175D01*
X265716240Y52484175D01*
X265554957Y52509720D01*
X265506287Y52517428D01*
X265293713Y52517428D01*
X265245042Y52509720D01*
X265083760Y52484175D01*
X264881585Y52418484D01*
X264692179Y52321977D01*
X264520213Y52197038D01*
X264369890Y52046715D01*
X264244951Y51874749D01*
X264148444Y51685343D01*
X264082753Y51483168D01*
X264054738Y51306287D01*
X264049500Y51273215D01*
X258900000Y51273215D01*
X258900000Y54826203D01*
X258919685Y54893242D01*
X258972489Y54938997D01*
X259023795Y54950203D01*
X283034500Y54989500D01*
X311926000Y54989500D01*
X311993039Y54969815D01*
G37*
%TD.AperFunction*%
%TD*%
D20*
X227250000Y51858072D03*
X238000000Y6000000D03*
D21*
X236950000Y28758072D03*
D20*
X227000000Y6000000D03*
X319450000Y42600000D03*
X266000000Y48041928D03*
X254050000Y9500000D03*
X204000000Y22000000D03*
X262000000Y22000000D03*
X319400000Y38125000D03*
X290000000Y16000000D03*
X288000000Y54041928D03*
X203600000Y54200000D03*
X217900000Y21050000D03*
X254050000Y14958072D03*
X208000000Y24000000D03*
D21*
X218150000Y28758072D03*
D20*
X316000000Y20041928D03*
X225800000Y14408072D03*
X216000000Y10000000D03*
D21*
X222850000Y28758072D03*
D20*
X314000000Y22041928D03*
X274000000Y10000000D03*
X284000000Y52041928D03*
X288000000Y52041928D03*
X316000000Y22041928D03*
X284000000Y2000000D03*
D21*
X271575000Y28900000D03*
D20*
X195750000Y33950000D03*
X256050000Y41958072D03*
X250050000Y21958072D03*
X229025000Y18775000D03*
X242050000Y18758072D03*
X294000000Y54041928D03*
X255050000Y29958072D03*
D21*
X304275000Y28900000D03*
X204050000Y28758072D03*
D20*
X253000000Y5000000D03*
X274000000Y3000000D03*
X288000000Y50041928D03*
X296000000Y500000D03*
X289975000Y49850000D03*
X238000000Y2000000D03*
X301975000Y21000000D03*
X298000000Y54041928D03*
X278000000Y2000000D03*
X256050000Y45958072D03*
X276000000Y8000000D03*
X195750000Y29950000D03*
X225800000Y11700000D03*
X314000000Y20041928D03*
X310000000Y22041928D03*
X280000000Y8000000D03*
X198000000Y37900000D03*
X304700000Y21341928D03*
D21*
X213550000Y28758072D03*
D20*
X219500000Y21050000D03*
X200000000Y24000000D03*
X317475000Y27500000D03*
X229250000Y49708072D03*
X318000000Y20041928D03*
X318000000Y22041928D03*
X282000000Y16000000D03*
D21*
X290275000Y28900000D03*
D20*
X223000000Y6000000D03*
X278000000Y8000000D03*
X275500000Y4500000D03*
X234000000Y2000000D03*
X198000000Y29958072D03*
X236750000Y8358072D03*
X256050000Y33958072D03*
X198000000Y22000000D03*
X198000000Y25958072D03*
X263000000Y3000000D03*
X270000000Y6000000D03*
X220000000Y10000000D03*
X250050000Y23958072D03*
X268000000Y3000000D03*
X256050000Y9500000D03*
X240050000Y1958072D03*
X264000000Y50041928D03*
X241250000Y53858072D03*
X236000000Y6000000D03*
X199250000Y28858072D03*
X296000000Y6000000D03*
X312000000Y20041928D03*
X218000000Y8000000D03*
X256050000Y50000000D03*
X202000000Y24000000D03*
X266775000Y22000000D03*
X310000000Y54041928D03*
X234000000Y6000000D03*
X254050000Y21958072D03*
X270775000Y22000000D03*
X233250000Y53858072D03*
X274775000Y22000000D03*
X290000000Y54041928D03*
X195750000Y37950000D03*
X204000000Y24000000D03*
X202000000Y40000000D03*
X261000000Y9500000D03*
X290700000Y12341928D03*
X221000000Y19775000D03*
X199250000Y25858072D03*
X270000000Y3000000D03*
X292200000Y10341928D03*
X286000000Y16000000D03*
X259200000Y9500000D03*
X237250000Y53858072D03*
X202000000Y42000000D03*
D21*
X250850000Y28758072D03*
D20*
X294000000Y19000000D03*
X291000000Y500000D03*
X263000000Y5000000D03*
X296000000Y7500000D03*
X272000000Y10000000D03*
X218000000Y4000000D03*
X198000000Y40000000D03*
X317475000Y30500000D03*
X319400000Y33925000D03*
X195700000Y21700000D03*
X263000000Y9500000D03*
X255050000Y27958072D03*
X306000000Y54041928D03*
X268000000Y500000D03*
D21*
X266975000Y28900000D03*
D20*
X270000000Y8500000D03*
X280000000Y6000000D03*
X272000000Y8500000D03*
X236000000Y2000000D03*
X263000000Y7000000D03*
X261975000Y26000000D03*
X254050000Y23958072D03*
X262000000Y48041928D03*
D21*
X232150000Y28758072D03*
D20*
X266000000Y46041928D03*
X263000000Y1000000D03*
X200000000Y22000000D03*
X286000000Y500000D03*
X254050000Y16958072D03*
D21*
X299575000Y28900000D03*
X241550000Y28758072D03*
X246150000Y28758072D03*
D20*
X270000000Y500000D03*
X290800000Y4500000D03*
D21*
X285675000Y28900000D03*
D20*
X296000000Y4000000D03*
X262000000Y46041928D03*
X249250000Y53858072D03*
X253000000Y7000000D03*
X300000000Y19000000D03*
X252050000Y21958072D03*
X268000000Y6000000D03*
X240050000Y18758072D03*
D21*
X294975000Y28900000D03*
D20*
X261975000Y42000000D03*
X253000000Y1000000D03*
X278000000Y6000000D03*
X232050000Y18758072D03*
X253250000Y53858072D03*
X260000000Y54041928D03*
X252050000Y19958072D03*
X263975000Y42000000D03*
D21*
X276275000Y28900000D03*
D20*
X256050000Y37958072D03*
X274000000Y8500000D03*
D21*
X313575000Y28900000D03*
D20*
X218000000Y12000000D03*
X222000000Y12000000D03*
X291975000Y18000000D03*
X253000000Y3000000D03*
X282000000Y2000000D03*
X298000000Y19000000D03*
X254050000Y19958072D03*
X218000000Y6000000D03*
X242050000Y1958072D03*
X280000000Y2000000D03*
X245250000Y53858072D03*
X195750000Y25950000D03*
X256050000Y54000000D03*
X225000000Y6000000D03*
X302000000Y54041928D03*
X274000000Y6000000D03*
X200000000Y40000000D03*
X310000000Y20041928D03*
X286000000Y14000000D03*
X290000000Y52041928D03*
X319400000Y46050000D03*
X198000000Y42000000D03*
X231250000Y51858072D03*
X216250000Y21050000D03*
X296000000Y2000000D03*
X279299250Y11475878D03*
D21*
X208750000Y28758072D03*
D20*
X263975000Y40000000D03*
D21*
X280975000Y28900000D03*
D20*
X236050000Y18758072D03*
X200000000Y42000000D03*
X198000000Y24000000D03*
X195700000Y42000000D03*
D21*
X227550000Y28758072D03*
D20*
X198000000Y33958072D03*
D21*
X308875000Y28900000D03*
D20*
X218000000Y10000000D03*
X218000000Y2000000D03*
X256050000Y11958072D03*
X261975000Y29000000D03*
X261975000Y40000000D03*
X225000000Y3000000D03*
X216000000Y12000000D03*
X206000000Y24000000D03*
X296000000Y19000000D03*
X202000000Y22000000D03*
D21*
X222400000Y20470572D03*
X222400000Y13070572D03*
X275900000Y19200000D03*
X275900000Y10200000D03*
D20*
X315750000Y16049428D03*
X315750000Y12089428D03*
X264295000Y15600000D03*
X266195000Y15600000D03*
X207200000Y50958072D03*
X209700000Y50958072D03*
X212200000Y50958072D03*
X214700000Y50958072D03*
X217200000Y50958072D03*
X219700000Y50958072D03*
X222200000Y50958072D03*
X235250000Y50958072D03*
X237750000Y50958072D03*
X240250000Y50958072D03*
X242750000Y50958072D03*
X245250000Y50958072D03*
X247750000Y50958072D03*
X250250000Y50958072D03*
X316000000Y51091928D03*
X264295000Y17800000D03*
X266195000Y17800000D03*
X264300000Y11200000D03*
X266200000Y11200000D03*
X265400000Y51041928D03*
X267900000Y51041928D03*
X270400000Y51041928D03*
X272900000Y51041928D03*
X275400000Y51041928D03*
X277900000Y51041928D03*
X280400000Y51041928D03*
X315900000Y4091928D03*
X199000000Y4000000D03*
X199300000Y11942500D03*
X199300000Y15902500D03*
X264300000Y13500000D03*
X266200000Y13500000D03*
X199150000Y50950000D03*
X209545000Y19900000D03*
X211445000Y19900000D03*
X293150000Y51075000D03*
X295650000Y51075000D03*
X298150000Y51075000D03*
X300650000Y51075000D03*
X303150000Y51075000D03*
X305650000Y51075000D03*
X308150000Y51075000D03*
X209545000Y13100000D03*
X211445000Y13100000D03*
X209550000Y15700000D03*
X211450000Y15700000D03*
X209545000Y17800000D03*
X211445000Y17800000D03*
M02*
