%TF.GenerationSoftware,KiCad,Pcbnew,8.0.4*%
%TF.CreationDate,2024-08-06T18:21:12+08:00*%
%TF.ProjectId,LTC6811_ESP32_V3,4c544336-3831-4315-9f45-535033325f56,rev?*%
%TF.SameCoordinates,Original*%
%TF.FileFunction,Legend,Bot*%
%TF.FilePolarity,Positive*%
%FSLAX46Y46*%
G04 Gerber Fmt 4.6, Leading zero omitted, Abs format (unit mm)*
G04 Created by KiCad (PCBNEW 8.0.4) date 2024-08-06 18:21:12*
%MOMM*%
%LPD*%
G01*
G04 APERTURE LIST*
%ADD10C,0.120000*%
%ADD11C,0.010000*%
%ADD12C,0.350000*%
G04 APERTURE END LIST*
D10*
X183100000Y-157141928D02*
X186900000Y-157141928D01*
X186900000Y-158941928D01*
X183100000Y-158941928D01*
X183100000Y-157141928D01*
X183100000Y-149941928D02*
X186900000Y-149941928D01*
X186900000Y-151741928D01*
X183100000Y-151741928D01*
X183100000Y-149941928D01*
X244200000Y-153741928D02*
X248000000Y-153741928D01*
X248000000Y-155541928D01*
X244200000Y-155541928D01*
X244200000Y-153741928D01*
X303300000Y-153541928D02*
X307100000Y-153541928D01*
X307100000Y-155341928D01*
X303300000Y-155341928D01*
X303300000Y-153541928D01*
X123500000Y-156241928D02*
X127300000Y-156241928D01*
X127300000Y-158041928D01*
X123500000Y-158041928D01*
X123500000Y-156241928D01*
X123500000Y-149641928D02*
X127300000Y-149641928D01*
X127300000Y-151441928D01*
X123500000Y-151441928D01*
X123500000Y-149641928D01*
X244200000Y-151041928D02*
X248000000Y-151041928D01*
X248000000Y-152841928D01*
X244200000Y-152841928D01*
X244200000Y-151041928D01*
X183100000Y-154441928D02*
X186900000Y-154441928D01*
X186900000Y-156241928D01*
X183100000Y-156241928D01*
X183100000Y-154441928D01*
X303300000Y-151341928D02*
X307100000Y-151341928D01*
X307100000Y-153141928D01*
X303300000Y-153141928D01*
X303300000Y-151341928D01*
X303300000Y-155641928D02*
X307100000Y-155641928D01*
X307100000Y-157441928D01*
X303300000Y-157441928D01*
X303300000Y-155641928D01*
X123500000Y-151841928D02*
X127300000Y-151841928D01*
X127300000Y-153641928D01*
X123500000Y-153641928D01*
X123500000Y-151841928D01*
X183100000Y-152141928D02*
X186900000Y-152141928D01*
X186900000Y-153941928D01*
X183100000Y-153941928D01*
X183100000Y-152141928D01*
X244100000Y-158141928D02*
X247900000Y-158141928D01*
X247900000Y-159941928D01*
X244100000Y-159941928D01*
X244100000Y-158141928D01*
X303300000Y-157941928D02*
X307100000Y-157941928D01*
X307100000Y-159741928D01*
X303300000Y-159741928D01*
X303300000Y-157941928D01*
X244200000Y-155941928D02*
X248000000Y-155941928D01*
X248000000Y-157741928D01*
X244200000Y-157741928D01*
X244200000Y-155941928D01*
X123500000Y-154041928D02*
X127300000Y-154041928D01*
X127300000Y-155841928D01*
X123500000Y-155841928D01*
X123500000Y-154041928D01*
X85163910Y-132842825D02*
X85049624Y-132880920D01*
X85049624Y-132880920D02*
X85011529Y-132919016D01*
X85011529Y-132919016D02*
X84973433Y-132995206D01*
X84973433Y-132995206D02*
X84973433Y-133109492D01*
X84973433Y-133109492D02*
X85011529Y-133185682D01*
X85011529Y-133185682D02*
X85049624Y-133223778D01*
X85049624Y-133223778D02*
X85125814Y-133261873D01*
X85125814Y-133261873D02*
X85430576Y-133261873D01*
X85430576Y-133261873D02*
X85430576Y-132461873D01*
X85430576Y-132461873D02*
X85163910Y-132461873D01*
X85163910Y-132461873D02*
X85087719Y-132499968D01*
X85087719Y-132499968D02*
X85049624Y-132538063D01*
X85049624Y-132538063D02*
X85011529Y-132614254D01*
X85011529Y-132614254D02*
X85011529Y-132690444D01*
X85011529Y-132690444D02*
X85049624Y-132766635D01*
X85049624Y-132766635D02*
X85087719Y-132804730D01*
X85087719Y-132804730D02*
X85163910Y-132842825D01*
X85163910Y-132842825D02*
X85430576Y-132842825D01*
X84630576Y-133261873D02*
X84630576Y-132461873D01*
X84630576Y-132461873D02*
X84363910Y-133033301D01*
X84363910Y-133033301D02*
X84097243Y-132461873D01*
X84097243Y-132461873D02*
X84097243Y-133261873D01*
X83754386Y-133223778D02*
X83640100Y-133261873D01*
X83640100Y-133261873D02*
X83449624Y-133261873D01*
X83449624Y-133261873D02*
X83373433Y-133223778D01*
X83373433Y-133223778D02*
X83335338Y-133185682D01*
X83335338Y-133185682D02*
X83297243Y-133109492D01*
X83297243Y-133109492D02*
X83297243Y-133033301D01*
X83297243Y-133033301D02*
X83335338Y-132957111D01*
X83335338Y-132957111D02*
X83373433Y-132919016D01*
X83373433Y-132919016D02*
X83449624Y-132880920D01*
X83449624Y-132880920D02*
X83602005Y-132842825D01*
X83602005Y-132842825D02*
X83678195Y-132804730D01*
X83678195Y-132804730D02*
X83716290Y-132766635D01*
X83716290Y-132766635D02*
X83754386Y-132690444D01*
X83754386Y-132690444D02*
X83754386Y-132614254D01*
X83754386Y-132614254D02*
X83716290Y-132538063D01*
X83716290Y-132538063D02*
X83678195Y-132499968D01*
X83678195Y-132499968D02*
X83602005Y-132461873D01*
X83602005Y-132461873D02*
X83411528Y-132461873D01*
X83411528Y-132461873D02*
X83297243Y-132499968D01*
X83144862Y-133338063D02*
X82535338Y-133338063D01*
X82344861Y-133261873D02*
X82344861Y-132461873D01*
X82344861Y-132461873D02*
X82078195Y-133033301D01*
X82078195Y-133033301D02*
X81811528Y-132461873D01*
X81811528Y-132461873D02*
X81811528Y-133261873D01*
X81087718Y-133261873D02*
X81087718Y-132842825D01*
X81087718Y-132842825D02*
X81125813Y-132766635D01*
X81125813Y-132766635D02*
X81202004Y-132728539D01*
X81202004Y-132728539D02*
X81354385Y-132728539D01*
X81354385Y-132728539D02*
X81430575Y-132766635D01*
X81087718Y-133223778D02*
X81163909Y-133261873D01*
X81163909Y-133261873D02*
X81354385Y-133261873D01*
X81354385Y-133261873D02*
X81430575Y-133223778D01*
X81430575Y-133223778D02*
X81468671Y-133147587D01*
X81468671Y-133147587D02*
X81468671Y-133071397D01*
X81468671Y-133071397D02*
X81430575Y-132995206D01*
X81430575Y-132995206D02*
X81354385Y-132957111D01*
X81354385Y-132957111D02*
X81163909Y-132957111D01*
X81163909Y-132957111D02*
X81087718Y-132919016D01*
X80744861Y-133223778D02*
X80668670Y-133261873D01*
X80668670Y-133261873D02*
X80516289Y-133261873D01*
X80516289Y-133261873D02*
X80440099Y-133223778D01*
X80440099Y-133223778D02*
X80402003Y-133147587D01*
X80402003Y-133147587D02*
X80402003Y-133109492D01*
X80402003Y-133109492D02*
X80440099Y-133033301D01*
X80440099Y-133033301D02*
X80516289Y-132995206D01*
X80516289Y-132995206D02*
X80630575Y-132995206D01*
X80630575Y-132995206D02*
X80706765Y-132957111D01*
X80706765Y-132957111D02*
X80744861Y-132880920D01*
X80744861Y-132880920D02*
X80744861Y-132842825D01*
X80744861Y-132842825D02*
X80706765Y-132766635D01*
X80706765Y-132766635D02*
X80630575Y-132728539D01*
X80630575Y-132728539D02*
X80516289Y-132728539D01*
X80516289Y-132728539D02*
X80440099Y-132766635D01*
X80173432Y-132728539D02*
X79868670Y-132728539D01*
X80059146Y-132461873D02*
X80059146Y-133147587D01*
X80059146Y-133147587D02*
X80021051Y-133223778D01*
X80021051Y-133223778D02*
X79944861Y-133261873D01*
X79944861Y-133261873D02*
X79868670Y-133261873D01*
X79297241Y-133223778D02*
X79373432Y-133261873D01*
X79373432Y-133261873D02*
X79525813Y-133261873D01*
X79525813Y-133261873D02*
X79602003Y-133223778D01*
X79602003Y-133223778D02*
X79640099Y-133147587D01*
X79640099Y-133147587D02*
X79640099Y-132842825D01*
X79640099Y-132842825D02*
X79602003Y-132766635D01*
X79602003Y-132766635D02*
X79525813Y-132728539D01*
X79525813Y-132728539D02*
X79373432Y-132728539D01*
X79373432Y-132728539D02*
X79297241Y-132766635D01*
X79297241Y-132766635D02*
X79259146Y-132842825D01*
X79259146Y-132842825D02*
X79259146Y-132919016D01*
X79259146Y-132919016D02*
X79640099Y-132995206D01*
X78916289Y-133261873D02*
X78916289Y-132728539D01*
X78916289Y-132880920D02*
X78878194Y-132804730D01*
X78878194Y-132804730D02*
X78840099Y-132766635D01*
X78840099Y-132766635D02*
X78763908Y-132728539D01*
X78763908Y-132728539D02*
X78687718Y-132728539D01*
X85049624Y-134549828D02*
X85430576Y-134549828D01*
X85430576Y-134549828D02*
X85430576Y-133749828D01*
X84897243Y-133749828D02*
X84440100Y-133749828D01*
X84668672Y-134549828D02*
X84668672Y-133749828D01*
X83716290Y-134473637D02*
X83754386Y-134511733D01*
X83754386Y-134511733D02*
X83868671Y-134549828D01*
X83868671Y-134549828D02*
X83944862Y-134549828D01*
X83944862Y-134549828D02*
X84059148Y-134511733D01*
X84059148Y-134511733D02*
X84135338Y-134435542D01*
X84135338Y-134435542D02*
X84173433Y-134359352D01*
X84173433Y-134359352D02*
X84211529Y-134206971D01*
X84211529Y-134206971D02*
X84211529Y-134092685D01*
X84211529Y-134092685D02*
X84173433Y-133940304D01*
X84173433Y-133940304D02*
X84135338Y-133864113D01*
X84135338Y-133864113D02*
X84059148Y-133787923D01*
X84059148Y-133787923D02*
X83944862Y-133749828D01*
X83944862Y-133749828D02*
X83868671Y-133749828D01*
X83868671Y-133749828D02*
X83754386Y-133787923D01*
X83754386Y-133787923D02*
X83716290Y-133826018D01*
X83030576Y-133749828D02*
X83182957Y-133749828D01*
X83182957Y-133749828D02*
X83259148Y-133787923D01*
X83259148Y-133787923D02*
X83297243Y-133826018D01*
X83297243Y-133826018D02*
X83373433Y-133940304D01*
X83373433Y-133940304D02*
X83411529Y-134092685D01*
X83411529Y-134092685D02*
X83411529Y-134397447D01*
X83411529Y-134397447D02*
X83373433Y-134473637D01*
X83373433Y-134473637D02*
X83335338Y-134511733D01*
X83335338Y-134511733D02*
X83259148Y-134549828D01*
X83259148Y-134549828D02*
X83106767Y-134549828D01*
X83106767Y-134549828D02*
X83030576Y-134511733D01*
X83030576Y-134511733D02*
X82992481Y-134473637D01*
X82992481Y-134473637D02*
X82954386Y-134397447D01*
X82954386Y-134397447D02*
X82954386Y-134206971D01*
X82954386Y-134206971D02*
X82992481Y-134130780D01*
X82992481Y-134130780D02*
X83030576Y-134092685D01*
X83030576Y-134092685D02*
X83106767Y-134054590D01*
X83106767Y-134054590D02*
X83259148Y-134054590D01*
X83259148Y-134054590D02*
X83335338Y-134092685D01*
X83335338Y-134092685D02*
X83373433Y-134130780D01*
X83373433Y-134130780D02*
X83411529Y-134206971D01*
X82497243Y-134092685D02*
X82573433Y-134054590D01*
X82573433Y-134054590D02*
X82611528Y-134016494D01*
X82611528Y-134016494D02*
X82649624Y-133940304D01*
X82649624Y-133940304D02*
X82649624Y-133902209D01*
X82649624Y-133902209D02*
X82611528Y-133826018D01*
X82611528Y-133826018D02*
X82573433Y-133787923D01*
X82573433Y-133787923D02*
X82497243Y-133749828D01*
X82497243Y-133749828D02*
X82344862Y-133749828D01*
X82344862Y-133749828D02*
X82268671Y-133787923D01*
X82268671Y-133787923D02*
X82230576Y-133826018D01*
X82230576Y-133826018D02*
X82192481Y-133902209D01*
X82192481Y-133902209D02*
X82192481Y-133940304D01*
X82192481Y-133940304D02*
X82230576Y-134016494D01*
X82230576Y-134016494D02*
X82268671Y-134054590D01*
X82268671Y-134054590D02*
X82344862Y-134092685D01*
X82344862Y-134092685D02*
X82497243Y-134092685D01*
X82497243Y-134092685D02*
X82573433Y-134130780D01*
X82573433Y-134130780D02*
X82611528Y-134168875D01*
X82611528Y-134168875D02*
X82649624Y-134245066D01*
X82649624Y-134245066D02*
X82649624Y-134397447D01*
X82649624Y-134397447D02*
X82611528Y-134473637D01*
X82611528Y-134473637D02*
X82573433Y-134511733D01*
X82573433Y-134511733D02*
X82497243Y-134549828D01*
X82497243Y-134549828D02*
X82344862Y-134549828D01*
X82344862Y-134549828D02*
X82268671Y-134511733D01*
X82268671Y-134511733D02*
X82230576Y-134473637D01*
X82230576Y-134473637D02*
X82192481Y-134397447D01*
X82192481Y-134397447D02*
X82192481Y-134245066D01*
X82192481Y-134245066D02*
X82230576Y-134168875D01*
X82230576Y-134168875D02*
X82268671Y-134130780D01*
X82268671Y-134130780D02*
X82344862Y-134092685D01*
X81430576Y-134549828D02*
X81887719Y-134549828D01*
X81659147Y-134549828D02*
X81659147Y-133749828D01*
X81659147Y-133749828D02*
X81735338Y-133864113D01*
X81735338Y-133864113D02*
X81811528Y-133940304D01*
X81811528Y-133940304D02*
X81887719Y-133978399D01*
X80668671Y-134549828D02*
X81125814Y-134549828D01*
X80897242Y-134549828D02*
X80897242Y-133749828D01*
X80897242Y-133749828D02*
X80973433Y-133864113D01*
X80973433Y-133864113D02*
X81049623Y-133940304D01*
X81049623Y-133940304D02*
X81125814Y-133978399D01*
X80516290Y-134626018D02*
X79906766Y-134626018D01*
X79716289Y-134130780D02*
X79449623Y-134130780D01*
X79335337Y-134549828D02*
X79716289Y-134549828D01*
X79716289Y-134549828D02*
X79716289Y-133749828D01*
X79716289Y-133749828D02*
X79335337Y-133749828D01*
X79030575Y-134511733D02*
X78916289Y-134549828D01*
X78916289Y-134549828D02*
X78725813Y-134549828D01*
X78725813Y-134549828D02*
X78649622Y-134511733D01*
X78649622Y-134511733D02*
X78611527Y-134473637D01*
X78611527Y-134473637D02*
X78573432Y-134397447D01*
X78573432Y-134397447D02*
X78573432Y-134321256D01*
X78573432Y-134321256D02*
X78611527Y-134245066D01*
X78611527Y-134245066D02*
X78649622Y-134206971D01*
X78649622Y-134206971D02*
X78725813Y-134168875D01*
X78725813Y-134168875D02*
X78878194Y-134130780D01*
X78878194Y-134130780D02*
X78954384Y-134092685D01*
X78954384Y-134092685D02*
X78992479Y-134054590D01*
X78992479Y-134054590D02*
X79030575Y-133978399D01*
X79030575Y-133978399D02*
X79030575Y-133902209D01*
X79030575Y-133902209D02*
X78992479Y-133826018D01*
X78992479Y-133826018D02*
X78954384Y-133787923D01*
X78954384Y-133787923D02*
X78878194Y-133749828D01*
X78878194Y-133749828D02*
X78687717Y-133749828D01*
X78687717Y-133749828D02*
X78573432Y-133787923D01*
X78230574Y-134549828D02*
X78230574Y-133749828D01*
X78230574Y-133749828D02*
X77925812Y-133749828D01*
X77925812Y-133749828D02*
X77849622Y-133787923D01*
X77849622Y-133787923D02*
X77811527Y-133826018D01*
X77811527Y-133826018D02*
X77773431Y-133902209D01*
X77773431Y-133902209D02*
X77773431Y-134016494D01*
X77773431Y-134016494D02*
X77811527Y-134092685D01*
X77811527Y-134092685D02*
X77849622Y-134130780D01*
X77849622Y-134130780D02*
X77925812Y-134168875D01*
X77925812Y-134168875D02*
X78230574Y-134168875D01*
X77506765Y-133749828D02*
X77011527Y-133749828D01*
X77011527Y-133749828D02*
X77278193Y-134054590D01*
X77278193Y-134054590D02*
X77163908Y-134054590D01*
X77163908Y-134054590D02*
X77087717Y-134092685D01*
X77087717Y-134092685D02*
X77049622Y-134130780D01*
X77049622Y-134130780D02*
X77011527Y-134206971D01*
X77011527Y-134206971D02*
X77011527Y-134397447D01*
X77011527Y-134397447D02*
X77049622Y-134473637D01*
X77049622Y-134473637D02*
X77087717Y-134511733D01*
X77087717Y-134511733D02*
X77163908Y-134549828D01*
X77163908Y-134549828D02*
X77392479Y-134549828D01*
X77392479Y-134549828D02*
X77468670Y-134511733D01*
X77468670Y-134511733D02*
X77506765Y-134473637D01*
X76706765Y-133826018D02*
X76668669Y-133787923D01*
X76668669Y-133787923D02*
X76592479Y-133749828D01*
X76592479Y-133749828D02*
X76402003Y-133749828D01*
X76402003Y-133749828D02*
X76325812Y-133787923D01*
X76325812Y-133787923D02*
X76287717Y-133826018D01*
X76287717Y-133826018D02*
X76249622Y-133902209D01*
X76249622Y-133902209D02*
X76249622Y-133978399D01*
X76249622Y-133978399D02*
X76287717Y-134092685D01*
X76287717Y-134092685D02*
X76744860Y-134549828D01*
X76744860Y-134549828D02*
X76249622Y-134549828D01*
X76097241Y-134626018D02*
X75487717Y-134626018D01*
X75411526Y-133749828D02*
X75144859Y-134549828D01*
X75144859Y-134549828D02*
X74878193Y-133749828D01*
X74687717Y-133749828D02*
X74192479Y-133749828D01*
X74192479Y-133749828D02*
X74459145Y-134054590D01*
X74459145Y-134054590D02*
X74344860Y-134054590D01*
X74344860Y-134054590D02*
X74268669Y-134092685D01*
X74268669Y-134092685D02*
X74230574Y-134130780D01*
X74230574Y-134130780D02*
X74192479Y-134206971D01*
X74192479Y-134206971D02*
X74192479Y-134397447D01*
X74192479Y-134397447D02*
X74230574Y-134473637D01*
X74230574Y-134473637D02*
X74268669Y-134511733D01*
X74268669Y-134511733D02*
X74344860Y-134549828D01*
X74344860Y-134549828D02*
X74573431Y-134549828D01*
X74573431Y-134549828D02*
X74649622Y-134511733D01*
X74649622Y-134511733D02*
X74687717Y-134473637D01*
X85468672Y-135113973D02*
X85430576Y-135075878D01*
X85430576Y-135075878D02*
X85354386Y-135037783D01*
X85354386Y-135037783D02*
X85163910Y-135037783D01*
X85163910Y-135037783D02*
X85087719Y-135075878D01*
X85087719Y-135075878D02*
X85049624Y-135113973D01*
X85049624Y-135113973D02*
X85011529Y-135190164D01*
X85011529Y-135190164D02*
X85011529Y-135266354D01*
X85011529Y-135266354D02*
X85049624Y-135380640D01*
X85049624Y-135380640D02*
X85506767Y-135837783D01*
X85506767Y-135837783D02*
X85011529Y-135837783D01*
X84516290Y-135037783D02*
X84440100Y-135037783D01*
X84440100Y-135037783D02*
X84363909Y-135075878D01*
X84363909Y-135075878D02*
X84325814Y-135113973D01*
X84325814Y-135113973D02*
X84287719Y-135190164D01*
X84287719Y-135190164D02*
X84249624Y-135342545D01*
X84249624Y-135342545D02*
X84249624Y-135533021D01*
X84249624Y-135533021D02*
X84287719Y-135685402D01*
X84287719Y-135685402D02*
X84325814Y-135761592D01*
X84325814Y-135761592D02*
X84363909Y-135799688D01*
X84363909Y-135799688D02*
X84440100Y-135837783D01*
X84440100Y-135837783D02*
X84516290Y-135837783D01*
X84516290Y-135837783D02*
X84592481Y-135799688D01*
X84592481Y-135799688D02*
X84630576Y-135761592D01*
X84630576Y-135761592D02*
X84668671Y-135685402D01*
X84668671Y-135685402D02*
X84706767Y-135533021D01*
X84706767Y-135533021D02*
X84706767Y-135342545D01*
X84706767Y-135342545D02*
X84668671Y-135190164D01*
X84668671Y-135190164D02*
X84630576Y-135113973D01*
X84630576Y-135113973D02*
X84592481Y-135075878D01*
X84592481Y-135075878D02*
X84516290Y-135037783D01*
X83944862Y-135113973D02*
X83906766Y-135075878D01*
X83906766Y-135075878D02*
X83830576Y-135037783D01*
X83830576Y-135037783D02*
X83640100Y-135037783D01*
X83640100Y-135037783D02*
X83563909Y-135075878D01*
X83563909Y-135075878D02*
X83525814Y-135113973D01*
X83525814Y-135113973D02*
X83487719Y-135190164D01*
X83487719Y-135190164D02*
X83487719Y-135266354D01*
X83487719Y-135266354D02*
X83525814Y-135380640D01*
X83525814Y-135380640D02*
X83982957Y-135837783D01*
X83982957Y-135837783D02*
X83487719Y-135837783D01*
X82802004Y-135304449D02*
X82802004Y-135837783D01*
X82992480Y-134999688D02*
X83182957Y-135571116D01*
X83182957Y-135571116D02*
X82687718Y-135571116D01*
X81811528Y-134999688D02*
X82497242Y-136028259D01*
X81392480Y-135037783D02*
X81316290Y-135037783D01*
X81316290Y-135037783D02*
X81240099Y-135075878D01*
X81240099Y-135075878D02*
X81202004Y-135113973D01*
X81202004Y-135113973D02*
X81163909Y-135190164D01*
X81163909Y-135190164D02*
X81125814Y-135342545D01*
X81125814Y-135342545D02*
X81125814Y-135533021D01*
X81125814Y-135533021D02*
X81163909Y-135685402D01*
X81163909Y-135685402D02*
X81202004Y-135761592D01*
X81202004Y-135761592D02*
X81240099Y-135799688D01*
X81240099Y-135799688D02*
X81316290Y-135837783D01*
X81316290Y-135837783D02*
X81392480Y-135837783D01*
X81392480Y-135837783D02*
X81468671Y-135799688D01*
X81468671Y-135799688D02*
X81506766Y-135761592D01*
X81506766Y-135761592D02*
X81544861Y-135685402D01*
X81544861Y-135685402D02*
X81582957Y-135533021D01*
X81582957Y-135533021D02*
X81582957Y-135342545D01*
X81582957Y-135342545D02*
X81544861Y-135190164D01*
X81544861Y-135190164D02*
X81506766Y-135113973D01*
X81506766Y-135113973D02*
X81468671Y-135075878D01*
X81468671Y-135075878D02*
X81392480Y-135037783D01*
X80668671Y-135380640D02*
X80744861Y-135342545D01*
X80744861Y-135342545D02*
X80782956Y-135304449D01*
X80782956Y-135304449D02*
X80821052Y-135228259D01*
X80821052Y-135228259D02*
X80821052Y-135190164D01*
X80821052Y-135190164D02*
X80782956Y-135113973D01*
X80782956Y-135113973D02*
X80744861Y-135075878D01*
X80744861Y-135075878D02*
X80668671Y-135037783D01*
X80668671Y-135037783D02*
X80516290Y-135037783D01*
X80516290Y-135037783D02*
X80440099Y-135075878D01*
X80440099Y-135075878D02*
X80402004Y-135113973D01*
X80402004Y-135113973D02*
X80363909Y-135190164D01*
X80363909Y-135190164D02*
X80363909Y-135228259D01*
X80363909Y-135228259D02*
X80402004Y-135304449D01*
X80402004Y-135304449D02*
X80440099Y-135342545D01*
X80440099Y-135342545D02*
X80516290Y-135380640D01*
X80516290Y-135380640D02*
X80668671Y-135380640D01*
X80668671Y-135380640D02*
X80744861Y-135418735D01*
X80744861Y-135418735D02*
X80782956Y-135456830D01*
X80782956Y-135456830D02*
X80821052Y-135533021D01*
X80821052Y-135533021D02*
X80821052Y-135685402D01*
X80821052Y-135685402D02*
X80782956Y-135761592D01*
X80782956Y-135761592D02*
X80744861Y-135799688D01*
X80744861Y-135799688D02*
X80668671Y-135837783D01*
X80668671Y-135837783D02*
X80516290Y-135837783D01*
X80516290Y-135837783D02*
X80440099Y-135799688D01*
X80440099Y-135799688D02*
X80402004Y-135761592D01*
X80402004Y-135761592D02*
X80363909Y-135685402D01*
X80363909Y-135685402D02*
X80363909Y-135533021D01*
X80363909Y-135533021D02*
X80402004Y-135456830D01*
X80402004Y-135456830D02*
X80440099Y-135418735D01*
X80440099Y-135418735D02*
X80516290Y-135380640D01*
X79449623Y-134999688D02*
X80135337Y-136028259D01*
X79030575Y-135037783D02*
X78954385Y-135037783D01*
X78954385Y-135037783D02*
X78878194Y-135075878D01*
X78878194Y-135075878D02*
X78840099Y-135113973D01*
X78840099Y-135113973D02*
X78802004Y-135190164D01*
X78802004Y-135190164D02*
X78763909Y-135342545D01*
X78763909Y-135342545D02*
X78763909Y-135533021D01*
X78763909Y-135533021D02*
X78802004Y-135685402D01*
X78802004Y-135685402D02*
X78840099Y-135761592D01*
X78840099Y-135761592D02*
X78878194Y-135799688D01*
X78878194Y-135799688D02*
X78954385Y-135837783D01*
X78954385Y-135837783D02*
X79030575Y-135837783D01*
X79030575Y-135837783D02*
X79106766Y-135799688D01*
X79106766Y-135799688D02*
X79144861Y-135761592D01*
X79144861Y-135761592D02*
X79182956Y-135685402D01*
X79182956Y-135685402D02*
X79221052Y-135533021D01*
X79221052Y-135533021D02*
X79221052Y-135342545D01*
X79221052Y-135342545D02*
X79182956Y-135190164D01*
X79182956Y-135190164D02*
X79144861Y-135113973D01*
X79144861Y-135113973D02*
X79106766Y-135075878D01*
X79106766Y-135075878D02*
X79030575Y-135037783D01*
X78078194Y-135037783D02*
X78230575Y-135037783D01*
X78230575Y-135037783D02*
X78306766Y-135075878D01*
X78306766Y-135075878D02*
X78344861Y-135113973D01*
X78344861Y-135113973D02*
X78421051Y-135228259D01*
X78421051Y-135228259D02*
X78459147Y-135380640D01*
X78459147Y-135380640D02*
X78459147Y-135685402D01*
X78459147Y-135685402D02*
X78421051Y-135761592D01*
X78421051Y-135761592D02*
X78382956Y-135799688D01*
X78382956Y-135799688D02*
X78306766Y-135837783D01*
X78306766Y-135837783D02*
X78154385Y-135837783D01*
X78154385Y-135837783D02*
X78078194Y-135799688D01*
X78078194Y-135799688D02*
X78040099Y-135761592D01*
X78040099Y-135761592D02*
X78002004Y-135685402D01*
X78002004Y-135685402D02*
X78002004Y-135494926D01*
X78002004Y-135494926D02*
X78040099Y-135418735D01*
X78040099Y-135418735D02*
X78078194Y-135380640D01*
X78078194Y-135380640D02*
X78154385Y-135342545D01*
X78154385Y-135342545D02*
X78306766Y-135342545D01*
X78306766Y-135342545D02*
X78382956Y-135380640D01*
X78382956Y-135380640D02*
X78421051Y-135418735D01*
X78421051Y-135418735D02*
X78459147Y-135494926D01*
D11*
%TO.C,LOGO2*%
X82397370Y-129402595D02*
X82412067Y-129423755D01*
X82454862Y-129485698D01*
X82494759Y-129543924D01*
X82530621Y-129596740D01*
X82561311Y-129642456D01*
X82585690Y-129679381D01*
X82602621Y-129705824D01*
X82610967Y-129720095D01*
X82616447Y-129733478D01*
X82625586Y-129774942D01*
X82626565Y-129818646D01*
X82618904Y-129856339D01*
X82618078Y-129857946D01*
X82609359Y-129871893D01*
X82591793Y-129898684D01*
X82565951Y-129937480D01*
X82532403Y-129987440D01*
X82491718Y-130047725D01*
X82444467Y-130117496D01*
X82391219Y-130195911D01*
X82332546Y-130282132D01*
X82269016Y-130375318D01*
X82201200Y-130474630D01*
X82129668Y-130579228D01*
X82054990Y-130688273D01*
X81977736Y-130800924D01*
X81950912Y-130840002D01*
X81874659Y-130950999D01*
X81801197Y-131057796D01*
X81731091Y-131159578D01*
X81664904Y-131255532D01*
X81603203Y-131344843D01*
X81546551Y-131426697D01*
X81495512Y-131500279D01*
X81450653Y-131564775D01*
X81412537Y-131619370D01*
X81381729Y-131663251D01*
X81358793Y-131695603D01*
X81344295Y-131715611D01*
X81338798Y-131722461D01*
X81338591Y-131721824D01*
X81337853Y-131709017D01*
X81337140Y-131680452D01*
X81336456Y-131637054D01*
X81335808Y-131579743D01*
X81335199Y-131509443D01*
X81334634Y-131427077D01*
X81334117Y-131333567D01*
X81333655Y-131229836D01*
X81333250Y-131116806D01*
X81332909Y-130995399D01*
X81332635Y-130866540D01*
X81332434Y-130731149D01*
X81332309Y-130590151D01*
X81332267Y-130444467D01*
X81332267Y-129166472D01*
X81352695Y-129142717D01*
X81373123Y-129118961D01*
X82200100Y-129118961D01*
X82397370Y-129402595D01*
G36*
X82397370Y-129402595D02*
G01*
X82412067Y-129423755D01*
X82454862Y-129485698D01*
X82494759Y-129543924D01*
X82530621Y-129596740D01*
X82561311Y-129642456D01*
X82585690Y-129679381D01*
X82602621Y-129705824D01*
X82610967Y-129720095D01*
X82616447Y-129733478D01*
X82625586Y-129774942D01*
X82626565Y-129818646D01*
X82618904Y-129856339D01*
X82618078Y-129857946D01*
X82609359Y-129871893D01*
X82591793Y-129898684D01*
X82565951Y-129937480D01*
X82532403Y-129987440D01*
X82491718Y-130047725D01*
X82444467Y-130117496D01*
X82391219Y-130195911D01*
X82332546Y-130282132D01*
X82269016Y-130375318D01*
X82201200Y-130474630D01*
X82129668Y-130579228D01*
X82054990Y-130688273D01*
X81977736Y-130800924D01*
X81950912Y-130840002D01*
X81874659Y-130950999D01*
X81801197Y-131057796D01*
X81731091Y-131159578D01*
X81664904Y-131255532D01*
X81603203Y-131344843D01*
X81546551Y-131426697D01*
X81495512Y-131500279D01*
X81450653Y-131564775D01*
X81412537Y-131619370D01*
X81381729Y-131663251D01*
X81358793Y-131695603D01*
X81344295Y-131715611D01*
X81338798Y-131722461D01*
X81338591Y-131721824D01*
X81337853Y-131709017D01*
X81337140Y-131680452D01*
X81336456Y-131637054D01*
X81335808Y-131579743D01*
X81335199Y-131509443D01*
X81334634Y-131427077D01*
X81334117Y-131333567D01*
X81333655Y-131229836D01*
X81333250Y-131116806D01*
X81332909Y-130995399D01*
X81332635Y-130866540D01*
X81332434Y-130731149D01*
X81332309Y-130590151D01*
X81332267Y-130444467D01*
X81332267Y-129166472D01*
X81352695Y-129142717D01*
X81373123Y-129118961D01*
X82200100Y-129118961D01*
X82397370Y-129402595D01*
G37*
X81238971Y-127726107D02*
X81241046Y-127728230D01*
X81252003Y-127742372D01*
X81271194Y-127768585D01*
X81297727Y-127805582D01*
X81330711Y-127852074D01*
X81369255Y-127906774D01*
X81412466Y-127968393D01*
X81459454Y-128035643D01*
X81509327Y-128107235D01*
X81561193Y-128181881D01*
X81614162Y-128258293D01*
X81667341Y-128335183D01*
X81719839Y-128411263D01*
X81770765Y-128485244D01*
X81819226Y-128555837D01*
X81864333Y-128621756D01*
X81905193Y-128681711D01*
X81940914Y-128734414D01*
X81970606Y-128778577D01*
X81993377Y-128812911D01*
X82008335Y-128836129D01*
X82014589Y-128846943D01*
X82014785Y-128848463D01*
X82013046Y-128850579D01*
X82007975Y-128852438D01*
X81998601Y-128854058D01*
X81983952Y-128855453D01*
X81963056Y-128856642D01*
X81934942Y-128857639D01*
X81898638Y-128858462D01*
X81853173Y-128859127D01*
X81797576Y-128859650D01*
X81730874Y-128860047D01*
X81652097Y-128860336D01*
X81560272Y-128860532D01*
X81454429Y-128860652D01*
X81333596Y-128860712D01*
X81196800Y-128860728D01*
X81138578Y-128860725D01*
X81008247Y-128860689D01*
X80893487Y-128860600D01*
X80793330Y-128860440D01*
X80706812Y-128860196D01*
X80632965Y-128859851D01*
X80570824Y-128859388D01*
X80519421Y-128858793D01*
X80477791Y-128858049D01*
X80444968Y-128857142D01*
X80419985Y-128856054D01*
X80401876Y-128854770D01*
X80389674Y-128853274D01*
X80382414Y-128851552D01*
X80379128Y-128849586D01*
X80378851Y-128847360D01*
X80380250Y-128844651D01*
X80390123Y-128828870D01*
X80408415Y-128801170D01*
X80434227Y-128762844D01*
X80466655Y-128715185D01*
X80504800Y-128659487D01*
X80547760Y-128597044D01*
X80594634Y-128529147D01*
X80644521Y-128457092D01*
X80696519Y-128382170D01*
X80749728Y-128305675D01*
X80803247Y-128228901D01*
X80856173Y-128153141D01*
X80907607Y-128079688D01*
X80956647Y-128009836D01*
X81002391Y-127944877D01*
X81043939Y-127886105D01*
X81080389Y-127834814D01*
X81110841Y-127792296D01*
X81134393Y-127759846D01*
X81150144Y-127738755D01*
X81157193Y-127730318D01*
X81177748Y-127721202D01*
X81209730Y-127718339D01*
X81238971Y-127726107D01*
G36*
X81238971Y-127726107D02*
G01*
X81241046Y-127728230D01*
X81252003Y-127742372D01*
X81271194Y-127768585D01*
X81297727Y-127805582D01*
X81330711Y-127852074D01*
X81369255Y-127906774D01*
X81412466Y-127968393D01*
X81459454Y-128035643D01*
X81509327Y-128107235D01*
X81561193Y-128181881D01*
X81614162Y-128258293D01*
X81667341Y-128335183D01*
X81719839Y-128411263D01*
X81770765Y-128485244D01*
X81819226Y-128555837D01*
X81864333Y-128621756D01*
X81905193Y-128681711D01*
X81940914Y-128734414D01*
X81970606Y-128778577D01*
X81993377Y-128812911D01*
X82008335Y-128836129D01*
X82014589Y-128846943D01*
X82014785Y-128848463D01*
X82013046Y-128850579D01*
X82007975Y-128852438D01*
X81998601Y-128854058D01*
X81983952Y-128855453D01*
X81963056Y-128856642D01*
X81934942Y-128857639D01*
X81898638Y-128858462D01*
X81853173Y-128859127D01*
X81797576Y-128859650D01*
X81730874Y-128860047D01*
X81652097Y-128860336D01*
X81560272Y-128860532D01*
X81454429Y-128860652D01*
X81333596Y-128860712D01*
X81196800Y-128860728D01*
X81138578Y-128860725D01*
X81008247Y-128860689D01*
X80893487Y-128860600D01*
X80793330Y-128860440D01*
X80706812Y-128860196D01*
X80632965Y-128859851D01*
X80570824Y-128859388D01*
X80519421Y-128858793D01*
X80477791Y-128858049D01*
X80444968Y-128857142D01*
X80419985Y-128856054D01*
X80401876Y-128854770D01*
X80389674Y-128853274D01*
X80382414Y-128851552D01*
X80379128Y-128849586D01*
X80378851Y-128847360D01*
X80380250Y-128844651D01*
X80390123Y-128828870D01*
X80408415Y-128801170D01*
X80434227Y-128762844D01*
X80466655Y-128715185D01*
X80504800Y-128659487D01*
X80547760Y-128597044D01*
X80594634Y-128529147D01*
X80644521Y-128457092D01*
X80696519Y-128382170D01*
X80749728Y-128305675D01*
X80803247Y-128228901D01*
X80856173Y-128153141D01*
X80907607Y-128079688D01*
X80956647Y-128009836D01*
X81002391Y-127944877D01*
X81043939Y-127886105D01*
X81080389Y-127834814D01*
X81110841Y-127792296D01*
X81134393Y-127759846D01*
X81150144Y-127738755D01*
X81157193Y-127730318D01*
X81177748Y-127721202D01*
X81209730Y-127718339D01*
X81238971Y-127726107D01*
G37*
X80634853Y-129123224D02*
X80727311Y-129123534D01*
X80808914Y-129124168D01*
X80878651Y-129125104D01*
X80935507Y-129126323D01*
X80978471Y-129127806D01*
X81006528Y-129129532D01*
X81018666Y-129131482D01*
X81018970Y-129131649D01*
X81032512Y-129145447D01*
X81043510Y-129166613D01*
X81044483Y-129172157D01*
X81045796Y-129189981D01*
X81046986Y-129219737D01*
X81048058Y-129261841D01*
X81049012Y-129316709D01*
X81049854Y-129384760D01*
X81050585Y-129466409D01*
X81051208Y-129562073D01*
X81051728Y-129672170D01*
X81052146Y-129797115D01*
X81052466Y-129937327D01*
X81052691Y-130093221D01*
X81052823Y-130265215D01*
X81052867Y-130453725D01*
X81052866Y-130479450D01*
X81052809Y-130623345D01*
X81052673Y-130762384D01*
X81052462Y-130895637D01*
X81052180Y-131022176D01*
X81051832Y-131141071D01*
X81051424Y-131251394D01*
X81050959Y-131352215D01*
X81050442Y-131442605D01*
X81049878Y-131521637D01*
X81049272Y-131588379D01*
X81048628Y-131641905D01*
X81047951Y-131681284D01*
X81047246Y-131705588D01*
X81046517Y-131713887D01*
X81046460Y-131713877D01*
X81040092Y-131706517D01*
X81024947Y-131686151D01*
X81001701Y-131653773D01*
X80971032Y-131610372D01*
X80933617Y-131556941D01*
X80890132Y-131494472D01*
X80841254Y-131423955D01*
X80787660Y-131346383D01*
X80730026Y-131262746D01*
X80669030Y-131174038D01*
X80605349Y-131081248D01*
X80539658Y-130985370D01*
X80472636Y-130887393D01*
X80404958Y-130788311D01*
X80337302Y-130689114D01*
X80270344Y-130590794D01*
X80204761Y-130494343D01*
X80141230Y-130400752D01*
X80080428Y-130311013D01*
X80023032Y-130226117D01*
X79969718Y-130147056D01*
X79921164Y-130074822D01*
X79878045Y-130010406D01*
X79841040Y-129954799D01*
X79810824Y-129908994D01*
X79788074Y-129873982D01*
X79773468Y-129850754D01*
X79767682Y-129840302D01*
X79761493Y-129807477D01*
X79764524Y-129757403D01*
X79781221Y-129710971D01*
X79782680Y-129708493D01*
X79793331Y-129691969D01*
X79812180Y-129663705D01*
X79838106Y-129625352D01*
X79869984Y-129578560D01*
X79906691Y-129524979D01*
X79947105Y-129466260D01*
X79990101Y-129404054D01*
X80184636Y-129123195D01*
X80593908Y-129123195D01*
X80634853Y-129123224D01*
G36*
X80634853Y-129123224D02*
G01*
X80727311Y-129123534D01*
X80808914Y-129124168D01*
X80878651Y-129125104D01*
X80935507Y-129126323D01*
X80978471Y-129127806D01*
X81006528Y-129129532D01*
X81018666Y-129131482D01*
X81018970Y-129131649D01*
X81032512Y-129145447D01*
X81043510Y-129166613D01*
X81044483Y-129172157D01*
X81045796Y-129189981D01*
X81046986Y-129219737D01*
X81048058Y-129261841D01*
X81049012Y-129316709D01*
X81049854Y-129384760D01*
X81050585Y-129466409D01*
X81051208Y-129562073D01*
X81051728Y-129672170D01*
X81052146Y-129797115D01*
X81052466Y-129937327D01*
X81052691Y-130093221D01*
X81052823Y-130265215D01*
X81052867Y-130453725D01*
X81052866Y-130479450D01*
X81052809Y-130623345D01*
X81052673Y-130762384D01*
X81052462Y-130895637D01*
X81052180Y-131022176D01*
X81051832Y-131141071D01*
X81051424Y-131251394D01*
X81050959Y-131352215D01*
X81050442Y-131442605D01*
X81049878Y-131521637D01*
X81049272Y-131588379D01*
X81048628Y-131641905D01*
X81047951Y-131681284D01*
X81047246Y-131705588D01*
X81046517Y-131713887D01*
X81046460Y-131713877D01*
X81040092Y-131706517D01*
X81024947Y-131686151D01*
X81001701Y-131653773D01*
X80971032Y-131610372D01*
X80933617Y-131556941D01*
X80890132Y-131494472D01*
X80841254Y-131423955D01*
X80787660Y-131346383D01*
X80730026Y-131262746D01*
X80669030Y-131174038D01*
X80605349Y-131081248D01*
X80539658Y-130985370D01*
X80472636Y-130887393D01*
X80404958Y-130788311D01*
X80337302Y-130689114D01*
X80270344Y-130590794D01*
X80204761Y-130494343D01*
X80141230Y-130400752D01*
X80080428Y-130311013D01*
X80023032Y-130226117D01*
X79969718Y-130147056D01*
X79921164Y-130074822D01*
X79878045Y-130010406D01*
X79841040Y-129954799D01*
X79810824Y-129908994D01*
X79788074Y-129873982D01*
X79773468Y-129850754D01*
X79767682Y-129840302D01*
X79761493Y-129807477D01*
X79764524Y-129757403D01*
X79781221Y-129710971D01*
X79782680Y-129708493D01*
X79793331Y-129691969D01*
X79812180Y-129663705D01*
X79838106Y-129625352D01*
X79869984Y-129578560D01*
X79906691Y-129524979D01*
X79947105Y-129466260D01*
X79990101Y-129404054D01*
X80184636Y-129123195D01*
X80593908Y-129123195D01*
X80634853Y-129123224D01*
G37*
X78634558Y-129489307D02*
X78641690Y-129489517D01*
X78717950Y-129492952D01*
X78781423Y-129498654D01*
X78835875Y-129507380D01*
X78885071Y-129519887D01*
X78932780Y-129536932D01*
X78982767Y-129559272D01*
X78996714Y-129566203D01*
X79082317Y-129619327D01*
X79156904Y-129685117D01*
X79220032Y-129763041D01*
X79271259Y-129852566D01*
X79310141Y-129953160D01*
X79329585Y-130016428D01*
X79332104Y-130832299D01*
X79332435Y-130951286D01*
X79332695Y-131083766D01*
X79332783Y-131200563D01*
X79332695Y-131302367D01*
X79332423Y-131389868D01*
X79331961Y-131463757D01*
X79331304Y-131524724D01*
X79330445Y-131573461D01*
X79329379Y-131610659D01*
X79328099Y-131637006D01*
X79326599Y-131653195D01*
X79324874Y-131659916D01*
X79324229Y-131660626D01*
X79313961Y-131665832D01*
X79293887Y-131669239D01*
X79261642Y-131671098D01*
X79214861Y-131671661D01*
X79199463Y-131671641D01*
X79161128Y-131671190D01*
X79135671Y-131669790D01*
X79120018Y-131666980D01*
X79111096Y-131662299D01*
X79105831Y-131655284D01*
X79104991Y-131651872D01*
X79103322Y-131632258D01*
X79101847Y-131595876D01*
X79100565Y-131542708D01*
X79099476Y-131472731D01*
X79098580Y-131385925D01*
X79097877Y-131282270D01*
X79097366Y-131161745D01*
X79097047Y-131024329D01*
X79096920Y-130870001D01*
X79096855Y-130736054D01*
X79096700Y-130614939D01*
X79096441Y-130508753D01*
X79096064Y-130416482D01*
X79095553Y-130337113D01*
X79094894Y-130269632D01*
X79094072Y-130213026D01*
X79093072Y-130166282D01*
X79091879Y-130128387D01*
X79090480Y-130098328D01*
X79088858Y-130075090D01*
X79086999Y-130057661D01*
X79084889Y-130045028D01*
X79078800Y-130020029D01*
X79050553Y-129945681D01*
X79009762Y-129879704D01*
X78958015Y-129824322D01*
X78896897Y-129781756D01*
X78871329Y-129768861D01*
X78834256Y-129754244D01*
X78794152Y-129743941D01*
X78747567Y-129737340D01*
X78691051Y-129733829D01*
X78621155Y-129732794D01*
X78569640Y-129732718D01*
X78525681Y-129731495D01*
X78494509Y-129727518D01*
X78473927Y-129719179D01*
X78461741Y-129704869D01*
X78455755Y-129682980D01*
X78453773Y-129651902D01*
X78453600Y-129610028D01*
X78453594Y-129600303D01*
X78453922Y-129561090D01*
X78456393Y-129531935D01*
X78463122Y-129511429D01*
X78476220Y-129498163D01*
X78497800Y-129490727D01*
X78529974Y-129487712D01*
X78574856Y-129487708D01*
X78634558Y-129489307D01*
G36*
X78634558Y-129489307D02*
G01*
X78641690Y-129489517D01*
X78717950Y-129492952D01*
X78781423Y-129498654D01*
X78835875Y-129507380D01*
X78885071Y-129519887D01*
X78932780Y-129536932D01*
X78982767Y-129559272D01*
X78996714Y-129566203D01*
X79082317Y-129619327D01*
X79156904Y-129685117D01*
X79220032Y-129763041D01*
X79271259Y-129852566D01*
X79310141Y-129953160D01*
X79329585Y-130016428D01*
X79332104Y-130832299D01*
X79332435Y-130951286D01*
X79332695Y-131083766D01*
X79332783Y-131200563D01*
X79332695Y-131302367D01*
X79332423Y-131389868D01*
X79331961Y-131463757D01*
X79331304Y-131524724D01*
X79330445Y-131573461D01*
X79329379Y-131610659D01*
X79328099Y-131637006D01*
X79326599Y-131653195D01*
X79324874Y-131659916D01*
X79324229Y-131660626D01*
X79313961Y-131665832D01*
X79293887Y-131669239D01*
X79261642Y-131671098D01*
X79214861Y-131671661D01*
X79199463Y-131671641D01*
X79161128Y-131671190D01*
X79135671Y-131669790D01*
X79120018Y-131666980D01*
X79111096Y-131662299D01*
X79105831Y-131655284D01*
X79104991Y-131651872D01*
X79103322Y-131632258D01*
X79101847Y-131595876D01*
X79100565Y-131542708D01*
X79099476Y-131472731D01*
X79098580Y-131385925D01*
X79097877Y-131282270D01*
X79097366Y-131161745D01*
X79097047Y-131024329D01*
X79096920Y-130870001D01*
X79096855Y-130736054D01*
X79096700Y-130614939D01*
X79096441Y-130508753D01*
X79096064Y-130416482D01*
X79095553Y-130337113D01*
X79094894Y-130269632D01*
X79094072Y-130213026D01*
X79093072Y-130166282D01*
X79091879Y-130128387D01*
X79090480Y-130098328D01*
X79088858Y-130075090D01*
X79086999Y-130057661D01*
X79084889Y-130045028D01*
X79078800Y-130020029D01*
X79050553Y-129945681D01*
X79009762Y-129879704D01*
X78958015Y-129824322D01*
X78896897Y-129781756D01*
X78871329Y-129768861D01*
X78834256Y-129754244D01*
X78794152Y-129743941D01*
X78747567Y-129737340D01*
X78691051Y-129733829D01*
X78621155Y-129732794D01*
X78569640Y-129732718D01*
X78525681Y-129731495D01*
X78494509Y-129727518D01*
X78473927Y-129719179D01*
X78461741Y-129704869D01*
X78455755Y-129682980D01*
X78453773Y-129651902D01*
X78453600Y-129610028D01*
X78453594Y-129600303D01*
X78453922Y-129561090D01*
X78456393Y-129531935D01*
X78463122Y-129511429D01*
X78476220Y-129498163D01*
X78497800Y-129490727D01*
X78529974Y-129487712D01*
X78574856Y-129487708D01*
X78634558Y-129489307D01*
G37*
X85503342Y-128892423D02*
X85529158Y-128902611D01*
X85566820Y-128920224D01*
X85587524Y-128930548D01*
X85622147Y-128948984D01*
X85650775Y-128965653D01*
X85668715Y-128977897D01*
X85692600Y-128997700D01*
X85692600Y-129495728D01*
X85831820Y-129495728D01*
X85883144Y-129495776D01*
X85926700Y-129496885D01*
X85957500Y-129500633D01*
X85977750Y-129508600D01*
X85989658Y-129522367D01*
X85995431Y-129543512D01*
X85997276Y-129573617D01*
X85997400Y-129614261D01*
X85997333Y-129651002D01*
X85995784Y-129682183D01*
X85990548Y-129704231D01*
X85979419Y-129718727D01*
X85960188Y-129727252D01*
X85930650Y-129731384D01*
X85888596Y-129732705D01*
X85831820Y-129732795D01*
X85692600Y-129732795D01*
X85692600Y-130400552D01*
X85692590Y-130464713D01*
X85692500Y-130583065D01*
X85692299Y-130686246D01*
X85691966Y-130775437D01*
X85691482Y-130851819D01*
X85690826Y-130916574D01*
X85689976Y-130970883D01*
X85688913Y-131015926D01*
X85687617Y-131052885D01*
X85686066Y-131082941D01*
X85684239Y-131107275D01*
X85682117Y-131127069D01*
X85679679Y-131143502D01*
X85677474Y-131155914D01*
X85650624Y-131266280D01*
X85613013Y-131363776D01*
X85564715Y-131448306D01*
X85505809Y-131519777D01*
X85436371Y-131578094D01*
X85356476Y-131623161D01*
X85266202Y-131654885D01*
X85265923Y-131654958D01*
X85231014Y-131662025D01*
X85189918Y-131667223D01*
X85146458Y-131670447D01*
X85104457Y-131671592D01*
X85067736Y-131670553D01*
X85040119Y-131667224D01*
X85025427Y-131661501D01*
X85020810Y-131648999D01*
X85017437Y-131623839D01*
X85015441Y-131590358D01*
X85014816Y-131552757D01*
X85015552Y-131515237D01*
X85017642Y-131481997D01*
X85021078Y-131457238D01*
X85025850Y-131445159D01*
X85030942Y-131442962D01*
X85051025Y-131438893D01*
X85081353Y-131435268D01*
X85117605Y-131432675D01*
X85142935Y-131431125D01*
X85183228Y-131426521D01*
X85215624Y-131418868D01*
X85246088Y-131406972D01*
X85267551Y-131396157D01*
X85323934Y-131355864D01*
X85370513Y-131302533D01*
X85407667Y-131235661D01*
X85435773Y-131154747D01*
X85438166Y-131144928D01*
X85440560Y-131132122D01*
X85442647Y-131116391D01*
X85444455Y-131096570D01*
X85446013Y-131071489D01*
X85447348Y-131039981D01*
X85448487Y-131000880D01*
X85449459Y-130953017D01*
X85450292Y-130895226D01*
X85451012Y-130826338D01*
X85451648Y-130745187D01*
X85452227Y-130650605D01*
X85452778Y-130541424D01*
X85453327Y-130416478D01*
X85456194Y-129732795D01*
X85270077Y-129732795D01*
X85258413Y-129732800D01*
X85195548Y-129732838D01*
X85147354Y-129732103D01*
X85111887Y-129729510D01*
X85087206Y-129723975D01*
X85071369Y-129714416D01*
X85062431Y-129699749D01*
X85058452Y-129678890D01*
X85057490Y-129650755D01*
X85057600Y-129614261D01*
X85057591Y-129608187D01*
X85057520Y-129572990D01*
X85058820Y-129546005D01*
X85063436Y-129526144D01*
X85073311Y-129512321D01*
X85090390Y-129503449D01*
X85116618Y-129498440D01*
X85153939Y-129496209D01*
X85204298Y-129495667D01*
X85269639Y-129495728D01*
X85455317Y-129495728D01*
X85457542Y-129198198D01*
X85457716Y-129175353D01*
X85458375Y-129100267D01*
X85459116Y-129039985D01*
X85460030Y-128992829D01*
X85461209Y-128957120D01*
X85462744Y-128931178D01*
X85464728Y-128913326D01*
X85467252Y-128901883D01*
X85470408Y-128895171D01*
X85474288Y-128891511D01*
X85475655Y-128890731D01*
X85486474Y-128888763D01*
X85503342Y-128892423D01*
G36*
X85503342Y-128892423D02*
G01*
X85529158Y-128902611D01*
X85566820Y-128920224D01*
X85587524Y-128930548D01*
X85622147Y-128948984D01*
X85650775Y-128965653D01*
X85668715Y-128977897D01*
X85692600Y-128997700D01*
X85692600Y-129495728D01*
X85831820Y-129495728D01*
X85883144Y-129495776D01*
X85926700Y-129496885D01*
X85957500Y-129500633D01*
X85977750Y-129508600D01*
X85989658Y-129522367D01*
X85995431Y-129543512D01*
X85997276Y-129573617D01*
X85997400Y-129614261D01*
X85997333Y-129651002D01*
X85995784Y-129682183D01*
X85990548Y-129704231D01*
X85979419Y-129718727D01*
X85960188Y-129727252D01*
X85930650Y-129731384D01*
X85888596Y-129732705D01*
X85831820Y-129732795D01*
X85692600Y-129732795D01*
X85692600Y-130400552D01*
X85692590Y-130464713D01*
X85692500Y-130583065D01*
X85692299Y-130686246D01*
X85691966Y-130775437D01*
X85691482Y-130851819D01*
X85690826Y-130916574D01*
X85689976Y-130970883D01*
X85688913Y-131015926D01*
X85687617Y-131052885D01*
X85686066Y-131082941D01*
X85684239Y-131107275D01*
X85682117Y-131127069D01*
X85679679Y-131143502D01*
X85677474Y-131155914D01*
X85650624Y-131266280D01*
X85613013Y-131363776D01*
X85564715Y-131448306D01*
X85505809Y-131519777D01*
X85436371Y-131578094D01*
X85356476Y-131623161D01*
X85266202Y-131654885D01*
X85265923Y-131654958D01*
X85231014Y-131662025D01*
X85189918Y-131667223D01*
X85146458Y-131670447D01*
X85104457Y-131671592D01*
X85067736Y-131670553D01*
X85040119Y-131667224D01*
X85025427Y-131661501D01*
X85020810Y-131648999D01*
X85017437Y-131623839D01*
X85015441Y-131590358D01*
X85014816Y-131552757D01*
X85015552Y-131515237D01*
X85017642Y-131481997D01*
X85021078Y-131457238D01*
X85025850Y-131445159D01*
X85030942Y-131442962D01*
X85051025Y-131438893D01*
X85081353Y-131435268D01*
X85117605Y-131432675D01*
X85142935Y-131431125D01*
X85183228Y-131426521D01*
X85215624Y-131418868D01*
X85246088Y-131406972D01*
X85267551Y-131396157D01*
X85323934Y-131355864D01*
X85370513Y-131302533D01*
X85407667Y-131235661D01*
X85435773Y-131154747D01*
X85438166Y-131144928D01*
X85440560Y-131132122D01*
X85442647Y-131116391D01*
X85444455Y-131096570D01*
X85446013Y-131071489D01*
X85447348Y-131039981D01*
X85448487Y-131000880D01*
X85449459Y-130953017D01*
X85450292Y-130895226D01*
X85451012Y-130826338D01*
X85451648Y-130745187D01*
X85452227Y-130650605D01*
X85452778Y-130541424D01*
X85453327Y-130416478D01*
X85456194Y-129732795D01*
X85270077Y-129732795D01*
X85258413Y-129732800D01*
X85195548Y-129732838D01*
X85147354Y-129732103D01*
X85111887Y-129729510D01*
X85087206Y-129723975D01*
X85071369Y-129714416D01*
X85062431Y-129699749D01*
X85058452Y-129678890D01*
X85057490Y-129650755D01*
X85057600Y-129614261D01*
X85057591Y-129608187D01*
X85057520Y-129572990D01*
X85058820Y-129546005D01*
X85063436Y-129526144D01*
X85073311Y-129512321D01*
X85090390Y-129503449D01*
X85116618Y-129498440D01*
X85153939Y-129496209D01*
X85204298Y-129495667D01*
X85269639Y-129495728D01*
X85455317Y-129495728D01*
X85457542Y-129198198D01*
X85457716Y-129175353D01*
X85458375Y-129100267D01*
X85459116Y-129039985D01*
X85460030Y-128992829D01*
X85461209Y-128957120D01*
X85462744Y-128931178D01*
X85464728Y-128913326D01*
X85467252Y-128901883D01*
X85470408Y-128895171D01*
X85474288Y-128891511D01*
X85475655Y-128890731D01*
X85486474Y-128888763D01*
X85503342Y-128892423D01*
G37*
X77945579Y-131116391D02*
X77944318Y-131127997D01*
X77934486Y-131196217D01*
X77920590Y-131255400D01*
X77900722Y-131312307D01*
X77872972Y-131373701D01*
X77823458Y-131456520D01*
X77760325Y-131530946D01*
X77685998Y-131594187D01*
X77602112Y-131645068D01*
X77510302Y-131682412D01*
X77412200Y-131705046D01*
X77411015Y-131705220D01*
X77306433Y-131712193D01*
X77201023Y-131703345D01*
X77098933Y-131679019D01*
X77021988Y-131647932D01*
X76939338Y-131598379D01*
X76866133Y-131535953D01*
X76803390Y-131461886D01*
X76752127Y-131377408D01*
X76713363Y-131283751D01*
X76688117Y-131182146D01*
X76686216Y-131170217D01*
X76683788Y-131150941D01*
X76681754Y-131128269D01*
X76680094Y-131100846D01*
X76678783Y-131067319D01*
X76677800Y-131026335D01*
X76677121Y-130976540D01*
X76676724Y-130916581D01*
X76676586Y-130845103D01*
X76676685Y-130760753D01*
X76676998Y-130662178D01*
X76677027Y-130655661D01*
X76920016Y-130655661D01*
X76923130Y-130911778D01*
X76924049Y-130982868D01*
X76925022Y-131041711D01*
X76926178Y-131087913D01*
X76927679Y-131123655D01*
X76929684Y-131151118D01*
X76932354Y-131172482D01*
X76935850Y-131189928D01*
X76940333Y-131205637D01*
X76945963Y-131221789D01*
X76969780Y-131272583D01*
X77003929Y-131324774D01*
X77043676Y-131371200D01*
X77084898Y-131406382D01*
X77107182Y-131419698D01*
X77144381Y-131437617D01*
X77181039Y-131451429D01*
X77204288Y-131457413D01*
X77260905Y-131465564D01*
X77323259Y-131467922D01*
X77384455Y-131464394D01*
X77437600Y-131454888D01*
X77454733Y-131449859D01*
X77523848Y-131419268D01*
X77583541Y-131375258D01*
X77633074Y-131318820D01*
X77671708Y-131250944D01*
X77698705Y-131172622D01*
X77713327Y-131084844D01*
X77713907Y-131077627D01*
X77712402Y-130999170D01*
X77697267Y-130923983D01*
X77669668Y-130854418D01*
X77630773Y-130792829D01*
X77581751Y-130741568D01*
X77523769Y-130702989D01*
X77504601Y-130693592D01*
X77478208Y-130682238D01*
X77451495Y-130673376D01*
X77422090Y-130666706D01*
X77387620Y-130661925D01*
X77345711Y-130658732D01*
X77293992Y-130656825D01*
X77230089Y-130655902D01*
X77151629Y-130655661D01*
X76920016Y-130655661D01*
X76677027Y-130655661D01*
X76677502Y-130548024D01*
X76680196Y-129991028D01*
X76703783Y-129915143D01*
X76741682Y-129815559D01*
X76791839Y-129724761D01*
X76853030Y-129646792D01*
X76925292Y-129581615D01*
X77008659Y-129529191D01*
X77103167Y-129489485D01*
X77130760Y-129480754D01*
X77155423Y-129474537D01*
X77180851Y-129470488D01*
X77211084Y-129468143D01*
X77250164Y-129467040D01*
X77302133Y-129466718D01*
X77313734Y-129466706D01*
X77362109Y-129466952D01*
X77398325Y-129468041D01*
X77426353Y-129470443D01*
X77450165Y-129474627D01*
X77473730Y-129481062D01*
X77501019Y-129490217D01*
X77591277Y-129529372D01*
X77671047Y-129580626D01*
X77739965Y-129644320D01*
X77798842Y-129721204D01*
X77848487Y-129812029D01*
X77866390Y-129855532D01*
X77882863Y-129905319D01*
X77896420Y-129956394D01*
X77906570Y-130005894D01*
X77912821Y-130050956D01*
X77914683Y-130088720D01*
X77911662Y-130116322D01*
X77903267Y-130130901D01*
X77893780Y-130134120D01*
X77869732Y-130137336D01*
X77837023Y-130139073D01*
X77799915Y-130139394D01*
X77762665Y-130138362D01*
X77729534Y-130136040D01*
X77704782Y-130132492D01*
X77692668Y-130127781D01*
X77690509Y-130123970D01*
X77684182Y-130105088D01*
X77677025Y-130075921D01*
X77670211Y-130040998D01*
X77666343Y-130020522D01*
X77642062Y-129936258D01*
X77606626Y-129864123D01*
X77560410Y-129804524D01*
X77503787Y-129757866D01*
X77437132Y-129724557D01*
X77360819Y-129705004D01*
X77336584Y-129702013D01*
X77258899Y-129702557D01*
X77184545Y-129717969D01*
X77115670Y-129747159D01*
X77054422Y-129789039D01*
X77002948Y-129842519D01*
X76963395Y-129906511D01*
X76960885Y-129911846D01*
X76944378Y-129952295D01*
X76931826Y-129995205D01*
X76922805Y-130043452D01*
X76916889Y-130099908D01*
X76913651Y-130167450D01*
X76912667Y-130248951D01*
X76912667Y-130408019D01*
X77164550Y-130412312D01*
X77191228Y-130412788D01*
X77271272Y-130414633D01*
X77337576Y-130417155D01*
X77392603Y-130420758D01*
X77438815Y-130425847D01*
X77478675Y-130432825D01*
X77514647Y-130442098D01*
X77549195Y-130454070D01*
X77584780Y-130469144D01*
X77623867Y-130487726D01*
X77655207Y-130504723D01*
X77726142Y-130555343D01*
X77791001Y-130618358D01*
X77847260Y-130690713D01*
X77892396Y-130769348D01*
X77923886Y-130851209D01*
X77928403Y-130867938D01*
X77943069Y-130947927D01*
X77949006Y-131033331D01*
X77947178Y-131077627D01*
X77945579Y-131116391D01*
G36*
X77945579Y-131116391D02*
G01*
X77944318Y-131127997D01*
X77934486Y-131196217D01*
X77920590Y-131255400D01*
X77900722Y-131312307D01*
X77872972Y-131373701D01*
X77823458Y-131456520D01*
X77760325Y-131530946D01*
X77685998Y-131594187D01*
X77602112Y-131645068D01*
X77510302Y-131682412D01*
X77412200Y-131705046D01*
X77411015Y-131705220D01*
X77306433Y-131712193D01*
X77201023Y-131703345D01*
X77098933Y-131679019D01*
X77021988Y-131647932D01*
X76939338Y-131598379D01*
X76866133Y-131535953D01*
X76803390Y-131461886D01*
X76752127Y-131377408D01*
X76713363Y-131283751D01*
X76688117Y-131182146D01*
X76686216Y-131170217D01*
X76683788Y-131150941D01*
X76681754Y-131128269D01*
X76680094Y-131100846D01*
X76678783Y-131067319D01*
X76677800Y-131026335D01*
X76677121Y-130976540D01*
X76676724Y-130916581D01*
X76676586Y-130845103D01*
X76676685Y-130760753D01*
X76676998Y-130662178D01*
X76677027Y-130655661D01*
X76920016Y-130655661D01*
X76923130Y-130911778D01*
X76924049Y-130982868D01*
X76925022Y-131041711D01*
X76926178Y-131087913D01*
X76927679Y-131123655D01*
X76929684Y-131151118D01*
X76932354Y-131172482D01*
X76935850Y-131189928D01*
X76940333Y-131205637D01*
X76945963Y-131221789D01*
X76969780Y-131272583D01*
X77003929Y-131324774D01*
X77043676Y-131371200D01*
X77084898Y-131406382D01*
X77107182Y-131419698D01*
X77144381Y-131437617D01*
X77181039Y-131451429D01*
X77204288Y-131457413D01*
X77260905Y-131465564D01*
X77323259Y-131467922D01*
X77384455Y-131464394D01*
X77437600Y-131454888D01*
X77454733Y-131449859D01*
X77523848Y-131419268D01*
X77583541Y-131375258D01*
X77633074Y-131318820D01*
X77671708Y-131250944D01*
X77698705Y-131172622D01*
X77713327Y-131084844D01*
X77713907Y-131077627D01*
X77712402Y-130999170D01*
X77697267Y-130923983D01*
X77669668Y-130854418D01*
X77630773Y-130792829D01*
X77581751Y-130741568D01*
X77523769Y-130702989D01*
X77504601Y-130693592D01*
X77478208Y-130682238D01*
X77451495Y-130673376D01*
X77422090Y-130666706D01*
X77387620Y-130661925D01*
X77345711Y-130658732D01*
X77293992Y-130656825D01*
X77230089Y-130655902D01*
X77151629Y-130655661D01*
X76920016Y-130655661D01*
X76677027Y-130655661D01*
X76677502Y-130548024D01*
X76680196Y-129991028D01*
X76703783Y-129915143D01*
X76741682Y-129815559D01*
X76791839Y-129724761D01*
X76853030Y-129646792D01*
X76925292Y-129581615D01*
X77008659Y-129529191D01*
X77103167Y-129489485D01*
X77130760Y-129480754D01*
X77155423Y-129474537D01*
X77180851Y-129470488D01*
X77211084Y-129468143D01*
X77250164Y-129467040D01*
X77302133Y-129466718D01*
X77313734Y-129466706D01*
X77362109Y-129466952D01*
X77398325Y-129468041D01*
X77426353Y-129470443D01*
X77450165Y-129474627D01*
X77473730Y-129481062D01*
X77501019Y-129490217D01*
X77591277Y-129529372D01*
X77671047Y-129580626D01*
X77739965Y-129644320D01*
X77798842Y-129721204D01*
X77848487Y-129812029D01*
X77866390Y-129855532D01*
X77882863Y-129905319D01*
X77896420Y-129956394D01*
X77906570Y-130005894D01*
X77912821Y-130050956D01*
X77914683Y-130088720D01*
X77911662Y-130116322D01*
X77903267Y-130130901D01*
X77893780Y-130134120D01*
X77869732Y-130137336D01*
X77837023Y-130139073D01*
X77799915Y-130139394D01*
X77762665Y-130138362D01*
X77729534Y-130136040D01*
X77704782Y-130132492D01*
X77692668Y-130127781D01*
X77690509Y-130123970D01*
X77684182Y-130105088D01*
X77677025Y-130075921D01*
X77670211Y-130040998D01*
X77666343Y-130020522D01*
X77642062Y-129936258D01*
X77606626Y-129864123D01*
X77560410Y-129804524D01*
X77503787Y-129757866D01*
X77437132Y-129724557D01*
X77360819Y-129705004D01*
X77336584Y-129702013D01*
X77258899Y-129702557D01*
X77184545Y-129717969D01*
X77115670Y-129747159D01*
X77054422Y-129789039D01*
X77002948Y-129842519D01*
X76963395Y-129906511D01*
X76960885Y-129911846D01*
X76944378Y-129952295D01*
X76931826Y-129995205D01*
X76922805Y-130043452D01*
X76916889Y-130099908D01*
X76913651Y-130167450D01*
X76912667Y-130248951D01*
X76912667Y-130408019D01*
X77164550Y-130412312D01*
X77191228Y-130412788D01*
X77271272Y-130414633D01*
X77337576Y-130417155D01*
X77392603Y-130420758D01*
X77438815Y-130425847D01*
X77478675Y-130432825D01*
X77514647Y-130442098D01*
X77549195Y-130454070D01*
X77584780Y-130469144D01*
X77623867Y-130487726D01*
X77655207Y-130504723D01*
X77726142Y-130555343D01*
X77791001Y-130618358D01*
X77847260Y-130690713D01*
X77892396Y-130769348D01*
X77923886Y-130851209D01*
X77928403Y-130867938D01*
X77943069Y-130947927D01*
X77949006Y-131033331D01*
X77947178Y-131077627D01*
X77945579Y-131116391D01*
G37*
X84333560Y-130596394D02*
X84333559Y-130601673D01*
X84333520Y-130713298D01*
X84333437Y-130809381D01*
X84333270Y-130891258D01*
X84332980Y-130960260D01*
X84332528Y-131017722D01*
X84331872Y-131064978D01*
X84330975Y-131103361D01*
X84329796Y-131134204D01*
X84328296Y-131158842D01*
X84326435Y-131178609D01*
X84324174Y-131194837D01*
X84321473Y-131208860D01*
X84318293Y-131222013D01*
X84314594Y-131235628D01*
X84307716Y-131259013D01*
X84268699Y-131359250D01*
X84217674Y-131448471D01*
X84155387Y-131525986D01*
X84082584Y-131591102D01*
X84000009Y-131643128D01*
X83908409Y-131681373D01*
X83808528Y-131705145D01*
X83799549Y-131706400D01*
X83751625Y-131709789D01*
X83695158Y-131709847D01*
X83636481Y-131706859D01*
X83581928Y-131701113D01*
X83537833Y-131692895D01*
X83520023Y-131687830D01*
X83464507Y-131667053D01*
X83405988Y-131639209D01*
X83351028Y-131607620D01*
X83306190Y-131575608D01*
X83271423Y-131544234D01*
X83207833Y-131470602D01*
X83155008Y-131385798D01*
X83113895Y-131291796D01*
X83085440Y-131190574D01*
X83070592Y-131084106D01*
X83069060Y-131061183D01*
X83068544Y-131029733D01*
X83072918Y-131008540D01*
X83084590Y-130995581D01*
X83105969Y-130988832D01*
X83139462Y-130986266D01*
X83187480Y-130985861D01*
X83218361Y-130986156D01*
X83256269Y-130988409D01*
X83281368Y-130993906D01*
X83296176Y-131003845D01*
X83303214Y-131019429D01*
X83305000Y-131041856D01*
X83305019Y-131043487D01*
X83307064Y-131067547D01*
X83311835Y-131100778D01*
X83318387Y-131136501D01*
X83324243Y-131162065D01*
X83352302Y-131243545D01*
X83392028Y-131314030D01*
X83442726Y-131372664D01*
X83503699Y-131418593D01*
X83574252Y-131450961D01*
X83580572Y-131452993D01*
X83639351Y-131465077D01*
X83705388Y-131468854D01*
X83771991Y-131464311D01*
X83832466Y-131451437D01*
X83837010Y-131449984D01*
X83886235Y-131428657D01*
X83934990Y-131398730D01*
X83977861Y-131363973D01*
X84009433Y-131328159D01*
X84026445Y-131301898D01*
X84051388Y-131254883D01*
X84070510Y-131204500D01*
X84084401Y-131148086D01*
X84093648Y-131082975D01*
X84098842Y-131006505D01*
X84100571Y-130916011D01*
X84100867Y-130765728D01*
X83864545Y-130765728D01*
X83817268Y-130765630D01*
X83741605Y-130764899D01*
X83680226Y-130763396D01*
X83631415Y-130761052D01*
X83593459Y-130757798D01*
X83564643Y-130753563D01*
X83498608Y-130737526D01*
X83404608Y-130701467D01*
X83319926Y-130652150D01*
X83245635Y-130590375D01*
X83182813Y-130516940D01*
X83132535Y-130432644D01*
X83109027Y-130381221D01*
X83087852Y-130323069D01*
X83074341Y-130265800D01*
X83067199Y-130203619D01*
X83065632Y-130148331D01*
X83305161Y-130148331D01*
X83308523Y-130206359D01*
X83317453Y-130254254D01*
X83325014Y-130278059D01*
X83358244Y-130350324D01*
X83403340Y-130410545D01*
X83460035Y-130458482D01*
X83528062Y-130493891D01*
X83607153Y-130516530D01*
X83638309Y-130521029D01*
X83680504Y-130524470D01*
X83734899Y-130526844D01*
X83803064Y-130528218D01*
X83886569Y-130528661D01*
X84102581Y-130528661D01*
X84098582Y-130285245D01*
X84098166Y-130261042D01*
X84096555Y-130186425D01*
X84094632Y-130126477D01*
X84092294Y-130079435D01*
X84089438Y-130043538D01*
X84085959Y-130017023D01*
X84081756Y-129998129D01*
X84075978Y-129979428D01*
X84044180Y-129901772D01*
X84003370Y-129837930D01*
X83952650Y-129786955D01*
X83891121Y-129747900D01*
X83817884Y-129719815D01*
X83803374Y-129716237D01*
X83754560Y-129709719D01*
X83698279Y-129708142D01*
X83640512Y-129711269D01*
X83587240Y-129718863D01*
X83544444Y-129730685D01*
X83540793Y-129732131D01*
X83473068Y-129768278D01*
X83414807Y-129817854D01*
X83367353Y-129879460D01*
X83332047Y-129951700D01*
X83325717Y-129971027D01*
X83314036Y-130024906D01*
X83307092Y-130085927D01*
X83305161Y-130148331D01*
X83065632Y-130148331D01*
X83065133Y-130130728D01*
X83067287Y-130063584D01*
X83078918Y-129971678D01*
X83101447Y-129886817D01*
X83135793Y-129804761D01*
X83150534Y-129776718D01*
X83205768Y-129694142D01*
X83271992Y-129623329D01*
X83347809Y-129564816D01*
X83431825Y-129519136D01*
X83522643Y-129486825D01*
X83618867Y-129468418D01*
X83719103Y-129464448D01*
X83821954Y-129475451D01*
X83926024Y-129501963D01*
X83949423Y-129510266D01*
X84035444Y-129551735D01*
X84112267Y-129606985D01*
X84179257Y-129675285D01*
X84235781Y-129755901D01*
X84281203Y-129848103D01*
X84314891Y-129951156D01*
X84314899Y-129951189D01*
X84318595Y-129966009D01*
X84321771Y-129980252D01*
X84324467Y-129995263D01*
X84326722Y-130012391D01*
X84328574Y-130032982D01*
X84330062Y-130058382D01*
X84331226Y-130089940D01*
X84332105Y-130129002D01*
X84332736Y-130176915D01*
X84333160Y-130235027D01*
X84333416Y-130304683D01*
X84333542Y-130387232D01*
X84333577Y-130484020D01*
X84333570Y-130528661D01*
X84333560Y-130596394D01*
G36*
X84333560Y-130596394D02*
G01*
X84333559Y-130601673D01*
X84333520Y-130713298D01*
X84333437Y-130809381D01*
X84333270Y-130891258D01*
X84332980Y-130960260D01*
X84332528Y-131017722D01*
X84331872Y-131064978D01*
X84330975Y-131103361D01*
X84329796Y-131134204D01*
X84328296Y-131158842D01*
X84326435Y-131178609D01*
X84324174Y-131194837D01*
X84321473Y-131208860D01*
X84318293Y-131222013D01*
X84314594Y-131235628D01*
X84307716Y-131259013D01*
X84268699Y-131359250D01*
X84217674Y-131448471D01*
X84155387Y-131525986D01*
X84082584Y-131591102D01*
X84000009Y-131643128D01*
X83908409Y-131681373D01*
X83808528Y-131705145D01*
X83799549Y-131706400D01*
X83751625Y-131709789D01*
X83695158Y-131709847D01*
X83636481Y-131706859D01*
X83581928Y-131701113D01*
X83537833Y-131692895D01*
X83520023Y-131687830D01*
X83464507Y-131667053D01*
X83405988Y-131639209D01*
X83351028Y-131607620D01*
X83306190Y-131575608D01*
X83271423Y-131544234D01*
X83207833Y-131470602D01*
X83155008Y-131385798D01*
X83113895Y-131291796D01*
X83085440Y-131190574D01*
X83070592Y-131084106D01*
X83069060Y-131061183D01*
X83068544Y-131029733D01*
X83072918Y-131008540D01*
X83084590Y-130995581D01*
X83105969Y-130988832D01*
X83139462Y-130986266D01*
X83187480Y-130985861D01*
X83218361Y-130986156D01*
X83256269Y-130988409D01*
X83281368Y-130993906D01*
X83296176Y-131003845D01*
X83303214Y-131019429D01*
X83305000Y-131041856D01*
X83305019Y-131043487D01*
X83307064Y-131067547D01*
X83311835Y-131100778D01*
X83318387Y-131136501D01*
X83324243Y-131162065D01*
X83352302Y-131243545D01*
X83392028Y-131314030D01*
X83442726Y-131372664D01*
X83503699Y-131418593D01*
X83574252Y-131450961D01*
X83580572Y-131452993D01*
X83639351Y-131465077D01*
X83705388Y-131468854D01*
X83771991Y-131464311D01*
X83832466Y-131451437D01*
X83837010Y-131449984D01*
X83886235Y-131428657D01*
X83934990Y-131398730D01*
X83977861Y-131363973D01*
X84009433Y-131328159D01*
X84026445Y-131301898D01*
X84051388Y-131254883D01*
X84070510Y-131204500D01*
X84084401Y-131148086D01*
X84093648Y-131082975D01*
X84098842Y-131006505D01*
X84100571Y-130916011D01*
X84100867Y-130765728D01*
X83864545Y-130765728D01*
X83817268Y-130765630D01*
X83741605Y-130764899D01*
X83680226Y-130763396D01*
X83631415Y-130761052D01*
X83593459Y-130757798D01*
X83564643Y-130753563D01*
X83498608Y-130737526D01*
X83404608Y-130701467D01*
X83319926Y-130652150D01*
X83245635Y-130590375D01*
X83182813Y-130516940D01*
X83132535Y-130432644D01*
X83109027Y-130381221D01*
X83087852Y-130323069D01*
X83074341Y-130265800D01*
X83067199Y-130203619D01*
X83065632Y-130148331D01*
X83305161Y-130148331D01*
X83308523Y-130206359D01*
X83317453Y-130254254D01*
X83325014Y-130278059D01*
X83358244Y-130350324D01*
X83403340Y-130410545D01*
X83460035Y-130458482D01*
X83528062Y-130493891D01*
X83607153Y-130516530D01*
X83638309Y-130521029D01*
X83680504Y-130524470D01*
X83734899Y-130526844D01*
X83803064Y-130528218D01*
X83886569Y-130528661D01*
X84102581Y-130528661D01*
X84098582Y-130285245D01*
X84098166Y-130261042D01*
X84096555Y-130186425D01*
X84094632Y-130126477D01*
X84092294Y-130079435D01*
X84089438Y-130043538D01*
X84085959Y-130017023D01*
X84081756Y-129998129D01*
X84075978Y-129979428D01*
X84044180Y-129901772D01*
X84003370Y-129837930D01*
X83952650Y-129786955D01*
X83891121Y-129747900D01*
X83817884Y-129719815D01*
X83803374Y-129716237D01*
X83754560Y-129709719D01*
X83698279Y-129708142D01*
X83640512Y-129711269D01*
X83587240Y-129718863D01*
X83544444Y-129730685D01*
X83540793Y-129732131D01*
X83473068Y-129768278D01*
X83414807Y-129817854D01*
X83367353Y-129879460D01*
X83332047Y-129951700D01*
X83325717Y-129971027D01*
X83314036Y-130024906D01*
X83307092Y-130085927D01*
X83305161Y-130148331D01*
X83065632Y-130148331D01*
X83065133Y-130130728D01*
X83067287Y-130063584D01*
X83078918Y-129971678D01*
X83101447Y-129886817D01*
X83135793Y-129804761D01*
X83150534Y-129776718D01*
X83205768Y-129694142D01*
X83271992Y-129623329D01*
X83347809Y-129564816D01*
X83431825Y-129519136D01*
X83522643Y-129486825D01*
X83618867Y-129468418D01*
X83719103Y-129464448D01*
X83821954Y-129475451D01*
X83926024Y-129501963D01*
X83949423Y-129510266D01*
X84035444Y-129551735D01*
X84112267Y-129606985D01*
X84179257Y-129675285D01*
X84235781Y-129755901D01*
X84281203Y-129848103D01*
X84314891Y-129951156D01*
X84314899Y-129951189D01*
X84318595Y-129966009D01*
X84321771Y-129980252D01*
X84324467Y-129995263D01*
X84326722Y-130012391D01*
X84328574Y-130032982D01*
X84330062Y-130058382D01*
X84331226Y-130089940D01*
X84332105Y-130129002D01*
X84332736Y-130176915D01*
X84333160Y-130235027D01*
X84333416Y-130304683D01*
X84333542Y-130387232D01*
X84333577Y-130484020D01*
X84333570Y-130528661D01*
X84333560Y-130596394D01*
G37*
%TD*%
D12*
X70365000Y-122821928D03*
X70365000Y-125361928D03*
X70365000Y-127901928D03*
X70365000Y-130441928D03*
X70365000Y-132981928D03*
X70365000Y-135521928D03*
X70365000Y-138061928D03*
X70365000Y-140601928D03*
X70365000Y-143141928D03*
X70365000Y-145681928D03*
X70365000Y-148221928D03*
X70365000Y-150761928D03*
X70365000Y-153301928D03*
X70365000Y-155841928D03*
X70365000Y-158381928D03*
X70365000Y-160921928D03*
X70365000Y-163461928D03*
X70365000Y-166001928D03*
X70365000Y-168541928D03*
X95765000Y-168541928D03*
X95765000Y-166001928D03*
X95765000Y-163461928D03*
X95765000Y-160921928D03*
X95765000Y-158381928D03*
X95765000Y-155841928D03*
X95765000Y-153301928D03*
X95765000Y-150761928D03*
X95765000Y-148221928D03*
X95765000Y-145681928D03*
X95765000Y-143141928D03*
X95765000Y-140601928D03*
X95765000Y-138061928D03*
X95765000Y-135521928D03*
X95765000Y-132981928D03*
X95765000Y-130441928D03*
X95765000Y-127901928D03*
X95765000Y-125361928D03*
X95765000Y-122821928D03*
X355750000Y-154042500D03*
X355750000Y-158002500D03*
X304295000Y-154441928D03*
X306195000Y-154441928D03*
X247150000Y-119041928D03*
X249650000Y-119041928D03*
X252150000Y-119041928D03*
X254650000Y-119041928D03*
X257150000Y-119041928D03*
X259650000Y-119041928D03*
X262150000Y-119041928D03*
X275200000Y-119041928D03*
X277700000Y-119041928D03*
X280200000Y-119041928D03*
X282700000Y-119041928D03*
X285200000Y-119041928D03*
X287700000Y-119041928D03*
X290200000Y-119041928D03*
X356000000Y-119000000D03*
X184095000Y-155341928D03*
X185995000Y-155341928D03*
X178400000Y-119041928D03*
X122550000Y-166999428D03*
X122550000Y-163039428D03*
X41600000Y-141501928D03*
X41600000Y-144041928D03*
X41600000Y-146581928D03*
X41600000Y-149121928D03*
X41600000Y-151661928D03*
X41600000Y-154201928D03*
X41600000Y-156741928D03*
X41600000Y-159281928D03*
X49220000Y-159281928D03*
X49220000Y-156741928D03*
X49220000Y-154201928D03*
X49220000Y-151661928D03*
X49220000Y-149121928D03*
X49220000Y-146581928D03*
X49220000Y-144041928D03*
X49220000Y-141501928D03*
X304295000Y-152241928D03*
X306195000Y-152241928D03*
X304300000Y-158841928D03*
X306200000Y-158841928D03*
X305400000Y-119000000D03*
X307900000Y-119000000D03*
X310400000Y-119000000D03*
X312900000Y-119000000D03*
X315400000Y-119000000D03*
X317900000Y-119000000D03*
X320400000Y-119000000D03*
X124495000Y-154941928D03*
X126395000Y-154941928D03*
X356000000Y-166000000D03*
X184095000Y-153041928D03*
X185995000Y-153041928D03*
X184095000Y-158041928D03*
X185995000Y-158041928D03*
X274100000Y-166041928D03*
X65300000Y-168331928D03*
X65300000Y-165791928D03*
X65300000Y-163251928D03*
X65300000Y-160711928D03*
X65300000Y-158171928D03*
X65300000Y-155631928D03*
X65300000Y-153091928D03*
X65300000Y-150551928D03*
X65300000Y-148011928D03*
X65300000Y-145471928D03*
X65300000Y-142931928D03*
X65300000Y-140391928D03*
X65300000Y-137851928D03*
X65300000Y-135311928D03*
X57680000Y-135311928D03*
X57680000Y-137851928D03*
X57680000Y-140391928D03*
X57680000Y-142931928D03*
X57680000Y-145471928D03*
X57680000Y-148011928D03*
X57680000Y-150551928D03*
X57680000Y-153091928D03*
X57680000Y-155631928D03*
X57680000Y-158171928D03*
X57680000Y-160711928D03*
X57680000Y-163251928D03*
X57680000Y-165791928D03*
X57680000Y-168331928D03*
X112450000Y-163084428D03*
X112450000Y-167044428D03*
X127700000Y-119041928D03*
X130200000Y-119041928D03*
X132700000Y-119041928D03*
X135200000Y-119041928D03*
X137700000Y-119041928D03*
X140200000Y-119041928D03*
X142700000Y-119041928D03*
X124495000Y-150541928D03*
X126395000Y-150541928D03*
X112000000Y-136750000D03*
X112000000Y-131250000D03*
X304300000Y-156541928D03*
X306200000Y-156541928D03*
X212700000Y-166041928D03*
X154700000Y-119041928D03*
X157200000Y-119041928D03*
X159700000Y-119041928D03*
X162200000Y-119041928D03*
X164700000Y-119041928D03*
X167200000Y-119041928D03*
X169700000Y-119041928D03*
X44000000Y-119041928D03*
X124495000Y-152741928D03*
X126395000Y-152741928D03*
X187200000Y-119041928D03*
X189700000Y-119041928D03*
X192200000Y-119041928D03*
X194700000Y-119041928D03*
X197200000Y-119041928D03*
X199700000Y-119041928D03*
X202200000Y-119041928D03*
X111000000Y-119041928D03*
X245195000Y-151941928D03*
X247095000Y-151941928D03*
X213600000Y-119041928D03*
X216100000Y-119041928D03*
X218600000Y-119041928D03*
X221100000Y-119041928D03*
X223600000Y-119041928D03*
X226100000Y-119041928D03*
X228600000Y-119041928D03*
X332300000Y-118975000D03*
X334800000Y-118975000D03*
X337300000Y-118975000D03*
X339800000Y-118975000D03*
X342300000Y-118975000D03*
X344800000Y-118975000D03*
X347300000Y-118975000D03*
X245195000Y-159041928D03*
X247095000Y-159041928D03*
X44000000Y-166041928D03*
X184095000Y-150841928D03*
X185995000Y-150841928D03*
X245195000Y-156841928D03*
X247095000Y-156841928D03*
X245195000Y-154641928D03*
X247095000Y-154641928D03*
X41900000Y-124901928D03*
X41900000Y-127441928D03*
X41900000Y-129981928D03*
X41900000Y-132521928D03*
X124495000Y-157141928D03*
X126395000Y-157141928D03*
M02*
