M48
; DRILL file {KiCad 8.0.4} date 2024-08-06T18:21:12+0800
; FORMAT={-:-/ absolute / metric / decimal}
; #@! TF.CreationDate,2024-08-06T18:21:12+08:00
; #@! TF.GenerationSoftware,Kicad,Pcbnew,8.0.4
; #@! TF.FileFunction,Plated,1,2,PTH
FMAT,2
METRIC
; #@! TA.AperFunction,Plated,PTH,ViaDrill
T1C0.300
; #@! TA.AperFunction,Plated,PTH,ViaDrill
T2C0.400
; #@! TA.AperFunction,Plated,PTH,ComponentDrill
T3C0.700
; #@! TA.AperFunction,Plated,PTH,ComponentDrill
T4C0.800
; #@! TA.AperFunction,Plated,PTH,ComponentDrill
T5C0.950
; #@! TA.AperFunction,Plated,PTH,ComponentDrill
T6C1.000
; #@! TA.AperFunction,Plated,PTH,ComponentDrill
T7C1.400
; #@! TA.AperFunction,Plated,PTH,ComponentDrill
T8C1.700
; #@! TA.AperFunction,Plated,PTH,ComponentDrill
T9C3.200
%
G90
G05
T1
X67.715Y-150.892
X95.2Y-141.842
X98.275Y-140.054
X98.275Y-141.842
X102.6Y-150.542
X104.772Y-122.242
X104.807Y-119.992
X125.5Y-141.242
X130.0Y-141.242
X134.4Y-141.242
X138.9Y-141.242
X142.1Y-149.042
X142.1Y-157.042
X143.4Y-141.242
X147.8Y-141.242
X152.3Y-141.242
X156.9Y-141.242
X161.4Y-141.242
X165.9Y-141.242
X170.4Y-141.242
X173.9Y-142.342
X185.0Y-141.242
X189.4Y-141.242
X193.8Y-141.242
X198.3Y-141.242
X201.55Y-148.692
X201.55Y-157.042
X202.7Y-141.242
X207.05Y-141.242
X211.5Y-141.242
X215.9Y-141.242
X220.4Y-141.242
X224.7Y-141.242
X229.1Y-141.242
X244.0Y-141.242
X248.7Y-141.242
X253.5Y-141.242
X258.1Y-141.242
X262.35Y-149.529
X262.35Y-156.929
X262.8Y-141.242
X267.5Y-141.242
X272.1Y-141.242
X276.9Y-141.242
X281.5Y-141.242
X286.1Y-141.242
X290.8Y-141.242
X306.975Y-141.142
X311.575Y-141.142
X315.9Y-150.842
X315.9Y-159.842
X316.275Y-141.142
X320.975Y-141.142
X325.675Y-141.142
X330.275Y-141.142
X334.975Y-141.142
X339.575Y-141.142
X344.275Y-141.142
X348.875Y-141.142
X353.575Y-141.142
T2
X42.0Y-136.042
X44.0Y-124.042
X44.0Y-128.042
X44.0Y-142.042
X44.0Y-146.042
X44.0Y-150.042
X44.0Y-154.042
X44.0Y-158.042
X46.0Y-126.042
X46.0Y-130.042
X46.0Y-138.042
X48.0Y-133.042
X48.0Y-138.042
X48.5Y-127.542
X50.0Y-122.042
X50.0Y-138.042
X51.0Y-147.5
X51.1Y-165.7
X52.0Y-122.042
X52.0Y-128.042
X52.0Y-134.042
X52.2Y-148.8
X52.2Y-160.6
X53.2Y-153.1
X53.2Y-155.1
X54.0Y-144.042
X54.6Y-151.1
X56.0Y-122.042
X56.0Y-124.042
X56.0Y-128.042
X56.0Y-136.042
X56.0Y-140.042
X56.0Y-142.042
X56.0Y-144.042
X56.0Y-146.042
X56.0Y-152.4
X56.0Y-154.042
X56.0Y-157.042
X56.0Y-162.042
X56.0Y-167.042
X58.0Y-132.042
X60.0Y-122.042
X60.0Y-142.042
X60.0Y-144.042
X60.0Y-150.042
X60.0Y-154.042
X60.0Y-158.042
X60.0Y-162.042
X60.0Y-166.042
X62.0Y-132.042
X62.0Y-134.042
X62.0Y-136.042
X62.0Y-138.042
X62.0Y-140.042
X62.0Y-142.042
X62.0Y-144.042
X64.0Y-132.042
X64.0Y-134.042
X65.0Y-121.042
X65.0Y-125.042
X66.0Y-132.042
X66.0Y-134.042
X68.0Y-162.042
X68.0Y-166.042
X72.0Y-122.042
X72.0Y-126.042
X72.0Y-130.042
X72.0Y-134.042
X72.0Y-138.042
X72.0Y-146.042
X72.0Y-150.042
X72.0Y-154.042
X72.0Y-158.042
X72.0Y-162.042
X72.0Y-166.042
X76.0Y-130.042
X76.0Y-134.042
X76.0Y-138.042
X76.0Y-146.042
X76.0Y-158.042
X76.0Y-162.042
X76.0Y-166.042
X80.0Y-130.042
X80.0Y-138.042
X80.0Y-146.042
X80.0Y-158.042
X80.0Y-162.042
X80.0Y-166.042
X84.0Y-130.042
X84.0Y-138.042
X84.0Y-146.042
X84.0Y-158.042
X84.0Y-162.042
X84.0Y-166.042
X88.0Y-130.042
X88.0Y-138.042
X88.0Y-146.042
X88.0Y-158.042
X88.0Y-162.042
X88.0Y-166.042
X92.0Y-126.042
X92.0Y-130.042
X92.0Y-134.042
X92.0Y-138.042
X92.0Y-146.042
X92.0Y-150.042
X92.0Y-154.042
X92.0Y-158.042
X92.0Y-162.042
X92.0Y-166.042
X98.0Y-116.042
X98.0Y-118.042
X98.0Y-120.042
X98.0Y-122.042
X98.0Y-124.042
X98.0Y-126.042
X98.0Y-128.042
X98.0Y-130.042
X98.0Y-132.042
X98.0Y-134.042
X98.0Y-136.042
X98.0Y-148.042
X98.0Y-150.042
X98.0Y-152.042
X98.0Y-154.042
X98.0Y-156.042
X98.0Y-158.042
X100.0Y-116.042
X100.0Y-122.042
X100.0Y-124.042
X100.0Y-126.042
X100.0Y-128.042
X100.0Y-130.042
X100.0Y-132.042
X100.0Y-134.042
X100.0Y-136.042
X100.0Y-156.042
X100.0Y-158.042
X102.0Y-116.042
X102.0Y-138.042
X102.0Y-156.042
X102.0Y-158.042
X102.4Y-143.842
X102.416Y-140.442
X102.416Y-142.292
X104.0Y-116.042
X104.0Y-136.042
X104.0Y-138.042
X104.0Y-156.042
X104.0Y-158.042
X106.0Y-116.042
X106.0Y-118.042
X106.0Y-130.042
X106.0Y-132.042
X106.0Y-134.042
X106.0Y-136.042
X106.0Y-138.042
X106.0Y-156.042
X106.0Y-158.042
X108.0Y-128.0
X108.0Y-130.0
X108.0Y-132.0
X108.0Y-134.042
X108.0Y-136.042
X108.0Y-138.042
X108.0Y-140.042
X108.0Y-142.042
X108.0Y-144.042
X108.0Y-152.042
X108.0Y-154.042
X108.0Y-156.042
X108.0Y-158.042
X110.0Y-142.042
X110.0Y-144.042
X110.0Y-146.042
X110.0Y-148.042
X110.0Y-150.042
X110.0Y-152.042
X110.0Y-158.042
X112.0Y-124.0
X112.0Y-140.0
X112.0Y-158.042
X114.0Y-158.042
X116.0Y-124.0
X116.0Y-128.042
X116.0Y-132.042
X116.0Y-136.042
X116.0Y-140.042
X116.0Y-144.042
X116.0Y-148.042
X116.0Y-152.042
X116.0Y-156.042
X116.0Y-158.042
X118.6Y-118.042
X118.6Y-122.042
X118.6Y-128.042
X118.6Y-136.042
X118.6Y-140.042
X118.6Y-144.042
X118.6Y-148.042
X118.6Y-152.042
X118.6Y-156.042
X118.7Y-132.042
X120.75Y-141.942
X120.75Y-144.042
X120.75Y-146.042
X120.75Y-148.042
X121.0Y-128.042
X121.0Y-130.042
X122.0Y-146.042
X123.0Y-128.042
X123.0Y-130.042
X124.0Y-123.042
X124.0Y-125.042
X124.0Y-146.042
X126.0Y-121.042
X126.0Y-146.042
X126.0Y-160.042
X128.0Y-146.042
X130.0Y-160.042
X134.0Y-150.142
X134.0Y-158.042
X134.0Y-160.042
X138.0Y-150.142
X138.0Y-158.042
X138.0Y-160.042
X141.0Y-150.042
X141.0Y-151.292
X142.0Y-160.042
X142.0Y-164.042
X142.0Y-168.042
X143.75Y-151.292
X145.2Y-118.142
X145.7Y-155.642
X146.0Y-151.292
X146.0Y-160.142
X146.5Y-166.642
X147.2Y-118.142
X147.2Y-120.292
X148.1Y-165.056
X149.2Y-116.142
X149.2Y-120.292
X149.2Y-152.042
X151.2Y-116.142
X151.2Y-118.142
X151.2Y-120.292
X151.2Y-152.142
X153.0Y-164.042
X153.0Y-166.042
X153.2Y-116.142
X153.2Y-152.142
X154.0Y-168.142
X155.2Y-152.142
X157.2Y-116.142
X158.0Y-164.142
X158.0Y-168.142
X159.2Y-150.142
X161.2Y-116.142
X162.0Y-160.042
X165.1Y-164.042
X165.2Y-116.142
X166.0Y-148.142
X166.0Y-150.292
X166.0Y-160.042
X167.9Y-166.842
X169.2Y-116.142
X170.0Y-148.142
X170.0Y-152.142
X171.0Y-154.042
X171.0Y-160.042
X173.0Y-146.042
X173.0Y-148.042
X173.0Y-150.042
X173.0Y-154.042
X173.2Y-116.142
X174.0Y-152.142
X174.0Y-157.042
X174.0Y-160.042
X174.0Y-162.042
X174.0Y-164.042
X174.0Y-166.042
X174.0Y-168.042
X176.5Y-123.942
X176.5Y-128.042
X176.5Y-132.042
X176.5Y-136.042
X176.5Y-140.042
X176.5Y-144.042
X176.5Y-148.042
X176.5Y-152.042
X176.5Y-156.042
X176.5Y-160.042
X178.4Y-123.942
X178.4Y-128.042
X178.4Y-132.042
X178.4Y-136.042
X178.4Y-140.042
X178.4Y-144.042
X178.4Y-148.042
X178.4Y-152.042
X178.4Y-156.042
X178.4Y-160.042
X180.5Y-141.942
X180.5Y-144.042
X181.2Y-128.142
X181.2Y-130.142
X181.2Y-146.142
X182.0Y-162.042
X182.0Y-164.042
X182.0Y-166.042
X182.0Y-168.042
X183.2Y-146.142
X185.2Y-146.142
X187.2Y-146.142
X188.0Y-162.042
X188.0Y-164.142
X188.0Y-167.142
X189.0Y-148.042
X191.2Y-150.142
X193.0Y-164.142
X193.0Y-167.142
X193.2Y-150.142
X194.0Y-157.042
X194.0Y-160.0
X194.0Y-162.042
X195.2Y-150.142
X198.0Y-157.042
X198.0Y-160.042
X198.0Y-168.042
X200.0Y-157.042
X202.0Y-160.042
X202.0Y-168.042
X204.9Y-155.542
X206.0Y-119.042
X206.0Y-159.042
X206.0Y-168.042
X208.0Y-116.042
X209.2Y-152.142
X210.0Y-119.042
X212.0Y-116.042
X213.2Y-152.142
X214.0Y-159.7
X216.0Y-116.042
X216.0Y-151.042
X216.0Y-161.6
X218.0Y-164.0
X218.0Y-168.142
X219.0Y-149.042
X220.0Y-116.042
X221.0Y-149.042
X222.0Y-160.042
X222.0Y-168.142
X223.0Y-149.042
X224.0Y-116.042
X226.0Y-147.042
X226.0Y-149.042
X226.0Y-160.042
X226.7Y-165.542
X228.0Y-116.042
X228.0Y-147.042
X230.0Y-147.042
X230.0Y-149.042
X230.0Y-160.042
X232.0Y-116.042
X232.0Y-152.042
X232.0Y-154.042
X233.2Y-138.142
X233.2Y-142.142
X234.0Y-156.142
X234.0Y-159.9
X234.0Y-164.0
X234.0Y-168.0
X235.6Y-116.042
X235.6Y-120.042
X235.6Y-124.042
X235.6Y-128.042
X235.6Y-132.042
X235.6Y-136.042
X235.6Y-140.042
X235.6Y-144.042
X235.6Y-148.042
X235.6Y-152.042
X235.6Y-156.042
X237.4Y-116.042
X237.4Y-120.042
X237.4Y-124.042
X237.4Y-128.042
X237.4Y-132.042
X237.4Y-136.042
X237.4Y-140.042
X237.4Y-144.042
X237.4Y-148.042
X237.4Y-152.042
X237.4Y-156.042
X237.4Y-160.042
X238.0Y-164.0
X238.0Y-168.0
X239.2Y-141.142
X239.2Y-144.142
X240.0Y-116.0
X240.0Y-128.0
X240.0Y-130.0
X240.0Y-146.042
X240.0Y-148.042
X240.0Y-152.0
X240.0Y-156.0
X241.0Y-128.0
X241.0Y-130.0
X242.0Y-124.0
X242.0Y-164.142
X242.0Y-168.142
X243.0Y-122.0
X244.0Y-146.042
X244.0Y-148.042
X245.0Y-121.0
X248.0Y-146.042
X248.0Y-148.042
X248.0Y-162.0
X248.6Y-164.142
X248.6Y-167.142
X250.0Y-162.0
X252.0Y-150.042
X252.0Y-160.0
X252.0Y-162.0
X253.2Y-164.142
X253.2Y-167.142
X254.0Y-150.042
X254.0Y-158.0
X254.0Y-160.0
X254.0Y-162.0
X256.0Y-150.042
X256.0Y-158.0
X256.0Y-160.0
X256.0Y-162.0
X258.0Y-150.042
X258.0Y-158.0
X258.0Y-160.0
X258.0Y-162.0
X258.0Y-164.142
X258.0Y-168.142
X260.0Y-158.0
X260.0Y-160.0
X260.0Y-162.0
X261.0Y-149.042
X261.0Y-150.042
X261.0Y-151.042
X262.0Y-158.0
X262.0Y-160.0
X262.0Y-168.142
X264.0Y-151.242
X264.0Y-160.0
X265.75Y-155.592
X266.0Y-160.0
X266.0Y-168.142
X267.2Y-118.142
X268.0Y-151.242
X269.2Y-120.292
X271.2Y-118.142
X272.0Y-151.242
X273.2Y-116.142
X274.8Y-159.842
X276.0Y-151.242
X276.7Y-161.642
X277.2Y-116.142
X280.0Y-151.242
X280.0Y-166.042
X280.0Y-168.042
X281.2Y-116.142
X282.0Y-151.242
X282.0Y-168.042
X285.2Y-116.142
X286.0Y-151.242
X287.2Y-165.6
X288.0Y-148.042
X288.0Y-150.042
X288.0Y-151.242
X289.2Y-116.142
X290.0Y-146.042
X290.0Y-148.042
X290.0Y-150.042
X292.0Y-148.042
X292.0Y-150.042
X292.0Y-162.042
X292.0Y-164.042
X292.0Y-166.042
X292.0Y-168.042
X293.2Y-116.142
X294.0Y-146.042
X294.0Y-148.042
X294.0Y-150.042
X294.0Y-153.042
X294.0Y-155.042
X294.0Y-160.042
X294.0Y-162.042
X294.0Y-164.042
X294.0Y-166.042
X294.0Y-168.042
X295.0Y-140.042
X295.0Y-142.042
X296.0Y-116.0
X296.0Y-120.0
X296.0Y-124.042
X296.0Y-128.042
X296.0Y-132.042
X296.0Y-136.042
X296.0Y-158.042
X296.0Y-160.042
X296.0Y-162.042
X296.0Y-164.042
X296.0Y-166.042
X296.0Y-168.042
X298.8Y-124.042
X298.8Y-128.042
X298.8Y-132.042
X298.8Y-136.042
X298.8Y-140.042
X300.0Y-116.0
X300.0Y-162.042
X300.0Y-164.042
X300.0Y-166.042
X300.0Y-168.042
X301.975Y-128.042
X301.975Y-130.042
X301.975Y-141.042
X301.975Y-144.042
X302.0Y-122.0
X302.0Y-124.0
X302.0Y-148.042
X302.0Y-162.042
X302.0Y-164.042
X302.0Y-166.042
X302.0Y-168.042
X303.975Y-128.042
X303.975Y-130.042
X304.0Y-120.0
X306.0Y-122.0
X306.0Y-124.0
X306.775Y-148.042
X308.0Y-164.042
X308.0Y-167.042
X310.0Y-164.042
X310.0Y-167.042
X310.775Y-148.042
X312.0Y-160.042
X314.0Y-160.042
X314.0Y-164.042
X314.0Y-167.042
X314.775Y-148.042
X314.8Y-152.042
X316.0Y-162.042
X318.0Y-162.042
X318.0Y-164.042
X318.0Y-168.042
X319.299Y-158.566
X320.0Y-162.042
X320.0Y-164.042
X320.0Y-168.042
X322.0Y-154.042
X322.0Y-168.042
X324.0Y-118.0
X324.0Y-168.042
X326.0Y-154.042
X326.0Y-156.042
X328.0Y-116.0
X328.0Y-118.0
X328.0Y-120.0
X329.975Y-120.192
X330.0Y-116.0
X330.0Y-118.0
X330.0Y-154.042
X330.7Y-157.7
X331.975Y-152.042
X332.2Y-159.7
X334.0Y-116.0
X334.0Y-151.042
X336.0Y-151.042
X336.0Y-164.042
X336.0Y-168.042
X338.0Y-116.0
X338.0Y-151.042
X340.0Y-151.042
X341.975Y-149.042
X342.0Y-116.0
X344.7Y-148.7
X346.0Y-116.0
X350.0Y-116.0
X350.0Y-148.0
X350.0Y-150.0
X352.0Y-150.0
X354.0Y-148.0
X354.0Y-150.0
X356.0Y-148.0
X356.0Y-150.0
X357.475Y-139.542
X357.475Y-142.542
X358.0Y-148.0
X358.0Y-150.0
X359.0Y-124.042
X359.0Y-132.042
X359.0Y-136.042
T3
X124.495Y-150.542
X124.495Y-152.742
X124.495Y-154.942
X124.495Y-157.142
X126.395Y-150.542
X126.395Y-152.742
X126.395Y-154.942
X126.395Y-157.142
X184.095Y-150.842
X184.095Y-153.042
X184.095Y-155.342
X184.095Y-158.042
X185.995Y-150.842
X185.995Y-153.042
X185.995Y-155.342
X185.995Y-158.042
X245.195Y-151.942
X245.195Y-154.642
X245.195Y-156.842
X245.195Y-159.042
X247.095Y-151.942
X247.095Y-154.642
X247.095Y-156.842
X247.095Y-159.042
X304.295Y-152.242
X304.295Y-154.442
X304.3Y-156.542
X304.3Y-158.842
X306.195Y-152.242
X306.195Y-154.442
X306.2Y-156.542
X306.2Y-158.842
T4
X41.6Y-141.502
X41.6Y-144.042
X41.6Y-146.582
X41.6Y-149.122
X41.6Y-151.662
X41.6Y-154.202
X41.6Y-156.742
X41.6Y-159.282
X49.22Y-141.502
X49.22Y-144.042
X49.22Y-146.582
X49.22Y-149.122
X49.22Y-151.662
X49.22Y-154.202
X49.22Y-156.742
X49.22Y-159.282
X57.68Y-135.312
X57.68Y-137.852
X57.68Y-140.392
X57.68Y-142.932
X57.68Y-145.472
X57.68Y-148.012
X57.68Y-150.552
X57.68Y-153.092
X57.68Y-155.632
X57.68Y-158.172
X57.68Y-160.712
X57.68Y-163.252
X57.68Y-165.792
X57.68Y-168.332
X65.3Y-135.312
X65.3Y-137.852
X65.3Y-140.392
X65.3Y-142.932
X65.3Y-145.472
X65.3Y-148.012
X65.3Y-150.552
X65.3Y-153.092
X65.3Y-155.632
X65.3Y-158.172
X65.3Y-160.712
X65.3Y-163.252
X65.3Y-165.792
X65.3Y-168.332
X70.365Y-122.822
X70.365Y-125.362
X70.365Y-127.902
X70.365Y-130.442
X70.365Y-132.982
X70.365Y-135.522
X70.365Y-138.062
X70.365Y-140.602
X70.365Y-143.142
X70.365Y-145.682
X70.365Y-148.222
X70.365Y-150.762
X70.365Y-153.302
X70.365Y-155.842
X70.365Y-158.382
X70.365Y-160.922
X70.365Y-163.462
X70.365Y-166.002
X70.365Y-168.542
X95.765Y-122.822
X95.765Y-125.362
X95.765Y-127.902
X95.765Y-130.442
X95.765Y-132.982
X95.765Y-135.522
X95.765Y-138.062
X95.765Y-140.602
X95.765Y-143.142
X95.765Y-145.682
X95.765Y-148.222
X95.765Y-150.762
X95.765Y-153.302
X95.765Y-155.842
X95.765Y-158.382
X95.765Y-160.922
X95.765Y-163.462
X95.765Y-166.002
X95.765Y-168.542
T5
X127.7Y-119.042
X130.2Y-119.042
X132.7Y-119.042
X135.2Y-119.042
X137.7Y-119.042
X140.2Y-119.042
X142.7Y-119.042
X154.7Y-119.042
X157.2Y-119.042
X159.7Y-119.042
X162.2Y-119.042
X164.7Y-119.042
X167.2Y-119.042
X169.7Y-119.042
X187.2Y-119.042
X189.7Y-119.042
X192.2Y-119.042
X194.7Y-119.042
X197.2Y-119.042
X199.7Y-119.042
X202.2Y-119.042
X213.6Y-119.042
X216.1Y-119.042
X218.6Y-119.042
X221.1Y-119.042
X223.6Y-119.042
X226.1Y-119.042
X228.6Y-119.042
X247.15Y-119.042
X249.65Y-119.042
X252.15Y-119.042
X254.65Y-119.042
X257.15Y-119.042
X259.65Y-119.042
X262.15Y-119.042
X275.2Y-119.042
X277.7Y-119.042
X280.2Y-119.042
X282.7Y-119.042
X285.2Y-119.042
X287.7Y-119.042
X290.2Y-119.042
X305.4Y-119.0
X307.9Y-119.0
X310.4Y-119.0
X312.9Y-119.0
X315.4Y-119.0
X317.9Y-119.0
X320.4Y-119.0
X332.3Y-118.975
X334.8Y-118.975
X337.3Y-118.975
X339.8Y-118.975
X342.3Y-118.975
X344.8Y-118.975
X347.3Y-118.975
T6
X41.9Y-124.902
X41.9Y-127.442
X41.9Y-129.982
X41.9Y-132.522
T7
X112.0Y-131.25
X112.0Y-136.75
T8
X112.45Y-163.084
X112.45Y-167.044
X122.55Y-163.039
X122.55Y-166.999
X355.75Y-154.042
X355.75Y-158.002
T9
X44.0Y-119.042
X44.0Y-166.042
X111.0Y-119.042
X178.4Y-119.042
X212.7Y-166.042
X274.1Y-166.042
X356.0Y-119.0
X356.0Y-166.0
M30
