%TF.GenerationSoftware,KiCad,Pcbnew,8.0.4*%
%TF.CreationDate,2024-08-06T18:21:13+08:00*%
%TF.ProjectId,LTC6811_ESP32_V3,4c544336-3831-4315-9f45-535033325f56,rev?*%
%TF.SameCoordinates,Original*%
%TF.FileFunction,Legend,Bot*%
%TF.FilePolarity,Positive*%
%FSLAX46Y46*%
G04 Gerber Fmt 4.6, Leading zero omitted, Abs format (unit mm)*
G04 Created by KiCad (PCBNEW 8.0.4) date 2024-08-06 18:21:13*
%MOMM*%
%LPD*%
G01*
G04 APERTURE LIST*
%ADD10C,0.120000*%
%ADD11C,0.010000*%
%ADD12C,0.350000*%
G04 APERTURE END LIST*
D10*
X143100000Y12858072D02*
X146900000Y12858072D01*
X146900000Y11058072D01*
X143100000Y11058072D01*
X143100000Y12858072D01*
X143100000Y20058072D02*
X146900000Y20058072D01*
X146900000Y18258072D01*
X143100000Y18258072D01*
X143100000Y20058072D01*
X204200000Y16258072D02*
X208000000Y16258072D01*
X208000000Y14458072D01*
X204200000Y14458072D01*
X204200000Y16258072D01*
X263300000Y16458072D02*
X267100000Y16458072D01*
X267100000Y14658072D01*
X263300000Y14658072D01*
X263300000Y16458072D01*
X83500000Y13758072D02*
X87300000Y13758072D01*
X87300000Y11958072D01*
X83500000Y11958072D01*
X83500000Y13758072D01*
X83500000Y20358072D02*
X87300000Y20358072D01*
X87300000Y18558072D01*
X83500000Y18558072D01*
X83500000Y20358072D01*
X204200000Y18958072D02*
X208000000Y18958072D01*
X208000000Y17158072D01*
X204200000Y17158072D01*
X204200000Y18958072D01*
X143100000Y15558072D02*
X146900000Y15558072D01*
X146900000Y13758072D01*
X143100000Y13758072D01*
X143100000Y15558072D01*
X263300000Y18658072D02*
X267100000Y18658072D01*
X267100000Y16858072D01*
X263300000Y16858072D01*
X263300000Y18658072D01*
X263300000Y14358072D02*
X267100000Y14358072D01*
X267100000Y12558072D01*
X263300000Y12558072D01*
X263300000Y14358072D01*
X83500000Y18158072D02*
X87300000Y18158072D01*
X87300000Y16358072D01*
X83500000Y16358072D01*
X83500000Y18158072D01*
X143100000Y17858072D02*
X146900000Y17858072D01*
X146900000Y16058072D01*
X143100000Y16058072D01*
X143100000Y17858072D01*
X204100000Y11858072D02*
X207900000Y11858072D01*
X207900000Y10058072D01*
X204100000Y10058072D01*
X204100000Y11858072D01*
X263300000Y12058072D02*
X267100000Y12058072D01*
X267100000Y10258072D01*
X263300000Y10258072D01*
X263300000Y12058072D01*
X204200000Y14058072D02*
X208000000Y14058072D01*
X208000000Y12258072D01*
X204200000Y12258072D01*
X204200000Y14058072D01*
X83500000Y15958072D02*
X87300000Y15958072D01*
X87300000Y14158072D01*
X83500000Y14158072D01*
X83500000Y15958072D01*
X45163910Y37157175D02*
X45049624Y37119080D01*
X45049624Y37119080D02*
X45011529Y37080984D01*
X45011529Y37080984D02*
X44973433Y37004794D01*
X44973433Y37004794D02*
X44973433Y36890508D01*
X44973433Y36890508D02*
X45011529Y36814318D01*
X45011529Y36814318D02*
X45049624Y36776222D01*
X45049624Y36776222D02*
X45125814Y36738127D01*
X45125814Y36738127D02*
X45430576Y36738127D01*
X45430576Y36738127D02*
X45430576Y37538127D01*
X45430576Y37538127D02*
X45163910Y37538127D01*
X45163910Y37538127D02*
X45087719Y37500032D01*
X45087719Y37500032D02*
X45049624Y37461937D01*
X45049624Y37461937D02*
X45011529Y37385746D01*
X45011529Y37385746D02*
X45011529Y37309556D01*
X45011529Y37309556D02*
X45049624Y37233365D01*
X45049624Y37233365D02*
X45087719Y37195270D01*
X45087719Y37195270D02*
X45163910Y37157175D01*
X45163910Y37157175D02*
X45430576Y37157175D01*
X44630576Y36738127D02*
X44630576Y37538127D01*
X44630576Y37538127D02*
X44363910Y36966699D01*
X44363910Y36966699D02*
X44097243Y37538127D01*
X44097243Y37538127D02*
X44097243Y36738127D01*
X43754386Y36776222D02*
X43640100Y36738127D01*
X43640100Y36738127D02*
X43449624Y36738127D01*
X43449624Y36738127D02*
X43373433Y36776222D01*
X43373433Y36776222D02*
X43335338Y36814318D01*
X43335338Y36814318D02*
X43297243Y36890508D01*
X43297243Y36890508D02*
X43297243Y36966699D01*
X43297243Y36966699D02*
X43335338Y37042889D01*
X43335338Y37042889D02*
X43373433Y37080984D01*
X43373433Y37080984D02*
X43449624Y37119080D01*
X43449624Y37119080D02*
X43602005Y37157175D01*
X43602005Y37157175D02*
X43678195Y37195270D01*
X43678195Y37195270D02*
X43716290Y37233365D01*
X43716290Y37233365D02*
X43754386Y37309556D01*
X43754386Y37309556D02*
X43754386Y37385746D01*
X43754386Y37385746D02*
X43716290Y37461937D01*
X43716290Y37461937D02*
X43678195Y37500032D01*
X43678195Y37500032D02*
X43602005Y37538127D01*
X43602005Y37538127D02*
X43411528Y37538127D01*
X43411528Y37538127D02*
X43297243Y37500032D01*
X43144862Y36661937D02*
X42535338Y36661937D01*
X42344861Y36738127D02*
X42344861Y37538127D01*
X42344861Y37538127D02*
X42078195Y36966699D01*
X42078195Y36966699D02*
X41811528Y37538127D01*
X41811528Y37538127D02*
X41811528Y36738127D01*
X41087718Y36738127D02*
X41087718Y37157175D01*
X41087718Y37157175D02*
X41125813Y37233365D01*
X41125813Y37233365D02*
X41202004Y37271461D01*
X41202004Y37271461D02*
X41354385Y37271461D01*
X41354385Y37271461D02*
X41430575Y37233365D01*
X41087718Y36776222D02*
X41163909Y36738127D01*
X41163909Y36738127D02*
X41354385Y36738127D01*
X41354385Y36738127D02*
X41430575Y36776222D01*
X41430575Y36776222D02*
X41468671Y36852413D01*
X41468671Y36852413D02*
X41468671Y36928603D01*
X41468671Y36928603D02*
X41430575Y37004794D01*
X41430575Y37004794D02*
X41354385Y37042889D01*
X41354385Y37042889D02*
X41163909Y37042889D01*
X41163909Y37042889D02*
X41087718Y37080984D01*
X40744861Y36776222D02*
X40668670Y36738127D01*
X40668670Y36738127D02*
X40516289Y36738127D01*
X40516289Y36738127D02*
X40440099Y36776222D01*
X40440099Y36776222D02*
X40402003Y36852413D01*
X40402003Y36852413D02*
X40402003Y36890508D01*
X40402003Y36890508D02*
X40440099Y36966699D01*
X40440099Y36966699D02*
X40516289Y37004794D01*
X40516289Y37004794D02*
X40630575Y37004794D01*
X40630575Y37004794D02*
X40706765Y37042889D01*
X40706765Y37042889D02*
X40744861Y37119080D01*
X40744861Y37119080D02*
X40744861Y37157175D01*
X40744861Y37157175D02*
X40706765Y37233365D01*
X40706765Y37233365D02*
X40630575Y37271461D01*
X40630575Y37271461D02*
X40516289Y37271461D01*
X40516289Y37271461D02*
X40440099Y37233365D01*
X40173432Y37271461D02*
X39868670Y37271461D01*
X40059146Y37538127D02*
X40059146Y36852413D01*
X40059146Y36852413D02*
X40021051Y36776222D01*
X40021051Y36776222D02*
X39944861Y36738127D01*
X39944861Y36738127D02*
X39868670Y36738127D01*
X39297241Y36776222D02*
X39373432Y36738127D01*
X39373432Y36738127D02*
X39525813Y36738127D01*
X39525813Y36738127D02*
X39602003Y36776222D01*
X39602003Y36776222D02*
X39640099Y36852413D01*
X39640099Y36852413D02*
X39640099Y37157175D01*
X39640099Y37157175D02*
X39602003Y37233365D01*
X39602003Y37233365D02*
X39525813Y37271461D01*
X39525813Y37271461D02*
X39373432Y37271461D01*
X39373432Y37271461D02*
X39297241Y37233365D01*
X39297241Y37233365D02*
X39259146Y37157175D01*
X39259146Y37157175D02*
X39259146Y37080984D01*
X39259146Y37080984D02*
X39640099Y37004794D01*
X38916289Y36738127D02*
X38916289Y37271461D01*
X38916289Y37119080D02*
X38878194Y37195270D01*
X38878194Y37195270D02*
X38840099Y37233365D01*
X38840099Y37233365D02*
X38763908Y37271461D01*
X38763908Y37271461D02*
X38687718Y37271461D01*
X45049624Y35450172D02*
X45430576Y35450172D01*
X45430576Y35450172D02*
X45430576Y36250172D01*
X44897243Y36250172D02*
X44440100Y36250172D01*
X44668672Y35450172D02*
X44668672Y36250172D01*
X43716290Y35526363D02*
X43754386Y35488267D01*
X43754386Y35488267D02*
X43868671Y35450172D01*
X43868671Y35450172D02*
X43944862Y35450172D01*
X43944862Y35450172D02*
X44059148Y35488267D01*
X44059148Y35488267D02*
X44135338Y35564458D01*
X44135338Y35564458D02*
X44173433Y35640648D01*
X44173433Y35640648D02*
X44211529Y35793029D01*
X44211529Y35793029D02*
X44211529Y35907315D01*
X44211529Y35907315D02*
X44173433Y36059696D01*
X44173433Y36059696D02*
X44135338Y36135887D01*
X44135338Y36135887D02*
X44059148Y36212077D01*
X44059148Y36212077D02*
X43944862Y36250172D01*
X43944862Y36250172D02*
X43868671Y36250172D01*
X43868671Y36250172D02*
X43754386Y36212077D01*
X43754386Y36212077D02*
X43716290Y36173982D01*
X43030576Y36250172D02*
X43182957Y36250172D01*
X43182957Y36250172D02*
X43259148Y36212077D01*
X43259148Y36212077D02*
X43297243Y36173982D01*
X43297243Y36173982D02*
X43373433Y36059696D01*
X43373433Y36059696D02*
X43411529Y35907315D01*
X43411529Y35907315D02*
X43411529Y35602553D01*
X43411529Y35602553D02*
X43373433Y35526363D01*
X43373433Y35526363D02*
X43335338Y35488267D01*
X43335338Y35488267D02*
X43259148Y35450172D01*
X43259148Y35450172D02*
X43106767Y35450172D01*
X43106767Y35450172D02*
X43030576Y35488267D01*
X43030576Y35488267D02*
X42992481Y35526363D01*
X42992481Y35526363D02*
X42954386Y35602553D01*
X42954386Y35602553D02*
X42954386Y35793029D01*
X42954386Y35793029D02*
X42992481Y35869220D01*
X42992481Y35869220D02*
X43030576Y35907315D01*
X43030576Y35907315D02*
X43106767Y35945410D01*
X43106767Y35945410D02*
X43259148Y35945410D01*
X43259148Y35945410D02*
X43335338Y35907315D01*
X43335338Y35907315D02*
X43373433Y35869220D01*
X43373433Y35869220D02*
X43411529Y35793029D01*
X42497243Y35907315D02*
X42573433Y35945410D01*
X42573433Y35945410D02*
X42611528Y35983506D01*
X42611528Y35983506D02*
X42649624Y36059696D01*
X42649624Y36059696D02*
X42649624Y36097791D01*
X42649624Y36097791D02*
X42611528Y36173982D01*
X42611528Y36173982D02*
X42573433Y36212077D01*
X42573433Y36212077D02*
X42497243Y36250172D01*
X42497243Y36250172D02*
X42344862Y36250172D01*
X42344862Y36250172D02*
X42268671Y36212077D01*
X42268671Y36212077D02*
X42230576Y36173982D01*
X42230576Y36173982D02*
X42192481Y36097791D01*
X42192481Y36097791D02*
X42192481Y36059696D01*
X42192481Y36059696D02*
X42230576Y35983506D01*
X42230576Y35983506D02*
X42268671Y35945410D01*
X42268671Y35945410D02*
X42344862Y35907315D01*
X42344862Y35907315D02*
X42497243Y35907315D01*
X42497243Y35907315D02*
X42573433Y35869220D01*
X42573433Y35869220D02*
X42611528Y35831125D01*
X42611528Y35831125D02*
X42649624Y35754934D01*
X42649624Y35754934D02*
X42649624Y35602553D01*
X42649624Y35602553D02*
X42611528Y35526363D01*
X42611528Y35526363D02*
X42573433Y35488267D01*
X42573433Y35488267D02*
X42497243Y35450172D01*
X42497243Y35450172D02*
X42344862Y35450172D01*
X42344862Y35450172D02*
X42268671Y35488267D01*
X42268671Y35488267D02*
X42230576Y35526363D01*
X42230576Y35526363D02*
X42192481Y35602553D01*
X42192481Y35602553D02*
X42192481Y35754934D01*
X42192481Y35754934D02*
X42230576Y35831125D01*
X42230576Y35831125D02*
X42268671Y35869220D01*
X42268671Y35869220D02*
X42344862Y35907315D01*
X41430576Y35450172D02*
X41887719Y35450172D01*
X41659147Y35450172D02*
X41659147Y36250172D01*
X41659147Y36250172D02*
X41735338Y36135887D01*
X41735338Y36135887D02*
X41811528Y36059696D01*
X41811528Y36059696D02*
X41887719Y36021601D01*
X40668671Y35450172D02*
X41125814Y35450172D01*
X40897242Y35450172D02*
X40897242Y36250172D01*
X40897242Y36250172D02*
X40973433Y36135887D01*
X40973433Y36135887D02*
X41049623Y36059696D01*
X41049623Y36059696D02*
X41125814Y36021601D01*
X40516290Y35373982D02*
X39906766Y35373982D01*
X39716289Y35869220D02*
X39449623Y35869220D01*
X39335337Y35450172D02*
X39716289Y35450172D01*
X39716289Y35450172D02*
X39716289Y36250172D01*
X39716289Y36250172D02*
X39335337Y36250172D01*
X39030575Y35488267D02*
X38916289Y35450172D01*
X38916289Y35450172D02*
X38725813Y35450172D01*
X38725813Y35450172D02*
X38649622Y35488267D01*
X38649622Y35488267D02*
X38611527Y35526363D01*
X38611527Y35526363D02*
X38573432Y35602553D01*
X38573432Y35602553D02*
X38573432Y35678744D01*
X38573432Y35678744D02*
X38611527Y35754934D01*
X38611527Y35754934D02*
X38649622Y35793029D01*
X38649622Y35793029D02*
X38725813Y35831125D01*
X38725813Y35831125D02*
X38878194Y35869220D01*
X38878194Y35869220D02*
X38954384Y35907315D01*
X38954384Y35907315D02*
X38992479Y35945410D01*
X38992479Y35945410D02*
X39030575Y36021601D01*
X39030575Y36021601D02*
X39030575Y36097791D01*
X39030575Y36097791D02*
X38992479Y36173982D01*
X38992479Y36173982D02*
X38954384Y36212077D01*
X38954384Y36212077D02*
X38878194Y36250172D01*
X38878194Y36250172D02*
X38687717Y36250172D01*
X38687717Y36250172D02*
X38573432Y36212077D01*
X38230574Y35450172D02*
X38230574Y36250172D01*
X38230574Y36250172D02*
X37925812Y36250172D01*
X37925812Y36250172D02*
X37849622Y36212077D01*
X37849622Y36212077D02*
X37811527Y36173982D01*
X37811527Y36173982D02*
X37773431Y36097791D01*
X37773431Y36097791D02*
X37773431Y35983506D01*
X37773431Y35983506D02*
X37811527Y35907315D01*
X37811527Y35907315D02*
X37849622Y35869220D01*
X37849622Y35869220D02*
X37925812Y35831125D01*
X37925812Y35831125D02*
X38230574Y35831125D01*
X37506765Y36250172D02*
X37011527Y36250172D01*
X37011527Y36250172D02*
X37278193Y35945410D01*
X37278193Y35945410D02*
X37163908Y35945410D01*
X37163908Y35945410D02*
X37087717Y35907315D01*
X37087717Y35907315D02*
X37049622Y35869220D01*
X37049622Y35869220D02*
X37011527Y35793029D01*
X37011527Y35793029D02*
X37011527Y35602553D01*
X37011527Y35602553D02*
X37049622Y35526363D01*
X37049622Y35526363D02*
X37087717Y35488267D01*
X37087717Y35488267D02*
X37163908Y35450172D01*
X37163908Y35450172D02*
X37392479Y35450172D01*
X37392479Y35450172D02*
X37468670Y35488267D01*
X37468670Y35488267D02*
X37506765Y35526363D01*
X36706765Y36173982D02*
X36668669Y36212077D01*
X36668669Y36212077D02*
X36592479Y36250172D01*
X36592479Y36250172D02*
X36402003Y36250172D01*
X36402003Y36250172D02*
X36325812Y36212077D01*
X36325812Y36212077D02*
X36287717Y36173982D01*
X36287717Y36173982D02*
X36249622Y36097791D01*
X36249622Y36097791D02*
X36249622Y36021601D01*
X36249622Y36021601D02*
X36287717Y35907315D01*
X36287717Y35907315D02*
X36744860Y35450172D01*
X36744860Y35450172D02*
X36249622Y35450172D01*
X36097241Y35373982D02*
X35487717Y35373982D01*
X35411526Y36250172D02*
X35144859Y35450172D01*
X35144859Y35450172D02*
X34878193Y36250172D01*
X34687717Y36250172D02*
X34192479Y36250172D01*
X34192479Y36250172D02*
X34459145Y35945410D01*
X34459145Y35945410D02*
X34344860Y35945410D01*
X34344860Y35945410D02*
X34268669Y35907315D01*
X34268669Y35907315D02*
X34230574Y35869220D01*
X34230574Y35869220D02*
X34192479Y35793029D01*
X34192479Y35793029D02*
X34192479Y35602553D01*
X34192479Y35602553D02*
X34230574Y35526363D01*
X34230574Y35526363D02*
X34268669Y35488267D01*
X34268669Y35488267D02*
X34344860Y35450172D01*
X34344860Y35450172D02*
X34573431Y35450172D01*
X34573431Y35450172D02*
X34649622Y35488267D01*
X34649622Y35488267D02*
X34687717Y35526363D01*
X45468672Y34886027D02*
X45430576Y34924122D01*
X45430576Y34924122D02*
X45354386Y34962217D01*
X45354386Y34962217D02*
X45163910Y34962217D01*
X45163910Y34962217D02*
X45087719Y34924122D01*
X45087719Y34924122D02*
X45049624Y34886027D01*
X45049624Y34886027D02*
X45011529Y34809836D01*
X45011529Y34809836D02*
X45011529Y34733646D01*
X45011529Y34733646D02*
X45049624Y34619360D01*
X45049624Y34619360D02*
X45506767Y34162217D01*
X45506767Y34162217D02*
X45011529Y34162217D01*
X44516290Y34962217D02*
X44440100Y34962217D01*
X44440100Y34962217D02*
X44363909Y34924122D01*
X44363909Y34924122D02*
X44325814Y34886027D01*
X44325814Y34886027D02*
X44287719Y34809836D01*
X44287719Y34809836D02*
X44249624Y34657455D01*
X44249624Y34657455D02*
X44249624Y34466979D01*
X44249624Y34466979D02*
X44287719Y34314598D01*
X44287719Y34314598D02*
X44325814Y34238408D01*
X44325814Y34238408D02*
X44363909Y34200312D01*
X44363909Y34200312D02*
X44440100Y34162217D01*
X44440100Y34162217D02*
X44516290Y34162217D01*
X44516290Y34162217D02*
X44592481Y34200312D01*
X44592481Y34200312D02*
X44630576Y34238408D01*
X44630576Y34238408D02*
X44668671Y34314598D01*
X44668671Y34314598D02*
X44706767Y34466979D01*
X44706767Y34466979D02*
X44706767Y34657455D01*
X44706767Y34657455D02*
X44668671Y34809836D01*
X44668671Y34809836D02*
X44630576Y34886027D01*
X44630576Y34886027D02*
X44592481Y34924122D01*
X44592481Y34924122D02*
X44516290Y34962217D01*
X43944862Y34886027D02*
X43906766Y34924122D01*
X43906766Y34924122D02*
X43830576Y34962217D01*
X43830576Y34962217D02*
X43640100Y34962217D01*
X43640100Y34962217D02*
X43563909Y34924122D01*
X43563909Y34924122D02*
X43525814Y34886027D01*
X43525814Y34886027D02*
X43487719Y34809836D01*
X43487719Y34809836D02*
X43487719Y34733646D01*
X43487719Y34733646D02*
X43525814Y34619360D01*
X43525814Y34619360D02*
X43982957Y34162217D01*
X43982957Y34162217D02*
X43487719Y34162217D01*
X42802004Y34695551D02*
X42802004Y34162217D01*
X42992480Y35000312D02*
X43182957Y34428884D01*
X43182957Y34428884D02*
X42687718Y34428884D01*
X41811528Y35000312D02*
X42497242Y33971741D01*
X41392480Y34962217D02*
X41316290Y34962217D01*
X41316290Y34962217D02*
X41240099Y34924122D01*
X41240099Y34924122D02*
X41202004Y34886027D01*
X41202004Y34886027D02*
X41163909Y34809836D01*
X41163909Y34809836D02*
X41125814Y34657455D01*
X41125814Y34657455D02*
X41125814Y34466979D01*
X41125814Y34466979D02*
X41163909Y34314598D01*
X41163909Y34314598D02*
X41202004Y34238408D01*
X41202004Y34238408D02*
X41240099Y34200312D01*
X41240099Y34200312D02*
X41316290Y34162217D01*
X41316290Y34162217D02*
X41392480Y34162217D01*
X41392480Y34162217D02*
X41468671Y34200312D01*
X41468671Y34200312D02*
X41506766Y34238408D01*
X41506766Y34238408D02*
X41544861Y34314598D01*
X41544861Y34314598D02*
X41582957Y34466979D01*
X41582957Y34466979D02*
X41582957Y34657455D01*
X41582957Y34657455D02*
X41544861Y34809836D01*
X41544861Y34809836D02*
X41506766Y34886027D01*
X41506766Y34886027D02*
X41468671Y34924122D01*
X41468671Y34924122D02*
X41392480Y34962217D01*
X40668671Y34619360D02*
X40744861Y34657455D01*
X40744861Y34657455D02*
X40782956Y34695551D01*
X40782956Y34695551D02*
X40821052Y34771741D01*
X40821052Y34771741D02*
X40821052Y34809836D01*
X40821052Y34809836D02*
X40782956Y34886027D01*
X40782956Y34886027D02*
X40744861Y34924122D01*
X40744861Y34924122D02*
X40668671Y34962217D01*
X40668671Y34962217D02*
X40516290Y34962217D01*
X40516290Y34962217D02*
X40440099Y34924122D01*
X40440099Y34924122D02*
X40402004Y34886027D01*
X40402004Y34886027D02*
X40363909Y34809836D01*
X40363909Y34809836D02*
X40363909Y34771741D01*
X40363909Y34771741D02*
X40402004Y34695551D01*
X40402004Y34695551D02*
X40440099Y34657455D01*
X40440099Y34657455D02*
X40516290Y34619360D01*
X40516290Y34619360D02*
X40668671Y34619360D01*
X40668671Y34619360D02*
X40744861Y34581265D01*
X40744861Y34581265D02*
X40782956Y34543170D01*
X40782956Y34543170D02*
X40821052Y34466979D01*
X40821052Y34466979D02*
X40821052Y34314598D01*
X40821052Y34314598D02*
X40782956Y34238408D01*
X40782956Y34238408D02*
X40744861Y34200312D01*
X40744861Y34200312D02*
X40668671Y34162217D01*
X40668671Y34162217D02*
X40516290Y34162217D01*
X40516290Y34162217D02*
X40440099Y34200312D01*
X40440099Y34200312D02*
X40402004Y34238408D01*
X40402004Y34238408D02*
X40363909Y34314598D01*
X40363909Y34314598D02*
X40363909Y34466979D01*
X40363909Y34466979D02*
X40402004Y34543170D01*
X40402004Y34543170D02*
X40440099Y34581265D01*
X40440099Y34581265D02*
X40516290Y34619360D01*
X39449623Y35000312D02*
X40135337Y33971741D01*
X39030575Y34962217D02*
X38954385Y34962217D01*
X38954385Y34962217D02*
X38878194Y34924122D01*
X38878194Y34924122D02*
X38840099Y34886027D01*
X38840099Y34886027D02*
X38802004Y34809836D01*
X38802004Y34809836D02*
X38763909Y34657455D01*
X38763909Y34657455D02*
X38763909Y34466979D01*
X38763909Y34466979D02*
X38802004Y34314598D01*
X38802004Y34314598D02*
X38840099Y34238408D01*
X38840099Y34238408D02*
X38878194Y34200312D01*
X38878194Y34200312D02*
X38954385Y34162217D01*
X38954385Y34162217D02*
X39030575Y34162217D01*
X39030575Y34162217D02*
X39106766Y34200312D01*
X39106766Y34200312D02*
X39144861Y34238408D01*
X39144861Y34238408D02*
X39182956Y34314598D01*
X39182956Y34314598D02*
X39221052Y34466979D01*
X39221052Y34466979D02*
X39221052Y34657455D01*
X39221052Y34657455D02*
X39182956Y34809836D01*
X39182956Y34809836D02*
X39144861Y34886027D01*
X39144861Y34886027D02*
X39106766Y34924122D01*
X39106766Y34924122D02*
X39030575Y34962217D01*
X38078194Y34962217D02*
X38230575Y34962217D01*
X38230575Y34962217D02*
X38306766Y34924122D01*
X38306766Y34924122D02*
X38344861Y34886027D01*
X38344861Y34886027D02*
X38421051Y34771741D01*
X38421051Y34771741D02*
X38459147Y34619360D01*
X38459147Y34619360D02*
X38459147Y34314598D01*
X38459147Y34314598D02*
X38421051Y34238408D01*
X38421051Y34238408D02*
X38382956Y34200312D01*
X38382956Y34200312D02*
X38306766Y34162217D01*
X38306766Y34162217D02*
X38154385Y34162217D01*
X38154385Y34162217D02*
X38078194Y34200312D01*
X38078194Y34200312D02*
X38040099Y34238408D01*
X38040099Y34238408D02*
X38002004Y34314598D01*
X38002004Y34314598D02*
X38002004Y34505074D01*
X38002004Y34505074D02*
X38040099Y34581265D01*
X38040099Y34581265D02*
X38078194Y34619360D01*
X38078194Y34619360D02*
X38154385Y34657455D01*
X38154385Y34657455D02*
X38306766Y34657455D01*
X38306766Y34657455D02*
X38382956Y34619360D01*
X38382956Y34619360D02*
X38421051Y34581265D01*
X38421051Y34581265D02*
X38459147Y34505074D01*
D11*
%TO.C,LOGO2*%
X42397370Y40597405D02*
X42412067Y40576245D01*
X42454862Y40514302D01*
X42494759Y40456076D01*
X42530621Y40403260D01*
X42561311Y40357544D01*
X42585690Y40320619D01*
X42602621Y40294176D01*
X42610967Y40279905D01*
X42616447Y40266522D01*
X42625586Y40225058D01*
X42626565Y40181354D01*
X42618904Y40143661D01*
X42618078Y40142054D01*
X42609359Y40128107D01*
X42591793Y40101316D01*
X42565951Y40062520D01*
X42532403Y40012560D01*
X42491718Y39952275D01*
X42444467Y39882504D01*
X42391219Y39804089D01*
X42332546Y39717868D01*
X42269016Y39624682D01*
X42201200Y39525370D01*
X42129668Y39420772D01*
X42054990Y39311727D01*
X41977736Y39199076D01*
X41950912Y39159998D01*
X41874659Y39049001D01*
X41801197Y38942204D01*
X41731091Y38840422D01*
X41664904Y38744468D01*
X41603203Y38655157D01*
X41546551Y38573303D01*
X41495512Y38499721D01*
X41450653Y38435225D01*
X41412537Y38380630D01*
X41381729Y38336749D01*
X41358793Y38304397D01*
X41344295Y38284389D01*
X41338798Y38277539D01*
X41338591Y38278176D01*
X41337853Y38290983D01*
X41337140Y38319548D01*
X41336456Y38362946D01*
X41335808Y38420257D01*
X41335199Y38490557D01*
X41334634Y38572923D01*
X41334117Y38666433D01*
X41333655Y38770164D01*
X41333250Y38883194D01*
X41332909Y39004601D01*
X41332635Y39133460D01*
X41332434Y39268851D01*
X41332309Y39409849D01*
X41332267Y39555533D01*
X41332267Y40833528D01*
X41352695Y40857283D01*
X41373123Y40881039D01*
X42200100Y40881039D01*
X42397370Y40597405D01*
G36*
X42397370Y40597405D02*
G01*
X42412067Y40576245D01*
X42454862Y40514302D01*
X42494759Y40456076D01*
X42530621Y40403260D01*
X42561311Y40357544D01*
X42585690Y40320619D01*
X42602621Y40294176D01*
X42610967Y40279905D01*
X42616447Y40266522D01*
X42625586Y40225058D01*
X42626565Y40181354D01*
X42618904Y40143661D01*
X42618078Y40142054D01*
X42609359Y40128107D01*
X42591793Y40101316D01*
X42565951Y40062520D01*
X42532403Y40012560D01*
X42491718Y39952275D01*
X42444467Y39882504D01*
X42391219Y39804089D01*
X42332546Y39717868D01*
X42269016Y39624682D01*
X42201200Y39525370D01*
X42129668Y39420772D01*
X42054990Y39311727D01*
X41977736Y39199076D01*
X41950912Y39159998D01*
X41874659Y39049001D01*
X41801197Y38942204D01*
X41731091Y38840422D01*
X41664904Y38744468D01*
X41603203Y38655157D01*
X41546551Y38573303D01*
X41495512Y38499721D01*
X41450653Y38435225D01*
X41412537Y38380630D01*
X41381729Y38336749D01*
X41358793Y38304397D01*
X41344295Y38284389D01*
X41338798Y38277539D01*
X41338591Y38278176D01*
X41337853Y38290983D01*
X41337140Y38319548D01*
X41336456Y38362946D01*
X41335808Y38420257D01*
X41335199Y38490557D01*
X41334634Y38572923D01*
X41334117Y38666433D01*
X41333655Y38770164D01*
X41333250Y38883194D01*
X41332909Y39004601D01*
X41332635Y39133460D01*
X41332434Y39268851D01*
X41332309Y39409849D01*
X41332267Y39555533D01*
X41332267Y40833528D01*
X41352695Y40857283D01*
X41373123Y40881039D01*
X42200100Y40881039D01*
X42397370Y40597405D01*
G37*
X41238971Y42273893D02*
X41241046Y42271770D01*
X41252003Y42257628D01*
X41271194Y42231415D01*
X41297727Y42194418D01*
X41330711Y42147926D01*
X41369255Y42093226D01*
X41412466Y42031607D01*
X41459454Y41964357D01*
X41509327Y41892765D01*
X41561193Y41818119D01*
X41614162Y41741707D01*
X41667341Y41664817D01*
X41719839Y41588737D01*
X41770765Y41514756D01*
X41819226Y41444163D01*
X41864333Y41378244D01*
X41905193Y41318289D01*
X41940914Y41265586D01*
X41970606Y41221423D01*
X41993377Y41187089D01*
X42008335Y41163871D01*
X42014589Y41153057D01*
X42014785Y41151537D01*
X42013046Y41149421D01*
X42007975Y41147562D01*
X41998601Y41145942D01*
X41983952Y41144547D01*
X41963056Y41143358D01*
X41934942Y41142361D01*
X41898638Y41141538D01*
X41853173Y41140873D01*
X41797576Y41140350D01*
X41730874Y41139953D01*
X41652097Y41139664D01*
X41560272Y41139468D01*
X41454429Y41139348D01*
X41333596Y41139288D01*
X41196800Y41139272D01*
X41138578Y41139275D01*
X41008247Y41139311D01*
X40893487Y41139400D01*
X40793330Y41139560D01*
X40706812Y41139804D01*
X40632965Y41140149D01*
X40570824Y41140612D01*
X40519421Y41141207D01*
X40477791Y41141951D01*
X40444968Y41142858D01*
X40419985Y41143946D01*
X40401876Y41145230D01*
X40389674Y41146726D01*
X40382414Y41148448D01*
X40379128Y41150414D01*
X40378851Y41152640D01*
X40380250Y41155349D01*
X40390123Y41171130D01*
X40408415Y41198830D01*
X40434227Y41237156D01*
X40466655Y41284815D01*
X40504800Y41340513D01*
X40547760Y41402956D01*
X40594634Y41470853D01*
X40644521Y41542908D01*
X40696519Y41617830D01*
X40749728Y41694325D01*
X40803247Y41771099D01*
X40856173Y41846859D01*
X40907607Y41920312D01*
X40956647Y41990164D01*
X41002391Y42055123D01*
X41043939Y42113895D01*
X41080389Y42165186D01*
X41110841Y42207704D01*
X41134393Y42240154D01*
X41150144Y42261245D01*
X41157193Y42269682D01*
X41177748Y42278798D01*
X41209730Y42281661D01*
X41238971Y42273893D01*
G36*
X41238971Y42273893D02*
G01*
X41241046Y42271770D01*
X41252003Y42257628D01*
X41271194Y42231415D01*
X41297727Y42194418D01*
X41330711Y42147926D01*
X41369255Y42093226D01*
X41412466Y42031607D01*
X41459454Y41964357D01*
X41509327Y41892765D01*
X41561193Y41818119D01*
X41614162Y41741707D01*
X41667341Y41664817D01*
X41719839Y41588737D01*
X41770765Y41514756D01*
X41819226Y41444163D01*
X41864333Y41378244D01*
X41905193Y41318289D01*
X41940914Y41265586D01*
X41970606Y41221423D01*
X41993377Y41187089D01*
X42008335Y41163871D01*
X42014589Y41153057D01*
X42014785Y41151537D01*
X42013046Y41149421D01*
X42007975Y41147562D01*
X41998601Y41145942D01*
X41983952Y41144547D01*
X41963056Y41143358D01*
X41934942Y41142361D01*
X41898638Y41141538D01*
X41853173Y41140873D01*
X41797576Y41140350D01*
X41730874Y41139953D01*
X41652097Y41139664D01*
X41560272Y41139468D01*
X41454429Y41139348D01*
X41333596Y41139288D01*
X41196800Y41139272D01*
X41138578Y41139275D01*
X41008247Y41139311D01*
X40893487Y41139400D01*
X40793330Y41139560D01*
X40706812Y41139804D01*
X40632965Y41140149D01*
X40570824Y41140612D01*
X40519421Y41141207D01*
X40477791Y41141951D01*
X40444968Y41142858D01*
X40419985Y41143946D01*
X40401876Y41145230D01*
X40389674Y41146726D01*
X40382414Y41148448D01*
X40379128Y41150414D01*
X40378851Y41152640D01*
X40380250Y41155349D01*
X40390123Y41171130D01*
X40408415Y41198830D01*
X40434227Y41237156D01*
X40466655Y41284815D01*
X40504800Y41340513D01*
X40547760Y41402956D01*
X40594634Y41470853D01*
X40644521Y41542908D01*
X40696519Y41617830D01*
X40749728Y41694325D01*
X40803247Y41771099D01*
X40856173Y41846859D01*
X40907607Y41920312D01*
X40956647Y41990164D01*
X41002391Y42055123D01*
X41043939Y42113895D01*
X41080389Y42165186D01*
X41110841Y42207704D01*
X41134393Y42240154D01*
X41150144Y42261245D01*
X41157193Y42269682D01*
X41177748Y42278798D01*
X41209730Y42281661D01*
X41238971Y42273893D01*
G37*
X40634853Y40876776D02*
X40727311Y40876466D01*
X40808914Y40875832D01*
X40878651Y40874896D01*
X40935507Y40873677D01*
X40978471Y40872194D01*
X41006528Y40870468D01*
X41018666Y40868518D01*
X41018970Y40868351D01*
X41032512Y40854553D01*
X41043510Y40833387D01*
X41044483Y40827843D01*
X41045796Y40810019D01*
X41046986Y40780263D01*
X41048058Y40738159D01*
X41049012Y40683291D01*
X41049854Y40615240D01*
X41050585Y40533591D01*
X41051208Y40437927D01*
X41051728Y40327830D01*
X41052146Y40202885D01*
X41052466Y40062673D01*
X41052691Y39906779D01*
X41052823Y39734785D01*
X41052867Y39546275D01*
X41052866Y39520550D01*
X41052809Y39376655D01*
X41052673Y39237616D01*
X41052462Y39104363D01*
X41052180Y38977824D01*
X41051832Y38858929D01*
X41051424Y38748606D01*
X41050959Y38647785D01*
X41050442Y38557395D01*
X41049878Y38478363D01*
X41049272Y38411621D01*
X41048628Y38358095D01*
X41047951Y38318716D01*
X41047246Y38294412D01*
X41046517Y38286113D01*
X41046460Y38286123D01*
X41040092Y38293483D01*
X41024947Y38313849D01*
X41001701Y38346227D01*
X40971032Y38389628D01*
X40933617Y38443059D01*
X40890132Y38505528D01*
X40841254Y38576045D01*
X40787660Y38653617D01*
X40730026Y38737254D01*
X40669030Y38825962D01*
X40605349Y38918752D01*
X40539658Y39014630D01*
X40472636Y39112607D01*
X40404958Y39211689D01*
X40337302Y39310886D01*
X40270344Y39409206D01*
X40204761Y39505657D01*
X40141230Y39599248D01*
X40080428Y39688987D01*
X40023032Y39773883D01*
X39969718Y39852944D01*
X39921164Y39925178D01*
X39878045Y39989594D01*
X39841040Y40045201D01*
X39810824Y40091006D01*
X39788074Y40126018D01*
X39773468Y40149246D01*
X39767682Y40159698D01*
X39761493Y40192523D01*
X39764524Y40242597D01*
X39781221Y40289029D01*
X39782680Y40291507D01*
X39793331Y40308031D01*
X39812180Y40336295D01*
X39838106Y40374648D01*
X39869984Y40421440D01*
X39906691Y40475021D01*
X39947105Y40533740D01*
X39990101Y40595946D01*
X40184636Y40876805D01*
X40593908Y40876805D01*
X40634853Y40876776D01*
G36*
X40634853Y40876776D02*
G01*
X40727311Y40876466D01*
X40808914Y40875832D01*
X40878651Y40874896D01*
X40935507Y40873677D01*
X40978471Y40872194D01*
X41006528Y40870468D01*
X41018666Y40868518D01*
X41018970Y40868351D01*
X41032512Y40854553D01*
X41043510Y40833387D01*
X41044483Y40827843D01*
X41045796Y40810019D01*
X41046986Y40780263D01*
X41048058Y40738159D01*
X41049012Y40683291D01*
X41049854Y40615240D01*
X41050585Y40533591D01*
X41051208Y40437927D01*
X41051728Y40327830D01*
X41052146Y40202885D01*
X41052466Y40062673D01*
X41052691Y39906779D01*
X41052823Y39734785D01*
X41052867Y39546275D01*
X41052866Y39520550D01*
X41052809Y39376655D01*
X41052673Y39237616D01*
X41052462Y39104363D01*
X41052180Y38977824D01*
X41051832Y38858929D01*
X41051424Y38748606D01*
X41050959Y38647785D01*
X41050442Y38557395D01*
X41049878Y38478363D01*
X41049272Y38411621D01*
X41048628Y38358095D01*
X41047951Y38318716D01*
X41047246Y38294412D01*
X41046517Y38286113D01*
X41046460Y38286123D01*
X41040092Y38293483D01*
X41024947Y38313849D01*
X41001701Y38346227D01*
X40971032Y38389628D01*
X40933617Y38443059D01*
X40890132Y38505528D01*
X40841254Y38576045D01*
X40787660Y38653617D01*
X40730026Y38737254D01*
X40669030Y38825962D01*
X40605349Y38918752D01*
X40539658Y39014630D01*
X40472636Y39112607D01*
X40404958Y39211689D01*
X40337302Y39310886D01*
X40270344Y39409206D01*
X40204761Y39505657D01*
X40141230Y39599248D01*
X40080428Y39688987D01*
X40023032Y39773883D01*
X39969718Y39852944D01*
X39921164Y39925178D01*
X39878045Y39989594D01*
X39841040Y40045201D01*
X39810824Y40091006D01*
X39788074Y40126018D01*
X39773468Y40149246D01*
X39767682Y40159698D01*
X39761493Y40192523D01*
X39764524Y40242597D01*
X39781221Y40289029D01*
X39782680Y40291507D01*
X39793331Y40308031D01*
X39812180Y40336295D01*
X39838106Y40374648D01*
X39869984Y40421440D01*
X39906691Y40475021D01*
X39947105Y40533740D01*
X39990101Y40595946D01*
X40184636Y40876805D01*
X40593908Y40876805D01*
X40634853Y40876776D01*
G37*
X38634558Y40510693D02*
X38641690Y40510483D01*
X38717950Y40507048D01*
X38781423Y40501346D01*
X38835875Y40492620D01*
X38885071Y40480113D01*
X38932780Y40463068D01*
X38982767Y40440728D01*
X38996714Y40433797D01*
X39082317Y40380673D01*
X39156904Y40314883D01*
X39220032Y40236959D01*
X39271259Y40147434D01*
X39310141Y40046840D01*
X39329585Y39983572D01*
X39332104Y39167701D01*
X39332435Y39048714D01*
X39332695Y38916234D01*
X39332783Y38799437D01*
X39332695Y38697633D01*
X39332423Y38610132D01*
X39331961Y38536243D01*
X39331304Y38475276D01*
X39330445Y38426539D01*
X39329379Y38389341D01*
X39328099Y38362994D01*
X39326599Y38346805D01*
X39324874Y38340084D01*
X39324229Y38339374D01*
X39313961Y38334168D01*
X39293887Y38330761D01*
X39261642Y38328902D01*
X39214861Y38328339D01*
X39199463Y38328359D01*
X39161128Y38328810D01*
X39135671Y38330210D01*
X39120018Y38333020D01*
X39111096Y38337701D01*
X39105831Y38344716D01*
X39104991Y38348128D01*
X39103322Y38367742D01*
X39101847Y38404124D01*
X39100565Y38457292D01*
X39099476Y38527269D01*
X39098580Y38614075D01*
X39097877Y38717730D01*
X39097366Y38838255D01*
X39097047Y38975671D01*
X39096920Y39129999D01*
X39096855Y39263946D01*
X39096700Y39385061D01*
X39096441Y39491247D01*
X39096064Y39583518D01*
X39095553Y39662887D01*
X39094894Y39730368D01*
X39094072Y39786974D01*
X39093072Y39833718D01*
X39091879Y39871613D01*
X39090480Y39901672D01*
X39088858Y39924910D01*
X39086999Y39942339D01*
X39084889Y39954972D01*
X39078800Y39979971D01*
X39050553Y40054319D01*
X39009762Y40120296D01*
X38958015Y40175678D01*
X38896897Y40218244D01*
X38871329Y40231139D01*
X38834256Y40245756D01*
X38794152Y40256059D01*
X38747567Y40262660D01*
X38691051Y40266171D01*
X38621155Y40267206D01*
X38569640Y40267282D01*
X38525681Y40268505D01*
X38494509Y40272482D01*
X38473927Y40280821D01*
X38461741Y40295131D01*
X38455755Y40317020D01*
X38453773Y40348098D01*
X38453600Y40389972D01*
X38453594Y40399697D01*
X38453922Y40438910D01*
X38456393Y40468065D01*
X38463122Y40488571D01*
X38476220Y40501837D01*
X38497800Y40509273D01*
X38529974Y40512288D01*
X38574856Y40512292D01*
X38634558Y40510693D01*
G36*
X38634558Y40510693D02*
G01*
X38641690Y40510483D01*
X38717950Y40507048D01*
X38781423Y40501346D01*
X38835875Y40492620D01*
X38885071Y40480113D01*
X38932780Y40463068D01*
X38982767Y40440728D01*
X38996714Y40433797D01*
X39082317Y40380673D01*
X39156904Y40314883D01*
X39220032Y40236959D01*
X39271259Y40147434D01*
X39310141Y40046840D01*
X39329585Y39983572D01*
X39332104Y39167701D01*
X39332435Y39048714D01*
X39332695Y38916234D01*
X39332783Y38799437D01*
X39332695Y38697633D01*
X39332423Y38610132D01*
X39331961Y38536243D01*
X39331304Y38475276D01*
X39330445Y38426539D01*
X39329379Y38389341D01*
X39328099Y38362994D01*
X39326599Y38346805D01*
X39324874Y38340084D01*
X39324229Y38339374D01*
X39313961Y38334168D01*
X39293887Y38330761D01*
X39261642Y38328902D01*
X39214861Y38328339D01*
X39199463Y38328359D01*
X39161128Y38328810D01*
X39135671Y38330210D01*
X39120018Y38333020D01*
X39111096Y38337701D01*
X39105831Y38344716D01*
X39104991Y38348128D01*
X39103322Y38367742D01*
X39101847Y38404124D01*
X39100565Y38457292D01*
X39099476Y38527269D01*
X39098580Y38614075D01*
X39097877Y38717730D01*
X39097366Y38838255D01*
X39097047Y38975671D01*
X39096920Y39129999D01*
X39096855Y39263946D01*
X39096700Y39385061D01*
X39096441Y39491247D01*
X39096064Y39583518D01*
X39095553Y39662887D01*
X39094894Y39730368D01*
X39094072Y39786974D01*
X39093072Y39833718D01*
X39091879Y39871613D01*
X39090480Y39901672D01*
X39088858Y39924910D01*
X39086999Y39942339D01*
X39084889Y39954972D01*
X39078800Y39979971D01*
X39050553Y40054319D01*
X39009762Y40120296D01*
X38958015Y40175678D01*
X38896897Y40218244D01*
X38871329Y40231139D01*
X38834256Y40245756D01*
X38794152Y40256059D01*
X38747567Y40262660D01*
X38691051Y40266171D01*
X38621155Y40267206D01*
X38569640Y40267282D01*
X38525681Y40268505D01*
X38494509Y40272482D01*
X38473927Y40280821D01*
X38461741Y40295131D01*
X38455755Y40317020D01*
X38453773Y40348098D01*
X38453600Y40389972D01*
X38453594Y40399697D01*
X38453922Y40438910D01*
X38456393Y40468065D01*
X38463122Y40488571D01*
X38476220Y40501837D01*
X38497800Y40509273D01*
X38529974Y40512288D01*
X38574856Y40512292D01*
X38634558Y40510693D01*
G37*
X45503342Y41107577D02*
X45529158Y41097389D01*
X45566820Y41079776D01*
X45587524Y41069452D01*
X45622147Y41051016D01*
X45650775Y41034347D01*
X45668715Y41022103D01*
X45692600Y41002300D01*
X45692600Y40504272D01*
X45831820Y40504272D01*
X45883144Y40504224D01*
X45926700Y40503115D01*
X45957500Y40499367D01*
X45977750Y40491400D01*
X45989658Y40477633D01*
X45995431Y40456488D01*
X45997276Y40426383D01*
X45997400Y40385739D01*
X45997333Y40348998D01*
X45995784Y40317817D01*
X45990548Y40295769D01*
X45979419Y40281273D01*
X45960188Y40272748D01*
X45930650Y40268616D01*
X45888596Y40267295D01*
X45831820Y40267205D01*
X45692600Y40267205D01*
X45692600Y39599448D01*
X45692590Y39535287D01*
X45692500Y39416935D01*
X45692299Y39313754D01*
X45691966Y39224563D01*
X45691482Y39148181D01*
X45690826Y39083426D01*
X45689976Y39029117D01*
X45688913Y38984074D01*
X45687617Y38947115D01*
X45686066Y38917059D01*
X45684239Y38892725D01*
X45682117Y38872931D01*
X45679679Y38856498D01*
X45677474Y38844086D01*
X45650624Y38733720D01*
X45613013Y38636224D01*
X45564715Y38551694D01*
X45505809Y38480223D01*
X45436371Y38421906D01*
X45356476Y38376839D01*
X45266202Y38345115D01*
X45265923Y38345042D01*
X45231014Y38337975D01*
X45189918Y38332777D01*
X45146458Y38329553D01*
X45104457Y38328408D01*
X45067736Y38329447D01*
X45040119Y38332776D01*
X45025427Y38338499D01*
X45020810Y38351001D01*
X45017437Y38376161D01*
X45015441Y38409642D01*
X45014816Y38447243D01*
X45015552Y38484763D01*
X45017642Y38518003D01*
X45021078Y38542762D01*
X45025850Y38554841D01*
X45030942Y38557038D01*
X45051025Y38561107D01*
X45081353Y38564732D01*
X45117605Y38567325D01*
X45142935Y38568875D01*
X45183228Y38573479D01*
X45215624Y38581132D01*
X45246088Y38593028D01*
X45267551Y38603843D01*
X45323934Y38644136D01*
X45370513Y38697467D01*
X45407667Y38764339D01*
X45435773Y38845253D01*
X45438166Y38855072D01*
X45440560Y38867878D01*
X45442647Y38883609D01*
X45444455Y38903430D01*
X45446013Y38928511D01*
X45447348Y38960019D01*
X45448487Y38999120D01*
X45449459Y39046983D01*
X45450292Y39104774D01*
X45451012Y39173662D01*
X45451648Y39254813D01*
X45452227Y39349395D01*
X45452778Y39458576D01*
X45453327Y39583522D01*
X45456194Y40267205D01*
X45270077Y40267205D01*
X45258413Y40267200D01*
X45195548Y40267162D01*
X45147354Y40267897D01*
X45111887Y40270490D01*
X45087206Y40276025D01*
X45071369Y40285584D01*
X45062431Y40300251D01*
X45058452Y40321110D01*
X45057490Y40349245D01*
X45057600Y40385739D01*
X45057591Y40391813D01*
X45057520Y40427010D01*
X45058820Y40453995D01*
X45063436Y40473856D01*
X45073311Y40487679D01*
X45090390Y40496551D01*
X45116618Y40501560D01*
X45153939Y40503791D01*
X45204298Y40504333D01*
X45269639Y40504272D01*
X45455317Y40504272D01*
X45457542Y40801802D01*
X45457716Y40824647D01*
X45458375Y40899733D01*
X45459116Y40960015D01*
X45460030Y41007171D01*
X45461209Y41042880D01*
X45462744Y41068822D01*
X45464728Y41086674D01*
X45467252Y41098117D01*
X45470408Y41104829D01*
X45474288Y41108489D01*
X45475655Y41109269D01*
X45486474Y41111237D01*
X45503342Y41107577D01*
G36*
X45503342Y41107577D02*
G01*
X45529158Y41097389D01*
X45566820Y41079776D01*
X45587524Y41069452D01*
X45622147Y41051016D01*
X45650775Y41034347D01*
X45668715Y41022103D01*
X45692600Y41002300D01*
X45692600Y40504272D01*
X45831820Y40504272D01*
X45883144Y40504224D01*
X45926700Y40503115D01*
X45957500Y40499367D01*
X45977750Y40491400D01*
X45989658Y40477633D01*
X45995431Y40456488D01*
X45997276Y40426383D01*
X45997400Y40385739D01*
X45997333Y40348998D01*
X45995784Y40317817D01*
X45990548Y40295769D01*
X45979419Y40281273D01*
X45960188Y40272748D01*
X45930650Y40268616D01*
X45888596Y40267295D01*
X45831820Y40267205D01*
X45692600Y40267205D01*
X45692600Y39599448D01*
X45692590Y39535287D01*
X45692500Y39416935D01*
X45692299Y39313754D01*
X45691966Y39224563D01*
X45691482Y39148181D01*
X45690826Y39083426D01*
X45689976Y39029117D01*
X45688913Y38984074D01*
X45687617Y38947115D01*
X45686066Y38917059D01*
X45684239Y38892725D01*
X45682117Y38872931D01*
X45679679Y38856498D01*
X45677474Y38844086D01*
X45650624Y38733720D01*
X45613013Y38636224D01*
X45564715Y38551694D01*
X45505809Y38480223D01*
X45436371Y38421906D01*
X45356476Y38376839D01*
X45266202Y38345115D01*
X45265923Y38345042D01*
X45231014Y38337975D01*
X45189918Y38332777D01*
X45146458Y38329553D01*
X45104457Y38328408D01*
X45067736Y38329447D01*
X45040119Y38332776D01*
X45025427Y38338499D01*
X45020810Y38351001D01*
X45017437Y38376161D01*
X45015441Y38409642D01*
X45014816Y38447243D01*
X45015552Y38484763D01*
X45017642Y38518003D01*
X45021078Y38542762D01*
X45025850Y38554841D01*
X45030942Y38557038D01*
X45051025Y38561107D01*
X45081353Y38564732D01*
X45117605Y38567325D01*
X45142935Y38568875D01*
X45183228Y38573479D01*
X45215624Y38581132D01*
X45246088Y38593028D01*
X45267551Y38603843D01*
X45323934Y38644136D01*
X45370513Y38697467D01*
X45407667Y38764339D01*
X45435773Y38845253D01*
X45438166Y38855072D01*
X45440560Y38867878D01*
X45442647Y38883609D01*
X45444455Y38903430D01*
X45446013Y38928511D01*
X45447348Y38960019D01*
X45448487Y38999120D01*
X45449459Y39046983D01*
X45450292Y39104774D01*
X45451012Y39173662D01*
X45451648Y39254813D01*
X45452227Y39349395D01*
X45452778Y39458576D01*
X45453327Y39583522D01*
X45456194Y40267205D01*
X45270077Y40267205D01*
X45258413Y40267200D01*
X45195548Y40267162D01*
X45147354Y40267897D01*
X45111887Y40270490D01*
X45087206Y40276025D01*
X45071369Y40285584D01*
X45062431Y40300251D01*
X45058452Y40321110D01*
X45057490Y40349245D01*
X45057600Y40385739D01*
X45057591Y40391813D01*
X45057520Y40427010D01*
X45058820Y40453995D01*
X45063436Y40473856D01*
X45073311Y40487679D01*
X45090390Y40496551D01*
X45116618Y40501560D01*
X45153939Y40503791D01*
X45204298Y40504333D01*
X45269639Y40504272D01*
X45455317Y40504272D01*
X45457542Y40801802D01*
X45457716Y40824647D01*
X45458375Y40899733D01*
X45459116Y40960015D01*
X45460030Y41007171D01*
X45461209Y41042880D01*
X45462744Y41068822D01*
X45464728Y41086674D01*
X45467252Y41098117D01*
X45470408Y41104829D01*
X45474288Y41108489D01*
X45475655Y41109269D01*
X45486474Y41111237D01*
X45503342Y41107577D01*
G37*
X37945579Y38883609D02*
X37944318Y38872003D01*
X37934486Y38803783D01*
X37920590Y38744600D01*
X37900722Y38687693D01*
X37872972Y38626299D01*
X37823458Y38543480D01*
X37760325Y38469054D01*
X37685998Y38405813D01*
X37602112Y38354932D01*
X37510302Y38317588D01*
X37412200Y38294954D01*
X37411015Y38294780D01*
X37306433Y38287807D01*
X37201023Y38296655D01*
X37098933Y38320981D01*
X37021988Y38352068D01*
X36939338Y38401621D01*
X36866133Y38464047D01*
X36803390Y38538114D01*
X36752127Y38622592D01*
X36713363Y38716249D01*
X36688117Y38817854D01*
X36686216Y38829783D01*
X36683788Y38849059D01*
X36681754Y38871731D01*
X36680094Y38899154D01*
X36678783Y38932681D01*
X36677800Y38973665D01*
X36677121Y39023460D01*
X36676724Y39083419D01*
X36676586Y39154897D01*
X36676685Y39239247D01*
X36676998Y39337822D01*
X36677027Y39344339D01*
X36920016Y39344339D01*
X36923130Y39088222D01*
X36924049Y39017132D01*
X36925022Y38958289D01*
X36926178Y38912087D01*
X36927679Y38876345D01*
X36929684Y38848882D01*
X36932354Y38827518D01*
X36935850Y38810072D01*
X36940333Y38794363D01*
X36945963Y38778211D01*
X36969780Y38727417D01*
X37003929Y38675226D01*
X37043676Y38628800D01*
X37084898Y38593618D01*
X37107182Y38580302D01*
X37144381Y38562383D01*
X37181039Y38548571D01*
X37204288Y38542587D01*
X37260905Y38534436D01*
X37323259Y38532078D01*
X37384455Y38535606D01*
X37437600Y38545112D01*
X37454733Y38550141D01*
X37523848Y38580732D01*
X37583541Y38624742D01*
X37633074Y38681180D01*
X37671708Y38749056D01*
X37698705Y38827378D01*
X37713327Y38915156D01*
X37713907Y38922373D01*
X37712402Y39000830D01*
X37697267Y39076017D01*
X37669668Y39145582D01*
X37630773Y39207171D01*
X37581751Y39258432D01*
X37523769Y39297011D01*
X37504601Y39306408D01*
X37478208Y39317762D01*
X37451495Y39326624D01*
X37422090Y39333294D01*
X37387620Y39338075D01*
X37345711Y39341268D01*
X37293992Y39343175D01*
X37230089Y39344098D01*
X37151629Y39344339D01*
X36920016Y39344339D01*
X36677027Y39344339D01*
X36677502Y39451976D01*
X36680196Y40008972D01*
X36703783Y40084857D01*
X36741682Y40184441D01*
X36791839Y40275239D01*
X36853030Y40353208D01*
X36925292Y40418385D01*
X37008659Y40470809D01*
X37103167Y40510515D01*
X37130760Y40519246D01*
X37155423Y40525463D01*
X37180851Y40529512D01*
X37211084Y40531857D01*
X37250164Y40532960D01*
X37302133Y40533282D01*
X37313734Y40533294D01*
X37362109Y40533048D01*
X37398325Y40531959D01*
X37426353Y40529557D01*
X37450165Y40525373D01*
X37473730Y40518938D01*
X37501019Y40509783D01*
X37591277Y40470628D01*
X37671047Y40419374D01*
X37739965Y40355680D01*
X37798842Y40278796D01*
X37848487Y40187971D01*
X37866390Y40144468D01*
X37882863Y40094681D01*
X37896420Y40043606D01*
X37906570Y39994106D01*
X37912821Y39949044D01*
X37914683Y39911280D01*
X37911662Y39883678D01*
X37903267Y39869099D01*
X37893780Y39865880D01*
X37869732Y39862664D01*
X37837023Y39860927D01*
X37799915Y39860606D01*
X37762665Y39861638D01*
X37729534Y39863960D01*
X37704782Y39867508D01*
X37692668Y39872219D01*
X37690509Y39876030D01*
X37684182Y39894912D01*
X37677025Y39924079D01*
X37670211Y39959002D01*
X37666343Y39979478D01*
X37642062Y40063742D01*
X37606626Y40135877D01*
X37560410Y40195476D01*
X37503787Y40242134D01*
X37437132Y40275443D01*
X37360819Y40294996D01*
X37336584Y40297987D01*
X37258899Y40297443D01*
X37184545Y40282031D01*
X37115670Y40252841D01*
X37054422Y40210961D01*
X37002948Y40157481D01*
X36963395Y40093489D01*
X36960885Y40088154D01*
X36944378Y40047705D01*
X36931826Y40004795D01*
X36922805Y39956548D01*
X36916889Y39900092D01*
X36913651Y39832550D01*
X36912667Y39751049D01*
X36912667Y39591981D01*
X37164550Y39587688D01*
X37191228Y39587212D01*
X37271272Y39585367D01*
X37337576Y39582845D01*
X37392603Y39579242D01*
X37438815Y39574153D01*
X37478675Y39567175D01*
X37514647Y39557902D01*
X37549195Y39545930D01*
X37584780Y39530856D01*
X37623867Y39512274D01*
X37655207Y39495277D01*
X37726142Y39444657D01*
X37791001Y39381642D01*
X37847260Y39309287D01*
X37892396Y39230652D01*
X37923886Y39148791D01*
X37928403Y39132062D01*
X37943069Y39052073D01*
X37949006Y38966669D01*
X37947178Y38922373D01*
X37945579Y38883609D01*
G36*
X37945579Y38883609D02*
G01*
X37944318Y38872003D01*
X37934486Y38803783D01*
X37920590Y38744600D01*
X37900722Y38687693D01*
X37872972Y38626299D01*
X37823458Y38543480D01*
X37760325Y38469054D01*
X37685998Y38405813D01*
X37602112Y38354932D01*
X37510302Y38317588D01*
X37412200Y38294954D01*
X37411015Y38294780D01*
X37306433Y38287807D01*
X37201023Y38296655D01*
X37098933Y38320981D01*
X37021988Y38352068D01*
X36939338Y38401621D01*
X36866133Y38464047D01*
X36803390Y38538114D01*
X36752127Y38622592D01*
X36713363Y38716249D01*
X36688117Y38817854D01*
X36686216Y38829783D01*
X36683788Y38849059D01*
X36681754Y38871731D01*
X36680094Y38899154D01*
X36678783Y38932681D01*
X36677800Y38973665D01*
X36677121Y39023460D01*
X36676724Y39083419D01*
X36676586Y39154897D01*
X36676685Y39239247D01*
X36676998Y39337822D01*
X36677027Y39344339D01*
X36920016Y39344339D01*
X36923130Y39088222D01*
X36924049Y39017132D01*
X36925022Y38958289D01*
X36926178Y38912087D01*
X36927679Y38876345D01*
X36929684Y38848882D01*
X36932354Y38827518D01*
X36935850Y38810072D01*
X36940333Y38794363D01*
X36945963Y38778211D01*
X36969780Y38727417D01*
X37003929Y38675226D01*
X37043676Y38628800D01*
X37084898Y38593618D01*
X37107182Y38580302D01*
X37144381Y38562383D01*
X37181039Y38548571D01*
X37204288Y38542587D01*
X37260905Y38534436D01*
X37323259Y38532078D01*
X37384455Y38535606D01*
X37437600Y38545112D01*
X37454733Y38550141D01*
X37523848Y38580732D01*
X37583541Y38624742D01*
X37633074Y38681180D01*
X37671708Y38749056D01*
X37698705Y38827378D01*
X37713327Y38915156D01*
X37713907Y38922373D01*
X37712402Y39000830D01*
X37697267Y39076017D01*
X37669668Y39145582D01*
X37630773Y39207171D01*
X37581751Y39258432D01*
X37523769Y39297011D01*
X37504601Y39306408D01*
X37478208Y39317762D01*
X37451495Y39326624D01*
X37422090Y39333294D01*
X37387620Y39338075D01*
X37345711Y39341268D01*
X37293992Y39343175D01*
X37230089Y39344098D01*
X37151629Y39344339D01*
X36920016Y39344339D01*
X36677027Y39344339D01*
X36677502Y39451976D01*
X36680196Y40008972D01*
X36703783Y40084857D01*
X36741682Y40184441D01*
X36791839Y40275239D01*
X36853030Y40353208D01*
X36925292Y40418385D01*
X37008659Y40470809D01*
X37103167Y40510515D01*
X37130760Y40519246D01*
X37155423Y40525463D01*
X37180851Y40529512D01*
X37211084Y40531857D01*
X37250164Y40532960D01*
X37302133Y40533282D01*
X37313734Y40533294D01*
X37362109Y40533048D01*
X37398325Y40531959D01*
X37426353Y40529557D01*
X37450165Y40525373D01*
X37473730Y40518938D01*
X37501019Y40509783D01*
X37591277Y40470628D01*
X37671047Y40419374D01*
X37739965Y40355680D01*
X37798842Y40278796D01*
X37848487Y40187971D01*
X37866390Y40144468D01*
X37882863Y40094681D01*
X37896420Y40043606D01*
X37906570Y39994106D01*
X37912821Y39949044D01*
X37914683Y39911280D01*
X37911662Y39883678D01*
X37903267Y39869099D01*
X37893780Y39865880D01*
X37869732Y39862664D01*
X37837023Y39860927D01*
X37799915Y39860606D01*
X37762665Y39861638D01*
X37729534Y39863960D01*
X37704782Y39867508D01*
X37692668Y39872219D01*
X37690509Y39876030D01*
X37684182Y39894912D01*
X37677025Y39924079D01*
X37670211Y39959002D01*
X37666343Y39979478D01*
X37642062Y40063742D01*
X37606626Y40135877D01*
X37560410Y40195476D01*
X37503787Y40242134D01*
X37437132Y40275443D01*
X37360819Y40294996D01*
X37336584Y40297987D01*
X37258899Y40297443D01*
X37184545Y40282031D01*
X37115670Y40252841D01*
X37054422Y40210961D01*
X37002948Y40157481D01*
X36963395Y40093489D01*
X36960885Y40088154D01*
X36944378Y40047705D01*
X36931826Y40004795D01*
X36922805Y39956548D01*
X36916889Y39900092D01*
X36913651Y39832550D01*
X36912667Y39751049D01*
X36912667Y39591981D01*
X37164550Y39587688D01*
X37191228Y39587212D01*
X37271272Y39585367D01*
X37337576Y39582845D01*
X37392603Y39579242D01*
X37438815Y39574153D01*
X37478675Y39567175D01*
X37514647Y39557902D01*
X37549195Y39545930D01*
X37584780Y39530856D01*
X37623867Y39512274D01*
X37655207Y39495277D01*
X37726142Y39444657D01*
X37791001Y39381642D01*
X37847260Y39309287D01*
X37892396Y39230652D01*
X37923886Y39148791D01*
X37928403Y39132062D01*
X37943069Y39052073D01*
X37949006Y38966669D01*
X37947178Y38922373D01*
X37945579Y38883609D01*
G37*
X44333560Y39403606D02*
X44333559Y39398327D01*
X44333520Y39286702D01*
X44333437Y39190619D01*
X44333270Y39108742D01*
X44332980Y39039740D01*
X44332528Y38982278D01*
X44331872Y38935022D01*
X44330975Y38896639D01*
X44329796Y38865796D01*
X44328296Y38841158D01*
X44326435Y38821391D01*
X44324174Y38805163D01*
X44321473Y38791140D01*
X44318293Y38777987D01*
X44314594Y38764372D01*
X44307716Y38740987D01*
X44268699Y38640750D01*
X44217674Y38551529D01*
X44155387Y38474014D01*
X44082584Y38408898D01*
X44000009Y38356872D01*
X43908409Y38318627D01*
X43808528Y38294855D01*
X43799549Y38293600D01*
X43751625Y38290211D01*
X43695158Y38290153D01*
X43636481Y38293141D01*
X43581928Y38298887D01*
X43537833Y38307105D01*
X43520023Y38312170D01*
X43464507Y38332947D01*
X43405988Y38360791D01*
X43351028Y38392380D01*
X43306190Y38424392D01*
X43271423Y38455766D01*
X43207833Y38529398D01*
X43155008Y38614202D01*
X43113895Y38708204D01*
X43085440Y38809426D01*
X43070592Y38915894D01*
X43069060Y38938817D01*
X43068544Y38970267D01*
X43072918Y38991460D01*
X43084590Y39004419D01*
X43105969Y39011168D01*
X43139462Y39013734D01*
X43187480Y39014139D01*
X43218361Y39013844D01*
X43256269Y39011591D01*
X43281368Y39006094D01*
X43296176Y38996155D01*
X43303214Y38980571D01*
X43305000Y38958144D01*
X43305019Y38956513D01*
X43307064Y38932453D01*
X43311835Y38899222D01*
X43318387Y38863499D01*
X43324243Y38837935D01*
X43352302Y38756455D01*
X43392028Y38685970D01*
X43442726Y38627336D01*
X43503699Y38581407D01*
X43574252Y38549039D01*
X43580572Y38547007D01*
X43639351Y38534923D01*
X43705388Y38531146D01*
X43771991Y38535689D01*
X43832466Y38548563D01*
X43837010Y38550016D01*
X43886235Y38571343D01*
X43934990Y38601270D01*
X43977861Y38636027D01*
X44009433Y38671841D01*
X44026445Y38698102D01*
X44051388Y38745117D01*
X44070510Y38795500D01*
X44084401Y38851914D01*
X44093648Y38917025D01*
X44098842Y38993495D01*
X44100571Y39083989D01*
X44100867Y39234272D01*
X43864545Y39234272D01*
X43817268Y39234370D01*
X43741605Y39235101D01*
X43680226Y39236604D01*
X43631415Y39238948D01*
X43593459Y39242202D01*
X43564643Y39246437D01*
X43498608Y39262474D01*
X43404608Y39298533D01*
X43319926Y39347850D01*
X43245635Y39409625D01*
X43182813Y39483060D01*
X43132535Y39567356D01*
X43109027Y39618779D01*
X43087852Y39676931D01*
X43074341Y39734200D01*
X43067199Y39796381D01*
X43065632Y39851669D01*
X43305161Y39851669D01*
X43308523Y39793641D01*
X43317453Y39745746D01*
X43325014Y39721941D01*
X43358244Y39649676D01*
X43403340Y39589455D01*
X43460035Y39541518D01*
X43528062Y39506109D01*
X43607153Y39483470D01*
X43638309Y39478971D01*
X43680504Y39475530D01*
X43734899Y39473156D01*
X43803064Y39471782D01*
X43886569Y39471339D01*
X44102581Y39471339D01*
X44098582Y39714755D01*
X44098166Y39738958D01*
X44096555Y39813575D01*
X44094632Y39873523D01*
X44092294Y39920565D01*
X44089438Y39956462D01*
X44085959Y39982977D01*
X44081756Y40001871D01*
X44075978Y40020572D01*
X44044180Y40098228D01*
X44003370Y40162070D01*
X43952650Y40213045D01*
X43891121Y40252100D01*
X43817884Y40280185D01*
X43803374Y40283763D01*
X43754560Y40290281D01*
X43698279Y40291858D01*
X43640512Y40288731D01*
X43587240Y40281137D01*
X43544444Y40269315D01*
X43540793Y40267869D01*
X43473068Y40231722D01*
X43414807Y40182146D01*
X43367353Y40120540D01*
X43332047Y40048300D01*
X43325717Y40028973D01*
X43314036Y39975094D01*
X43307092Y39914073D01*
X43305161Y39851669D01*
X43065632Y39851669D01*
X43065133Y39869272D01*
X43067287Y39936416D01*
X43078918Y40028322D01*
X43101447Y40113183D01*
X43135793Y40195239D01*
X43150534Y40223282D01*
X43205768Y40305858D01*
X43271992Y40376671D01*
X43347809Y40435184D01*
X43431825Y40480864D01*
X43522643Y40513175D01*
X43618867Y40531582D01*
X43719103Y40535552D01*
X43821954Y40524549D01*
X43926024Y40498037D01*
X43949423Y40489734D01*
X44035444Y40448265D01*
X44112267Y40393015D01*
X44179257Y40324715D01*
X44235781Y40244099D01*
X44281203Y40151897D01*
X44314891Y40048844D01*
X44314899Y40048811D01*
X44318595Y40033991D01*
X44321771Y40019748D01*
X44324467Y40004737D01*
X44326722Y39987609D01*
X44328574Y39967018D01*
X44330062Y39941618D01*
X44331226Y39910060D01*
X44332105Y39870998D01*
X44332736Y39823085D01*
X44333160Y39764973D01*
X44333416Y39695317D01*
X44333542Y39612768D01*
X44333577Y39515980D01*
X44333570Y39471339D01*
X44333560Y39403606D01*
G36*
X44333560Y39403606D02*
G01*
X44333559Y39398327D01*
X44333520Y39286702D01*
X44333437Y39190619D01*
X44333270Y39108742D01*
X44332980Y39039740D01*
X44332528Y38982278D01*
X44331872Y38935022D01*
X44330975Y38896639D01*
X44329796Y38865796D01*
X44328296Y38841158D01*
X44326435Y38821391D01*
X44324174Y38805163D01*
X44321473Y38791140D01*
X44318293Y38777987D01*
X44314594Y38764372D01*
X44307716Y38740987D01*
X44268699Y38640750D01*
X44217674Y38551529D01*
X44155387Y38474014D01*
X44082584Y38408898D01*
X44000009Y38356872D01*
X43908409Y38318627D01*
X43808528Y38294855D01*
X43799549Y38293600D01*
X43751625Y38290211D01*
X43695158Y38290153D01*
X43636481Y38293141D01*
X43581928Y38298887D01*
X43537833Y38307105D01*
X43520023Y38312170D01*
X43464507Y38332947D01*
X43405988Y38360791D01*
X43351028Y38392380D01*
X43306190Y38424392D01*
X43271423Y38455766D01*
X43207833Y38529398D01*
X43155008Y38614202D01*
X43113895Y38708204D01*
X43085440Y38809426D01*
X43070592Y38915894D01*
X43069060Y38938817D01*
X43068544Y38970267D01*
X43072918Y38991460D01*
X43084590Y39004419D01*
X43105969Y39011168D01*
X43139462Y39013734D01*
X43187480Y39014139D01*
X43218361Y39013844D01*
X43256269Y39011591D01*
X43281368Y39006094D01*
X43296176Y38996155D01*
X43303214Y38980571D01*
X43305000Y38958144D01*
X43305019Y38956513D01*
X43307064Y38932453D01*
X43311835Y38899222D01*
X43318387Y38863499D01*
X43324243Y38837935D01*
X43352302Y38756455D01*
X43392028Y38685970D01*
X43442726Y38627336D01*
X43503699Y38581407D01*
X43574252Y38549039D01*
X43580572Y38547007D01*
X43639351Y38534923D01*
X43705388Y38531146D01*
X43771991Y38535689D01*
X43832466Y38548563D01*
X43837010Y38550016D01*
X43886235Y38571343D01*
X43934990Y38601270D01*
X43977861Y38636027D01*
X44009433Y38671841D01*
X44026445Y38698102D01*
X44051388Y38745117D01*
X44070510Y38795500D01*
X44084401Y38851914D01*
X44093648Y38917025D01*
X44098842Y38993495D01*
X44100571Y39083989D01*
X44100867Y39234272D01*
X43864545Y39234272D01*
X43817268Y39234370D01*
X43741605Y39235101D01*
X43680226Y39236604D01*
X43631415Y39238948D01*
X43593459Y39242202D01*
X43564643Y39246437D01*
X43498608Y39262474D01*
X43404608Y39298533D01*
X43319926Y39347850D01*
X43245635Y39409625D01*
X43182813Y39483060D01*
X43132535Y39567356D01*
X43109027Y39618779D01*
X43087852Y39676931D01*
X43074341Y39734200D01*
X43067199Y39796381D01*
X43065632Y39851669D01*
X43305161Y39851669D01*
X43308523Y39793641D01*
X43317453Y39745746D01*
X43325014Y39721941D01*
X43358244Y39649676D01*
X43403340Y39589455D01*
X43460035Y39541518D01*
X43528062Y39506109D01*
X43607153Y39483470D01*
X43638309Y39478971D01*
X43680504Y39475530D01*
X43734899Y39473156D01*
X43803064Y39471782D01*
X43886569Y39471339D01*
X44102581Y39471339D01*
X44098582Y39714755D01*
X44098166Y39738958D01*
X44096555Y39813575D01*
X44094632Y39873523D01*
X44092294Y39920565D01*
X44089438Y39956462D01*
X44085959Y39982977D01*
X44081756Y40001871D01*
X44075978Y40020572D01*
X44044180Y40098228D01*
X44003370Y40162070D01*
X43952650Y40213045D01*
X43891121Y40252100D01*
X43817884Y40280185D01*
X43803374Y40283763D01*
X43754560Y40290281D01*
X43698279Y40291858D01*
X43640512Y40288731D01*
X43587240Y40281137D01*
X43544444Y40269315D01*
X43540793Y40267869D01*
X43473068Y40231722D01*
X43414807Y40182146D01*
X43367353Y40120540D01*
X43332047Y40048300D01*
X43325717Y40028973D01*
X43314036Y39975094D01*
X43307092Y39914073D01*
X43305161Y39851669D01*
X43065632Y39851669D01*
X43065133Y39869272D01*
X43067287Y39936416D01*
X43078918Y40028322D01*
X43101447Y40113183D01*
X43135793Y40195239D01*
X43150534Y40223282D01*
X43205768Y40305858D01*
X43271992Y40376671D01*
X43347809Y40435184D01*
X43431825Y40480864D01*
X43522643Y40513175D01*
X43618867Y40531582D01*
X43719103Y40535552D01*
X43821954Y40524549D01*
X43926024Y40498037D01*
X43949423Y40489734D01*
X44035444Y40448265D01*
X44112267Y40393015D01*
X44179257Y40324715D01*
X44235781Y40244099D01*
X44281203Y40151897D01*
X44314891Y40048844D01*
X44314899Y40048811D01*
X44318595Y40033991D01*
X44321771Y40019748D01*
X44324467Y40004737D01*
X44326722Y39987609D01*
X44328574Y39967018D01*
X44330062Y39941618D01*
X44331226Y39910060D01*
X44332105Y39870998D01*
X44332736Y39823085D01*
X44333160Y39764973D01*
X44333416Y39695317D01*
X44333542Y39612768D01*
X44333577Y39515980D01*
X44333570Y39471339D01*
X44333560Y39403606D01*
G37*
%TD*%
D12*
X30365000Y47178072D03*
X30365000Y44638072D03*
X30365000Y42098072D03*
X30365000Y39558072D03*
X30365000Y37018072D03*
X30365000Y34478072D03*
X30365000Y31938072D03*
X30365000Y29398072D03*
X30365000Y26858072D03*
X30365000Y24318072D03*
X30365000Y21778072D03*
X30365000Y19238072D03*
X30365000Y16698072D03*
X30365000Y14158072D03*
X30365000Y11618072D03*
X30365000Y9078072D03*
X30365000Y6538072D03*
X30365000Y3998072D03*
X30365000Y1458072D03*
X55765000Y1458072D03*
X55765000Y3998072D03*
X55765000Y6538072D03*
X55765000Y9078072D03*
X55765000Y11618072D03*
X55765000Y14158072D03*
X55765000Y16698072D03*
X55765000Y19238072D03*
X55765000Y21778072D03*
X55765000Y24318072D03*
X55765000Y26858072D03*
X55765000Y29398072D03*
X55765000Y31938072D03*
X55765000Y34478072D03*
X55765000Y37018072D03*
X55765000Y39558072D03*
X55765000Y42098072D03*
X55765000Y44638072D03*
X55765000Y47178072D03*
X315750000Y15957500D03*
X315750000Y11997500D03*
X264295000Y15558072D03*
X266195000Y15558072D03*
X207150000Y50958072D03*
X209650000Y50958072D03*
X212150000Y50958072D03*
X214650000Y50958072D03*
X217150000Y50958072D03*
X219650000Y50958072D03*
X222150000Y50958072D03*
X235200000Y50958072D03*
X237700000Y50958072D03*
X240200000Y50958072D03*
X242700000Y50958072D03*
X245200000Y50958072D03*
X247700000Y50958072D03*
X250200000Y50958072D03*
X316000000Y51000000D03*
X144095000Y14658072D03*
X145995000Y14658072D03*
X138400000Y50958072D03*
X82550000Y3000572D03*
X82550000Y6960572D03*
X1600000Y28498072D03*
X1600000Y25958072D03*
X1600000Y23418072D03*
X1600000Y20878072D03*
X1600000Y18338072D03*
X1600000Y15798072D03*
X1600000Y13258072D03*
X1600000Y10718072D03*
X9220000Y10718072D03*
X9220000Y13258072D03*
X9220000Y15798072D03*
X9220000Y18338072D03*
X9220000Y20878072D03*
X9220000Y23418072D03*
X9220000Y25958072D03*
X9220000Y28498072D03*
X264295000Y17758072D03*
X266195000Y17758072D03*
X264300000Y11158072D03*
X266200000Y11158072D03*
X265400000Y51000000D03*
X267900000Y51000000D03*
X270400000Y51000000D03*
X272900000Y51000000D03*
X275400000Y51000000D03*
X277900000Y51000000D03*
X280400000Y51000000D03*
X84495000Y15058072D03*
X86395000Y15058072D03*
X316000000Y4000000D03*
X144095000Y16958072D03*
X145995000Y16958072D03*
X144095000Y11958072D03*
X145995000Y11958072D03*
X234100000Y3958072D03*
X25300000Y1668072D03*
X25300000Y4208072D03*
X25300000Y6748072D03*
X25300000Y9288072D03*
X25300000Y11828072D03*
X25300000Y14368072D03*
X25300000Y16908072D03*
X25300000Y19448072D03*
X25300000Y21988072D03*
X25300000Y24528072D03*
X25300000Y27068072D03*
X25300000Y29608072D03*
X25300000Y32148072D03*
X25300000Y34688072D03*
X17680000Y34688072D03*
X17680000Y32148072D03*
X17680000Y29608072D03*
X17680000Y27068072D03*
X17680000Y24528072D03*
X17680000Y21988072D03*
X17680000Y19448072D03*
X17680000Y16908072D03*
X17680000Y14368072D03*
X17680000Y11828072D03*
X17680000Y9288072D03*
X17680000Y6748072D03*
X17680000Y4208072D03*
X17680000Y1668072D03*
X72450000Y6915572D03*
X72450000Y2955572D03*
X87700000Y50958072D03*
X90200000Y50958072D03*
X92700000Y50958072D03*
X95200000Y50958072D03*
X97700000Y50958072D03*
X100200000Y50958072D03*
X102700000Y50958072D03*
X84495000Y19458072D03*
X86395000Y19458072D03*
X72000000Y33250000D03*
X72000000Y38750000D03*
X264300000Y13458072D03*
X266200000Y13458072D03*
X172700000Y3958072D03*
X114700000Y50958072D03*
X117200000Y50958072D03*
X119700000Y50958072D03*
X122200000Y50958072D03*
X124700000Y50958072D03*
X127200000Y50958072D03*
X129700000Y50958072D03*
X4000000Y50958072D03*
X84495000Y17258072D03*
X86395000Y17258072D03*
X147200000Y50958072D03*
X149700000Y50958072D03*
X152200000Y50958072D03*
X154700000Y50958072D03*
X157200000Y50958072D03*
X159700000Y50958072D03*
X162200000Y50958072D03*
X71000000Y50958072D03*
X205195000Y18058072D03*
X207095000Y18058072D03*
X173600000Y50958072D03*
X176100000Y50958072D03*
X178600000Y50958072D03*
X181100000Y50958072D03*
X183600000Y50958072D03*
X186100000Y50958072D03*
X188600000Y50958072D03*
X292300000Y51025000D03*
X294800000Y51025000D03*
X297300000Y51025000D03*
X299800000Y51025000D03*
X302300000Y51025000D03*
X304800000Y51025000D03*
X307300000Y51025000D03*
X205195000Y10958072D03*
X207095000Y10958072D03*
X4000000Y3958072D03*
X144095000Y19158072D03*
X145995000Y19158072D03*
X205195000Y13158072D03*
X207095000Y13158072D03*
X205195000Y15358072D03*
X207095000Y15358072D03*
X1900000Y45098072D03*
X1900000Y42558072D03*
X1900000Y40018072D03*
X1900000Y37478072D03*
X84495000Y12858072D03*
X86395000Y12858072D03*
M02*
