%TF.GenerationSoftware,KiCad,Pcbnew,8.0.4*%
%TF.CreationDate,2024-08-06T18:21:13+08:00*%
%TF.ProjectId,LTC6811_ESP32_V3,4c544336-3831-4315-9f45-535033325f56,rev?*%
%TF.SameCoordinates,Original*%
%TF.FileFunction,Soldermask,Top*%
%TF.FilePolarity,Negative*%
%FSLAX46Y46*%
G04 Gerber Fmt 4.6, Leading zero omitted, Abs format (unit mm)*
G04 Created by KiCad (PCBNEW 8.0.4) date 2024-08-06 18:21:13*
%MOMM*%
%LPD*%
G01*
G04 APERTURE LIST*
G04 Aperture macros list*
%AMRoundRect*
0 Rectangle with rounded corners*
0 $1 Rounding radius*
0 $2 $3 $4 $5 $6 $7 $8 $9 X,Y pos of 4 corners*
0 Add a 4 corners polygon primitive as box body*
4,1,4,$2,$3,$4,$5,$6,$7,$8,$9,$2,$3,0*
0 Add four circle primitives for the rounded corners*
1,1,$1+$1,$2,$3*
1,1,$1+$1,$4,$5*
1,1,$1+$1,$6,$7*
1,1,$1+$1,$8,$9*
0 Add four rect primitives between the rounded corners*
20,1,$1+$1,$2,$3,$4,$5,0*
20,1,$1+$1,$4,$5,$6,$7,0*
20,1,$1+$1,$6,$7,$8,$9,0*
20,1,$1+$1,$8,$9,$2,$3,0*%
G04 Aperture macros list end*
%ADD10R,1.600000X1.600000*%
%ADD11O,1.600000X1.600000*%
%ADD12RoundRect,0.225000X0.225000X0.375000X-0.225000X0.375000X-0.225000X-0.375000X0.225000X-0.375000X0*%
%ADD13RoundRect,0.218750X0.256250X-0.218750X0.256250X0.218750X-0.256250X0.218750X-0.256250X-0.218750X0*%
%ADD14RoundRect,0.200000X0.275000X-0.200000X0.275000X0.200000X-0.275000X0.200000X-0.275000X-0.200000X0*%
%ADD15C,1.000000*%
%ADD16RoundRect,0.150000X0.150000X-0.587500X0.150000X0.587500X-0.150000X0.587500X-0.150000X-0.587500X0*%
%ADD17RoundRect,0.250000X0.250000X0.250000X-0.250000X0.250000X-0.250000X-0.250000X0.250000X-0.250000X0*%
%ADD18RoundRect,0.243750X-0.456250X0.243750X-0.456250X-0.243750X0.456250X-0.243750X0.456250X0.243750X0*%
%ADD19RoundRect,0.200000X-0.275000X0.200000X-0.275000X-0.200000X0.275000X-0.200000X0.275000X0.200000X0*%
%ADD20RoundRect,0.200000X0.200000X0.275000X-0.200000X0.275000X-0.200000X-0.275000X0.200000X-0.275000X0*%
%ADD21RoundRect,0.250001X-1.099999X1.099999X-1.099999X-1.099999X1.099999X-1.099999X1.099999X1.099999X0*%
%ADD22C,2.700000*%
%ADD23RoundRect,0.225000X-0.225000X-0.250000X0.225000X-0.250000X0.225000X0.250000X-0.225000X0.250000X0*%
%ADD24RoundRect,0.225000X0.225000X0.250000X-0.225000X0.250000X-0.225000X-0.250000X0.225000X-0.250000X0*%
%ADD25C,1.400000*%
%ADD26O,1.400000X1.400000*%
%ADD27RoundRect,0.250000X-1.425000X0.362500X-1.425000X-0.362500X1.425000X-0.362500X1.425000X0.362500X0*%
%ADD28R,1.000000X1.500000*%
%ADD29O,1.700000X1.950000*%
%ADD30RoundRect,0.250000X0.600000X0.725000X-0.600000X0.725000X-0.600000X-0.725000X0.600000X-0.725000X0*%
%ADD31RoundRect,0.200000X-0.200000X-0.275000X0.200000X-0.275000X0.200000X0.275000X-0.200000X0.275000X0*%
%ADD32C,5.700000*%
%ADD33RoundRect,0.225000X-0.250000X0.225000X-0.250000X-0.225000X0.250000X-0.225000X0.250000X0.225000X0*%
%ADD34RoundRect,0.225000X0.250000X-0.225000X0.250000X0.225000X-0.250000X0.225000X-0.250000X-0.225000X0*%
%ADD35RoundRect,0.150000X0.587500X0.150000X-0.587500X0.150000X-0.587500X-0.150000X0.587500X-0.150000X0*%
%ADD36RoundRect,0.075000X-0.075000X0.662500X-0.075000X-0.662500X0.075000X-0.662500X0.075000X0.662500X0*%
%ADD37RoundRect,0.225000X-0.375000X0.225000X-0.375000X-0.225000X0.375000X-0.225000X0.375000X0.225000X0*%
%ADD38RoundRect,0.250001X1.099999X-1.099999X1.099999X1.099999X-1.099999X1.099999X-1.099999X-1.099999X0*%
%ADD39R,1.950000X1.020000*%
%ADD40RoundRect,0.250000X0.300000X0.300000X-0.300000X0.300000X-0.300000X-0.300000X0.300000X-0.300000X0*%
%ADD41RoundRect,0.450000X-0.450000X0.550000X-0.450000X-0.550000X0.450000X-0.550000X0.450000X0.550000X0*%
%ADD42RoundRect,0.162500X0.162500X-0.617500X0.162500X0.617500X-0.162500X0.617500X-0.162500X-0.617500X0*%
%ADD43RoundRect,0.250000X-0.300000X0.300000X-0.300000X-0.300000X0.300000X-0.300000X0.300000X0.300000X0*%
%ADD44RoundRect,0.250000X0.250000X0.475000X-0.250000X0.475000X-0.250000X-0.475000X0.250000X-0.475000X0*%
%ADD45RoundRect,0.162500X1.012500X0.162500X-1.012500X0.162500X-1.012500X-0.162500X1.012500X-0.162500X0*%
%ADD46RoundRect,0.250001X1.099999X1.399999X-1.099999X1.399999X-1.099999X-1.399999X1.099999X-1.399999X0*%
%ADD47O,2.700000X3.300000*%
%ADD48RoundRect,0.218750X-0.256250X0.218750X-0.256250X-0.218750X0.256250X-0.218750X0.256250X0.218750X0*%
%ADD49RoundRect,0.375000X0.625000X0.375000X-0.625000X0.375000X-0.625000X-0.375000X0.625000X-0.375000X0*%
%ADD50RoundRect,0.500000X0.500000X1.400000X-0.500000X1.400000X-0.500000X-1.400000X0.500000X-1.400000X0*%
%ADD51RoundRect,0.075000X-0.650000X-0.075000X0.650000X-0.075000X0.650000X0.075000X-0.650000X0.075000X0*%
%ADD52R,1.020000X1.950000*%
%ADD53R,1.700000X1.700000*%
%ADD54O,1.700000X1.700000*%
G04 APERTURE END LIST*
D10*
%TO.C,U8*%
X30365000Y47178072D03*
D11*
X30365000Y44638072D03*
X30365000Y42098072D03*
X30365000Y39558072D03*
X30365000Y37018072D03*
X30365000Y34478072D03*
X30365000Y31938072D03*
X30365000Y29398072D03*
X30365000Y26858072D03*
X30365000Y24318072D03*
X30365000Y21778072D03*
X30365000Y19238072D03*
X30365000Y16698072D03*
X30365000Y14158072D03*
X30365000Y11618072D03*
X30365000Y9078072D03*
X30365000Y6538072D03*
X30365000Y3998072D03*
X30365000Y1458072D03*
X55765000Y1458072D03*
X55765000Y3998072D03*
X55765000Y6538072D03*
X55765000Y9078072D03*
X55765000Y11618072D03*
X55765000Y14158072D03*
X55765000Y16698072D03*
X55765000Y19238072D03*
X55765000Y21778072D03*
X55765000Y24318072D03*
X55765000Y26858072D03*
X55765000Y29398072D03*
X55765000Y31938072D03*
X55765000Y34478072D03*
X55765000Y37018072D03*
X55765000Y39558072D03*
X55765000Y42098072D03*
X55765000Y44638072D03*
X55765000Y47178072D03*
%TD*%
D12*
%TO.C,D39*%
X256100000Y21158072D03*
X252800000Y21158072D03*
%TD*%
D13*
%TO.C,D25*%
X160000000Y6470572D03*
X160000000Y8045572D03*
%TD*%
D14*
%TO.C,R189*%
X203950000Y30245572D03*
X203950000Y31895572D03*
%TD*%
D15*
%TO.C,TP7*%
X243600000Y17758072D03*
%TD*%
D16*
%TO.C,Q36*%
X213700000Y33633072D03*
X215600000Y33633072D03*
X214650000Y35508072D03*
%TD*%
D14*
%TO.C,R138*%
X144750000Y30233072D03*
X144750000Y31883072D03*
%TD*%
D17*
%TO.C,D43*%
X248400000Y26958072D03*
X245900000Y26958072D03*
%TD*%
D16*
%TO.C,Q50*%
X271800000Y33720572D03*
X273700000Y33720572D03*
X272750000Y35595572D03*
%TD*%
D18*
%TO.C,F51*%
X268100000Y47195572D03*
X268100000Y45320572D03*
%TD*%
D19*
%TO.C,R91*%
X194250000Y17683072D03*
X194250000Y16033072D03*
%TD*%
D20*
%TO.C,R4*%
X82525000Y13358072D03*
X80875000Y13358072D03*
%TD*%
D21*
%TO.C,J9*%
X315750000Y15957500D03*
D22*
X315750000Y11997500D03*
%TD*%
D23*
%TO.C,C72*%
X272725000Y4458072D03*
X274275000Y4458072D03*
%TD*%
D16*
%TO.C,Q39*%
X199650000Y33620572D03*
X201550000Y33620572D03*
X200600000Y35495572D03*
%TD*%
D24*
%TO.C,C9*%
X149480000Y15958072D03*
X147930000Y15958072D03*
%TD*%
D14*
%TO.C,R225*%
X290400000Y30333072D03*
X290400000Y31983072D03*
%TD*%
D23*
%TO.C,C132*%
X301800000Y28858072D03*
X303350000Y28858072D03*
%TD*%
D18*
%TO.C,F10*%
X95200000Y47095572D03*
X95200000Y45220572D03*
%TD*%
D25*
%TO.C,TH19*%
X264295000Y15558072D03*
D26*
X266195000Y15558072D03*
%TD*%
D27*
%TO.C,R211*%
X310000000Y43520572D03*
X310000000Y37595572D03*
%TD*%
D28*
%TO.C,JP3*%
X12300000Y33258072D03*
X13600000Y33258072D03*
X14900000Y33258072D03*
%TD*%
D23*
%TO.C,C84*%
X160300000Y28758072D03*
X161850000Y28758072D03*
%TD*%
D29*
%TO.C,J15*%
X207150000Y50958072D03*
X209650000Y50958072D03*
X212150000Y50958072D03*
X214650000Y50958072D03*
X217150000Y50958072D03*
X219650000Y50958072D03*
D30*
X222150000Y50958072D03*
%TD*%
D29*
%TO.C,J14*%
X235200000Y50958072D03*
X237700000Y50958072D03*
X240200000Y50958072D03*
X242700000Y50958072D03*
X245200000Y50958072D03*
X247700000Y50958072D03*
D30*
X250200000Y50958072D03*
%TD*%
D16*
%TO.C,Q46*%
X290450000Y33720572D03*
X292350000Y33720572D03*
X291400000Y35595572D03*
%TD*%
D19*
%TO.C,R2*%
X123800000Y6958072D03*
X123800000Y5308072D03*
%TD*%
D14*
%TO.C,R170*%
X234400000Y30245572D03*
X234400000Y31895572D03*
%TD*%
D31*
%TO.C,R18*%
X260875000Y11258072D03*
X262525000Y11258072D03*
%TD*%
D17*
%TO.C,D14*%
X114400000Y26958072D03*
X111900000Y26958072D03*
%TD*%
D18*
%TO.C,F5*%
X117700000Y47095572D03*
X117700000Y45220572D03*
%TD*%
D14*
%TO.C,R210*%
X313500000Y30333072D03*
X313500000Y31983072D03*
%TD*%
D16*
%TO.C,Q51*%
X267125000Y33720572D03*
X269025000Y33720572D03*
X268075000Y35595572D03*
%TD*%
D17*
%TO.C,D68*%
X269175000Y27058072D03*
X266675000Y27058072D03*
%TD*%
D32*
%TO.C,J1*%
X316000000Y51000000D03*
%TD*%
D16*
%TO.C,Q29*%
X246500000Y33633072D03*
X248400000Y33633072D03*
X247450000Y35508072D03*
%TD*%
D33*
%TO.C,C34*%
X25000000Y40758072D03*
X25000000Y39208072D03*
%TD*%
D18*
%TO.C,F19*%
X172300000Y47095572D03*
X172300000Y45220572D03*
%TD*%
D23*
%TO.C,C62*%
X82925000Y28758072D03*
X84475000Y28758072D03*
%TD*%
D34*
%TO.C,C35*%
X8400000Y39783072D03*
X8400000Y41333072D03*
%TD*%
D31*
%TO.C,R48*%
X122775000Y20158072D03*
X124425000Y20158072D03*
%TD*%
D14*
%TO.C,R26*%
X288500000Y2075000D03*
X288500000Y3725000D03*
%TD*%
D27*
%TO.C,R121*%
X167900000Y43420572D03*
X167900000Y37495572D03*
%TD*%
D24*
%TO.C,C18*%
X269570000Y13658072D03*
X268020000Y13658072D03*
%TD*%
D19*
%TO.C,R52*%
X271200000Y3583072D03*
X271200000Y1933072D03*
%TD*%
D27*
%TO.C,R88*%
X81825000Y43420572D03*
X81825000Y37495572D03*
%TD*%
D24*
%TO.C,C5*%
X89829962Y19145572D03*
X88279962Y19145572D03*
%TD*%
D15*
%TO.C,TP3*%
X116700000Y16758072D03*
%TD*%
D18*
%TO.C,F31*%
X238050000Y47108072D03*
X238050000Y45233072D03*
%TD*%
D23*
%TO.C,C107*%
X234400000Y28758072D03*
X235950000Y28758072D03*
%TD*%
D25*
%TO.C,TH8*%
X144095000Y14658072D03*
D26*
X145995000Y14658072D03*
%TD*%
D14*
%TO.C,R233*%
X278525000Y30333072D03*
X278525000Y31983072D03*
%TD*%
D35*
%TO.C,D5*%
X9737500Y43608072D03*
X9737500Y45508072D03*
X7862500Y44558072D03*
%TD*%
D20*
%TO.C,R19*%
X262525000Y12858072D03*
X260875000Y12858072D03*
%TD*%
D19*
%TO.C,R49*%
X150700000Y7008072D03*
X150700000Y5358072D03*
%TD*%
D14*
%TO.C,R123*%
X166800000Y30233072D03*
X166800000Y31883072D03*
%TD*%
D27*
%TO.C,R112*%
X181100000Y43420572D03*
X181100000Y37495572D03*
%TD*%
D15*
%TO.C,TP4*%
X82400000Y21258072D03*
%TD*%
D24*
%TO.C,C68*%
X21875000Y37058072D03*
X20325000Y37058072D03*
%TD*%
D27*
%TO.C,R172*%
X228650000Y43433072D03*
X228650000Y37508072D03*
%TD*%
D33*
%TO.C,C37*%
X116100000Y20358072D03*
X116100000Y18808072D03*
%TD*%
D17*
%TO.C,D37*%
X142900000Y26958072D03*
X140400000Y26958072D03*
%TD*%
D14*
%TO.C,R90*%
X80775000Y30233072D03*
X80775000Y31883072D03*
%TD*%
D20*
%TO.C,R30*%
X64625000Y35758072D03*
X62975000Y35758072D03*
%TD*%
D24*
%TO.C,C17*%
X269570000Y11558072D03*
X268020000Y11558072D03*
%TD*%
D17*
%TO.C,D50*%
X215650000Y26970572D03*
X213150000Y26970572D03*
%TD*%
D14*
%TO.C,R234*%
X276425000Y30333072D03*
X276425000Y31983072D03*
%TD*%
D17*
%TO.C,D11*%
X127900000Y26958072D03*
X125400000Y26958072D03*
%TD*%
D33*
%TO.C,C89*%
X237000000Y21433072D03*
X237000000Y19883072D03*
%TD*%
D16*
%TO.C,Q42*%
X309050000Y33720572D03*
X310950000Y33720572D03*
X310000000Y35595572D03*
%TD*%
D23*
%TO.C,C105*%
X243725000Y28758072D03*
X245275000Y28758072D03*
%TD*%
D36*
%TO.C,U13*%
X234500000Y20483072D03*
X234000000Y20483072D03*
X233500000Y20483072D03*
X233000000Y20483072D03*
X232500000Y20483072D03*
X232000000Y20483072D03*
X231500000Y20483072D03*
X231000000Y20483072D03*
X230500000Y20483072D03*
X230000000Y20483072D03*
X229500000Y20483072D03*
X229000000Y20483072D03*
X228500000Y20483072D03*
X228000000Y20483072D03*
X227500000Y20483072D03*
X227000000Y20483072D03*
X226500000Y20483072D03*
X226000000Y20483072D03*
X225500000Y20483072D03*
X225000000Y20483072D03*
X224500000Y20483072D03*
X224000000Y20483072D03*
X223500000Y20483072D03*
X223000000Y20483072D03*
X223000000Y13058072D03*
X223500000Y13058072D03*
X224000000Y13058072D03*
X224500000Y13058072D03*
X225000000Y13058072D03*
X225500000Y13058072D03*
X226000000Y13058072D03*
X226500000Y13058072D03*
X227000000Y13058072D03*
X227500000Y13058072D03*
X228000000Y13058072D03*
X228500000Y13058072D03*
X229000000Y13058072D03*
X229500000Y13058072D03*
X230000000Y13058072D03*
X230500000Y13058072D03*
X231000000Y13058072D03*
X231500000Y13058072D03*
X232000000Y13058072D03*
X232500000Y13058072D03*
X233000000Y13058072D03*
X233500000Y13058072D03*
X234000000Y13058072D03*
X234500000Y13058072D03*
%TD*%
D14*
%TO.C,R63*%
X121100000Y30233072D03*
X121100000Y31883072D03*
%TD*%
D23*
%TO.C,C61*%
X87425000Y28758072D03*
X88975000Y28758072D03*
%TD*%
D27*
%TO.C,R133*%
X150250000Y43420572D03*
X150250000Y37495572D03*
%TD*%
D14*
%TO.C,R117*%
X175600000Y30233072D03*
X175600000Y31883072D03*
%TD*%
D19*
%TO.C,TH1*%
X108700000Y52483072D03*
X108700000Y50833072D03*
%TD*%
D34*
%TO.C,C116*%
X271100000Y17083072D03*
X271100000Y18633072D03*
%TD*%
D32*
%TO.C,J19*%
X138400000Y50958072D03*
%TD*%
D17*
%TO.C,D69*%
X264525000Y27058072D03*
X262025000Y27058072D03*
%TD*%
D27*
%TO.C,R229*%
X282100000Y43520572D03*
X282100000Y37595572D03*
%TD*%
D37*
%TO.C,D55*%
X314600000Y24450000D03*
X314600000Y21150000D03*
%TD*%
D24*
%TO.C,C10*%
X149475000Y17658072D03*
X147925000Y17658072D03*
%TD*%
D27*
%TO.C,R184*%
X209950000Y43433072D03*
X209950000Y37508072D03*
%TD*%
D31*
%TO.C,R100*%
X234100000Y8958072D03*
X235750000Y8958072D03*
%TD*%
D14*
%TO.C,R186*%
X208825000Y30245572D03*
X208825000Y31895572D03*
%TD*%
D38*
%TO.C,J20*%
X82550000Y3000572D03*
D22*
X82550000Y6960572D03*
%TD*%
D24*
%TO.C,C7*%
X149475000Y12258072D03*
X147925000Y12258072D03*
%TD*%
D39*
%TO.C,TR3*%
X145220000Y1918072D03*
X145220000Y4458072D03*
X145220000Y6998072D03*
X129580000Y6998072D03*
X129580000Y4458072D03*
X129580000Y1918072D03*
%TD*%
D17*
%TO.C,D62*%
X297150000Y27058072D03*
X294650000Y27058072D03*
%TD*%
D40*
%TO.C,D40*%
X256100000Y18758072D03*
X253300000Y18758072D03*
%TD*%
D27*
%TO.C,R157*%
X252050000Y43420572D03*
X252050000Y37495572D03*
%TD*%
D14*
%TO.C,R72*%
X107600000Y30233072D03*
X107600000Y31883072D03*
%TD*%
D23*
%TO.C,C114*%
X201600000Y28758072D03*
X203150000Y28758072D03*
%TD*%
D14*
%TO.C,R168*%
X236950000Y30245572D03*
X236950000Y31895572D03*
%TD*%
D40*
%TO.C,D8*%
X135175000Y18658072D03*
X132375000Y18658072D03*
%TD*%
D16*
%TO.C,Q24*%
X149300000Y33620572D03*
X151200000Y33620572D03*
X150250000Y35495572D03*
%TD*%
D41*
%TO.C,L1*%
X62857500Y46495572D03*
X62857500Y41995572D03*
%TD*%
D31*
%TO.C,R98*%
X173275000Y8958072D03*
X174925000Y8958072D03*
%TD*%
D18*
%TO.C,F50*%
X272750000Y47195572D03*
X272750000Y45320572D03*
%TD*%
D23*
%TO.C,C24*%
X125325000Y3858072D03*
X126875000Y3858072D03*
%TD*%
D34*
%TO.C,C29*%
X61600000Y18883072D03*
X61600000Y20433072D03*
%TD*%
D27*
%TO.C,R241*%
X263425000Y43520572D03*
X263425000Y37595572D03*
%TD*%
%TO.C,R118*%
X172300000Y43420572D03*
X172300000Y37495572D03*
%TD*%
D16*
%TO.C,Q8*%
X103250000Y33620572D03*
X105150000Y33620572D03*
X104200000Y35495572D03*
%TD*%
D14*
%TO.C,R25*%
X288500000Y5208072D03*
X288500000Y6858072D03*
%TD*%
D17*
%TO.C,D45*%
X239050000Y26970572D03*
X236550000Y26970572D03*
%TD*%
D10*
%TO.C,SW1*%
X1600000Y28498072D03*
D11*
X1600000Y25958072D03*
X1600000Y23418072D03*
X1600000Y20878072D03*
X1600000Y18338072D03*
X1600000Y15798072D03*
X1600000Y13258072D03*
X1600000Y10718072D03*
X9220000Y10718072D03*
X9220000Y13258072D03*
X9220000Y15798072D03*
X9220000Y18338072D03*
X9220000Y20878072D03*
X9220000Y23418072D03*
X9220000Y25958072D03*
X9220000Y28498072D03*
%TD*%
D14*
%TO.C,R45*%
X99100000Y17833072D03*
X99100000Y19483072D03*
%TD*%
D24*
%TO.C,C2*%
X89829962Y13758072D03*
X88279962Y13758072D03*
%TD*%
D17*
%TO.C,D36*%
X147050000Y26958072D03*
X144550000Y26958072D03*
%TD*%
D14*
%TO.C,R128*%
X160300000Y30233072D03*
X160300000Y31883072D03*
%TD*%
%TO.C,R69*%
X112100000Y30233072D03*
X112100000Y31883072D03*
%TD*%
D19*
%TO.C,R93*%
X286200000Y6883072D03*
X286200000Y5233072D03*
%TD*%
D16*
%TO.C,Q3*%
X125750000Y33620572D03*
X127650000Y33620572D03*
X126700000Y35495572D03*
%TD*%
D19*
%TO.C,R40*%
X135100000Y16583072D03*
X135100000Y14933072D03*
%TD*%
D42*
%TO.C,U6*%
X61907500Y48920572D03*
X62857500Y48920572D03*
X63807500Y48920572D03*
X63807500Y51620572D03*
X62857500Y51620572D03*
X61907500Y51620572D03*
%TD*%
D18*
%TO.C,F40*%
X317700000Y43537500D03*
X317700000Y41662500D03*
%TD*%
D13*
%TO.C,D41*%
X222600000Y6170572D03*
X222600000Y7745572D03*
%TD*%
D15*
%TO.C,TP2*%
X61600000Y33958072D03*
%TD*%
D34*
%TO.C,C117*%
X272700000Y15083072D03*
X272700000Y16633072D03*
%TD*%
D14*
%TO.C,R212*%
X311100000Y30333072D03*
X311100000Y31983072D03*
%TD*%
%TO.C,R57*%
X130300000Y30233072D03*
X130300000Y31883072D03*
%TD*%
D23*
%TO.C,C113*%
X206250000Y28758072D03*
X207800000Y28758072D03*
%TD*%
D20*
%TO.C,R11*%
X142225000Y16958072D03*
X140575000Y16958072D03*
%TD*%
D27*
%TO.C,R64*%
X117700000Y43420572D03*
X117700000Y37495572D03*
%TD*%
D25*
%TO.C,TH20*%
X264295000Y17758072D03*
D26*
X266195000Y17758072D03*
%TD*%
D24*
%TO.C,C19*%
X269595000Y15358072D03*
X268045000Y15358072D03*
%TD*%
D14*
%TO.C,R209*%
X315600000Y30333072D03*
X315600000Y31983072D03*
%TD*%
D19*
%TO.C,R50*%
X210300000Y3508072D03*
X210300000Y1858072D03*
%TD*%
D14*
%TO.C,R94*%
X161700000Y6420572D03*
X161700000Y8070572D03*
%TD*%
D19*
%TO.C,R32*%
X110600000Y7083072D03*
X110600000Y5433072D03*
%TD*%
D14*
%TO.C,R89*%
X82925000Y30233072D03*
X82925000Y31883072D03*
%TD*%
D16*
%TO.C,Q33*%
X227700000Y33633072D03*
X229600000Y33633072D03*
X228650000Y35508072D03*
%TD*%
D17*
%TO.C,D65*%
X283200000Y27058072D03*
X280700000Y27058072D03*
%TD*%
D23*
%TO.C,C86*%
X151450000Y28758072D03*
X153000000Y28758072D03*
%TD*%
D19*
%TO.C,R151*%
X12300000Y3208072D03*
X12300000Y1558072D03*
%TD*%
D18*
%TO.C,F39*%
X200600000Y47108072D03*
X200600000Y45233072D03*
%TD*%
D20*
%TO.C,R16*%
X203250000Y15358072D03*
X201600000Y15358072D03*
%TD*%
D24*
%TO.C,C50*%
X109100000Y3558072D03*
X107550000Y3558072D03*
%TD*%
D17*
%TO.C,D46*%
X234400000Y26970572D03*
X231900000Y26970572D03*
%TD*%
D24*
%TO.C,C47*%
X187475000Y5558072D03*
X185925000Y5558072D03*
%TD*%
D20*
%TO.C,FB3*%
X255925000Y31858072D03*
X254275000Y31858072D03*
%TD*%
D24*
%TO.C,C31*%
X61041244Y30458072D03*
X59491244Y30458072D03*
%TD*%
D27*
%TO.C,R67*%
X113200000Y43420572D03*
X113200000Y37495572D03*
%TD*%
D16*
%TO.C,Q5*%
X116750000Y33620572D03*
X118650000Y33620572D03*
X117700000Y35495572D03*
%TD*%
%TO.C,Q45*%
X295100000Y33720572D03*
X297000000Y33720572D03*
X296050000Y35595572D03*
%TD*%
D18*
%TO.C,F23*%
X154700000Y47095572D03*
X154700000Y45220572D03*
%TD*%
D14*
%TO.C,R147*%
X219500000Y17933072D03*
X219500000Y19583072D03*
%TD*%
D34*
%TO.C,C21*%
X60157500Y50683072D03*
X60157500Y52233072D03*
%TD*%
D23*
%TO.C,C70*%
X152325000Y4458072D03*
X153875000Y4458072D03*
%TD*%
D16*
%TO.C,Q11*%
X89850000Y33620572D03*
X91750000Y33620572D03*
X90800000Y35495572D03*
%TD*%
D20*
%TO.C,R10*%
X142225000Y14658072D03*
X140575000Y14658072D03*
%TD*%
D14*
%TO.C,R218*%
X301800000Y30333072D03*
X301800000Y31983072D03*
%TD*%
D23*
%TO.C,C69*%
X107225000Y5858072D03*
X108775000Y5858072D03*
%TD*%
D16*
%TO.C,Q25*%
X144900000Y33620572D03*
X146800000Y33620572D03*
X145850000Y35495572D03*
%TD*%
D18*
%TO.C,F15*%
X189900000Y47095572D03*
X189900000Y45220572D03*
%TD*%
D19*
%TO.C,R23*%
X244800000Y3508072D03*
X244800000Y1858072D03*
%TD*%
D25*
%TO.C,TH17*%
X264300000Y11158072D03*
D26*
X266200000Y11158072D03*
%TD*%
D24*
%TO.C,C22*%
X269595000Y17058072D03*
X268045000Y17058072D03*
%TD*%
D14*
%TO.C,R180*%
X218350000Y30245572D03*
X218350000Y31895572D03*
%TD*%
D43*
%TO.C,D56*%
X312100000Y24400000D03*
X312100000Y21600000D03*
%TD*%
D17*
%TO.C,D58*%
X315750000Y27058072D03*
X313250000Y27058072D03*
%TD*%
D14*
%TO.C,R161*%
X248400000Y30233072D03*
X248400000Y31883072D03*
%TD*%
D15*
%TO.C,TP10*%
X263500000Y19908072D03*
%TD*%
D20*
%TO.C,R9*%
X142225000Y11958072D03*
X140575000Y11958072D03*
%TD*%
D27*
%TO.C,R169*%
X233450000Y43433072D03*
X233450000Y37508072D03*
%TD*%
D29*
%TO.C,J17*%
X265400000Y51000000D03*
X267900000Y51000000D03*
X270400000Y51000000D03*
X272900000Y51000000D03*
X275400000Y51000000D03*
X277900000Y51000000D03*
D30*
X280400000Y51000000D03*
%TD*%
D25*
%TO.C,TH3*%
X84495000Y15058072D03*
D26*
X86395000Y15058072D03*
%TD*%
D23*
%TO.C,C82*%
X169100000Y28758072D03*
X170650000Y28758072D03*
%TD*%
D34*
%TO.C,C90*%
X216300000Y16983072D03*
X216300000Y18533072D03*
%TD*%
D23*
%TO.C,C55*%
X114400000Y28758072D03*
X115950000Y28758072D03*
%TD*%
D20*
%TO.C,R7*%
X82525000Y19458072D03*
X80875000Y19458072D03*
%TD*%
D18*
%TO.C,F2*%
X130600000Y47095572D03*
X130600000Y45220572D03*
%TD*%
D27*
%TO.C,R217*%
X300700000Y43520572D03*
X300700000Y37595572D03*
%TD*%
%TO.C,R181*%
X214650000Y43433072D03*
X214650000Y37508072D03*
%TD*%
D17*
%TO.C,D61*%
X301800000Y27058072D03*
X299300000Y27058072D03*
%TD*%
D16*
%TO.C,Q19*%
X171350000Y33620572D03*
X173250000Y33620572D03*
X172300000Y35495572D03*
%TD*%
D14*
%TO.C,R74*%
X105400000Y30233072D03*
X105400000Y31883072D03*
%TD*%
D16*
%TO.C,Q2*%
X130450000Y33620572D03*
X132350000Y33620572D03*
X131400000Y35495572D03*
%TD*%
D23*
%TO.C,C56*%
X109900000Y28758072D03*
X111450000Y28758072D03*
%TD*%
D36*
%TO.C,U11*%
X114450000Y20370572D03*
X113950000Y20370572D03*
X113450000Y20370572D03*
X112950000Y20370572D03*
X112450000Y20370572D03*
X111950000Y20370572D03*
X111450000Y20370572D03*
X110950000Y20370572D03*
X110450000Y20370572D03*
X109950000Y20370572D03*
X109450000Y20370572D03*
X108950000Y20370572D03*
X108450000Y20370572D03*
X107950000Y20370572D03*
X107450000Y20370572D03*
X106950000Y20370572D03*
X106450000Y20370572D03*
X105950000Y20370572D03*
X105450000Y20370572D03*
X104950000Y20370572D03*
X104450000Y20370572D03*
X103950000Y20370572D03*
X103450000Y20370572D03*
X102950000Y20370572D03*
X102950000Y12945572D03*
X103450000Y12945572D03*
X103950000Y12945572D03*
X104450000Y12945572D03*
X104950000Y12945572D03*
X105450000Y12945572D03*
X105950000Y12945572D03*
X106450000Y12945572D03*
X106950000Y12945572D03*
X107450000Y12945572D03*
X107950000Y12945572D03*
X108450000Y12945572D03*
X108950000Y12945572D03*
X109450000Y12945572D03*
X109950000Y12945572D03*
X110450000Y12945572D03*
X110950000Y12945572D03*
X111450000Y12945572D03*
X111950000Y12945572D03*
X112450000Y12945572D03*
X112950000Y12945572D03*
X113450000Y12945572D03*
X113950000Y12945572D03*
X114450000Y12945572D03*
%TD*%
D34*
%TO.C,C40*%
X128700000Y18483072D03*
X128700000Y20033072D03*
%TD*%
D14*
%TO.C,R191*%
X201600000Y30233072D03*
X201600000Y31883072D03*
%TD*%
D23*
%TO.C,C59*%
X96400000Y28758072D03*
X97950000Y28758072D03*
%TD*%
D19*
%TO.C,TH16*%
X285900000Y52825000D03*
X285900000Y51175000D03*
%TD*%
D16*
%TO.C,Q38*%
X204300000Y33633072D03*
X206200000Y33633072D03*
X205250000Y35508072D03*
%TD*%
D14*
%TO.C,R110*%
X186700000Y30233072D03*
X186700000Y31883072D03*
%TD*%
D18*
%TO.C,F14*%
X192900000Y47095572D03*
X192900000Y45220572D03*
%TD*%
%TO.C,F8*%
X104200000Y47095572D03*
X104200000Y45220572D03*
%TD*%
D17*
%TO.C,D44*%
X243725000Y26958072D03*
X241225000Y26958072D03*
%TD*%
D18*
%TO.C,F7*%
X108700000Y47095572D03*
X108700000Y45220572D03*
%TD*%
D14*
%TO.C,R99*%
X158300000Y6445572D03*
X158300000Y8095572D03*
%TD*%
D23*
%TO.C,C83*%
X164700000Y28758072D03*
X166250000Y28758072D03*
%TD*%
D17*
%TO.C,D27*%
X186700000Y26958072D03*
X184200000Y26958072D03*
%TD*%
D16*
%TO.C,Q9*%
X98750000Y33620572D03*
X100650000Y33620572D03*
X99700000Y35495572D03*
%TD*%
D23*
%TO.C,C48*%
X185925000Y3458072D03*
X187475000Y3458072D03*
%TD*%
D16*
%TO.C,Q20*%
X166950000Y33620572D03*
X168850000Y33620572D03*
X167900000Y35495572D03*
%TD*%
D17*
%TO.C,D32*%
X164700000Y26958072D03*
X162200000Y26958072D03*
%TD*%
D23*
%TO.C,C60*%
X91900000Y28758072D03*
X93450000Y28758072D03*
%TD*%
%TO.C,C136*%
X283200000Y28858072D03*
X284750000Y28858072D03*
%TD*%
D14*
%TO.C,R150*%
X221000000Y6158072D03*
X221000000Y7808072D03*
%TD*%
D27*
%TO.C,R136*%
X145850000Y43420572D03*
X145850000Y37495572D03*
%TD*%
D17*
%TO.C,D47*%
X229700000Y26970572D03*
X227200000Y26970572D03*
%TD*%
D16*
%TO.C,Q41*%
X313700000Y33720572D03*
X315600000Y33720572D03*
X314650000Y35595572D03*
%TD*%
D17*
%TO.C,D26*%
X191100000Y26958072D03*
X188600000Y26958072D03*
%TD*%
D23*
%TO.C,C76*%
X268125000Y4458072D03*
X269675000Y4458072D03*
%TD*%
D14*
%TO.C,R83*%
X91900000Y30233072D03*
X91900000Y31883072D03*
%TD*%
D20*
%TO.C,R143*%
X243525000Y21458072D03*
X241875000Y21458072D03*
%TD*%
D33*
%TO.C,C93*%
X253600000Y13058072D03*
X253600000Y11508072D03*
%TD*%
D27*
%TO.C,R238*%
X268075000Y43520572D03*
X268075000Y37595572D03*
%TD*%
D23*
%TO.C,C103*%
X253100000Y28758072D03*
X254650000Y28758072D03*
%TD*%
D14*
%TO.C,R227*%
X287850000Y30333072D03*
X287850000Y31983072D03*
%TD*%
D17*
%TO.C,D53*%
X201950000Y26958072D03*
X199450000Y26958072D03*
%TD*%
D34*
%TO.C,C65*%
X157800000Y17483072D03*
X157800000Y19033072D03*
%TD*%
D14*
%TO.C,R144*%
X13900000Y7608072D03*
X13900000Y9258072D03*
%TD*%
%TO.C,R165*%
X241650000Y30233072D03*
X241650000Y31883072D03*
%TD*%
D23*
%TO.C,C134*%
X292500000Y28858072D03*
X294050000Y28858072D03*
%TD*%
D16*
%TO.C,Q12*%
X85375000Y33620572D03*
X87275000Y33620572D03*
X86325000Y35495572D03*
%TD*%
D17*
%TO.C,D13*%
X118900000Y26958072D03*
X116400000Y26958072D03*
%TD*%
D20*
%TO.C,R44*%
X109625000Y10458072D03*
X107975000Y10458072D03*
%TD*%
D32*
%TO.C,J8*%
X316000000Y4000000D03*
%TD*%
D20*
%TO.C,R146*%
X225725000Y7758072D03*
X224075000Y7758072D03*
%TD*%
D19*
%TO.C,R24*%
X244800000Y6983072D03*
X244800000Y5333072D03*
%TD*%
D17*
%TO.C,D60*%
X306450000Y27058072D03*
X303950000Y27058072D03*
%TD*%
D25*
%TO.C,TH9*%
X144095000Y16958072D03*
D26*
X145995000Y16958072D03*
%TD*%
D19*
%TO.C,R193*%
X306200000Y22825000D03*
X306200000Y21175000D03*
%TD*%
D13*
%TO.C,D57*%
X292100000Y14312500D03*
X292100000Y15887500D03*
%TD*%
D23*
%TO.C,C88*%
X142600000Y28758072D03*
X144150000Y28758072D03*
%TD*%
D14*
%TO.C,R185*%
X210925000Y30245572D03*
X210925000Y31895572D03*
%TD*%
D34*
%TO.C,C42*%
X188800000Y19158072D03*
X188800000Y20708072D03*
%TD*%
D18*
%TO.C,F38*%
X205250000Y47108072D03*
X205250000Y45233072D03*
%TD*%
D17*
%TO.C,D15*%
X109900000Y26958072D03*
X107400000Y26958072D03*
%TD*%
D15*
%TO.C,TP8*%
X203400000Y20158072D03*
%TD*%
D25*
%TO.C,TH7*%
X144095000Y11958072D03*
D26*
X145995000Y11958072D03*
%TD*%
D23*
%TO.C,C57*%
X105400000Y28758072D03*
X106950000Y28758072D03*
%TD*%
D18*
%TO.C,F49*%
X277425000Y47195572D03*
X277425000Y45320572D03*
%TD*%
D14*
%TO.C,R231*%
X281100000Y30333072D03*
X281100000Y31983072D03*
%TD*%
%TO.C,R122*%
X169100000Y30233072D03*
X169100000Y31883072D03*
%TD*%
D27*
%TO.C,R109*%
X185500000Y43420572D03*
X185500000Y37495572D03*
%TD*%
D44*
%TO.C,C25*%
X62850000Y39633072D03*
X60950000Y39633072D03*
%TD*%
D20*
%TO.C,FB1*%
X135425000Y31758072D03*
X133775000Y31758072D03*
%TD*%
%TO.C,R92*%
X183225000Y22458072D03*
X181575000Y22458072D03*
%TD*%
D14*
%TO.C,R80*%
X96400000Y30233072D03*
X96400000Y31883072D03*
%TD*%
D33*
%TO.C,C36*%
X10000000Y41333072D03*
X10000000Y39783072D03*
%TD*%
D14*
%TO.C,R56*%
X132350000Y30233072D03*
X132350000Y31883072D03*
%TD*%
D27*
%TO.C,R58*%
X126700000Y43420572D03*
X126700000Y37495572D03*
%TD*%
D20*
%TO.C,R17*%
X203250000Y18070572D03*
X201600000Y18070572D03*
%TD*%
D23*
%TO.C,C52*%
X127900000Y28758072D03*
X129450000Y28758072D03*
%TD*%
D14*
%TO.C,R132*%
X153600000Y30233072D03*
X153600000Y31883072D03*
%TD*%
D34*
%TO.C,C39*%
X97500000Y17383072D03*
X97500000Y18933072D03*
%TD*%
D32*
%TO.C,J2*%
X234100000Y3958072D03*
%TD*%
D27*
%TO.C,R226*%
X286750000Y43520572D03*
X286750000Y37595572D03*
%TD*%
D18*
%TO.C,F44*%
X300700000Y47195572D03*
X300700000Y45320572D03*
%TD*%
D17*
%TO.C,D64*%
X287850000Y27058072D03*
X285350000Y27058072D03*
%TD*%
D14*
%TO.C,R137*%
X147050000Y30233072D03*
X147050000Y31883072D03*
%TD*%
D33*
%TO.C,C33*%
X26500000Y40758072D03*
X26500000Y39208072D03*
%TD*%
D18*
%TO.C,F34*%
X224175000Y47108072D03*
X224175000Y45233072D03*
%TD*%
D10*
%TO.C,U1*%
X25300000Y1668072D03*
D11*
X25300000Y4208072D03*
X25300000Y6748072D03*
X25300000Y9288072D03*
X25300000Y11828072D03*
X25300000Y14368072D03*
X25300000Y16908072D03*
X25300000Y19448072D03*
X25300000Y21988072D03*
X25300000Y24528072D03*
X25300000Y27068072D03*
X25300000Y29608072D03*
X25300000Y32148072D03*
X25300000Y34688072D03*
X17680000Y34688072D03*
X17680000Y32148072D03*
X17680000Y29608072D03*
X17680000Y27068072D03*
X17680000Y24528072D03*
X17680000Y21988072D03*
X17680000Y19448072D03*
X17680000Y16908072D03*
X17680000Y14368072D03*
X17680000Y11828072D03*
X17680000Y9288072D03*
X17680000Y6748072D03*
X17680000Y4208072D03*
X17680000Y1668072D03*
%TD*%
D16*
%TO.C,Q32*%
X232500000Y33633072D03*
X234400000Y33633072D03*
X233450000Y35508072D03*
%TD*%
D33*
%TO.C,C41*%
X131450000Y14158072D03*
X131450000Y12608072D03*
%TD*%
D23*
%TO.C,C51*%
X132350000Y28758072D03*
X133900000Y28758072D03*
%TD*%
D27*
%TO.C,R163*%
X242700000Y43433072D03*
X242700000Y37508072D03*
%TD*%
D14*
%TO.C,R126*%
X162400000Y30233072D03*
X162400000Y31883072D03*
%TD*%
D23*
%TO.C,C109*%
X225075000Y28758072D03*
X226625000Y28758072D03*
%TD*%
D16*
%TO.C,Q44*%
X299750000Y33720572D03*
X301650000Y33720572D03*
X300700000Y35595572D03*
%TD*%
D18*
%TO.C,F21*%
X163500000Y47095572D03*
X163500000Y45220572D03*
%TD*%
D19*
%TO.C,R47*%
X171800000Y10583072D03*
X171800000Y8933072D03*
%TD*%
D18*
%TO.C,F47*%
X286750000Y47195572D03*
X286750000Y45320572D03*
%TD*%
D16*
%TO.C,Q17*%
X180150000Y33620572D03*
X182050000Y33620572D03*
X181100000Y35495572D03*
%TD*%
D23*
%TO.C,C119*%
X306225000Y19600000D03*
X307775000Y19600000D03*
%TD*%
%TO.C,C80*%
X177900000Y28758072D03*
X179450000Y28758072D03*
%TD*%
D21*
%TO.C,J21*%
X72450000Y6915572D03*
D22*
X72450000Y2955572D03*
%TD*%
D20*
%TO.C,R36*%
X61425000Y21958072D03*
X59775000Y21958072D03*
%TD*%
D18*
%TO.C,F6*%
X113200000Y47095572D03*
X113200000Y45220572D03*
%TD*%
D19*
%TO.C,TH11*%
X228650000Y52420572D03*
X228650000Y50770572D03*
%TD*%
%TO.C,R148*%
X12300000Y8408072D03*
X12300000Y6758072D03*
%TD*%
D20*
%TO.C,R15*%
X203250000Y13158072D03*
X201600000Y13158072D03*
%TD*%
D14*
%TO.C,R65*%
X118900000Y30233072D03*
X118900000Y31883072D03*
%TD*%
D16*
%TO.C,Q18*%
X175750000Y33620572D03*
X177650000Y33620572D03*
X176700000Y35495572D03*
%TD*%
D19*
%TO.C,R27*%
X184300000Y3508072D03*
X184300000Y1858072D03*
%TD*%
D14*
%TO.C,R59*%
X127900000Y30233072D03*
X127900000Y31883072D03*
%TD*%
D18*
%TO.C,F35*%
X219450000Y47108072D03*
X219450000Y45233072D03*
%TD*%
%TO.C,F48*%
X282100000Y47195572D03*
X282100000Y45320572D03*
%TD*%
D45*
%TO.C,U10*%
X22725000Y40748072D03*
X22725000Y43288072D03*
X22725000Y45828072D03*
X22725000Y48368072D03*
X13675000Y48368072D03*
X13675000Y45828072D03*
X13675000Y43288072D03*
X13675000Y40748072D03*
%TD*%
D14*
%TO.C,R182*%
X215650000Y30245572D03*
X215650000Y31895572D03*
%TD*%
D23*
%TO.C,C140*%
X264525000Y28858072D03*
X266075000Y28858072D03*
%TD*%
D28*
%TO.C,JP1*%
X12300000Y27858072D03*
X13600000Y27858072D03*
X14900000Y27858072D03*
%TD*%
D31*
%TO.C,R42*%
X112975000Y7858072D03*
X114625000Y7858072D03*
%TD*%
D18*
%TO.C,F25*%
X146800000Y47095572D03*
X146800000Y45220572D03*
%TD*%
%TO.C,F1*%
X133100000Y47095572D03*
X133100000Y45220572D03*
%TD*%
D14*
%TO.C,R215*%
X306450000Y30333072D03*
X306450000Y31983072D03*
%TD*%
D18*
%TO.C,F37*%
X209950000Y47108072D03*
X209950000Y45233072D03*
%TD*%
%TO.C,F32*%
X233450000Y47108072D03*
X233450000Y45233072D03*
%TD*%
D24*
%TO.C,C26*%
X127625000Y5458072D03*
X126075000Y5458072D03*
%TD*%
D16*
%TO.C,Q26*%
X140450000Y33620572D03*
X142350000Y33620572D03*
X141400000Y35495572D03*
%TD*%
D14*
%TO.C,R243*%
X262425000Y30308072D03*
X262425000Y31958072D03*
%TD*%
%TO.C,R239*%
X269175000Y30333072D03*
X269175000Y31983072D03*
%TD*%
D33*
%TO.C,C67*%
X191100000Y14758072D03*
X191100000Y13208072D03*
%TD*%
D23*
%TO.C,C137*%
X278525000Y28858072D03*
X280075000Y28858072D03*
%TD*%
D16*
%TO.C,Q52*%
X262475000Y33720572D03*
X264375000Y33720572D03*
X263425000Y35595572D03*
%TD*%
D23*
%TO.C,C85*%
X155900000Y28758072D03*
X157450000Y28758072D03*
%TD*%
D27*
%TO.C,R190*%
X200600000Y43420572D03*
X200600000Y37495572D03*
%TD*%
D29*
%TO.C,J11*%
X87700000Y50958072D03*
X90200000Y50958072D03*
X92700000Y50958072D03*
X95200000Y50958072D03*
X97700000Y50958072D03*
X100200000Y50958072D03*
D30*
X102700000Y50958072D03*
%TD*%
D19*
%TO.C,R102*%
X15100000Y23483072D03*
X15100000Y21833072D03*
%TD*%
D18*
%TO.C,F42*%
X308100000Y47195572D03*
X308100000Y45320572D03*
%TD*%
D34*
%TO.C,C20*%
X65907500Y48933072D03*
X65907500Y50483072D03*
%TD*%
D25*
%TO.C,TH5*%
X84495000Y19458072D03*
D26*
X86395000Y19458072D03*
%TD*%
D17*
%TO.C,D48*%
X225150000Y26970572D03*
X222650000Y26970572D03*
%TD*%
%TO.C,D42*%
X253100000Y26958072D03*
X250600000Y26958072D03*
%TD*%
D27*
%TO.C,R82*%
X90800000Y43420572D03*
X90800000Y37495572D03*
%TD*%
D14*
%TO.C,R87*%
X85300000Y30233072D03*
X85300000Y31883072D03*
%TD*%
D23*
%TO.C,C139*%
X269175000Y28858072D03*
X270725000Y28858072D03*
%TD*%
D14*
%TO.C,R173*%
X229700000Y30245572D03*
X229700000Y31895572D03*
%TD*%
D15*
%TO.C,TP5*%
X183700000Y19458072D03*
%TD*%
D14*
%TO.C,R131*%
X155900000Y30233072D03*
X155900000Y31883072D03*
%TD*%
%TO.C,R66*%
X116600000Y30233072D03*
X116600000Y31883072D03*
%TD*%
%TO.C,R129*%
X158000000Y30233072D03*
X158000000Y31883072D03*
%TD*%
D27*
%TO.C,R208*%
X314650000Y43520572D03*
X314650000Y37595572D03*
%TD*%
D34*
%TO.C,C91*%
X217900000Y17483072D03*
X217900000Y19033072D03*
%TD*%
D16*
%TO.C,Q7*%
X107750000Y33620572D03*
X109650000Y33620572D03*
X108700000Y35495572D03*
%TD*%
D14*
%TO.C,R140*%
X142600000Y30233072D03*
X142600000Y31883072D03*
%TD*%
D23*
%TO.C,C32*%
X59491244Y28908072D03*
X61041244Y28908072D03*
%TD*%
D34*
%TO.C,C43*%
X250900000Y17583072D03*
X250900000Y19133072D03*
%TD*%
D20*
%TO.C,R194*%
X304400000Y22758072D03*
X302750000Y22758072D03*
%TD*%
D33*
%TO.C,C115*%
X290600000Y19733072D03*
X290600000Y18183072D03*
%TD*%
D12*
%TO.C,D7*%
X135150000Y21058072D03*
X131850000Y21058072D03*
%TD*%
D17*
%TO.C,D29*%
X177900000Y26958072D03*
X175400000Y26958072D03*
%TD*%
D16*
%TO.C,Q4*%
X121250000Y33620572D03*
X123150000Y33620572D03*
X122200000Y35495572D03*
%TD*%
D14*
%TO.C,R183*%
X213550000Y30245572D03*
X213550000Y31895572D03*
%TD*%
D19*
%TO.C,R46*%
X150700000Y3508072D03*
X150700000Y1858072D03*
%TD*%
D16*
%TO.C,Q23*%
X153750000Y33620572D03*
X155650000Y33620572D03*
X154700000Y35495572D03*
%TD*%
D24*
%TO.C,C8*%
X149475000Y14458072D03*
X147925000Y14458072D03*
%TD*%
D18*
%TO.C,F52*%
X263400000Y47237500D03*
X263400000Y45362500D03*
%TD*%
D27*
%TO.C,R223*%
X291400000Y43520572D03*
X291400000Y37595572D03*
%TD*%
D16*
%TO.C,Q10*%
X94250000Y33620572D03*
X96150000Y33620572D03*
X95200000Y35495572D03*
%TD*%
D18*
%TO.C,F9*%
X99700000Y47095572D03*
X99700000Y45220572D03*
%TD*%
D14*
%TO.C,R134*%
X151450000Y30233072D03*
X151450000Y31883072D03*
%TD*%
D24*
%TO.C,C6*%
X149475000Y10658072D03*
X147925000Y10658072D03*
%TD*%
D27*
%TO.C,R73*%
X104200000Y43420572D03*
X104200000Y37495572D03*
%TD*%
%TO.C,R124*%
X163500000Y43420572D03*
X163500000Y37495572D03*
%TD*%
D46*
%TO.C,J6*%
X72000000Y33250000D03*
D47*
X72000000Y38750000D03*
%TD*%
D14*
%TO.C,R103*%
X13500000Y20133072D03*
X13500000Y21783072D03*
%TD*%
D16*
%TO.C,Q28*%
X251100000Y33620572D03*
X253000000Y33620572D03*
X252050000Y35495572D03*
%TD*%
D14*
%TO.C,R222*%
X295050000Y30333072D03*
X295050000Y31983072D03*
%TD*%
D12*
%TO.C,D6*%
X135150000Y23458072D03*
X131850000Y23458072D03*
%TD*%
D14*
%TO.C,R177*%
X223050000Y30245572D03*
X223050000Y31895572D03*
%TD*%
D18*
%TO.C,F27*%
X253400000Y47095572D03*
X253400000Y45220572D03*
%TD*%
D17*
%TO.C,D30*%
X173500000Y26958072D03*
X171000000Y26958072D03*
%TD*%
D48*
%TO.C,D9*%
X121300000Y20145572D03*
X121300000Y18570572D03*
%TD*%
D20*
%TO.C,R37*%
X64425000Y21958072D03*
X62775000Y21958072D03*
%TD*%
D18*
%TO.C,F36*%
X214650000Y47108072D03*
X214650000Y45233072D03*
%TD*%
D14*
%TO.C,R96*%
X159400000Y17833072D03*
X159400000Y19483072D03*
%TD*%
D39*
%TO.C,TR5*%
X265720000Y1918072D03*
X265720000Y4458072D03*
X265720000Y6998072D03*
X250080000Y6998072D03*
X250080000Y4458072D03*
X250080000Y1918072D03*
%TD*%
D27*
%TO.C,R175*%
X224175000Y43433072D03*
X224175000Y37508072D03*
%TD*%
D14*
%TO.C,R95*%
X163300000Y6420572D03*
X163300000Y8070572D03*
%TD*%
D25*
%TO.C,TH18*%
X264300000Y13458072D03*
D26*
X266200000Y13458072D03*
%TD*%
D20*
%TO.C,R39*%
X59950000Y32358072D03*
X58300000Y32358072D03*
%TD*%
D18*
%TO.C,F16*%
X185500000Y47095572D03*
X185500000Y45220572D03*
%TD*%
D14*
%TO.C,R159*%
X250700000Y30233072D03*
X250700000Y31883072D03*
%TD*%
%TO.C,R81*%
X94100000Y30233072D03*
X94100000Y31883072D03*
%TD*%
D23*
%TO.C,C133*%
X297150000Y28858072D03*
X298700000Y28858072D03*
%TD*%
%TO.C,C108*%
X229700000Y28758072D03*
X231250000Y28758072D03*
%TD*%
D19*
%TO.C,R51*%
X210300000Y6883072D03*
X210300000Y5233072D03*
%TD*%
D12*
%TO.C,D22*%
X194250000Y19758072D03*
X190950000Y19758072D03*
%TD*%
D14*
%TO.C,R179*%
X220450000Y30245572D03*
X220450000Y31895572D03*
%TD*%
D16*
%TO.C,Q47*%
X285800000Y33720572D03*
X287700000Y33720572D03*
X286750000Y35595572D03*
%TD*%
D49*
%TO.C,Q1*%
X128700000Y11858072D03*
X128700000Y14158072D03*
X128700000Y16458072D03*
D50*
X122400000Y14158072D03*
%TD*%
D32*
%TO.C,J4*%
X172700000Y3958072D03*
%TD*%
D15*
%TO.C,TP6*%
X140900000Y21358072D03*
%TD*%
D20*
%TO.C,R6*%
X82525000Y17258072D03*
X80875000Y17258072D03*
%TD*%
D13*
%TO.C,D4*%
X67100000Y18970572D03*
X67100000Y20545572D03*
%TD*%
D14*
%TO.C,R230*%
X283200000Y30333072D03*
X283200000Y31983072D03*
%TD*%
%TO.C,R114*%
X180000000Y30233072D03*
X180000000Y31883072D03*
%TD*%
%TO.C,R113*%
X182300000Y30233072D03*
X182300000Y31883072D03*
%TD*%
%TO.C,R224*%
X292500000Y30333072D03*
X292500000Y31983072D03*
%TD*%
D23*
%TO.C,C112*%
X210925000Y28758072D03*
X212475000Y28758072D03*
%TD*%
D33*
%TO.C,C63*%
X175800000Y21633072D03*
X175800000Y20083072D03*
%TD*%
D31*
%TO.C,R35*%
X63750000Y30345572D03*
X65400000Y30345572D03*
%TD*%
D14*
%TO.C,R60*%
X125600000Y30233072D03*
X125600000Y31883072D03*
%TD*%
D19*
%TO.C,TH6*%
X167900000Y51783072D03*
X167900000Y50133072D03*
%TD*%
D15*
%TO.C,TP9*%
X290300000Y13900000D03*
%TD*%
D34*
%TO.C,C30*%
X63700000Y18883072D03*
X63700000Y20433072D03*
%TD*%
D18*
%TO.C,F12*%
X86325000Y47095572D03*
X86325000Y45220572D03*
%TD*%
D14*
%TO.C,R198*%
X274300000Y15133072D03*
X274300000Y16783072D03*
%TD*%
D23*
%TO.C,C106*%
X239050000Y28758072D03*
X240600000Y28758072D03*
%TD*%
%TO.C,C129*%
X315750000Y28858072D03*
X317300000Y28858072D03*
%TD*%
D17*
%TO.C,D19*%
X91900000Y26958072D03*
X89400000Y26958072D03*
%TD*%
D20*
%TO.C,FB4*%
X318725000Y31958072D03*
X317075000Y31958072D03*
%TD*%
D14*
%TO.C,R236*%
X273850000Y30333072D03*
X273850000Y31983072D03*
%TD*%
D27*
%TO.C,R61*%
X122200000Y43420572D03*
X122200000Y37495572D03*
%TD*%
%TO.C,R235*%
X272750000Y43520572D03*
X272750000Y37595572D03*
%TD*%
D14*
%TO.C,R31*%
X64800000Y37333072D03*
X64800000Y38983072D03*
%TD*%
D33*
%TO.C,C27*%
X28200000Y48608072D03*
X28200000Y47058072D03*
%TD*%
D19*
%TO.C,R97*%
X114600000Y6383072D03*
X114600000Y4733072D03*
%TD*%
D27*
%TO.C,R160*%
X247450000Y43420572D03*
X247450000Y37495572D03*
%TD*%
D23*
%TO.C,C53*%
X123400000Y28758072D03*
X124950000Y28758072D03*
%TD*%
D17*
%TO.C,D17*%
X100900000Y26958072D03*
X98400000Y26958072D03*
%TD*%
D16*
%TO.C,Q31*%
X237100000Y33633072D03*
X239000000Y33633072D03*
X238050000Y35508072D03*
%TD*%
D14*
%TO.C,R174*%
X227650000Y30245572D03*
X227650000Y31895572D03*
%TD*%
D18*
%TO.C,F43*%
X305350000Y47195572D03*
X305350000Y45320572D03*
%TD*%
D17*
%TO.C,D63*%
X292500000Y27058072D03*
X290000000Y27058072D03*
%TD*%
D16*
%TO.C,Q34*%
X223225000Y33633072D03*
X225125000Y33633072D03*
X224175000Y35508072D03*
%TD*%
D14*
%TO.C,R75*%
X103100000Y30233072D03*
X103100000Y31883072D03*
%TD*%
D18*
%TO.C,F4*%
X122200000Y47095572D03*
X122200000Y45220572D03*
%TD*%
D17*
%TO.C,D16*%
X105400000Y26958072D03*
X102900000Y26958072D03*
%TD*%
D19*
%TO.C,R142*%
X256100000Y16783072D03*
X256100000Y15133072D03*
%TD*%
D14*
%TO.C,R240*%
X267075000Y30333072D03*
X267075000Y31983072D03*
%TD*%
D29*
%TO.C,J10*%
X114700000Y50958072D03*
X117200000Y50958072D03*
X119700000Y50958072D03*
X122200000Y50958072D03*
X124700000Y50958072D03*
X127200000Y50958072D03*
D30*
X129700000Y50958072D03*
%TD*%
D24*
%TO.C,C75*%
X248075000Y3300000D03*
X246525000Y3300000D03*
%TD*%
D14*
%TO.C,R135*%
X149150000Y30233072D03*
X149150000Y31883072D03*
%TD*%
D40*
%TO.C,D24*%
X194150000Y24558072D03*
X191350000Y24558072D03*
%TD*%
D14*
%TO.C,R78*%
X98600000Y30233072D03*
X98600000Y31883072D03*
%TD*%
%TO.C,R219*%
X299700000Y30333072D03*
X299700000Y31983072D03*
%TD*%
D24*
%TO.C,C11*%
X210475000Y10758072D03*
X208925000Y10758072D03*
%TD*%
D18*
%TO.C,F33*%
X228650000Y47108072D03*
X228650000Y45233072D03*
%TD*%
D19*
%TO.C,R29*%
X110600000Y3683072D03*
X110600000Y2033072D03*
%TD*%
D18*
%TO.C,F28*%
X251300000Y47095572D03*
X251300000Y45220572D03*
%TD*%
D14*
%TO.C,R188*%
X206250000Y30245572D03*
X206250000Y31895572D03*
%TD*%
D24*
%TO.C,C12*%
X210475000Y12858072D03*
X208925000Y12858072D03*
%TD*%
D18*
%TO.C,F22*%
X159100000Y47095572D03*
X159100000Y45220572D03*
%TD*%
%TO.C,F3*%
X126700000Y47095572D03*
X126700000Y45220572D03*
%TD*%
D14*
%TO.C,R77*%
X100900000Y30233072D03*
X100900000Y31883072D03*
%TD*%
%TO.C,R62*%
X123400000Y30233072D03*
X123400000Y31883072D03*
%TD*%
D36*
%TO.C,U12*%
X173650000Y20370572D03*
X173150000Y20370572D03*
X172650000Y20370572D03*
X172150000Y20370572D03*
X171650000Y20370572D03*
X171150000Y20370572D03*
X170650000Y20370572D03*
X170150000Y20370572D03*
X169650000Y20370572D03*
X169150000Y20370572D03*
X168650000Y20370572D03*
X168150000Y20370572D03*
X167650000Y20370572D03*
X167150000Y20370572D03*
X166650000Y20370572D03*
X166150000Y20370572D03*
X165650000Y20370572D03*
X165150000Y20370572D03*
X164650000Y20370572D03*
X164150000Y20370572D03*
X163650000Y20370572D03*
X163150000Y20370572D03*
X162650000Y20370572D03*
X162150000Y20370572D03*
X162150000Y12945572D03*
X162650000Y12945572D03*
X163150000Y12945572D03*
X163650000Y12945572D03*
X164150000Y12945572D03*
X164650000Y12945572D03*
X165150000Y12945572D03*
X165650000Y12945572D03*
X166150000Y12945572D03*
X166650000Y12945572D03*
X167150000Y12945572D03*
X167650000Y12945572D03*
X168150000Y12945572D03*
X168650000Y12945572D03*
X169150000Y12945572D03*
X169650000Y12945572D03*
X170150000Y12945572D03*
X170650000Y12945572D03*
X171150000Y12945572D03*
X171650000Y12945572D03*
X172150000Y12945572D03*
X172650000Y12945572D03*
X173150000Y12945572D03*
X173650000Y12945572D03*
%TD*%
D14*
%TO.C,R213*%
X309000000Y30333072D03*
X309000000Y31983072D03*
%TD*%
D16*
%TO.C,Q13*%
X80875000Y33620572D03*
X82775000Y33620572D03*
X81825000Y35495572D03*
%TD*%
D19*
%TO.C,R101*%
X286200000Y3783072D03*
X286200000Y2133072D03*
%TD*%
D24*
%TO.C,C96*%
X291575000Y5458072D03*
X290025000Y5458072D03*
%TD*%
D36*
%TO.C,U14*%
X288050000Y17570572D03*
X287550000Y17570572D03*
X287050000Y17570572D03*
X286550000Y17570572D03*
X286050000Y17570572D03*
X285550000Y17570572D03*
X285050000Y17570572D03*
X284550000Y17570572D03*
X284050000Y17570572D03*
X283550000Y17570572D03*
X283050000Y17570572D03*
X282550000Y17570572D03*
X282050000Y17570572D03*
X281550000Y17570572D03*
X281050000Y17570572D03*
X280550000Y17570572D03*
X280050000Y17570572D03*
X279550000Y17570572D03*
X279050000Y17570572D03*
X278550000Y17570572D03*
X278050000Y17570572D03*
X277550000Y17570572D03*
X277050000Y17570572D03*
X276550000Y17570572D03*
X276550000Y10145572D03*
X277050000Y10145572D03*
X277550000Y10145572D03*
X278050000Y10145572D03*
X278550000Y10145572D03*
X279050000Y10145572D03*
X279550000Y10145572D03*
X280050000Y10145572D03*
X280550000Y10145572D03*
X281050000Y10145572D03*
X281550000Y10145572D03*
X282050000Y10145572D03*
X282550000Y10145572D03*
X283050000Y10145572D03*
X283550000Y10145572D03*
X284050000Y10145572D03*
X284550000Y10145572D03*
X285050000Y10145572D03*
X285550000Y10145572D03*
X286050000Y10145572D03*
X286550000Y10145572D03*
X287050000Y10145572D03*
X287550000Y10145572D03*
X288050000Y10145572D03*
%TD*%
D19*
%TO.C,R1*%
X123800000Y3583072D03*
X123800000Y1933072D03*
%TD*%
D49*
%TO.C,Q27*%
X250950000Y10758072D03*
X250950000Y13058072D03*
X250950000Y15358072D03*
D50*
X244650000Y13058072D03*
%TD*%
D16*
%TO.C,Q22*%
X158150000Y33620572D03*
X160050000Y33620572D03*
X159100000Y35495572D03*
%TD*%
D27*
%TO.C,R214*%
X305350000Y43520572D03*
X305350000Y37595572D03*
%TD*%
D14*
%TO.C,R107*%
X191100000Y30233072D03*
X191100000Y31883072D03*
%TD*%
%TO.C,R84*%
X89600000Y30233072D03*
X89600000Y31883072D03*
%TD*%
D17*
%TO.C,D33*%
X160300000Y26958072D03*
X157800000Y26958072D03*
%TD*%
D34*
%TO.C,C66*%
X303900000Y18683072D03*
X303900000Y20233072D03*
%TD*%
D23*
%TO.C,C71*%
X211900000Y4358072D03*
X213450000Y4358072D03*
%TD*%
D14*
%TO.C,R108*%
X188800000Y30233072D03*
X188800000Y31883072D03*
%TD*%
%TO.C,R228*%
X285750000Y30333072D03*
X285750000Y31983072D03*
%TD*%
D24*
%TO.C,C16*%
X269570000Y10058072D03*
X268020000Y10058072D03*
%TD*%
D14*
%TO.C,R221*%
X297150000Y30333072D03*
X297150000Y31983072D03*
%TD*%
D34*
%TO.C,C64*%
X156200000Y16883072D03*
X156200000Y18433072D03*
%TD*%
D32*
%TO.C,J3*%
X4000000Y50958072D03*
%TD*%
D27*
%TO.C,R130*%
X154700000Y43420572D03*
X154700000Y37495572D03*
%TD*%
D17*
%TO.C,D49*%
X220450000Y26970572D03*
X217950000Y26970572D03*
%TD*%
D14*
%TO.C,R164*%
X243725000Y30233072D03*
X243725000Y31883072D03*
%TD*%
D18*
%TO.C,F11*%
X90800000Y47095572D03*
X90800000Y45220572D03*
%TD*%
D16*
%TO.C,Q49*%
X276475000Y33720572D03*
X278375000Y33720572D03*
X277425000Y35595572D03*
%TD*%
D23*
%TO.C,C45*%
X147525000Y4458072D03*
X149075000Y4458072D03*
%TD*%
D27*
%TO.C,R115*%
X176700000Y43420572D03*
X176700000Y37495572D03*
%TD*%
D24*
%TO.C,C3*%
X89829962Y15258072D03*
X88279962Y15258072D03*
%TD*%
D14*
%TO.C,R158*%
X252800000Y30233072D03*
X252800000Y31883072D03*
%TD*%
D17*
%TO.C,D18*%
X96400000Y26958072D03*
X93900000Y26958072D03*
%TD*%
D14*
%TO.C,R33*%
X67100000Y22233072D03*
X67100000Y23883072D03*
%TD*%
D18*
%TO.C,F45*%
X296050000Y47195572D03*
X296050000Y45320572D03*
%TD*%
D27*
%TO.C,R166*%
X238050000Y43433072D03*
X238050000Y37508072D03*
%TD*%
D14*
%TO.C,R141*%
X140300000Y30233072D03*
X140300000Y31883072D03*
%TD*%
D20*
%TO.C,R41*%
X126500000Y23358072D03*
X124850000Y23358072D03*
%TD*%
D16*
%TO.C,Q15*%
X188950000Y33620572D03*
X190850000Y33620572D03*
X189900000Y35495572D03*
%TD*%
D23*
%TO.C,C130*%
X311100000Y28858072D03*
X312650000Y28858072D03*
%TD*%
D18*
%TO.C,F13*%
X81825000Y47095572D03*
X81825000Y45220572D03*
%TD*%
D25*
%TO.C,TH4*%
X84495000Y17258072D03*
D26*
X86395000Y17258072D03*
%TD*%
D12*
%TO.C,D38*%
X256100000Y23558072D03*
X252800000Y23558072D03*
%TD*%
D24*
%TO.C,C15*%
X210475000Y18258072D03*
X208925000Y18258072D03*
%TD*%
D18*
%TO.C,F30*%
X242700000Y47095572D03*
X242700000Y45220572D03*
%TD*%
D20*
%TO.C,FB2*%
X194300000Y33608072D03*
X192650000Y33608072D03*
%TD*%
D27*
%TO.C,R139*%
X141400000Y43420572D03*
X141400000Y37495572D03*
%TD*%
D31*
%TO.C,R13*%
X201600000Y9870572D03*
X203250000Y9870572D03*
%TD*%
D23*
%TO.C,C135*%
X287850000Y28858072D03*
X289400000Y28858072D03*
%TD*%
D29*
%TO.C,J13*%
X147200000Y50958072D03*
X149700000Y50958072D03*
X152200000Y50958072D03*
X154700000Y50958072D03*
X157200000Y50958072D03*
X159700000Y50958072D03*
D30*
X162200000Y50958072D03*
%TD*%
D32*
%TO.C,J18*%
X71000000Y50958072D03*
%TD*%
D17*
%TO.C,D10*%
X132325000Y26958072D03*
X129825000Y26958072D03*
%TD*%
D44*
%TO.C,C23*%
X62850000Y37558072D03*
X60950000Y37558072D03*
%TD*%
D23*
%TO.C,C104*%
X248400000Y28758072D03*
X249950000Y28758072D03*
%TD*%
D18*
%TO.C,F26*%
X143900000Y47095572D03*
X143900000Y45220572D03*
%TD*%
D23*
%TO.C,C58*%
X100900000Y28758072D03*
X102450000Y28758072D03*
%TD*%
D24*
%TO.C,C13*%
X210475000Y14558072D03*
X208925000Y14558072D03*
%TD*%
D51*
%TO.C,U9*%
X59550000Y27308072D03*
X59550000Y26808072D03*
X59550000Y26308072D03*
X59550000Y25808072D03*
X59550000Y25308072D03*
X59550000Y24808072D03*
X59550000Y24308072D03*
X59550000Y23808072D03*
X63850000Y23808072D03*
X63850000Y24308072D03*
X63850000Y24808072D03*
X63850000Y25308072D03*
X63850000Y25808072D03*
X63850000Y26308072D03*
X63850000Y26808072D03*
X63850000Y27308072D03*
%TD*%
D14*
%TO.C,R171*%
X232300000Y30245572D03*
X232300000Y31895572D03*
%TD*%
D27*
%TO.C,R55*%
X131400000Y43420572D03*
X131400000Y37495572D03*
%TD*%
%TO.C,R70*%
X108700000Y43420572D03*
X108700000Y37495572D03*
%TD*%
D14*
%TO.C,R176*%
X225150000Y30245572D03*
X225150000Y31895572D03*
%TD*%
D17*
%TO.C,D20*%
X87425000Y26958072D03*
X84925000Y26958072D03*
%TD*%
D14*
%TO.C,R68*%
X114400000Y30233072D03*
X114400000Y31883072D03*
%TD*%
D23*
%TO.C,C111*%
X215650000Y28758072D03*
X217200000Y28758072D03*
%TD*%
D20*
%TO.C,R197*%
X283225000Y7458072D03*
X281575000Y7458072D03*
%TD*%
D16*
%TO.C,Q16*%
X184550000Y33620572D03*
X186450000Y33620572D03*
X185500000Y35495572D03*
%TD*%
D23*
%TO.C,C131*%
X306450000Y28858072D03*
X308000000Y28858072D03*
%TD*%
D19*
%TO.C,R105*%
X13200000Y13508072D03*
X13200000Y11858072D03*
%TD*%
D14*
%TO.C,R242*%
X264525000Y30333072D03*
X264525000Y31983072D03*
%TD*%
%TO.C,R149*%
X13900000Y2508072D03*
X13900000Y4158072D03*
%TD*%
%TO.C,R125*%
X164700000Y30233072D03*
X164700000Y31883072D03*
%TD*%
D18*
%TO.C,F20*%
X167900000Y47095572D03*
X167900000Y45220572D03*
%TD*%
%TO.C,F41*%
X310700000Y47195572D03*
X310700000Y45320572D03*
%TD*%
D20*
%TO.C,R21*%
X262525000Y16058072D03*
X260875000Y16058072D03*
%TD*%
D27*
%TO.C,R220*%
X296050000Y43520572D03*
X296050000Y37595572D03*
%TD*%
D19*
%TO.C,R54*%
X232600000Y10583072D03*
X232600000Y8933072D03*
%TD*%
D20*
%TO.C,R5*%
X82525000Y15058072D03*
X80875000Y15058072D03*
%TD*%
D17*
%TO.C,D66*%
X278525000Y27058072D03*
X276025000Y27058072D03*
%TD*%
D25*
%TO.C,TH15*%
X205195000Y18058072D03*
D26*
X207095000Y18058072D03*
%TD*%
D23*
%TO.C,C54*%
X118900000Y28758072D03*
X120450000Y28758072D03*
%TD*%
%TO.C,C77*%
X191100000Y28758072D03*
X192650000Y28758072D03*
%TD*%
D14*
%TO.C,R162*%
X246300000Y30233072D03*
X246300000Y31883072D03*
%TD*%
D27*
%TO.C,R85*%
X86325000Y43420572D03*
X86325000Y37495572D03*
%TD*%
D17*
%TO.C,D34*%
X155900000Y26958072D03*
X153400000Y26958072D03*
%TD*%
D14*
%TO.C,R111*%
X184400000Y30233072D03*
X184400000Y31883072D03*
%TD*%
D17*
%TO.C,D21*%
X83250000Y26958072D03*
X80750000Y26958072D03*
%TD*%
D49*
%TO.C,Q14*%
X188850000Y12458072D03*
X188850000Y14758072D03*
X188850000Y17058072D03*
D50*
X182550000Y14758072D03*
%TD*%
D20*
%TO.C,R20*%
X262525000Y14458072D03*
X260875000Y14458072D03*
%TD*%
D27*
%TO.C,R106*%
X189900000Y43420572D03*
X189900000Y37495572D03*
%TD*%
D14*
%TO.C,R192*%
X199500000Y30233072D03*
X199500000Y31883072D03*
%TD*%
D23*
%TO.C,C87*%
X147050000Y28758072D03*
X148600000Y28758072D03*
%TD*%
D18*
%TO.C,F24*%
X150250000Y47095572D03*
X150250000Y45220572D03*
%TD*%
D39*
%TO.C,TR6*%
X309170000Y1818072D03*
X309170000Y4358072D03*
X309170000Y6898072D03*
X293530000Y6898072D03*
X293530000Y4358072D03*
X293530000Y1818072D03*
%TD*%
D49*
%TO.C,Q40*%
X303950000Y11958072D03*
X303950000Y14258072D03*
X303950000Y16558072D03*
D50*
X297650000Y14258072D03*
%TD*%
D28*
%TO.C,JP2*%
X12300000Y30458072D03*
X13600000Y30458072D03*
X14900000Y30458072D03*
%TD*%
D20*
%TO.C,R22*%
X262525000Y17758072D03*
X260875000Y17758072D03*
%TD*%
D12*
%TO.C,D23*%
X194250000Y22158072D03*
X190950000Y22158072D03*
%TD*%
D31*
%TO.C,R3*%
X80875000Y11658072D03*
X82525000Y11658072D03*
%TD*%
D16*
%TO.C,Q37*%
X209000000Y33633072D03*
X210900000Y33633072D03*
X209950000Y35508072D03*
%TD*%
D19*
%TO.C,R201*%
X292100000Y12850000D03*
X292100000Y11200000D03*
%TD*%
D29*
%TO.C,J12*%
X173600000Y50958072D03*
X176100000Y50958072D03*
X178600000Y50958072D03*
X181100000Y50958072D03*
X183600000Y50958072D03*
X186100000Y50958072D03*
D30*
X188600000Y50958072D03*
%TD*%
D16*
%TO.C,Q48*%
X281150000Y33720572D03*
X283050000Y33720572D03*
X282100000Y35595572D03*
%TD*%
D31*
%TO.C,R8*%
X140575000Y10358072D03*
X142225000Y10358072D03*
%TD*%
D29*
%TO.C,J16*%
X292300000Y51025000D03*
X294800000Y51025000D03*
X297300000Y51025000D03*
X299800000Y51025000D03*
X302300000Y51025000D03*
X304800000Y51025000D03*
D30*
X307300000Y51025000D03*
%TD*%
D14*
%TO.C,R119*%
X173500000Y30233072D03*
X173500000Y31883072D03*
%TD*%
%TO.C,R237*%
X271750000Y30333072D03*
X271750000Y31983072D03*
%TD*%
D20*
%TO.C,R38*%
X65400000Y28758072D03*
X63750000Y28758072D03*
%TD*%
%TO.C,R196*%
X283225000Y5858072D03*
X281575000Y5858072D03*
%TD*%
D25*
%TO.C,TH12*%
X205195000Y10958072D03*
D26*
X207095000Y10958072D03*
%TD*%
D17*
%TO.C,D31*%
X169100000Y26958072D03*
X166600000Y26958072D03*
%TD*%
%TO.C,D51*%
X210925000Y26970572D03*
X208425000Y26970572D03*
%TD*%
D27*
%TO.C,R178*%
X219450000Y43433072D03*
X219450000Y37508072D03*
%TD*%
D24*
%TO.C,C14*%
X210475000Y16070572D03*
X208925000Y16070572D03*
%TD*%
D23*
%TO.C,C44*%
X246525000Y5500000D03*
X248075000Y5500000D03*
%TD*%
D19*
%TO.C,R28*%
X184300000Y6858072D03*
X184300000Y5208072D03*
%TD*%
D20*
%TO.C,R14*%
X203250000Y11470572D03*
X201600000Y11470572D03*
%TD*%
D17*
%TO.C,D67*%
X273850000Y27058072D03*
X271350000Y27058072D03*
%TD*%
D19*
%TO.C,R53*%
X271200000Y6958072D03*
X271200000Y5308072D03*
%TD*%
D17*
%TO.C,D12*%
X123400000Y26958072D03*
X120900000Y26958072D03*
%TD*%
D24*
%TO.C,C46*%
X291575000Y3258072D03*
X290025000Y3258072D03*
%TD*%
D20*
%TO.C,R43*%
X109625000Y8858072D03*
X107975000Y8858072D03*
%TD*%
D24*
%TO.C,C1*%
X89829962Y12058072D03*
X88279962Y12058072D03*
%TD*%
D27*
%TO.C,R232*%
X277425000Y43520572D03*
X277425000Y37595572D03*
%TD*%
D37*
%TO.C,D54*%
X317100000Y24450000D03*
X317100000Y21150000D03*
%TD*%
D32*
%TO.C,J7*%
X4000000Y3958072D03*
%TD*%
D14*
%TO.C,R116*%
X177900000Y30233072D03*
X177900000Y31883072D03*
%TD*%
D25*
%TO.C,TH10*%
X144095000Y19158072D03*
D26*
X145995000Y19158072D03*
%TD*%
D14*
%TO.C,R120*%
X171200000Y30233072D03*
X171200000Y31883072D03*
%TD*%
D16*
%TO.C,Q6*%
X112250000Y33620572D03*
X114150000Y33620572D03*
X113200000Y35495572D03*
%TD*%
D25*
%TO.C,TH13*%
X205195000Y13158072D03*
D26*
X207095000Y13158072D03*
%TD*%
D18*
%TO.C,F17*%
X181100000Y47095572D03*
X181100000Y45220572D03*
%TD*%
D14*
%TO.C,R86*%
X87425000Y30233072D03*
X87425000Y31883072D03*
%TD*%
D19*
%TO.C,R34*%
X26600000Y47083072D03*
X26600000Y45433072D03*
%TD*%
D14*
%TO.C,R167*%
X239050000Y30245572D03*
X239050000Y31895572D03*
%TD*%
D39*
%TO.C,TR4*%
X205120000Y1918072D03*
X205120000Y4458072D03*
X205120000Y6998072D03*
X189480000Y6998072D03*
X189480000Y4458072D03*
X189480000Y1918072D03*
%TD*%
D20*
%TO.C,R12*%
X142230000Y19358072D03*
X140580000Y19358072D03*
%TD*%
D27*
%TO.C,R187*%
X205250000Y43433072D03*
X205250000Y37508072D03*
%TD*%
D16*
%TO.C,Q21*%
X162550000Y33620572D03*
X164450000Y33620572D03*
X163500000Y35495572D03*
%TD*%
D14*
%TO.C,R71*%
X109900000Y30233072D03*
X109900000Y31883072D03*
%TD*%
D34*
%TO.C,C38*%
X95900000Y16883072D03*
X95900000Y18433072D03*
%TD*%
D16*
%TO.C,Q43*%
X304400000Y33720572D03*
X306300000Y33720572D03*
X305350000Y35595572D03*
%TD*%
D25*
%TO.C,TH14*%
X205195000Y15358072D03*
D26*
X207095000Y15358072D03*
%TD*%
D39*
%TO.C,TR1*%
X105200000Y2018072D03*
X105200000Y4558072D03*
X105200000Y7098072D03*
X89560000Y7098072D03*
X89560000Y4558072D03*
X89560000Y2018072D03*
%TD*%
D17*
%TO.C,D52*%
X206250000Y26970572D03*
X203750000Y26970572D03*
%TD*%
D27*
%TO.C,R76*%
X99700000Y43420572D03*
X99700000Y37495572D03*
%TD*%
D52*
%TO.C,TR2*%
X65140000Y16878072D03*
X62600000Y16878072D03*
X60060000Y16878072D03*
X60060000Y1238072D03*
X62600000Y1238072D03*
X65140000Y1238072D03*
%TD*%
D18*
%TO.C,F29*%
X247450000Y47108072D03*
X247450000Y45233072D03*
%TD*%
D27*
%TO.C,R127*%
X159100000Y43420572D03*
X159100000Y37495572D03*
%TD*%
D17*
%TO.C,D28*%
X182300000Y26958072D03*
X179800000Y26958072D03*
%TD*%
D53*
%TO.C,J5*%
X1900000Y45098072D03*
D54*
X1900000Y42558072D03*
X1900000Y40018072D03*
X1900000Y37478072D03*
%TD*%
D16*
%TO.C,Q30*%
X241750000Y33620572D03*
X243650000Y33620572D03*
X242700000Y35495572D03*
%TD*%
D24*
%TO.C,C4*%
X89829962Y17445572D03*
X88279962Y17445572D03*
%TD*%
D14*
%TO.C,R104*%
X14800000Y12708072D03*
X14800000Y14358072D03*
%TD*%
D23*
%TO.C,C49*%
X207125000Y4458072D03*
X208675000Y4458072D03*
%TD*%
D27*
%TO.C,R79*%
X95200000Y43420572D03*
X95200000Y37495572D03*
%TD*%
D34*
%TO.C,C28*%
X28200000Y43683072D03*
X28200000Y45233072D03*
%TD*%
D17*
%TO.C,D59*%
X311100000Y27058072D03*
X308600000Y27058072D03*
%TD*%
D23*
%TO.C,C79*%
X182300000Y28758072D03*
X183850000Y28758072D03*
%TD*%
D20*
%TO.C,R145*%
X225725000Y6158072D03*
X224075000Y6158072D03*
%TD*%
D16*
%TO.C,Q35*%
X218500000Y33633072D03*
X220400000Y33633072D03*
X219450000Y35508072D03*
%TD*%
D25*
%TO.C,TH2*%
X84495000Y12858072D03*
D26*
X86395000Y12858072D03*
%TD*%
D14*
%TO.C,R216*%
X304350000Y30333072D03*
X304350000Y31983072D03*
%TD*%
D18*
%TO.C,F18*%
X176700000Y47095572D03*
X176700000Y45220572D03*
%TD*%
D23*
%TO.C,C78*%
X186700000Y28758072D03*
X188250000Y28758072D03*
%TD*%
D18*
%TO.C,F46*%
X291400000Y47195572D03*
X291400000Y45320572D03*
%TD*%
D23*
%TO.C,C138*%
X273850000Y28858072D03*
X275400000Y28858072D03*
%TD*%
%TO.C,C110*%
X220450000Y28758072D03*
X222000000Y28758072D03*
%TD*%
%TO.C,C81*%
X173500000Y28758072D03*
X175050000Y28758072D03*
%TD*%
D17*
%TO.C,D35*%
X151450000Y26958072D03*
X148950000Y26958072D03*
%TD*%
M02*
