%TF.GenerationSoftware,KiCad,Pcbnew,9.0.4*%
%TF.CreationDate,2025-10-02T14:04:06+09:00*%
%TF.ProjectId,LTC6811_ESP32_Master_V5P3,4c544336-3831-4315-9f45-535033325f4d,rev?*%
%TF.SameCoordinates,Original*%
%TF.FileFunction,Soldermask,Bot*%
%TF.FilePolarity,Negative*%
%FSLAX46Y46*%
G04 Gerber Fmt 4.6, Leading zero omitted, Abs format (unit mm)*
G04 Created by KiCad (PCBNEW 9.0.4) date 2025-10-02 14:04:06*
%MOMM*%
%LPD*%
G01*
G04 APERTURE LIST*
G04 Aperture macros list*
%AMRoundRect*
0 Rectangle with rounded corners*
0 $1 Rounding radius*
0 $2 $3 $4 $5 $6 $7 $8 $9 X,Y pos of 4 corners*
0 Add a 4 corners polygon primitive as box body*
4,1,4,$2,$3,$4,$5,$6,$7,$8,$9,$2,$3,0*
0 Add four circle primitives for the rounded corners*
1,1,$1+$1,$2,$3*
1,1,$1+$1,$4,$5*
1,1,$1+$1,$6,$7*
1,1,$1+$1,$8,$9*
0 Add four rect primitives between the rounded corners*
20,1,$1+$1,$2,$3,$4,$5,0*
20,1,$1+$1,$4,$5,$6,$7,0*
20,1,$1+$1,$6,$7,$8,$9,0*
20,1,$1+$1,$8,$9,$2,$3,0*%
G04 Aperture macros list end*
%ADD10C,3.200000*%
%ADD11RoundRect,0.250000X0.725000X-0.600000X0.725000X0.600000X-0.725000X0.600000X-0.725000X-0.600000X0*%
%ADD12O,1.950000X1.700000*%
%ADD13R,1.600000X1.600000*%
%ADD14O,1.600000X1.600000*%
%ADD15C,1.400000*%
%ADD16O,1.400000X1.400000*%
%ADD17O,1.700000X1.950000*%
%ADD18RoundRect,0.250000X0.600000X0.725000X-0.600000X0.725000X-0.600000X-0.725000X0.600000X-0.725000X0*%
%ADD19RoundRect,0.250001X-1.099999X1.099999X-1.099999X-1.099999X1.099999X-1.099999X1.099999X1.099999X0*%
%ADD20C,2.700000*%
%ADD21RoundRect,0.250000X-0.725000X0.600000X-0.725000X-0.600000X0.725000X-0.600000X0.725000X0.600000X0*%
G04 APERTURE END LIST*
D10*
%TO.C,J21*%
X67600000Y4300000D03*
%TD*%
%TO.C,J4*%
X196000000Y4000000D03*
%TD*%
%TO.C,J3*%
X4000000Y51000000D03*
%TD*%
%TO.C,J18*%
X67600000Y50800000D03*
%TD*%
%TO.C,J7*%
X4100000Y4100000D03*
%TD*%
%TO.C,J19*%
X195900000Y50900000D03*
%TD*%
D11*
%TO.C,J1*%
X9900000Y35900000D03*
D12*
X9900000Y38400000D03*
X9900000Y40900000D03*
X9900000Y43400000D03*
%TD*%
D13*
%TO.C,U8*%
X35365000Y47178072D03*
D14*
X35365000Y44638072D03*
X35365000Y42098072D03*
X35365000Y39558072D03*
X35365000Y37018072D03*
X35365000Y34478072D03*
X35365000Y31938072D03*
X35365000Y29398072D03*
X35365000Y26858072D03*
X35365000Y24318072D03*
X35365000Y21778072D03*
X35365000Y19238072D03*
X35365000Y16698072D03*
X35365000Y14158072D03*
X35365000Y11618072D03*
X35365000Y9078072D03*
X35365000Y6538072D03*
X35365000Y3998072D03*
X35365000Y1458072D03*
X60765000Y1458072D03*
X60765000Y3998072D03*
X60765000Y6538072D03*
X60765000Y9078072D03*
X60765000Y11618072D03*
X60765000Y14158072D03*
X60765000Y16698072D03*
X60765000Y19238072D03*
X60765000Y21778072D03*
X60765000Y24318072D03*
X60765000Y26858072D03*
X60765000Y29398072D03*
X60765000Y31938072D03*
X60765000Y34478072D03*
X60765000Y37018072D03*
X60765000Y39558072D03*
X60765000Y42098072D03*
X60765000Y44638072D03*
X60765000Y47178072D03*
%TD*%
D15*
%TO.C,TH8*%
X139995000Y14700000D03*
D16*
X141895000Y14700000D03*
%TD*%
D13*
%TO.C,SW1*%
X29800000Y26667500D03*
D14*
X27260000Y26667500D03*
X24720000Y26667500D03*
X22180000Y26667500D03*
X19640000Y26667500D03*
X17100000Y26667500D03*
X14560000Y26667500D03*
X12020000Y26667500D03*
X12020000Y19047500D03*
X14560000Y19047500D03*
X17100000Y19047500D03*
X19640000Y19047500D03*
X22180000Y19047500D03*
X24720000Y19047500D03*
X27260000Y19047500D03*
X29800000Y19047500D03*
%TD*%
D15*
%TO.C,TH3*%
X80395000Y15100000D03*
D16*
X82295000Y15100000D03*
%TD*%
D15*
%TO.C,TH9*%
X139995000Y17000000D03*
D16*
X141895000Y17000000D03*
%TD*%
D15*
%TO.C,TH7*%
X139995000Y12000000D03*
D16*
X141895000Y12000000D03*
%TD*%
D17*
%TO.C,J11*%
X83600000Y51000000D03*
X86100000Y51000000D03*
X88600000Y51000000D03*
X91100000Y51000000D03*
X93600000Y51000000D03*
X96100000Y51000000D03*
D18*
X98600000Y51000000D03*
%TD*%
D15*
%TO.C,TH5*%
X80395000Y19500000D03*
D16*
X82295000Y19500000D03*
%TD*%
D19*
%TO.C,J6*%
X195700000Y15900000D03*
D20*
X195700000Y11940000D03*
%TD*%
D17*
%TO.C,J10*%
X110600000Y51000000D03*
X113100000Y51000000D03*
X115600000Y51000000D03*
X118100000Y51000000D03*
X120600000Y51000000D03*
X123100000Y51000000D03*
D18*
X125600000Y51000000D03*
%TD*%
D15*
%TO.C,TH4*%
X80395000Y17300000D03*
D16*
X82295000Y17300000D03*
%TD*%
D17*
%TO.C,J13*%
X143100000Y51000000D03*
X145600000Y51000000D03*
X148100000Y51000000D03*
X150600000Y51000000D03*
X153100000Y51000000D03*
X155600000Y51000000D03*
D18*
X158100000Y51000000D03*
%TD*%
D21*
%TO.C,J23*%
X4800000Y30000000D03*
D12*
X4800000Y27500000D03*
X4800000Y25000000D03*
X4800000Y22500000D03*
%TD*%
D17*
%TO.C,J12*%
X169500000Y51000000D03*
X172000000Y51000000D03*
X174500000Y51000000D03*
X177000000Y51000000D03*
X179500000Y51000000D03*
X182000000Y51000000D03*
D18*
X184500000Y51000000D03*
%TD*%
D15*
%TO.C,TH10*%
X139995000Y19200000D03*
D16*
X141895000Y19200000D03*
%TD*%
D11*
%TO.C,J5*%
X3000000Y35900000D03*
D12*
X3000000Y38400000D03*
X3000000Y40900000D03*
X3000000Y43400000D03*
%TD*%
D15*
%TO.C,TH2*%
X80395000Y12900000D03*
D16*
X82295000Y12900000D03*
%TD*%
M02*
