%TF.GenerationSoftware,KiCad,Pcbnew,9.0.4*%
%TF.CreationDate,2025-10-02T14:04:06+09:00*%
%TF.ProjectId,LTC6811_ESP32_Master_V5P3,4c544336-3831-4315-9f45-535033325f4d,rev?*%
%TF.SameCoordinates,Original*%
%TF.FileFunction,Legend,Bot*%
%TF.FilePolarity,Positive*%
%FSLAX46Y46*%
G04 Gerber Fmt 4.6, Leading zero omitted, Abs format (unit mm)*
G04 Created by KiCad (PCBNEW 9.0.4) date 2025-10-02 14:04:06*
%MOMM*%
%LPD*%
G01*
G04 APERTURE LIST*
G04 Aperture macros list*
%AMRoundRect*
0 Rectangle with rounded corners*
0 $1 Rounding radius*
0 $2 $3 $4 $5 $6 $7 $8 $9 X,Y pos of 4 corners*
0 Add a 4 corners polygon primitive as box body*
4,1,4,$2,$3,$4,$5,$6,$7,$8,$9,$2,$3,0*
0 Add four circle primitives for the rounded corners*
1,1,$1+$1,$2,$3*
1,1,$1+$1,$4,$5*
1,1,$1+$1,$6,$7*
1,1,$1+$1,$8,$9*
0 Add four rect primitives between the rounded corners*
20,1,$1+$1,$2,$3,$4,$5,0*
20,1,$1+$1,$4,$5,$6,$7,0*
20,1,$1+$1,$6,$7,$8,$9,0*
20,1,$1+$1,$8,$9,$2,$3,0*%
G04 Aperture macros list end*
%ADD10C,0.120000*%
%ADD11C,0.150000*%
%ADD12C,0.010000*%
%ADD13C,3.200000*%
%ADD14RoundRect,0.250000X0.725000X-0.600000X0.725000X0.600000X-0.725000X0.600000X-0.725000X-0.600000X0*%
%ADD15O,1.950000X1.700000*%
%ADD16R,1.600000X1.600000*%
%ADD17O,1.600000X1.600000*%
%ADD18C,1.400000*%
%ADD19O,1.400000X1.400000*%
%ADD20O,1.700000X1.950000*%
%ADD21RoundRect,0.250000X0.600000X0.725000X-0.600000X0.725000X-0.600000X-0.725000X0.600000X-0.725000X0*%
%ADD22RoundRect,0.250001X-1.099999X1.099999X-1.099999X-1.099999X1.099999X-1.099999X1.099999X1.099999X0*%
%ADD23C,2.700000*%
%ADD24RoundRect,0.250000X-0.725000X0.600000X-0.725000X-0.600000X0.725000X-0.600000X0.725000X0.600000X0*%
G04 APERTURE END LIST*
D10*
X139000000Y12900000D02*
X142800000Y12900000D01*
X142800000Y11100000D01*
X139000000Y11100000D01*
X139000000Y12900000D01*
X139000000Y20100000D02*
X142800000Y20100000D01*
X142800000Y18300000D01*
X139000000Y18300000D01*
X139000000Y20100000D01*
X79400000Y13800000D02*
X83200000Y13800000D01*
X83200000Y12000000D01*
X79400000Y12000000D01*
X79400000Y13800000D01*
X79400000Y20400000D02*
X83200000Y20400000D01*
X83200000Y18600000D01*
X79400000Y18600000D01*
X79400000Y20400000D01*
X139000000Y15600000D02*
X142800000Y15600000D01*
X142800000Y13800000D01*
X139000000Y13800000D01*
X139000000Y15600000D01*
X79400000Y18200000D02*
X83200000Y18200000D01*
X83200000Y16400000D01*
X79400000Y16400000D01*
X79400000Y18200000D01*
X139000000Y17900000D02*
X142800000Y17900000D01*
X142800000Y16100000D01*
X139000000Y16100000D01*
X139000000Y17900000D01*
X79400000Y16000000D02*
X83200000Y16000000D01*
X83200000Y14200000D01*
X79400000Y14200000D01*
X79400000Y16000000D01*
D11*
X54329887Y37223879D02*
X54187030Y37176260D01*
X54187030Y37176260D02*
X54139411Y37128641D01*
X54139411Y37128641D02*
X54091792Y37033403D01*
X54091792Y37033403D02*
X54091792Y36890546D01*
X54091792Y36890546D02*
X54139411Y36795308D01*
X54139411Y36795308D02*
X54187030Y36747688D01*
X54187030Y36747688D02*
X54282268Y36700069D01*
X54282268Y36700069D02*
X54663220Y36700069D01*
X54663220Y36700069D02*
X54663220Y37700069D01*
X54663220Y37700069D02*
X54329887Y37700069D01*
X54329887Y37700069D02*
X54234649Y37652450D01*
X54234649Y37652450D02*
X54187030Y37604831D01*
X54187030Y37604831D02*
X54139411Y37509593D01*
X54139411Y37509593D02*
X54139411Y37414355D01*
X54139411Y37414355D02*
X54187030Y37319117D01*
X54187030Y37319117D02*
X54234649Y37271498D01*
X54234649Y37271498D02*
X54329887Y37223879D01*
X54329887Y37223879D02*
X54663220Y37223879D01*
X53663220Y36700069D02*
X53663220Y37700069D01*
X53663220Y37700069D02*
X53329887Y36985784D01*
X53329887Y36985784D02*
X52996554Y37700069D01*
X52996554Y37700069D02*
X52996554Y36700069D01*
X52567982Y36747688D02*
X52425125Y36700069D01*
X52425125Y36700069D02*
X52187030Y36700069D01*
X52187030Y36700069D02*
X52091792Y36747688D01*
X52091792Y36747688D02*
X52044173Y36795308D01*
X52044173Y36795308D02*
X51996554Y36890546D01*
X51996554Y36890546D02*
X51996554Y36985784D01*
X51996554Y36985784D02*
X52044173Y37081022D01*
X52044173Y37081022D02*
X52091792Y37128641D01*
X52091792Y37128641D02*
X52187030Y37176260D01*
X52187030Y37176260D02*
X52377506Y37223879D01*
X52377506Y37223879D02*
X52472744Y37271498D01*
X52472744Y37271498D02*
X52520363Y37319117D01*
X52520363Y37319117D02*
X52567982Y37414355D01*
X52567982Y37414355D02*
X52567982Y37509593D01*
X52567982Y37509593D02*
X52520363Y37604831D01*
X52520363Y37604831D02*
X52472744Y37652450D01*
X52472744Y37652450D02*
X52377506Y37700069D01*
X52377506Y37700069D02*
X52139411Y37700069D01*
X52139411Y37700069D02*
X51996554Y37652450D01*
X51806078Y36604831D02*
X51044173Y36604831D01*
X50806077Y37223879D02*
X50472744Y37223879D01*
X50329887Y36700069D02*
X50806077Y36700069D01*
X50806077Y36700069D02*
X50806077Y37700069D01*
X50806077Y37700069D02*
X50329887Y37700069D01*
X49948934Y36747688D02*
X49806077Y36700069D01*
X49806077Y36700069D02*
X49567982Y36700069D01*
X49567982Y36700069D02*
X49472744Y36747688D01*
X49472744Y36747688D02*
X49425125Y36795308D01*
X49425125Y36795308D02*
X49377506Y36890546D01*
X49377506Y36890546D02*
X49377506Y36985784D01*
X49377506Y36985784D02*
X49425125Y37081022D01*
X49425125Y37081022D02*
X49472744Y37128641D01*
X49472744Y37128641D02*
X49567982Y37176260D01*
X49567982Y37176260D02*
X49758458Y37223879D01*
X49758458Y37223879D02*
X49853696Y37271498D01*
X49853696Y37271498D02*
X49901315Y37319117D01*
X49901315Y37319117D02*
X49948934Y37414355D01*
X49948934Y37414355D02*
X49948934Y37509593D01*
X49948934Y37509593D02*
X49901315Y37604831D01*
X49901315Y37604831D02*
X49853696Y37652450D01*
X49853696Y37652450D02*
X49758458Y37700069D01*
X49758458Y37700069D02*
X49520363Y37700069D01*
X49520363Y37700069D02*
X49377506Y37652450D01*
X48948934Y36700069D02*
X48948934Y37700069D01*
X48948934Y37700069D02*
X48567982Y37700069D01*
X48567982Y37700069D02*
X48472744Y37652450D01*
X48472744Y37652450D02*
X48425125Y37604831D01*
X48425125Y37604831D02*
X48377506Y37509593D01*
X48377506Y37509593D02*
X48377506Y37366736D01*
X48377506Y37366736D02*
X48425125Y37271498D01*
X48425125Y37271498D02*
X48472744Y37223879D01*
X48472744Y37223879D02*
X48567982Y37176260D01*
X48567982Y37176260D02*
X48948934Y37176260D01*
X48044172Y37700069D02*
X47425125Y37700069D01*
X47425125Y37700069D02*
X47758458Y37319117D01*
X47758458Y37319117D02*
X47615601Y37319117D01*
X47615601Y37319117D02*
X47520363Y37271498D01*
X47520363Y37271498D02*
X47472744Y37223879D01*
X47472744Y37223879D02*
X47425125Y37128641D01*
X47425125Y37128641D02*
X47425125Y36890546D01*
X47425125Y36890546D02*
X47472744Y36795308D01*
X47472744Y36795308D02*
X47520363Y36747688D01*
X47520363Y36747688D02*
X47615601Y36700069D01*
X47615601Y36700069D02*
X47901315Y36700069D01*
X47901315Y36700069D02*
X47996553Y36747688D01*
X47996553Y36747688D02*
X48044172Y36795308D01*
X47044172Y37604831D02*
X46996553Y37652450D01*
X46996553Y37652450D02*
X46901315Y37700069D01*
X46901315Y37700069D02*
X46663220Y37700069D01*
X46663220Y37700069D02*
X46567982Y37652450D01*
X46567982Y37652450D02*
X46520363Y37604831D01*
X46520363Y37604831D02*
X46472744Y37509593D01*
X46472744Y37509593D02*
X46472744Y37414355D01*
X46472744Y37414355D02*
X46520363Y37271498D01*
X46520363Y37271498D02*
X47091791Y36700069D01*
X47091791Y36700069D02*
X46472744Y36700069D01*
X54710839Y35994887D02*
X54663220Y36042506D01*
X54663220Y36042506D02*
X54567982Y36090125D01*
X54567982Y36090125D02*
X54329887Y36090125D01*
X54329887Y36090125D02*
X54234649Y36042506D01*
X54234649Y36042506D02*
X54187030Y35994887D01*
X54187030Y35994887D02*
X54139411Y35899649D01*
X54139411Y35899649D02*
X54139411Y35804411D01*
X54139411Y35804411D02*
X54187030Y35661554D01*
X54187030Y35661554D02*
X54758458Y35090125D01*
X54758458Y35090125D02*
X54139411Y35090125D01*
X53520363Y36090125D02*
X53425125Y36090125D01*
X53425125Y36090125D02*
X53329887Y36042506D01*
X53329887Y36042506D02*
X53282268Y35994887D01*
X53282268Y35994887D02*
X53234649Y35899649D01*
X53234649Y35899649D02*
X53187030Y35709173D01*
X53187030Y35709173D02*
X53187030Y35471078D01*
X53187030Y35471078D02*
X53234649Y35280602D01*
X53234649Y35280602D02*
X53282268Y35185364D01*
X53282268Y35185364D02*
X53329887Y35137744D01*
X53329887Y35137744D02*
X53425125Y35090125D01*
X53425125Y35090125D02*
X53520363Y35090125D01*
X53520363Y35090125D02*
X53615601Y35137744D01*
X53615601Y35137744D02*
X53663220Y35185364D01*
X53663220Y35185364D02*
X53710839Y35280602D01*
X53710839Y35280602D02*
X53758458Y35471078D01*
X53758458Y35471078D02*
X53758458Y35709173D01*
X53758458Y35709173D02*
X53710839Y35899649D01*
X53710839Y35899649D02*
X53663220Y35994887D01*
X53663220Y35994887D02*
X53615601Y36042506D01*
X53615601Y36042506D02*
X53520363Y36090125D01*
X52806077Y35994887D02*
X52758458Y36042506D01*
X52758458Y36042506D02*
X52663220Y36090125D01*
X52663220Y36090125D02*
X52425125Y36090125D01*
X52425125Y36090125D02*
X52329887Y36042506D01*
X52329887Y36042506D02*
X52282268Y35994887D01*
X52282268Y35994887D02*
X52234649Y35899649D01*
X52234649Y35899649D02*
X52234649Y35804411D01*
X52234649Y35804411D02*
X52282268Y35661554D01*
X52282268Y35661554D02*
X52853696Y35090125D01*
X52853696Y35090125D02*
X52234649Y35090125D01*
X51377506Y35756792D02*
X51377506Y35090125D01*
X51615601Y36137744D02*
X51853696Y35423459D01*
X51853696Y35423459D02*
X51234649Y35423459D01*
X50139411Y36137744D02*
X50996553Y34852030D01*
X49282268Y35090125D02*
X49853696Y35090125D01*
X49567982Y35090125D02*
X49567982Y36090125D01*
X49567982Y36090125D02*
X49663220Y35947268D01*
X49663220Y35947268D02*
X49758458Y35852030D01*
X49758458Y35852030D02*
X49853696Y35804411D01*
X48663220Y36090125D02*
X48567982Y36090125D01*
X48567982Y36090125D02*
X48472744Y36042506D01*
X48472744Y36042506D02*
X48425125Y35994887D01*
X48425125Y35994887D02*
X48377506Y35899649D01*
X48377506Y35899649D02*
X48329887Y35709173D01*
X48329887Y35709173D02*
X48329887Y35471078D01*
X48329887Y35471078D02*
X48377506Y35280602D01*
X48377506Y35280602D02*
X48425125Y35185364D01*
X48425125Y35185364D02*
X48472744Y35137744D01*
X48472744Y35137744D02*
X48567982Y35090125D01*
X48567982Y35090125D02*
X48663220Y35090125D01*
X48663220Y35090125D02*
X48758458Y35137744D01*
X48758458Y35137744D02*
X48806077Y35185364D01*
X48806077Y35185364D02*
X48853696Y35280602D01*
X48853696Y35280602D02*
X48901315Y35471078D01*
X48901315Y35471078D02*
X48901315Y35709173D01*
X48901315Y35709173D02*
X48853696Y35899649D01*
X48853696Y35899649D02*
X48806077Y35994887D01*
X48806077Y35994887D02*
X48758458Y36042506D01*
X48758458Y36042506D02*
X48663220Y36090125D01*
X47187030Y36137744D02*
X48044172Y34852030D01*
X46948934Y36090125D02*
X46329887Y36090125D01*
X46329887Y36090125D02*
X46663220Y35709173D01*
X46663220Y35709173D02*
X46520363Y35709173D01*
X46520363Y35709173D02*
X46425125Y35661554D01*
X46425125Y35661554D02*
X46377506Y35613935D01*
X46377506Y35613935D02*
X46329887Y35518697D01*
X46329887Y35518697D02*
X46329887Y35280602D01*
X46329887Y35280602D02*
X46377506Y35185364D01*
X46377506Y35185364D02*
X46425125Y35137744D01*
X46425125Y35137744D02*
X46520363Y35090125D01*
X46520363Y35090125D02*
X46806077Y35090125D01*
X46806077Y35090125D02*
X46901315Y35137744D01*
X46901315Y35137744D02*
X46948934Y35185364D01*
X45377506Y35090125D02*
X45948934Y35090125D01*
X45663220Y35090125D02*
X45663220Y36090125D01*
X45663220Y36090125D02*
X45758458Y35947268D01*
X45758458Y35947268D02*
X45853696Y35852030D01*
X45853696Y35852030D02*
X45948934Y35804411D01*
X54187030Y33480181D02*
X54663220Y33480181D01*
X54663220Y33480181D02*
X54663220Y34480181D01*
X53996553Y34480181D02*
X53425125Y34480181D01*
X53710839Y33480181D02*
X53710839Y34480181D01*
X52520363Y33575420D02*
X52567982Y33527800D01*
X52567982Y33527800D02*
X52710839Y33480181D01*
X52710839Y33480181D02*
X52806077Y33480181D01*
X52806077Y33480181D02*
X52948934Y33527800D01*
X52948934Y33527800D02*
X53044172Y33623039D01*
X53044172Y33623039D02*
X53091791Y33718277D01*
X53091791Y33718277D02*
X53139410Y33908753D01*
X53139410Y33908753D02*
X53139410Y34051610D01*
X53139410Y34051610D02*
X53091791Y34242086D01*
X53091791Y34242086D02*
X53044172Y34337324D01*
X53044172Y34337324D02*
X52948934Y34432562D01*
X52948934Y34432562D02*
X52806077Y34480181D01*
X52806077Y34480181D02*
X52710839Y34480181D01*
X52710839Y34480181D02*
X52567982Y34432562D01*
X52567982Y34432562D02*
X52520363Y34384943D01*
X51663220Y34480181D02*
X51853696Y34480181D01*
X51853696Y34480181D02*
X51948934Y34432562D01*
X51948934Y34432562D02*
X51996553Y34384943D01*
X51996553Y34384943D02*
X52091791Y34242086D01*
X52091791Y34242086D02*
X52139410Y34051610D01*
X52139410Y34051610D02*
X52139410Y33670658D01*
X52139410Y33670658D02*
X52091791Y33575420D01*
X52091791Y33575420D02*
X52044172Y33527800D01*
X52044172Y33527800D02*
X51948934Y33480181D01*
X51948934Y33480181D02*
X51758458Y33480181D01*
X51758458Y33480181D02*
X51663220Y33527800D01*
X51663220Y33527800D02*
X51615601Y33575420D01*
X51615601Y33575420D02*
X51567982Y33670658D01*
X51567982Y33670658D02*
X51567982Y33908753D01*
X51567982Y33908753D02*
X51615601Y34003991D01*
X51615601Y34003991D02*
X51663220Y34051610D01*
X51663220Y34051610D02*
X51758458Y34099229D01*
X51758458Y34099229D02*
X51948934Y34099229D01*
X51948934Y34099229D02*
X52044172Y34051610D01*
X52044172Y34051610D02*
X52091791Y34003991D01*
X52091791Y34003991D02*
X52139410Y33908753D01*
X50996553Y34051610D02*
X51091791Y34099229D01*
X51091791Y34099229D02*
X51139410Y34146848D01*
X51139410Y34146848D02*
X51187029Y34242086D01*
X51187029Y34242086D02*
X51187029Y34289705D01*
X51187029Y34289705D02*
X51139410Y34384943D01*
X51139410Y34384943D02*
X51091791Y34432562D01*
X51091791Y34432562D02*
X50996553Y34480181D01*
X50996553Y34480181D02*
X50806077Y34480181D01*
X50806077Y34480181D02*
X50710839Y34432562D01*
X50710839Y34432562D02*
X50663220Y34384943D01*
X50663220Y34384943D02*
X50615601Y34289705D01*
X50615601Y34289705D02*
X50615601Y34242086D01*
X50615601Y34242086D02*
X50663220Y34146848D01*
X50663220Y34146848D02*
X50710839Y34099229D01*
X50710839Y34099229D02*
X50806077Y34051610D01*
X50806077Y34051610D02*
X50996553Y34051610D01*
X50996553Y34051610D02*
X51091791Y34003991D01*
X51091791Y34003991D02*
X51139410Y33956372D01*
X51139410Y33956372D02*
X51187029Y33861134D01*
X51187029Y33861134D02*
X51187029Y33670658D01*
X51187029Y33670658D02*
X51139410Y33575420D01*
X51139410Y33575420D02*
X51091791Y33527800D01*
X51091791Y33527800D02*
X50996553Y33480181D01*
X50996553Y33480181D02*
X50806077Y33480181D01*
X50806077Y33480181D02*
X50710839Y33527800D01*
X50710839Y33527800D02*
X50663220Y33575420D01*
X50663220Y33575420D02*
X50615601Y33670658D01*
X50615601Y33670658D02*
X50615601Y33861134D01*
X50615601Y33861134D02*
X50663220Y33956372D01*
X50663220Y33956372D02*
X50710839Y34003991D01*
X50710839Y34003991D02*
X50806077Y34051610D01*
X49663220Y33480181D02*
X50234648Y33480181D01*
X49948934Y33480181D02*
X49948934Y34480181D01*
X49948934Y34480181D02*
X50044172Y34337324D01*
X50044172Y34337324D02*
X50139410Y34242086D01*
X50139410Y34242086D02*
X50234648Y34194467D01*
X48710839Y33480181D02*
X49282267Y33480181D01*
X48996553Y33480181D02*
X48996553Y34480181D01*
X48996553Y34480181D02*
X49091791Y34337324D01*
X49091791Y34337324D02*
X49187029Y34242086D01*
X49187029Y34242086D02*
X49282267Y34194467D01*
X48520363Y33384943D02*
X47758458Y33384943D01*
X47520362Y33480181D02*
X47520362Y34480181D01*
X47520362Y34480181D02*
X47187029Y33765896D01*
X47187029Y33765896D02*
X46853696Y34480181D01*
X46853696Y34480181D02*
X46853696Y33480181D01*
X45948934Y33480181D02*
X45948934Y34003991D01*
X45948934Y34003991D02*
X45996553Y34099229D01*
X45996553Y34099229D02*
X46091791Y34146848D01*
X46091791Y34146848D02*
X46282267Y34146848D01*
X46282267Y34146848D02*
X46377505Y34099229D01*
X45948934Y33527800D02*
X46044172Y33480181D01*
X46044172Y33480181D02*
X46282267Y33480181D01*
X46282267Y33480181D02*
X46377505Y33527800D01*
X46377505Y33527800D02*
X46425124Y33623039D01*
X46425124Y33623039D02*
X46425124Y33718277D01*
X46425124Y33718277D02*
X46377505Y33813515D01*
X46377505Y33813515D02*
X46282267Y33861134D01*
X46282267Y33861134D02*
X46044172Y33861134D01*
X46044172Y33861134D02*
X45948934Y33908753D01*
X45520362Y33527800D02*
X45425124Y33480181D01*
X45425124Y33480181D02*
X45234648Y33480181D01*
X45234648Y33480181D02*
X45139410Y33527800D01*
X45139410Y33527800D02*
X45091791Y33623039D01*
X45091791Y33623039D02*
X45091791Y33670658D01*
X45091791Y33670658D02*
X45139410Y33765896D01*
X45139410Y33765896D02*
X45234648Y33813515D01*
X45234648Y33813515D02*
X45377505Y33813515D01*
X45377505Y33813515D02*
X45472743Y33861134D01*
X45472743Y33861134D02*
X45520362Y33956372D01*
X45520362Y33956372D02*
X45520362Y34003991D01*
X45520362Y34003991D02*
X45472743Y34099229D01*
X45472743Y34099229D02*
X45377505Y34146848D01*
X45377505Y34146848D02*
X45234648Y34146848D01*
X45234648Y34146848D02*
X45139410Y34099229D01*
X44806076Y34146848D02*
X44425124Y34146848D01*
X44663219Y34480181D02*
X44663219Y33623039D01*
X44663219Y33623039D02*
X44615600Y33527800D01*
X44615600Y33527800D02*
X44520362Y33480181D01*
X44520362Y33480181D02*
X44425124Y33480181D01*
X43710838Y33527800D02*
X43806076Y33480181D01*
X43806076Y33480181D02*
X43996552Y33480181D01*
X43996552Y33480181D02*
X44091790Y33527800D01*
X44091790Y33527800D02*
X44139409Y33623039D01*
X44139409Y33623039D02*
X44139409Y34003991D01*
X44139409Y34003991D02*
X44091790Y34099229D01*
X44091790Y34099229D02*
X43996552Y34146848D01*
X43996552Y34146848D02*
X43806076Y34146848D01*
X43806076Y34146848D02*
X43710838Y34099229D01*
X43710838Y34099229D02*
X43663219Y34003991D01*
X43663219Y34003991D02*
X43663219Y33908753D01*
X43663219Y33908753D02*
X44139409Y33813515D01*
X43234647Y33480181D02*
X43234647Y34146848D01*
X43234647Y33956372D02*
X43187028Y34051610D01*
X43187028Y34051610D02*
X43139409Y34099229D01*
X43139409Y34099229D02*
X43044171Y34146848D01*
X43044171Y34146848D02*
X42948933Y34146848D01*
X42853695Y33384943D02*
X42091790Y33384943D01*
X41996551Y34480181D02*
X41663218Y33480181D01*
X41663218Y33480181D02*
X41329885Y34480181D01*
X40520361Y34480181D02*
X40996551Y34480181D01*
X40996551Y34480181D02*
X41044170Y34003991D01*
X41044170Y34003991D02*
X40996551Y34051610D01*
X40996551Y34051610D02*
X40901313Y34099229D01*
X40901313Y34099229D02*
X40663218Y34099229D01*
X40663218Y34099229D02*
X40567980Y34051610D01*
X40567980Y34051610D02*
X40520361Y34003991D01*
X40520361Y34003991D02*
X40472742Y33908753D01*
X40472742Y33908753D02*
X40472742Y33670658D01*
X40472742Y33670658D02*
X40520361Y33575420D01*
X40520361Y33575420D02*
X40567980Y33527800D01*
X40567980Y33527800D02*
X40663218Y33480181D01*
X40663218Y33480181D02*
X40901313Y33480181D01*
X40901313Y33480181D02*
X40996551Y33527800D01*
X40996551Y33527800D02*
X41044170Y33575420D01*
X40044170Y33480181D02*
X40044170Y34480181D01*
X40044170Y34480181D02*
X39663218Y34480181D01*
X39663218Y34480181D02*
X39567980Y34432562D01*
X39567980Y34432562D02*
X39520361Y34384943D01*
X39520361Y34384943D02*
X39472742Y34289705D01*
X39472742Y34289705D02*
X39472742Y34146848D01*
X39472742Y34146848D02*
X39520361Y34051610D01*
X39520361Y34051610D02*
X39567980Y34003991D01*
X39567980Y34003991D02*
X39663218Y33956372D01*
X39663218Y33956372D02*
X40044170Y33956372D01*
X39091789Y34384943D02*
X39044170Y34432562D01*
X39044170Y34432562D02*
X38948932Y34480181D01*
X38948932Y34480181D02*
X38710837Y34480181D01*
X38710837Y34480181D02*
X38615599Y34432562D01*
X38615599Y34432562D02*
X38567980Y34384943D01*
X38567980Y34384943D02*
X38520361Y34289705D01*
X38520361Y34289705D02*
X38520361Y34194467D01*
X38520361Y34194467D02*
X38567980Y34051610D01*
X38567980Y34051610D02*
X39139408Y33480181D01*
X39139408Y33480181D02*
X38520361Y33480181D01*
D12*
%TO.C,LOGO2*%
X48697370Y40597405D02*
X48712067Y40576245D01*
X48754862Y40514302D01*
X48794759Y40456076D01*
X48830621Y40403260D01*
X48861311Y40357544D01*
X48885690Y40320619D01*
X48902621Y40294176D01*
X48910967Y40279905D01*
X48916447Y40266522D01*
X48925586Y40225058D01*
X48926565Y40181354D01*
X48918904Y40143661D01*
X48918078Y40142054D01*
X48909359Y40128107D01*
X48891793Y40101316D01*
X48865951Y40062520D01*
X48832403Y40012560D01*
X48791718Y39952275D01*
X48744467Y39882504D01*
X48691219Y39804089D01*
X48632546Y39717868D01*
X48569016Y39624682D01*
X48501200Y39525370D01*
X48429668Y39420772D01*
X48354990Y39311727D01*
X48277736Y39199076D01*
X48250912Y39159998D01*
X48174659Y39049001D01*
X48101197Y38942204D01*
X48031091Y38840422D01*
X47964904Y38744468D01*
X47903203Y38655157D01*
X47846551Y38573303D01*
X47795512Y38499721D01*
X47750653Y38435225D01*
X47712537Y38380630D01*
X47681729Y38336749D01*
X47658793Y38304397D01*
X47644295Y38284389D01*
X47638798Y38277539D01*
X47638591Y38278176D01*
X47637853Y38290983D01*
X47637140Y38319548D01*
X47636456Y38362946D01*
X47635808Y38420257D01*
X47635199Y38490557D01*
X47634634Y38572923D01*
X47634117Y38666433D01*
X47633655Y38770164D01*
X47633250Y38883194D01*
X47632909Y39004601D01*
X47632635Y39133460D01*
X47632434Y39268851D01*
X47632309Y39409849D01*
X47632267Y39555533D01*
X47632267Y40833528D01*
X47652695Y40857283D01*
X47673123Y40881039D01*
X48500100Y40881039D01*
X48697370Y40597405D01*
G36*
X48697370Y40597405D02*
G01*
X48712067Y40576245D01*
X48754862Y40514302D01*
X48794759Y40456076D01*
X48830621Y40403260D01*
X48861311Y40357544D01*
X48885690Y40320619D01*
X48902621Y40294176D01*
X48910967Y40279905D01*
X48916447Y40266522D01*
X48925586Y40225058D01*
X48926565Y40181354D01*
X48918904Y40143661D01*
X48918078Y40142054D01*
X48909359Y40128107D01*
X48891793Y40101316D01*
X48865951Y40062520D01*
X48832403Y40012560D01*
X48791718Y39952275D01*
X48744467Y39882504D01*
X48691219Y39804089D01*
X48632546Y39717868D01*
X48569016Y39624682D01*
X48501200Y39525370D01*
X48429668Y39420772D01*
X48354990Y39311727D01*
X48277736Y39199076D01*
X48250912Y39159998D01*
X48174659Y39049001D01*
X48101197Y38942204D01*
X48031091Y38840422D01*
X47964904Y38744468D01*
X47903203Y38655157D01*
X47846551Y38573303D01*
X47795512Y38499721D01*
X47750653Y38435225D01*
X47712537Y38380630D01*
X47681729Y38336749D01*
X47658793Y38304397D01*
X47644295Y38284389D01*
X47638798Y38277539D01*
X47638591Y38278176D01*
X47637853Y38290983D01*
X47637140Y38319548D01*
X47636456Y38362946D01*
X47635808Y38420257D01*
X47635199Y38490557D01*
X47634634Y38572923D01*
X47634117Y38666433D01*
X47633655Y38770164D01*
X47633250Y38883194D01*
X47632909Y39004601D01*
X47632635Y39133460D01*
X47632434Y39268851D01*
X47632309Y39409849D01*
X47632267Y39555533D01*
X47632267Y40833528D01*
X47652695Y40857283D01*
X47673123Y40881039D01*
X48500100Y40881039D01*
X48697370Y40597405D01*
G37*
X47538971Y42273893D02*
X47541046Y42271770D01*
X47552003Y42257628D01*
X47571194Y42231415D01*
X47597727Y42194418D01*
X47630711Y42147926D01*
X47669255Y42093226D01*
X47712466Y42031607D01*
X47759454Y41964357D01*
X47809327Y41892765D01*
X47861193Y41818119D01*
X47914162Y41741707D01*
X47967341Y41664817D01*
X48019839Y41588737D01*
X48070765Y41514756D01*
X48119226Y41444163D01*
X48164333Y41378244D01*
X48205193Y41318289D01*
X48240914Y41265586D01*
X48270606Y41221423D01*
X48293377Y41187089D01*
X48308335Y41163871D01*
X48314589Y41153057D01*
X48314785Y41151537D01*
X48313046Y41149421D01*
X48307975Y41147562D01*
X48298601Y41145942D01*
X48283952Y41144547D01*
X48263056Y41143358D01*
X48234942Y41142361D01*
X48198638Y41141538D01*
X48153173Y41140873D01*
X48097576Y41140350D01*
X48030874Y41139953D01*
X47952097Y41139664D01*
X47860272Y41139468D01*
X47754429Y41139348D01*
X47633596Y41139288D01*
X47496800Y41139272D01*
X47438578Y41139275D01*
X47308247Y41139311D01*
X47193487Y41139400D01*
X47093330Y41139560D01*
X47006812Y41139804D01*
X46932965Y41140149D01*
X46870824Y41140612D01*
X46819421Y41141207D01*
X46777791Y41141951D01*
X46744968Y41142858D01*
X46719985Y41143946D01*
X46701876Y41145230D01*
X46689674Y41146726D01*
X46682414Y41148448D01*
X46679128Y41150414D01*
X46678851Y41152640D01*
X46680250Y41155349D01*
X46690123Y41171130D01*
X46708415Y41198830D01*
X46734227Y41237156D01*
X46766655Y41284815D01*
X46804800Y41340513D01*
X46847760Y41402956D01*
X46894634Y41470853D01*
X46944521Y41542908D01*
X46996519Y41617830D01*
X47049728Y41694325D01*
X47103247Y41771099D01*
X47156173Y41846859D01*
X47207607Y41920312D01*
X47256647Y41990164D01*
X47302391Y42055123D01*
X47343939Y42113895D01*
X47380389Y42165186D01*
X47410841Y42207704D01*
X47434393Y42240154D01*
X47450144Y42261245D01*
X47457193Y42269682D01*
X47477748Y42278798D01*
X47509730Y42281661D01*
X47538971Y42273893D01*
G36*
X47538971Y42273893D02*
G01*
X47541046Y42271770D01*
X47552003Y42257628D01*
X47571194Y42231415D01*
X47597727Y42194418D01*
X47630711Y42147926D01*
X47669255Y42093226D01*
X47712466Y42031607D01*
X47759454Y41964357D01*
X47809327Y41892765D01*
X47861193Y41818119D01*
X47914162Y41741707D01*
X47967341Y41664817D01*
X48019839Y41588737D01*
X48070765Y41514756D01*
X48119226Y41444163D01*
X48164333Y41378244D01*
X48205193Y41318289D01*
X48240914Y41265586D01*
X48270606Y41221423D01*
X48293377Y41187089D01*
X48308335Y41163871D01*
X48314589Y41153057D01*
X48314785Y41151537D01*
X48313046Y41149421D01*
X48307975Y41147562D01*
X48298601Y41145942D01*
X48283952Y41144547D01*
X48263056Y41143358D01*
X48234942Y41142361D01*
X48198638Y41141538D01*
X48153173Y41140873D01*
X48097576Y41140350D01*
X48030874Y41139953D01*
X47952097Y41139664D01*
X47860272Y41139468D01*
X47754429Y41139348D01*
X47633596Y41139288D01*
X47496800Y41139272D01*
X47438578Y41139275D01*
X47308247Y41139311D01*
X47193487Y41139400D01*
X47093330Y41139560D01*
X47006812Y41139804D01*
X46932965Y41140149D01*
X46870824Y41140612D01*
X46819421Y41141207D01*
X46777791Y41141951D01*
X46744968Y41142858D01*
X46719985Y41143946D01*
X46701876Y41145230D01*
X46689674Y41146726D01*
X46682414Y41148448D01*
X46679128Y41150414D01*
X46678851Y41152640D01*
X46680250Y41155349D01*
X46690123Y41171130D01*
X46708415Y41198830D01*
X46734227Y41237156D01*
X46766655Y41284815D01*
X46804800Y41340513D01*
X46847760Y41402956D01*
X46894634Y41470853D01*
X46944521Y41542908D01*
X46996519Y41617830D01*
X47049728Y41694325D01*
X47103247Y41771099D01*
X47156173Y41846859D01*
X47207607Y41920312D01*
X47256647Y41990164D01*
X47302391Y42055123D01*
X47343939Y42113895D01*
X47380389Y42165186D01*
X47410841Y42207704D01*
X47434393Y42240154D01*
X47450144Y42261245D01*
X47457193Y42269682D01*
X47477748Y42278798D01*
X47509730Y42281661D01*
X47538971Y42273893D01*
G37*
X46934853Y40876776D02*
X47027311Y40876466D01*
X47108914Y40875832D01*
X47178651Y40874896D01*
X47235507Y40873677D01*
X47278471Y40872194D01*
X47306528Y40870468D01*
X47318666Y40868518D01*
X47318970Y40868351D01*
X47332512Y40854553D01*
X47343510Y40833387D01*
X47344483Y40827843D01*
X47345796Y40810019D01*
X47346986Y40780263D01*
X47348058Y40738159D01*
X47349012Y40683291D01*
X47349854Y40615240D01*
X47350585Y40533591D01*
X47351208Y40437927D01*
X47351728Y40327830D01*
X47352146Y40202885D01*
X47352466Y40062673D01*
X47352691Y39906779D01*
X47352823Y39734785D01*
X47352867Y39546275D01*
X47352866Y39520550D01*
X47352809Y39376655D01*
X47352673Y39237616D01*
X47352462Y39104363D01*
X47352180Y38977824D01*
X47351832Y38858929D01*
X47351424Y38748606D01*
X47350959Y38647785D01*
X47350442Y38557395D01*
X47349878Y38478363D01*
X47349272Y38411621D01*
X47348628Y38358095D01*
X47347951Y38318716D01*
X47347246Y38294412D01*
X47346517Y38286113D01*
X47346460Y38286123D01*
X47340092Y38293483D01*
X47324947Y38313849D01*
X47301701Y38346227D01*
X47271032Y38389628D01*
X47233617Y38443059D01*
X47190132Y38505528D01*
X47141254Y38576045D01*
X47087660Y38653617D01*
X47030026Y38737254D01*
X46969030Y38825962D01*
X46905349Y38918752D01*
X46839658Y39014630D01*
X46772636Y39112607D01*
X46704958Y39211689D01*
X46637302Y39310886D01*
X46570344Y39409206D01*
X46504761Y39505657D01*
X46441230Y39599248D01*
X46380428Y39688987D01*
X46323032Y39773883D01*
X46269718Y39852944D01*
X46221164Y39925178D01*
X46178045Y39989594D01*
X46141040Y40045201D01*
X46110824Y40091006D01*
X46088074Y40126018D01*
X46073468Y40149246D01*
X46067682Y40159698D01*
X46061493Y40192523D01*
X46064524Y40242597D01*
X46081221Y40289029D01*
X46082680Y40291507D01*
X46093331Y40308031D01*
X46112180Y40336295D01*
X46138106Y40374648D01*
X46169984Y40421440D01*
X46206691Y40475021D01*
X46247105Y40533740D01*
X46290101Y40595946D01*
X46484636Y40876805D01*
X46893908Y40876805D01*
X46934853Y40876776D01*
G36*
X46934853Y40876776D02*
G01*
X47027311Y40876466D01*
X47108914Y40875832D01*
X47178651Y40874896D01*
X47235507Y40873677D01*
X47278471Y40872194D01*
X47306528Y40870468D01*
X47318666Y40868518D01*
X47318970Y40868351D01*
X47332512Y40854553D01*
X47343510Y40833387D01*
X47344483Y40827843D01*
X47345796Y40810019D01*
X47346986Y40780263D01*
X47348058Y40738159D01*
X47349012Y40683291D01*
X47349854Y40615240D01*
X47350585Y40533591D01*
X47351208Y40437927D01*
X47351728Y40327830D01*
X47352146Y40202885D01*
X47352466Y40062673D01*
X47352691Y39906779D01*
X47352823Y39734785D01*
X47352867Y39546275D01*
X47352866Y39520550D01*
X47352809Y39376655D01*
X47352673Y39237616D01*
X47352462Y39104363D01*
X47352180Y38977824D01*
X47351832Y38858929D01*
X47351424Y38748606D01*
X47350959Y38647785D01*
X47350442Y38557395D01*
X47349878Y38478363D01*
X47349272Y38411621D01*
X47348628Y38358095D01*
X47347951Y38318716D01*
X47347246Y38294412D01*
X47346517Y38286113D01*
X47346460Y38286123D01*
X47340092Y38293483D01*
X47324947Y38313849D01*
X47301701Y38346227D01*
X47271032Y38389628D01*
X47233617Y38443059D01*
X47190132Y38505528D01*
X47141254Y38576045D01*
X47087660Y38653617D01*
X47030026Y38737254D01*
X46969030Y38825962D01*
X46905349Y38918752D01*
X46839658Y39014630D01*
X46772636Y39112607D01*
X46704958Y39211689D01*
X46637302Y39310886D01*
X46570344Y39409206D01*
X46504761Y39505657D01*
X46441230Y39599248D01*
X46380428Y39688987D01*
X46323032Y39773883D01*
X46269718Y39852944D01*
X46221164Y39925178D01*
X46178045Y39989594D01*
X46141040Y40045201D01*
X46110824Y40091006D01*
X46088074Y40126018D01*
X46073468Y40149246D01*
X46067682Y40159698D01*
X46061493Y40192523D01*
X46064524Y40242597D01*
X46081221Y40289029D01*
X46082680Y40291507D01*
X46093331Y40308031D01*
X46112180Y40336295D01*
X46138106Y40374648D01*
X46169984Y40421440D01*
X46206691Y40475021D01*
X46247105Y40533740D01*
X46290101Y40595946D01*
X46484636Y40876805D01*
X46893908Y40876805D01*
X46934853Y40876776D01*
G37*
X44934558Y40510693D02*
X44941690Y40510483D01*
X45017950Y40507048D01*
X45081423Y40501346D01*
X45135875Y40492620D01*
X45185071Y40480113D01*
X45232780Y40463068D01*
X45282767Y40440728D01*
X45296714Y40433797D01*
X45382317Y40380673D01*
X45456904Y40314883D01*
X45520032Y40236959D01*
X45571259Y40147434D01*
X45610141Y40046840D01*
X45629585Y39983572D01*
X45632104Y39167701D01*
X45632435Y39048714D01*
X45632695Y38916234D01*
X45632783Y38799437D01*
X45632695Y38697633D01*
X45632423Y38610132D01*
X45631961Y38536243D01*
X45631304Y38475276D01*
X45630445Y38426539D01*
X45629379Y38389341D01*
X45628099Y38362994D01*
X45626599Y38346805D01*
X45624874Y38340084D01*
X45624229Y38339374D01*
X45613961Y38334168D01*
X45593887Y38330761D01*
X45561642Y38328902D01*
X45514861Y38328339D01*
X45499463Y38328359D01*
X45461128Y38328810D01*
X45435671Y38330210D01*
X45420018Y38333020D01*
X45411096Y38337701D01*
X45405831Y38344716D01*
X45404991Y38348128D01*
X45403322Y38367742D01*
X45401847Y38404124D01*
X45400565Y38457292D01*
X45399476Y38527269D01*
X45398580Y38614075D01*
X45397877Y38717730D01*
X45397366Y38838255D01*
X45397047Y38975671D01*
X45396920Y39129999D01*
X45396855Y39263946D01*
X45396700Y39385061D01*
X45396441Y39491247D01*
X45396064Y39583518D01*
X45395553Y39662887D01*
X45394894Y39730368D01*
X45394072Y39786974D01*
X45393072Y39833718D01*
X45391879Y39871613D01*
X45390480Y39901672D01*
X45388858Y39924910D01*
X45386999Y39942339D01*
X45384889Y39954972D01*
X45378800Y39979971D01*
X45350553Y40054319D01*
X45309762Y40120296D01*
X45258015Y40175678D01*
X45196897Y40218244D01*
X45171329Y40231139D01*
X45134256Y40245756D01*
X45094152Y40256059D01*
X45047567Y40262660D01*
X44991051Y40266171D01*
X44921155Y40267206D01*
X44869640Y40267282D01*
X44825681Y40268505D01*
X44794509Y40272482D01*
X44773927Y40280821D01*
X44761741Y40295131D01*
X44755755Y40317020D01*
X44753773Y40348098D01*
X44753600Y40389972D01*
X44753594Y40399697D01*
X44753922Y40438910D01*
X44756393Y40468065D01*
X44763122Y40488571D01*
X44776220Y40501837D01*
X44797800Y40509273D01*
X44829974Y40512288D01*
X44874856Y40512292D01*
X44934558Y40510693D01*
G36*
X44934558Y40510693D02*
G01*
X44941690Y40510483D01*
X45017950Y40507048D01*
X45081423Y40501346D01*
X45135875Y40492620D01*
X45185071Y40480113D01*
X45232780Y40463068D01*
X45282767Y40440728D01*
X45296714Y40433797D01*
X45382317Y40380673D01*
X45456904Y40314883D01*
X45520032Y40236959D01*
X45571259Y40147434D01*
X45610141Y40046840D01*
X45629585Y39983572D01*
X45632104Y39167701D01*
X45632435Y39048714D01*
X45632695Y38916234D01*
X45632783Y38799437D01*
X45632695Y38697633D01*
X45632423Y38610132D01*
X45631961Y38536243D01*
X45631304Y38475276D01*
X45630445Y38426539D01*
X45629379Y38389341D01*
X45628099Y38362994D01*
X45626599Y38346805D01*
X45624874Y38340084D01*
X45624229Y38339374D01*
X45613961Y38334168D01*
X45593887Y38330761D01*
X45561642Y38328902D01*
X45514861Y38328339D01*
X45499463Y38328359D01*
X45461128Y38328810D01*
X45435671Y38330210D01*
X45420018Y38333020D01*
X45411096Y38337701D01*
X45405831Y38344716D01*
X45404991Y38348128D01*
X45403322Y38367742D01*
X45401847Y38404124D01*
X45400565Y38457292D01*
X45399476Y38527269D01*
X45398580Y38614075D01*
X45397877Y38717730D01*
X45397366Y38838255D01*
X45397047Y38975671D01*
X45396920Y39129999D01*
X45396855Y39263946D01*
X45396700Y39385061D01*
X45396441Y39491247D01*
X45396064Y39583518D01*
X45395553Y39662887D01*
X45394894Y39730368D01*
X45394072Y39786974D01*
X45393072Y39833718D01*
X45391879Y39871613D01*
X45390480Y39901672D01*
X45388858Y39924910D01*
X45386999Y39942339D01*
X45384889Y39954972D01*
X45378800Y39979971D01*
X45350553Y40054319D01*
X45309762Y40120296D01*
X45258015Y40175678D01*
X45196897Y40218244D01*
X45171329Y40231139D01*
X45134256Y40245756D01*
X45094152Y40256059D01*
X45047567Y40262660D01*
X44991051Y40266171D01*
X44921155Y40267206D01*
X44869640Y40267282D01*
X44825681Y40268505D01*
X44794509Y40272482D01*
X44773927Y40280821D01*
X44761741Y40295131D01*
X44755755Y40317020D01*
X44753773Y40348098D01*
X44753600Y40389972D01*
X44753594Y40399697D01*
X44753922Y40438910D01*
X44756393Y40468065D01*
X44763122Y40488571D01*
X44776220Y40501837D01*
X44797800Y40509273D01*
X44829974Y40512288D01*
X44874856Y40512292D01*
X44934558Y40510693D01*
G37*
X51803342Y41107577D02*
X51829158Y41097389D01*
X51866820Y41079776D01*
X51887524Y41069452D01*
X51922147Y41051016D01*
X51950775Y41034347D01*
X51968715Y41022103D01*
X51992600Y41002300D01*
X51992600Y40504272D01*
X52131820Y40504272D01*
X52183144Y40504224D01*
X52226700Y40503115D01*
X52257500Y40499367D01*
X52277750Y40491400D01*
X52289658Y40477633D01*
X52295431Y40456488D01*
X52297276Y40426383D01*
X52297400Y40385739D01*
X52297333Y40348998D01*
X52295784Y40317817D01*
X52290548Y40295769D01*
X52279419Y40281273D01*
X52260188Y40272748D01*
X52230650Y40268616D01*
X52188596Y40267295D01*
X52131820Y40267205D01*
X51992600Y40267205D01*
X51992600Y39599448D01*
X51992590Y39535287D01*
X51992500Y39416935D01*
X51992299Y39313754D01*
X51991966Y39224563D01*
X51991482Y39148181D01*
X51990826Y39083426D01*
X51989976Y39029117D01*
X51988913Y38984074D01*
X51987617Y38947115D01*
X51986066Y38917059D01*
X51984239Y38892725D01*
X51982117Y38872931D01*
X51979679Y38856498D01*
X51977474Y38844086D01*
X51950624Y38733720D01*
X51913013Y38636224D01*
X51864715Y38551694D01*
X51805809Y38480223D01*
X51736371Y38421906D01*
X51656476Y38376839D01*
X51566202Y38345115D01*
X51565923Y38345042D01*
X51531014Y38337975D01*
X51489918Y38332777D01*
X51446458Y38329553D01*
X51404457Y38328408D01*
X51367736Y38329447D01*
X51340119Y38332776D01*
X51325427Y38338499D01*
X51320810Y38351001D01*
X51317437Y38376161D01*
X51315441Y38409642D01*
X51314816Y38447243D01*
X51315552Y38484763D01*
X51317642Y38518003D01*
X51321078Y38542762D01*
X51325850Y38554841D01*
X51330942Y38557038D01*
X51351025Y38561107D01*
X51381353Y38564732D01*
X51417605Y38567325D01*
X51442935Y38568875D01*
X51483228Y38573479D01*
X51515624Y38581132D01*
X51546088Y38593028D01*
X51567551Y38603843D01*
X51623934Y38644136D01*
X51670513Y38697467D01*
X51707667Y38764339D01*
X51735773Y38845253D01*
X51738166Y38855072D01*
X51740560Y38867878D01*
X51742647Y38883609D01*
X51744455Y38903430D01*
X51746013Y38928511D01*
X51747348Y38960019D01*
X51748487Y38999120D01*
X51749459Y39046983D01*
X51750292Y39104774D01*
X51751012Y39173662D01*
X51751648Y39254813D01*
X51752227Y39349395D01*
X51752778Y39458576D01*
X51753327Y39583522D01*
X51756194Y40267205D01*
X51570077Y40267205D01*
X51558413Y40267200D01*
X51495548Y40267162D01*
X51447354Y40267897D01*
X51411887Y40270490D01*
X51387206Y40276025D01*
X51371369Y40285584D01*
X51362431Y40300251D01*
X51358452Y40321110D01*
X51357490Y40349245D01*
X51357600Y40385739D01*
X51357591Y40391813D01*
X51357520Y40427010D01*
X51358820Y40453995D01*
X51363436Y40473856D01*
X51373311Y40487679D01*
X51390390Y40496551D01*
X51416618Y40501560D01*
X51453939Y40503791D01*
X51504298Y40504333D01*
X51569639Y40504272D01*
X51755317Y40504272D01*
X51757542Y40801802D01*
X51757716Y40824647D01*
X51758375Y40899733D01*
X51759116Y40960015D01*
X51760030Y41007171D01*
X51761209Y41042880D01*
X51762744Y41068822D01*
X51764728Y41086674D01*
X51767252Y41098117D01*
X51770408Y41104829D01*
X51774288Y41108489D01*
X51775655Y41109269D01*
X51786474Y41111237D01*
X51803342Y41107577D01*
G36*
X51803342Y41107577D02*
G01*
X51829158Y41097389D01*
X51866820Y41079776D01*
X51887524Y41069452D01*
X51922147Y41051016D01*
X51950775Y41034347D01*
X51968715Y41022103D01*
X51992600Y41002300D01*
X51992600Y40504272D01*
X52131820Y40504272D01*
X52183144Y40504224D01*
X52226700Y40503115D01*
X52257500Y40499367D01*
X52277750Y40491400D01*
X52289658Y40477633D01*
X52295431Y40456488D01*
X52297276Y40426383D01*
X52297400Y40385739D01*
X52297333Y40348998D01*
X52295784Y40317817D01*
X52290548Y40295769D01*
X52279419Y40281273D01*
X52260188Y40272748D01*
X52230650Y40268616D01*
X52188596Y40267295D01*
X52131820Y40267205D01*
X51992600Y40267205D01*
X51992600Y39599448D01*
X51992590Y39535287D01*
X51992500Y39416935D01*
X51992299Y39313754D01*
X51991966Y39224563D01*
X51991482Y39148181D01*
X51990826Y39083426D01*
X51989976Y39029117D01*
X51988913Y38984074D01*
X51987617Y38947115D01*
X51986066Y38917059D01*
X51984239Y38892725D01*
X51982117Y38872931D01*
X51979679Y38856498D01*
X51977474Y38844086D01*
X51950624Y38733720D01*
X51913013Y38636224D01*
X51864715Y38551694D01*
X51805809Y38480223D01*
X51736371Y38421906D01*
X51656476Y38376839D01*
X51566202Y38345115D01*
X51565923Y38345042D01*
X51531014Y38337975D01*
X51489918Y38332777D01*
X51446458Y38329553D01*
X51404457Y38328408D01*
X51367736Y38329447D01*
X51340119Y38332776D01*
X51325427Y38338499D01*
X51320810Y38351001D01*
X51317437Y38376161D01*
X51315441Y38409642D01*
X51314816Y38447243D01*
X51315552Y38484763D01*
X51317642Y38518003D01*
X51321078Y38542762D01*
X51325850Y38554841D01*
X51330942Y38557038D01*
X51351025Y38561107D01*
X51381353Y38564732D01*
X51417605Y38567325D01*
X51442935Y38568875D01*
X51483228Y38573479D01*
X51515624Y38581132D01*
X51546088Y38593028D01*
X51567551Y38603843D01*
X51623934Y38644136D01*
X51670513Y38697467D01*
X51707667Y38764339D01*
X51735773Y38845253D01*
X51738166Y38855072D01*
X51740560Y38867878D01*
X51742647Y38883609D01*
X51744455Y38903430D01*
X51746013Y38928511D01*
X51747348Y38960019D01*
X51748487Y38999120D01*
X51749459Y39046983D01*
X51750292Y39104774D01*
X51751012Y39173662D01*
X51751648Y39254813D01*
X51752227Y39349395D01*
X51752778Y39458576D01*
X51753327Y39583522D01*
X51756194Y40267205D01*
X51570077Y40267205D01*
X51558413Y40267200D01*
X51495548Y40267162D01*
X51447354Y40267897D01*
X51411887Y40270490D01*
X51387206Y40276025D01*
X51371369Y40285584D01*
X51362431Y40300251D01*
X51358452Y40321110D01*
X51357490Y40349245D01*
X51357600Y40385739D01*
X51357591Y40391813D01*
X51357520Y40427010D01*
X51358820Y40453995D01*
X51363436Y40473856D01*
X51373311Y40487679D01*
X51390390Y40496551D01*
X51416618Y40501560D01*
X51453939Y40503791D01*
X51504298Y40504333D01*
X51569639Y40504272D01*
X51755317Y40504272D01*
X51757542Y40801802D01*
X51757716Y40824647D01*
X51758375Y40899733D01*
X51759116Y40960015D01*
X51760030Y41007171D01*
X51761209Y41042880D01*
X51762744Y41068822D01*
X51764728Y41086674D01*
X51767252Y41098117D01*
X51770408Y41104829D01*
X51774288Y41108489D01*
X51775655Y41109269D01*
X51786474Y41111237D01*
X51803342Y41107577D01*
G37*
X44245579Y38883609D02*
X44244318Y38872003D01*
X44234486Y38803783D01*
X44220590Y38744600D01*
X44200722Y38687693D01*
X44172972Y38626299D01*
X44123458Y38543480D01*
X44060325Y38469054D01*
X43985998Y38405813D01*
X43902112Y38354932D01*
X43810302Y38317588D01*
X43712200Y38294954D01*
X43711015Y38294780D01*
X43606433Y38287807D01*
X43501023Y38296655D01*
X43398933Y38320981D01*
X43321988Y38352068D01*
X43239338Y38401621D01*
X43166133Y38464047D01*
X43103390Y38538114D01*
X43052127Y38622592D01*
X43013363Y38716249D01*
X42988117Y38817854D01*
X42986216Y38829783D01*
X42983788Y38849059D01*
X42981754Y38871731D01*
X42980094Y38899154D01*
X42978783Y38932681D01*
X42977800Y38973665D01*
X42977121Y39023460D01*
X42976724Y39083419D01*
X42976586Y39154897D01*
X42976685Y39239247D01*
X42976998Y39337822D01*
X42977027Y39344339D01*
X43220016Y39344339D01*
X43223130Y39088222D01*
X43224049Y39017132D01*
X43225022Y38958289D01*
X43226178Y38912087D01*
X43227679Y38876345D01*
X43229684Y38848882D01*
X43232354Y38827518D01*
X43235850Y38810072D01*
X43240333Y38794363D01*
X43245963Y38778211D01*
X43269780Y38727417D01*
X43303929Y38675226D01*
X43343676Y38628800D01*
X43384898Y38593618D01*
X43407182Y38580302D01*
X43444381Y38562383D01*
X43481039Y38548571D01*
X43504288Y38542587D01*
X43560905Y38534436D01*
X43623259Y38532078D01*
X43684455Y38535606D01*
X43737600Y38545112D01*
X43754733Y38550141D01*
X43823848Y38580732D01*
X43883541Y38624742D01*
X43933074Y38681180D01*
X43971708Y38749056D01*
X43998705Y38827378D01*
X44013327Y38915156D01*
X44013907Y38922373D01*
X44012402Y39000830D01*
X43997267Y39076017D01*
X43969668Y39145582D01*
X43930773Y39207171D01*
X43881751Y39258432D01*
X43823769Y39297011D01*
X43804601Y39306408D01*
X43778208Y39317762D01*
X43751495Y39326624D01*
X43722090Y39333294D01*
X43687620Y39338075D01*
X43645711Y39341268D01*
X43593992Y39343175D01*
X43530089Y39344098D01*
X43451629Y39344339D01*
X43220016Y39344339D01*
X42977027Y39344339D01*
X42977502Y39451976D01*
X42980196Y40008972D01*
X43003783Y40084857D01*
X43041682Y40184441D01*
X43091839Y40275239D01*
X43153030Y40353208D01*
X43225292Y40418385D01*
X43308659Y40470809D01*
X43403167Y40510515D01*
X43430760Y40519246D01*
X43455423Y40525463D01*
X43480851Y40529512D01*
X43511084Y40531857D01*
X43550164Y40532960D01*
X43602133Y40533282D01*
X43613734Y40533294D01*
X43662109Y40533048D01*
X43698325Y40531959D01*
X43726353Y40529557D01*
X43750165Y40525373D01*
X43773730Y40518938D01*
X43801019Y40509783D01*
X43891277Y40470628D01*
X43971047Y40419374D01*
X44039965Y40355680D01*
X44098842Y40278796D01*
X44148487Y40187971D01*
X44166390Y40144468D01*
X44182863Y40094681D01*
X44196420Y40043606D01*
X44206570Y39994106D01*
X44212821Y39949044D01*
X44214683Y39911280D01*
X44211662Y39883678D01*
X44203267Y39869099D01*
X44193780Y39865880D01*
X44169732Y39862664D01*
X44137023Y39860927D01*
X44099915Y39860606D01*
X44062665Y39861638D01*
X44029534Y39863960D01*
X44004782Y39867508D01*
X43992668Y39872219D01*
X43990509Y39876030D01*
X43984182Y39894912D01*
X43977025Y39924079D01*
X43970211Y39959002D01*
X43966343Y39979478D01*
X43942062Y40063742D01*
X43906626Y40135877D01*
X43860410Y40195476D01*
X43803787Y40242134D01*
X43737132Y40275443D01*
X43660819Y40294996D01*
X43636584Y40297987D01*
X43558899Y40297443D01*
X43484545Y40282031D01*
X43415670Y40252841D01*
X43354422Y40210961D01*
X43302948Y40157481D01*
X43263395Y40093489D01*
X43260885Y40088154D01*
X43244378Y40047705D01*
X43231826Y40004795D01*
X43222805Y39956548D01*
X43216889Y39900092D01*
X43213651Y39832550D01*
X43212667Y39751049D01*
X43212667Y39591981D01*
X43464550Y39587688D01*
X43491228Y39587212D01*
X43571272Y39585367D01*
X43637576Y39582845D01*
X43692603Y39579242D01*
X43738815Y39574153D01*
X43778675Y39567175D01*
X43814647Y39557902D01*
X43849195Y39545930D01*
X43884780Y39530856D01*
X43923867Y39512274D01*
X43955207Y39495277D01*
X44026142Y39444657D01*
X44091001Y39381642D01*
X44147260Y39309287D01*
X44192396Y39230652D01*
X44223886Y39148791D01*
X44228403Y39132062D01*
X44243069Y39052073D01*
X44249006Y38966669D01*
X44247178Y38922373D01*
X44245579Y38883609D01*
G36*
X44245579Y38883609D02*
G01*
X44244318Y38872003D01*
X44234486Y38803783D01*
X44220590Y38744600D01*
X44200722Y38687693D01*
X44172972Y38626299D01*
X44123458Y38543480D01*
X44060325Y38469054D01*
X43985998Y38405813D01*
X43902112Y38354932D01*
X43810302Y38317588D01*
X43712200Y38294954D01*
X43711015Y38294780D01*
X43606433Y38287807D01*
X43501023Y38296655D01*
X43398933Y38320981D01*
X43321988Y38352068D01*
X43239338Y38401621D01*
X43166133Y38464047D01*
X43103390Y38538114D01*
X43052127Y38622592D01*
X43013363Y38716249D01*
X42988117Y38817854D01*
X42986216Y38829783D01*
X42983788Y38849059D01*
X42981754Y38871731D01*
X42980094Y38899154D01*
X42978783Y38932681D01*
X42977800Y38973665D01*
X42977121Y39023460D01*
X42976724Y39083419D01*
X42976586Y39154897D01*
X42976685Y39239247D01*
X42976998Y39337822D01*
X42977027Y39344339D01*
X43220016Y39344339D01*
X43223130Y39088222D01*
X43224049Y39017132D01*
X43225022Y38958289D01*
X43226178Y38912087D01*
X43227679Y38876345D01*
X43229684Y38848882D01*
X43232354Y38827518D01*
X43235850Y38810072D01*
X43240333Y38794363D01*
X43245963Y38778211D01*
X43269780Y38727417D01*
X43303929Y38675226D01*
X43343676Y38628800D01*
X43384898Y38593618D01*
X43407182Y38580302D01*
X43444381Y38562383D01*
X43481039Y38548571D01*
X43504288Y38542587D01*
X43560905Y38534436D01*
X43623259Y38532078D01*
X43684455Y38535606D01*
X43737600Y38545112D01*
X43754733Y38550141D01*
X43823848Y38580732D01*
X43883541Y38624742D01*
X43933074Y38681180D01*
X43971708Y38749056D01*
X43998705Y38827378D01*
X44013327Y38915156D01*
X44013907Y38922373D01*
X44012402Y39000830D01*
X43997267Y39076017D01*
X43969668Y39145582D01*
X43930773Y39207171D01*
X43881751Y39258432D01*
X43823769Y39297011D01*
X43804601Y39306408D01*
X43778208Y39317762D01*
X43751495Y39326624D01*
X43722090Y39333294D01*
X43687620Y39338075D01*
X43645711Y39341268D01*
X43593992Y39343175D01*
X43530089Y39344098D01*
X43451629Y39344339D01*
X43220016Y39344339D01*
X42977027Y39344339D01*
X42977502Y39451976D01*
X42980196Y40008972D01*
X43003783Y40084857D01*
X43041682Y40184441D01*
X43091839Y40275239D01*
X43153030Y40353208D01*
X43225292Y40418385D01*
X43308659Y40470809D01*
X43403167Y40510515D01*
X43430760Y40519246D01*
X43455423Y40525463D01*
X43480851Y40529512D01*
X43511084Y40531857D01*
X43550164Y40532960D01*
X43602133Y40533282D01*
X43613734Y40533294D01*
X43662109Y40533048D01*
X43698325Y40531959D01*
X43726353Y40529557D01*
X43750165Y40525373D01*
X43773730Y40518938D01*
X43801019Y40509783D01*
X43891277Y40470628D01*
X43971047Y40419374D01*
X44039965Y40355680D01*
X44098842Y40278796D01*
X44148487Y40187971D01*
X44166390Y40144468D01*
X44182863Y40094681D01*
X44196420Y40043606D01*
X44206570Y39994106D01*
X44212821Y39949044D01*
X44214683Y39911280D01*
X44211662Y39883678D01*
X44203267Y39869099D01*
X44193780Y39865880D01*
X44169732Y39862664D01*
X44137023Y39860927D01*
X44099915Y39860606D01*
X44062665Y39861638D01*
X44029534Y39863960D01*
X44004782Y39867508D01*
X43992668Y39872219D01*
X43990509Y39876030D01*
X43984182Y39894912D01*
X43977025Y39924079D01*
X43970211Y39959002D01*
X43966343Y39979478D01*
X43942062Y40063742D01*
X43906626Y40135877D01*
X43860410Y40195476D01*
X43803787Y40242134D01*
X43737132Y40275443D01*
X43660819Y40294996D01*
X43636584Y40297987D01*
X43558899Y40297443D01*
X43484545Y40282031D01*
X43415670Y40252841D01*
X43354422Y40210961D01*
X43302948Y40157481D01*
X43263395Y40093489D01*
X43260885Y40088154D01*
X43244378Y40047705D01*
X43231826Y40004795D01*
X43222805Y39956548D01*
X43216889Y39900092D01*
X43213651Y39832550D01*
X43212667Y39751049D01*
X43212667Y39591981D01*
X43464550Y39587688D01*
X43491228Y39587212D01*
X43571272Y39585367D01*
X43637576Y39582845D01*
X43692603Y39579242D01*
X43738815Y39574153D01*
X43778675Y39567175D01*
X43814647Y39557902D01*
X43849195Y39545930D01*
X43884780Y39530856D01*
X43923867Y39512274D01*
X43955207Y39495277D01*
X44026142Y39444657D01*
X44091001Y39381642D01*
X44147260Y39309287D01*
X44192396Y39230652D01*
X44223886Y39148791D01*
X44228403Y39132062D01*
X44243069Y39052073D01*
X44249006Y38966669D01*
X44247178Y38922373D01*
X44245579Y38883609D01*
G37*
X50633560Y39403606D02*
X50633559Y39398327D01*
X50633520Y39286702D01*
X50633437Y39190619D01*
X50633270Y39108742D01*
X50632980Y39039740D01*
X50632528Y38982278D01*
X50631872Y38935022D01*
X50630975Y38896639D01*
X50629796Y38865796D01*
X50628296Y38841158D01*
X50626435Y38821391D01*
X50624174Y38805163D01*
X50621473Y38791140D01*
X50618293Y38777987D01*
X50614594Y38764372D01*
X50607716Y38740987D01*
X50568699Y38640750D01*
X50517674Y38551529D01*
X50455387Y38474014D01*
X50382584Y38408898D01*
X50300009Y38356872D01*
X50208409Y38318627D01*
X50108528Y38294855D01*
X50099549Y38293600D01*
X50051625Y38290211D01*
X49995158Y38290153D01*
X49936481Y38293141D01*
X49881928Y38298887D01*
X49837833Y38307105D01*
X49820023Y38312170D01*
X49764507Y38332947D01*
X49705988Y38360791D01*
X49651028Y38392380D01*
X49606190Y38424392D01*
X49571423Y38455766D01*
X49507833Y38529398D01*
X49455008Y38614202D01*
X49413895Y38708204D01*
X49385440Y38809426D01*
X49370592Y38915894D01*
X49369060Y38938817D01*
X49368544Y38970267D01*
X49372918Y38991460D01*
X49384590Y39004419D01*
X49405969Y39011168D01*
X49439462Y39013734D01*
X49487480Y39014139D01*
X49518361Y39013844D01*
X49556269Y39011591D01*
X49581368Y39006094D01*
X49596176Y38996155D01*
X49603214Y38980571D01*
X49605000Y38958144D01*
X49605019Y38956513D01*
X49607064Y38932453D01*
X49611835Y38899222D01*
X49618387Y38863499D01*
X49624243Y38837935D01*
X49652302Y38756455D01*
X49692028Y38685970D01*
X49742726Y38627336D01*
X49803699Y38581407D01*
X49874252Y38549039D01*
X49880572Y38547007D01*
X49939351Y38534923D01*
X50005388Y38531146D01*
X50071991Y38535689D01*
X50132466Y38548563D01*
X50137010Y38550016D01*
X50186235Y38571343D01*
X50234990Y38601270D01*
X50277861Y38636027D01*
X50309433Y38671841D01*
X50326445Y38698102D01*
X50351388Y38745117D01*
X50370510Y38795500D01*
X50384401Y38851914D01*
X50393648Y38917025D01*
X50398842Y38993495D01*
X50400571Y39083989D01*
X50400867Y39234272D01*
X50164545Y39234272D01*
X50117268Y39234370D01*
X50041605Y39235101D01*
X49980226Y39236604D01*
X49931415Y39238948D01*
X49893459Y39242202D01*
X49864643Y39246437D01*
X49798608Y39262474D01*
X49704608Y39298533D01*
X49619926Y39347850D01*
X49545635Y39409625D01*
X49482813Y39483060D01*
X49432535Y39567356D01*
X49409027Y39618779D01*
X49387852Y39676931D01*
X49374341Y39734200D01*
X49367199Y39796381D01*
X49365632Y39851669D01*
X49605161Y39851669D01*
X49608523Y39793641D01*
X49617453Y39745746D01*
X49625014Y39721941D01*
X49658244Y39649676D01*
X49703340Y39589455D01*
X49760035Y39541518D01*
X49828062Y39506109D01*
X49907153Y39483470D01*
X49938309Y39478971D01*
X49980504Y39475530D01*
X50034899Y39473156D01*
X50103064Y39471782D01*
X50186569Y39471339D01*
X50402581Y39471339D01*
X50398582Y39714755D01*
X50398166Y39738958D01*
X50396555Y39813575D01*
X50394632Y39873523D01*
X50392294Y39920565D01*
X50389438Y39956462D01*
X50385959Y39982977D01*
X50381756Y40001871D01*
X50375978Y40020572D01*
X50344180Y40098228D01*
X50303370Y40162070D01*
X50252650Y40213045D01*
X50191121Y40252100D01*
X50117884Y40280185D01*
X50103374Y40283763D01*
X50054560Y40290281D01*
X49998279Y40291858D01*
X49940512Y40288731D01*
X49887240Y40281137D01*
X49844444Y40269315D01*
X49840793Y40267869D01*
X49773068Y40231722D01*
X49714807Y40182146D01*
X49667353Y40120540D01*
X49632047Y40048300D01*
X49625717Y40028973D01*
X49614036Y39975094D01*
X49607092Y39914073D01*
X49605161Y39851669D01*
X49365632Y39851669D01*
X49365133Y39869272D01*
X49367287Y39936416D01*
X49378918Y40028322D01*
X49401447Y40113183D01*
X49435793Y40195239D01*
X49450534Y40223282D01*
X49505768Y40305858D01*
X49571992Y40376671D01*
X49647809Y40435184D01*
X49731825Y40480864D01*
X49822643Y40513175D01*
X49918867Y40531582D01*
X50019103Y40535552D01*
X50121954Y40524549D01*
X50226024Y40498037D01*
X50249423Y40489734D01*
X50335444Y40448265D01*
X50412267Y40393015D01*
X50479257Y40324715D01*
X50535781Y40244099D01*
X50581203Y40151897D01*
X50614891Y40048844D01*
X50614899Y40048811D01*
X50618595Y40033991D01*
X50621771Y40019748D01*
X50624467Y40004737D01*
X50626722Y39987609D01*
X50628574Y39967018D01*
X50630062Y39941618D01*
X50631226Y39910060D01*
X50632105Y39870998D01*
X50632736Y39823085D01*
X50633160Y39764973D01*
X50633416Y39695317D01*
X50633542Y39612768D01*
X50633577Y39515980D01*
X50633570Y39471339D01*
X50633560Y39403606D01*
G36*
X50633560Y39403606D02*
G01*
X50633559Y39398327D01*
X50633520Y39286702D01*
X50633437Y39190619D01*
X50633270Y39108742D01*
X50632980Y39039740D01*
X50632528Y38982278D01*
X50631872Y38935022D01*
X50630975Y38896639D01*
X50629796Y38865796D01*
X50628296Y38841158D01*
X50626435Y38821391D01*
X50624174Y38805163D01*
X50621473Y38791140D01*
X50618293Y38777987D01*
X50614594Y38764372D01*
X50607716Y38740987D01*
X50568699Y38640750D01*
X50517674Y38551529D01*
X50455387Y38474014D01*
X50382584Y38408898D01*
X50300009Y38356872D01*
X50208409Y38318627D01*
X50108528Y38294855D01*
X50099549Y38293600D01*
X50051625Y38290211D01*
X49995158Y38290153D01*
X49936481Y38293141D01*
X49881928Y38298887D01*
X49837833Y38307105D01*
X49820023Y38312170D01*
X49764507Y38332947D01*
X49705988Y38360791D01*
X49651028Y38392380D01*
X49606190Y38424392D01*
X49571423Y38455766D01*
X49507833Y38529398D01*
X49455008Y38614202D01*
X49413895Y38708204D01*
X49385440Y38809426D01*
X49370592Y38915894D01*
X49369060Y38938817D01*
X49368544Y38970267D01*
X49372918Y38991460D01*
X49384590Y39004419D01*
X49405969Y39011168D01*
X49439462Y39013734D01*
X49487480Y39014139D01*
X49518361Y39013844D01*
X49556269Y39011591D01*
X49581368Y39006094D01*
X49596176Y38996155D01*
X49603214Y38980571D01*
X49605000Y38958144D01*
X49605019Y38956513D01*
X49607064Y38932453D01*
X49611835Y38899222D01*
X49618387Y38863499D01*
X49624243Y38837935D01*
X49652302Y38756455D01*
X49692028Y38685970D01*
X49742726Y38627336D01*
X49803699Y38581407D01*
X49874252Y38549039D01*
X49880572Y38547007D01*
X49939351Y38534923D01*
X50005388Y38531146D01*
X50071991Y38535689D01*
X50132466Y38548563D01*
X50137010Y38550016D01*
X50186235Y38571343D01*
X50234990Y38601270D01*
X50277861Y38636027D01*
X50309433Y38671841D01*
X50326445Y38698102D01*
X50351388Y38745117D01*
X50370510Y38795500D01*
X50384401Y38851914D01*
X50393648Y38917025D01*
X50398842Y38993495D01*
X50400571Y39083989D01*
X50400867Y39234272D01*
X50164545Y39234272D01*
X50117268Y39234370D01*
X50041605Y39235101D01*
X49980226Y39236604D01*
X49931415Y39238948D01*
X49893459Y39242202D01*
X49864643Y39246437D01*
X49798608Y39262474D01*
X49704608Y39298533D01*
X49619926Y39347850D01*
X49545635Y39409625D01*
X49482813Y39483060D01*
X49432535Y39567356D01*
X49409027Y39618779D01*
X49387852Y39676931D01*
X49374341Y39734200D01*
X49367199Y39796381D01*
X49365632Y39851669D01*
X49605161Y39851669D01*
X49608523Y39793641D01*
X49617453Y39745746D01*
X49625014Y39721941D01*
X49658244Y39649676D01*
X49703340Y39589455D01*
X49760035Y39541518D01*
X49828062Y39506109D01*
X49907153Y39483470D01*
X49938309Y39478971D01*
X49980504Y39475530D01*
X50034899Y39473156D01*
X50103064Y39471782D01*
X50186569Y39471339D01*
X50402581Y39471339D01*
X50398582Y39714755D01*
X50398166Y39738958D01*
X50396555Y39813575D01*
X50394632Y39873523D01*
X50392294Y39920565D01*
X50389438Y39956462D01*
X50385959Y39982977D01*
X50381756Y40001871D01*
X50375978Y40020572D01*
X50344180Y40098228D01*
X50303370Y40162070D01*
X50252650Y40213045D01*
X50191121Y40252100D01*
X50117884Y40280185D01*
X50103374Y40283763D01*
X50054560Y40290281D01*
X49998279Y40291858D01*
X49940512Y40288731D01*
X49887240Y40281137D01*
X49844444Y40269315D01*
X49840793Y40267869D01*
X49773068Y40231722D01*
X49714807Y40182146D01*
X49667353Y40120540D01*
X49632047Y40048300D01*
X49625717Y40028973D01*
X49614036Y39975094D01*
X49607092Y39914073D01*
X49605161Y39851669D01*
X49365632Y39851669D01*
X49365133Y39869272D01*
X49367287Y39936416D01*
X49378918Y40028322D01*
X49401447Y40113183D01*
X49435793Y40195239D01*
X49450534Y40223282D01*
X49505768Y40305858D01*
X49571992Y40376671D01*
X49647809Y40435184D01*
X49731825Y40480864D01*
X49822643Y40513175D01*
X49918867Y40531582D01*
X50019103Y40535552D01*
X50121954Y40524549D01*
X50226024Y40498037D01*
X50249423Y40489734D01*
X50335444Y40448265D01*
X50412267Y40393015D01*
X50479257Y40324715D01*
X50535781Y40244099D01*
X50581203Y40151897D01*
X50614891Y40048844D01*
X50614899Y40048811D01*
X50618595Y40033991D01*
X50621771Y40019748D01*
X50624467Y40004737D01*
X50626722Y39987609D01*
X50628574Y39967018D01*
X50630062Y39941618D01*
X50631226Y39910060D01*
X50632105Y39870998D01*
X50632736Y39823085D01*
X50633160Y39764973D01*
X50633416Y39695317D01*
X50633542Y39612768D01*
X50633577Y39515980D01*
X50633570Y39471339D01*
X50633560Y39403606D01*
G37*
%TD*%
%LPC*%
D13*
%TO.C,J21*%
X67600000Y4300000D03*
%TD*%
%TO.C,J4*%
X196000000Y4000000D03*
%TD*%
%TO.C,J3*%
X4000000Y51000000D03*
%TD*%
%TO.C,J18*%
X67600000Y50800000D03*
%TD*%
%TO.C,J7*%
X4100000Y4100000D03*
%TD*%
%TO.C,J19*%
X195900000Y50900000D03*
%TD*%
D14*
%TO.C,J1*%
X9900000Y35900000D03*
D15*
X9900000Y38400000D03*
X9900000Y40900000D03*
X9900000Y43400000D03*
%TD*%
D16*
%TO.C,U8*%
X35365000Y47178072D03*
D17*
X35365000Y44638072D03*
X35365000Y42098072D03*
X35365000Y39558072D03*
X35365000Y37018072D03*
X35365000Y34478072D03*
X35365000Y31938072D03*
X35365000Y29398072D03*
X35365000Y26858072D03*
X35365000Y24318072D03*
X35365000Y21778072D03*
X35365000Y19238072D03*
X35365000Y16698072D03*
X35365000Y14158072D03*
X35365000Y11618072D03*
X35365000Y9078072D03*
X35365000Y6538072D03*
X35365000Y3998072D03*
X35365000Y1458072D03*
X60765000Y1458072D03*
X60765000Y3998072D03*
X60765000Y6538072D03*
X60765000Y9078072D03*
X60765000Y11618072D03*
X60765000Y14158072D03*
X60765000Y16698072D03*
X60765000Y19238072D03*
X60765000Y21778072D03*
X60765000Y24318072D03*
X60765000Y26858072D03*
X60765000Y29398072D03*
X60765000Y31938072D03*
X60765000Y34478072D03*
X60765000Y37018072D03*
X60765000Y39558072D03*
X60765000Y42098072D03*
X60765000Y44638072D03*
X60765000Y47178072D03*
%TD*%
D18*
%TO.C,TH8*%
X139995000Y14700000D03*
D19*
X141895000Y14700000D03*
%TD*%
D16*
%TO.C,SW1*%
X29800000Y26667500D03*
D17*
X27260000Y26667500D03*
X24720000Y26667500D03*
X22180000Y26667500D03*
X19640000Y26667500D03*
X17100000Y26667500D03*
X14560000Y26667500D03*
X12020000Y26667500D03*
X12020000Y19047500D03*
X14560000Y19047500D03*
X17100000Y19047500D03*
X19640000Y19047500D03*
X22180000Y19047500D03*
X24720000Y19047500D03*
X27260000Y19047500D03*
X29800000Y19047500D03*
%TD*%
D18*
%TO.C,TH3*%
X80395000Y15100000D03*
D19*
X82295000Y15100000D03*
%TD*%
D18*
%TO.C,TH9*%
X139995000Y17000000D03*
D19*
X141895000Y17000000D03*
%TD*%
D18*
%TO.C,TH7*%
X139995000Y12000000D03*
D19*
X141895000Y12000000D03*
%TD*%
D20*
%TO.C,J11*%
X83600000Y51000000D03*
X86100000Y51000000D03*
X88600000Y51000000D03*
X91100000Y51000000D03*
X93600000Y51000000D03*
X96100000Y51000000D03*
D21*
X98600000Y51000000D03*
%TD*%
D18*
%TO.C,TH5*%
X80395000Y19500000D03*
D19*
X82295000Y19500000D03*
%TD*%
D22*
%TO.C,J6*%
X195700000Y15900000D03*
D23*
X195700000Y11940000D03*
%TD*%
D20*
%TO.C,J10*%
X110600000Y51000000D03*
X113100000Y51000000D03*
X115600000Y51000000D03*
X118100000Y51000000D03*
X120600000Y51000000D03*
X123100000Y51000000D03*
D21*
X125600000Y51000000D03*
%TD*%
D18*
%TO.C,TH4*%
X80395000Y17300000D03*
D19*
X82295000Y17300000D03*
%TD*%
D20*
%TO.C,J13*%
X143100000Y51000000D03*
X145600000Y51000000D03*
X148100000Y51000000D03*
X150600000Y51000000D03*
X153100000Y51000000D03*
X155600000Y51000000D03*
D21*
X158100000Y51000000D03*
%TD*%
D24*
%TO.C,J23*%
X4800000Y30000000D03*
D15*
X4800000Y27500000D03*
X4800000Y25000000D03*
X4800000Y22500000D03*
%TD*%
D20*
%TO.C,J12*%
X169500000Y51000000D03*
X172000000Y51000000D03*
X174500000Y51000000D03*
X177000000Y51000000D03*
X179500000Y51000000D03*
X182000000Y51000000D03*
D21*
X184500000Y51000000D03*
%TD*%
D18*
%TO.C,TH10*%
X139995000Y19200000D03*
D19*
X141895000Y19200000D03*
%TD*%
D14*
%TO.C,J5*%
X3000000Y35900000D03*
D15*
X3000000Y38400000D03*
X3000000Y40900000D03*
X3000000Y43400000D03*
%TD*%
D18*
%TO.C,TH2*%
X80395000Y12900000D03*
D19*
X82295000Y12900000D03*
%TD*%
%LPD*%
M02*
