%TF.GenerationSoftware,KiCad,Pcbnew,9.0.4*%
%TF.CreationDate,2025-10-02T14:04:05+09:00*%
%TF.ProjectId,LTC6811_ESP32_Master_V5P3,4c544336-3831-4315-9f45-535033325f4d,rev?*%
%TF.SameCoordinates,Original*%
%TF.FileFunction,Soldermask,Top*%
%TF.FilePolarity,Negative*%
%FSLAX46Y46*%
G04 Gerber Fmt 4.6, Leading zero omitted, Abs format (unit mm)*
G04 Created by KiCad (PCBNEW 9.0.4) date 2025-10-02 14:04:05*
%MOMM*%
%LPD*%
G01*
G04 APERTURE LIST*
G04 Aperture macros list*
%AMRoundRect*
0 Rectangle with rounded corners*
0 $1 Rounding radius*
0 $2 $3 $4 $5 $6 $7 $8 $9 X,Y pos of 4 corners*
0 Add a 4 corners polygon primitive as box body*
4,1,4,$2,$3,$4,$5,$6,$7,$8,$9,$2,$3,0*
0 Add four circle primitives for the rounded corners*
1,1,$1+$1,$2,$3*
1,1,$1+$1,$4,$5*
1,1,$1+$1,$6,$7*
1,1,$1+$1,$8,$9*
0 Add four rect primitives between the rounded corners*
20,1,$1+$1,$2,$3,$4,$5,0*
20,1,$1+$1,$4,$5,$6,$7,0*
20,1,$1+$1,$6,$7,$8,$9,0*
20,1,$1+$1,$8,$9,$2,$3,0*%
%AMFreePoly0*
4,1,23,0.500000,-0.750000,0.000000,-0.750000,0.000000,-0.745722,-0.065263,-0.745722,-0.191342,-0.711940,-0.304381,-0.646677,-0.396677,-0.554381,-0.461940,-0.441342,-0.495722,-0.315263,-0.495722,-0.250000,-0.500000,-0.250000,-0.500000,0.250000,-0.495722,0.250000,-0.495722,0.315263,-0.461940,0.441342,-0.396677,0.554381,-0.304381,0.646677,-0.191342,0.711940,-0.065263,0.745722,0.000000,0.745722,
0.000000,0.750000,0.500000,0.750000,0.500000,-0.750000,0.500000,-0.750000,$1*%
%AMFreePoly1*
4,1,23,0.000000,0.745722,0.065263,0.745722,0.191342,0.711940,0.304381,0.646677,0.396677,0.554381,0.461940,0.441342,0.495722,0.315263,0.495722,0.250000,0.500000,0.250000,0.500000,-0.250000,0.495722,-0.250000,0.495722,-0.315263,0.461940,-0.441342,0.396677,-0.554381,0.304381,-0.646677,0.191342,-0.711940,0.065263,-0.745722,0.000000,-0.745722,0.000000,-0.750000,-0.500000,-0.750000,
-0.500000,0.750000,0.000000,0.750000,0.000000,0.745722,0.000000,0.745722,$1*%
G04 Aperture macros list end*
%ADD10RoundRect,0.225000X0.225000X0.375000X-0.225000X0.375000X-0.225000X-0.375000X0.225000X-0.375000X0*%
%ADD11RoundRect,0.200000X-0.200000X-0.275000X0.200000X-0.275000X0.200000X0.275000X-0.200000X0.275000X0*%
%ADD12RoundRect,0.250000X0.725000X-0.600000X0.725000X0.600000X-0.725000X0.600000X-0.725000X-0.600000X0*%
%ADD13O,1.950000X1.700000*%
%ADD14R,1.600000X1.600000*%
%ADD15O,1.600000X1.600000*%
%ADD16RoundRect,0.218750X0.256250X-0.218750X0.256250X0.218750X-0.256250X0.218750X-0.256250X-0.218750X0*%
%ADD17RoundRect,0.200000X0.275000X-0.200000X0.275000X0.200000X-0.275000X0.200000X-0.275000X-0.200000X0*%
%ADD18RoundRect,0.200000X-0.275000X0.200000X-0.275000X-0.200000X0.275000X-0.200000X0.275000X0.200000X0*%
%ADD19RoundRect,0.200000X0.200000X0.275000X-0.200000X0.275000X-0.200000X-0.275000X0.200000X-0.275000X0*%
%ADD20RoundRect,0.225000X0.225000X0.250000X-0.225000X0.250000X-0.225000X-0.250000X0.225000X-0.250000X0*%
%ADD21R,1.000000X1.500000*%
%ADD22RoundRect,0.225000X-0.225000X-0.250000X0.225000X-0.250000X0.225000X0.250000X-0.225000X0.250000X0*%
%ADD23RoundRect,0.250000X0.250000X0.250000X-0.250000X0.250000X-0.250000X-0.250000X0.250000X-0.250000X0*%
%ADD24RoundRect,0.243750X-0.456250X0.243750X-0.456250X-0.243750X0.456250X-0.243750X0.456250X0.243750X0*%
%ADD25RoundRect,0.225000X0.250000X-0.225000X0.250000X0.225000X-0.250000X0.225000X-0.250000X-0.225000X0*%
%ADD26RoundRect,0.250000X-1.425000X0.362500X-1.425000X-0.362500X1.425000X-0.362500X1.425000X0.362500X0*%
%ADD27R,1.701800X0.711200*%
%ADD28R,6.223000X6.553200*%
%ADD29C,1.000000*%
%ADD30C,1.400000*%
%ADD31O,1.400000X1.400000*%
%ADD32RoundRect,0.225000X-0.250000X0.225000X-0.250000X-0.225000X0.250000X-0.225000X0.250000X0.225000X0*%
%ADD33R,1.950000X1.020000*%
%ADD34RoundRect,0.250000X0.300000X0.300000X-0.300000X0.300000X-0.300000X-0.300000X0.300000X-0.300000X0*%
%ADD35RoundRect,0.150000X0.150000X-0.587500X0.150000X0.587500X-0.150000X0.587500X-0.150000X-0.587500X0*%
%ADD36RoundRect,0.075000X-0.075000X0.662500X-0.075000X-0.662500X0.075000X-0.662500X0.075000X0.662500X0*%
%ADD37RoundRect,0.150000X0.150000X-0.875000X0.150000X0.875000X-0.150000X0.875000X-0.150000X-0.875000X0*%
%ADD38O,1.700000X1.950000*%
%ADD39RoundRect,0.250000X0.600000X0.725000X-0.600000X0.725000X-0.600000X-0.725000X0.600000X-0.725000X0*%
%ADD40RoundRect,0.218750X0.218750X0.256250X-0.218750X0.256250X-0.218750X-0.256250X0.218750X-0.256250X0*%
%ADD41RoundRect,0.250001X-1.099999X1.099999X-1.099999X-1.099999X1.099999X-1.099999X1.099999X1.099999X0*%
%ADD42C,2.700000*%
%ADD43RoundRect,0.218750X-0.256250X0.218750X-0.256250X-0.218750X0.256250X-0.218750X0.256250X0.218750X0*%
%ADD44RoundRect,0.375000X0.625000X0.375000X-0.625000X0.375000X-0.625000X-0.375000X0.625000X-0.375000X0*%
%ADD45RoundRect,0.500000X0.500000X1.400000X-0.500000X1.400000X-0.500000X-1.400000X0.500000X-1.400000X0*%
%ADD46FreePoly0,90.000000*%
%ADD47FreePoly1,90.000000*%
%ADD48RoundRect,0.150000X0.825000X0.150000X-0.825000X0.150000X-0.825000X-0.150000X0.825000X-0.150000X0*%
%ADD49RoundRect,0.075000X-0.650000X-0.075000X0.650000X-0.075000X0.650000X0.075000X-0.650000X0.075000X0*%
%ADD50RoundRect,0.250000X-0.725000X0.600000X-0.725000X-0.600000X0.725000X-0.600000X0.725000X0.600000X0*%
G04 APERTURE END LIST*
D10*
%TO.C,D7*%
X131050000Y21100000D03*
X127750000Y21100000D03*
%TD*%
%TO.C,D6*%
X131050000Y23500000D03*
X127750000Y23500000D03*
%TD*%
%TO.C,D22*%
X190150000Y19800000D03*
X186850000Y19800000D03*
%TD*%
%TO.C,D23*%
X190150000Y22200000D03*
X186850000Y22200000D03*
%TD*%
D11*
%TO.C,R144*%
X11225000Y11500000D03*
X9575000Y11500000D03*
%TD*%
%TO.C,R102*%
X11225000Y5100000D03*
X9575000Y5100000D03*
%TD*%
%TO.C,R148*%
X11225000Y13100000D03*
X9575000Y13100000D03*
%TD*%
%TO.C,R103*%
X11225000Y6700000D03*
X9575000Y6700000D03*
%TD*%
%TO.C,R105*%
X11225000Y9900000D03*
X9575000Y9900000D03*
%TD*%
%TO.C,R104*%
X11225000Y8300000D03*
X9575000Y8300000D03*
%TD*%
D12*
%TO.C,J1*%
X9900000Y35900000D03*
D13*
X9900000Y38400000D03*
X9900000Y40900000D03*
X9900000Y43400000D03*
%TD*%
D14*
%TO.C,U8*%
X35365000Y47178072D03*
D15*
X35365000Y44638072D03*
X35365000Y42098072D03*
X35365000Y39558072D03*
X35365000Y37018072D03*
X35365000Y34478072D03*
X35365000Y31938072D03*
X35365000Y29398072D03*
X35365000Y26858072D03*
X35365000Y24318072D03*
X35365000Y21778072D03*
X35365000Y19238072D03*
X35365000Y16698072D03*
X35365000Y14158072D03*
X35365000Y11618072D03*
X35365000Y9078072D03*
X35365000Y6538072D03*
X35365000Y3998072D03*
X35365000Y1458072D03*
X60765000Y1458072D03*
X60765000Y3998072D03*
X60765000Y6538072D03*
X60765000Y9078072D03*
X60765000Y11618072D03*
X60765000Y14158072D03*
X60765000Y16698072D03*
X60765000Y19238072D03*
X60765000Y21778072D03*
X60765000Y24318072D03*
X60765000Y26858072D03*
X60765000Y29398072D03*
X60765000Y31938072D03*
X60765000Y34478072D03*
X60765000Y37018072D03*
X60765000Y39558072D03*
X60765000Y42098072D03*
X60765000Y44638072D03*
X60765000Y47178072D03*
%TD*%
D16*
%TO.C,D25*%
X155900000Y6512500D03*
X155900000Y8087500D03*
%TD*%
D17*
%TO.C,R138*%
X140600000Y30275000D03*
X140600000Y31925000D03*
%TD*%
D18*
%TO.C,R91*%
X189600000Y17725000D03*
X189600000Y16075000D03*
%TD*%
D19*
%TO.C,R4*%
X78425000Y13400000D03*
X76775000Y13400000D03*
%TD*%
D20*
%TO.C,C9*%
X145380000Y16000000D03*
X143830000Y16000000D03*
%TD*%
D21*
%TO.C,JP3*%
X28800000Y34700000D03*
X30100000Y34700000D03*
X31400000Y34700000D03*
%TD*%
D22*
%TO.C,C84*%
X156200000Y28800000D03*
X157750000Y28800000D03*
%TD*%
D18*
%TO.C,R2*%
X119700000Y7000000D03*
X119700000Y5350000D03*
%TD*%
D23*
%TO.C,D14*%
X110300000Y27000000D03*
X107800000Y27000000D03*
%TD*%
D24*
%TO.C,F5*%
X113600000Y47137500D03*
X113600000Y45262500D03*
%TD*%
D25*
%TO.C,C34*%
X26200000Y34200000D03*
X26200000Y35750000D03*
%TD*%
D24*
%TO.C,F19*%
X168200000Y47137500D03*
X168200000Y45262500D03*
%TD*%
D22*
%TO.C,C62*%
X78825000Y28800000D03*
X80375000Y28800000D03*
%TD*%
%TO.C,C35*%
X25050000Y50100000D03*
X26600000Y50100000D03*
%TD*%
D11*
%TO.C,R48*%
X118675000Y20200000D03*
X120325000Y20200000D03*
%TD*%
D26*
%TO.C,R121*%
X163800000Y43462500D03*
X163800000Y37537500D03*
%TD*%
%TO.C,R88*%
X77725000Y43462500D03*
X77725000Y37537500D03*
%TD*%
D27*
%TO.C,U4*%
X21908500Y48199999D03*
D28*
X15152100Y50500000D03*
D27*
X21908500Y52800001D03*
%TD*%
D20*
%TO.C,C5*%
X85729962Y19187500D03*
X84179962Y19187500D03*
%TD*%
D29*
%TO.C,TP3*%
X112600000Y16800000D03*
%TD*%
D30*
%TO.C,TH8*%
X139995000Y14700000D03*
D31*
X141895000Y14700000D03*
%TD*%
D18*
%TO.C,R49*%
X146600000Y7050000D03*
X146600000Y5400000D03*
%TD*%
D17*
%TO.C,R123*%
X162700000Y30275000D03*
X162700000Y31925000D03*
%TD*%
D26*
%TO.C,R112*%
X177000000Y43462500D03*
X177000000Y37537500D03*
%TD*%
D29*
%TO.C,TP4*%
X78300000Y21300000D03*
%TD*%
D22*
%TO.C,C68*%
X27425000Y16500000D03*
X28975000Y16500000D03*
%TD*%
D32*
%TO.C,C37*%
X112000000Y20400000D03*
X112000000Y18850000D03*
%TD*%
D23*
%TO.C,D37*%
X138800000Y27000000D03*
X136300000Y27000000D03*
%TD*%
D17*
%TO.C,R90*%
X76675000Y30275000D03*
X76675000Y31925000D03*
%TD*%
D23*
%TO.C,D11*%
X123800000Y27000000D03*
X121300000Y27000000D03*
%TD*%
D17*
%TO.C,R63*%
X117000000Y30275000D03*
X117000000Y31925000D03*
%TD*%
D22*
%TO.C,C61*%
X83325000Y28800000D03*
X84875000Y28800000D03*
%TD*%
D26*
%TO.C,R133*%
X146150000Y43462500D03*
X146150000Y37537500D03*
%TD*%
D17*
%TO.C,R117*%
X171500000Y30275000D03*
X171500000Y31925000D03*
%TD*%
D18*
%TO.C,TH1*%
X104600000Y52525000D03*
X104600000Y50875000D03*
%TD*%
D20*
%TO.C,C10*%
X145375000Y17700000D03*
X143825000Y17700000D03*
%TD*%
%TO.C,C7*%
X145375000Y12300000D03*
X143825000Y12300000D03*
%TD*%
D33*
%TO.C,TR3*%
X141120000Y1960000D03*
X141120000Y4500000D03*
X141120000Y7040000D03*
X125480000Y7040000D03*
X125480000Y4500000D03*
X125480000Y1960000D03*
%TD*%
D17*
%TO.C,R72*%
X103500000Y30275000D03*
X103500000Y31925000D03*
%TD*%
D34*
%TO.C,D8*%
X131075000Y18700000D03*
X128275000Y18700000D03*
%TD*%
D35*
%TO.C,Q24*%
X145200000Y33662500D03*
X147100000Y33662500D03*
X146150000Y35537500D03*
%TD*%
D19*
%TO.C,R98*%
X164725000Y4500000D03*
X163075000Y4500000D03*
%TD*%
D22*
%TO.C,C24*%
X121225000Y3900000D03*
X122775000Y3900000D03*
%TD*%
%TO.C,C29*%
X81025000Y4600000D03*
X82575000Y4600000D03*
%TD*%
D26*
%TO.C,R118*%
X168200000Y43462500D03*
X168200000Y37537500D03*
%TD*%
D35*
%TO.C,Q8*%
X99150000Y33662500D03*
X101050000Y33662500D03*
X100100000Y35537500D03*
%TD*%
D14*
%TO.C,SW1*%
X29800000Y26667500D03*
D15*
X27260000Y26667500D03*
X24720000Y26667500D03*
X22180000Y26667500D03*
X19640000Y26667500D03*
X17100000Y26667500D03*
X14560000Y26667500D03*
X12020000Y26667500D03*
X12020000Y19047500D03*
X14560000Y19047500D03*
X17100000Y19047500D03*
X19640000Y19047500D03*
X22180000Y19047500D03*
X24720000Y19047500D03*
X27260000Y19047500D03*
X29800000Y19047500D03*
%TD*%
D17*
%TO.C,R45*%
X95000000Y17875000D03*
X95000000Y19525000D03*
%TD*%
D20*
%TO.C,C2*%
X85729962Y13800000D03*
X84179962Y13800000D03*
%TD*%
D23*
%TO.C,D36*%
X142950000Y27000000D03*
X140450000Y27000000D03*
%TD*%
D17*
%TO.C,R128*%
X156100000Y30275000D03*
X156100000Y31925000D03*
%TD*%
%TO.C,R69*%
X107900000Y30275000D03*
X107900000Y31925000D03*
%TD*%
D35*
%TO.C,Q3*%
X121650000Y33662500D03*
X123550000Y33662500D03*
X122600000Y35537500D03*
%TD*%
D18*
%TO.C,R40*%
X131000000Y16625000D03*
X131000000Y14975000D03*
%TD*%
D29*
%TO.C,TP2*%
X69500000Y33800000D03*
%TD*%
D17*
%TO.C,R57*%
X126200000Y30275000D03*
X126200000Y31925000D03*
%TD*%
D19*
%TO.C,R11*%
X138125000Y17000000D03*
X136475000Y17000000D03*
%TD*%
D26*
%TO.C,R64*%
X113600000Y43462500D03*
X113600000Y37537500D03*
%TD*%
D17*
%TO.C,R94*%
X157600000Y6462500D03*
X157600000Y8112500D03*
%TD*%
D18*
%TO.C,R32*%
X106500000Y7125000D03*
X106500000Y5475000D03*
%TD*%
D17*
%TO.C,R89*%
X78825000Y30275000D03*
X78825000Y31925000D03*
%TD*%
D22*
%TO.C,C86*%
X147350000Y28800000D03*
X148900000Y28800000D03*
%TD*%
D11*
%TO.C,R151*%
X9575000Y16300000D03*
X11225000Y16300000D03*
%TD*%
D20*
%TO.C,C50*%
X105000000Y3600000D03*
X103450000Y3600000D03*
%TD*%
D32*
%TO.C,C31*%
X64150000Y31775000D03*
X64150000Y30225000D03*
%TD*%
D26*
%TO.C,R67*%
X109100000Y43462500D03*
X109100000Y37537500D03*
%TD*%
D35*
%TO.C,Q5*%
X112650000Y33662500D03*
X114550000Y33662500D03*
X113600000Y35537500D03*
%TD*%
D24*
%TO.C,F23*%
X150600000Y47137500D03*
X150600000Y45262500D03*
%TD*%
D22*
%TO.C,C70*%
X148225000Y4500000D03*
X149775000Y4500000D03*
%TD*%
D35*
%TO.C,Q11*%
X85750000Y33662500D03*
X87650000Y33662500D03*
X86700000Y35537500D03*
%TD*%
D19*
%TO.C,R10*%
X138125000Y14700000D03*
X136475000Y14700000D03*
%TD*%
D22*
%TO.C,C69*%
X103125000Y5900000D03*
X104675000Y5900000D03*
%TD*%
D35*
%TO.C,Q25*%
X140800000Y33662500D03*
X142700000Y33662500D03*
X141750000Y35537500D03*
%TD*%
D24*
%TO.C,F15*%
X185800000Y47137500D03*
X185800000Y45262500D03*
%TD*%
D19*
%TO.C,R9*%
X138125000Y12000000D03*
X136475000Y12000000D03*
%TD*%
D30*
%TO.C,TH3*%
X80395000Y15100000D03*
D31*
X82295000Y15100000D03*
%TD*%
D22*
%TO.C,C82*%
X165000000Y28800000D03*
X166550000Y28800000D03*
%TD*%
%TO.C,C55*%
X110300000Y28800000D03*
X111850000Y28800000D03*
%TD*%
D19*
%TO.C,R7*%
X78425000Y19500000D03*
X76775000Y19500000D03*
%TD*%
D24*
%TO.C,F2*%
X127300000Y47137500D03*
X127300000Y45262500D03*
%TD*%
D35*
%TO.C,Q19*%
X167250000Y33662500D03*
X169150000Y33662500D03*
X168200000Y35537500D03*
%TD*%
D17*
%TO.C,R74*%
X101300000Y30275000D03*
X101300000Y31925000D03*
%TD*%
D35*
%TO.C,Q2*%
X126350000Y33662500D03*
X128250000Y33662500D03*
X127300000Y35537500D03*
%TD*%
D22*
%TO.C,C56*%
X105800000Y28800000D03*
X107350000Y28800000D03*
%TD*%
D36*
%TO.C,U11*%
X110350000Y20412500D03*
X109850000Y20412500D03*
X109350000Y20412500D03*
X108850000Y20412500D03*
X108350000Y20412500D03*
X107850000Y20412500D03*
X107350000Y20412500D03*
X106850000Y20412500D03*
X106350000Y20412500D03*
X105850000Y20412500D03*
X105350000Y20412500D03*
X104850000Y20412500D03*
X104350000Y20412500D03*
X103850000Y20412500D03*
X103350000Y20412500D03*
X102850000Y20412500D03*
X102350000Y20412500D03*
X101850000Y20412500D03*
X101350000Y20412500D03*
X100850000Y20412500D03*
X100350000Y20412500D03*
X99850000Y20412500D03*
X99350000Y20412500D03*
X98850000Y20412500D03*
X98850000Y12987500D03*
X99350000Y12987500D03*
X99850000Y12987500D03*
X100350000Y12987500D03*
X100850000Y12987500D03*
X101350000Y12987500D03*
X101850000Y12987500D03*
X102350000Y12987500D03*
X102850000Y12987500D03*
X103350000Y12987500D03*
X103850000Y12987500D03*
X104350000Y12987500D03*
X104850000Y12987500D03*
X105350000Y12987500D03*
X105850000Y12987500D03*
X106350000Y12987500D03*
X106850000Y12987500D03*
X107350000Y12987500D03*
X107850000Y12987500D03*
X108350000Y12987500D03*
X108850000Y12987500D03*
X109350000Y12987500D03*
X109850000Y12987500D03*
X110350000Y12987500D03*
%TD*%
D25*
%TO.C,C40*%
X124600000Y18525000D03*
X124600000Y20075000D03*
%TD*%
D22*
%TO.C,C59*%
X92300000Y28800000D03*
X93850000Y28800000D03*
%TD*%
D17*
%TO.C,R110*%
X182500000Y30275000D03*
X182500000Y31925000D03*
%TD*%
D24*
%TO.C,F14*%
X188800000Y47137500D03*
X188800000Y45262500D03*
%TD*%
%TO.C,F8*%
X100100000Y47137500D03*
X100100000Y45262500D03*
%TD*%
%TO.C,F7*%
X104600000Y47137500D03*
X104600000Y45262500D03*
%TD*%
D17*
%TO.C,R99*%
X154200000Y6487500D03*
X154200000Y8137500D03*
%TD*%
D22*
%TO.C,C83*%
X160600000Y28800000D03*
X162150000Y28800000D03*
%TD*%
D23*
%TO.C,D27*%
X182600000Y27000000D03*
X180100000Y27000000D03*
%TD*%
D35*
%TO.C,Q9*%
X94650000Y33662500D03*
X96550000Y33662500D03*
X95600000Y35537500D03*
%TD*%
%TO.C,Q20*%
X162850000Y33662500D03*
X164750000Y33662500D03*
X163800000Y35537500D03*
%TD*%
D23*
%TO.C,D32*%
X160600000Y27000000D03*
X158100000Y27000000D03*
%TD*%
D22*
%TO.C,C60*%
X87800000Y28800000D03*
X89350000Y28800000D03*
%TD*%
D26*
%TO.C,R136*%
X141750000Y43462500D03*
X141750000Y37537500D03*
%TD*%
D23*
%TO.C,D26*%
X187000000Y27000000D03*
X184500000Y27000000D03*
%TD*%
D11*
%TO.C,R154*%
X169975000Y6900000D03*
X171625000Y6900000D03*
%TD*%
D17*
%TO.C,R83*%
X87800000Y30275000D03*
X87800000Y31925000D03*
%TD*%
D25*
%TO.C,C65*%
X153700000Y17525000D03*
X153700000Y19075000D03*
%TD*%
D35*
%TO.C,Q12*%
X81275000Y33662500D03*
X83175000Y33662500D03*
X82225000Y35537500D03*
%TD*%
D23*
%TO.C,D13*%
X114800000Y27000000D03*
X112300000Y27000000D03*
%TD*%
D19*
%TO.C,R44*%
X105525000Y10500000D03*
X103875000Y10500000D03*
%TD*%
D30*
%TO.C,TH9*%
X139995000Y17000000D03*
D31*
X141895000Y17000000D03*
%TD*%
D22*
%TO.C,C88*%
X138500000Y28800000D03*
X140050000Y28800000D03*
%TD*%
D25*
%TO.C,C42*%
X184700000Y19200000D03*
X184700000Y20750000D03*
%TD*%
D23*
%TO.C,D15*%
X105800000Y27000000D03*
X103300000Y27000000D03*
%TD*%
D30*
%TO.C,TH7*%
X139995000Y12000000D03*
D31*
X141895000Y12000000D03*
%TD*%
D22*
%TO.C,C57*%
X101300000Y28800000D03*
X102850000Y28800000D03*
%TD*%
D17*
%TO.C,R122*%
X164900000Y30275000D03*
X164900000Y31925000D03*
%TD*%
D26*
%TO.C,R109*%
X181400000Y43462500D03*
X181400000Y37537500D03*
%TD*%
D19*
%TO.C,FB1*%
X131525000Y31800000D03*
X129875000Y31800000D03*
%TD*%
D18*
%TO.C,R153*%
X17200000Y42525000D03*
X17200000Y40875000D03*
%TD*%
D29*
%TO.C,TP1*%
X24600000Y52800000D03*
%TD*%
D19*
%TO.C,R92*%
X179125000Y22500000D03*
X177475000Y22500000D03*
%TD*%
D17*
%TO.C,R80*%
X92300000Y30275000D03*
X92300000Y31925000D03*
%TD*%
%TO.C,R56*%
X128300000Y30275000D03*
X128300000Y31925000D03*
%TD*%
D26*
%TO.C,R58*%
X122600000Y43462500D03*
X122600000Y37537500D03*
%TD*%
D22*
%TO.C,C52*%
X123800000Y28800000D03*
X125350000Y28800000D03*
%TD*%
D17*
%TO.C,R132*%
X149500000Y30275000D03*
X149500000Y31925000D03*
%TD*%
D25*
%TO.C,C39*%
X93400000Y17425000D03*
X93400000Y18975000D03*
%TD*%
D17*
%TO.C,R137*%
X142800000Y30275000D03*
X142800000Y31925000D03*
%TD*%
D22*
%TO.C,C33*%
X21925000Y45600000D03*
X23475000Y45600000D03*
%TD*%
D37*
%TO.C,U1*%
X16045000Y4900000D03*
X17315000Y4900000D03*
X18585000Y4900000D03*
X19855000Y4900000D03*
X21125000Y4900000D03*
X22395000Y4900000D03*
X23665000Y4900000D03*
X24935000Y4900000D03*
X26205000Y4900000D03*
X27475000Y4900000D03*
X28745000Y4900000D03*
X30015000Y4900000D03*
X31285000Y4900000D03*
X32555000Y4900000D03*
X32555000Y14200000D03*
X31285000Y14200000D03*
X30015000Y14200000D03*
X28745000Y14200000D03*
X27475000Y14200000D03*
X26205000Y14200000D03*
X24935000Y14200000D03*
X23665000Y14200000D03*
X22395000Y14200000D03*
X21125000Y14200000D03*
X19855000Y14200000D03*
X18585000Y14200000D03*
X17315000Y14200000D03*
X16045000Y14200000D03*
%TD*%
D32*
%TO.C,C41*%
X127350000Y14200000D03*
X127350000Y12650000D03*
%TD*%
D22*
%TO.C,C51*%
X128250000Y28800000D03*
X129800000Y28800000D03*
%TD*%
D17*
%TO.C,R126*%
X158300000Y30275000D03*
X158300000Y31925000D03*
%TD*%
D24*
%TO.C,F21*%
X159400000Y47137500D03*
X159400000Y45262500D03*
%TD*%
D11*
%TO.C,R47*%
X163075000Y6100000D03*
X164725000Y6100000D03*
%TD*%
D35*
%TO.C,Q17*%
X176050000Y33662500D03*
X177950000Y33662500D03*
X177000000Y35537500D03*
%TD*%
D22*
%TO.C,C80*%
X173800000Y28800000D03*
X175350000Y28800000D03*
%TD*%
D18*
%TO.C,R36*%
X74800000Y3900000D03*
X74800000Y2250000D03*
%TD*%
D24*
%TO.C,F6*%
X109100000Y47137500D03*
X109100000Y45262500D03*
%TD*%
D17*
%TO.C,R65*%
X114700000Y30275000D03*
X114700000Y31925000D03*
%TD*%
D35*
%TO.C,Q18*%
X171650000Y33662500D03*
X173550000Y33662500D03*
X172600000Y35537500D03*
%TD*%
D17*
%TO.C,R59*%
X123800000Y30275000D03*
X123800000Y31925000D03*
%TD*%
D11*
%TO.C,R155*%
X166875000Y6900000D03*
X168525000Y6900000D03*
%TD*%
D21*
%TO.C,JP1*%
X28800000Y29500000D03*
X30100000Y29500000D03*
X31400000Y29500000D03*
%TD*%
D11*
%TO.C,R42*%
X108875000Y7900000D03*
X110525000Y7900000D03*
%TD*%
D24*
%TO.C,F25*%
X142700000Y47137500D03*
X142700000Y45262500D03*
%TD*%
%TO.C,F1*%
X130000000Y47137500D03*
X130000000Y45262500D03*
%TD*%
D20*
%TO.C,C26*%
X123525000Y5500000D03*
X121975000Y5500000D03*
%TD*%
D35*
%TO.C,Q26*%
X136350000Y33662500D03*
X138250000Y33662500D03*
X137300000Y35537500D03*
%TD*%
D19*
%TO.C,R27*%
X28250000Y52000000D03*
X26600000Y52000000D03*
%TD*%
D32*
%TO.C,C67*%
X187000000Y14800000D03*
X187000000Y13250000D03*
%TD*%
D22*
%TO.C,C85*%
X151800000Y28800000D03*
X153350000Y28800000D03*
%TD*%
D38*
%TO.C,J11*%
X83600000Y51000000D03*
X86100000Y51000000D03*
X88600000Y51000000D03*
X91100000Y51000000D03*
X93600000Y51000000D03*
X96100000Y51000000D03*
D39*
X98600000Y51000000D03*
%TD*%
D22*
%TO.C,C20*%
X21900000Y29500000D03*
X23450000Y29500000D03*
%TD*%
D30*
%TO.C,TH5*%
X80395000Y19500000D03*
D31*
X82295000Y19500000D03*
%TD*%
D26*
%TO.C,R82*%
X86700000Y43462500D03*
X86700000Y37537500D03*
%TD*%
D17*
%TO.C,R87*%
X81200000Y30275000D03*
X81200000Y31925000D03*
%TD*%
D29*
%TO.C,TP5*%
X179600000Y19500000D03*
%TD*%
D40*
%TO.C,D1*%
X31387500Y52000000D03*
X29812500Y52000000D03*
%TD*%
D17*
%TO.C,R131*%
X151700000Y30275000D03*
X151700000Y31925000D03*
%TD*%
%TO.C,R66*%
X112500000Y30275000D03*
X112500000Y31925000D03*
%TD*%
%TO.C,R129*%
X153900000Y30275000D03*
X153900000Y31925000D03*
%TD*%
D35*
%TO.C,Q7*%
X103650000Y33662500D03*
X105550000Y33662500D03*
X104600000Y35537500D03*
%TD*%
D17*
%TO.C,R140*%
X138400000Y30275000D03*
X138400000Y31925000D03*
%TD*%
D25*
%TO.C,C32*%
X65700000Y30225000D03*
X65700000Y31775000D03*
%TD*%
D23*
%TO.C,D29*%
X173800000Y27000000D03*
X171300000Y27000000D03*
%TD*%
D35*
%TO.C,Q4*%
X117150000Y33662500D03*
X119050000Y33662500D03*
X118100000Y35537500D03*
%TD*%
D18*
%TO.C,R46*%
X146600000Y3550000D03*
X146600000Y1900000D03*
%TD*%
D35*
%TO.C,Q23*%
X149650000Y33662500D03*
X151550000Y33662500D03*
X150600000Y35537500D03*
%TD*%
D20*
%TO.C,C8*%
X145375000Y14500000D03*
X143825000Y14500000D03*
%TD*%
D35*
%TO.C,Q10*%
X90150000Y33662500D03*
X92050000Y33662500D03*
X91100000Y35537500D03*
%TD*%
D20*
%TO.C,C74*%
X171075000Y3700000D03*
X169525000Y3700000D03*
%TD*%
D24*
%TO.C,F9*%
X95600000Y47137500D03*
X95600000Y45262500D03*
%TD*%
D17*
%TO.C,R134*%
X147300000Y30275000D03*
X147300000Y31925000D03*
%TD*%
D27*
%TO.C,U3*%
X24308500Y31099999D03*
D28*
X17552100Y33400000D03*
D27*
X24308500Y35700001D03*
%TD*%
D20*
%TO.C,C6*%
X145375000Y10700000D03*
X143825000Y10700000D03*
%TD*%
D26*
%TO.C,R73*%
X100100000Y43462500D03*
X100100000Y37537500D03*
%TD*%
%TO.C,R124*%
X159400000Y43462500D03*
X159400000Y37537500D03*
%TD*%
D41*
%TO.C,J6*%
X195700000Y15900000D03*
D42*
X195700000Y11940000D03*
%TD*%
D20*
%TO.C,C21*%
X26675000Y45600000D03*
X25125000Y45600000D03*
%TD*%
D23*
%TO.C,D30*%
X169400000Y27000000D03*
X166900000Y27000000D03*
%TD*%
D43*
%TO.C,D9*%
X117200000Y20187500D03*
X117200000Y18612500D03*
%TD*%
D18*
%TO.C,R37*%
X74800000Y6900000D03*
X74800000Y5250000D03*
%TD*%
D17*
%TO.C,R96*%
X155300000Y17875000D03*
X155300000Y19525000D03*
%TD*%
%TO.C,R95*%
X159200000Y6462500D03*
X159200000Y8112500D03*
%TD*%
D18*
%TO.C,R39*%
X67400000Y31825000D03*
X67400000Y30175000D03*
%TD*%
D24*
%TO.C,F16*%
X181400000Y47137500D03*
X181400000Y45262500D03*
%TD*%
D17*
%TO.C,R81*%
X90000000Y30275000D03*
X90000000Y31925000D03*
%TD*%
D44*
%TO.C,Q1*%
X124600000Y11900000D03*
X124600000Y14200000D03*
X124600000Y16500000D03*
D45*
X118300000Y14200000D03*
%TD*%
D29*
%TO.C,TP6*%
X136800000Y21400000D03*
%TD*%
D19*
%TO.C,R6*%
X78425000Y17300000D03*
X76775000Y17300000D03*
%TD*%
D43*
%TO.C,D4*%
X67400000Y38675000D03*
X67400000Y37100000D03*
%TD*%
D17*
%TO.C,R114*%
X175900000Y30275000D03*
X175900000Y31925000D03*
%TD*%
%TO.C,R113*%
X178100000Y30275000D03*
X178100000Y31925000D03*
%TD*%
D32*
%TO.C,C63*%
X171700000Y21675000D03*
X171700000Y20125000D03*
%TD*%
D11*
%TO.C,R35*%
X70075000Y31437500D03*
X71725000Y31437500D03*
%TD*%
D17*
%TO.C,R60*%
X121500000Y30275000D03*
X121500000Y31925000D03*
%TD*%
D18*
%TO.C,TH6*%
X163800000Y51825000D03*
X163800000Y50175000D03*
%TD*%
D46*
%TO.C,JP4*%
X15200000Y39750000D03*
D47*
X15200000Y41050000D03*
%TD*%
D20*
%TO.C,C30*%
X77875000Y4600000D03*
X76325000Y4600000D03*
%TD*%
D24*
%TO.C,F12*%
X82225000Y47137500D03*
X82225000Y45262500D03*
%TD*%
D23*
%TO.C,D19*%
X87800000Y27000000D03*
X85300000Y27000000D03*
%TD*%
D33*
%TO.C,TR7*%
X189120000Y1860000D03*
X189120000Y4400000D03*
X189120000Y6940000D03*
X173480000Y6940000D03*
X173480000Y4400000D03*
X173480000Y1860000D03*
%TD*%
D26*
%TO.C,R61*%
X118100000Y43462500D03*
X118100000Y37537500D03*
%TD*%
D32*
%TO.C,C27*%
X31700000Y48750000D03*
X31700000Y47200000D03*
%TD*%
D18*
%TO.C,R97*%
X110500000Y6425000D03*
X110500000Y4775000D03*
%TD*%
D22*
%TO.C,C53*%
X119300000Y28800000D03*
X120850000Y28800000D03*
%TD*%
D23*
%TO.C,D17*%
X96800000Y27000000D03*
X94300000Y27000000D03*
%TD*%
D17*
%TO.C,R75*%
X99000000Y30275000D03*
X99000000Y31925000D03*
%TD*%
D24*
%TO.C,F4*%
X118100000Y47137500D03*
X118100000Y45262500D03*
%TD*%
D23*
%TO.C,D16*%
X101300000Y27000000D03*
X98800000Y27000000D03*
%TD*%
D38*
%TO.C,J10*%
X110600000Y51000000D03*
X113100000Y51000000D03*
X115600000Y51000000D03*
X118100000Y51000000D03*
X120600000Y51000000D03*
X123100000Y51000000D03*
D39*
X125600000Y51000000D03*
%TD*%
D17*
%TO.C,R135*%
X145050000Y30275000D03*
X145050000Y31925000D03*
%TD*%
D34*
%TO.C,D24*%
X190050000Y24600000D03*
X187250000Y24600000D03*
%TD*%
D17*
%TO.C,R78*%
X94500000Y30275000D03*
X94500000Y31925000D03*
%TD*%
D18*
%TO.C,R29*%
X106500000Y3725000D03*
X106500000Y2075000D03*
%TD*%
D24*
%TO.C,F22*%
X155000000Y47137500D03*
X155000000Y45262500D03*
%TD*%
%TO.C,F3*%
X122600000Y47137500D03*
X122600000Y45262500D03*
%TD*%
D17*
%TO.C,R77*%
X96800000Y30275000D03*
X96800000Y31925000D03*
%TD*%
%TO.C,R62*%
X119300000Y30275000D03*
X119300000Y31925000D03*
%TD*%
D36*
%TO.C,U12*%
X169550000Y20412500D03*
X169050000Y20412500D03*
X168550000Y20412500D03*
X168050000Y20412500D03*
X167550000Y20412500D03*
X167050000Y20412500D03*
X166550000Y20412500D03*
X166050000Y20412500D03*
X165550000Y20412500D03*
X165050000Y20412500D03*
X164550000Y20412500D03*
X164050000Y20412500D03*
X163550000Y20412500D03*
X163050000Y20412500D03*
X162550000Y20412500D03*
X162050000Y20412500D03*
X161550000Y20412500D03*
X161050000Y20412500D03*
X160550000Y20412500D03*
X160050000Y20412500D03*
X159550000Y20412500D03*
X159050000Y20412500D03*
X158550000Y20412500D03*
X158050000Y20412500D03*
X158050000Y12987500D03*
X158550000Y12987500D03*
X159050000Y12987500D03*
X159550000Y12987500D03*
X160050000Y12987500D03*
X160550000Y12987500D03*
X161050000Y12987500D03*
X161550000Y12987500D03*
X162050000Y12987500D03*
X162550000Y12987500D03*
X163050000Y12987500D03*
X163550000Y12987500D03*
X164050000Y12987500D03*
X164550000Y12987500D03*
X165050000Y12987500D03*
X165550000Y12987500D03*
X166050000Y12987500D03*
X166550000Y12987500D03*
X167050000Y12987500D03*
X167550000Y12987500D03*
X168050000Y12987500D03*
X168550000Y12987500D03*
X169050000Y12987500D03*
X169550000Y12987500D03*
%TD*%
D35*
%TO.C,Q13*%
X76775000Y33662500D03*
X78675000Y33662500D03*
X77725000Y35537500D03*
%TD*%
D18*
%TO.C,R1*%
X119700000Y3625000D03*
X119700000Y1975000D03*
%TD*%
D35*
%TO.C,Q22*%
X154050000Y33662500D03*
X155950000Y33662500D03*
X155000000Y35537500D03*
%TD*%
D17*
%TO.C,R107*%
X187000000Y30275000D03*
X187000000Y31925000D03*
%TD*%
%TO.C,R84*%
X85500000Y30275000D03*
X85500000Y31925000D03*
%TD*%
D23*
%TO.C,D33*%
X156200000Y27000000D03*
X153700000Y27000000D03*
%TD*%
D17*
%TO.C,R108*%
X184700000Y30275000D03*
X184700000Y31925000D03*
%TD*%
D25*
%TO.C,C64*%
X152100000Y16925000D03*
X152100000Y18475000D03*
%TD*%
%TO.C,C48*%
X20300000Y44125000D03*
X20300000Y45675000D03*
%TD*%
D26*
%TO.C,R130*%
X150600000Y43462500D03*
X150600000Y37537500D03*
%TD*%
D24*
%TO.C,F11*%
X86700000Y47137500D03*
X86700000Y45262500D03*
%TD*%
D22*
%TO.C,C45*%
X143425000Y4500000D03*
X144975000Y4500000D03*
%TD*%
D26*
%TO.C,R115*%
X172600000Y43462500D03*
X172600000Y37537500D03*
%TD*%
D20*
%TO.C,C3*%
X85729962Y15300000D03*
X84179962Y15300000D03*
%TD*%
D23*
%TO.C,D18*%
X92300000Y27000000D03*
X89800000Y27000000D03*
%TD*%
D18*
%TO.C,R33*%
X67400000Y35412500D03*
X67400000Y33762500D03*
%TD*%
D17*
%TO.C,R141*%
X136200000Y30275000D03*
X136200000Y31925000D03*
%TD*%
D19*
%TO.C,R41*%
X122400000Y23400000D03*
X120750000Y23400000D03*
%TD*%
D35*
%TO.C,Q15*%
X184850000Y33662500D03*
X186750000Y33662500D03*
X185800000Y35537500D03*
%TD*%
D24*
%TO.C,F13*%
X77725000Y47137500D03*
X77725000Y45262500D03*
%TD*%
D30*
%TO.C,TH4*%
X80395000Y17300000D03*
D31*
X82295000Y17300000D03*
%TD*%
D19*
%TO.C,FB2*%
X190200000Y33650000D03*
X188550000Y33650000D03*
%TD*%
D26*
%TO.C,R139*%
X137300000Y43462500D03*
X137300000Y37537500D03*
%TD*%
D38*
%TO.C,J13*%
X143100000Y51000000D03*
X145600000Y51000000D03*
X148100000Y51000000D03*
X150600000Y51000000D03*
X153100000Y51000000D03*
X155600000Y51000000D03*
D39*
X158100000Y51000000D03*
%TD*%
D23*
%TO.C,D10*%
X128225000Y27000000D03*
X125725000Y27000000D03*
%TD*%
D24*
%TO.C,F26*%
X137300000Y47137500D03*
X137300000Y45262500D03*
%TD*%
D22*
%TO.C,C58*%
X96800000Y28800000D03*
X98350000Y28800000D03*
%TD*%
D48*
%TO.C,U2*%
X27975000Y38995000D03*
X27975000Y40265000D03*
X27975000Y41535000D03*
X27975000Y42805000D03*
X23025000Y42805000D03*
X23025000Y41535000D03*
X23025000Y40265000D03*
X23025000Y38995000D03*
%TD*%
D49*
%TO.C,U9*%
X65725000Y28400000D03*
X65725000Y27900000D03*
X65725000Y27400000D03*
X65725000Y26900000D03*
X65725000Y26400000D03*
X65725000Y25900000D03*
X65725000Y25400000D03*
X65725000Y24900000D03*
X70025000Y24900000D03*
X70025000Y25400000D03*
X70025000Y25900000D03*
X70025000Y26400000D03*
X70025000Y26900000D03*
X70025000Y27400000D03*
X70025000Y27900000D03*
X70025000Y28400000D03*
%TD*%
D26*
%TO.C,R55*%
X127300000Y43462500D03*
X127300000Y37537500D03*
%TD*%
%TO.C,R70*%
X104600000Y43462500D03*
X104600000Y37537500D03*
%TD*%
D23*
%TO.C,D20*%
X83325000Y27000000D03*
X80825000Y27000000D03*
%TD*%
D17*
%TO.C,R68*%
X110200000Y30275000D03*
X110200000Y31925000D03*
%TD*%
D35*
%TO.C,Q16*%
X180450000Y33662500D03*
X182350000Y33662500D03*
X181400000Y35537500D03*
%TD*%
D11*
%TO.C,R149*%
X9575000Y14700000D03*
X11225000Y14700000D03*
%TD*%
D17*
%TO.C,R125*%
X160500000Y30275000D03*
X160500000Y31925000D03*
%TD*%
D24*
%TO.C,F20*%
X163800000Y47137500D03*
X163800000Y45262500D03*
%TD*%
D22*
%TO.C,C73*%
X168400000Y5300000D03*
X169950000Y5300000D03*
%TD*%
D19*
%TO.C,R5*%
X78425000Y15100000D03*
X76775000Y15100000D03*
%TD*%
D22*
%TO.C,C54*%
X114800000Y28800000D03*
X116350000Y28800000D03*
%TD*%
%TO.C,C77*%
X187000000Y28800000D03*
X188550000Y28800000D03*
%TD*%
D26*
%TO.C,R85*%
X82225000Y43462500D03*
X82225000Y37537500D03*
%TD*%
D23*
%TO.C,D34*%
X151800000Y27000000D03*
X149300000Y27000000D03*
%TD*%
D17*
%TO.C,R111*%
X180300000Y30275000D03*
X180300000Y31925000D03*
%TD*%
D23*
%TO.C,D21*%
X79150000Y27000000D03*
X76650000Y27000000D03*
%TD*%
D44*
%TO.C,Q14*%
X184750000Y12500000D03*
X184750000Y14800000D03*
X184750000Y17100000D03*
D45*
X178450000Y14800000D03*
%TD*%
D26*
%TO.C,R106*%
X185800000Y43462500D03*
X185800000Y37537500D03*
%TD*%
D22*
%TO.C,C87*%
X142950000Y28800000D03*
X144500000Y28800000D03*
%TD*%
D24*
%TO.C,F24*%
X146150000Y47137500D03*
X146150000Y45262500D03*
%TD*%
D50*
%TO.C,J23*%
X4800000Y30000000D03*
D13*
X4800000Y27500000D03*
X4800000Y25000000D03*
X4800000Y22500000D03*
%TD*%
D21*
%TO.C,JP2*%
X28800000Y32100000D03*
X30100000Y32100000D03*
X31400000Y32100000D03*
%TD*%
D11*
%TO.C,R3*%
X76775000Y11700000D03*
X78425000Y11700000D03*
%TD*%
D38*
%TO.C,J12*%
X169500000Y51000000D03*
X172000000Y51000000D03*
X174500000Y51000000D03*
X177000000Y51000000D03*
X179500000Y51000000D03*
X182000000Y51000000D03*
D39*
X184500000Y51000000D03*
%TD*%
D11*
%TO.C,R8*%
X136475000Y10400000D03*
X138125000Y10400000D03*
%TD*%
D17*
%TO.C,R119*%
X169300000Y30275000D03*
X169300000Y31925000D03*
%TD*%
D19*
%TO.C,R38*%
X71725000Y29850000D03*
X70075000Y29850000D03*
%TD*%
D23*
%TO.C,D31*%
X165000000Y27000000D03*
X162500000Y27000000D03*
%TD*%
%TO.C,D12*%
X119300000Y27000000D03*
X116800000Y27000000D03*
%TD*%
D19*
%TO.C,R43*%
X105525000Y8900000D03*
X103875000Y8900000D03*
%TD*%
D20*
%TO.C,C1*%
X85729962Y12100000D03*
X84179962Y12100000D03*
%TD*%
D17*
%TO.C,R116*%
X173700000Y30275000D03*
X173700000Y31925000D03*
%TD*%
D30*
%TO.C,TH10*%
X139995000Y19200000D03*
D31*
X141895000Y19200000D03*
%TD*%
D17*
%TO.C,R120*%
X167100000Y30275000D03*
X167100000Y31925000D03*
%TD*%
D35*
%TO.C,Q6*%
X108150000Y33662500D03*
X110050000Y33662500D03*
X109100000Y35537500D03*
%TD*%
D24*
%TO.C,F17*%
X177000000Y47137500D03*
X177000000Y45262500D03*
%TD*%
D17*
%TO.C,R86*%
X83325000Y30275000D03*
X83325000Y31925000D03*
%TD*%
D18*
%TO.C,R34*%
X30100000Y46300000D03*
X30100000Y44650000D03*
%TD*%
D20*
%TO.C,C47*%
X26650000Y47300000D03*
X25100000Y47300000D03*
%TD*%
D19*
%TO.C,R12*%
X138130000Y19400000D03*
X136480000Y19400000D03*
%TD*%
D35*
%TO.C,Q21*%
X158450000Y33662500D03*
X160350000Y33662500D03*
X159400000Y35537500D03*
%TD*%
D17*
%TO.C,R71*%
X105700000Y30275000D03*
X105700000Y31925000D03*
%TD*%
D25*
%TO.C,C38*%
X91800000Y16925000D03*
X91800000Y18475000D03*
%TD*%
D33*
%TO.C,TR1*%
X101100000Y2060000D03*
X101100000Y4600000D03*
X101100000Y7140000D03*
X85460000Y7140000D03*
X85460000Y4600000D03*
X85460000Y2060000D03*
%TD*%
D26*
%TO.C,R76*%
X95600000Y43462500D03*
X95600000Y37537500D03*
%TD*%
%TO.C,R127*%
X155000000Y43462500D03*
X155000000Y37537500D03*
%TD*%
D23*
%TO.C,D28*%
X178200000Y27000000D03*
X175700000Y27000000D03*
%TD*%
D12*
%TO.C,J5*%
X3000000Y35900000D03*
D13*
X3000000Y38400000D03*
X3000000Y40900000D03*
X3000000Y43400000D03*
%TD*%
D20*
%TO.C,C4*%
X85729962Y17487500D03*
X84179962Y17487500D03*
%TD*%
D25*
%TO.C,C49*%
X18700000Y44125000D03*
X18700000Y45675000D03*
%TD*%
D26*
%TO.C,R79*%
X91100000Y43462500D03*
X91100000Y37537500D03*
%TD*%
D25*
%TO.C,C28*%
X31700000Y43050000D03*
X31700000Y44600000D03*
%TD*%
D22*
%TO.C,C79*%
X178200000Y28800000D03*
X179750000Y28800000D03*
%TD*%
D30*
%TO.C,TH2*%
X80395000Y12900000D03*
D31*
X82295000Y12900000D03*
%TD*%
D24*
%TO.C,F18*%
X172600000Y47137500D03*
X172600000Y45262500D03*
%TD*%
D22*
%TO.C,C78*%
X182600000Y28800000D03*
X184150000Y28800000D03*
%TD*%
%TO.C,C81*%
X169400000Y28800000D03*
X170950000Y28800000D03*
%TD*%
D23*
%TO.C,D35*%
X147350000Y27000000D03*
X144850000Y27000000D03*
%TD*%
D24*
%TO.C,F10*%
X91100000Y47137500D03*
X91100000Y45262500D03*
%TD*%
M02*
