M48
; DRILL file {KiCad 8.0.4} date 2024-09-13T16:34:39+0900
; FORMAT={-:-/ absolute / metric / decimal}
; #@! TF.CreationDate,2024-09-13T16:34:39+09:00
; #@! TF.GenerationSoftware,Kicad,Pcbnew,8.0.4
; #@! TF.FileFunction,MixedPlating,1,2
FMAT,2
METRIC
; #@! TA.AperFunction,Plated,PTH,ViaDrill
T1C0.300
; #@! TA.AperFunction,Plated,PTH,ViaDrill
T2C0.400
; #@! TA.AperFunction,Plated,PTH,ComponentDrill
T3C0.700
; #@! TA.AperFunction,Plated,PTH,ComponentDrill
T4C0.950
; #@! TA.AperFunction,Plated,PTH,ComponentDrill
T5C1.700
; #@! TA.AperFunction,NonPlated,NPTH,ComponentDrill
T6C3.200
%
G90
G05
T1
X204.05Y28.758
X208.75Y28.758
X213.55Y28.758
X218.15Y28.758
X222.4Y20.471
X222.4Y13.071
X222.85Y28.758
X227.55Y28.758
X232.15Y28.758
X236.95Y28.758
X241.55Y28.758
X246.15Y28.758
X250.85Y28.758
X266.975Y28.9
X271.575Y28.9
X275.9Y19.2
X275.9Y10.2
X276.275Y28.9
X280.975Y28.9
X285.675Y28.9
X290.275Y28.9
X294.975Y28.9
X299.575Y28.9
X304.275Y28.9
X308.875Y28.9
X313.575Y28.9
T2
X195.7Y42.0
X195.7Y21.7
X195.75Y37.95
X195.75Y33.95
X195.75Y29.95
X195.75Y25.95
X198.0Y42.0
X198.0Y40.0
X198.0Y37.9
X198.0Y33.958
X198.0Y29.958
X198.0Y25.958
X198.0Y24.0
X198.0Y22.0
X199.25Y28.858
X199.25Y25.858
X200.0Y42.0
X200.0Y40.0
X200.0Y24.0
X200.0Y22.0
X202.0Y42.0
X202.0Y40.0
X202.0Y24.0
X202.0Y22.0
X203.6Y54.2
X204.0Y24.0
X204.0Y22.0
X206.0Y24.0
X208.0Y24.0
X216.0Y12.0
X216.0Y10.0
X216.25Y21.05
X217.9Y21.05
X218.0Y12.0
X218.0Y10.0
X218.0Y8.0
X218.0Y6.0
X218.0Y4.0
X218.0Y2.0
X219.5Y21.05
X220.0Y10.0
X221.0Y19.775
X222.0Y12.0
X223.0Y6.0
X225.0Y6.0
X225.0Y3.0
X225.8Y14.408
X225.8Y11.7
X227.0Y6.0
X227.25Y51.858
X229.025Y18.775
X229.25Y49.708
X231.25Y51.858
X232.05Y18.758
X233.25Y53.858
X234.0Y6.0
X234.0Y2.0
X236.0Y6.0
X236.0Y2.0
X236.05Y18.758
X236.75Y8.358
X237.25Y53.858
X238.0Y6.0
X238.0Y2.0
X240.05Y18.758
X240.05Y1.958
X241.25Y53.858
X242.05Y18.758
X242.05Y1.958
X245.25Y53.858
X249.25Y53.858
X250.05Y23.958
X250.05Y21.958
X252.05Y21.958
X252.05Y19.958
X253.0Y7.0
X253.0Y5.0
X253.0Y3.0
X253.0Y1.0
X253.25Y53.858
X254.05Y23.958
X254.05Y21.958
X254.05Y19.958
X254.05Y16.958
X254.05Y14.958
X254.05Y9.5
X255.05Y29.958
X255.05Y27.958
X256.05Y54.0
X256.05Y50.0
X256.05Y45.958
X256.05Y41.958
X256.05Y37.958
X256.05Y33.958
X256.05Y11.958
X256.05Y9.5
X259.2Y9.5
X260.0Y54.042
X261.0Y9.5
X261.975Y42.0
X261.975Y40.0
X261.975Y29.0
X261.975Y26.0
X262.0Y48.042
X262.0Y46.042
X262.0Y22.0
X263.0Y9.5
X263.0Y7.0
X263.0Y5.0
X263.0Y3.0
X263.0Y1.0
X263.975Y42.0
X263.975Y40.0
X264.0Y50.042
X266.0Y48.042
X266.0Y46.042
X266.775Y22.0
X268.0Y6.0
X268.0Y3.0
X268.0Y0.5
X270.0Y8.5
X270.0Y6.0
X270.0Y3.0
X270.0Y0.5
X270.775Y22.0
X272.0Y10.0
X272.0Y8.5
X274.0Y10.0
X274.0Y8.5
X274.0Y6.0
X274.0Y3.0
X274.775Y22.0
X275.5Y4.5
X276.0Y8.0
X278.0Y8.0
X278.0Y6.0
X278.0Y2.0
X279.299Y11.476
X280.0Y8.0
X280.0Y6.0
X280.0Y2.0
X282.0Y16.0
X282.0Y2.0
X284.0Y52.042
X284.0Y2.0
X286.0Y16.0
X286.0Y14.0
X286.0Y0.5
X288.0Y54.042
X288.0Y52.042
X288.0Y50.042
X289.975Y49.85
X290.0Y54.042
X290.0Y52.042
X290.0Y16.0
X290.7Y12.342
X290.8Y4.5
X291.0Y0.5
X291.975Y18.0
X292.2Y10.342
X294.0Y54.042
X294.0Y19.0
X296.0Y19.0
X296.0Y7.5
X296.0Y6.0
X296.0Y4.0
X296.0Y2.0
X296.0Y0.5
X298.0Y54.042
X298.0Y19.0
X300.0Y19.0
X301.975Y21.0
X302.0Y54.042
X304.7Y21.342
X306.0Y54.042
X310.0Y54.042
X310.0Y22.042
X310.0Y20.042
X312.0Y20.042
X314.0Y22.042
X314.0Y20.042
X316.0Y22.042
X316.0Y20.042
X317.475Y30.5
X317.475Y27.5
X318.0Y22.042
X318.0Y20.042
X319.4Y46.05
X319.4Y38.125
X319.4Y33.925
X319.45Y42.6
T3
X209.545Y19.9
X209.545Y17.8
X209.545Y13.1
X209.55Y15.7
X211.445Y19.9
X211.445Y17.8
X211.445Y13.1
X211.45Y15.7
X264.295Y17.8
X264.295Y15.6
X264.3Y13.5
X264.3Y11.2
X266.195Y17.8
X266.195Y15.6
X266.2Y13.5
X266.2Y11.2
T4
X207.2Y50.958
X209.7Y50.958
X212.2Y50.958
X214.7Y50.958
X217.2Y50.958
X219.7Y50.958
X222.2Y50.958
X235.25Y50.958
X237.75Y50.958
X240.25Y50.958
X242.75Y50.958
X245.25Y50.958
X247.75Y50.958
X250.25Y50.958
X265.4Y51.042
X267.9Y51.042
X270.4Y51.042
X272.9Y51.042
X275.4Y51.042
X277.9Y51.042
X280.4Y51.042
X293.15Y51.075
X295.65Y51.075
X298.15Y51.075
X300.65Y51.075
X303.15Y51.075
X305.65Y51.075
X308.15Y51.075
T5
X199.3Y15.902
X199.3Y11.942
X315.75Y16.049
X315.75Y12.089
T6
X199.0Y4.0
X199.15Y50.95
X315.9Y4.092
X316.0Y51.092
M30
