%TF.GenerationSoftware,KiCad,Pcbnew,8.0.4*%
%TF.CreationDate,2024-09-13T16:34:39+09:00*%
%TF.ProjectId,LTC6811_ESP32_Slaves_V5,4c544336-3831-4315-9f45-535033325f53,rev?*%
%TF.SameCoordinates,Original*%
%TF.FileFunction,Soldermask,Top*%
%TF.FilePolarity,Negative*%
%FSLAX46Y46*%
G04 Gerber Fmt 4.6, Leading zero omitted, Abs format (unit mm)*
G04 Created by KiCad (PCBNEW 8.0.4) date 2024-09-13 16:34:39*
%MOMM*%
%LPD*%
G01*
G04 APERTURE LIST*
G04 Aperture macros list*
%AMRoundRect*
0 Rectangle with rounded corners*
0 $1 Rounding radius*
0 $2 $3 $4 $5 $6 $7 $8 $9 X,Y pos of 4 corners*
0 Add a 4 corners polygon primitive as box body*
4,1,4,$2,$3,$4,$5,$6,$7,$8,$9,$2,$3,0*
0 Add four circle primitives for the rounded corners*
1,1,$1+$1,$2,$3*
1,1,$1+$1,$4,$5*
1,1,$1+$1,$6,$7*
1,1,$1+$1,$8,$9*
0 Add four rect primitives between the rounded corners*
20,1,$1+$1,$2,$3,$4,$5,0*
20,1,$1+$1,$4,$5,$6,$7,0*
20,1,$1+$1,$6,$7,$8,$9,0*
20,1,$1+$1,$8,$9,$2,$3,0*%
G04 Aperture macros list end*
%ADD10RoundRect,0.225000X0.225000X0.375000X-0.225000X0.375000X-0.225000X-0.375000X0.225000X-0.375000X0*%
%ADD11RoundRect,0.200000X0.275000X-0.200000X0.275000X0.200000X-0.275000X0.200000X-0.275000X-0.200000X0*%
%ADD12C,1.000000*%
%ADD13RoundRect,0.150000X0.150000X-0.587500X0.150000X0.587500X-0.150000X0.587500X-0.150000X-0.587500X0*%
%ADD14RoundRect,0.250000X0.250000X0.250000X-0.250000X0.250000X-0.250000X-0.250000X0.250000X-0.250000X0*%
%ADD15RoundRect,0.243750X-0.456250X0.243750X-0.456250X-0.243750X0.456250X-0.243750X0.456250X0.243750X0*%
%ADD16RoundRect,0.250001X-1.099999X1.099999X-1.099999X-1.099999X1.099999X-1.099999X1.099999X1.099999X0*%
%ADD17C,2.700000*%
%ADD18RoundRect,0.225000X-0.225000X-0.250000X0.225000X-0.250000X0.225000X0.250000X-0.225000X0.250000X0*%
%ADD19C,1.400000*%
%ADD20O,1.400000X1.400000*%
%ADD21RoundRect,0.250000X-1.425000X0.362500X-1.425000X-0.362500X1.425000X-0.362500X1.425000X0.362500X0*%
%ADD22O,1.700000X1.950000*%
%ADD23RoundRect,0.250000X0.600000X0.725000X-0.600000X0.725000X-0.600000X-0.725000X0.600000X-0.725000X0*%
%ADD24RoundRect,0.200000X-0.200000X-0.275000X0.200000X-0.275000X0.200000X0.275000X-0.200000X0.275000X0*%
%ADD25C,3.200000*%
%ADD26RoundRect,0.225000X0.225000X0.250000X-0.225000X0.250000X-0.225000X-0.250000X0.225000X-0.250000X0*%
%ADD27RoundRect,0.200000X-0.275000X0.200000X-0.275000X-0.200000X0.275000X-0.200000X0.275000X0.200000X0*%
%ADD28RoundRect,0.200000X0.200000X0.275000X-0.200000X0.275000X-0.200000X-0.275000X0.200000X-0.275000X0*%
%ADD29RoundRect,0.225000X-0.250000X0.225000X-0.250000X-0.225000X0.250000X-0.225000X0.250000X0.225000X0*%
%ADD30RoundRect,0.075000X-0.075000X0.662500X-0.075000X-0.662500X0.075000X-0.662500X0.075000X0.662500X0*%
%ADD31RoundRect,0.225000X0.250000X-0.225000X0.250000X0.225000X-0.250000X0.225000X-0.250000X-0.225000X0*%
%ADD32RoundRect,0.225000X-0.375000X0.225000X-0.375000X-0.225000X0.375000X-0.225000X0.375000X0.225000X0*%
%ADD33RoundRect,0.250000X0.300000X0.300000X-0.300000X0.300000X-0.300000X-0.300000X0.300000X-0.300000X0*%
%ADD34RoundRect,0.218750X-0.256250X0.218750X-0.256250X-0.218750X0.256250X-0.218750X0.256250X0.218750X0*%
%ADD35RoundRect,0.250000X-0.300000X0.300000X-0.300000X-0.300000X0.300000X-0.300000X0.300000X0.300000X0*%
%ADD36RoundRect,0.218750X0.256250X-0.218750X0.256250X0.218750X-0.256250X0.218750X-0.256250X-0.218750X0*%
%ADD37RoundRect,0.250001X1.099999X-1.099999X1.099999X1.099999X-1.099999X1.099999X-1.099999X-1.099999X0*%
%ADD38R,1.950000X1.020000*%
%ADD39RoundRect,0.375000X0.625000X0.375000X-0.625000X0.375000X-0.625000X-0.375000X0.625000X-0.375000X0*%
%ADD40RoundRect,0.500000X0.500000X1.400000X-0.500000X1.400000X-0.500000X-1.400000X0.500000X-1.400000X0*%
G04 APERTURE END LIST*
D10*
%TO.C,D39*%
X256150000Y21100000D03*
X252850000Y21100000D03*
%TD*%
D11*
%TO.C,R189*%
X204050000Y30245572D03*
X204050000Y31895572D03*
%TD*%
D12*
%TO.C,TP7*%
X237400000Y17300000D03*
%TD*%
D13*
%TO.C,Q36*%
X213750000Y33633072D03*
X215650000Y33633072D03*
X214700000Y35508072D03*
%TD*%
D14*
%TO.C,D43*%
X248450000Y26958072D03*
X245950000Y26958072D03*
%TD*%
D13*
%TO.C,Q50*%
X271800000Y33762500D03*
X273700000Y33762500D03*
X272750000Y35637500D03*
%TD*%
D15*
%TO.C,F51*%
X268100000Y47237500D03*
X268100000Y45362500D03*
%TD*%
D16*
%TO.C,J9*%
X315750000Y16049428D03*
D17*
X315750000Y12089428D03*
%TD*%
D18*
%TO.C,C72*%
X272725000Y4500000D03*
X274275000Y4500000D03*
%TD*%
D13*
%TO.C,Q39*%
X199700000Y33620572D03*
X201600000Y33620572D03*
X200650000Y35495572D03*
%TD*%
D11*
%TO.C,R225*%
X290250000Y30375000D03*
X290250000Y32025000D03*
%TD*%
D18*
%TO.C,C132*%
X301800000Y28900000D03*
X303350000Y28900000D03*
%TD*%
D19*
%TO.C,TH19*%
X264295000Y15600000D03*
D20*
X266195000Y15600000D03*
%TD*%
D21*
%TO.C,R211*%
X310000000Y43562500D03*
X310000000Y37637500D03*
%TD*%
D22*
%TO.C,J15*%
X207200000Y50958072D03*
X209700000Y50958072D03*
X212200000Y50958072D03*
X214700000Y50958072D03*
X217200000Y50958072D03*
X219700000Y50958072D03*
D23*
X222200000Y50958072D03*
%TD*%
D22*
%TO.C,J14*%
X235250000Y50958072D03*
X237750000Y50958072D03*
X240250000Y50958072D03*
X242750000Y50958072D03*
X245250000Y50958072D03*
X247750000Y50958072D03*
D23*
X250250000Y50958072D03*
%TD*%
D13*
%TO.C,Q46*%
X290450000Y33762500D03*
X292350000Y33762500D03*
X291400000Y35637500D03*
%TD*%
D11*
%TO.C,R170*%
X234550000Y30245572D03*
X234550000Y31895572D03*
%TD*%
D24*
%TO.C,R18*%
X260875000Y11300000D03*
X262525000Y11300000D03*
%TD*%
D11*
%TO.C,R210*%
X313350000Y30375000D03*
X313350000Y32025000D03*
%TD*%
D13*
%TO.C,Q51*%
X267125000Y33762500D03*
X269025000Y33762500D03*
X268075000Y35637500D03*
%TD*%
D14*
%TO.C,D68*%
X269175000Y27100000D03*
X266675000Y27100000D03*
%TD*%
D25*
%TO.C,J1*%
X316000000Y51091928D03*
%TD*%
D13*
%TO.C,Q29*%
X246550000Y33633072D03*
X248450000Y33633072D03*
X247500000Y35508072D03*
%TD*%
D11*
%TO.C,R26*%
X288500000Y2116928D03*
X288500000Y3766928D03*
%TD*%
D26*
%TO.C,C18*%
X269570000Y13700000D03*
X268020000Y13700000D03*
%TD*%
D27*
%TO.C,R52*%
X271200000Y3625000D03*
X271200000Y1975000D03*
%TD*%
D15*
%TO.C,F31*%
X238100000Y47108072D03*
X238100000Y45233072D03*
%TD*%
D18*
%TO.C,C107*%
X234450000Y28758072D03*
X236000000Y28758072D03*
%TD*%
D11*
%TO.C,R233*%
X278525000Y30375000D03*
X278525000Y32025000D03*
%TD*%
D28*
%TO.C,R19*%
X262525000Y12900000D03*
X260875000Y12900000D03*
%TD*%
D21*
%TO.C,R172*%
X228700000Y43433072D03*
X228700000Y37508072D03*
%TD*%
D26*
%TO.C,C17*%
X269570000Y11600000D03*
X268020000Y11600000D03*
%TD*%
D14*
%TO.C,D50*%
X215700000Y26970572D03*
X213200000Y26970572D03*
%TD*%
D11*
%TO.C,R234*%
X276300000Y30375000D03*
X276300000Y32025000D03*
%TD*%
D29*
%TO.C,C89*%
X237050000Y21433072D03*
X237050000Y19883072D03*
%TD*%
D13*
%TO.C,Q42*%
X309050000Y33762500D03*
X310950000Y33762500D03*
X310000000Y35637500D03*
%TD*%
D18*
%TO.C,C105*%
X243775000Y28758072D03*
X245325000Y28758072D03*
%TD*%
D30*
%TO.C,U13*%
X234550000Y20512500D03*
X234050000Y20512500D03*
X233550000Y20512500D03*
X233050000Y20512500D03*
X232550000Y20512500D03*
X232050000Y20512500D03*
X231550000Y20512500D03*
X231050000Y20512500D03*
X230550000Y20512500D03*
X230050000Y20512500D03*
X229550000Y20512500D03*
X229050000Y20512500D03*
X228550000Y20512500D03*
X228050000Y20512500D03*
X227550000Y20512500D03*
X227050000Y20512500D03*
X226550000Y20512500D03*
X226050000Y20512500D03*
X225550000Y20512500D03*
X225050000Y20512500D03*
X224550000Y20512500D03*
X224050000Y20512500D03*
X223550000Y20512500D03*
X223050000Y20512500D03*
X223050000Y13087500D03*
X223550000Y13087500D03*
X224050000Y13087500D03*
X224550000Y13087500D03*
X225050000Y13087500D03*
X225550000Y13087500D03*
X226050000Y13087500D03*
X226550000Y13087500D03*
X227050000Y13087500D03*
X227550000Y13087500D03*
X228050000Y13087500D03*
X228550000Y13087500D03*
X229050000Y13087500D03*
X229550000Y13087500D03*
X230050000Y13087500D03*
X230550000Y13087500D03*
X231050000Y13087500D03*
X231550000Y13087500D03*
X232050000Y13087500D03*
X232550000Y13087500D03*
X233050000Y13087500D03*
X233550000Y13087500D03*
X234050000Y13087500D03*
X234550000Y13087500D03*
%TD*%
D31*
%TO.C,C116*%
X271100000Y17125000D03*
X271100000Y18675000D03*
%TD*%
D14*
%TO.C,D69*%
X264525000Y27100000D03*
X262025000Y27100000D03*
%TD*%
D21*
%TO.C,R229*%
X282100000Y43562500D03*
X282100000Y37637500D03*
%TD*%
D32*
%TO.C,D55*%
X314600000Y24491928D03*
X314600000Y21191928D03*
%TD*%
D21*
%TO.C,R184*%
X210000000Y43433072D03*
X210000000Y37508072D03*
%TD*%
D24*
%TO.C,R100*%
X234150000Y8700000D03*
X235800000Y8700000D03*
%TD*%
D11*
%TO.C,R186*%
X208800000Y30245572D03*
X208800000Y31895572D03*
%TD*%
D27*
%TO.C,R195*%
X229100000Y6925000D03*
X229100000Y5275000D03*
%TD*%
D14*
%TO.C,D62*%
X297150000Y27100000D03*
X294650000Y27100000D03*
%TD*%
D33*
%TO.C,D40*%
X256000000Y18700000D03*
X253200000Y18700000D03*
%TD*%
D21*
%TO.C,R157*%
X252100000Y43420572D03*
X252100000Y37495572D03*
%TD*%
D18*
%TO.C,C114*%
X201650000Y28758072D03*
X203200000Y28758072D03*
%TD*%
D11*
%TO.C,R168*%
X237000000Y30245572D03*
X237000000Y31895572D03*
%TD*%
D15*
%TO.C,F50*%
X272750000Y47237500D03*
X272750000Y45362500D03*
%TD*%
D21*
%TO.C,R241*%
X263425000Y43562500D03*
X263425000Y37637500D03*
%TD*%
D11*
%TO.C,R25*%
X288500000Y5250000D03*
X288500000Y6900000D03*
%TD*%
D14*
%TO.C,D45*%
X239100000Y26970572D03*
X236600000Y26970572D03*
%TD*%
D27*
%TO.C,R93*%
X286200000Y6925000D03*
X286200000Y5275000D03*
%TD*%
D15*
%TO.C,F40*%
X317700000Y43579428D03*
X317700000Y41704428D03*
%TD*%
D34*
%TO.C,D41*%
X249400000Y19175000D03*
X249400000Y17600000D03*
%TD*%
D31*
%TO.C,C117*%
X272700000Y17125000D03*
X272700000Y18675000D03*
%TD*%
D11*
%TO.C,R212*%
X311100000Y30375000D03*
X311100000Y32025000D03*
%TD*%
D18*
%TO.C,C113*%
X206300000Y28758072D03*
X207850000Y28758072D03*
%TD*%
D19*
%TO.C,TH20*%
X264295000Y17800000D03*
D20*
X266195000Y17800000D03*
%TD*%
D26*
%TO.C,C19*%
X269595000Y15400000D03*
X268045000Y15400000D03*
%TD*%
D11*
%TO.C,R209*%
X315600000Y30375000D03*
X315600000Y32025000D03*
%TD*%
D13*
%TO.C,Q33*%
X227750000Y33633072D03*
X229650000Y33633072D03*
X228700000Y35508072D03*
%TD*%
D14*
%TO.C,D65*%
X283200000Y27100000D03*
X280700000Y27100000D03*
%TD*%
D15*
%TO.C,F39*%
X204700000Y47137500D03*
X204700000Y45262500D03*
%TD*%
D28*
%TO.C,R16*%
X207625000Y18300000D03*
X205975000Y18300000D03*
%TD*%
D14*
%TO.C,D46*%
X234450000Y26970572D03*
X231950000Y26970572D03*
%TD*%
D28*
%TO.C,FB3*%
X255975000Y31858072D03*
X254325000Y31858072D03*
%TD*%
D13*
%TO.C,Q45*%
X295100000Y33762500D03*
X297000000Y33762500D03*
X296050000Y35637500D03*
%TD*%
D11*
%TO.C,R147*%
X219500000Y18375000D03*
X219500000Y20025000D03*
%TD*%
%TO.C,R218*%
X301800000Y30375000D03*
X301800000Y32025000D03*
%TD*%
D27*
%TO.C,R23*%
X244850000Y3508072D03*
X244850000Y1858072D03*
%TD*%
D19*
%TO.C,TH17*%
X264300000Y11200000D03*
D20*
X266200000Y11200000D03*
%TD*%
D26*
%TO.C,C22*%
X269595000Y17100000D03*
X268045000Y17100000D03*
%TD*%
D11*
%TO.C,R180*%
X218400000Y30245572D03*
X218400000Y31895572D03*
%TD*%
D35*
%TO.C,D56*%
X312100000Y24441928D03*
X312100000Y21641928D03*
%TD*%
D14*
%TO.C,D58*%
X315750000Y27100000D03*
X313250000Y27100000D03*
%TD*%
D11*
%TO.C,R161*%
X248450000Y30233072D03*
X248450000Y31883072D03*
%TD*%
D12*
%TO.C,TP10*%
X263500000Y19950000D03*
%TD*%
D21*
%TO.C,R169*%
X233500000Y43433072D03*
X233500000Y37508072D03*
%TD*%
D22*
%TO.C,J17*%
X265400000Y51041928D03*
X267900000Y51041928D03*
X270400000Y51041928D03*
X272900000Y51041928D03*
X275400000Y51041928D03*
X277900000Y51041928D03*
D23*
X280400000Y51041928D03*
%TD*%
D31*
%TO.C,C90*%
X216300000Y18425000D03*
X216300000Y19975000D03*
%TD*%
D21*
%TO.C,R217*%
X300700000Y43562500D03*
X300700000Y37637500D03*
%TD*%
%TO.C,R181*%
X214700000Y43433072D03*
X214700000Y37508072D03*
%TD*%
D14*
%TO.C,D61*%
X301800000Y27100000D03*
X299300000Y27100000D03*
%TD*%
D11*
%TO.C,R191*%
X201650000Y30233072D03*
X201650000Y31883072D03*
%TD*%
D27*
%TO.C,TH16*%
X285900000Y52866928D03*
X285900000Y51216928D03*
%TD*%
D13*
%TO.C,Q38*%
X204350000Y33633072D03*
X206250000Y33633072D03*
X205300000Y35508072D03*
%TD*%
D14*
%TO.C,D44*%
X243775000Y26958072D03*
X241275000Y26958072D03*
%TD*%
D18*
%TO.C,C136*%
X283200000Y28900000D03*
X284750000Y28900000D03*
%TD*%
D28*
%TO.C,R150*%
X247925000Y19200000D03*
X246275000Y19200000D03*
%TD*%
D14*
%TO.C,D47*%
X229750000Y26970572D03*
X227250000Y26970572D03*
%TD*%
D13*
%TO.C,Q41*%
X313700000Y33762500D03*
X315600000Y33762500D03*
X314650000Y35637500D03*
%TD*%
D18*
%TO.C,C76*%
X268125000Y4500000D03*
X269675000Y4500000D03*
%TD*%
D28*
%TO.C,R143*%
X243575000Y21458072D03*
X241925000Y21458072D03*
%TD*%
D29*
%TO.C,C93*%
X253650000Y13058072D03*
X253650000Y11508072D03*
%TD*%
D21*
%TO.C,R238*%
X268075000Y43562500D03*
X268075000Y37637500D03*
%TD*%
D18*
%TO.C,C103*%
X253150000Y28758072D03*
X254700000Y28758072D03*
%TD*%
D11*
%TO.C,R227*%
X287850000Y30375000D03*
X287850000Y32025000D03*
%TD*%
D14*
%TO.C,D53*%
X202000000Y26958072D03*
X199500000Y26958072D03*
%TD*%
D11*
%TO.C,R165*%
X241550000Y30233072D03*
X241550000Y31883072D03*
%TD*%
D18*
%TO.C,C134*%
X292500000Y28900000D03*
X294050000Y28900000D03*
%TD*%
D25*
%TO.C,J8*%
X315900000Y4091928D03*
%TD*%
D27*
%TO.C,R146*%
X228700000Y10325000D03*
X228700000Y8675000D03*
%TD*%
%TO.C,R24*%
X244850000Y6983072D03*
X244850000Y5333072D03*
%TD*%
D14*
%TO.C,D60*%
X306450000Y27100000D03*
X303950000Y27100000D03*
%TD*%
D27*
%TO.C,R193*%
X306200000Y22866928D03*
X306200000Y21216928D03*
%TD*%
D36*
%TO.C,D57*%
X292100000Y14354428D03*
X292100000Y15929428D03*
%TD*%
D11*
%TO.C,R185*%
X211100000Y30245572D03*
X211100000Y31895572D03*
%TD*%
D15*
%TO.C,F38*%
X207400000Y47137500D03*
X207400000Y45262500D03*
%TD*%
D12*
%TO.C,TP8*%
X207200000Y21700000D03*
%TD*%
D15*
%TO.C,F49*%
X277425000Y47237500D03*
X277425000Y45362500D03*
%TD*%
D11*
%TO.C,R231*%
X280950000Y30375000D03*
X280950000Y32025000D03*
%TD*%
D28*
%TO.C,R17*%
X207625000Y19900000D03*
X205975000Y19900000D03*
%TD*%
D25*
%TO.C,J2*%
X199000000Y4000000D03*
%TD*%
D21*
%TO.C,R226*%
X286750000Y43562500D03*
X286750000Y37637500D03*
%TD*%
D15*
%TO.C,F44*%
X300700000Y47237500D03*
X300700000Y45362500D03*
%TD*%
D14*
%TO.C,D64*%
X287850000Y27100000D03*
X285350000Y27100000D03*
%TD*%
D26*
%TO.C,C94*%
X227475000Y4400000D03*
X225925000Y4400000D03*
%TD*%
D15*
%TO.C,F34*%
X224225000Y47108072D03*
X224225000Y45233072D03*
%TD*%
D13*
%TO.C,Q32*%
X232550000Y33633072D03*
X234450000Y33633072D03*
X233500000Y35508072D03*
%TD*%
D21*
%TO.C,R163*%
X242750000Y43433072D03*
X242750000Y37508072D03*
%TD*%
D18*
%TO.C,C109*%
X225125000Y28758072D03*
X226675000Y28758072D03*
%TD*%
D13*
%TO.C,Q44*%
X299750000Y33762500D03*
X301650000Y33762500D03*
X300700000Y35637500D03*
%TD*%
D15*
%TO.C,F47*%
X286750000Y47237500D03*
X286750000Y45362500D03*
%TD*%
D18*
%TO.C,C119*%
X306225000Y19641928D03*
X307775000Y19641928D03*
%TD*%
D27*
%TO.C,TH11*%
X228700000Y52420572D03*
X228700000Y50770572D03*
%TD*%
D28*
%TO.C,R15*%
X207625000Y16700000D03*
X205975000Y16700000D03*
%TD*%
D15*
%TO.C,F35*%
X219500000Y47108072D03*
X219500000Y45233072D03*
%TD*%
%TO.C,F48*%
X282100000Y47237500D03*
X282100000Y45362500D03*
%TD*%
D11*
%TO.C,R182*%
X215850000Y30245572D03*
X215850000Y31895572D03*
%TD*%
D18*
%TO.C,C140*%
X264425000Y28900000D03*
X265975000Y28900000D03*
%TD*%
D37*
%TO.C,J22*%
X199300000Y11942500D03*
D17*
X199300000Y15902500D03*
%TD*%
D11*
%TO.C,R215*%
X306450000Y30375000D03*
X306450000Y32025000D03*
%TD*%
D15*
%TO.C,F37*%
X210000000Y47108072D03*
X210000000Y45233072D03*
%TD*%
%TO.C,F32*%
X233500000Y47108072D03*
X233500000Y45233072D03*
%TD*%
D11*
%TO.C,R243*%
X262300000Y30350000D03*
X262300000Y32000000D03*
%TD*%
%TO.C,R239*%
X269175000Y30375000D03*
X269175000Y32025000D03*
%TD*%
D18*
%TO.C,C137*%
X278525000Y28900000D03*
X280075000Y28900000D03*
%TD*%
D13*
%TO.C,Q52*%
X262475000Y33762500D03*
X264375000Y33762500D03*
X263425000Y35637500D03*
%TD*%
D21*
%TO.C,R190*%
X200650000Y43420572D03*
X200650000Y37495572D03*
%TD*%
D15*
%TO.C,F42*%
X307450000Y47237500D03*
X307450000Y45362500D03*
%TD*%
D14*
%TO.C,D48*%
X225200000Y26970572D03*
X222700000Y26970572D03*
%TD*%
%TO.C,D42*%
X253150000Y26958072D03*
X250650000Y26958072D03*
%TD*%
D18*
%TO.C,C139*%
X269075000Y28900000D03*
X270625000Y28900000D03*
%TD*%
D11*
%TO.C,R173*%
X229900000Y30245572D03*
X229900000Y31895572D03*
%TD*%
D21*
%TO.C,R208*%
X314650000Y43562500D03*
X314650000Y37637500D03*
%TD*%
D31*
%TO.C,C91*%
X217900000Y18425000D03*
X217900000Y19975000D03*
%TD*%
%TO.C,C43*%
X251000000Y17583072D03*
X251000000Y19133072D03*
%TD*%
D18*
%TO.C,C92*%
X222825000Y4400000D03*
X224375000Y4400000D03*
%TD*%
D28*
%TO.C,R194*%
X304400000Y22800000D03*
X302750000Y22800000D03*
%TD*%
D29*
%TO.C,C115*%
X290600000Y19775000D03*
X290600000Y18225000D03*
%TD*%
D11*
%TO.C,R183*%
X213600000Y30245572D03*
X213600000Y31895572D03*
%TD*%
D15*
%TO.C,F52*%
X263400000Y47279428D03*
X263400000Y45404428D03*
%TD*%
D21*
%TO.C,R223*%
X291400000Y43562500D03*
X291400000Y37637500D03*
%TD*%
D13*
%TO.C,Q28*%
X251150000Y33620572D03*
X253050000Y33620572D03*
X252100000Y35495572D03*
%TD*%
D11*
%TO.C,R222*%
X294900000Y30375000D03*
X294900000Y32025000D03*
%TD*%
%TO.C,R177*%
X223050000Y30245572D03*
X223050000Y31895572D03*
%TD*%
D15*
%TO.C,F27*%
X253450000Y47095572D03*
X253450000Y45220572D03*
%TD*%
%TO.C,F36*%
X214700000Y47108072D03*
X214700000Y45233072D03*
%TD*%
D38*
%TO.C,TR5*%
X265820000Y1918072D03*
X265820000Y4458072D03*
X265820000Y6998072D03*
X250180000Y6998072D03*
X250180000Y4458072D03*
X250180000Y1918072D03*
%TD*%
D21*
%TO.C,R175*%
X224225000Y43433072D03*
X224225000Y37508072D03*
%TD*%
D19*
%TO.C,TH18*%
X264300000Y13500000D03*
D20*
X266200000Y13500000D03*
%TD*%
D11*
%TO.C,R159*%
X250650000Y30233072D03*
X250650000Y31883072D03*
%TD*%
D18*
%TO.C,C133*%
X297150000Y28900000D03*
X298700000Y28900000D03*
%TD*%
%TO.C,C108*%
X229750000Y28758072D03*
X231300000Y28758072D03*
%TD*%
D11*
%TO.C,R179*%
X220650000Y30245572D03*
X220650000Y31895572D03*
%TD*%
D13*
%TO.C,Q47*%
X285800000Y33762500D03*
X287700000Y33762500D03*
X286750000Y35637500D03*
%TD*%
D27*
%TO.C,R156*%
X229100000Y3525000D03*
X229100000Y1875000D03*
%TD*%
D11*
%TO.C,R230*%
X283200000Y30375000D03*
X283200000Y32025000D03*
%TD*%
%TO.C,R224*%
X292500000Y30375000D03*
X292500000Y32025000D03*
%TD*%
D18*
%TO.C,C112*%
X210975000Y28758072D03*
X212525000Y28758072D03*
%TD*%
D12*
%TO.C,TP9*%
X290300000Y13941928D03*
%TD*%
D11*
%TO.C,R198*%
X274300000Y17075000D03*
X274300000Y18725000D03*
%TD*%
D18*
%TO.C,C106*%
X239100000Y28758072D03*
X240650000Y28758072D03*
%TD*%
%TO.C,C129*%
X316025000Y28900000D03*
X317575000Y28900000D03*
%TD*%
D28*
%TO.C,FB4*%
X318725000Y32050000D03*
X317075000Y32050000D03*
%TD*%
D11*
%TO.C,R236*%
X273850000Y30375000D03*
X273850000Y32025000D03*
%TD*%
D21*
%TO.C,R235*%
X272750000Y43562500D03*
X272750000Y37637500D03*
%TD*%
%TO.C,R160*%
X247500000Y43420572D03*
X247500000Y37495572D03*
%TD*%
D13*
%TO.C,Q31*%
X237150000Y33633072D03*
X239050000Y33633072D03*
X238100000Y35508072D03*
%TD*%
D11*
%TO.C,R174*%
X227600000Y30245572D03*
X227600000Y31895572D03*
%TD*%
D15*
%TO.C,F43*%
X304700000Y47237500D03*
X304700000Y45362500D03*
%TD*%
D14*
%TO.C,D63*%
X292500000Y27100000D03*
X290000000Y27100000D03*
%TD*%
D13*
%TO.C,Q34*%
X223275000Y33633072D03*
X225175000Y33633072D03*
X224225000Y35508072D03*
%TD*%
D27*
%TO.C,R142*%
X256150000Y16783072D03*
X256150000Y15133072D03*
%TD*%
D11*
%TO.C,R240*%
X266900000Y30375000D03*
X266900000Y32025000D03*
%TD*%
D26*
%TO.C,C75*%
X248125000Y3050000D03*
X246575000Y3050000D03*
%TD*%
D11*
%TO.C,R219*%
X299550000Y30375000D03*
X299550000Y32025000D03*
%TD*%
D29*
%TO.C,C11*%
X219500000Y14275000D03*
X219500000Y12725000D03*
%TD*%
D15*
%TO.C,F33*%
X228700000Y47108072D03*
X228700000Y45233072D03*
%TD*%
%TO.C,F28*%
X251350000Y47095572D03*
X251350000Y45220572D03*
%TD*%
D11*
%TO.C,R188*%
X206350000Y30245572D03*
X206350000Y31895572D03*
%TD*%
D29*
%TO.C,C12*%
X222500000Y10275000D03*
X222500000Y8725000D03*
%TD*%
D11*
%TO.C,R213*%
X308850000Y30375000D03*
X308850000Y32025000D03*
%TD*%
D27*
%TO.C,R101*%
X286200000Y3825000D03*
X286200000Y2175000D03*
%TD*%
D26*
%TO.C,C96*%
X291575000Y5500000D03*
X290025000Y5500000D03*
%TD*%
D30*
%TO.C,U14*%
X288050000Y17612500D03*
X287550000Y17612500D03*
X287050000Y17612500D03*
X286550000Y17612500D03*
X286050000Y17612500D03*
X285550000Y17612500D03*
X285050000Y17612500D03*
X284550000Y17612500D03*
X284050000Y17612500D03*
X283550000Y17612500D03*
X283050000Y17612500D03*
X282550000Y17612500D03*
X282050000Y17612500D03*
X281550000Y17612500D03*
X281050000Y17612500D03*
X280550000Y17612500D03*
X280050000Y17612500D03*
X279550000Y17612500D03*
X279050000Y17612500D03*
X278550000Y17612500D03*
X278050000Y17612500D03*
X277550000Y17612500D03*
X277050000Y17612500D03*
X276550000Y17612500D03*
X276550000Y10187500D03*
X277050000Y10187500D03*
X277550000Y10187500D03*
X278050000Y10187500D03*
X278550000Y10187500D03*
X279050000Y10187500D03*
X279550000Y10187500D03*
X280050000Y10187500D03*
X280550000Y10187500D03*
X281050000Y10187500D03*
X281550000Y10187500D03*
X282050000Y10187500D03*
X282550000Y10187500D03*
X283050000Y10187500D03*
X283550000Y10187500D03*
X284050000Y10187500D03*
X284550000Y10187500D03*
X285050000Y10187500D03*
X285550000Y10187500D03*
X286050000Y10187500D03*
X286550000Y10187500D03*
X287050000Y10187500D03*
X287550000Y10187500D03*
X288050000Y10187500D03*
%TD*%
D39*
%TO.C,Q27*%
X251000000Y10758072D03*
X251000000Y13058072D03*
X251000000Y15358072D03*
D40*
X244700000Y13058072D03*
%TD*%
D21*
%TO.C,R214*%
X305350000Y43562500D03*
X305350000Y37637500D03*
%TD*%
D31*
%TO.C,C66*%
X303900000Y18725000D03*
X303900000Y20275000D03*
%TD*%
D11*
%TO.C,R228*%
X285600000Y30375000D03*
X285600000Y32025000D03*
%TD*%
D26*
%TO.C,C16*%
X269570000Y10100000D03*
X268020000Y10100000D03*
%TD*%
D11*
%TO.C,R221*%
X297150000Y30375000D03*
X297150000Y32025000D03*
%TD*%
D14*
%TO.C,D49*%
X220500000Y26970572D03*
X218000000Y26970572D03*
%TD*%
D11*
%TO.C,R164*%
X243850000Y30233072D03*
X243850000Y31883072D03*
%TD*%
D13*
%TO.C,Q49*%
X276475000Y33762500D03*
X278375000Y33762500D03*
X277425000Y35637500D03*
%TD*%
D11*
%TO.C,R158*%
X252850000Y30233072D03*
X252850000Y31883072D03*
%TD*%
D15*
%TO.C,F45*%
X296050000Y47237500D03*
X296050000Y45362500D03*
%TD*%
D21*
%TO.C,R166*%
X238100000Y43433072D03*
X238100000Y37508072D03*
%TD*%
D18*
%TO.C,C130*%
X311075000Y28900000D03*
X312625000Y28900000D03*
%TD*%
D38*
%TO.C,TR8*%
X220520000Y1860000D03*
X220520000Y4400000D03*
X220520000Y6940000D03*
X204880000Y6940000D03*
X204880000Y4400000D03*
X204880000Y1860000D03*
%TD*%
D10*
%TO.C,D38*%
X256150000Y23500000D03*
X252850000Y23500000D03*
%TD*%
D29*
%TO.C,C15*%
X227000000Y10275000D03*
X227000000Y8725000D03*
%TD*%
D15*
%TO.C,F30*%
X242750000Y47095572D03*
X242750000Y45220572D03*
%TD*%
D24*
%TO.C,R13*%
X205975000Y13500000D03*
X207625000Y13500000D03*
%TD*%
D18*
%TO.C,C135*%
X287850000Y28900000D03*
X289400000Y28900000D03*
%TD*%
%TO.C,C104*%
X248450000Y28758072D03*
X250000000Y28758072D03*
%TD*%
D29*
%TO.C,C13*%
X224000000Y10275000D03*
X224000000Y8725000D03*
%TD*%
D25*
%TO.C,J20*%
X199150000Y50950000D03*
%TD*%
D11*
%TO.C,R171*%
X232350000Y30245572D03*
X232350000Y31895572D03*
%TD*%
%TO.C,R176*%
X225300000Y30245572D03*
X225300000Y31895572D03*
%TD*%
D18*
%TO.C,C111*%
X215700000Y28758072D03*
X217250000Y28758072D03*
%TD*%
D28*
%TO.C,R197*%
X283225000Y7500000D03*
X281575000Y7500000D03*
%TD*%
D18*
%TO.C,C131*%
X306450000Y28900000D03*
X308000000Y28900000D03*
%TD*%
D11*
%TO.C,R242*%
X264525000Y30375000D03*
X264525000Y32025000D03*
%TD*%
D15*
%TO.C,F41*%
X310050000Y47237500D03*
X310050000Y45362500D03*
%TD*%
D28*
%TO.C,R21*%
X262525000Y16100000D03*
X260875000Y16100000D03*
%TD*%
D21*
%TO.C,R220*%
X296050000Y43562500D03*
X296050000Y37637500D03*
%TD*%
D27*
%TO.C,R54*%
X232650000Y10325000D03*
X232650000Y8675000D03*
%TD*%
D14*
%TO.C,D66*%
X278525000Y27100000D03*
X276025000Y27100000D03*
%TD*%
D19*
%TO.C,TH15*%
X209545000Y19900000D03*
D20*
X211445000Y19900000D03*
%TD*%
D11*
%TO.C,R162*%
X246250000Y30233072D03*
X246250000Y31883072D03*
%TD*%
D28*
%TO.C,R20*%
X262525000Y14500000D03*
X260875000Y14500000D03*
%TD*%
D11*
%TO.C,R192*%
X199400000Y30233072D03*
X199400000Y31883072D03*
%TD*%
D38*
%TO.C,TR6*%
X309170000Y1860000D03*
X309170000Y4400000D03*
X309170000Y6940000D03*
X293530000Y6940000D03*
X293530000Y4400000D03*
X293530000Y1860000D03*
%TD*%
D39*
%TO.C,Q40*%
X303950000Y12000000D03*
X303950000Y14300000D03*
X303950000Y16600000D03*
D40*
X297650000Y14300000D03*
%TD*%
D28*
%TO.C,R22*%
X262525000Y17800000D03*
X260875000Y17800000D03*
%TD*%
D13*
%TO.C,Q37*%
X209050000Y33633072D03*
X210950000Y33633072D03*
X210000000Y35508072D03*
%TD*%
D27*
%TO.C,R201*%
X292100000Y12891928D03*
X292100000Y11241928D03*
%TD*%
D13*
%TO.C,Q48*%
X281150000Y33762500D03*
X283050000Y33762500D03*
X282100000Y35637500D03*
%TD*%
D22*
%TO.C,J16*%
X293150000Y51075000D03*
X295650000Y51075000D03*
X298150000Y51075000D03*
X300650000Y51075000D03*
X303150000Y51075000D03*
X305650000Y51075000D03*
D23*
X308150000Y51075000D03*
%TD*%
D11*
%TO.C,R237*%
X271600000Y30375000D03*
X271600000Y32025000D03*
%TD*%
D28*
%TO.C,R196*%
X283225000Y5900000D03*
X281575000Y5900000D03*
%TD*%
D19*
%TO.C,TH12*%
X209545000Y13100000D03*
D20*
X211445000Y13100000D03*
%TD*%
D14*
%TO.C,D51*%
X210975000Y26970572D03*
X208475000Y26970572D03*
%TD*%
D21*
%TO.C,R178*%
X219500000Y43433072D03*
X219500000Y37508072D03*
%TD*%
D29*
%TO.C,C14*%
X225500000Y10275000D03*
X225500000Y8725000D03*
%TD*%
D18*
%TO.C,C44*%
X246575000Y5750000D03*
X248125000Y5750000D03*
%TD*%
D28*
%TO.C,R14*%
X207625000Y15100000D03*
X205975000Y15100000D03*
%TD*%
D14*
%TO.C,D67*%
X273850000Y27100000D03*
X271350000Y27100000D03*
%TD*%
D27*
%TO.C,R53*%
X271200000Y7000000D03*
X271200000Y5350000D03*
%TD*%
D26*
%TO.C,C46*%
X291575000Y3300000D03*
X290025000Y3300000D03*
%TD*%
D21*
%TO.C,R232*%
X277425000Y43562500D03*
X277425000Y37637500D03*
%TD*%
D32*
%TO.C,D54*%
X317100000Y24491928D03*
X317100000Y21191928D03*
%TD*%
D19*
%TO.C,TH13*%
X209550000Y15700000D03*
D20*
X211450000Y15700000D03*
%TD*%
D11*
%TO.C,R167*%
X239250000Y30245572D03*
X239250000Y31895572D03*
%TD*%
D21*
%TO.C,R187*%
X205300000Y43433072D03*
X205300000Y37508072D03*
%TD*%
D13*
%TO.C,Q43*%
X304400000Y33762500D03*
X306300000Y33762500D03*
X305350000Y35637500D03*
%TD*%
D19*
%TO.C,TH14*%
X209545000Y17800000D03*
D20*
X211445000Y17800000D03*
%TD*%
D14*
%TO.C,D52*%
X206300000Y26970572D03*
X203800000Y26970572D03*
%TD*%
D15*
%TO.C,F29*%
X247500000Y47108072D03*
X247500000Y45233072D03*
%TD*%
D13*
%TO.C,Q30*%
X241800000Y33620572D03*
X243700000Y33620572D03*
X242750000Y35495572D03*
%TD*%
D14*
%TO.C,D59*%
X311100000Y27100000D03*
X308600000Y27100000D03*
%TD*%
D27*
%TO.C,R145*%
X230200000Y10325000D03*
X230200000Y8675000D03*
%TD*%
D13*
%TO.C,Q35*%
X218550000Y33633072D03*
X220450000Y33633072D03*
X219500000Y35508072D03*
%TD*%
D11*
%TO.C,R216*%
X304200000Y30375000D03*
X304200000Y32025000D03*
%TD*%
D15*
%TO.C,F46*%
X291400000Y47237500D03*
X291400000Y45362500D03*
%TD*%
D18*
%TO.C,C138*%
X273725000Y28900000D03*
X275275000Y28900000D03*
%TD*%
%TO.C,C110*%
X220500000Y28758072D03*
X222050000Y28758072D03*
%TD*%
M02*
