%TF.GenerationSoftware,KiCad,Pcbnew,8.0.4*%
%TF.CreationDate,2024-08-06T16:15:27+08:00*%
%TF.ProjectId,LTC6811_ESP32_V2,4c544336-3831-4315-9f45-535033325f56,rev?*%
%TF.SameCoordinates,Original*%
%TF.FileFunction,Profile,NP*%
%FSLAX46Y46*%
G04 Gerber Fmt 4.6, Leading zero omitted, Abs format (unit mm)*
G04 Created by KiCad (PCBNEW 8.0.4) date 2024-08-06 16:15:27*
%MOMM*%
%LPD*%
G01*
G04 APERTURE LIST*
%TA.AperFunction,Profile*%
%ADD10C,0.050000*%
%TD*%
%ADD11C,0.350000*%
G04 APERTURE END LIST*
D10*
X0Y55041928D02*
X320000000Y55041928D01*
X320000000Y41928D01*
X0Y41928D01*
X0Y55041928D01*
D11*
X315900000Y4100000D03*
X30365000Y47220000D03*
X30365000Y44680000D03*
X30365000Y42140000D03*
X30365000Y39600000D03*
X30365000Y37060000D03*
X30365000Y34520000D03*
X30365000Y31980000D03*
X30365000Y29440000D03*
X30365000Y26900000D03*
X30365000Y24360000D03*
X30365000Y21820000D03*
X30365000Y19280000D03*
X30365000Y16740000D03*
X30365000Y14200000D03*
X30365000Y11660000D03*
X30365000Y9120000D03*
X30365000Y6580000D03*
X30365000Y4040000D03*
X30365000Y1500000D03*
X55765000Y1500000D03*
X55765000Y4040000D03*
X55765000Y6580000D03*
X55765000Y9120000D03*
X55765000Y11660000D03*
X55765000Y14200000D03*
X55765000Y16740000D03*
X55765000Y19280000D03*
X55765000Y21820000D03*
X55765000Y24360000D03*
X55765000Y26900000D03*
X55765000Y29440000D03*
X55765000Y31980000D03*
X55765000Y34520000D03*
X55765000Y37060000D03*
X55765000Y39600000D03*
X55765000Y42140000D03*
X55765000Y44680000D03*
X55765000Y47220000D03*
X315750000Y15257500D03*
X315750000Y11297500D03*
X264295000Y15600000D03*
X266195000Y15600000D03*
X207150000Y51000000D03*
X209650000Y51000000D03*
X212150000Y51000000D03*
X214650000Y51000000D03*
X217150000Y51000000D03*
X219650000Y51000000D03*
X222150000Y51000000D03*
X235200000Y51000000D03*
X237700000Y51000000D03*
X240200000Y51000000D03*
X242700000Y51000000D03*
X245200000Y51000000D03*
X247700000Y51000000D03*
X250200000Y51000000D03*
X316000000Y51000000D03*
X144095000Y14700000D03*
X145995000Y14700000D03*
X138400000Y51000000D03*
X1600000Y28540000D03*
X1600000Y26000000D03*
X1600000Y23460000D03*
X1600000Y20920000D03*
X1600000Y18380000D03*
X1600000Y15840000D03*
X1600000Y13300000D03*
X1600000Y10760000D03*
X9220000Y10760000D03*
X9220000Y13300000D03*
X9220000Y15840000D03*
X9220000Y18380000D03*
X9220000Y20920000D03*
X9220000Y23460000D03*
X9220000Y26000000D03*
X9220000Y28540000D03*
X264295000Y17800000D03*
X266195000Y17800000D03*
X264300000Y11200000D03*
X266200000Y11200000D03*
X280000000Y51000000D03*
X277500000Y51000000D03*
X275000000Y51000000D03*
X272500000Y51000000D03*
X270000000Y51000000D03*
X267500000Y51000000D03*
X265000000Y51000000D03*
X84495000Y15100000D03*
X86395000Y15100000D03*
X144095000Y17000000D03*
X145995000Y17000000D03*
X144095000Y12000000D03*
X145995000Y12000000D03*
X234100000Y4000000D03*
X25300000Y1710000D03*
X25300000Y4250000D03*
X25300000Y6790000D03*
X25300000Y9330000D03*
X25300000Y11870000D03*
X25300000Y14410000D03*
X25300000Y16950000D03*
X25300000Y19490000D03*
X25300000Y22030000D03*
X25300000Y24570000D03*
X25300000Y27110000D03*
X25300000Y29650000D03*
X25300000Y32190000D03*
X25300000Y34730000D03*
X17680000Y34730000D03*
X17680000Y32190000D03*
X17680000Y29650000D03*
X17680000Y27110000D03*
X17680000Y24570000D03*
X17680000Y22030000D03*
X17680000Y19490000D03*
X17680000Y16950000D03*
X17680000Y14410000D03*
X17680000Y11870000D03*
X17680000Y9330000D03*
X17680000Y6790000D03*
X17680000Y4250000D03*
X17680000Y1710000D03*
X87700000Y51000000D03*
X90200000Y51000000D03*
X92700000Y51000000D03*
X95200000Y51000000D03*
X97700000Y51000000D03*
X100200000Y51000000D03*
X102700000Y51000000D03*
X84495000Y19500000D03*
X86395000Y19500000D03*
X71500000Y31800000D03*
X73600000Y39100000D03*
X69400000Y39100000D03*
X73600000Y44600000D03*
X69400000Y44600000D03*
X264300000Y13500000D03*
X266200000Y13500000D03*
X172700000Y4000000D03*
X114700000Y51000000D03*
X117200000Y51000000D03*
X119700000Y51000000D03*
X122200000Y51000000D03*
X124700000Y51000000D03*
X127200000Y51000000D03*
X129700000Y51000000D03*
X4000000Y51000000D03*
X84495000Y17300000D03*
X86395000Y17300000D03*
X147200000Y51000000D03*
X149700000Y51000000D03*
X152200000Y51000000D03*
X154700000Y51000000D03*
X157200000Y51000000D03*
X159700000Y51000000D03*
X162200000Y51000000D03*
X71000000Y51000000D03*
X205195000Y18100000D03*
X207095000Y18100000D03*
X61100000Y4000000D03*
X173600000Y51000000D03*
X176100000Y51000000D03*
X178600000Y51000000D03*
X181100000Y51000000D03*
X183600000Y51000000D03*
X186100000Y51000000D03*
X188600000Y51000000D03*
X293000000Y51000000D03*
X295500000Y51000000D03*
X298000000Y51000000D03*
X300500000Y51000000D03*
X303000000Y51000000D03*
X305500000Y51000000D03*
X308000000Y51000000D03*
X205195000Y11000000D03*
X207095000Y11000000D03*
X4000000Y4000000D03*
X144095000Y19200000D03*
X145995000Y19200000D03*
X205195000Y13200000D03*
X207095000Y13200000D03*
X205195000Y15400000D03*
X207095000Y15400000D03*
X1900000Y45140000D03*
X1900000Y42600000D03*
X1900000Y40060000D03*
X1900000Y37520000D03*
X84495000Y12900000D03*
X86395000Y12900000D03*
M02*
