%TF.GenerationSoftware,KiCad,Pcbnew,8.0.4*%
%TF.CreationDate,2024-08-06T16:15:28+08:00*%
%TF.ProjectId,LTC6811_ESP32_V2,4c544336-3831-4315-9f45-535033325f56,rev?*%
%TF.SameCoordinates,Original*%
%TF.FileFunction,Soldermask,Top*%
%TF.FilePolarity,Negative*%
%FSLAX46Y46*%
G04 Gerber Fmt 4.6, Leading zero omitted, Abs format (unit mm)*
G04 Created by KiCad (PCBNEW 8.0.4) date 2024-08-06 16:15:28*
%MOMM*%
%LPD*%
G01*
G04 APERTURE LIST*
G04 Aperture macros list*
%AMRoundRect*
0 Rectangle with rounded corners*
0 $1 Rounding radius*
0 $2 $3 $4 $5 $6 $7 $8 $9 X,Y pos of 4 corners*
0 Add a 4 corners polygon primitive as box body*
4,1,4,$2,$3,$4,$5,$6,$7,$8,$9,$2,$3,0*
0 Add four circle primitives for the rounded corners*
1,1,$1+$1,$2,$3*
1,1,$1+$1,$4,$5*
1,1,$1+$1,$6,$7*
1,1,$1+$1,$8,$9*
0 Add four rect primitives between the rounded corners*
20,1,$1+$1,$2,$3,$4,$5,0*
20,1,$1+$1,$4,$5,$6,$7,0*
20,1,$1+$1,$6,$7,$8,$9,0*
20,1,$1+$1,$8,$9,$2,$3,0*%
G04 Aperture macros list end*
%ADD10RoundRect,0.225000X0.225000X0.250000X-0.225000X0.250000X-0.225000X-0.250000X0.225000X-0.250000X0*%
%ADD11C,5.700000*%
%ADD12R,1.600000X1.600000*%
%ADD13O,1.600000X1.600000*%
%ADD14RoundRect,0.225000X0.225000X0.375000X-0.225000X0.375000X-0.225000X-0.375000X0.225000X-0.375000X0*%
%ADD15RoundRect,0.218750X0.256250X-0.218750X0.256250X0.218750X-0.256250X0.218750X-0.256250X-0.218750X0*%
%ADD16RoundRect,0.200000X0.275000X-0.200000X0.275000X0.200000X-0.275000X0.200000X-0.275000X-0.200000X0*%
%ADD17C,1.000000*%
%ADD18RoundRect,0.150000X0.150000X-0.587500X0.150000X0.587500X-0.150000X0.587500X-0.150000X-0.587500X0*%
%ADD19RoundRect,0.250000X0.250000X0.250000X-0.250000X0.250000X-0.250000X-0.250000X0.250000X-0.250000X0*%
%ADD20RoundRect,0.243750X-0.456250X0.243750X-0.456250X-0.243750X0.456250X-0.243750X0.456250X0.243750X0*%
%ADD21RoundRect,0.200000X-0.275000X0.200000X-0.275000X-0.200000X0.275000X-0.200000X0.275000X0.200000X0*%
%ADD22RoundRect,0.200000X0.200000X0.275000X-0.200000X0.275000X-0.200000X-0.275000X0.200000X-0.275000X0*%
%ADD23RoundRect,0.250001X-1.099999X1.099999X-1.099999X-1.099999X1.099999X-1.099999X1.099999X1.099999X0*%
%ADD24C,2.700000*%
%ADD25RoundRect,0.225000X-0.225000X-0.250000X0.225000X-0.250000X0.225000X0.250000X-0.225000X0.250000X0*%
%ADD26C,1.400000*%
%ADD27O,1.400000X1.400000*%
%ADD28RoundRect,0.250000X-1.425000X0.362500X-1.425000X-0.362500X1.425000X-0.362500X1.425000X0.362500X0*%
%ADD29R,1.000000X1.500000*%
%ADD30O,1.700000X1.950000*%
%ADD31RoundRect,0.250000X0.600000X0.725000X-0.600000X0.725000X-0.600000X-0.725000X0.600000X-0.725000X0*%
%ADD32RoundRect,0.200000X-0.200000X-0.275000X0.200000X-0.275000X0.200000X0.275000X-0.200000X0.275000X0*%
%ADD33RoundRect,0.225000X-0.250000X0.225000X-0.250000X-0.225000X0.250000X-0.225000X0.250000X0.225000X0*%
%ADD34RoundRect,0.225000X0.250000X-0.225000X0.250000X0.225000X-0.250000X0.225000X-0.250000X-0.225000X0*%
%ADD35RoundRect,0.150000X0.587500X0.150000X-0.587500X0.150000X-0.587500X-0.150000X0.587500X-0.150000X0*%
%ADD36RoundRect,0.075000X-0.075000X0.662500X-0.075000X-0.662500X0.075000X-0.662500X0.075000X0.662500X0*%
%ADD37RoundRect,0.225000X-0.375000X0.225000X-0.375000X-0.225000X0.375000X-0.225000X0.375000X0.225000X0*%
%ADD38R,1.950000X1.020000*%
%ADD39RoundRect,0.250000X0.300000X0.300000X-0.300000X0.300000X-0.300000X-0.300000X0.300000X-0.300000X0*%
%ADD40RoundRect,0.450000X-0.450000X0.550000X-0.450000X-0.550000X0.450000X-0.550000X0.450000X0.550000X0*%
%ADD41RoundRect,0.162500X0.162500X-0.617500X0.162500X0.617500X-0.162500X0.617500X-0.162500X-0.617500X0*%
%ADD42RoundRect,0.250000X-0.300000X0.300000X-0.300000X-0.300000X0.300000X-0.300000X0.300000X0.300000X0*%
%ADD43RoundRect,0.250000X0.250000X0.475000X-0.250000X0.475000X-0.250000X-0.475000X0.250000X-0.475000X0*%
%ADD44RoundRect,0.162500X1.012500X0.162500X-1.012500X0.162500X-1.012500X-0.162500X1.012500X-0.162500X0*%
%ADD45C,3.000000*%
%ADD46RoundRect,0.250001X1.099999X1.599999X-1.099999X1.599999X-1.099999X-1.599999X1.099999X-1.599999X0*%
%ADD47O,2.700000X3.700000*%
%ADD48RoundRect,0.218750X-0.256250X0.218750X-0.256250X-0.218750X0.256250X-0.218750X0.256250X0.218750X0*%
%ADD49RoundRect,0.375000X0.625000X0.375000X-0.625000X0.375000X-0.625000X-0.375000X0.625000X-0.375000X0*%
%ADD50RoundRect,0.500000X0.500000X1.400000X-0.500000X1.400000X-0.500000X-1.400000X0.500000X-1.400000X0*%
%ADD51RoundRect,0.075000X-0.650000X-0.075000X0.650000X-0.075000X0.650000X0.075000X-0.650000X0.075000X0*%
%ADD52R,1.700000X1.700000*%
%ADD53O,1.700000X1.700000*%
G04 APERTURE END LIST*
D10*
%TO.C,C69*%
X95175000Y4600000D03*
X93625000Y4600000D03*
%TD*%
D11*
%TO.C,J20*%
X315900000Y4100000D03*
%TD*%
D12*
%TO.C,U8*%
X30365000Y47220000D03*
D13*
X30365000Y44680000D03*
X30365000Y42140000D03*
X30365000Y39600000D03*
X30365000Y37060000D03*
X30365000Y34520000D03*
X30365000Y31980000D03*
X30365000Y29440000D03*
X30365000Y26900000D03*
X30365000Y24360000D03*
X30365000Y21820000D03*
X30365000Y19280000D03*
X30365000Y16740000D03*
X30365000Y14200000D03*
X30365000Y11660000D03*
X30365000Y9120000D03*
X30365000Y6580000D03*
X30365000Y4040000D03*
X30365000Y1500000D03*
X55765000Y1500000D03*
X55765000Y4040000D03*
X55765000Y6580000D03*
X55765000Y9120000D03*
X55765000Y11660000D03*
X55765000Y14200000D03*
X55765000Y16740000D03*
X55765000Y19280000D03*
X55765000Y21820000D03*
X55765000Y24360000D03*
X55765000Y26900000D03*
X55765000Y29440000D03*
X55765000Y31980000D03*
X55765000Y34520000D03*
X55765000Y37060000D03*
X55765000Y39600000D03*
X55765000Y42140000D03*
X55765000Y44680000D03*
X55765000Y47220000D03*
%TD*%
D14*
%TO.C,D39*%
X256100000Y21200000D03*
X252800000Y21200000D03*
%TD*%
D15*
%TO.C,D25*%
X160000000Y6512500D03*
X160000000Y8087500D03*
%TD*%
D16*
%TO.C,R189*%
X203950000Y30287500D03*
X203950000Y31937500D03*
%TD*%
D17*
%TO.C,TP7*%
X243600000Y17800000D03*
%TD*%
D18*
%TO.C,Q36*%
X213700000Y33675000D03*
X215600000Y33675000D03*
X214650000Y35550000D03*
%TD*%
D16*
%TO.C,R138*%
X144750000Y30275000D03*
X144750000Y31925000D03*
%TD*%
D19*
%TO.C,D43*%
X248400000Y27000000D03*
X245900000Y27000000D03*
%TD*%
D18*
%TO.C,Q50*%
X271800000Y33762500D03*
X273700000Y33762500D03*
X272750000Y35637500D03*
%TD*%
D20*
%TO.C,F51*%
X268100000Y47237500D03*
X268100000Y45362500D03*
%TD*%
D21*
%TO.C,R91*%
X194250000Y17725000D03*
X194250000Y16075000D03*
%TD*%
D22*
%TO.C,R4*%
X82525000Y13400000D03*
X80875000Y13400000D03*
%TD*%
D23*
%TO.C,J9*%
X315750000Y15257500D03*
D24*
X315750000Y11297500D03*
%TD*%
D25*
%TO.C,C72*%
X272900000Y4500000D03*
X274450000Y4500000D03*
%TD*%
D18*
%TO.C,Q39*%
X199650000Y33662500D03*
X201550000Y33662500D03*
X200600000Y35537500D03*
%TD*%
D10*
%TO.C,C9*%
X149480000Y16000000D03*
X147930000Y16000000D03*
%TD*%
D16*
%TO.C,R225*%
X290400000Y30375000D03*
X290400000Y32025000D03*
%TD*%
D25*
%TO.C,C132*%
X301800000Y28900000D03*
X303350000Y28900000D03*
%TD*%
D20*
%TO.C,F10*%
X95200000Y47137500D03*
X95200000Y45262500D03*
%TD*%
D26*
%TO.C,TH19*%
X264295000Y15600000D03*
D27*
X266195000Y15600000D03*
%TD*%
D28*
%TO.C,R211*%
X310000000Y43562500D03*
X310000000Y37637500D03*
%TD*%
D29*
%TO.C,JP3*%
X12300000Y33300000D03*
X13600000Y33300000D03*
X14900000Y33300000D03*
%TD*%
D25*
%TO.C,C84*%
X160300000Y28800000D03*
X161850000Y28800000D03*
%TD*%
D30*
%TO.C,J15*%
X207150000Y51000000D03*
X209650000Y51000000D03*
X212150000Y51000000D03*
X214650000Y51000000D03*
X217150000Y51000000D03*
X219650000Y51000000D03*
D31*
X222150000Y51000000D03*
%TD*%
D30*
%TO.C,J14*%
X235200000Y51000000D03*
X237700000Y51000000D03*
X240200000Y51000000D03*
X242700000Y51000000D03*
X245200000Y51000000D03*
X247700000Y51000000D03*
D31*
X250200000Y51000000D03*
%TD*%
D18*
%TO.C,Q46*%
X290450000Y33762500D03*
X292350000Y33762500D03*
X291400000Y35637500D03*
%TD*%
D21*
%TO.C,R2*%
X184700000Y3425000D03*
X184700000Y1775000D03*
%TD*%
D16*
%TO.C,R170*%
X234400000Y30287500D03*
X234400000Y31937500D03*
%TD*%
D32*
%TO.C,R18*%
X260875000Y11300000D03*
X262525000Y11300000D03*
%TD*%
D19*
%TO.C,D14*%
X114400000Y27000000D03*
X111900000Y27000000D03*
%TD*%
D20*
%TO.C,F5*%
X117700000Y47137500D03*
X117700000Y45262500D03*
%TD*%
D16*
%TO.C,R210*%
X313500000Y30375000D03*
X313500000Y32025000D03*
%TD*%
D18*
%TO.C,Q51*%
X267125000Y33762500D03*
X269025000Y33762500D03*
X268075000Y35637500D03*
%TD*%
D19*
%TO.C,D68*%
X269175000Y27100000D03*
X266675000Y27100000D03*
%TD*%
D11*
%TO.C,J1*%
X316000000Y51000000D03*
%TD*%
D18*
%TO.C,Q29*%
X246500000Y33675000D03*
X248400000Y33675000D03*
X247450000Y35550000D03*
%TD*%
D33*
%TO.C,C34*%
X25000000Y40800000D03*
X25000000Y39250000D03*
%TD*%
D20*
%TO.C,F19*%
X172300000Y47137500D03*
X172300000Y45262500D03*
%TD*%
D25*
%TO.C,C62*%
X82925000Y28800000D03*
X84475000Y28800000D03*
%TD*%
D34*
%TO.C,C35*%
X8400000Y39825000D03*
X8400000Y41375000D03*
%TD*%
D32*
%TO.C,R48*%
X122775000Y20200000D03*
X124425000Y20200000D03*
%TD*%
D21*
%TO.C,R26*%
X184700000Y6775000D03*
X184700000Y5125000D03*
%TD*%
D28*
%TO.C,R121*%
X167900000Y43462500D03*
X167900000Y37537500D03*
%TD*%
D10*
%TO.C,C18*%
X269570000Y13700000D03*
X268020000Y13700000D03*
%TD*%
D21*
%TO.C,R52*%
X271300000Y3550000D03*
X271300000Y1900000D03*
%TD*%
D28*
%TO.C,R88*%
X81825000Y43462500D03*
X81825000Y37537500D03*
%TD*%
D10*
%TO.C,C5*%
X89829962Y19187500D03*
X88279962Y19187500D03*
%TD*%
D17*
%TO.C,TP3*%
X116700000Y16800000D03*
%TD*%
D20*
%TO.C,F31*%
X238050000Y47150000D03*
X238050000Y45275000D03*
%TD*%
D25*
%TO.C,C107*%
X234400000Y28800000D03*
X235950000Y28800000D03*
%TD*%
D26*
%TO.C,TH8*%
X144095000Y14700000D03*
D27*
X145995000Y14700000D03*
%TD*%
D16*
%TO.C,R233*%
X278525000Y30375000D03*
X278525000Y32025000D03*
%TD*%
D35*
%TO.C,D5*%
X9737500Y43650000D03*
X9737500Y45550000D03*
X7862500Y44600000D03*
%TD*%
D22*
%TO.C,R19*%
X262525000Y12900000D03*
X260875000Y12900000D03*
%TD*%
D21*
%TO.C,R49*%
X150700000Y7050000D03*
X150700000Y5400000D03*
%TD*%
D16*
%TO.C,R123*%
X166800000Y30275000D03*
X166800000Y31925000D03*
%TD*%
D28*
%TO.C,R112*%
X181100000Y43462500D03*
X181100000Y37537500D03*
%TD*%
D17*
%TO.C,TP4*%
X82400000Y21300000D03*
%TD*%
D10*
%TO.C,C68*%
X21875000Y37100000D03*
X20325000Y37100000D03*
%TD*%
D28*
%TO.C,R172*%
X228650000Y43475000D03*
X228650000Y37550000D03*
%TD*%
D33*
%TO.C,C37*%
X116100000Y20400000D03*
X116100000Y18850000D03*
%TD*%
D19*
%TO.C,D37*%
X142900000Y27000000D03*
X140400000Y27000000D03*
%TD*%
D16*
%TO.C,R90*%
X80775000Y30275000D03*
X80775000Y31925000D03*
%TD*%
D22*
%TO.C,R30*%
X63250000Y30900000D03*
X61600000Y30900000D03*
%TD*%
D10*
%TO.C,C17*%
X269570000Y11600000D03*
X268020000Y11600000D03*
%TD*%
D19*
%TO.C,D50*%
X215650000Y27012500D03*
X213150000Y27012500D03*
%TD*%
D16*
%TO.C,R234*%
X276425000Y30375000D03*
X276425000Y32025000D03*
%TD*%
D19*
%TO.C,D11*%
X127900000Y27000000D03*
X125400000Y27000000D03*
%TD*%
D33*
%TO.C,C89*%
X237000000Y21475000D03*
X237000000Y19925000D03*
%TD*%
D18*
%TO.C,Q42*%
X309050000Y33762500D03*
X310950000Y33762500D03*
X310000000Y35637500D03*
%TD*%
D25*
%TO.C,C105*%
X243725000Y28800000D03*
X245275000Y28800000D03*
%TD*%
D36*
%TO.C,U13*%
X234500000Y20525000D03*
X234000000Y20525000D03*
X233500000Y20525000D03*
X233000000Y20525000D03*
X232500000Y20525000D03*
X232000000Y20525000D03*
X231500000Y20525000D03*
X231000000Y20525000D03*
X230500000Y20525000D03*
X230000000Y20525000D03*
X229500000Y20525000D03*
X229000000Y20525000D03*
X228500000Y20525000D03*
X228000000Y20525000D03*
X227500000Y20525000D03*
X227000000Y20525000D03*
X226500000Y20525000D03*
X226000000Y20525000D03*
X225500000Y20525000D03*
X225000000Y20525000D03*
X224500000Y20525000D03*
X224000000Y20525000D03*
X223500000Y20525000D03*
X223000000Y20525000D03*
X223000000Y13100000D03*
X223500000Y13100000D03*
X224000000Y13100000D03*
X224500000Y13100000D03*
X225000000Y13100000D03*
X225500000Y13100000D03*
X226000000Y13100000D03*
X226500000Y13100000D03*
X227000000Y13100000D03*
X227500000Y13100000D03*
X228000000Y13100000D03*
X228500000Y13100000D03*
X229000000Y13100000D03*
X229500000Y13100000D03*
X230000000Y13100000D03*
X230500000Y13100000D03*
X231000000Y13100000D03*
X231500000Y13100000D03*
X232000000Y13100000D03*
X232500000Y13100000D03*
X233000000Y13100000D03*
X233500000Y13100000D03*
X234000000Y13100000D03*
X234500000Y13100000D03*
%TD*%
D16*
%TO.C,R63*%
X121100000Y30275000D03*
X121100000Y31925000D03*
%TD*%
D25*
%TO.C,C61*%
X87425000Y28800000D03*
X88975000Y28800000D03*
%TD*%
D28*
%TO.C,R133*%
X150250000Y43462500D03*
X150250000Y37537500D03*
%TD*%
D16*
%TO.C,R117*%
X175600000Y30275000D03*
X175600000Y31925000D03*
%TD*%
D21*
%TO.C,TH1*%
X108700000Y52525000D03*
X108700000Y50875000D03*
%TD*%
D34*
%TO.C,C116*%
X271100000Y17125000D03*
X271100000Y18675000D03*
%TD*%
D11*
%TO.C,J19*%
X138400000Y51000000D03*
%TD*%
D19*
%TO.C,D69*%
X264525000Y27100000D03*
X262025000Y27100000D03*
%TD*%
D28*
%TO.C,R229*%
X282100000Y43562500D03*
X282100000Y37637500D03*
%TD*%
D37*
%TO.C,D55*%
X314100000Y23950000D03*
X314100000Y20650000D03*
%TD*%
D10*
%TO.C,C10*%
X149475000Y17700000D03*
X147925000Y17700000D03*
%TD*%
D28*
%TO.C,R184*%
X209950000Y43475000D03*
X209950000Y37550000D03*
%TD*%
D32*
%TO.C,R100*%
X234100000Y9000000D03*
X235750000Y9000000D03*
%TD*%
D16*
%TO.C,R186*%
X208825000Y30287500D03*
X208825000Y31937500D03*
%TD*%
D10*
%TO.C,C7*%
X149475000Y12300000D03*
X147925000Y12300000D03*
%TD*%
D38*
%TO.C,TR3*%
X145220000Y1960000D03*
X145220000Y4500000D03*
X145220000Y7040000D03*
X129580000Y7040000D03*
X129580000Y4500000D03*
X129580000Y1960000D03*
%TD*%
D19*
%TO.C,D62*%
X297150000Y27100000D03*
X294650000Y27100000D03*
%TD*%
D39*
%TO.C,D40*%
X256100000Y18800000D03*
X253300000Y18800000D03*
%TD*%
D28*
%TO.C,R157*%
X252050000Y43462500D03*
X252050000Y37537500D03*
%TD*%
D16*
%TO.C,R72*%
X107600000Y30275000D03*
X107600000Y31925000D03*
%TD*%
D25*
%TO.C,C114*%
X201600000Y28800000D03*
X203150000Y28800000D03*
%TD*%
D16*
%TO.C,R168*%
X236950000Y30287500D03*
X236950000Y31937500D03*
%TD*%
D39*
%TO.C,D8*%
X135175000Y18700000D03*
X132375000Y18700000D03*
%TD*%
D18*
%TO.C,Q24*%
X149300000Y33662500D03*
X151200000Y33662500D03*
X150250000Y35537500D03*
%TD*%
D40*
%TO.C,L1*%
X61625000Y41587500D03*
X61625000Y37087500D03*
%TD*%
D32*
%TO.C,R98*%
X173275000Y9000000D03*
X174925000Y9000000D03*
%TD*%
D20*
%TO.C,F50*%
X272750000Y47237500D03*
X272750000Y45362500D03*
%TD*%
D34*
%TO.C,C24*%
X122800000Y4325000D03*
X122800000Y5875000D03*
%TD*%
D10*
%TO.C,C29*%
X73875000Y4600000D03*
X72325000Y4600000D03*
%TD*%
D28*
%TO.C,R241*%
X263425000Y43562500D03*
X263425000Y37637500D03*
%TD*%
%TO.C,R118*%
X172300000Y43462500D03*
X172300000Y37537500D03*
%TD*%
D18*
%TO.C,Q8*%
X103250000Y33662500D03*
X105150000Y33662500D03*
X104200000Y35537500D03*
%TD*%
D21*
%TO.C,R25*%
X124400000Y6900000D03*
X124400000Y5250000D03*
%TD*%
D19*
%TO.C,D45*%
X239050000Y27012500D03*
X236550000Y27012500D03*
%TD*%
D12*
%TO.C,SW1*%
X1600000Y28540000D03*
D13*
X1600000Y26000000D03*
X1600000Y23460000D03*
X1600000Y20920000D03*
X1600000Y18380000D03*
X1600000Y15840000D03*
X1600000Y13300000D03*
X1600000Y10760000D03*
X9220000Y10760000D03*
X9220000Y13300000D03*
X9220000Y15840000D03*
X9220000Y18380000D03*
X9220000Y20920000D03*
X9220000Y23460000D03*
X9220000Y26000000D03*
X9220000Y28540000D03*
%TD*%
D16*
%TO.C,R45*%
X99100000Y17875000D03*
X99100000Y19525000D03*
%TD*%
D10*
%TO.C,C2*%
X89829962Y13800000D03*
X88279962Y13800000D03*
%TD*%
D19*
%TO.C,D36*%
X147050000Y27000000D03*
X144550000Y27000000D03*
%TD*%
D16*
%TO.C,R128*%
X160300000Y30275000D03*
X160300000Y31925000D03*
%TD*%
%TO.C,R69*%
X112100000Y30275000D03*
X112100000Y31925000D03*
%TD*%
D21*
%TO.C,R93*%
X286200000Y6925000D03*
X286200000Y5275000D03*
%TD*%
D18*
%TO.C,Q3*%
X125750000Y33662500D03*
X127650000Y33662500D03*
X126700000Y35537500D03*
%TD*%
D21*
%TO.C,R40*%
X135100000Y16625000D03*
X135100000Y14975000D03*
%TD*%
D41*
%TO.C,U6*%
X60675000Y44012500D03*
X61625000Y44012500D03*
X62575000Y44012500D03*
X62575000Y46712500D03*
X61625000Y46712500D03*
X60675000Y46712500D03*
%TD*%
D20*
%TO.C,F40*%
X317600000Y43637500D03*
X317600000Y41762500D03*
%TD*%
D15*
%TO.C,D41*%
X222600000Y6212500D03*
X222600000Y7787500D03*
%TD*%
D17*
%TO.C,TP2*%
X61600000Y27300000D03*
%TD*%
D34*
%TO.C,C117*%
X272700000Y15125000D03*
X272700000Y16675000D03*
%TD*%
D16*
%TO.C,R212*%
X311100000Y30375000D03*
X311100000Y32025000D03*
%TD*%
%TO.C,R57*%
X130300000Y30275000D03*
X130300000Y31925000D03*
%TD*%
D25*
%TO.C,C113*%
X206250000Y28800000D03*
X207800000Y28800000D03*
%TD*%
D22*
%TO.C,R11*%
X142225000Y17000000D03*
X140575000Y17000000D03*
%TD*%
D28*
%TO.C,R64*%
X117700000Y43462500D03*
X117700000Y37537500D03*
%TD*%
D26*
%TO.C,TH20*%
X264295000Y17800000D03*
D27*
X266195000Y17800000D03*
%TD*%
D10*
%TO.C,C19*%
X269595000Y15400000D03*
X268045000Y15400000D03*
%TD*%
D16*
%TO.C,R209*%
X315600000Y30375000D03*
X315600000Y32025000D03*
%TD*%
D21*
%TO.C,R50*%
X210400000Y3525000D03*
X210400000Y1875000D03*
%TD*%
D16*
%TO.C,R94*%
X161700000Y6462500D03*
X161700000Y8112500D03*
%TD*%
D21*
%TO.C,R32*%
X110600000Y7125000D03*
X110600000Y5475000D03*
%TD*%
D16*
%TO.C,R89*%
X82925000Y30275000D03*
X82925000Y31925000D03*
%TD*%
D18*
%TO.C,Q33*%
X227700000Y33675000D03*
X229600000Y33675000D03*
X228650000Y35550000D03*
%TD*%
D19*
%TO.C,D65*%
X283200000Y27100000D03*
X280700000Y27100000D03*
%TD*%
D25*
%TO.C,C86*%
X151450000Y28800000D03*
X153000000Y28800000D03*
%TD*%
D21*
%TO.C,R151*%
X12300000Y3250000D03*
X12300000Y1600000D03*
%TD*%
D20*
%TO.C,F39*%
X200600000Y47150000D03*
X200600000Y45275000D03*
%TD*%
D22*
%TO.C,R16*%
X203250000Y15400000D03*
X201600000Y15400000D03*
%TD*%
D10*
%TO.C,C50*%
X108975000Y4600000D03*
X107425000Y4600000D03*
%TD*%
D19*
%TO.C,D46*%
X234400000Y27012500D03*
X231900000Y27012500D03*
%TD*%
D34*
%TO.C,C47*%
X187300000Y4325000D03*
X187300000Y5875000D03*
%TD*%
D22*
%TO.C,FB3*%
X255925000Y31900000D03*
X254275000Y31900000D03*
%TD*%
D10*
%TO.C,C31*%
X64625000Y24750000D03*
X63075000Y24750000D03*
%TD*%
D28*
%TO.C,R67*%
X113200000Y43462500D03*
X113200000Y37537500D03*
%TD*%
D18*
%TO.C,Q5*%
X116750000Y33662500D03*
X118650000Y33662500D03*
X117700000Y35537500D03*
%TD*%
%TO.C,Q45*%
X295100000Y33762500D03*
X297000000Y33762500D03*
X296050000Y35637500D03*
%TD*%
D20*
%TO.C,F23*%
X154700000Y47137500D03*
X154700000Y45262500D03*
%TD*%
D16*
%TO.C,R147*%
X219500000Y17975000D03*
X219500000Y19625000D03*
%TD*%
D34*
%TO.C,C21*%
X58925000Y45137500D03*
X58925000Y46687500D03*
%TD*%
D25*
%TO.C,C70*%
X152325000Y4500000D03*
X153875000Y4500000D03*
%TD*%
D18*
%TO.C,Q11*%
X89850000Y33662500D03*
X91750000Y33662500D03*
X90800000Y35537500D03*
%TD*%
D22*
%TO.C,R10*%
X142225000Y14700000D03*
X140575000Y14700000D03*
%TD*%
D16*
%TO.C,R218*%
X301800000Y30375000D03*
X301800000Y32025000D03*
%TD*%
D18*
%TO.C,Q25*%
X144900000Y33662500D03*
X146800000Y33662500D03*
X145850000Y35537500D03*
%TD*%
D20*
%TO.C,F15*%
X189900000Y47137500D03*
X189900000Y45262500D03*
%TD*%
D21*
%TO.C,R23*%
X244800000Y3475000D03*
X244800000Y1825000D03*
%TD*%
D26*
%TO.C,TH17*%
X264300000Y11200000D03*
D27*
X266200000Y11200000D03*
%TD*%
D10*
%TO.C,C22*%
X269595000Y17100000D03*
X268045000Y17100000D03*
%TD*%
D16*
%TO.C,R180*%
X218350000Y30287500D03*
X218350000Y31937500D03*
%TD*%
D42*
%TO.C,D56*%
X311600000Y23900000D03*
X311600000Y21100000D03*
%TD*%
D19*
%TO.C,D58*%
X315750000Y27100000D03*
X313250000Y27100000D03*
%TD*%
D16*
%TO.C,R161*%
X248400000Y30275000D03*
X248400000Y31925000D03*
%TD*%
D17*
%TO.C,TP10*%
X263500000Y19950000D03*
%TD*%
D22*
%TO.C,R9*%
X142225000Y12000000D03*
X140575000Y12000000D03*
%TD*%
D28*
%TO.C,R169*%
X233450000Y43475000D03*
X233450000Y37550000D03*
%TD*%
D31*
%TO.C,J17*%
X280000000Y51000000D03*
D30*
X277500000Y51000000D03*
X275000000Y51000000D03*
X272500000Y51000000D03*
X270000000Y51000000D03*
X267500000Y51000000D03*
X265000000Y51000000D03*
%TD*%
D26*
%TO.C,TH3*%
X84495000Y15100000D03*
D27*
X86395000Y15100000D03*
%TD*%
D25*
%TO.C,C82*%
X169100000Y28800000D03*
X170650000Y28800000D03*
%TD*%
D34*
%TO.C,C90*%
X216300000Y17025000D03*
X216300000Y18575000D03*
%TD*%
D25*
%TO.C,C55*%
X114400000Y28800000D03*
X115950000Y28800000D03*
%TD*%
D22*
%TO.C,R7*%
X82525000Y19500000D03*
X80875000Y19500000D03*
%TD*%
D20*
%TO.C,F2*%
X130600000Y47137500D03*
X130600000Y45262500D03*
%TD*%
D28*
%TO.C,R217*%
X300700000Y43562500D03*
X300700000Y37637500D03*
%TD*%
%TO.C,R181*%
X214650000Y43475000D03*
X214650000Y37550000D03*
%TD*%
D19*
%TO.C,D61*%
X301800000Y27100000D03*
X299300000Y27100000D03*
%TD*%
D18*
%TO.C,Q19*%
X171350000Y33662500D03*
X173250000Y33662500D03*
X172300000Y35537500D03*
%TD*%
D16*
%TO.C,R74*%
X105400000Y30275000D03*
X105400000Y31925000D03*
%TD*%
D18*
%TO.C,Q2*%
X130450000Y33662500D03*
X132350000Y33662500D03*
X131400000Y35537500D03*
%TD*%
D25*
%TO.C,C56*%
X109900000Y28800000D03*
X111450000Y28800000D03*
%TD*%
D36*
%TO.C,U11*%
X114450000Y20412500D03*
X113950000Y20412500D03*
X113450000Y20412500D03*
X112950000Y20412500D03*
X112450000Y20412500D03*
X111950000Y20412500D03*
X111450000Y20412500D03*
X110950000Y20412500D03*
X110450000Y20412500D03*
X109950000Y20412500D03*
X109450000Y20412500D03*
X108950000Y20412500D03*
X108450000Y20412500D03*
X107950000Y20412500D03*
X107450000Y20412500D03*
X106950000Y20412500D03*
X106450000Y20412500D03*
X105950000Y20412500D03*
X105450000Y20412500D03*
X104950000Y20412500D03*
X104450000Y20412500D03*
X103950000Y20412500D03*
X103450000Y20412500D03*
X102950000Y20412500D03*
X102950000Y12987500D03*
X103450000Y12987500D03*
X103950000Y12987500D03*
X104450000Y12987500D03*
X104950000Y12987500D03*
X105450000Y12987500D03*
X105950000Y12987500D03*
X106450000Y12987500D03*
X106950000Y12987500D03*
X107450000Y12987500D03*
X107950000Y12987500D03*
X108450000Y12987500D03*
X108950000Y12987500D03*
X109450000Y12987500D03*
X109950000Y12987500D03*
X110450000Y12987500D03*
X110950000Y12987500D03*
X111450000Y12987500D03*
X111950000Y12987500D03*
X112450000Y12987500D03*
X112950000Y12987500D03*
X113450000Y12987500D03*
X113950000Y12987500D03*
X114450000Y12987500D03*
%TD*%
D34*
%TO.C,C40*%
X128700000Y18525000D03*
X128700000Y20075000D03*
%TD*%
D16*
%TO.C,R191*%
X201600000Y30275000D03*
X201600000Y31925000D03*
%TD*%
D25*
%TO.C,C59*%
X96400000Y28800000D03*
X97950000Y28800000D03*
%TD*%
D21*
%TO.C,TH16*%
X286500000Y52825000D03*
X286500000Y51175000D03*
%TD*%
D18*
%TO.C,Q38*%
X204300000Y33675000D03*
X206200000Y33675000D03*
X205250000Y35550000D03*
%TD*%
D16*
%TO.C,R110*%
X186700000Y30275000D03*
X186700000Y31925000D03*
%TD*%
D20*
%TO.C,F14*%
X192900000Y47137500D03*
X192900000Y45262500D03*
%TD*%
%TO.C,F8*%
X104200000Y47137500D03*
X104200000Y45262500D03*
%TD*%
D19*
%TO.C,D44*%
X243725000Y27000000D03*
X241225000Y27000000D03*
%TD*%
D20*
%TO.C,F7*%
X108700000Y47137500D03*
X108700000Y45262500D03*
%TD*%
D16*
%TO.C,R99*%
X158300000Y6487500D03*
X158300000Y8137500D03*
%TD*%
D25*
%TO.C,C83*%
X164700000Y28800000D03*
X166250000Y28800000D03*
%TD*%
D19*
%TO.C,D27*%
X186700000Y27000000D03*
X184200000Y27000000D03*
%TD*%
D18*
%TO.C,Q9*%
X98750000Y33662500D03*
X100650000Y33662500D03*
X99700000Y35537500D03*
%TD*%
D25*
%TO.C,C48*%
X290025000Y3600000D03*
X291575000Y3600000D03*
%TD*%
D18*
%TO.C,Q20*%
X166950000Y33662500D03*
X168850000Y33662500D03*
X167900000Y35537500D03*
%TD*%
D19*
%TO.C,D32*%
X164700000Y27000000D03*
X162200000Y27000000D03*
%TD*%
D25*
%TO.C,C60*%
X91900000Y28800000D03*
X93450000Y28800000D03*
%TD*%
%TO.C,C136*%
X283200000Y28900000D03*
X284750000Y28900000D03*
%TD*%
D16*
%TO.C,R150*%
X221000000Y6200000D03*
X221000000Y7850000D03*
%TD*%
D28*
%TO.C,R136*%
X145850000Y43462500D03*
X145850000Y37537500D03*
%TD*%
D19*
%TO.C,D47*%
X229700000Y27012500D03*
X227200000Y27012500D03*
%TD*%
D18*
%TO.C,Q41*%
X313700000Y33762500D03*
X315600000Y33762500D03*
X314650000Y35637500D03*
%TD*%
D19*
%TO.C,D26*%
X191100000Y27000000D03*
X188600000Y27000000D03*
%TD*%
D25*
%TO.C,C76*%
X268125000Y4500000D03*
X269675000Y4500000D03*
%TD*%
D16*
%TO.C,R83*%
X91900000Y30275000D03*
X91900000Y31925000D03*
%TD*%
D22*
%TO.C,R143*%
X243525000Y21500000D03*
X241875000Y21500000D03*
%TD*%
D33*
%TO.C,C93*%
X253600000Y13100000D03*
X253600000Y11550000D03*
%TD*%
D28*
%TO.C,R238*%
X268075000Y43562500D03*
X268075000Y37637500D03*
%TD*%
D25*
%TO.C,C103*%
X253100000Y28800000D03*
X254650000Y28800000D03*
%TD*%
D16*
%TO.C,R227*%
X287850000Y30375000D03*
X287850000Y32025000D03*
%TD*%
D19*
%TO.C,D53*%
X201950000Y27000000D03*
X199450000Y27000000D03*
%TD*%
D34*
%TO.C,C65*%
X157800000Y17525000D03*
X157800000Y19075000D03*
%TD*%
D16*
%TO.C,R144*%
X13900000Y7650000D03*
X13900000Y9300000D03*
%TD*%
%TO.C,R165*%
X241650000Y30275000D03*
X241650000Y31925000D03*
%TD*%
D25*
%TO.C,C134*%
X292500000Y28900000D03*
X294050000Y28900000D03*
%TD*%
D18*
%TO.C,Q12*%
X85375000Y33662500D03*
X87275000Y33662500D03*
X86325000Y35537500D03*
%TD*%
D19*
%TO.C,D13*%
X118900000Y27000000D03*
X116400000Y27000000D03*
%TD*%
D22*
%TO.C,R44*%
X109625000Y10500000D03*
X107975000Y10500000D03*
%TD*%
%TO.C,R146*%
X225725000Y7800000D03*
X224075000Y7800000D03*
%TD*%
D16*
%TO.C,R24*%
X288500000Y5275000D03*
X288500000Y6925000D03*
%TD*%
D19*
%TO.C,D60*%
X306450000Y27100000D03*
X303950000Y27100000D03*
%TD*%
D26*
%TO.C,TH9*%
X144095000Y17000000D03*
D27*
X145995000Y17000000D03*
%TD*%
D21*
%TO.C,R193*%
X306400000Y22825000D03*
X306400000Y21175000D03*
%TD*%
D15*
%TO.C,D57*%
X292200000Y14212500D03*
X292200000Y15787500D03*
%TD*%
D25*
%TO.C,C88*%
X142600000Y28800000D03*
X144150000Y28800000D03*
%TD*%
D16*
%TO.C,R185*%
X210925000Y30287500D03*
X210925000Y31937500D03*
%TD*%
D34*
%TO.C,C42*%
X188800000Y19200000D03*
X188800000Y20750000D03*
%TD*%
D20*
%TO.C,F38*%
X205250000Y47150000D03*
X205250000Y45275000D03*
%TD*%
D19*
%TO.C,D15*%
X109900000Y27000000D03*
X107400000Y27000000D03*
%TD*%
D17*
%TO.C,TP8*%
X203400000Y20200000D03*
%TD*%
D26*
%TO.C,TH7*%
X144095000Y12000000D03*
D27*
X145995000Y12000000D03*
%TD*%
D25*
%TO.C,C57*%
X105400000Y28800000D03*
X106950000Y28800000D03*
%TD*%
D20*
%TO.C,F49*%
X277425000Y47237500D03*
X277425000Y45362500D03*
%TD*%
D16*
%TO.C,R231*%
X281100000Y30375000D03*
X281100000Y32025000D03*
%TD*%
%TO.C,R122*%
X169100000Y30275000D03*
X169100000Y31925000D03*
%TD*%
D28*
%TO.C,R109*%
X185500000Y43462500D03*
X185500000Y37537500D03*
%TD*%
D43*
%TO.C,C25*%
X61625000Y34725000D03*
X59725000Y34725000D03*
%TD*%
D22*
%TO.C,FB1*%
X135425000Y31800000D03*
X133775000Y31800000D03*
%TD*%
%TO.C,R92*%
X183225000Y22500000D03*
X181575000Y22500000D03*
%TD*%
D16*
%TO.C,R80*%
X96400000Y30275000D03*
X96400000Y31925000D03*
%TD*%
D33*
%TO.C,C36*%
X10000000Y41375000D03*
X10000000Y39825000D03*
%TD*%
D16*
%TO.C,R56*%
X132350000Y30275000D03*
X132350000Y31925000D03*
%TD*%
D28*
%TO.C,R58*%
X126700000Y43462500D03*
X126700000Y37537500D03*
%TD*%
D22*
%TO.C,R17*%
X203250000Y18112500D03*
X201600000Y18112500D03*
%TD*%
D25*
%TO.C,C52*%
X127900000Y28800000D03*
X129450000Y28800000D03*
%TD*%
D16*
%TO.C,R132*%
X153600000Y30275000D03*
X153600000Y31925000D03*
%TD*%
D34*
%TO.C,C39*%
X97500000Y17425000D03*
X97500000Y18975000D03*
%TD*%
D11*
%TO.C,J2*%
X234100000Y4000000D03*
%TD*%
D28*
%TO.C,R226*%
X286750000Y43562500D03*
X286750000Y37637500D03*
%TD*%
D20*
%TO.C,F44*%
X300700000Y47237500D03*
X300700000Y45362500D03*
%TD*%
D19*
%TO.C,D64*%
X287850000Y27100000D03*
X285350000Y27100000D03*
%TD*%
D16*
%TO.C,R137*%
X147050000Y30275000D03*
X147050000Y31925000D03*
%TD*%
D33*
%TO.C,C33*%
X26500000Y40800000D03*
X26500000Y39250000D03*
%TD*%
D20*
%TO.C,F34*%
X224175000Y47150000D03*
X224175000Y45275000D03*
%TD*%
D12*
%TO.C,U1*%
X25300000Y1710000D03*
D13*
X25300000Y4250000D03*
X25300000Y6790000D03*
X25300000Y9330000D03*
X25300000Y11870000D03*
X25300000Y14410000D03*
X25300000Y16950000D03*
X25300000Y19490000D03*
X25300000Y22030000D03*
X25300000Y24570000D03*
X25300000Y27110000D03*
X25300000Y29650000D03*
X25300000Y32190000D03*
X25300000Y34730000D03*
X17680000Y34730000D03*
X17680000Y32190000D03*
X17680000Y29650000D03*
X17680000Y27110000D03*
X17680000Y24570000D03*
X17680000Y22030000D03*
X17680000Y19490000D03*
X17680000Y16950000D03*
X17680000Y14410000D03*
X17680000Y11870000D03*
X17680000Y9330000D03*
X17680000Y6790000D03*
X17680000Y4250000D03*
X17680000Y1710000D03*
%TD*%
D18*
%TO.C,Q32*%
X232500000Y33675000D03*
X234400000Y33675000D03*
X233450000Y35550000D03*
%TD*%
D33*
%TO.C,C41*%
X131450000Y14200000D03*
X131450000Y12650000D03*
%TD*%
D25*
%TO.C,C51*%
X132350000Y28800000D03*
X133900000Y28800000D03*
%TD*%
D28*
%TO.C,R163*%
X242700000Y43475000D03*
X242700000Y37550000D03*
%TD*%
D16*
%TO.C,R126*%
X162400000Y30275000D03*
X162400000Y31925000D03*
%TD*%
D25*
%TO.C,C109*%
X225075000Y28800000D03*
X226625000Y28800000D03*
%TD*%
D18*
%TO.C,Q44*%
X299750000Y33762500D03*
X301650000Y33762500D03*
X300700000Y35637500D03*
%TD*%
D20*
%TO.C,F21*%
X163500000Y47137500D03*
X163500000Y45262500D03*
%TD*%
D21*
%TO.C,R47*%
X171800000Y10625000D03*
X171800000Y8975000D03*
%TD*%
D20*
%TO.C,F47*%
X286750000Y47237500D03*
X286750000Y45362500D03*
%TD*%
D18*
%TO.C,Q17*%
X180150000Y33662500D03*
X182050000Y33662500D03*
X181100000Y35537500D03*
%TD*%
D25*
%TO.C,C119*%
X306425000Y19000000D03*
X307975000Y19000000D03*
%TD*%
%TO.C,C80*%
X177900000Y28800000D03*
X179450000Y28800000D03*
%TD*%
D21*
%TO.C,R36*%
X70500000Y3650000D03*
X70500000Y2000000D03*
%TD*%
D20*
%TO.C,F6*%
X113200000Y47137500D03*
X113200000Y45262500D03*
%TD*%
D21*
%TO.C,TH11*%
X228650000Y52462500D03*
X228650000Y50812500D03*
%TD*%
%TO.C,R148*%
X12300000Y8450000D03*
X12300000Y6800000D03*
%TD*%
D22*
%TO.C,R15*%
X203250000Y13200000D03*
X201600000Y13200000D03*
%TD*%
D16*
%TO.C,R65*%
X118900000Y30275000D03*
X118900000Y31925000D03*
%TD*%
D18*
%TO.C,Q18*%
X175750000Y33662500D03*
X177650000Y33662500D03*
X176700000Y35537500D03*
%TD*%
D21*
%TO.C,R27*%
X244800000Y6950000D03*
X244800000Y5300000D03*
%TD*%
D16*
%TO.C,R59*%
X127900000Y30275000D03*
X127900000Y31925000D03*
%TD*%
D20*
%TO.C,F35*%
X219450000Y47150000D03*
X219450000Y45275000D03*
%TD*%
%TO.C,F48*%
X282100000Y47237500D03*
X282100000Y45362500D03*
%TD*%
D44*
%TO.C,U10*%
X22725000Y40790000D03*
X22725000Y43330000D03*
X22725000Y45870000D03*
X22725000Y48410000D03*
X13675000Y48410000D03*
X13675000Y45870000D03*
X13675000Y43330000D03*
X13675000Y40790000D03*
%TD*%
D16*
%TO.C,R182*%
X215650000Y30287500D03*
X215650000Y31937500D03*
%TD*%
D25*
%TO.C,C140*%
X264525000Y28900000D03*
X266075000Y28900000D03*
%TD*%
D29*
%TO.C,JP1*%
X12300000Y27900000D03*
X13600000Y27900000D03*
X14900000Y27900000D03*
%TD*%
D32*
%TO.C,R42*%
X112975000Y7900000D03*
X114625000Y7900000D03*
%TD*%
D20*
%TO.C,F25*%
X146800000Y47137500D03*
X146800000Y45262500D03*
%TD*%
%TO.C,F1*%
X133100000Y47137500D03*
X133100000Y45262500D03*
%TD*%
D16*
%TO.C,R215*%
X306450000Y30375000D03*
X306450000Y32025000D03*
%TD*%
D20*
%TO.C,F37*%
X209950000Y47150000D03*
X209950000Y45275000D03*
%TD*%
%TO.C,F32*%
X233450000Y47150000D03*
X233450000Y45275000D03*
%TD*%
D10*
%TO.C,C26*%
X127575000Y4400000D03*
X126025000Y4400000D03*
%TD*%
D18*
%TO.C,Q26*%
X140450000Y33662500D03*
X142350000Y33662500D03*
X141400000Y35537500D03*
%TD*%
D16*
%TO.C,R243*%
X262425000Y30350000D03*
X262425000Y32000000D03*
%TD*%
%TO.C,R239*%
X269175000Y30375000D03*
X269175000Y32025000D03*
%TD*%
D33*
%TO.C,C67*%
X191100000Y14800000D03*
X191100000Y13250000D03*
%TD*%
D25*
%TO.C,C137*%
X278525000Y28900000D03*
X280075000Y28900000D03*
%TD*%
D18*
%TO.C,Q52*%
X262475000Y33762500D03*
X264375000Y33762500D03*
X263425000Y35637500D03*
%TD*%
D25*
%TO.C,C85*%
X155900000Y28800000D03*
X157450000Y28800000D03*
%TD*%
D28*
%TO.C,R190*%
X200600000Y43462500D03*
X200600000Y37537500D03*
%TD*%
D30*
%TO.C,J11*%
X87700000Y51000000D03*
X90200000Y51000000D03*
X92700000Y51000000D03*
X95200000Y51000000D03*
X97700000Y51000000D03*
X100200000Y51000000D03*
D31*
X102700000Y51000000D03*
%TD*%
D21*
%TO.C,R102*%
X15100000Y23525000D03*
X15100000Y21875000D03*
%TD*%
D20*
%TO.C,F42*%
X307600000Y47137500D03*
X307600000Y45262500D03*
%TD*%
D34*
%TO.C,C20*%
X64675000Y44025000D03*
X64675000Y45575000D03*
%TD*%
D26*
%TO.C,TH5*%
X84495000Y19500000D03*
D27*
X86395000Y19500000D03*
%TD*%
D19*
%TO.C,D48*%
X225150000Y27012500D03*
X222650000Y27012500D03*
%TD*%
%TO.C,D42*%
X253100000Y27000000D03*
X250600000Y27000000D03*
%TD*%
D28*
%TO.C,R82*%
X90800000Y43462500D03*
X90800000Y37537500D03*
%TD*%
D16*
%TO.C,R87*%
X85300000Y30275000D03*
X85300000Y31925000D03*
%TD*%
D25*
%TO.C,C139*%
X269175000Y28900000D03*
X270725000Y28900000D03*
%TD*%
D16*
%TO.C,R173*%
X229700000Y30287500D03*
X229700000Y31937500D03*
%TD*%
D17*
%TO.C,TP5*%
X183700000Y19500000D03*
%TD*%
D16*
%TO.C,R131*%
X155900000Y30275000D03*
X155900000Y31925000D03*
%TD*%
%TO.C,R66*%
X116600000Y30275000D03*
X116600000Y31925000D03*
%TD*%
%TO.C,R129*%
X158000000Y30275000D03*
X158000000Y31925000D03*
%TD*%
D28*
%TO.C,R208*%
X314650000Y43562500D03*
X314650000Y37637500D03*
%TD*%
D34*
%TO.C,C91*%
X217900000Y17525000D03*
X217900000Y19075000D03*
%TD*%
D18*
%TO.C,Q7*%
X107750000Y33662500D03*
X109650000Y33662500D03*
X108700000Y35537500D03*
%TD*%
D16*
%TO.C,R140*%
X142600000Y30275000D03*
X142600000Y31925000D03*
%TD*%
D25*
%TO.C,C32*%
X63075000Y23200000D03*
X64625000Y23200000D03*
%TD*%
D34*
%TO.C,C43*%
X250900000Y17625000D03*
X250900000Y19175000D03*
%TD*%
D22*
%TO.C,R194*%
X304400000Y22800000D03*
X302750000Y22800000D03*
%TD*%
D33*
%TO.C,C115*%
X290600000Y19775000D03*
X290600000Y18225000D03*
%TD*%
D14*
%TO.C,D7*%
X135150000Y21100000D03*
X131850000Y21100000D03*
%TD*%
D19*
%TO.C,D29*%
X177900000Y27000000D03*
X175400000Y27000000D03*
%TD*%
D18*
%TO.C,Q4*%
X121250000Y33662500D03*
X123150000Y33662500D03*
X122200000Y35537500D03*
%TD*%
D16*
%TO.C,R183*%
X213550000Y30287500D03*
X213550000Y31937500D03*
%TD*%
D21*
%TO.C,R46*%
X150700000Y3550000D03*
X150700000Y1900000D03*
%TD*%
D18*
%TO.C,Q23*%
X153750000Y33662500D03*
X155650000Y33662500D03*
X154700000Y35537500D03*
%TD*%
D10*
%TO.C,C8*%
X149475000Y14500000D03*
X147925000Y14500000D03*
%TD*%
D20*
%TO.C,F52*%
X263400000Y47237500D03*
X263400000Y45362500D03*
%TD*%
D28*
%TO.C,R223*%
X291400000Y43562500D03*
X291400000Y37637500D03*
%TD*%
D18*
%TO.C,Q10*%
X94250000Y33662500D03*
X96150000Y33662500D03*
X95200000Y35537500D03*
%TD*%
D20*
%TO.C,F9*%
X99700000Y47137500D03*
X99700000Y45262500D03*
%TD*%
D16*
%TO.C,R134*%
X151450000Y30275000D03*
X151450000Y31925000D03*
%TD*%
D10*
%TO.C,C6*%
X149475000Y10700000D03*
X147925000Y10700000D03*
%TD*%
D28*
%TO.C,R73*%
X104200000Y43462500D03*
X104200000Y37537500D03*
%TD*%
%TO.C,R124*%
X163500000Y43462500D03*
X163500000Y37537500D03*
%TD*%
D45*
%TO.C,J6*%
X71500000Y31800000D03*
D46*
X73600000Y39100000D03*
D47*
X69400000Y39100000D03*
X73600000Y44600000D03*
X69400000Y44600000D03*
%TD*%
D16*
%TO.C,R103*%
X13500000Y20175000D03*
X13500000Y21825000D03*
%TD*%
D18*
%TO.C,Q28*%
X251100000Y33662500D03*
X253000000Y33662500D03*
X252050000Y35537500D03*
%TD*%
D16*
%TO.C,R222*%
X295050000Y30375000D03*
X295050000Y32025000D03*
%TD*%
D14*
%TO.C,D6*%
X135150000Y23500000D03*
X131850000Y23500000D03*
%TD*%
D16*
%TO.C,R177*%
X223050000Y30287500D03*
X223050000Y31937500D03*
%TD*%
D20*
%TO.C,F27*%
X253400000Y47137500D03*
X253400000Y45262500D03*
%TD*%
D19*
%TO.C,D30*%
X173500000Y27000000D03*
X171000000Y27000000D03*
%TD*%
D48*
%TO.C,D9*%
X121300000Y20187500D03*
X121300000Y18612500D03*
%TD*%
D21*
%TO.C,R37*%
X70500000Y7125000D03*
X70500000Y5475000D03*
%TD*%
D20*
%TO.C,F36*%
X214650000Y47150000D03*
X214650000Y45275000D03*
%TD*%
D16*
%TO.C,R96*%
X159400000Y17875000D03*
X159400000Y19525000D03*
%TD*%
D38*
%TO.C,TR5*%
X265720000Y1960000D03*
X265720000Y4500000D03*
X265720000Y7040000D03*
X250080000Y7040000D03*
X250080000Y4500000D03*
X250080000Y1960000D03*
%TD*%
D28*
%TO.C,R175*%
X224175000Y43475000D03*
X224175000Y37550000D03*
%TD*%
D16*
%TO.C,R95*%
X163300000Y6462500D03*
X163300000Y8112500D03*
%TD*%
D26*
%TO.C,TH18*%
X264300000Y13500000D03*
D27*
X266200000Y13500000D03*
%TD*%
D22*
%TO.C,R39*%
X61525000Y29350000D03*
X59875000Y29350000D03*
%TD*%
D20*
%TO.C,F16*%
X185500000Y47137500D03*
X185500000Y45262500D03*
%TD*%
D16*
%TO.C,R159*%
X250700000Y30275000D03*
X250700000Y31925000D03*
%TD*%
%TO.C,R81*%
X94100000Y30275000D03*
X94100000Y31925000D03*
%TD*%
D25*
%TO.C,C133*%
X297150000Y28900000D03*
X298700000Y28900000D03*
%TD*%
%TO.C,C108*%
X229700000Y28800000D03*
X231250000Y28800000D03*
%TD*%
D21*
%TO.C,R51*%
X210400000Y6925000D03*
X210400000Y5275000D03*
%TD*%
D14*
%TO.C,D22*%
X194250000Y19800000D03*
X190950000Y19800000D03*
%TD*%
D16*
%TO.C,R179*%
X220450000Y30287500D03*
X220450000Y31937500D03*
%TD*%
D18*
%TO.C,Q47*%
X285800000Y33762500D03*
X287700000Y33762500D03*
X286750000Y35637500D03*
%TD*%
D49*
%TO.C,Q1*%
X128700000Y11900000D03*
X128700000Y14200000D03*
X128700000Y16500000D03*
D50*
X122400000Y14200000D03*
%TD*%
D11*
%TO.C,J4*%
X172700000Y4000000D03*
%TD*%
D17*
%TO.C,TP6*%
X140900000Y21400000D03*
%TD*%
D22*
%TO.C,R6*%
X82525000Y17300000D03*
X80875000Y17300000D03*
%TD*%
D15*
%TO.C,D4*%
X64650000Y26262500D03*
X64650000Y27837500D03*
%TD*%
D16*
%TO.C,R230*%
X283200000Y30375000D03*
X283200000Y32025000D03*
%TD*%
%TO.C,R114*%
X180000000Y30275000D03*
X180000000Y31925000D03*
%TD*%
%TO.C,R113*%
X182300000Y30275000D03*
X182300000Y31925000D03*
%TD*%
%TO.C,R224*%
X292500000Y30375000D03*
X292500000Y32025000D03*
%TD*%
D25*
%TO.C,C112*%
X210925000Y28800000D03*
X212475000Y28800000D03*
%TD*%
D33*
%TO.C,C63*%
X175800000Y21675000D03*
X175800000Y20125000D03*
%TD*%
D22*
%TO.C,R35*%
X72225000Y23100000D03*
X70575000Y23100000D03*
%TD*%
D16*
%TO.C,R60*%
X125600000Y30275000D03*
X125600000Y31925000D03*
%TD*%
D21*
%TO.C,TH6*%
X167900000Y51825000D03*
X167900000Y50175000D03*
%TD*%
D17*
%TO.C,TP9*%
X294200000Y17700000D03*
%TD*%
D25*
%TO.C,C30*%
X67325000Y4600000D03*
X68875000Y4600000D03*
%TD*%
D20*
%TO.C,F12*%
X86325000Y47137500D03*
X86325000Y45262500D03*
%TD*%
D16*
%TO.C,R198*%
X274300000Y15175000D03*
X274300000Y16825000D03*
%TD*%
D25*
%TO.C,C106*%
X239050000Y28800000D03*
X240600000Y28800000D03*
%TD*%
%TO.C,C129*%
X315750000Y28900000D03*
X317300000Y28900000D03*
%TD*%
D19*
%TO.C,D19*%
X91900000Y27000000D03*
X89400000Y27000000D03*
%TD*%
D22*
%TO.C,FB4*%
X318725000Y32000000D03*
X317075000Y32000000D03*
%TD*%
D16*
%TO.C,R236*%
X273850000Y30375000D03*
X273850000Y32025000D03*
%TD*%
D28*
%TO.C,R61*%
X122200000Y43462500D03*
X122200000Y37537500D03*
%TD*%
%TO.C,R235*%
X272750000Y43562500D03*
X272750000Y37637500D03*
%TD*%
D32*
%TO.C,R31*%
X63475000Y32500000D03*
X65125000Y32500000D03*
%TD*%
D33*
%TO.C,C27*%
X28200000Y48650000D03*
X28200000Y47100000D03*
%TD*%
D21*
%TO.C,R97*%
X114600000Y6425000D03*
X114600000Y4775000D03*
%TD*%
D28*
%TO.C,R160*%
X247450000Y43462500D03*
X247450000Y37537500D03*
%TD*%
D25*
%TO.C,C53*%
X123400000Y28800000D03*
X124950000Y28800000D03*
%TD*%
D19*
%TO.C,D17*%
X100900000Y27000000D03*
X98400000Y27000000D03*
%TD*%
D18*
%TO.C,Q31*%
X237100000Y33675000D03*
X239000000Y33675000D03*
X238050000Y35550000D03*
%TD*%
D16*
%TO.C,R174*%
X227650000Y30287500D03*
X227650000Y31937500D03*
%TD*%
D20*
%TO.C,F43*%
X305000000Y47237500D03*
X305000000Y45362500D03*
%TD*%
D19*
%TO.C,D63*%
X292500000Y27100000D03*
X290000000Y27100000D03*
%TD*%
D18*
%TO.C,Q34*%
X223225000Y33675000D03*
X225125000Y33675000D03*
X224175000Y35550000D03*
%TD*%
D16*
%TO.C,R75*%
X103100000Y30275000D03*
X103100000Y31925000D03*
%TD*%
D20*
%TO.C,F4*%
X122200000Y47137500D03*
X122200000Y45262500D03*
%TD*%
D19*
%TO.C,D16*%
X105400000Y27000000D03*
X102900000Y27000000D03*
%TD*%
D21*
%TO.C,R142*%
X256100000Y16825000D03*
X256100000Y15175000D03*
%TD*%
D16*
%TO.C,R240*%
X267075000Y30375000D03*
X267075000Y32025000D03*
%TD*%
D30*
%TO.C,J10*%
X114700000Y51000000D03*
X117200000Y51000000D03*
X119700000Y51000000D03*
X122200000Y51000000D03*
X124700000Y51000000D03*
X127200000Y51000000D03*
D31*
X129700000Y51000000D03*
%TD*%
D10*
%TO.C,C75*%
X247875000Y4400000D03*
X246325000Y4400000D03*
%TD*%
D16*
%TO.C,R135*%
X149150000Y30275000D03*
X149150000Y31925000D03*
%TD*%
D39*
%TO.C,D24*%
X194150000Y24600000D03*
X191350000Y24600000D03*
%TD*%
D16*
%TO.C,R78*%
X98600000Y30275000D03*
X98600000Y31925000D03*
%TD*%
%TO.C,R219*%
X299700000Y30375000D03*
X299700000Y32025000D03*
%TD*%
D10*
%TO.C,C11*%
X210475000Y10800000D03*
X208925000Y10800000D03*
%TD*%
D20*
%TO.C,F33*%
X228650000Y47150000D03*
X228650000Y45275000D03*
%TD*%
D21*
%TO.C,R29*%
X110600000Y3725000D03*
X110600000Y2075000D03*
%TD*%
D20*
%TO.C,F28*%
X251300000Y47137500D03*
X251300000Y45262500D03*
%TD*%
D16*
%TO.C,R188*%
X206250000Y30287500D03*
X206250000Y31937500D03*
%TD*%
D10*
%TO.C,C12*%
X210475000Y12900000D03*
X208925000Y12900000D03*
%TD*%
D20*
%TO.C,F22*%
X159100000Y47137500D03*
X159100000Y45262500D03*
%TD*%
%TO.C,F3*%
X126700000Y47137500D03*
X126700000Y45262500D03*
%TD*%
D16*
%TO.C,R77*%
X100900000Y30275000D03*
X100900000Y31925000D03*
%TD*%
%TO.C,R62*%
X123400000Y30275000D03*
X123400000Y31925000D03*
%TD*%
D36*
%TO.C,U12*%
X173650000Y20412500D03*
X173150000Y20412500D03*
X172650000Y20412500D03*
X172150000Y20412500D03*
X171650000Y20412500D03*
X171150000Y20412500D03*
X170650000Y20412500D03*
X170150000Y20412500D03*
X169650000Y20412500D03*
X169150000Y20412500D03*
X168650000Y20412500D03*
X168150000Y20412500D03*
X167650000Y20412500D03*
X167150000Y20412500D03*
X166650000Y20412500D03*
X166150000Y20412500D03*
X165650000Y20412500D03*
X165150000Y20412500D03*
X164650000Y20412500D03*
X164150000Y20412500D03*
X163650000Y20412500D03*
X163150000Y20412500D03*
X162650000Y20412500D03*
X162150000Y20412500D03*
X162150000Y12987500D03*
X162650000Y12987500D03*
X163150000Y12987500D03*
X163650000Y12987500D03*
X164150000Y12987500D03*
X164650000Y12987500D03*
X165150000Y12987500D03*
X165650000Y12987500D03*
X166150000Y12987500D03*
X166650000Y12987500D03*
X167150000Y12987500D03*
X167650000Y12987500D03*
X168150000Y12987500D03*
X168650000Y12987500D03*
X169150000Y12987500D03*
X169650000Y12987500D03*
X170150000Y12987500D03*
X170650000Y12987500D03*
X171150000Y12987500D03*
X171650000Y12987500D03*
X172150000Y12987500D03*
X172650000Y12987500D03*
X173150000Y12987500D03*
X173650000Y12987500D03*
%TD*%
D16*
%TO.C,R213*%
X309000000Y30375000D03*
X309000000Y32025000D03*
%TD*%
D18*
%TO.C,Q13*%
X80875000Y33662500D03*
X82775000Y33662500D03*
X81825000Y35537500D03*
%TD*%
D21*
%TO.C,R101*%
X286200000Y3825000D03*
X286200000Y2175000D03*
%TD*%
D10*
%TO.C,C96*%
X291575000Y5800000D03*
X290025000Y5800000D03*
%TD*%
D36*
%TO.C,U14*%
X288050000Y17612500D03*
X287550000Y17612500D03*
X287050000Y17612500D03*
X286550000Y17612500D03*
X286050000Y17612500D03*
X285550000Y17612500D03*
X285050000Y17612500D03*
X284550000Y17612500D03*
X284050000Y17612500D03*
X283550000Y17612500D03*
X283050000Y17612500D03*
X282550000Y17612500D03*
X282050000Y17612500D03*
X281550000Y17612500D03*
X281050000Y17612500D03*
X280550000Y17612500D03*
X280050000Y17612500D03*
X279550000Y17612500D03*
X279050000Y17612500D03*
X278550000Y17612500D03*
X278050000Y17612500D03*
X277550000Y17612500D03*
X277050000Y17612500D03*
X276550000Y17612500D03*
X276550000Y10187500D03*
X277050000Y10187500D03*
X277550000Y10187500D03*
X278050000Y10187500D03*
X278550000Y10187500D03*
X279050000Y10187500D03*
X279550000Y10187500D03*
X280050000Y10187500D03*
X280550000Y10187500D03*
X281050000Y10187500D03*
X281550000Y10187500D03*
X282050000Y10187500D03*
X282550000Y10187500D03*
X283050000Y10187500D03*
X283550000Y10187500D03*
X284050000Y10187500D03*
X284550000Y10187500D03*
X285050000Y10187500D03*
X285550000Y10187500D03*
X286050000Y10187500D03*
X286550000Y10187500D03*
X287050000Y10187500D03*
X287550000Y10187500D03*
X288050000Y10187500D03*
%TD*%
D21*
%TO.C,R1*%
X124400000Y3500000D03*
X124400000Y1850000D03*
%TD*%
D49*
%TO.C,Q27*%
X250950000Y10800000D03*
X250950000Y13100000D03*
X250950000Y15400000D03*
D50*
X244650000Y13100000D03*
%TD*%
D18*
%TO.C,Q22*%
X158150000Y33662500D03*
X160050000Y33662500D03*
X159100000Y35537500D03*
%TD*%
D28*
%TO.C,R214*%
X305350000Y43562500D03*
X305350000Y37637500D03*
%TD*%
D16*
%TO.C,R107*%
X191100000Y30275000D03*
X191100000Y31925000D03*
%TD*%
%TO.C,R84*%
X89600000Y30275000D03*
X89600000Y31925000D03*
%TD*%
D19*
%TO.C,D33*%
X160300000Y27000000D03*
X157800000Y27000000D03*
%TD*%
D34*
%TO.C,C66*%
X304000000Y18725000D03*
X304000000Y20275000D03*
%TD*%
D25*
%TO.C,C71*%
X212025000Y4400000D03*
X213575000Y4400000D03*
%TD*%
D16*
%TO.C,R108*%
X188800000Y30275000D03*
X188800000Y31925000D03*
%TD*%
%TO.C,R228*%
X285750000Y30375000D03*
X285750000Y32025000D03*
%TD*%
D10*
%TO.C,C16*%
X269570000Y10100000D03*
X268020000Y10100000D03*
%TD*%
D16*
%TO.C,R221*%
X297150000Y30375000D03*
X297150000Y32025000D03*
%TD*%
D34*
%TO.C,C64*%
X156200000Y16925000D03*
X156200000Y18475000D03*
%TD*%
D11*
%TO.C,J3*%
X4000000Y51000000D03*
%TD*%
D28*
%TO.C,R130*%
X154700000Y43462500D03*
X154700000Y37537500D03*
%TD*%
D19*
%TO.C,D49*%
X220450000Y27012500D03*
X217950000Y27012500D03*
%TD*%
D16*
%TO.C,R164*%
X243725000Y30275000D03*
X243725000Y31925000D03*
%TD*%
D20*
%TO.C,F11*%
X90800000Y47137500D03*
X90800000Y45262500D03*
%TD*%
D18*
%TO.C,Q49*%
X276475000Y33762500D03*
X278375000Y33762500D03*
X277425000Y35637500D03*
%TD*%
D25*
%TO.C,C45*%
X147525000Y4500000D03*
X149075000Y4500000D03*
%TD*%
D28*
%TO.C,R115*%
X176700000Y43462500D03*
X176700000Y37537500D03*
%TD*%
D10*
%TO.C,C3*%
X89829962Y15300000D03*
X88279962Y15300000D03*
%TD*%
D16*
%TO.C,R158*%
X252800000Y30275000D03*
X252800000Y31925000D03*
%TD*%
D19*
%TO.C,D18*%
X96400000Y27000000D03*
X93900000Y27000000D03*
%TD*%
D22*
%TO.C,R33*%
X64625000Y29350000D03*
X62975000Y29350000D03*
%TD*%
D20*
%TO.C,F45*%
X296050000Y47237500D03*
X296050000Y45362500D03*
%TD*%
D28*
%TO.C,R166*%
X238050000Y43475000D03*
X238050000Y37550000D03*
%TD*%
D16*
%TO.C,R141*%
X140300000Y30275000D03*
X140300000Y31925000D03*
%TD*%
D22*
%TO.C,R41*%
X126500000Y23400000D03*
X124850000Y23400000D03*
%TD*%
D18*
%TO.C,Q15*%
X188950000Y33662500D03*
X190850000Y33662500D03*
X189900000Y35537500D03*
%TD*%
D25*
%TO.C,C130*%
X311100000Y28900000D03*
X312650000Y28900000D03*
%TD*%
D20*
%TO.C,F13*%
X81825000Y47137500D03*
X81825000Y45262500D03*
%TD*%
D26*
%TO.C,TH4*%
X84495000Y17300000D03*
D27*
X86395000Y17300000D03*
%TD*%
D14*
%TO.C,D38*%
X256100000Y23600000D03*
X252800000Y23600000D03*
%TD*%
D10*
%TO.C,C15*%
X210475000Y18300000D03*
X208925000Y18300000D03*
%TD*%
D20*
%TO.C,F30*%
X242700000Y47137500D03*
X242700000Y45262500D03*
%TD*%
D22*
%TO.C,FB2*%
X194300000Y33650000D03*
X192650000Y33650000D03*
%TD*%
D28*
%TO.C,R139*%
X141400000Y43462500D03*
X141400000Y37537500D03*
%TD*%
D32*
%TO.C,R13*%
X201600000Y9912500D03*
X203250000Y9912500D03*
%TD*%
D25*
%TO.C,C135*%
X287850000Y28900000D03*
X289400000Y28900000D03*
%TD*%
D30*
%TO.C,J13*%
X147200000Y51000000D03*
X149700000Y51000000D03*
X152200000Y51000000D03*
X154700000Y51000000D03*
X157200000Y51000000D03*
X159700000Y51000000D03*
D31*
X162200000Y51000000D03*
%TD*%
D11*
%TO.C,J18*%
X71000000Y51000000D03*
%TD*%
D19*
%TO.C,D10*%
X132325000Y27000000D03*
X129825000Y27000000D03*
%TD*%
D43*
%TO.C,C23*%
X61625000Y32700000D03*
X59725000Y32700000D03*
%TD*%
D25*
%TO.C,C104*%
X248400000Y28800000D03*
X249950000Y28800000D03*
%TD*%
D20*
%TO.C,F26*%
X143900000Y47137500D03*
X143900000Y45262500D03*
%TD*%
D25*
%TO.C,C58*%
X100900000Y28800000D03*
X102450000Y28800000D03*
%TD*%
D10*
%TO.C,C13*%
X210475000Y14600000D03*
X208925000Y14600000D03*
%TD*%
D51*
%TO.C,U9*%
X63133756Y21600000D03*
X63133756Y21100000D03*
X63133756Y20600000D03*
X63133756Y20100000D03*
X63133756Y19600000D03*
X63133756Y19100000D03*
X63133756Y18600000D03*
X63133756Y18100000D03*
X67433756Y18100000D03*
X67433756Y18600000D03*
X67433756Y19100000D03*
X67433756Y19600000D03*
X67433756Y20100000D03*
X67433756Y20600000D03*
X67433756Y21100000D03*
X67433756Y21600000D03*
%TD*%
D16*
%TO.C,R171*%
X232300000Y30287500D03*
X232300000Y31937500D03*
%TD*%
D28*
%TO.C,R55*%
X131400000Y43462500D03*
X131400000Y37537500D03*
%TD*%
%TO.C,R70*%
X108700000Y43462500D03*
X108700000Y37537500D03*
%TD*%
D16*
%TO.C,R176*%
X225150000Y30287500D03*
X225150000Y31937500D03*
%TD*%
D19*
%TO.C,D20*%
X87425000Y27000000D03*
X84925000Y27000000D03*
%TD*%
D16*
%TO.C,R68*%
X114400000Y30275000D03*
X114400000Y31925000D03*
%TD*%
D25*
%TO.C,C111*%
X215650000Y28800000D03*
X217200000Y28800000D03*
%TD*%
D22*
%TO.C,R197*%
X283225000Y7500000D03*
X281575000Y7500000D03*
%TD*%
D18*
%TO.C,Q16*%
X184550000Y33662500D03*
X186450000Y33662500D03*
X185500000Y35537500D03*
%TD*%
D25*
%TO.C,C131*%
X306450000Y28900000D03*
X308000000Y28900000D03*
%TD*%
D21*
%TO.C,R105*%
X13200000Y13550000D03*
X13200000Y11900000D03*
%TD*%
D16*
%TO.C,R242*%
X264525000Y30375000D03*
X264525000Y32025000D03*
%TD*%
%TO.C,R149*%
X13900000Y2550000D03*
X13900000Y4200000D03*
%TD*%
%TO.C,R125*%
X164700000Y30275000D03*
X164700000Y31925000D03*
%TD*%
D20*
%TO.C,F20*%
X167900000Y47137500D03*
X167900000Y45262500D03*
%TD*%
%TO.C,F41*%
X310200000Y47237500D03*
X310200000Y45362500D03*
%TD*%
D22*
%TO.C,R21*%
X262525000Y16100000D03*
X260875000Y16100000D03*
%TD*%
D28*
%TO.C,R220*%
X296050000Y43562500D03*
X296050000Y37637500D03*
%TD*%
D21*
%TO.C,R54*%
X232600000Y10625000D03*
X232600000Y8975000D03*
%TD*%
D22*
%TO.C,R5*%
X82525000Y15100000D03*
X80875000Y15100000D03*
%TD*%
D19*
%TO.C,D66*%
X278525000Y27100000D03*
X276025000Y27100000D03*
%TD*%
D26*
%TO.C,TH15*%
X205195000Y18100000D03*
D27*
X207095000Y18100000D03*
%TD*%
D25*
%TO.C,C54*%
X118900000Y28800000D03*
X120450000Y28800000D03*
%TD*%
%TO.C,C77*%
X191100000Y28800000D03*
X192650000Y28800000D03*
%TD*%
D16*
%TO.C,R162*%
X246300000Y30275000D03*
X246300000Y31925000D03*
%TD*%
D28*
%TO.C,R85*%
X86325000Y43462500D03*
X86325000Y37537500D03*
%TD*%
D19*
%TO.C,D34*%
X155900000Y27000000D03*
X153400000Y27000000D03*
%TD*%
D16*
%TO.C,R111*%
X184400000Y30275000D03*
X184400000Y31925000D03*
%TD*%
D19*
%TO.C,D21*%
X83250000Y27000000D03*
X80750000Y27000000D03*
%TD*%
D49*
%TO.C,Q14*%
X188850000Y12500000D03*
X188850000Y14800000D03*
X188850000Y17100000D03*
D50*
X182550000Y14800000D03*
%TD*%
D22*
%TO.C,R20*%
X262525000Y14500000D03*
X260875000Y14500000D03*
%TD*%
D28*
%TO.C,R106*%
X189900000Y43462500D03*
X189900000Y37537500D03*
%TD*%
D16*
%TO.C,R192*%
X199500000Y30275000D03*
X199500000Y31925000D03*
%TD*%
D25*
%TO.C,C87*%
X147050000Y28800000D03*
X148600000Y28800000D03*
%TD*%
D20*
%TO.C,F24*%
X150250000Y47137500D03*
X150250000Y45262500D03*
%TD*%
D11*
%TO.C,J8*%
X61100000Y4000000D03*
%TD*%
D38*
%TO.C,TR6*%
X309170000Y1860000D03*
X309170000Y4400000D03*
X309170000Y6940000D03*
X293530000Y6940000D03*
X293530000Y4400000D03*
X293530000Y1860000D03*
%TD*%
D49*
%TO.C,Q40*%
X303950000Y12000000D03*
X303950000Y14300000D03*
X303950000Y16600000D03*
D50*
X297650000Y14300000D03*
%TD*%
D29*
%TO.C,JP2*%
X12300000Y30500000D03*
X13600000Y30500000D03*
X14900000Y30500000D03*
%TD*%
D22*
%TO.C,R22*%
X262525000Y17800000D03*
X260875000Y17800000D03*
%TD*%
D14*
%TO.C,D23*%
X194250000Y22200000D03*
X190950000Y22200000D03*
%TD*%
D32*
%TO.C,R3*%
X80875000Y11700000D03*
X82525000Y11700000D03*
%TD*%
D18*
%TO.C,Q37*%
X209000000Y33675000D03*
X210900000Y33675000D03*
X209950000Y35550000D03*
%TD*%
D21*
%TO.C,R201*%
X292200000Y12725000D03*
X292200000Y11075000D03*
%TD*%
D30*
%TO.C,J12*%
X173600000Y51000000D03*
X176100000Y51000000D03*
X178600000Y51000000D03*
X181100000Y51000000D03*
X183600000Y51000000D03*
X186100000Y51000000D03*
D31*
X188600000Y51000000D03*
%TD*%
D18*
%TO.C,Q48*%
X281150000Y33762500D03*
X283050000Y33762500D03*
X282100000Y35637500D03*
%TD*%
D32*
%TO.C,R8*%
X140575000Y10400000D03*
X142225000Y10400000D03*
%TD*%
D30*
%TO.C,J16*%
X293000000Y51000000D03*
X295500000Y51000000D03*
X298000000Y51000000D03*
X300500000Y51000000D03*
X303000000Y51000000D03*
X305500000Y51000000D03*
D31*
X308000000Y51000000D03*
%TD*%
D16*
%TO.C,R119*%
X173500000Y30275000D03*
X173500000Y31925000D03*
%TD*%
%TO.C,R237*%
X271750000Y30375000D03*
X271750000Y32025000D03*
%TD*%
D22*
%TO.C,R38*%
X69118756Y23050000D03*
X67468756Y23050000D03*
%TD*%
%TO.C,R196*%
X283225000Y5900000D03*
X281575000Y5900000D03*
%TD*%
D26*
%TO.C,TH12*%
X205195000Y11000000D03*
D27*
X207095000Y11000000D03*
%TD*%
D19*
%TO.C,D31*%
X169100000Y27000000D03*
X166600000Y27000000D03*
%TD*%
%TO.C,D51*%
X210925000Y27012500D03*
X208425000Y27012500D03*
%TD*%
D28*
%TO.C,R178*%
X219450000Y43475000D03*
X219450000Y37550000D03*
%TD*%
D10*
%TO.C,C14*%
X210475000Y16112500D03*
X208925000Y16112500D03*
%TD*%
D34*
%TO.C,C44*%
X183200000Y4325000D03*
X183200000Y5875000D03*
%TD*%
D16*
%TO.C,R28*%
X288500000Y2175000D03*
X288500000Y3825000D03*
%TD*%
D22*
%TO.C,R14*%
X203250000Y11512500D03*
X201600000Y11512500D03*
%TD*%
D19*
%TO.C,D67*%
X273850000Y27100000D03*
X271350000Y27100000D03*
%TD*%
D21*
%TO.C,R53*%
X271300000Y7000000D03*
X271300000Y5350000D03*
%TD*%
D19*
%TO.C,D12*%
X123400000Y27000000D03*
X120900000Y27000000D03*
%TD*%
D34*
%TO.C,C46*%
X243200000Y4625000D03*
X243200000Y6175000D03*
%TD*%
D22*
%TO.C,R43*%
X109625000Y8900000D03*
X107975000Y8900000D03*
%TD*%
D10*
%TO.C,C1*%
X89829962Y12100000D03*
X88279962Y12100000D03*
%TD*%
D28*
%TO.C,R232*%
X277425000Y43562500D03*
X277425000Y37637500D03*
%TD*%
D37*
%TO.C,D54*%
X316600000Y23950000D03*
X316600000Y20650000D03*
%TD*%
D11*
%TO.C,J7*%
X4000000Y4000000D03*
%TD*%
D16*
%TO.C,R116*%
X177900000Y30275000D03*
X177900000Y31925000D03*
%TD*%
D26*
%TO.C,TH10*%
X144095000Y19200000D03*
D27*
X145995000Y19200000D03*
%TD*%
D16*
%TO.C,R120*%
X171200000Y30275000D03*
X171200000Y31925000D03*
%TD*%
D18*
%TO.C,Q6*%
X112250000Y33662500D03*
X114150000Y33662500D03*
X113200000Y35537500D03*
%TD*%
D26*
%TO.C,TH13*%
X205195000Y13200000D03*
D27*
X207095000Y13200000D03*
%TD*%
D20*
%TO.C,F17*%
X181100000Y47137500D03*
X181100000Y45262500D03*
%TD*%
D16*
%TO.C,R86*%
X87425000Y30275000D03*
X87425000Y31925000D03*
%TD*%
D21*
%TO.C,R34*%
X26600000Y47125000D03*
X26600000Y45475000D03*
%TD*%
D16*
%TO.C,R167*%
X239050000Y30287500D03*
X239050000Y31937500D03*
%TD*%
D38*
%TO.C,TR4*%
X205120000Y1960000D03*
X205120000Y4500000D03*
X205120000Y7040000D03*
X189480000Y7040000D03*
X189480000Y4500000D03*
X189480000Y1960000D03*
%TD*%
D22*
%TO.C,R12*%
X142230000Y19400000D03*
X140580000Y19400000D03*
%TD*%
D28*
%TO.C,R187*%
X205250000Y43475000D03*
X205250000Y37550000D03*
%TD*%
D18*
%TO.C,Q21*%
X162550000Y33662500D03*
X164450000Y33662500D03*
X163500000Y35537500D03*
%TD*%
D16*
%TO.C,R71*%
X109900000Y30275000D03*
X109900000Y31925000D03*
%TD*%
D34*
%TO.C,C38*%
X95900000Y16925000D03*
X95900000Y18475000D03*
%TD*%
D18*
%TO.C,Q43*%
X304400000Y33762500D03*
X306300000Y33762500D03*
X305350000Y35637500D03*
%TD*%
D26*
%TO.C,TH14*%
X205195000Y15400000D03*
D27*
X207095000Y15400000D03*
%TD*%
D19*
%TO.C,D52*%
X206250000Y27012500D03*
X203750000Y27012500D03*
%TD*%
D28*
%TO.C,R76*%
X99700000Y43462500D03*
X99700000Y37537500D03*
%TD*%
D38*
%TO.C,TR2*%
X75780000Y7140000D03*
X75780000Y4600000D03*
X75780000Y2060000D03*
X91420000Y2060000D03*
X91420000Y4600000D03*
X91420000Y7140000D03*
%TD*%
D20*
%TO.C,F29*%
X247450000Y47150000D03*
X247450000Y45275000D03*
%TD*%
D28*
%TO.C,R127*%
X159100000Y43462500D03*
X159100000Y37537500D03*
%TD*%
D19*
%TO.C,D28*%
X182300000Y27000000D03*
X179800000Y27000000D03*
%TD*%
D52*
%TO.C,J5*%
X1900000Y45140000D03*
D53*
X1900000Y42600000D03*
X1900000Y40060000D03*
X1900000Y37520000D03*
%TD*%
D18*
%TO.C,Q30*%
X241750000Y33662500D03*
X243650000Y33662500D03*
X242700000Y35537500D03*
%TD*%
D10*
%TO.C,C4*%
X89829962Y17487500D03*
X88279962Y17487500D03*
%TD*%
D16*
%TO.C,R104*%
X14800000Y12750000D03*
X14800000Y14400000D03*
%TD*%
D25*
%TO.C,C49*%
X207175000Y4400000D03*
X208725000Y4400000D03*
%TD*%
D28*
%TO.C,R79*%
X95200000Y43462500D03*
X95200000Y37537500D03*
%TD*%
D34*
%TO.C,C28*%
X28200000Y43725000D03*
X28200000Y45275000D03*
%TD*%
D19*
%TO.C,D59*%
X311100000Y27100000D03*
X308600000Y27100000D03*
%TD*%
D25*
%TO.C,C79*%
X182300000Y28800000D03*
X183850000Y28800000D03*
%TD*%
D22*
%TO.C,R145*%
X225725000Y6200000D03*
X224075000Y6200000D03*
%TD*%
D18*
%TO.C,Q35*%
X218500000Y33675000D03*
X220400000Y33675000D03*
X219450000Y35550000D03*
%TD*%
D26*
%TO.C,TH2*%
X84495000Y12900000D03*
D27*
X86395000Y12900000D03*
%TD*%
D16*
%TO.C,R216*%
X304350000Y30375000D03*
X304350000Y32025000D03*
%TD*%
D20*
%TO.C,F18*%
X176700000Y47137500D03*
X176700000Y45262500D03*
%TD*%
D25*
%TO.C,C78*%
X186700000Y28800000D03*
X188250000Y28800000D03*
%TD*%
D20*
%TO.C,F46*%
X291400000Y47237500D03*
X291400000Y45362500D03*
%TD*%
D25*
%TO.C,C138*%
X273850000Y28900000D03*
X275400000Y28900000D03*
%TD*%
%TO.C,C110*%
X220450000Y28800000D03*
X222000000Y28800000D03*
%TD*%
%TO.C,C81*%
X173500000Y28800000D03*
X175050000Y28800000D03*
%TD*%
D19*
%TO.C,D35*%
X151450000Y27000000D03*
X148950000Y27000000D03*
%TD*%
M02*
