M48
METRIC,TZ
T1C0.300
T2C0.400
T3C0.700
T4C0.800
T5C0.950
T6C1.000
T7C1.700
T8C1.800
T9C3.200
%
G90
G05
T1
X27715Y19150
X55200Y28200
X58300Y28200
X59100Y29300
X63575Y45100
X63575Y43000
X85500Y28800
X90000Y28800
X94400Y28800
X98900Y28800
X102100Y21000
X102100Y13000
X103400Y28800
X107800Y28800
X112300Y28800
X116900Y28800
X121400Y28800
X125900Y28800
X130400Y28800
X133900Y27700
X145000Y28800
X149400Y28800
X153800Y28800
X158300Y28800
X161550Y21350
X161550Y13000
X162700Y28800
X167050Y28800
X171500Y28800
X175900Y28800
X180400Y28800
X184700Y28800
X189100Y28800
X204000Y28800
X208700Y28800
X213500Y28800
X218100Y28800
X222350Y20513
X222350Y13113
X222800Y28800
X227500Y28800
X232100Y28800
X236900Y28800
X241500Y28800
X246100Y28800
X250800Y28800
X266975Y28900
X271575Y28900
X275900Y19200
X275900Y10200
X276275Y28900
X280975Y28900
X285675Y28900
X290275Y28900
X294975Y28900
X299575Y28900
X304275Y28900
X308875Y28900
X313575Y28900
T2
X2000Y34000
X4000Y46000
X4000Y42000
X4000Y28000
X4000Y24000
X4000Y20000
X4000Y16000
X4000Y12000
X6000Y44000
X6000Y40000
X6000Y32000
X8000Y37000
X8000Y32000
X8500Y42500
X10000Y48000
X10000Y32000
X11000Y23000
X11000Y4000
X12000Y48000
X12000Y42000
X12000Y36000
X12000Y21000
X12000Y10000
X13000Y17000
X13000Y15000
X14000Y26000
X14000Y24000
X15000Y19000
X16000Y48000
X16000Y46000
X16000Y42000
X16000Y34000
X16000Y30000
X16000Y28000
X16000Y26000
X16000Y24000
X16000Y18000
X16000Y16000
X16000Y13000
X16000Y8000
X16000Y3000
X18000Y38000
X20000Y48000
X20000Y28000
X20000Y26000
X20000Y20000
X20000Y16000
X20000Y12000
X20000Y8000
X20000Y4000
X22000Y38000
X22000Y36000
X22000Y34000
X22000Y32000
X22000Y30000
X22000Y28000
X22000Y26000
X24000Y38000
X24000Y36000
X25000Y49000
X25000Y45000
X26000Y38000
X26000Y36000
X28000Y8000
X28000Y4000
X32000Y48000
X32000Y44000
X32000Y40000
X32000Y36000
X32000Y32000
X32000Y24000
X32000Y20000
X32000Y16000
X32000Y12000
X32000Y8000
X32000Y4000
X36000Y40000
X36000Y36000
X36000Y32000
X36000Y24000
X36000Y12000
X36000Y8000
X36000Y4000
X40000Y40000
X40000Y32000
X40000Y24000
X40000Y12000
X40000Y8000
X40000Y4000
X44000Y40000
X44000Y32000
X44000Y24000
X44000Y12000
X44000Y8000
X44000Y4000
X48000Y40000
X48000Y32000
X48000Y24000
X48000Y12000
X48000Y8000
X48000Y4000
X52000Y40000
X52000Y36000
X52000Y32000
X52000Y24000
X52000Y20000
X52000Y16000
X52000Y12000
X52000Y8000
X52000Y4000
X58000Y48000
X58000Y44000
X58500Y36000
X58500Y34000
X58500Y32000
X60000Y48000
X60000Y44000
X60000Y16000
X60000Y12000
X64000Y48000
X64000Y16000
X64000Y12000
X66000Y42000
X66000Y40000
X66000Y38000
X66000Y36000
X66000Y34000
X66000Y30000
X66000Y28000
X66000Y26000
X66000Y24000
X66000Y22000
X66000Y6000
X66400Y48000
X66400Y45400
X68000Y36000
X68000Y32000
X68000Y28000
X68000Y16000
X68000Y12000
X68000Y6000
X68000Y3000
X72000Y28000
X72000Y24000
X72000Y20000
X72000Y16000
X72000Y12000
X72000Y8000
X72000Y6000
X72000Y3000
X74000Y6000
X74000Y3000
X76000Y42000
X76000Y38000
X76000Y34000
X76000Y30000
X76000Y26000
X76000Y22000
X76000Y18000
X76000Y14000
X76000Y6000
X76000Y3250
X78600Y52000
X78600Y48000
X78600Y42000
X78600Y34000
X78600Y30000
X78600Y26000
X78600Y22000
X78600Y18000
X78600Y14000
X78700Y38000
X80000Y8000
X80000Y6000
X80000Y4000
X80000Y2000
X80750Y28100
X80750Y26000
X80750Y24000
X80750Y22000
X81000Y42000
X81000Y40000
X82000Y24000
X83000Y42000
X83000Y40000
X84000Y49000
X84000Y47000
X84000Y45000
X84000Y24000
X86000Y49000
X86000Y24000
X88000Y24000
X88000Y8000
X88000Y6000
X88000Y4000
X88000Y2000
X94000Y19900
X94000Y11900
X94000Y9000
X98000Y19900
X98000Y11900
X98000Y9000
X98000Y6000
X98000Y4000
X101000Y20000
X101000Y18750
X102000Y9900
X102000Y6000
X102000Y4000
X103750Y18750
X105200Y51900
X105700Y14400
X106000Y18750
X106000Y9900
X106000Y6000
X106000Y4000
X107200Y51900
X107200Y49750
X109200Y53900
X109200Y49750
X109200Y18000
X111200Y53900
X111200Y51900
X111200Y49750
X111200Y17900
X113000Y6000
X113000Y4000
X113200Y53900
X113200Y17900
X114000Y1900
X115200Y17900
X116000Y11900
X117200Y53900
X118000Y9900
X118000Y5900
X118000Y1900
X119200Y19900
X121200Y53900
X122000Y10000
X122000Y1900
X125200Y53900
X126000Y21900
X126000Y19750
X126000Y10000
X126000Y8000
X126000Y6000
X126000Y3000
X129200Y53900
X130000Y21900
X130000Y17900
X131000Y16000
X131000Y10000
X133000Y24000
X133000Y22000
X133000Y20000
X133000Y16000
X133200Y53900
X134000Y17900
X134000Y13000
X134000Y10000
X134000Y8000
X134000Y6000
X134000Y4000
X134000Y2000
X136500Y46100
X136500Y42000
X136500Y38000
X136500Y34000
X136500Y30000
X136500Y26000
X136500Y22000
X136500Y18000
X136500Y14000
X136500Y10000
X138400Y46100
X138400Y42000
X138400Y38000
X138400Y34000
X138400Y30000
X138400Y26000
X138400Y22000
X138400Y18000
X138400Y14000
X138400Y10000
X140500Y28100
X140500Y26000
X141200Y41900
X141200Y39900
X141200Y23900
X142000Y8000
X142000Y6000
X142000Y4000
X142000Y2000
X143200Y23900
X145200Y23900
X147200Y23900
X148000Y8000
X148000Y5900
X148000Y2900
X149000Y22000
X151200Y19900
X153000Y5900
X153000Y2900
X153200Y19900
X154000Y13000
X154000Y10000
X154000Y8000
X155200Y19900
X158000Y13000
X158000Y10000
X158000Y2000
X160000Y13000
X162000Y10000
X162000Y2000
X164900Y14500
X166000Y51000
X166000Y11000
X166000Y2000
X168000Y54000
X169200Y17900
X170000Y51000
X172000Y54000
X173200Y17900
X174000Y9900
X176000Y54000
X176000Y19000
X176000Y12000
X178000Y10000
X178000Y1900
X179000Y21000
X180000Y54000
X180000Y8000
X181000Y21000
X182000Y10000
X182000Y5900
X182000Y1900
X183000Y21000
X184000Y54000
X186000Y23000
X186000Y21000
X186000Y10000
X186100Y5900
X186100Y3000
X188000Y54000
X188000Y23000
X190000Y23000
X190000Y21000
X190000Y10000
X192000Y54000
X192000Y18000
X192000Y16000
X193200Y31900
X193200Y27900
X194000Y13900
X194000Y10000
X194000Y5900
X194000Y1900
X195600Y54000
X195600Y50000
X195600Y46000
X195600Y42000
X195600Y38000
X195600Y34000
X195600Y30000
X195600Y26000
X195600Y22000
X195600Y18000
X195600Y14000
X197400Y54000
X197400Y50000
X197400Y46000
X197400Y42000
X197400Y38000
X197400Y34000
X197400Y30000
X197400Y26000
X197400Y22000
X197400Y18000
X197400Y14000
X197400Y10000
X199500Y28000
X199600Y25700
X200000Y54000
X200000Y24000
X200000Y22000
X200000Y18000
X200000Y14000
X201200Y41900
X202000Y54000
X202000Y5900
X202000Y1900
X204000Y24000
X204000Y22000
X207200Y5900
X207200Y2900
X208000Y24000
X208000Y22000
X209200Y5900
X209200Y2900
X212000Y20000
X212000Y10000
X212000Y8000
X213200Y5900
X213200Y2900
X214000Y20000
X214000Y12000
X214000Y10000
X214000Y8000
X216000Y20000
X216000Y12000
X216000Y10000
X216000Y8000
X218000Y20000
X218000Y12000
X218000Y10000
X218000Y8000
X218000Y5900
X218000Y1900
X220000Y12000
X220000Y10000
X220000Y8000
X221000Y21000
X221000Y20000
X221000Y19000
X222000Y12000
X222000Y10000
X222000Y1900
X224000Y18800
X224000Y10000
X225750Y14450
X226000Y52000
X226000Y10000
X226000Y1900
X228000Y50000
X228000Y18800
X230000Y50000
X232000Y54000
X232000Y52000
X232000Y18800
X234800Y10200
X236000Y54000
X236000Y18800
X236000Y12000
X236700Y8400
X238000Y10000
X240000Y54000
X240000Y18800
X240000Y8000
X242000Y18800
X244000Y54000
X246000Y18800
X247200Y5900
X247200Y2900
X248000Y54000
X248000Y22000
X248000Y20000
X248000Y18800
X250000Y24000
X250000Y22000
X250000Y20000
X252000Y54000
X252000Y22000
X252000Y20000
X252000Y8000
X252000Y6000
X252000Y4000
X252000Y2000
X254000Y24000
X254000Y22000
X254000Y20000
X254000Y17000
X254000Y15000
X254000Y10000
X254000Y8000
X254000Y6000
X254000Y4000
X254000Y2000
X255000Y30000
X255000Y28000
X256000Y54000
X256000Y50000
X256000Y46000
X256000Y42000
X256000Y38000
X256000Y34000
X256000Y12000
X256000Y10000
X256000Y8000
X256000Y6000
X256000Y4000
X256000Y2000
X258800Y46000
X258800Y42000
X258800Y38000
X258800Y34000
X258800Y30000
X260000Y8000
X260000Y6000
X260000Y4000
X260000Y2000
X261975Y42000
X261975Y40000
X261975Y29000
X261975Y26000
X262000Y50000
X262000Y48000
X262000Y46000
X262000Y22000
X262000Y8000
X262000Y6000
X262000Y4000
X262000Y2000
X263975Y42000
X263975Y40000
X266000Y48000
X266000Y46000
X266000Y22000
X268000Y6000
X268000Y3000
X270000Y22000
X270000Y6000
X270000Y3000
X272000Y10000
X272000Y8000
X274000Y22000
X274000Y18000
X274000Y10000
X274000Y8000
X274000Y6000
X274000Y3000
X276000Y8000
X278000Y8000
X278000Y6000
X278000Y2000
X279299Y11476
X280000Y8000
X280000Y6000
X280000Y2000
X282000Y52000
X282000Y16000
X282000Y2000
X284000Y52000
X284000Y2000
X286000Y16000
X286000Y14000
X288000Y54000
X289975Y49850
X290000Y54000
X290000Y52000
X290000Y16000
X290300Y12200
X290800Y4700
X291975Y18000
X292200Y10100
X293975Y54000
X294000Y19000
X295975Y54000
X296000Y19000
X296000Y6000
X296000Y2000
X298000Y19000
X299975Y54000
X300000Y19000
X301975Y21000
X303975Y54000
X305000Y21000
X307975Y54000
X309000Y21000
X309000Y19000
X311000Y22000
X311000Y19000
X313000Y22000
X313000Y19000
X315000Y22000
X315000Y19000
X317000Y22000
X317000Y19000
X317475Y30500
X317475Y27500
X319000Y46000
X319000Y42000
X319000Y38000
X319000Y34000
X319000Y23000
X319000Y21000
X319000Y19000
T3
X84495Y19500
X84495Y17300
X84495Y15100
X84495Y12900
X86395Y19500
X86395Y17300
X86395Y15100
X86395Y12900
X144095Y19200
X144095Y17000
X144095Y14700
X144095Y12000
X145995Y19200
X145995Y17000
X145995Y14700
X145995Y12000
X205195Y18100
X205195Y15400
X205195Y13200
X205195Y11000
X207095Y18100
X207095Y15400
X207095Y13200
X207095Y11000
X264295Y17800
X264295Y15600
X264300Y13500
X264300Y11200
X266195Y17800
X266195Y15600
X266200Y13500
X266200Y11200
T4
X1600Y28540
X1600Y26000
X1600Y23460
X1600Y20920
X1600Y18380
X1600Y15840
X1600Y13300
X1600Y10760
X9220Y28540
X9220Y26000
X9220Y23460
X9220Y20920
X9220Y18380
X9220Y15840
X9220Y13300
X9220Y10760
X17680Y34730
X17680Y32190
X17680Y29650
X17680Y27110
X17680Y24570
X17680Y22030
X17680Y19490
X17680Y16950
X17680Y14410
X17680Y11870
X17680Y9330
X17680Y6790
X17680Y4250
X17680Y1710
X25300Y34730
X25300Y32190
X25300Y29650
X25300Y27110
X25300Y24570
X25300Y22030
X25300Y19490
X25300Y16950
X25300Y14410
X25300Y11870
X25300Y9330
X25300Y6790
X25300Y4250
X25300Y1710
X30365Y47220
X30365Y44680
X30365Y42140
X30365Y39600
X30365Y37060
X30365Y34520
X30365Y31980
X30365Y29440
X30365Y26900
X30365Y24360
X30365Y21820
X30365Y19280
X30365Y16740
X30365Y14200
X30365Y11660
X30365Y9120
X30365Y6580
X30365Y4040
X30365Y1500
X55765Y47220
X55765Y44680
X55765Y42140
X55765Y39600
X55765Y37060
X55765Y34520
X55765Y31980
X55765Y29440
X55765Y26900
X55765Y24360
X55765Y21820
X55765Y19280
X55765Y16740
X55765Y14200
X55765Y11660
X55765Y9120
X55765Y6580
X55765Y4040
X55765Y1500
T5
X87700Y51000
X90200Y51000
X92700Y51000
X95200Y51000
X97700Y51000
X100200Y51000
X102700Y51000
X114700Y51000
X117200Y51000
X119700Y51000
X122200Y51000
X124700Y51000
X127200Y51000
X129700Y51000
X147200Y51000
X149700Y51000
X152200Y51000
X154700Y51000
X157200Y51000
X159700Y51000
X162200Y51000
X173600Y51000
X176100Y51000
X178600Y51000
X181100Y51000
X183600Y51000
X186100Y51000
X188600Y51000
X207150Y51000
X209650Y51000
X212150Y51000
X214650Y51000
X217150Y51000
X219650Y51000
X222150Y51000
X235200Y51000
X237700Y51000
X240200Y51000
X242700Y51000
X245200Y51000
X247700Y51000
X250200Y51000
X265000Y51000
X267500Y51000
X270000Y51000
X272500Y51000
X275000Y51000
X277500Y51000
X280000Y51000
X293000Y51000
X295500Y51000
X298000Y51000
X300500Y51000
X303000Y51000
X305500Y51000
X308000Y51000
T6
X1900Y45140
X1900Y42600
X1900Y40060
X1900Y37520
T7
X315750Y15258
X315750Y11298
T8
X69400Y44600
X69400Y39100
X73600Y44600
X73600Y39100
T9
X4000Y51000
X4000Y4000
X61100Y4000
X71000Y51000
X138400Y51000
X172700Y4000
X234100Y4000
X315900Y4100
X316000Y51000
M30
