%TF.GenerationSoftware,KiCad,Pcbnew,8.0.4*%
%TF.CreationDate,2024-08-06T16:15:28+08:00*%
%TF.ProjectId,LTC6811_ESP32_V2,4c544336-3831-4315-9f45-535033325f56,rev?*%
%TF.SameCoordinates,Original*%
%TF.FileFunction,Soldermask,Bot*%
%TF.FilePolarity,Negative*%
%FSLAX46Y46*%
G04 Gerber Fmt 4.6, Leading zero omitted, Abs format (unit mm)*
G04 Created by KiCad (PCBNEW 8.0.4) date 2024-08-06 16:15:28*
%MOMM*%
%LPD*%
G01*
G04 APERTURE LIST*
G04 Aperture macros list*
%AMRoundRect*
0 Rectangle with rounded corners*
0 $1 Rounding radius*
0 $2 $3 $4 $5 $6 $7 $8 $9 X,Y pos of 4 corners*
0 Add a 4 corners polygon primitive as box body*
4,1,4,$2,$3,$4,$5,$6,$7,$8,$9,$2,$3,0*
0 Add four circle primitives for the rounded corners*
1,1,$1+$1,$2,$3*
1,1,$1+$1,$4,$5*
1,1,$1+$1,$6,$7*
1,1,$1+$1,$8,$9*
0 Add four rect primitives between the rounded corners*
20,1,$1+$1,$2,$3,$4,$5,0*
20,1,$1+$1,$4,$5,$6,$7,0*
20,1,$1+$1,$6,$7,$8,$9,0*
20,1,$1+$1,$8,$9,$2,$3,0*%
G04 Aperture macros list end*
%ADD10C,5.700000*%
%ADD11R,1.600000X1.600000*%
%ADD12O,1.600000X1.600000*%
%ADD13RoundRect,0.250001X-1.099999X1.099999X-1.099999X-1.099999X1.099999X-1.099999X1.099999X1.099999X0*%
%ADD14C,2.700000*%
%ADD15C,1.400000*%
%ADD16O,1.400000X1.400000*%
%ADD17O,1.700000X1.950000*%
%ADD18RoundRect,0.250000X0.600000X0.725000X-0.600000X0.725000X-0.600000X-0.725000X0.600000X-0.725000X0*%
%ADD19C,3.000000*%
%ADD20RoundRect,0.250001X1.099999X1.599999X-1.099999X1.599999X-1.099999X-1.599999X1.099999X-1.599999X0*%
%ADD21O,2.700000X3.700000*%
%ADD22R,1.700000X1.700000*%
%ADD23O,1.700000X1.700000*%
G04 APERTURE END LIST*
D10*
%TO.C,J20*%
X315900000Y4100000D03*
%TD*%
D11*
%TO.C,U8*%
X30365000Y47220000D03*
D12*
X30365000Y44680000D03*
X30365000Y42140000D03*
X30365000Y39600000D03*
X30365000Y37060000D03*
X30365000Y34520000D03*
X30365000Y31980000D03*
X30365000Y29440000D03*
X30365000Y26900000D03*
X30365000Y24360000D03*
X30365000Y21820000D03*
X30365000Y19280000D03*
X30365000Y16740000D03*
X30365000Y14200000D03*
X30365000Y11660000D03*
X30365000Y9120000D03*
X30365000Y6580000D03*
X30365000Y4040000D03*
X30365000Y1500000D03*
X55765000Y1500000D03*
X55765000Y4040000D03*
X55765000Y6580000D03*
X55765000Y9120000D03*
X55765000Y11660000D03*
X55765000Y14200000D03*
X55765000Y16740000D03*
X55765000Y19280000D03*
X55765000Y21820000D03*
X55765000Y24360000D03*
X55765000Y26900000D03*
X55765000Y29440000D03*
X55765000Y31980000D03*
X55765000Y34520000D03*
X55765000Y37060000D03*
X55765000Y39600000D03*
X55765000Y42140000D03*
X55765000Y44680000D03*
X55765000Y47220000D03*
%TD*%
D13*
%TO.C,J9*%
X315750000Y15257500D03*
D14*
X315750000Y11297500D03*
%TD*%
D15*
%TO.C,TH19*%
X264295000Y15600000D03*
D16*
X266195000Y15600000D03*
%TD*%
D17*
%TO.C,J15*%
X207150000Y51000000D03*
X209650000Y51000000D03*
X212150000Y51000000D03*
X214650000Y51000000D03*
X217150000Y51000000D03*
X219650000Y51000000D03*
D18*
X222150000Y51000000D03*
%TD*%
D17*
%TO.C,J14*%
X235200000Y51000000D03*
X237700000Y51000000D03*
X240200000Y51000000D03*
X242700000Y51000000D03*
X245200000Y51000000D03*
X247700000Y51000000D03*
D18*
X250200000Y51000000D03*
%TD*%
D10*
%TO.C,J1*%
X316000000Y51000000D03*
%TD*%
D15*
%TO.C,TH8*%
X144095000Y14700000D03*
D16*
X145995000Y14700000D03*
%TD*%
D10*
%TO.C,J19*%
X138400000Y51000000D03*
%TD*%
D11*
%TO.C,SW1*%
X1600000Y28540000D03*
D12*
X1600000Y26000000D03*
X1600000Y23460000D03*
X1600000Y20920000D03*
X1600000Y18380000D03*
X1600000Y15840000D03*
X1600000Y13300000D03*
X1600000Y10760000D03*
X9220000Y10760000D03*
X9220000Y13300000D03*
X9220000Y15840000D03*
X9220000Y18380000D03*
X9220000Y20920000D03*
X9220000Y23460000D03*
X9220000Y26000000D03*
X9220000Y28540000D03*
%TD*%
D15*
%TO.C,TH20*%
X264295000Y17800000D03*
D16*
X266195000Y17800000D03*
%TD*%
D15*
%TO.C,TH17*%
X264300000Y11200000D03*
D16*
X266200000Y11200000D03*
%TD*%
D18*
%TO.C,J17*%
X280000000Y51000000D03*
D17*
X277500000Y51000000D03*
X275000000Y51000000D03*
X272500000Y51000000D03*
X270000000Y51000000D03*
X267500000Y51000000D03*
X265000000Y51000000D03*
%TD*%
D15*
%TO.C,TH3*%
X84495000Y15100000D03*
D16*
X86395000Y15100000D03*
%TD*%
D15*
%TO.C,TH9*%
X144095000Y17000000D03*
D16*
X145995000Y17000000D03*
%TD*%
D15*
%TO.C,TH7*%
X144095000Y12000000D03*
D16*
X145995000Y12000000D03*
%TD*%
D10*
%TO.C,J2*%
X234100000Y4000000D03*
%TD*%
D11*
%TO.C,U1*%
X25300000Y1710000D03*
D12*
X25300000Y4250000D03*
X25300000Y6790000D03*
X25300000Y9330000D03*
X25300000Y11870000D03*
X25300000Y14410000D03*
X25300000Y16950000D03*
X25300000Y19490000D03*
X25300000Y22030000D03*
X25300000Y24570000D03*
X25300000Y27110000D03*
X25300000Y29650000D03*
X25300000Y32190000D03*
X25300000Y34730000D03*
X17680000Y34730000D03*
X17680000Y32190000D03*
X17680000Y29650000D03*
X17680000Y27110000D03*
X17680000Y24570000D03*
X17680000Y22030000D03*
X17680000Y19490000D03*
X17680000Y16950000D03*
X17680000Y14410000D03*
X17680000Y11870000D03*
X17680000Y9330000D03*
X17680000Y6790000D03*
X17680000Y4250000D03*
X17680000Y1710000D03*
%TD*%
D17*
%TO.C,J11*%
X87700000Y51000000D03*
X90200000Y51000000D03*
X92700000Y51000000D03*
X95200000Y51000000D03*
X97700000Y51000000D03*
X100200000Y51000000D03*
D18*
X102700000Y51000000D03*
%TD*%
D15*
%TO.C,TH5*%
X84495000Y19500000D03*
D16*
X86395000Y19500000D03*
%TD*%
D19*
%TO.C,J6*%
X71500000Y31800000D03*
D20*
X73600000Y39100000D03*
D21*
X69400000Y39100000D03*
X73600000Y44600000D03*
X69400000Y44600000D03*
%TD*%
D15*
%TO.C,TH18*%
X264300000Y13500000D03*
D16*
X266200000Y13500000D03*
%TD*%
D10*
%TO.C,J4*%
X172700000Y4000000D03*
%TD*%
D17*
%TO.C,J10*%
X114700000Y51000000D03*
X117200000Y51000000D03*
X119700000Y51000000D03*
X122200000Y51000000D03*
X124700000Y51000000D03*
X127200000Y51000000D03*
D18*
X129700000Y51000000D03*
%TD*%
D10*
%TO.C,J3*%
X4000000Y51000000D03*
%TD*%
D15*
%TO.C,TH4*%
X84495000Y17300000D03*
D16*
X86395000Y17300000D03*
%TD*%
D17*
%TO.C,J13*%
X147200000Y51000000D03*
X149700000Y51000000D03*
X152200000Y51000000D03*
X154700000Y51000000D03*
X157200000Y51000000D03*
X159700000Y51000000D03*
D18*
X162200000Y51000000D03*
%TD*%
D10*
%TO.C,J18*%
X71000000Y51000000D03*
%TD*%
D15*
%TO.C,TH15*%
X205195000Y18100000D03*
D16*
X207095000Y18100000D03*
%TD*%
D10*
%TO.C,J8*%
X61100000Y4000000D03*
%TD*%
D17*
%TO.C,J12*%
X173600000Y51000000D03*
X176100000Y51000000D03*
X178600000Y51000000D03*
X181100000Y51000000D03*
X183600000Y51000000D03*
X186100000Y51000000D03*
D18*
X188600000Y51000000D03*
%TD*%
D17*
%TO.C,J16*%
X293000000Y51000000D03*
X295500000Y51000000D03*
X298000000Y51000000D03*
X300500000Y51000000D03*
X303000000Y51000000D03*
X305500000Y51000000D03*
D18*
X308000000Y51000000D03*
%TD*%
D15*
%TO.C,TH12*%
X205195000Y11000000D03*
D16*
X207095000Y11000000D03*
%TD*%
D10*
%TO.C,J7*%
X4000000Y4000000D03*
%TD*%
D15*
%TO.C,TH10*%
X144095000Y19200000D03*
D16*
X145995000Y19200000D03*
%TD*%
D15*
%TO.C,TH13*%
X205195000Y13200000D03*
D16*
X207095000Y13200000D03*
%TD*%
D15*
%TO.C,TH14*%
X205195000Y15400000D03*
D16*
X207095000Y15400000D03*
%TD*%
D22*
%TO.C,J5*%
X1900000Y45140000D03*
D23*
X1900000Y42600000D03*
X1900000Y40060000D03*
X1900000Y37520000D03*
%TD*%
D15*
%TO.C,TH2*%
X84495000Y12900000D03*
D16*
X86395000Y12900000D03*
%TD*%
M02*
