%TF.GenerationSoftware,KiCad,Pcbnew,8.0.4*%
%TF.CreationDate,2024-08-06T16:15:26+08:00*%
%TF.ProjectId,LTC6811_ESP32_V2,4c544336-3831-4315-9f45-535033325f56,rev?*%
%TF.SameCoordinates,Original*%
%TF.FileFunction,Soldermask,Top*%
%TF.FilePolarity,Negative*%
%FSLAX46Y46*%
G04 Gerber Fmt 4.6, Leading zero omitted, Abs format (unit mm)*
G04 Created by KiCad (PCBNEW 8.0.4) date 2024-08-06 16:15:26*
%MOMM*%
%LPD*%
G01*
G04 APERTURE LIST*
G04 Aperture macros list*
%AMRoundRect*
0 Rectangle with rounded corners*
0 $1 Rounding radius*
0 $2 $3 $4 $5 $6 $7 $8 $9 X,Y pos of 4 corners*
0 Add a 4 corners polygon primitive as box body*
4,1,4,$2,$3,$4,$5,$6,$7,$8,$9,$2,$3,0*
0 Add four circle primitives for the rounded corners*
1,1,$1+$1,$2,$3*
1,1,$1+$1,$4,$5*
1,1,$1+$1,$6,$7*
1,1,$1+$1,$8,$9*
0 Add four rect primitives between the rounded corners*
20,1,$1+$1,$2,$3,$4,$5,0*
20,1,$1+$1,$4,$5,$6,$7,0*
20,1,$1+$1,$6,$7,$8,$9,0*
20,1,$1+$1,$8,$9,$2,$3,0*%
G04 Aperture macros list end*
%ADD10RoundRect,0.225000X0.225000X0.250000X-0.225000X0.250000X-0.225000X-0.250000X0.225000X-0.250000X0*%
%ADD11C,5.700000*%
%ADD12R,1.600000X1.600000*%
%ADD13O,1.600000X1.600000*%
%ADD14RoundRect,0.225000X0.225000X0.375000X-0.225000X0.375000X-0.225000X-0.375000X0.225000X-0.375000X0*%
%ADD15RoundRect,0.218750X0.256250X-0.218750X0.256250X0.218750X-0.256250X0.218750X-0.256250X-0.218750X0*%
%ADD16RoundRect,0.200000X0.275000X-0.200000X0.275000X0.200000X-0.275000X0.200000X-0.275000X-0.200000X0*%
%ADD17C,1.000000*%
%ADD18RoundRect,0.150000X0.150000X-0.587500X0.150000X0.587500X-0.150000X0.587500X-0.150000X-0.587500X0*%
%ADD19RoundRect,0.250000X0.250000X0.250000X-0.250000X0.250000X-0.250000X-0.250000X0.250000X-0.250000X0*%
%ADD20RoundRect,0.243750X-0.456250X0.243750X-0.456250X-0.243750X0.456250X-0.243750X0.456250X0.243750X0*%
%ADD21RoundRect,0.200000X-0.275000X0.200000X-0.275000X-0.200000X0.275000X-0.200000X0.275000X0.200000X0*%
%ADD22RoundRect,0.200000X0.200000X0.275000X-0.200000X0.275000X-0.200000X-0.275000X0.200000X-0.275000X0*%
%ADD23RoundRect,0.250001X-1.099999X1.099999X-1.099999X-1.099999X1.099999X-1.099999X1.099999X1.099999X0*%
%ADD24C,2.700000*%
%ADD25RoundRect,0.225000X-0.225000X-0.250000X0.225000X-0.250000X0.225000X0.250000X-0.225000X0.250000X0*%
%ADD26C,1.400000*%
%ADD27O,1.400000X1.400000*%
%ADD28RoundRect,0.250000X-1.425000X0.362500X-1.425000X-0.362500X1.425000X-0.362500X1.425000X0.362500X0*%
%ADD29R,1.000000X1.500000*%
%ADD30O,1.700000X1.950000*%
%ADD31RoundRect,0.250000X0.600000X0.725000X-0.600000X0.725000X-0.600000X-0.725000X0.600000X-0.725000X0*%
%ADD32RoundRect,0.200000X-0.200000X-0.275000X0.200000X-0.275000X0.200000X0.275000X-0.200000X0.275000X0*%
%ADD33RoundRect,0.225000X-0.250000X0.225000X-0.250000X-0.225000X0.250000X-0.225000X0.250000X0.225000X0*%
%ADD34RoundRect,0.225000X0.250000X-0.225000X0.250000X0.225000X-0.250000X0.225000X-0.250000X-0.225000X0*%
%ADD35RoundRect,0.150000X0.587500X0.150000X-0.587500X0.150000X-0.587500X-0.150000X0.587500X-0.150000X0*%
%ADD36RoundRect,0.075000X-0.075000X0.662500X-0.075000X-0.662500X0.075000X-0.662500X0.075000X0.662500X0*%
%ADD37RoundRect,0.225000X-0.375000X0.225000X-0.375000X-0.225000X0.375000X-0.225000X0.375000X0.225000X0*%
%ADD38R,1.950000X1.020000*%
%ADD39RoundRect,0.250000X0.300000X0.300000X-0.300000X0.300000X-0.300000X-0.300000X0.300000X-0.300000X0*%
%ADD40RoundRect,0.450000X-0.450000X0.550000X-0.450000X-0.550000X0.450000X-0.550000X0.450000X0.550000X0*%
%ADD41RoundRect,0.162500X0.162500X-0.617500X0.162500X0.617500X-0.162500X0.617500X-0.162500X-0.617500X0*%
%ADD42RoundRect,0.250000X-0.300000X0.300000X-0.300000X-0.300000X0.300000X-0.300000X0.300000X0.300000X0*%
%ADD43RoundRect,0.250000X0.250000X0.475000X-0.250000X0.475000X-0.250000X-0.475000X0.250000X-0.475000X0*%
%ADD44RoundRect,0.162500X1.012500X0.162500X-1.012500X0.162500X-1.012500X-0.162500X1.012500X-0.162500X0*%
%ADD45C,3.000000*%
%ADD46RoundRect,0.250001X1.099999X1.599999X-1.099999X1.599999X-1.099999X-1.599999X1.099999X-1.599999X0*%
%ADD47O,2.700000X3.700000*%
%ADD48RoundRect,0.218750X-0.256250X0.218750X-0.256250X-0.218750X0.256250X-0.218750X0.256250X0.218750X0*%
%ADD49RoundRect,0.375000X0.625000X0.375000X-0.625000X0.375000X-0.625000X-0.375000X0.625000X-0.375000X0*%
%ADD50RoundRect,0.500000X0.500000X1.400000X-0.500000X1.400000X-0.500000X-1.400000X0.500000X-1.400000X0*%
%ADD51RoundRect,0.075000X-0.650000X-0.075000X0.650000X-0.075000X0.650000X0.075000X-0.650000X0.075000X0*%
%ADD52R,1.700000X1.700000*%
%ADD53O,1.700000X1.700000*%
G04 APERTURE END LIST*
D10*
%TO.C,C69*%
X135175000Y-165400000D03*
X133625000Y-165400000D03*
%TD*%
D11*
%TO.C,J20*%
X355900000Y-165900000D03*
%TD*%
D12*
%TO.C,U8*%
X70365000Y-122780000D03*
D13*
X70365000Y-125320000D03*
X70365000Y-127860000D03*
X70365000Y-130400000D03*
X70365000Y-132940000D03*
X70365000Y-135480000D03*
X70365000Y-138020000D03*
X70365000Y-140560000D03*
X70365000Y-143100000D03*
X70365000Y-145640000D03*
X70365000Y-148180000D03*
X70365000Y-150720000D03*
X70365000Y-153260000D03*
X70365000Y-155800000D03*
X70365000Y-158340000D03*
X70365000Y-160880000D03*
X70365000Y-163420000D03*
X70365000Y-165960000D03*
X70365000Y-168500000D03*
X95765000Y-168500000D03*
X95765000Y-165960000D03*
X95765000Y-163420000D03*
X95765000Y-160880000D03*
X95765000Y-158340000D03*
X95765000Y-155800000D03*
X95765000Y-153260000D03*
X95765000Y-150720000D03*
X95765000Y-148180000D03*
X95765000Y-145640000D03*
X95765000Y-143100000D03*
X95765000Y-140560000D03*
X95765000Y-138020000D03*
X95765000Y-135480000D03*
X95765000Y-132940000D03*
X95765000Y-130400000D03*
X95765000Y-127860000D03*
X95765000Y-125320000D03*
X95765000Y-122780000D03*
%TD*%
D14*
%TO.C,D39*%
X296100000Y-148800000D03*
X292800000Y-148800000D03*
%TD*%
D15*
%TO.C,D25*%
X200000000Y-163487500D03*
X200000000Y-161912500D03*
%TD*%
D16*
%TO.C,R189*%
X243950000Y-139712500D03*
X243950000Y-138062500D03*
%TD*%
D17*
%TO.C,TP7*%
X283600000Y-152200000D03*
%TD*%
D18*
%TO.C,Q36*%
X253700000Y-136325000D03*
X255600000Y-136325000D03*
X254650000Y-134450000D03*
%TD*%
D16*
%TO.C,R138*%
X184750000Y-139725000D03*
X184750000Y-138075000D03*
%TD*%
D19*
%TO.C,D43*%
X288400000Y-143000000D03*
X285900000Y-143000000D03*
%TD*%
D18*
%TO.C,Q50*%
X311800000Y-136237500D03*
X313700000Y-136237500D03*
X312750000Y-134362500D03*
%TD*%
D20*
%TO.C,F51*%
X308100000Y-122762500D03*
X308100000Y-124637500D03*
%TD*%
D21*
%TO.C,R91*%
X234250000Y-152275000D03*
X234250000Y-153925000D03*
%TD*%
D22*
%TO.C,R4*%
X122525000Y-156600000D03*
X120875000Y-156600000D03*
%TD*%
D23*
%TO.C,J9*%
X355750000Y-154742500D03*
D24*
X355750000Y-158702500D03*
%TD*%
D25*
%TO.C,C72*%
X312900000Y-165500000D03*
X314450000Y-165500000D03*
%TD*%
D18*
%TO.C,Q39*%
X239650000Y-136337500D03*
X241550000Y-136337500D03*
X240600000Y-134462500D03*
%TD*%
D10*
%TO.C,C9*%
X189480000Y-154000000D03*
X187930000Y-154000000D03*
%TD*%
D16*
%TO.C,R225*%
X330400000Y-139625000D03*
X330400000Y-137975000D03*
%TD*%
D25*
%TO.C,C132*%
X341800000Y-141100000D03*
X343350000Y-141100000D03*
%TD*%
D20*
%TO.C,F10*%
X135200000Y-122862500D03*
X135200000Y-124737500D03*
%TD*%
D26*
%TO.C,TH19*%
X304295000Y-154400000D03*
D27*
X306195000Y-154400000D03*
%TD*%
D28*
%TO.C,R211*%
X350000000Y-126437500D03*
X350000000Y-132362500D03*
%TD*%
D29*
%TO.C,JP3*%
X52300000Y-136700000D03*
X53600000Y-136700000D03*
X54900000Y-136700000D03*
%TD*%
D25*
%TO.C,C84*%
X200300000Y-141200000D03*
X201850000Y-141200000D03*
%TD*%
D30*
%TO.C,J15*%
X247150000Y-119000000D03*
X249650000Y-119000000D03*
X252150000Y-119000000D03*
X254650000Y-119000000D03*
X257150000Y-119000000D03*
X259650000Y-119000000D03*
D31*
X262150000Y-119000000D03*
%TD*%
D30*
%TO.C,J14*%
X275200000Y-119000000D03*
X277700000Y-119000000D03*
X280200000Y-119000000D03*
X282700000Y-119000000D03*
X285200000Y-119000000D03*
X287700000Y-119000000D03*
D31*
X290200000Y-119000000D03*
%TD*%
D18*
%TO.C,Q46*%
X330450000Y-136237500D03*
X332350000Y-136237500D03*
X331400000Y-134362500D03*
%TD*%
D21*
%TO.C,R2*%
X224700000Y-166575000D03*
X224700000Y-168225000D03*
%TD*%
D16*
%TO.C,R170*%
X274400000Y-139712500D03*
X274400000Y-138062500D03*
%TD*%
D32*
%TO.C,R18*%
X300875000Y-158700000D03*
X302525000Y-158700000D03*
%TD*%
D19*
%TO.C,D14*%
X154400000Y-143000000D03*
X151900000Y-143000000D03*
%TD*%
D20*
%TO.C,F5*%
X157700000Y-122862500D03*
X157700000Y-124737500D03*
%TD*%
D16*
%TO.C,R210*%
X353500000Y-139625000D03*
X353500000Y-137975000D03*
%TD*%
D18*
%TO.C,Q51*%
X307125000Y-136237500D03*
X309025000Y-136237500D03*
X308075000Y-134362500D03*
%TD*%
D19*
%TO.C,D68*%
X309175000Y-142900000D03*
X306675000Y-142900000D03*
%TD*%
D11*
%TO.C,J1*%
X356000000Y-119000000D03*
%TD*%
D18*
%TO.C,Q29*%
X286500000Y-136325000D03*
X288400000Y-136325000D03*
X287450000Y-134450000D03*
%TD*%
D33*
%TO.C,C34*%
X65000000Y-129200000D03*
X65000000Y-130750000D03*
%TD*%
D20*
%TO.C,F19*%
X212300000Y-122862500D03*
X212300000Y-124737500D03*
%TD*%
D25*
%TO.C,C62*%
X122925000Y-141200000D03*
X124475000Y-141200000D03*
%TD*%
D34*
%TO.C,C35*%
X48400000Y-130175000D03*
X48400000Y-128625000D03*
%TD*%
D32*
%TO.C,R48*%
X162775000Y-149800000D03*
X164425000Y-149800000D03*
%TD*%
D21*
%TO.C,R26*%
X224700000Y-163225000D03*
X224700000Y-164875000D03*
%TD*%
D28*
%TO.C,R121*%
X207900000Y-126537500D03*
X207900000Y-132462500D03*
%TD*%
D10*
%TO.C,C18*%
X309570000Y-156300000D03*
X308020000Y-156300000D03*
%TD*%
D21*
%TO.C,R52*%
X311300000Y-166450000D03*
X311300000Y-168100000D03*
%TD*%
D28*
%TO.C,R88*%
X121825000Y-126537500D03*
X121825000Y-132462500D03*
%TD*%
D10*
%TO.C,C5*%
X129829962Y-150812500D03*
X128279962Y-150812500D03*
%TD*%
D17*
%TO.C,TP3*%
X156700000Y-153200000D03*
%TD*%
D20*
%TO.C,F31*%
X278050000Y-122850000D03*
X278050000Y-124725000D03*
%TD*%
D25*
%TO.C,C107*%
X274400000Y-141200000D03*
X275950000Y-141200000D03*
%TD*%
D26*
%TO.C,TH8*%
X184095000Y-155300000D03*
D27*
X185995000Y-155300000D03*
%TD*%
D16*
%TO.C,R233*%
X318525000Y-139625000D03*
X318525000Y-137975000D03*
%TD*%
D35*
%TO.C,D5*%
X49737500Y-126350000D03*
X49737500Y-124450000D03*
X47862500Y-125400000D03*
%TD*%
D22*
%TO.C,R19*%
X302525000Y-157100000D03*
X300875000Y-157100000D03*
%TD*%
D21*
%TO.C,R49*%
X190700000Y-162950000D03*
X190700000Y-164600000D03*
%TD*%
D16*
%TO.C,R123*%
X206800000Y-139725000D03*
X206800000Y-138075000D03*
%TD*%
D28*
%TO.C,R112*%
X221100000Y-126537500D03*
X221100000Y-132462500D03*
%TD*%
D17*
%TO.C,TP4*%
X122400000Y-148700000D03*
%TD*%
D10*
%TO.C,C68*%
X61875000Y-132900000D03*
X60325000Y-132900000D03*
%TD*%
D28*
%TO.C,R172*%
X268650000Y-126525000D03*
X268650000Y-132450000D03*
%TD*%
D33*
%TO.C,C37*%
X156100000Y-149600000D03*
X156100000Y-151150000D03*
%TD*%
D19*
%TO.C,D37*%
X182900000Y-143000000D03*
X180400000Y-143000000D03*
%TD*%
D16*
%TO.C,R90*%
X120775000Y-139725000D03*
X120775000Y-138075000D03*
%TD*%
D22*
%TO.C,R30*%
X103250000Y-139100000D03*
X101600000Y-139100000D03*
%TD*%
D10*
%TO.C,C17*%
X309570000Y-158400000D03*
X308020000Y-158400000D03*
%TD*%
D19*
%TO.C,D50*%
X255650000Y-142987500D03*
X253150000Y-142987500D03*
%TD*%
D16*
%TO.C,R234*%
X316425000Y-139625000D03*
X316425000Y-137975000D03*
%TD*%
D19*
%TO.C,D11*%
X167900000Y-143000000D03*
X165400000Y-143000000D03*
%TD*%
D33*
%TO.C,C89*%
X277000000Y-148525000D03*
X277000000Y-150075000D03*
%TD*%
D18*
%TO.C,Q42*%
X349050000Y-136237500D03*
X350950000Y-136237500D03*
X350000000Y-134362500D03*
%TD*%
D25*
%TO.C,C105*%
X283725000Y-141200000D03*
X285275000Y-141200000D03*
%TD*%
D36*
%TO.C,U13*%
X274500000Y-149475000D03*
X274000000Y-149475000D03*
X273500000Y-149475000D03*
X273000000Y-149475000D03*
X272500000Y-149475000D03*
X272000000Y-149475000D03*
X271500000Y-149475000D03*
X271000000Y-149475000D03*
X270500000Y-149475000D03*
X270000000Y-149475000D03*
X269500000Y-149475000D03*
X269000000Y-149475000D03*
X268500000Y-149475000D03*
X268000000Y-149475000D03*
X267500000Y-149475000D03*
X267000000Y-149475000D03*
X266500000Y-149475000D03*
X266000000Y-149475000D03*
X265500000Y-149475000D03*
X265000000Y-149475000D03*
X264500000Y-149475000D03*
X264000000Y-149475000D03*
X263500000Y-149475000D03*
X263000000Y-149475000D03*
X263000000Y-156900000D03*
X263500000Y-156900000D03*
X264000000Y-156900000D03*
X264500000Y-156900000D03*
X265000000Y-156900000D03*
X265500000Y-156900000D03*
X266000000Y-156900000D03*
X266500000Y-156900000D03*
X267000000Y-156900000D03*
X267500000Y-156900000D03*
X268000000Y-156900000D03*
X268500000Y-156900000D03*
X269000000Y-156900000D03*
X269500000Y-156900000D03*
X270000000Y-156900000D03*
X270500000Y-156900000D03*
X271000000Y-156900000D03*
X271500000Y-156900000D03*
X272000000Y-156900000D03*
X272500000Y-156900000D03*
X273000000Y-156900000D03*
X273500000Y-156900000D03*
X274000000Y-156900000D03*
X274500000Y-156900000D03*
%TD*%
D16*
%TO.C,R63*%
X161100000Y-139725000D03*
X161100000Y-138075000D03*
%TD*%
D25*
%TO.C,C61*%
X127425000Y-141200000D03*
X128975000Y-141200000D03*
%TD*%
D28*
%TO.C,R133*%
X190250000Y-126537500D03*
X190250000Y-132462500D03*
%TD*%
D16*
%TO.C,R117*%
X215600000Y-139725000D03*
X215600000Y-138075000D03*
%TD*%
D21*
%TO.C,TH1*%
X148700000Y-117475000D03*
X148700000Y-119125000D03*
%TD*%
D34*
%TO.C,C116*%
X311100000Y-152875000D03*
X311100000Y-151325000D03*
%TD*%
D11*
%TO.C,J19*%
X178400000Y-119000000D03*
%TD*%
D19*
%TO.C,D69*%
X304525000Y-142900000D03*
X302025000Y-142900000D03*
%TD*%
D28*
%TO.C,R229*%
X322100000Y-126437500D03*
X322100000Y-132362500D03*
%TD*%
D37*
%TO.C,D55*%
X354100000Y-146050000D03*
X354100000Y-149350000D03*
%TD*%
D10*
%TO.C,C10*%
X189475000Y-152300000D03*
X187925000Y-152300000D03*
%TD*%
D28*
%TO.C,R184*%
X249950000Y-126525000D03*
X249950000Y-132450000D03*
%TD*%
D32*
%TO.C,R100*%
X274100000Y-161000000D03*
X275750000Y-161000000D03*
%TD*%
D16*
%TO.C,R186*%
X248825000Y-139712500D03*
X248825000Y-138062500D03*
%TD*%
D10*
%TO.C,C7*%
X189475000Y-157700000D03*
X187925000Y-157700000D03*
%TD*%
D38*
%TO.C,TR3*%
X185220000Y-168040000D03*
X185220000Y-165500000D03*
X185220000Y-162960000D03*
X169580000Y-162960000D03*
X169580000Y-165500000D03*
X169580000Y-168040000D03*
%TD*%
D19*
%TO.C,D62*%
X337150000Y-142900000D03*
X334650000Y-142900000D03*
%TD*%
D39*
%TO.C,D40*%
X296100000Y-151200000D03*
X293300000Y-151200000D03*
%TD*%
D28*
%TO.C,R157*%
X292050000Y-126537500D03*
X292050000Y-132462500D03*
%TD*%
D16*
%TO.C,R72*%
X147600000Y-139725000D03*
X147600000Y-138075000D03*
%TD*%
D25*
%TO.C,C114*%
X241600000Y-141200000D03*
X243150000Y-141200000D03*
%TD*%
D16*
%TO.C,R168*%
X276950000Y-139712500D03*
X276950000Y-138062500D03*
%TD*%
D39*
%TO.C,D8*%
X175175000Y-151300000D03*
X172375000Y-151300000D03*
%TD*%
D18*
%TO.C,Q24*%
X189300000Y-136337500D03*
X191200000Y-136337500D03*
X190250000Y-134462500D03*
%TD*%
D40*
%TO.C,L1*%
X101625000Y-128412500D03*
X101625000Y-132912500D03*
%TD*%
D32*
%TO.C,R98*%
X213275000Y-161000000D03*
X214925000Y-161000000D03*
%TD*%
D20*
%TO.C,F50*%
X312750000Y-122762500D03*
X312750000Y-124637500D03*
%TD*%
D34*
%TO.C,C24*%
X162800000Y-165675000D03*
X162800000Y-164125000D03*
%TD*%
D10*
%TO.C,C29*%
X113875000Y-165400000D03*
X112325000Y-165400000D03*
%TD*%
D28*
%TO.C,R241*%
X303425000Y-126437500D03*
X303425000Y-132362500D03*
%TD*%
%TO.C,R118*%
X212300000Y-126537500D03*
X212300000Y-132462500D03*
%TD*%
D18*
%TO.C,Q8*%
X143250000Y-136337500D03*
X145150000Y-136337500D03*
X144200000Y-134462500D03*
%TD*%
D21*
%TO.C,R25*%
X164400000Y-163100000D03*
X164400000Y-164750000D03*
%TD*%
D19*
%TO.C,D45*%
X279050000Y-142987500D03*
X276550000Y-142987500D03*
%TD*%
D12*
%TO.C,SW1*%
X41600000Y-141460000D03*
D13*
X41600000Y-144000000D03*
X41600000Y-146540000D03*
X41600000Y-149080000D03*
X41600000Y-151620000D03*
X41600000Y-154160000D03*
X41600000Y-156700000D03*
X41600000Y-159240000D03*
X49220000Y-159240000D03*
X49220000Y-156700000D03*
X49220000Y-154160000D03*
X49220000Y-151620000D03*
X49220000Y-149080000D03*
X49220000Y-146540000D03*
X49220000Y-144000000D03*
X49220000Y-141460000D03*
%TD*%
D16*
%TO.C,R45*%
X139100000Y-152125000D03*
X139100000Y-150475000D03*
%TD*%
D10*
%TO.C,C2*%
X129829962Y-156200000D03*
X128279962Y-156200000D03*
%TD*%
D19*
%TO.C,D36*%
X187050000Y-143000000D03*
X184550000Y-143000000D03*
%TD*%
D16*
%TO.C,R128*%
X200300000Y-139725000D03*
X200300000Y-138075000D03*
%TD*%
%TO.C,R69*%
X152100000Y-139725000D03*
X152100000Y-138075000D03*
%TD*%
D21*
%TO.C,R93*%
X326200000Y-163075000D03*
X326200000Y-164725000D03*
%TD*%
D18*
%TO.C,Q3*%
X165750000Y-136337500D03*
X167650000Y-136337500D03*
X166700000Y-134462500D03*
%TD*%
D21*
%TO.C,R40*%
X175100000Y-153375000D03*
X175100000Y-155025000D03*
%TD*%
D41*
%TO.C,U6*%
X100675000Y-125987500D03*
X101625000Y-125987500D03*
X102575000Y-125987500D03*
X102575000Y-123287500D03*
X101625000Y-123287500D03*
X100675000Y-123287500D03*
%TD*%
D20*
%TO.C,F40*%
X357600000Y-126362500D03*
X357600000Y-128237500D03*
%TD*%
D15*
%TO.C,D41*%
X262600000Y-163787500D03*
X262600000Y-162212500D03*
%TD*%
D17*
%TO.C,TP2*%
X101600000Y-142700000D03*
%TD*%
D34*
%TO.C,C117*%
X312700000Y-154875000D03*
X312700000Y-153325000D03*
%TD*%
D16*
%TO.C,R212*%
X351100000Y-139625000D03*
X351100000Y-137975000D03*
%TD*%
%TO.C,R57*%
X170300000Y-139725000D03*
X170300000Y-138075000D03*
%TD*%
D25*
%TO.C,C113*%
X246250000Y-141200000D03*
X247800000Y-141200000D03*
%TD*%
D22*
%TO.C,R11*%
X182225000Y-153000000D03*
X180575000Y-153000000D03*
%TD*%
D28*
%TO.C,R64*%
X157700000Y-126537500D03*
X157700000Y-132462500D03*
%TD*%
D26*
%TO.C,TH20*%
X304295000Y-152200000D03*
D27*
X306195000Y-152200000D03*
%TD*%
D10*
%TO.C,C19*%
X309595000Y-154600000D03*
X308045000Y-154600000D03*
%TD*%
D16*
%TO.C,R209*%
X355600000Y-139625000D03*
X355600000Y-137975000D03*
%TD*%
D21*
%TO.C,R50*%
X250400000Y-166475000D03*
X250400000Y-168125000D03*
%TD*%
D16*
%TO.C,R94*%
X201700000Y-163537500D03*
X201700000Y-161887500D03*
%TD*%
D21*
%TO.C,R32*%
X150600000Y-162875000D03*
X150600000Y-164525000D03*
%TD*%
D16*
%TO.C,R89*%
X122925000Y-139725000D03*
X122925000Y-138075000D03*
%TD*%
D18*
%TO.C,Q33*%
X267700000Y-136325000D03*
X269600000Y-136325000D03*
X268650000Y-134450000D03*
%TD*%
D19*
%TO.C,D65*%
X323200000Y-142900000D03*
X320700000Y-142900000D03*
%TD*%
D25*
%TO.C,C86*%
X191450000Y-141200000D03*
X193000000Y-141200000D03*
%TD*%
D21*
%TO.C,R151*%
X52300000Y-166750000D03*
X52300000Y-168400000D03*
%TD*%
D20*
%TO.C,F39*%
X240600000Y-122850000D03*
X240600000Y-124725000D03*
%TD*%
D22*
%TO.C,R16*%
X243250000Y-154600000D03*
X241600000Y-154600000D03*
%TD*%
D10*
%TO.C,C50*%
X148975000Y-165400000D03*
X147425000Y-165400000D03*
%TD*%
D19*
%TO.C,D46*%
X274400000Y-142987500D03*
X271900000Y-142987500D03*
%TD*%
D34*
%TO.C,C47*%
X227300000Y-165675000D03*
X227300000Y-164125000D03*
%TD*%
D22*
%TO.C,FB3*%
X295925000Y-138100000D03*
X294275000Y-138100000D03*
%TD*%
D10*
%TO.C,C31*%
X104625000Y-145250000D03*
X103075000Y-145250000D03*
%TD*%
D28*
%TO.C,R67*%
X153200000Y-126537500D03*
X153200000Y-132462500D03*
%TD*%
D18*
%TO.C,Q5*%
X156750000Y-136337500D03*
X158650000Y-136337500D03*
X157700000Y-134462500D03*
%TD*%
%TO.C,Q45*%
X335100000Y-136237500D03*
X337000000Y-136237500D03*
X336050000Y-134362500D03*
%TD*%
D20*
%TO.C,F23*%
X194700000Y-122862500D03*
X194700000Y-124737500D03*
%TD*%
D16*
%TO.C,R147*%
X259500000Y-152025000D03*
X259500000Y-150375000D03*
%TD*%
D34*
%TO.C,C21*%
X98925000Y-124862500D03*
X98925000Y-123312500D03*
%TD*%
D25*
%TO.C,C70*%
X192325000Y-165500000D03*
X193875000Y-165500000D03*
%TD*%
D18*
%TO.C,Q11*%
X129850000Y-136337500D03*
X131750000Y-136337500D03*
X130800000Y-134462500D03*
%TD*%
D22*
%TO.C,R10*%
X182225000Y-155300000D03*
X180575000Y-155300000D03*
%TD*%
D16*
%TO.C,R218*%
X341800000Y-139625000D03*
X341800000Y-137975000D03*
%TD*%
D18*
%TO.C,Q25*%
X184900000Y-136337500D03*
X186800000Y-136337500D03*
X185850000Y-134462500D03*
%TD*%
D20*
%TO.C,F15*%
X229900000Y-122862500D03*
X229900000Y-124737500D03*
%TD*%
D21*
%TO.C,R23*%
X284800000Y-166525000D03*
X284800000Y-168175000D03*
%TD*%
D26*
%TO.C,TH17*%
X304300000Y-158800000D03*
D27*
X306200000Y-158800000D03*
%TD*%
D10*
%TO.C,C22*%
X309595000Y-152900000D03*
X308045000Y-152900000D03*
%TD*%
D16*
%TO.C,R180*%
X258350000Y-139712500D03*
X258350000Y-138062500D03*
%TD*%
D42*
%TO.C,D56*%
X351600000Y-146100000D03*
X351600000Y-148900000D03*
%TD*%
D19*
%TO.C,D58*%
X355750000Y-142900000D03*
X353250000Y-142900000D03*
%TD*%
D16*
%TO.C,R161*%
X288400000Y-139725000D03*
X288400000Y-138075000D03*
%TD*%
D17*
%TO.C,TP10*%
X303500000Y-150050000D03*
%TD*%
D22*
%TO.C,R9*%
X182225000Y-158000000D03*
X180575000Y-158000000D03*
%TD*%
D28*
%TO.C,R169*%
X273450000Y-126525000D03*
X273450000Y-132450000D03*
%TD*%
D31*
%TO.C,J17*%
X320000000Y-119000000D03*
D30*
X317500000Y-119000000D03*
X315000000Y-119000000D03*
X312500000Y-119000000D03*
X310000000Y-119000000D03*
X307500000Y-119000000D03*
X305000000Y-119000000D03*
%TD*%
D26*
%TO.C,TH3*%
X124495000Y-154900000D03*
D27*
X126395000Y-154900000D03*
%TD*%
D25*
%TO.C,C82*%
X209100000Y-141200000D03*
X210650000Y-141200000D03*
%TD*%
D34*
%TO.C,C90*%
X256300000Y-152975000D03*
X256300000Y-151425000D03*
%TD*%
D25*
%TO.C,C55*%
X154400000Y-141200000D03*
X155950000Y-141200000D03*
%TD*%
D22*
%TO.C,R7*%
X122525000Y-150500000D03*
X120875000Y-150500000D03*
%TD*%
D20*
%TO.C,F2*%
X170600000Y-122862500D03*
X170600000Y-124737500D03*
%TD*%
D28*
%TO.C,R217*%
X340700000Y-126437500D03*
X340700000Y-132362500D03*
%TD*%
%TO.C,R181*%
X254650000Y-126525000D03*
X254650000Y-132450000D03*
%TD*%
D19*
%TO.C,D61*%
X341800000Y-142900000D03*
X339300000Y-142900000D03*
%TD*%
D18*
%TO.C,Q19*%
X211350000Y-136337500D03*
X213250000Y-136337500D03*
X212300000Y-134462500D03*
%TD*%
D16*
%TO.C,R74*%
X145400000Y-139725000D03*
X145400000Y-138075000D03*
%TD*%
D18*
%TO.C,Q2*%
X170450000Y-136337500D03*
X172350000Y-136337500D03*
X171400000Y-134462500D03*
%TD*%
D25*
%TO.C,C56*%
X149900000Y-141200000D03*
X151450000Y-141200000D03*
%TD*%
D36*
%TO.C,U11*%
X154450000Y-149587500D03*
X153950000Y-149587500D03*
X153450000Y-149587500D03*
X152950000Y-149587500D03*
X152450000Y-149587500D03*
X151950000Y-149587500D03*
X151450000Y-149587500D03*
X150950000Y-149587500D03*
X150450000Y-149587500D03*
X149950000Y-149587500D03*
X149450000Y-149587500D03*
X148950000Y-149587500D03*
X148450000Y-149587500D03*
X147950000Y-149587500D03*
X147450000Y-149587500D03*
X146950000Y-149587500D03*
X146450000Y-149587500D03*
X145950000Y-149587500D03*
X145450000Y-149587500D03*
X144950000Y-149587500D03*
X144450000Y-149587500D03*
X143950000Y-149587500D03*
X143450000Y-149587500D03*
X142950000Y-149587500D03*
X142950000Y-157012500D03*
X143450000Y-157012500D03*
X143950000Y-157012500D03*
X144450000Y-157012500D03*
X144950000Y-157012500D03*
X145450000Y-157012500D03*
X145950000Y-157012500D03*
X146450000Y-157012500D03*
X146950000Y-157012500D03*
X147450000Y-157012500D03*
X147950000Y-157012500D03*
X148450000Y-157012500D03*
X148950000Y-157012500D03*
X149450000Y-157012500D03*
X149950000Y-157012500D03*
X150450000Y-157012500D03*
X150950000Y-157012500D03*
X151450000Y-157012500D03*
X151950000Y-157012500D03*
X152450000Y-157012500D03*
X152950000Y-157012500D03*
X153450000Y-157012500D03*
X153950000Y-157012500D03*
X154450000Y-157012500D03*
%TD*%
D34*
%TO.C,C40*%
X168700000Y-151475000D03*
X168700000Y-149925000D03*
%TD*%
D16*
%TO.C,R191*%
X241600000Y-139725000D03*
X241600000Y-138075000D03*
%TD*%
D25*
%TO.C,C59*%
X136400000Y-141200000D03*
X137950000Y-141200000D03*
%TD*%
D21*
%TO.C,TH16*%
X326500000Y-117175000D03*
X326500000Y-118825000D03*
%TD*%
D18*
%TO.C,Q38*%
X244300000Y-136325000D03*
X246200000Y-136325000D03*
X245250000Y-134450000D03*
%TD*%
D16*
%TO.C,R110*%
X226700000Y-139725000D03*
X226700000Y-138075000D03*
%TD*%
D20*
%TO.C,F14*%
X232900000Y-122862500D03*
X232900000Y-124737500D03*
%TD*%
%TO.C,F8*%
X144200000Y-122862500D03*
X144200000Y-124737500D03*
%TD*%
D19*
%TO.C,D44*%
X283725000Y-143000000D03*
X281225000Y-143000000D03*
%TD*%
D20*
%TO.C,F7*%
X148700000Y-122862500D03*
X148700000Y-124737500D03*
%TD*%
D16*
%TO.C,R99*%
X198300000Y-163512500D03*
X198300000Y-161862500D03*
%TD*%
D25*
%TO.C,C83*%
X204700000Y-141200000D03*
X206250000Y-141200000D03*
%TD*%
D19*
%TO.C,D27*%
X226700000Y-143000000D03*
X224200000Y-143000000D03*
%TD*%
D18*
%TO.C,Q9*%
X138750000Y-136337500D03*
X140650000Y-136337500D03*
X139700000Y-134462500D03*
%TD*%
D25*
%TO.C,C48*%
X330025000Y-166400000D03*
X331575000Y-166400000D03*
%TD*%
D18*
%TO.C,Q20*%
X206950000Y-136337500D03*
X208850000Y-136337500D03*
X207900000Y-134462500D03*
%TD*%
D19*
%TO.C,D32*%
X204700000Y-143000000D03*
X202200000Y-143000000D03*
%TD*%
D25*
%TO.C,C60*%
X131900000Y-141200000D03*
X133450000Y-141200000D03*
%TD*%
%TO.C,C136*%
X323200000Y-141100000D03*
X324750000Y-141100000D03*
%TD*%
D16*
%TO.C,R150*%
X261000000Y-163800000D03*
X261000000Y-162150000D03*
%TD*%
D28*
%TO.C,R136*%
X185850000Y-126537500D03*
X185850000Y-132462500D03*
%TD*%
D19*
%TO.C,D47*%
X269700000Y-142987500D03*
X267200000Y-142987500D03*
%TD*%
D18*
%TO.C,Q41*%
X353700000Y-136237500D03*
X355600000Y-136237500D03*
X354650000Y-134362500D03*
%TD*%
D19*
%TO.C,D26*%
X231100000Y-143000000D03*
X228600000Y-143000000D03*
%TD*%
D25*
%TO.C,C76*%
X308125000Y-165500000D03*
X309675000Y-165500000D03*
%TD*%
D16*
%TO.C,R83*%
X131900000Y-139725000D03*
X131900000Y-138075000D03*
%TD*%
D22*
%TO.C,R143*%
X283525000Y-148500000D03*
X281875000Y-148500000D03*
%TD*%
D33*
%TO.C,C93*%
X293600000Y-156900000D03*
X293600000Y-158450000D03*
%TD*%
D28*
%TO.C,R238*%
X308075000Y-126437500D03*
X308075000Y-132362500D03*
%TD*%
D25*
%TO.C,C103*%
X293100000Y-141200000D03*
X294650000Y-141200000D03*
%TD*%
D16*
%TO.C,R227*%
X327850000Y-139625000D03*
X327850000Y-137975000D03*
%TD*%
D19*
%TO.C,D53*%
X241950000Y-143000000D03*
X239450000Y-143000000D03*
%TD*%
D34*
%TO.C,C65*%
X197800000Y-152475000D03*
X197800000Y-150925000D03*
%TD*%
D16*
%TO.C,R144*%
X53900000Y-162350000D03*
X53900000Y-160700000D03*
%TD*%
%TO.C,R165*%
X281650000Y-139725000D03*
X281650000Y-138075000D03*
%TD*%
D25*
%TO.C,C134*%
X332500000Y-141100000D03*
X334050000Y-141100000D03*
%TD*%
D18*
%TO.C,Q12*%
X125375000Y-136337500D03*
X127275000Y-136337500D03*
X126325000Y-134462500D03*
%TD*%
D19*
%TO.C,D13*%
X158900000Y-143000000D03*
X156400000Y-143000000D03*
%TD*%
D22*
%TO.C,R44*%
X149625000Y-159500000D03*
X147975000Y-159500000D03*
%TD*%
%TO.C,R146*%
X265725000Y-162200000D03*
X264075000Y-162200000D03*
%TD*%
D16*
%TO.C,R24*%
X328500000Y-164725000D03*
X328500000Y-163075000D03*
%TD*%
D19*
%TO.C,D60*%
X346450000Y-142900000D03*
X343950000Y-142900000D03*
%TD*%
D26*
%TO.C,TH9*%
X184095000Y-153000000D03*
D27*
X185995000Y-153000000D03*
%TD*%
D21*
%TO.C,R193*%
X346400000Y-147175000D03*
X346400000Y-148825000D03*
%TD*%
D15*
%TO.C,D57*%
X332200000Y-155787500D03*
X332200000Y-154212500D03*
%TD*%
D25*
%TO.C,C88*%
X182600000Y-141200000D03*
X184150000Y-141200000D03*
%TD*%
D16*
%TO.C,R185*%
X250925000Y-139712500D03*
X250925000Y-138062500D03*
%TD*%
D34*
%TO.C,C42*%
X228800000Y-150800000D03*
X228800000Y-149250000D03*
%TD*%
D20*
%TO.C,F38*%
X245250000Y-122850000D03*
X245250000Y-124725000D03*
%TD*%
D19*
%TO.C,D15*%
X149900000Y-143000000D03*
X147400000Y-143000000D03*
%TD*%
D17*
%TO.C,TP8*%
X243400000Y-149800000D03*
%TD*%
D26*
%TO.C,TH7*%
X184095000Y-158000000D03*
D27*
X185995000Y-158000000D03*
%TD*%
D25*
%TO.C,C57*%
X145400000Y-141200000D03*
X146950000Y-141200000D03*
%TD*%
D20*
%TO.C,F49*%
X317425000Y-122762500D03*
X317425000Y-124637500D03*
%TD*%
D16*
%TO.C,R231*%
X321100000Y-139625000D03*
X321100000Y-137975000D03*
%TD*%
%TO.C,R122*%
X209100000Y-139725000D03*
X209100000Y-138075000D03*
%TD*%
D28*
%TO.C,R109*%
X225500000Y-126537500D03*
X225500000Y-132462500D03*
%TD*%
D43*
%TO.C,C25*%
X101625000Y-135275000D03*
X99725000Y-135275000D03*
%TD*%
D22*
%TO.C,FB1*%
X175425000Y-138200000D03*
X173775000Y-138200000D03*
%TD*%
%TO.C,R92*%
X223225000Y-147500000D03*
X221575000Y-147500000D03*
%TD*%
D16*
%TO.C,R80*%
X136400000Y-139725000D03*
X136400000Y-138075000D03*
%TD*%
D33*
%TO.C,C36*%
X50000000Y-128625000D03*
X50000000Y-130175000D03*
%TD*%
D16*
%TO.C,R56*%
X172350000Y-139725000D03*
X172350000Y-138075000D03*
%TD*%
D28*
%TO.C,R58*%
X166700000Y-126537500D03*
X166700000Y-132462500D03*
%TD*%
D22*
%TO.C,R17*%
X243250000Y-151887500D03*
X241600000Y-151887500D03*
%TD*%
D25*
%TO.C,C52*%
X167900000Y-141200000D03*
X169450000Y-141200000D03*
%TD*%
D16*
%TO.C,R132*%
X193600000Y-139725000D03*
X193600000Y-138075000D03*
%TD*%
D34*
%TO.C,C39*%
X137500000Y-152575000D03*
X137500000Y-151025000D03*
%TD*%
D11*
%TO.C,J2*%
X274100000Y-166000000D03*
%TD*%
D28*
%TO.C,R226*%
X326750000Y-126437500D03*
X326750000Y-132362500D03*
%TD*%
D20*
%TO.C,F44*%
X340700000Y-122762500D03*
X340700000Y-124637500D03*
%TD*%
D19*
%TO.C,D64*%
X327850000Y-142900000D03*
X325350000Y-142900000D03*
%TD*%
D16*
%TO.C,R137*%
X187050000Y-139725000D03*
X187050000Y-138075000D03*
%TD*%
D33*
%TO.C,C33*%
X66500000Y-129200000D03*
X66500000Y-130750000D03*
%TD*%
D20*
%TO.C,F34*%
X264175000Y-122850000D03*
X264175000Y-124725000D03*
%TD*%
D12*
%TO.C,U1*%
X65300000Y-168290000D03*
D13*
X65300000Y-165750000D03*
X65300000Y-163210000D03*
X65300000Y-160670000D03*
X65300000Y-158130000D03*
X65300000Y-155590000D03*
X65300000Y-153050000D03*
X65300000Y-150510000D03*
X65300000Y-147970000D03*
X65300000Y-145430000D03*
X65300000Y-142890000D03*
X65300000Y-140350000D03*
X65300000Y-137810000D03*
X65300000Y-135270000D03*
X57680000Y-135270000D03*
X57680000Y-137810000D03*
X57680000Y-140350000D03*
X57680000Y-142890000D03*
X57680000Y-145430000D03*
X57680000Y-147970000D03*
X57680000Y-150510000D03*
X57680000Y-153050000D03*
X57680000Y-155590000D03*
X57680000Y-158130000D03*
X57680000Y-160670000D03*
X57680000Y-163210000D03*
X57680000Y-165750000D03*
X57680000Y-168290000D03*
%TD*%
D18*
%TO.C,Q32*%
X272500000Y-136325000D03*
X274400000Y-136325000D03*
X273450000Y-134450000D03*
%TD*%
D33*
%TO.C,C41*%
X171450000Y-155800000D03*
X171450000Y-157350000D03*
%TD*%
D25*
%TO.C,C51*%
X172350000Y-141200000D03*
X173900000Y-141200000D03*
%TD*%
D28*
%TO.C,R163*%
X282700000Y-126525000D03*
X282700000Y-132450000D03*
%TD*%
D16*
%TO.C,R126*%
X202400000Y-139725000D03*
X202400000Y-138075000D03*
%TD*%
D25*
%TO.C,C109*%
X265075000Y-141200000D03*
X266625000Y-141200000D03*
%TD*%
D18*
%TO.C,Q44*%
X339750000Y-136237500D03*
X341650000Y-136237500D03*
X340700000Y-134362500D03*
%TD*%
D20*
%TO.C,F21*%
X203500000Y-122862500D03*
X203500000Y-124737500D03*
%TD*%
D21*
%TO.C,R47*%
X211800000Y-159375000D03*
X211800000Y-161025000D03*
%TD*%
D20*
%TO.C,F47*%
X326750000Y-122762500D03*
X326750000Y-124637500D03*
%TD*%
D18*
%TO.C,Q17*%
X220150000Y-136337500D03*
X222050000Y-136337500D03*
X221100000Y-134462500D03*
%TD*%
D25*
%TO.C,C119*%
X346425000Y-151000000D03*
X347975000Y-151000000D03*
%TD*%
%TO.C,C80*%
X217900000Y-141200000D03*
X219450000Y-141200000D03*
%TD*%
D21*
%TO.C,R36*%
X110500000Y-166350000D03*
X110500000Y-168000000D03*
%TD*%
D20*
%TO.C,F6*%
X153200000Y-122862500D03*
X153200000Y-124737500D03*
%TD*%
D21*
%TO.C,TH11*%
X268650000Y-117537500D03*
X268650000Y-119187500D03*
%TD*%
%TO.C,R148*%
X52300000Y-161550000D03*
X52300000Y-163200000D03*
%TD*%
D22*
%TO.C,R15*%
X243250000Y-156800000D03*
X241600000Y-156800000D03*
%TD*%
D16*
%TO.C,R65*%
X158900000Y-139725000D03*
X158900000Y-138075000D03*
%TD*%
D18*
%TO.C,Q18*%
X215750000Y-136337500D03*
X217650000Y-136337500D03*
X216700000Y-134462500D03*
%TD*%
D21*
%TO.C,R27*%
X284800000Y-163050000D03*
X284800000Y-164700000D03*
%TD*%
D16*
%TO.C,R59*%
X167900000Y-139725000D03*
X167900000Y-138075000D03*
%TD*%
D20*
%TO.C,F35*%
X259450000Y-122850000D03*
X259450000Y-124725000D03*
%TD*%
%TO.C,F48*%
X322100000Y-122762500D03*
X322100000Y-124637500D03*
%TD*%
D44*
%TO.C,U10*%
X62725000Y-129210000D03*
X62725000Y-126670000D03*
X62725000Y-124130000D03*
X62725000Y-121590000D03*
X53675000Y-121590000D03*
X53675000Y-124130000D03*
X53675000Y-126670000D03*
X53675000Y-129210000D03*
%TD*%
D16*
%TO.C,R182*%
X255650000Y-139712500D03*
X255650000Y-138062500D03*
%TD*%
D25*
%TO.C,C140*%
X304525000Y-141100000D03*
X306075000Y-141100000D03*
%TD*%
D29*
%TO.C,JP1*%
X52300000Y-142100000D03*
X53600000Y-142100000D03*
X54900000Y-142100000D03*
%TD*%
D32*
%TO.C,R42*%
X152975000Y-162100000D03*
X154625000Y-162100000D03*
%TD*%
D20*
%TO.C,F25*%
X186800000Y-122862500D03*
X186800000Y-124737500D03*
%TD*%
%TO.C,F1*%
X173100000Y-122862500D03*
X173100000Y-124737500D03*
%TD*%
D16*
%TO.C,R215*%
X346450000Y-139625000D03*
X346450000Y-137975000D03*
%TD*%
D20*
%TO.C,F37*%
X249950000Y-122850000D03*
X249950000Y-124725000D03*
%TD*%
%TO.C,F32*%
X273450000Y-122850000D03*
X273450000Y-124725000D03*
%TD*%
D10*
%TO.C,C26*%
X167575000Y-165600000D03*
X166025000Y-165600000D03*
%TD*%
D18*
%TO.C,Q26*%
X180450000Y-136337500D03*
X182350000Y-136337500D03*
X181400000Y-134462500D03*
%TD*%
D16*
%TO.C,R243*%
X302425000Y-139650000D03*
X302425000Y-138000000D03*
%TD*%
%TO.C,R239*%
X309175000Y-139625000D03*
X309175000Y-137975000D03*
%TD*%
D33*
%TO.C,C67*%
X231100000Y-155200000D03*
X231100000Y-156750000D03*
%TD*%
D25*
%TO.C,C137*%
X318525000Y-141100000D03*
X320075000Y-141100000D03*
%TD*%
D18*
%TO.C,Q52*%
X302475000Y-136237500D03*
X304375000Y-136237500D03*
X303425000Y-134362500D03*
%TD*%
D25*
%TO.C,C85*%
X195900000Y-141200000D03*
X197450000Y-141200000D03*
%TD*%
D28*
%TO.C,R190*%
X240600000Y-126537500D03*
X240600000Y-132462500D03*
%TD*%
D30*
%TO.C,J11*%
X127700000Y-119000000D03*
X130200000Y-119000000D03*
X132700000Y-119000000D03*
X135200000Y-119000000D03*
X137700000Y-119000000D03*
X140200000Y-119000000D03*
D31*
X142700000Y-119000000D03*
%TD*%
D21*
%TO.C,R102*%
X55100000Y-146475000D03*
X55100000Y-148125000D03*
%TD*%
D20*
%TO.C,F42*%
X347600000Y-122862500D03*
X347600000Y-124737500D03*
%TD*%
D34*
%TO.C,C20*%
X104675000Y-125975000D03*
X104675000Y-124425000D03*
%TD*%
D26*
%TO.C,TH5*%
X124495000Y-150500000D03*
D27*
X126395000Y-150500000D03*
%TD*%
D19*
%TO.C,D48*%
X265150000Y-142987500D03*
X262650000Y-142987500D03*
%TD*%
%TO.C,D42*%
X293100000Y-143000000D03*
X290600000Y-143000000D03*
%TD*%
D28*
%TO.C,R82*%
X130800000Y-126537500D03*
X130800000Y-132462500D03*
%TD*%
D16*
%TO.C,R87*%
X125300000Y-139725000D03*
X125300000Y-138075000D03*
%TD*%
D25*
%TO.C,C139*%
X309175000Y-141100000D03*
X310725000Y-141100000D03*
%TD*%
D16*
%TO.C,R173*%
X269700000Y-139712500D03*
X269700000Y-138062500D03*
%TD*%
D17*
%TO.C,TP5*%
X223700000Y-150500000D03*
%TD*%
D16*
%TO.C,R131*%
X195900000Y-139725000D03*
X195900000Y-138075000D03*
%TD*%
%TO.C,R66*%
X156600000Y-139725000D03*
X156600000Y-138075000D03*
%TD*%
%TO.C,R129*%
X198000000Y-139725000D03*
X198000000Y-138075000D03*
%TD*%
D28*
%TO.C,R208*%
X354650000Y-126437500D03*
X354650000Y-132362500D03*
%TD*%
D34*
%TO.C,C91*%
X257900000Y-152475000D03*
X257900000Y-150925000D03*
%TD*%
D18*
%TO.C,Q7*%
X147750000Y-136337500D03*
X149650000Y-136337500D03*
X148700000Y-134462500D03*
%TD*%
D16*
%TO.C,R140*%
X182600000Y-139725000D03*
X182600000Y-138075000D03*
%TD*%
D25*
%TO.C,C32*%
X103075000Y-146800000D03*
X104625000Y-146800000D03*
%TD*%
D34*
%TO.C,C43*%
X290900000Y-152375000D03*
X290900000Y-150825000D03*
%TD*%
D22*
%TO.C,R194*%
X344400000Y-147200000D03*
X342750000Y-147200000D03*
%TD*%
D33*
%TO.C,C115*%
X330600000Y-150225000D03*
X330600000Y-151775000D03*
%TD*%
D14*
%TO.C,D7*%
X175150000Y-148900000D03*
X171850000Y-148900000D03*
%TD*%
D19*
%TO.C,D29*%
X217900000Y-143000000D03*
X215400000Y-143000000D03*
%TD*%
D18*
%TO.C,Q4*%
X161250000Y-136337500D03*
X163150000Y-136337500D03*
X162200000Y-134462500D03*
%TD*%
D16*
%TO.C,R183*%
X253550000Y-139712500D03*
X253550000Y-138062500D03*
%TD*%
D21*
%TO.C,R46*%
X190700000Y-166450000D03*
X190700000Y-168100000D03*
%TD*%
D18*
%TO.C,Q23*%
X193750000Y-136337500D03*
X195650000Y-136337500D03*
X194700000Y-134462500D03*
%TD*%
D10*
%TO.C,C8*%
X189475000Y-155500000D03*
X187925000Y-155500000D03*
%TD*%
D20*
%TO.C,F52*%
X303400000Y-122762500D03*
X303400000Y-124637500D03*
%TD*%
D28*
%TO.C,R223*%
X331400000Y-126437500D03*
X331400000Y-132362500D03*
%TD*%
D18*
%TO.C,Q10*%
X134250000Y-136337500D03*
X136150000Y-136337500D03*
X135200000Y-134462500D03*
%TD*%
D20*
%TO.C,F9*%
X139700000Y-122862500D03*
X139700000Y-124737500D03*
%TD*%
D16*
%TO.C,R134*%
X191450000Y-139725000D03*
X191450000Y-138075000D03*
%TD*%
D10*
%TO.C,C6*%
X189475000Y-159300000D03*
X187925000Y-159300000D03*
%TD*%
D28*
%TO.C,R73*%
X144200000Y-126537500D03*
X144200000Y-132462500D03*
%TD*%
%TO.C,R124*%
X203500000Y-126537500D03*
X203500000Y-132462500D03*
%TD*%
D45*
%TO.C,J6*%
X111500000Y-138200000D03*
D46*
X113600000Y-130900000D03*
D47*
X109400000Y-130900000D03*
X113600000Y-125400000D03*
X109400000Y-125400000D03*
%TD*%
D16*
%TO.C,R103*%
X53500000Y-149825000D03*
X53500000Y-148175000D03*
%TD*%
D18*
%TO.C,Q28*%
X291100000Y-136337500D03*
X293000000Y-136337500D03*
X292050000Y-134462500D03*
%TD*%
D16*
%TO.C,R222*%
X335050000Y-139625000D03*
X335050000Y-137975000D03*
%TD*%
D14*
%TO.C,D6*%
X175150000Y-146500000D03*
X171850000Y-146500000D03*
%TD*%
D16*
%TO.C,R177*%
X263050000Y-139712500D03*
X263050000Y-138062500D03*
%TD*%
D20*
%TO.C,F27*%
X293400000Y-122862500D03*
X293400000Y-124737500D03*
%TD*%
D19*
%TO.C,D30*%
X213500000Y-143000000D03*
X211000000Y-143000000D03*
%TD*%
D48*
%TO.C,D9*%
X161300000Y-149812500D03*
X161300000Y-151387500D03*
%TD*%
D21*
%TO.C,R37*%
X110500000Y-162875000D03*
X110500000Y-164525000D03*
%TD*%
D20*
%TO.C,F36*%
X254650000Y-122850000D03*
X254650000Y-124725000D03*
%TD*%
D16*
%TO.C,R96*%
X199400000Y-152125000D03*
X199400000Y-150475000D03*
%TD*%
D38*
%TO.C,TR5*%
X305720000Y-168040000D03*
X305720000Y-165500000D03*
X305720000Y-162960000D03*
X290080000Y-162960000D03*
X290080000Y-165500000D03*
X290080000Y-168040000D03*
%TD*%
D28*
%TO.C,R175*%
X264175000Y-126525000D03*
X264175000Y-132450000D03*
%TD*%
D16*
%TO.C,R95*%
X203300000Y-163537500D03*
X203300000Y-161887500D03*
%TD*%
D26*
%TO.C,TH18*%
X304300000Y-156500000D03*
D27*
X306200000Y-156500000D03*
%TD*%
D22*
%TO.C,R39*%
X101525000Y-140650000D03*
X99875000Y-140650000D03*
%TD*%
D20*
%TO.C,F16*%
X225500000Y-122862500D03*
X225500000Y-124737500D03*
%TD*%
D16*
%TO.C,R159*%
X290700000Y-139725000D03*
X290700000Y-138075000D03*
%TD*%
%TO.C,R81*%
X134100000Y-139725000D03*
X134100000Y-138075000D03*
%TD*%
D25*
%TO.C,C133*%
X337150000Y-141100000D03*
X338700000Y-141100000D03*
%TD*%
%TO.C,C108*%
X269700000Y-141200000D03*
X271250000Y-141200000D03*
%TD*%
D21*
%TO.C,R51*%
X250400000Y-163075000D03*
X250400000Y-164725000D03*
%TD*%
D14*
%TO.C,D22*%
X234250000Y-150200000D03*
X230950000Y-150200000D03*
%TD*%
D16*
%TO.C,R179*%
X260450000Y-139712500D03*
X260450000Y-138062500D03*
%TD*%
D18*
%TO.C,Q47*%
X325800000Y-136237500D03*
X327700000Y-136237500D03*
X326750000Y-134362500D03*
%TD*%
D49*
%TO.C,Q1*%
X168700000Y-158100000D03*
X168700000Y-155800000D03*
X168700000Y-153500000D03*
D50*
X162400000Y-155800000D03*
%TD*%
D11*
%TO.C,J4*%
X212700000Y-166000000D03*
%TD*%
D17*
%TO.C,TP6*%
X180900000Y-148600000D03*
%TD*%
D22*
%TO.C,R6*%
X122525000Y-152700000D03*
X120875000Y-152700000D03*
%TD*%
D15*
%TO.C,D4*%
X104650000Y-143737500D03*
X104650000Y-142162500D03*
%TD*%
D16*
%TO.C,R230*%
X323200000Y-139625000D03*
X323200000Y-137975000D03*
%TD*%
%TO.C,R114*%
X220000000Y-139725000D03*
X220000000Y-138075000D03*
%TD*%
%TO.C,R113*%
X222300000Y-139725000D03*
X222300000Y-138075000D03*
%TD*%
%TO.C,R224*%
X332500000Y-139625000D03*
X332500000Y-137975000D03*
%TD*%
D25*
%TO.C,C112*%
X250925000Y-141200000D03*
X252475000Y-141200000D03*
%TD*%
D33*
%TO.C,C63*%
X215800000Y-148325000D03*
X215800000Y-149875000D03*
%TD*%
D22*
%TO.C,R35*%
X112225000Y-146900000D03*
X110575000Y-146900000D03*
%TD*%
D16*
%TO.C,R60*%
X165600000Y-139725000D03*
X165600000Y-138075000D03*
%TD*%
D21*
%TO.C,TH6*%
X207900000Y-118175000D03*
X207900000Y-119825000D03*
%TD*%
D17*
%TO.C,TP9*%
X334200000Y-152300000D03*
%TD*%
D25*
%TO.C,C30*%
X107325000Y-165400000D03*
X108875000Y-165400000D03*
%TD*%
D20*
%TO.C,F12*%
X126325000Y-122862500D03*
X126325000Y-124737500D03*
%TD*%
D16*
%TO.C,R198*%
X314300000Y-154825000D03*
X314300000Y-153175000D03*
%TD*%
D25*
%TO.C,C106*%
X279050000Y-141200000D03*
X280600000Y-141200000D03*
%TD*%
%TO.C,C129*%
X355750000Y-141100000D03*
X357300000Y-141100000D03*
%TD*%
D19*
%TO.C,D19*%
X131900000Y-143000000D03*
X129400000Y-143000000D03*
%TD*%
D22*
%TO.C,FB4*%
X358725000Y-138000000D03*
X357075000Y-138000000D03*
%TD*%
D16*
%TO.C,R236*%
X313850000Y-139625000D03*
X313850000Y-137975000D03*
%TD*%
D28*
%TO.C,R61*%
X162200000Y-126537500D03*
X162200000Y-132462500D03*
%TD*%
%TO.C,R235*%
X312750000Y-126437500D03*
X312750000Y-132362500D03*
%TD*%
D32*
%TO.C,R31*%
X103475000Y-137500000D03*
X105125000Y-137500000D03*
%TD*%
D33*
%TO.C,C27*%
X68200000Y-121350000D03*
X68200000Y-122900000D03*
%TD*%
D21*
%TO.C,R97*%
X154600000Y-163575000D03*
X154600000Y-165225000D03*
%TD*%
D28*
%TO.C,R160*%
X287450000Y-126537500D03*
X287450000Y-132462500D03*
%TD*%
D25*
%TO.C,C53*%
X163400000Y-141200000D03*
X164950000Y-141200000D03*
%TD*%
D19*
%TO.C,D17*%
X140900000Y-143000000D03*
X138400000Y-143000000D03*
%TD*%
D18*
%TO.C,Q31*%
X277100000Y-136325000D03*
X279000000Y-136325000D03*
X278050000Y-134450000D03*
%TD*%
D16*
%TO.C,R174*%
X267650000Y-139712500D03*
X267650000Y-138062500D03*
%TD*%
D20*
%TO.C,F43*%
X345000000Y-122762500D03*
X345000000Y-124637500D03*
%TD*%
D19*
%TO.C,D63*%
X332500000Y-142900000D03*
X330000000Y-142900000D03*
%TD*%
D18*
%TO.C,Q34*%
X263225000Y-136325000D03*
X265125000Y-136325000D03*
X264175000Y-134450000D03*
%TD*%
D16*
%TO.C,R75*%
X143100000Y-139725000D03*
X143100000Y-138075000D03*
%TD*%
D20*
%TO.C,F4*%
X162200000Y-122862500D03*
X162200000Y-124737500D03*
%TD*%
D19*
%TO.C,D16*%
X145400000Y-143000000D03*
X142900000Y-143000000D03*
%TD*%
D21*
%TO.C,R142*%
X296100000Y-153175000D03*
X296100000Y-154825000D03*
%TD*%
D16*
%TO.C,R240*%
X307075000Y-139625000D03*
X307075000Y-137975000D03*
%TD*%
D30*
%TO.C,J10*%
X154700000Y-119000000D03*
X157200000Y-119000000D03*
X159700000Y-119000000D03*
X162200000Y-119000000D03*
X164700000Y-119000000D03*
X167200000Y-119000000D03*
D31*
X169700000Y-119000000D03*
%TD*%
D10*
%TO.C,C75*%
X287875000Y-165600000D03*
X286325000Y-165600000D03*
%TD*%
D16*
%TO.C,R135*%
X189150000Y-139725000D03*
X189150000Y-138075000D03*
%TD*%
D39*
%TO.C,D24*%
X234150000Y-145400000D03*
X231350000Y-145400000D03*
%TD*%
D16*
%TO.C,R78*%
X138600000Y-139725000D03*
X138600000Y-138075000D03*
%TD*%
%TO.C,R219*%
X339700000Y-139625000D03*
X339700000Y-137975000D03*
%TD*%
D10*
%TO.C,C11*%
X250475000Y-159200000D03*
X248925000Y-159200000D03*
%TD*%
D20*
%TO.C,F33*%
X268650000Y-122850000D03*
X268650000Y-124725000D03*
%TD*%
D21*
%TO.C,R29*%
X150600000Y-166275000D03*
X150600000Y-167925000D03*
%TD*%
D20*
%TO.C,F28*%
X291300000Y-122862500D03*
X291300000Y-124737500D03*
%TD*%
D16*
%TO.C,R188*%
X246250000Y-139712500D03*
X246250000Y-138062500D03*
%TD*%
D10*
%TO.C,C12*%
X250475000Y-157100000D03*
X248925000Y-157100000D03*
%TD*%
D20*
%TO.C,F22*%
X199100000Y-122862500D03*
X199100000Y-124737500D03*
%TD*%
%TO.C,F3*%
X166700000Y-122862500D03*
X166700000Y-124737500D03*
%TD*%
D16*
%TO.C,R77*%
X140900000Y-139725000D03*
X140900000Y-138075000D03*
%TD*%
%TO.C,R62*%
X163400000Y-139725000D03*
X163400000Y-138075000D03*
%TD*%
D36*
%TO.C,U12*%
X213650000Y-149587500D03*
X213150000Y-149587500D03*
X212650000Y-149587500D03*
X212150000Y-149587500D03*
X211650000Y-149587500D03*
X211150000Y-149587500D03*
X210650000Y-149587500D03*
X210150000Y-149587500D03*
X209650000Y-149587500D03*
X209150000Y-149587500D03*
X208650000Y-149587500D03*
X208150000Y-149587500D03*
X207650000Y-149587500D03*
X207150000Y-149587500D03*
X206650000Y-149587500D03*
X206150000Y-149587500D03*
X205650000Y-149587500D03*
X205150000Y-149587500D03*
X204650000Y-149587500D03*
X204150000Y-149587500D03*
X203650000Y-149587500D03*
X203150000Y-149587500D03*
X202650000Y-149587500D03*
X202150000Y-149587500D03*
X202150000Y-157012500D03*
X202650000Y-157012500D03*
X203150000Y-157012500D03*
X203650000Y-157012500D03*
X204150000Y-157012500D03*
X204650000Y-157012500D03*
X205150000Y-157012500D03*
X205650000Y-157012500D03*
X206150000Y-157012500D03*
X206650000Y-157012500D03*
X207150000Y-157012500D03*
X207650000Y-157012500D03*
X208150000Y-157012500D03*
X208650000Y-157012500D03*
X209150000Y-157012500D03*
X209650000Y-157012500D03*
X210150000Y-157012500D03*
X210650000Y-157012500D03*
X211150000Y-157012500D03*
X211650000Y-157012500D03*
X212150000Y-157012500D03*
X212650000Y-157012500D03*
X213150000Y-157012500D03*
X213650000Y-157012500D03*
%TD*%
D16*
%TO.C,R213*%
X349000000Y-139625000D03*
X349000000Y-137975000D03*
%TD*%
D18*
%TO.C,Q13*%
X120875000Y-136337500D03*
X122775000Y-136337500D03*
X121825000Y-134462500D03*
%TD*%
D21*
%TO.C,R101*%
X326200000Y-166175000D03*
X326200000Y-167825000D03*
%TD*%
D10*
%TO.C,C96*%
X331575000Y-164200000D03*
X330025000Y-164200000D03*
%TD*%
D36*
%TO.C,U14*%
X328050000Y-152387500D03*
X327550000Y-152387500D03*
X327050000Y-152387500D03*
X326550000Y-152387500D03*
X326050000Y-152387500D03*
X325550000Y-152387500D03*
X325050000Y-152387500D03*
X324550000Y-152387500D03*
X324050000Y-152387500D03*
X323550000Y-152387500D03*
X323050000Y-152387500D03*
X322550000Y-152387500D03*
X322050000Y-152387500D03*
X321550000Y-152387500D03*
X321050000Y-152387500D03*
X320550000Y-152387500D03*
X320050000Y-152387500D03*
X319550000Y-152387500D03*
X319050000Y-152387500D03*
X318550000Y-152387500D03*
X318050000Y-152387500D03*
X317550000Y-152387500D03*
X317050000Y-152387500D03*
X316550000Y-152387500D03*
X316550000Y-159812500D03*
X317050000Y-159812500D03*
X317550000Y-159812500D03*
X318050000Y-159812500D03*
X318550000Y-159812500D03*
X319050000Y-159812500D03*
X319550000Y-159812500D03*
X320050000Y-159812500D03*
X320550000Y-159812500D03*
X321050000Y-159812500D03*
X321550000Y-159812500D03*
X322050000Y-159812500D03*
X322550000Y-159812500D03*
X323050000Y-159812500D03*
X323550000Y-159812500D03*
X324050000Y-159812500D03*
X324550000Y-159812500D03*
X325050000Y-159812500D03*
X325550000Y-159812500D03*
X326050000Y-159812500D03*
X326550000Y-159812500D03*
X327050000Y-159812500D03*
X327550000Y-159812500D03*
X328050000Y-159812500D03*
%TD*%
D21*
%TO.C,R1*%
X164400000Y-166500000D03*
X164400000Y-168150000D03*
%TD*%
D49*
%TO.C,Q27*%
X290950000Y-159200000D03*
X290950000Y-156900000D03*
X290950000Y-154600000D03*
D50*
X284650000Y-156900000D03*
%TD*%
D18*
%TO.C,Q22*%
X198150000Y-136337500D03*
X200050000Y-136337500D03*
X199100000Y-134462500D03*
%TD*%
D28*
%TO.C,R214*%
X345350000Y-126437500D03*
X345350000Y-132362500D03*
%TD*%
D16*
%TO.C,R107*%
X231100000Y-139725000D03*
X231100000Y-138075000D03*
%TD*%
%TO.C,R84*%
X129600000Y-139725000D03*
X129600000Y-138075000D03*
%TD*%
D19*
%TO.C,D33*%
X200300000Y-143000000D03*
X197800000Y-143000000D03*
%TD*%
D34*
%TO.C,C66*%
X344000000Y-151275000D03*
X344000000Y-149725000D03*
%TD*%
D25*
%TO.C,C71*%
X252025000Y-165600000D03*
X253575000Y-165600000D03*
%TD*%
D16*
%TO.C,R108*%
X228800000Y-139725000D03*
X228800000Y-138075000D03*
%TD*%
%TO.C,R228*%
X325750000Y-139625000D03*
X325750000Y-137975000D03*
%TD*%
D10*
%TO.C,C16*%
X309570000Y-159900000D03*
X308020000Y-159900000D03*
%TD*%
D16*
%TO.C,R221*%
X337150000Y-139625000D03*
X337150000Y-137975000D03*
%TD*%
D34*
%TO.C,C64*%
X196200000Y-153075000D03*
X196200000Y-151525000D03*
%TD*%
D11*
%TO.C,J3*%
X44000000Y-119000000D03*
%TD*%
D28*
%TO.C,R130*%
X194700000Y-126537500D03*
X194700000Y-132462500D03*
%TD*%
D19*
%TO.C,D49*%
X260450000Y-142987500D03*
X257950000Y-142987500D03*
%TD*%
D16*
%TO.C,R164*%
X283725000Y-139725000D03*
X283725000Y-138075000D03*
%TD*%
D20*
%TO.C,F11*%
X130800000Y-122862500D03*
X130800000Y-124737500D03*
%TD*%
D18*
%TO.C,Q49*%
X316475000Y-136237500D03*
X318375000Y-136237500D03*
X317425000Y-134362500D03*
%TD*%
D25*
%TO.C,C45*%
X187525000Y-165500000D03*
X189075000Y-165500000D03*
%TD*%
D28*
%TO.C,R115*%
X216700000Y-126537500D03*
X216700000Y-132462500D03*
%TD*%
D10*
%TO.C,C3*%
X129829962Y-154700000D03*
X128279962Y-154700000D03*
%TD*%
D16*
%TO.C,R158*%
X292800000Y-139725000D03*
X292800000Y-138075000D03*
%TD*%
D19*
%TO.C,D18*%
X136400000Y-143000000D03*
X133900000Y-143000000D03*
%TD*%
D22*
%TO.C,R33*%
X104625000Y-140650000D03*
X102975000Y-140650000D03*
%TD*%
D20*
%TO.C,F45*%
X336050000Y-122762500D03*
X336050000Y-124637500D03*
%TD*%
D28*
%TO.C,R166*%
X278050000Y-126525000D03*
X278050000Y-132450000D03*
%TD*%
D16*
%TO.C,R141*%
X180300000Y-139725000D03*
X180300000Y-138075000D03*
%TD*%
D22*
%TO.C,R41*%
X166500000Y-146600000D03*
X164850000Y-146600000D03*
%TD*%
D18*
%TO.C,Q15*%
X228950000Y-136337500D03*
X230850000Y-136337500D03*
X229900000Y-134462500D03*
%TD*%
D25*
%TO.C,C130*%
X351100000Y-141100000D03*
X352650000Y-141100000D03*
%TD*%
D20*
%TO.C,F13*%
X121825000Y-122862500D03*
X121825000Y-124737500D03*
%TD*%
D26*
%TO.C,TH4*%
X124495000Y-152700000D03*
D27*
X126395000Y-152700000D03*
%TD*%
D14*
%TO.C,D38*%
X296100000Y-146400000D03*
X292800000Y-146400000D03*
%TD*%
D10*
%TO.C,C15*%
X250475000Y-151700000D03*
X248925000Y-151700000D03*
%TD*%
D20*
%TO.C,F30*%
X282700000Y-122862500D03*
X282700000Y-124737500D03*
%TD*%
D22*
%TO.C,FB2*%
X234300000Y-136350000D03*
X232650000Y-136350000D03*
%TD*%
D28*
%TO.C,R139*%
X181400000Y-126537500D03*
X181400000Y-132462500D03*
%TD*%
D32*
%TO.C,R13*%
X241600000Y-160087500D03*
X243250000Y-160087500D03*
%TD*%
D25*
%TO.C,C135*%
X327850000Y-141100000D03*
X329400000Y-141100000D03*
%TD*%
D30*
%TO.C,J13*%
X187200000Y-119000000D03*
X189700000Y-119000000D03*
X192200000Y-119000000D03*
X194700000Y-119000000D03*
X197200000Y-119000000D03*
X199700000Y-119000000D03*
D31*
X202200000Y-119000000D03*
%TD*%
D11*
%TO.C,J18*%
X111000000Y-119000000D03*
%TD*%
D19*
%TO.C,D10*%
X172325000Y-143000000D03*
X169825000Y-143000000D03*
%TD*%
D43*
%TO.C,C23*%
X101625000Y-137300000D03*
X99725000Y-137300000D03*
%TD*%
D25*
%TO.C,C104*%
X288400000Y-141200000D03*
X289950000Y-141200000D03*
%TD*%
D20*
%TO.C,F26*%
X183900000Y-122862500D03*
X183900000Y-124737500D03*
%TD*%
D25*
%TO.C,C58*%
X140900000Y-141200000D03*
X142450000Y-141200000D03*
%TD*%
D10*
%TO.C,C13*%
X250475000Y-155400000D03*
X248925000Y-155400000D03*
%TD*%
D51*
%TO.C,U9*%
X103133756Y-148400000D03*
X103133756Y-148900000D03*
X103133756Y-149400000D03*
X103133756Y-149900000D03*
X103133756Y-150400000D03*
X103133756Y-150900000D03*
X103133756Y-151400000D03*
X103133756Y-151900000D03*
X107433756Y-151900000D03*
X107433756Y-151400000D03*
X107433756Y-150900000D03*
X107433756Y-150400000D03*
X107433756Y-149900000D03*
X107433756Y-149400000D03*
X107433756Y-148900000D03*
X107433756Y-148400000D03*
%TD*%
D16*
%TO.C,R171*%
X272300000Y-139712500D03*
X272300000Y-138062500D03*
%TD*%
D28*
%TO.C,R55*%
X171400000Y-126537500D03*
X171400000Y-132462500D03*
%TD*%
%TO.C,R70*%
X148700000Y-126537500D03*
X148700000Y-132462500D03*
%TD*%
D16*
%TO.C,R176*%
X265150000Y-139712500D03*
X265150000Y-138062500D03*
%TD*%
D19*
%TO.C,D20*%
X127425000Y-143000000D03*
X124925000Y-143000000D03*
%TD*%
D16*
%TO.C,R68*%
X154400000Y-139725000D03*
X154400000Y-138075000D03*
%TD*%
D25*
%TO.C,C111*%
X255650000Y-141200000D03*
X257200000Y-141200000D03*
%TD*%
D22*
%TO.C,R197*%
X323225000Y-162500000D03*
X321575000Y-162500000D03*
%TD*%
D18*
%TO.C,Q16*%
X224550000Y-136337500D03*
X226450000Y-136337500D03*
X225500000Y-134462500D03*
%TD*%
D25*
%TO.C,C131*%
X346450000Y-141100000D03*
X348000000Y-141100000D03*
%TD*%
D21*
%TO.C,R105*%
X53200000Y-156450000D03*
X53200000Y-158100000D03*
%TD*%
D16*
%TO.C,R242*%
X304525000Y-139625000D03*
X304525000Y-137975000D03*
%TD*%
%TO.C,R149*%
X53900000Y-167450000D03*
X53900000Y-165800000D03*
%TD*%
%TO.C,R125*%
X204700000Y-139725000D03*
X204700000Y-138075000D03*
%TD*%
D20*
%TO.C,F20*%
X207900000Y-122862500D03*
X207900000Y-124737500D03*
%TD*%
%TO.C,F41*%
X350200000Y-122762500D03*
X350200000Y-124637500D03*
%TD*%
D22*
%TO.C,R21*%
X302525000Y-153900000D03*
X300875000Y-153900000D03*
%TD*%
D28*
%TO.C,R220*%
X336050000Y-126437500D03*
X336050000Y-132362500D03*
%TD*%
D21*
%TO.C,R54*%
X272600000Y-159375000D03*
X272600000Y-161025000D03*
%TD*%
D22*
%TO.C,R5*%
X122525000Y-154900000D03*
X120875000Y-154900000D03*
%TD*%
D19*
%TO.C,D66*%
X318525000Y-142900000D03*
X316025000Y-142900000D03*
%TD*%
D26*
%TO.C,TH15*%
X245195000Y-151900000D03*
D27*
X247095000Y-151900000D03*
%TD*%
D25*
%TO.C,C54*%
X158900000Y-141200000D03*
X160450000Y-141200000D03*
%TD*%
%TO.C,C77*%
X231100000Y-141200000D03*
X232650000Y-141200000D03*
%TD*%
D16*
%TO.C,R162*%
X286300000Y-139725000D03*
X286300000Y-138075000D03*
%TD*%
D28*
%TO.C,R85*%
X126325000Y-126537500D03*
X126325000Y-132462500D03*
%TD*%
D19*
%TO.C,D34*%
X195900000Y-143000000D03*
X193400000Y-143000000D03*
%TD*%
D16*
%TO.C,R111*%
X224400000Y-139725000D03*
X224400000Y-138075000D03*
%TD*%
D19*
%TO.C,D21*%
X123250000Y-143000000D03*
X120750000Y-143000000D03*
%TD*%
D49*
%TO.C,Q14*%
X228850000Y-157500000D03*
X228850000Y-155200000D03*
X228850000Y-152900000D03*
D50*
X222550000Y-155200000D03*
%TD*%
D22*
%TO.C,R20*%
X302525000Y-155500000D03*
X300875000Y-155500000D03*
%TD*%
D28*
%TO.C,R106*%
X229900000Y-126537500D03*
X229900000Y-132462500D03*
%TD*%
D16*
%TO.C,R192*%
X239500000Y-139725000D03*
X239500000Y-138075000D03*
%TD*%
D25*
%TO.C,C87*%
X187050000Y-141200000D03*
X188600000Y-141200000D03*
%TD*%
D20*
%TO.C,F24*%
X190250000Y-122862500D03*
X190250000Y-124737500D03*
%TD*%
D11*
%TO.C,J8*%
X101100000Y-166000000D03*
%TD*%
D38*
%TO.C,TR6*%
X349170000Y-168140000D03*
X349170000Y-165600000D03*
X349170000Y-163060000D03*
X333530000Y-163060000D03*
X333530000Y-165600000D03*
X333530000Y-168140000D03*
%TD*%
D49*
%TO.C,Q40*%
X343950000Y-158000000D03*
X343950000Y-155700000D03*
X343950000Y-153400000D03*
D50*
X337650000Y-155700000D03*
%TD*%
D29*
%TO.C,JP2*%
X52300000Y-139500000D03*
X53600000Y-139500000D03*
X54900000Y-139500000D03*
%TD*%
D22*
%TO.C,R22*%
X302525000Y-152200000D03*
X300875000Y-152200000D03*
%TD*%
D14*
%TO.C,D23*%
X234250000Y-147800000D03*
X230950000Y-147800000D03*
%TD*%
D32*
%TO.C,R3*%
X120875000Y-158300000D03*
X122525000Y-158300000D03*
%TD*%
D18*
%TO.C,Q37*%
X249000000Y-136325000D03*
X250900000Y-136325000D03*
X249950000Y-134450000D03*
%TD*%
D21*
%TO.C,R201*%
X332200000Y-157275000D03*
X332200000Y-158925000D03*
%TD*%
D30*
%TO.C,J12*%
X213600000Y-119000000D03*
X216100000Y-119000000D03*
X218600000Y-119000000D03*
X221100000Y-119000000D03*
X223600000Y-119000000D03*
X226100000Y-119000000D03*
D31*
X228600000Y-119000000D03*
%TD*%
D18*
%TO.C,Q48*%
X321150000Y-136237500D03*
X323050000Y-136237500D03*
X322100000Y-134362500D03*
%TD*%
D32*
%TO.C,R8*%
X180575000Y-159600000D03*
X182225000Y-159600000D03*
%TD*%
D30*
%TO.C,J16*%
X333000000Y-119000000D03*
X335500000Y-119000000D03*
X338000000Y-119000000D03*
X340500000Y-119000000D03*
X343000000Y-119000000D03*
X345500000Y-119000000D03*
D31*
X348000000Y-119000000D03*
%TD*%
D16*
%TO.C,R119*%
X213500000Y-139725000D03*
X213500000Y-138075000D03*
%TD*%
%TO.C,R237*%
X311750000Y-139625000D03*
X311750000Y-137975000D03*
%TD*%
D22*
%TO.C,R38*%
X109118756Y-146950000D03*
X107468756Y-146950000D03*
%TD*%
%TO.C,R196*%
X323225000Y-164100000D03*
X321575000Y-164100000D03*
%TD*%
D26*
%TO.C,TH12*%
X245195000Y-159000000D03*
D27*
X247095000Y-159000000D03*
%TD*%
D19*
%TO.C,D31*%
X209100000Y-143000000D03*
X206600000Y-143000000D03*
%TD*%
%TO.C,D51*%
X250925000Y-142987500D03*
X248425000Y-142987500D03*
%TD*%
D28*
%TO.C,R178*%
X259450000Y-126525000D03*
X259450000Y-132450000D03*
%TD*%
D10*
%TO.C,C14*%
X250475000Y-153887500D03*
X248925000Y-153887500D03*
%TD*%
D34*
%TO.C,C44*%
X223200000Y-165675000D03*
X223200000Y-164125000D03*
%TD*%
D16*
%TO.C,R28*%
X328500000Y-167825000D03*
X328500000Y-166175000D03*
%TD*%
D22*
%TO.C,R14*%
X243250000Y-158487500D03*
X241600000Y-158487500D03*
%TD*%
D19*
%TO.C,D67*%
X313850000Y-142900000D03*
X311350000Y-142900000D03*
%TD*%
D21*
%TO.C,R53*%
X311300000Y-163000000D03*
X311300000Y-164650000D03*
%TD*%
D19*
%TO.C,D12*%
X163400000Y-143000000D03*
X160900000Y-143000000D03*
%TD*%
D34*
%TO.C,C46*%
X283200000Y-165375000D03*
X283200000Y-163825000D03*
%TD*%
D22*
%TO.C,R43*%
X149625000Y-161100000D03*
X147975000Y-161100000D03*
%TD*%
D10*
%TO.C,C1*%
X129829962Y-157900000D03*
X128279962Y-157900000D03*
%TD*%
D28*
%TO.C,R232*%
X317425000Y-126437500D03*
X317425000Y-132362500D03*
%TD*%
D37*
%TO.C,D54*%
X356600000Y-146050000D03*
X356600000Y-149350000D03*
%TD*%
D11*
%TO.C,J7*%
X44000000Y-166000000D03*
%TD*%
D16*
%TO.C,R116*%
X217900000Y-139725000D03*
X217900000Y-138075000D03*
%TD*%
D26*
%TO.C,TH10*%
X184095000Y-150800000D03*
D27*
X185995000Y-150800000D03*
%TD*%
D16*
%TO.C,R120*%
X211200000Y-139725000D03*
X211200000Y-138075000D03*
%TD*%
D18*
%TO.C,Q6*%
X152250000Y-136337500D03*
X154150000Y-136337500D03*
X153200000Y-134462500D03*
%TD*%
D26*
%TO.C,TH13*%
X245195000Y-156800000D03*
D27*
X247095000Y-156800000D03*
%TD*%
D20*
%TO.C,F17*%
X221100000Y-122862500D03*
X221100000Y-124737500D03*
%TD*%
D16*
%TO.C,R86*%
X127425000Y-139725000D03*
X127425000Y-138075000D03*
%TD*%
D21*
%TO.C,R34*%
X66600000Y-122875000D03*
X66600000Y-124525000D03*
%TD*%
D16*
%TO.C,R167*%
X279050000Y-139712500D03*
X279050000Y-138062500D03*
%TD*%
D38*
%TO.C,TR4*%
X245120000Y-168040000D03*
X245120000Y-165500000D03*
X245120000Y-162960000D03*
X229480000Y-162960000D03*
X229480000Y-165500000D03*
X229480000Y-168040000D03*
%TD*%
D22*
%TO.C,R12*%
X182230000Y-150600000D03*
X180580000Y-150600000D03*
%TD*%
D28*
%TO.C,R187*%
X245250000Y-126525000D03*
X245250000Y-132450000D03*
%TD*%
D18*
%TO.C,Q21*%
X202550000Y-136337500D03*
X204450000Y-136337500D03*
X203500000Y-134462500D03*
%TD*%
D16*
%TO.C,R71*%
X149900000Y-139725000D03*
X149900000Y-138075000D03*
%TD*%
D34*
%TO.C,C38*%
X135900000Y-153075000D03*
X135900000Y-151525000D03*
%TD*%
D18*
%TO.C,Q43*%
X344400000Y-136237500D03*
X346300000Y-136237500D03*
X345350000Y-134362500D03*
%TD*%
D26*
%TO.C,TH14*%
X245195000Y-154600000D03*
D27*
X247095000Y-154600000D03*
%TD*%
D19*
%TO.C,D52*%
X246250000Y-142987500D03*
X243750000Y-142987500D03*
%TD*%
D28*
%TO.C,R76*%
X139700000Y-126537500D03*
X139700000Y-132462500D03*
%TD*%
D38*
%TO.C,TR2*%
X115780000Y-162860000D03*
X115780000Y-165400000D03*
X115780000Y-167940000D03*
X131420000Y-167940000D03*
X131420000Y-165400000D03*
X131420000Y-162860000D03*
%TD*%
D20*
%TO.C,F29*%
X287450000Y-122850000D03*
X287450000Y-124725000D03*
%TD*%
D28*
%TO.C,R127*%
X199100000Y-126537500D03*
X199100000Y-132462500D03*
%TD*%
D19*
%TO.C,D28*%
X222300000Y-143000000D03*
X219800000Y-143000000D03*
%TD*%
D52*
%TO.C,J5*%
X41900000Y-124860000D03*
D53*
X41900000Y-127400000D03*
X41900000Y-129940000D03*
X41900000Y-132480000D03*
%TD*%
D18*
%TO.C,Q30*%
X281750000Y-136337500D03*
X283650000Y-136337500D03*
X282700000Y-134462500D03*
%TD*%
D10*
%TO.C,C4*%
X129829962Y-152512500D03*
X128279962Y-152512500D03*
%TD*%
D16*
%TO.C,R104*%
X54800000Y-157250000D03*
X54800000Y-155600000D03*
%TD*%
D25*
%TO.C,C49*%
X247175000Y-165600000D03*
X248725000Y-165600000D03*
%TD*%
D28*
%TO.C,R79*%
X135200000Y-126537500D03*
X135200000Y-132462500D03*
%TD*%
D34*
%TO.C,C28*%
X68200000Y-126275000D03*
X68200000Y-124725000D03*
%TD*%
D19*
%TO.C,D59*%
X351100000Y-142900000D03*
X348600000Y-142900000D03*
%TD*%
D25*
%TO.C,C79*%
X222300000Y-141200000D03*
X223850000Y-141200000D03*
%TD*%
D22*
%TO.C,R145*%
X265725000Y-163800000D03*
X264075000Y-163800000D03*
%TD*%
D18*
%TO.C,Q35*%
X258500000Y-136325000D03*
X260400000Y-136325000D03*
X259450000Y-134450000D03*
%TD*%
D26*
%TO.C,TH2*%
X124495000Y-157100000D03*
D27*
X126395000Y-157100000D03*
%TD*%
D16*
%TO.C,R216*%
X344350000Y-139625000D03*
X344350000Y-137975000D03*
%TD*%
D20*
%TO.C,F18*%
X216700000Y-122862500D03*
X216700000Y-124737500D03*
%TD*%
D25*
%TO.C,C78*%
X226700000Y-141200000D03*
X228250000Y-141200000D03*
%TD*%
D20*
%TO.C,F46*%
X331400000Y-122762500D03*
X331400000Y-124637500D03*
%TD*%
D25*
%TO.C,C138*%
X313850000Y-141100000D03*
X315400000Y-141100000D03*
%TD*%
%TO.C,C110*%
X260450000Y-141200000D03*
X262000000Y-141200000D03*
%TD*%
%TO.C,C81*%
X213500000Y-141200000D03*
X215050000Y-141200000D03*
%TD*%
D19*
%TO.C,D35*%
X191450000Y-143000000D03*
X188950000Y-143000000D03*
%TD*%
M02*
