M48
; DRILL file {KiCad 8.0.4} date 2024-08-06T16:15:27+0800
; FORMAT={-:-/ absolute / metric / decimal}
; #@! TF.CreationDate,2024-08-06T16:15:27+08:00
; #@! TF.GenerationSoftware,Kicad,Pcbnew,8.0.4
; #@! TF.FileFunction,MixedPlating,1,2
FMAT,2
METRIC
; #@! TA.AperFunction,Plated,PTH,ViaDrill
T1C0.300
; #@! TA.AperFunction,Plated,PTH,ViaDrill
T2C0.400
; #@! TA.AperFunction,Plated,PTH,ComponentDrill
T3C0.700
; #@! TA.AperFunction,Plated,PTH,ComponentDrill
T4C0.800
; #@! TA.AperFunction,Plated,PTH,ComponentDrill
T5C0.950
; #@! TA.AperFunction,Plated,PTH,ComponentDrill
T6C1.000
; #@! TA.AperFunction,Plated,PTH,ComponentDrill
T7C1.700
; #@! TA.AperFunction,Plated,PTH,ComponentDrill
T8C1.800
; #@! TA.AperFunction,Plated,PTH,ComponentDrill
T9C3.200
; #@! TA.AperFunction,NonPlated,NPTH,ComponentDrill
T10C3.000
%
G90
G05
T1
X27.715Y19.15
X55.2Y28.2
X58.3Y28.2
X59.1Y29.3
X63.575Y45.1
X63.575Y43.0
X85.5Y28.8
X90.0Y28.8
X94.4Y28.8
X98.9Y28.8
X102.1Y21.0
X102.1Y13.0
X103.4Y28.8
X107.8Y28.8
X112.3Y28.8
X116.9Y28.8
X121.4Y28.8
X125.9Y28.8
X130.4Y28.8
X133.9Y27.7
X145.0Y28.8
X149.4Y28.8
X153.8Y28.8
X158.3Y28.8
X161.55Y21.35
X161.55Y13.0
X162.7Y28.8
X167.05Y28.8
X171.5Y28.8
X175.9Y28.8
X180.4Y28.8
X184.7Y28.8
X189.1Y28.8
X204.0Y28.8
X208.7Y28.8
X213.5Y28.8
X218.1Y28.8
X222.35Y20.512
X222.35Y13.112
X222.8Y28.8
X227.5Y28.8
X232.1Y28.8
X236.9Y28.8
X241.5Y28.8
X246.1Y28.8
X250.8Y28.8
X266.975Y28.9
X271.575Y28.9
X275.9Y19.2
X275.9Y10.2
X276.275Y28.9
X280.975Y28.9
X285.675Y28.9
X290.275Y28.9
X294.975Y28.9
X299.575Y28.9
X304.275Y28.9
X308.875Y28.9
X313.575Y28.9
T2
X2.0Y34.0
X4.0Y46.0
X4.0Y42.0
X4.0Y28.0
X4.0Y24.0
X4.0Y20.0
X4.0Y16.0
X4.0Y12.0
X6.0Y44.0
X6.0Y40.0
X6.0Y32.0
X8.0Y37.0
X8.0Y32.0
X8.5Y42.5
X10.0Y48.0
X10.0Y32.0
X11.0Y23.0
X11.0Y4.0
X12.0Y48.0
X12.0Y42.0
X12.0Y36.0
X12.0Y21.0
X12.0Y10.0
X13.0Y17.0
X13.0Y15.0
X14.0Y26.0
X14.0Y24.0
X15.0Y19.0
X16.0Y48.0
X16.0Y46.0
X16.0Y42.0
X16.0Y34.0
X16.0Y30.0
X16.0Y28.0
X16.0Y26.0
X16.0Y24.0
X16.0Y18.0
X16.0Y16.0
X16.0Y13.0
X16.0Y8.0
X16.0Y3.0
X18.0Y38.0
X20.0Y48.0
X20.0Y28.0
X20.0Y26.0
X20.0Y20.0
X20.0Y16.0
X20.0Y12.0
X20.0Y8.0
X20.0Y4.0
X22.0Y38.0
X22.0Y36.0
X22.0Y34.0
X22.0Y32.0
X22.0Y30.0
X22.0Y28.0
X22.0Y26.0
X24.0Y38.0
X24.0Y36.0
X25.0Y49.0
X25.0Y45.0
X26.0Y38.0
X26.0Y36.0
X28.0Y8.0
X28.0Y4.0
X32.0Y48.0
X32.0Y44.0
X32.0Y40.0
X32.0Y36.0
X32.0Y32.0
X32.0Y24.0
X32.0Y20.0
X32.0Y16.0
X32.0Y12.0
X32.0Y8.0
X32.0Y4.0
X36.0Y40.0
X36.0Y36.0
X36.0Y32.0
X36.0Y24.0
X36.0Y12.0
X36.0Y8.0
X36.0Y4.0
X40.0Y40.0
X40.0Y32.0
X40.0Y24.0
X40.0Y12.0
X40.0Y8.0
X40.0Y4.0
X44.0Y40.0
X44.0Y32.0
X44.0Y24.0
X44.0Y12.0
X44.0Y8.0
X44.0Y4.0
X48.0Y40.0
X48.0Y32.0
X48.0Y24.0
X48.0Y12.0
X48.0Y8.0
X48.0Y4.0
X52.0Y40.0
X52.0Y36.0
X52.0Y32.0
X52.0Y24.0
X52.0Y20.0
X52.0Y16.0
X52.0Y12.0
X52.0Y8.0
X52.0Y4.0
X58.0Y48.0
X58.0Y44.0
X58.5Y36.0
X58.5Y34.0
X58.5Y32.0
X60.0Y48.0
X60.0Y44.0
X60.0Y16.0
X60.0Y12.0
X64.0Y48.0
X64.0Y16.0
X64.0Y12.0
X66.0Y42.0
X66.0Y40.0
X66.0Y38.0
X66.0Y36.0
X66.0Y34.0
X66.0Y30.0
X66.0Y28.0
X66.0Y26.0
X66.0Y24.0
X66.0Y22.0
X66.0Y6.0
X66.4Y48.0
X66.4Y45.4
X68.0Y36.0
X68.0Y32.0
X68.0Y28.0
X68.0Y16.0
X68.0Y12.0
X68.0Y6.0
X68.0Y3.0
X72.0Y28.0
X72.0Y24.0
X72.0Y20.0
X72.0Y16.0
X72.0Y12.0
X72.0Y8.0
X72.0Y6.0
X72.0Y3.0
X74.0Y6.0
X74.0Y3.0
X76.0Y42.0
X76.0Y38.0
X76.0Y34.0
X76.0Y30.0
X76.0Y26.0
X76.0Y22.0
X76.0Y18.0
X76.0Y14.0
X76.0Y6.0
X76.0Y3.25
X78.6Y52.0
X78.6Y48.0
X78.6Y42.0
X78.6Y34.0
X78.6Y30.0
X78.6Y26.0
X78.6Y22.0
X78.6Y18.0
X78.6Y14.0
X78.7Y38.0
X80.0Y8.0
X80.0Y6.0
X80.0Y4.0
X80.0Y2.0
X80.75Y28.1
X80.75Y26.0
X80.75Y24.0
X80.75Y22.0
X81.0Y42.0
X81.0Y40.0
X82.0Y24.0
X83.0Y42.0
X83.0Y40.0
X84.0Y49.0
X84.0Y47.0
X84.0Y45.0
X84.0Y24.0
X86.0Y49.0
X86.0Y24.0
X88.0Y24.0
X88.0Y8.0
X88.0Y6.0
X88.0Y4.0
X88.0Y2.0
X94.0Y19.9
X94.0Y11.9
X94.0Y9.0
X98.0Y19.9
X98.0Y11.9
X98.0Y9.0
X98.0Y6.0
X98.0Y4.0
X101.0Y20.0
X101.0Y18.75
X102.0Y9.9
X102.0Y6.0
X102.0Y4.0
X103.75Y18.75
X105.2Y51.9
X105.7Y14.4
X106.0Y18.75
X106.0Y9.9
X106.0Y6.0
X106.0Y4.0
X107.2Y51.9
X107.2Y49.75
X109.2Y53.9
X109.2Y49.75
X109.2Y18.0
X111.2Y53.9
X111.2Y51.9
X111.2Y49.75
X111.2Y17.9
X113.0Y6.0
X113.0Y4.0
X113.2Y53.9
X113.2Y17.9
X114.0Y1.9
X115.2Y17.9
X116.0Y11.9
X117.2Y53.9
X118.0Y9.9
X118.0Y5.9
X118.0Y1.9
X119.2Y19.9
X121.2Y53.9
X122.0Y10.0
X122.0Y1.9
X125.2Y53.9
X126.0Y21.9
X126.0Y19.75
X126.0Y10.0
X126.0Y8.0
X126.0Y6.0
X126.0Y3.0
X129.2Y53.9
X130.0Y21.9
X130.0Y17.9
X131.0Y16.0
X131.0Y10.0
X133.0Y24.0
X133.0Y22.0
X133.0Y20.0
X133.0Y16.0
X133.2Y53.9
X134.0Y17.9
X134.0Y13.0
X134.0Y10.0
X134.0Y8.0
X134.0Y6.0
X134.0Y4.0
X134.0Y2.0
X136.5Y46.1
X136.5Y42.0
X136.5Y38.0
X136.5Y34.0
X136.5Y30.0
X136.5Y26.0
X136.5Y22.0
X136.5Y18.0
X136.5Y14.0
X136.5Y10.0
X138.4Y46.1
X138.4Y42.0
X138.4Y38.0
X138.4Y34.0
X138.4Y30.0
X138.4Y26.0
X138.4Y22.0
X138.4Y18.0
X138.4Y14.0
X138.4Y10.0
X140.5Y28.1
X140.5Y26.0
X141.2Y41.9
X141.2Y39.9
X141.2Y23.9
X142.0Y8.0
X142.0Y6.0
X142.0Y4.0
X142.0Y2.0
X143.2Y23.9
X145.2Y23.9
X147.2Y23.9
X148.0Y8.0
X148.0Y5.9
X148.0Y2.9
X149.0Y22.0
X151.2Y19.9
X153.0Y5.9
X153.0Y2.9
X153.2Y19.9
X154.0Y13.0
X154.0Y10.0
X154.0Y8.0
X155.2Y19.9
X158.0Y13.0
X158.0Y10.0
X158.0Y2.0
X160.0Y13.0
X162.0Y10.0
X162.0Y2.0
X164.9Y14.5
X166.0Y51.0
X166.0Y11.0
X166.0Y2.0
X168.0Y54.0
X169.2Y17.9
X170.0Y51.0
X172.0Y54.0
X173.2Y17.9
X174.0Y9.9
X176.0Y54.0
X176.0Y19.0
X176.0Y12.0
X178.0Y10.0
X178.0Y1.9
X179.0Y21.0
X180.0Y54.0
X180.0Y8.0
X181.0Y21.0
X182.0Y10.0
X182.0Y5.9
X182.0Y1.9
X183.0Y21.0
X184.0Y54.0
X186.0Y23.0
X186.0Y21.0
X186.0Y10.0
X186.1Y5.9
X186.1Y3.0
X188.0Y54.0
X188.0Y23.0
X190.0Y23.0
X190.0Y21.0
X190.0Y10.0
X192.0Y54.0
X192.0Y18.0
X192.0Y16.0
X193.2Y31.9
X193.2Y27.9
X194.0Y13.9
X194.0Y10.0
X194.0Y5.9
X194.0Y1.9
X195.6Y54.0
X195.6Y50.0
X195.6Y46.0
X195.6Y42.0
X195.6Y38.0
X195.6Y34.0
X195.6Y30.0
X195.6Y26.0
X195.6Y22.0
X195.6Y18.0
X195.6Y14.0
X197.4Y54.0
X197.4Y50.0
X197.4Y46.0
X197.4Y42.0
X197.4Y38.0
X197.4Y34.0
X197.4Y30.0
X197.4Y26.0
X197.4Y22.0
X197.4Y18.0
X197.4Y14.0
X197.4Y10.0
X199.5Y28.0
X199.6Y25.7
X200.0Y54.0
X200.0Y24.0
X200.0Y22.0
X200.0Y18.0
X200.0Y14.0
X201.2Y41.9
X202.0Y54.0
X202.0Y5.9
X202.0Y1.9
X204.0Y24.0
X204.0Y22.0
X207.2Y5.9
X207.2Y2.9
X208.0Y24.0
X208.0Y22.0
X209.2Y5.9
X209.2Y2.9
X212.0Y20.0
X212.0Y10.0
X212.0Y8.0
X213.2Y5.9
X213.2Y2.9
X214.0Y20.0
X214.0Y12.0
X214.0Y10.0
X214.0Y8.0
X216.0Y20.0
X216.0Y12.0
X216.0Y10.0
X216.0Y8.0
X218.0Y20.0
X218.0Y12.0
X218.0Y10.0
X218.0Y8.0
X218.0Y5.9
X218.0Y1.9
X220.0Y12.0
X220.0Y10.0
X220.0Y8.0
X221.0Y21.0
X221.0Y20.0
X221.0Y19.0
X222.0Y12.0
X222.0Y10.0
X222.0Y1.9
X224.0Y18.8
X224.0Y10.0
X225.75Y14.45
X226.0Y52.0
X226.0Y10.0
X226.0Y1.9
X228.0Y50.0
X228.0Y18.8
X230.0Y50.0
X232.0Y54.0
X232.0Y52.0
X232.0Y18.8
X234.8Y10.2
X236.0Y54.0
X236.0Y18.8
X236.0Y12.0
X236.7Y8.4
X238.0Y10.0
X240.0Y54.0
X240.0Y18.8
X240.0Y8.0
X242.0Y18.8
X244.0Y54.0
X246.0Y18.8
X247.2Y5.9
X247.2Y2.9
X248.0Y54.0
X248.0Y22.0
X248.0Y20.0
X248.0Y18.8
X250.0Y24.0
X250.0Y22.0
X250.0Y20.0
X252.0Y54.0
X252.0Y22.0
X252.0Y20.0
X252.0Y8.0
X252.0Y6.0
X252.0Y4.0
X252.0Y2.0
X254.0Y24.0
X254.0Y22.0
X254.0Y20.0
X254.0Y17.0
X254.0Y15.0
X254.0Y10.0
X254.0Y8.0
X254.0Y6.0
X254.0Y4.0
X254.0Y2.0
X255.0Y30.0
X255.0Y28.0
X256.0Y54.0
X256.0Y50.0
X256.0Y46.0
X256.0Y42.0
X256.0Y38.0
X256.0Y34.0
X256.0Y12.0
X256.0Y10.0
X256.0Y8.0
X256.0Y6.0
X256.0Y4.0
X256.0Y2.0
X258.8Y46.0
X258.8Y42.0
X258.8Y38.0
X258.8Y34.0
X258.8Y30.0
X260.0Y8.0
X260.0Y6.0
X260.0Y4.0
X260.0Y2.0
X261.975Y42.0
X261.975Y40.0
X261.975Y29.0
X261.975Y26.0
X262.0Y50.0
X262.0Y48.0
X262.0Y46.0
X262.0Y22.0
X262.0Y8.0
X262.0Y6.0
X262.0Y4.0
X262.0Y2.0
X263.975Y42.0
X263.975Y40.0
X266.0Y48.0
X266.0Y46.0
X266.0Y22.0
X268.0Y6.0
X268.0Y3.0
X270.0Y22.0
X270.0Y6.0
X270.0Y3.0
X272.0Y10.0
X272.0Y8.0
X274.0Y22.0
X274.0Y18.0
X274.0Y10.0
X274.0Y8.0
X274.0Y6.0
X274.0Y3.0
X276.0Y8.0
X278.0Y8.0
X278.0Y6.0
X278.0Y2.0
X279.299Y11.476
X280.0Y8.0
X280.0Y6.0
X280.0Y2.0
X282.0Y52.0
X282.0Y16.0
X282.0Y2.0
X284.0Y52.0
X284.0Y2.0
X286.0Y16.0
X286.0Y14.0
X288.0Y54.0
X289.975Y49.85
X290.0Y54.0
X290.0Y52.0
X290.0Y16.0
X290.3Y12.2
X290.8Y4.7
X291.975Y18.0
X292.2Y10.1
X293.975Y54.0
X294.0Y19.0
X295.975Y54.0
X296.0Y19.0
X296.0Y6.0
X296.0Y2.0
X298.0Y19.0
X299.975Y54.0
X300.0Y19.0
X301.975Y21.0
X303.975Y54.0
X305.0Y21.0
X307.975Y54.0
X309.0Y21.0
X309.0Y19.0
X311.0Y22.0
X311.0Y19.0
X313.0Y22.0
X313.0Y19.0
X315.0Y22.0
X315.0Y19.0
X317.0Y22.0
X317.0Y19.0
X317.475Y30.5
X317.475Y27.5
X319.0Y46.0
X319.0Y42.0
X319.0Y38.0
X319.0Y34.0
X319.0Y23.0
X319.0Y21.0
X319.0Y19.0
T3
X84.495Y19.5
X84.495Y17.3
X84.495Y15.1
X84.495Y12.9
X86.395Y19.5
X86.395Y17.3
X86.395Y15.1
X86.395Y12.9
X144.095Y19.2
X144.095Y17.0
X144.095Y14.7
X144.095Y12.0
X145.995Y19.2
X145.995Y17.0
X145.995Y14.7
X145.995Y12.0
X205.195Y18.1
X205.195Y15.4
X205.195Y13.2
X205.195Y11.0
X207.095Y18.1
X207.095Y15.4
X207.095Y13.2
X207.095Y11.0
X264.295Y17.8
X264.295Y15.6
X264.3Y13.5
X264.3Y11.2
X266.195Y17.8
X266.195Y15.6
X266.2Y13.5
X266.2Y11.2
T4
X1.6Y28.54
X1.6Y26.0
X1.6Y23.46
X1.6Y20.92
X1.6Y18.38
X1.6Y15.84
X1.6Y13.3
X1.6Y10.76
X9.22Y28.54
X9.22Y26.0
X9.22Y23.46
X9.22Y20.92
X9.22Y18.38
X9.22Y15.84
X9.22Y13.3
X9.22Y10.76
X17.68Y34.73
X17.68Y32.19
X17.68Y29.65
X17.68Y27.11
X17.68Y24.57
X17.68Y22.03
X17.68Y19.49
X17.68Y16.95
X17.68Y14.41
X17.68Y11.87
X17.68Y9.33
X17.68Y6.79
X17.68Y4.25
X17.68Y1.71
X25.3Y34.73
X25.3Y32.19
X25.3Y29.65
X25.3Y27.11
X25.3Y24.57
X25.3Y22.03
X25.3Y19.49
X25.3Y16.95
X25.3Y14.41
X25.3Y11.87
X25.3Y9.33
X25.3Y6.79
X25.3Y4.25
X25.3Y1.71
X30.365Y47.22
X30.365Y44.68
X30.365Y42.14
X30.365Y39.6
X30.365Y37.06
X30.365Y34.52
X30.365Y31.98
X30.365Y29.44
X30.365Y26.9
X30.365Y24.36
X30.365Y21.82
X30.365Y19.28
X30.365Y16.74
X30.365Y14.2
X30.365Y11.66
X30.365Y9.12
X30.365Y6.58
X30.365Y4.04
X30.365Y1.5
X55.765Y47.22
X55.765Y44.68
X55.765Y42.14
X55.765Y39.6
X55.765Y37.06
X55.765Y34.52
X55.765Y31.98
X55.765Y29.44
X55.765Y26.9
X55.765Y24.36
X55.765Y21.82
X55.765Y19.28
X55.765Y16.74
X55.765Y14.2
X55.765Y11.66
X55.765Y9.12
X55.765Y6.58
X55.765Y4.04
X55.765Y1.5
T5
X87.7Y51.0
X90.2Y51.0
X92.7Y51.0
X95.2Y51.0
X97.7Y51.0
X100.2Y51.0
X102.7Y51.0
X114.7Y51.0
X117.2Y51.0
X119.7Y51.0
X122.2Y51.0
X124.7Y51.0
X127.2Y51.0
X129.7Y51.0
X147.2Y51.0
X149.7Y51.0
X152.2Y51.0
X154.7Y51.0
X157.2Y51.0
X159.7Y51.0
X162.2Y51.0
X173.6Y51.0
X176.1Y51.0
X178.6Y51.0
X181.1Y51.0
X183.6Y51.0
X186.1Y51.0
X188.6Y51.0
X207.15Y51.0
X209.65Y51.0
X212.15Y51.0
X214.65Y51.0
X217.15Y51.0
X219.65Y51.0
X222.15Y51.0
X235.2Y51.0
X237.7Y51.0
X240.2Y51.0
X242.7Y51.0
X245.2Y51.0
X247.7Y51.0
X250.2Y51.0
X265.0Y51.0
X267.5Y51.0
X270.0Y51.0
X272.5Y51.0
X275.0Y51.0
X277.5Y51.0
X280.0Y51.0
X293.0Y51.0
X295.5Y51.0
X298.0Y51.0
X300.5Y51.0
X303.0Y51.0
X305.5Y51.0
X308.0Y51.0
T6
X1.9Y45.14
X1.9Y42.6
X1.9Y40.06
X1.9Y37.52
T7
X315.75Y15.257
X315.75Y11.297
T8
X69.4Y44.6
X69.4Y39.1
X73.6Y44.6
X73.6Y39.1
T9
X4.0Y51.0
X4.0Y4.0
X61.1Y4.0
X71.0Y51.0
X138.4Y51.0
X172.7Y4.0
X234.1Y4.0
X315.9Y4.1
X316.0Y51.0
T10
X71.5Y31.8
M30
