%TF.GenerationSoftware,KiCad,Pcbnew,8.0.4*%
%TF.CreationDate,2024-09-13T16:34:39+09:00*%
%TF.ProjectId,LTC6811_ESP32_Slaves_V5,4c544336-3831-4315-9f45-535033325f53,rev?*%
%TF.SameCoordinates,Original*%
%TF.FileFunction,Profile,NP*%
%FSLAX46Y46*%
G04 Gerber Fmt 4.6, Leading zero omitted, Abs format (unit mm)*
G04 Created by KiCad (PCBNEW 8.0.4) date 2024-09-13 16:34:39*
%MOMM*%
%LPD*%
G01*
G04 APERTURE LIST*
%TA.AperFunction,Profile*%
%ADD10C,0.050000*%
%TD*%
%ADD11C,0.350000*%
G04 APERTURE END LIST*
D10*
X235000000Y-115000000D02*
X360000000Y-115000000D01*
X360000000Y-170000000D01*
X235000000Y-170000000D01*
X235000000Y-115000000D01*
D11*
X355750000Y-153950572D03*
X355750000Y-157910572D03*
X304295000Y-154400000D03*
X306195000Y-154400000D03*
X247200000Y-119041928D03*
X249700000Y-119041928D03*
X252200000Y-119041928D03*
X254700000Y-119041928D03*
X257200000Y-119041928D03*
X259700000Y-119041928D03*
X262200000Y-119041928D03*
X275250000Y-119041928D03*
X277750000Y-119041928D03*
X280250000Y-119041928D03*
X282750000Y-119041928D03*
X285250000Y-119041928D03*
X287750000Y-119041928D03*
X290250000Y-119041928D03*
X356000000Y-118908072D03*
X304295000Y-152200000D03*
X306195000Y-152200000D03*
X304300000Y-158800000D03*
X306200000Y-158800000D03*
X305400000Y-118958072D03*
X307900000Y-118958072D03*
X310400000Y-118958072D03*
X312900000Y-118958072D03*
X315400000Y-118958072D03*
X317900000Y-118958072D03*
X320400000Y-118958072D03*
X355900000Y-165908072D03*
X239000000Y-166000000D03*
X239300000Y-158057500D03*
X239300000Y-154097500D03*
X304300000Y-156500000D03*
X306200000Y-156500000D03*
X239150000Y-119050000D03*
X249545000Y-150100000D03*
X251445000Y-150100000D03*
X333150000Y-118925000D03*
X335650000Y-118925000D03*
X338150000Y-118925000D03*
X340650000Y-118925000D03*
X343150000Y-118925000D03*
X345650000Y-118925000D03*
X348150000Y-118925000D03*
X249545000Y-156900000D03*
X251445000Y-156900000D03*
X249550000Y-154300000D03*
X251450000Y-154300000D03*
X249545000Y-152200000D03*
X251445000Y-152200000D03*
M02*
