%TF.GenerationSoftware,KiCad,Pcbnew,8.0.4*%
%TF.CreationDate,2024-09-13T16:34:39+09:00*%
%TF.ProjectId,LTC6811_ESP32_Slaves_V5,4c544336-3831-4315-9f45-535033325f53,rev?*%
%TF.SameCoordinates,Original*%
%TF.FileFunction,Soldermask,Bot*%
%TF.FilePolarity,Negative*%
%FSLAX46Y46*%
G04 Gerber Fmt 4.6, Leading zero omitted, Abs format (unit mm)*
G04 Created by KiCad (PCBNEW 8.0.4) date 2024-09-13 16:34:39*
%MOMM*%
%LPD*%
G01*
G04 APERTURE LIST*
G04 Aperture macros list*
%AMRoundRect*
0 Rectangle with rounded corners*
0 $1 Rounding radius*
0 $2 $3 $4 $5 $6 $7 $8 $9 X,Y pos of 4 corners*
0 Add a 4 corners polygon primitive as box body*
4,1,4,$2,$3,$4,$5,$6,$7,$8,$9,$2,$3,0*
0 Add four circle primitives for the rounded corners*
1,1,$1+$1,$2,$3*
1,1,$1+$1,$4,$5*
1,1,$1+$1,$6,$7*
1,1,$1+$1,$8,$9*
0 Add four rect primitives between the rounded corners*
20,1,$1+$1,$2,$3,$4,$5,0*
20,1,$1+$1,$4,$5,$6,$7,0*
20,1,$1+$1,$6,$7,$8,$9,0*
20,1,$1+$1,$8,$9,$2,$3,0*%
G04 Aperture macros list end*
%ADD10RoundRect,0.250001X-1.099999X1.099999X-1.099999X-1.099999X1.099999X-1.099999X1.099999X1.099999X0*%
%ADD11C,2.700000*%
%ADD12C,1.400000*%
%ADD13O,1.400000X1.400000*%
%ADD14O,1.700000X1.950000*%
%ADD15RoundRect,0.250000X0.600000X0.725000X-0.600000X0.725000X-0.600000X-0.725000X0.600000X-0.725000X0*%
%ADD16C,3.200000*%
%ADD17RoundRect,0.250001X1.099999X-1.099999X1.099999X1.099999X-1.099999X1.099999X-1.099999X-1.099999X0*%
G04 APERTURE END LIST*
D10*
%TO.C,J9*%
X355750000Y-153950572D03*
D11*
X355750000Y-157910572D03*
%TD*%
D12*
%TO.C,TH19*%
X304295000Y-154400000D03*
D13*
X306195000Y-154400000D03*
%TD*%
D14*
%TO.C,J15*%
X247200000Y-119041928D03*
X249700000Y-119041928D03*
X252200000Y-119041928D03*
X254700000Y-119041928D03*
X257200000Y-119041928D03*
X259700000Y-119041928D03*
D15*
X262200000Y-119041928D03*
%TD*%
D14*
%TO.C,J14*%
X275250000Y-119041928D03*
X277750000Y-119041928D03*
X280250000Y-119041928D03*
X282750000Y-119041928D03*
X285250000Y-119041928D03*
X287750000Y-119041928D03*
D15*
X290250000Y-119041928D03*
%TD*%
D16*
%TO.C,J1*%
X356000000Y-118908072D03*
%TD*%
D12*
%TO.C,TH20*%
X304295000Y-152200000D03*
D13*
X306195000Y-152200000D03*
%TD*%
D12*
%TO.C,TH17*%
X304300000Y-158800000D03*
D13*
X306200000Y-158800000D03*
%TD*%
D14*
%TO.C,J17*%
X305400000Y-118958072D03*
X307900000Y-118958072D03*
X310400000Y-118958072D03*
X312900000Y-118958072D03*
X315400000Y-118958072D03*
X317900000Y-118958072D03*
D15*
X320400000Y-118958072D03*
%TD*%
D16*
%TO.C,J8*%
X355900000Y-165908072D03*
%TD*%
%TO.C,J2*%
X239000000Y-166000000D03*
%TD*%
D17*
%TO.C,J22*%
X239300000Y-158057500D03*
D11*
X239300000Y-154097500D03*
%TD*%
D12*
%TO.C,TH18*%
X304300000Y-156500000D03*
D13*
X306200000Y-156500000D03*
%TD*%
D16*
%TO.C,J20*%
X239150000Y-119050000D03*
%TD*%
D12*
%TO.C,TH15*%
X249545000Y-150100000D03*
D13*
X251445000Y-150100000D03*
%TD*%
D14*
%TO.C,J16*%
X333150000Y-118925000D03*
X335650000Y-118925000D03*
X338150000Y-118925000D03*
X340650000Y-118925000D03*
X343150000Y-118925000D03*
X345650000Y-118925000D03*
D15*
X348150000Y-118925000D03*
%TD*%
D12*
%TO.C,TH12*%
X249545000Y-156900000D03*
D13*
X251445000Y-156900000D03*
%TD*%
D12*
%TO.C,TH13*%
X249550000Y-154300000D03*
D13*
X251450000Y-154300000D03*
%TD*%
D12*
%TO.C,TH14*%
X249545000Y-152200000D03*
D13*
X251445000Y-152200000D03*
%TD*%
M02*
