%TF.GenerationSoftware,KiCad,Pcbnew,8.0.4*%
%TF.CreationDate,2024-09-13T16:34:39+09:00*%
%TF.ProjectId,LTC6811_ESP32_Slaves_V5,4c544336-3831-4315-9f45-535033325f53,rev?*%
%TF.SameCoordinates,Original*%
%TF.FileFunction,Copper,L2,Bot*%
%TF.FilePolarity,Positive*%
%FSLAX46Y46*%
G04 Gerber Fmt 4.6, Leading zero omitted, Abs format (unit mm)*
G04 Created by KiCad (PCBNEW 8.0.4) date 2024-09-13 16:34:39*
%MOMM*%
%LPD*%
G01*
G04 APERTURE LIST*
G04 Aperture macros list*
%AMRoundRect*
0 Rectangle with rounded corners*
0 $1 Rounding radius*
0 $2 $3 $4 $5 $6 $7 $8 $9 X,Y pos of 4 corners*
0 Add a 4 corners polygon primitive as box body*
4,1,4,$2,$3,$4,$5,$6,$7,$8,$9,$2,$3,0*
0 Add four circle primitives for the rounded corners*
1,1,$1+$1,$2,$3*
1,1,$1+$1,$4,$5*
1,1,$1+$1,$6,$7*
1,1,$1+$1,$8,$9*
0 Add four rect primitives between the rounded corners*
20,1,$1+$1,$2,$3,$4,$5,0*
20,1,$1+$1,$4,$5,$6,$7,0*
20,1,$1+$1,$6,$7,$8,$9,0*
20,1,$1+$1,$8,$9,$2,$3,0*%
G04 Aperture macros list end*
%TA.AperFunction,ComponentPad*%
%ADD10RoundRect,0.250001X-1.099999X1.099999X-1.099999X-1.099999X1.099999X-1.099999X1.099999X1.099999X0*%
%TD*%
%TA.AperFunction,ComponentPad*%
%ADD11C,2.700000*%
%TD*%
%TA.AperFunction,ComponentPad*%
%ADD12C,1.400000*%
%TD*%
%TA.AperFunction,ComponentPad*%
%ADD13O,1.400000X1.400000*%
%TD*%
%TA.AperFunction,ComponentPad*%
%ADD14O,1.700000X1.950000*%
%TD*%
%TA.AperFunction,ComponentPad*%
%ADD15RoundRect,0.250000X0.600000X0.725000X-0.600000X0.725000X-0.600000X-0.725000X0.600000X-0.725000X0*%
%TD*%
%TA.AperFunction,ComponentPad*%
%ADD16RoundRect,0.250001X1.099999X-1.099999X1.099999X1.099999X-1.099999X1.099999X-1.099999X-1.099999X0*%
%TD*%
%TA.AperFunction,ViaPad*%
%ADD17C,0.800000*%
%TD*%
%TA.AperFunction,ViaPad*%
%ADD18C,0.500000*%
%TD*%
%TA.AperFunction,Conductor*%
%ADD19C,0.300000*%
%TD*%
%ADD20C,0.350000*%
%ADD21C,0.300000*%
G04 APERTURE END LIST*
D10*
%TO.P,J9,1,Pin_1*%
%TO.N,Net-(J9-Pin_1)*%
X355750000Y-153950572D03*
D11*
%TO.P,J9,2,Pin_2*%
%TO.N,Net-(J9-Pin_2)*%
X355750000Y-157910572D03*
%TD*%
D12*
%TO.P,TH19,1*%
%TO.N,/LTC6811_4/T4*%
X304295000Y-154400000D03*
D13*
%TO.P,TH19,2*%
%TO.N,GND_PACK*%
X306195000Y-154400000D03*
%TD*%
D14*
%TO.P,J15,0,Pin_1*%
%TO.N,/LTC6811_3/C1_G*%
X247200000Y-119041928D03*
%TO.P,J15,1,Pin_2*%
%TO.N,/LTC6811_3/C1*%
X249700000Y-119041928D03*
%TO.P,J15,2,Pin_3*%
%TO.N,/LTC6811_3/C2*%
X252200000Y-119041928D03*
%TO.P,J15,3,Pin_4*%
%TO.N,/LTC6811_3/C3*%
X254700000Y-119041928D03*
%TO.P,J15,4,Pin_5*%
%TO.N,/LTC6811_3/C4*%
X257200000Y-119041928D03*
%TO.P,J15,5,Pin_6*%
%TO.N,/LTC6811_3/C5*%
X259700000Y-119041928D03*
D15*
%TO.P,J15,6,Pin_7*%
%TO.N,/LTC6811_3/C6*%
X262200000Y-119041928D03*
%TD*%
D14*
%TO.P,J14,0,Pin_1*%
%TO.N,/LTC6811_3/C6*%
X275250000Y-119041928D03*
%TO.P,J14,1,Pin_2*%
%TO.N,/LTC6811_3/C7*%
X277750000Y-119041928D03*
%TO.P,J14,2,Pin_3*%
%TO.N,/LTC6811_3/C8*%
X280250000Y-119041928D03*
%TO.P,J14,3,Pin_4*%
%TO.N,/LTC6811_3/C9*%
X282750000Y-119041928D03*
%TO.P,J14,4,Pin_5*%
%TO.N,/LTC6811_3/C10*%
X285250000Y-119041928D03*
%TO.P,J14,5,Pin_6*%
%TO.N,/LTC6811_3/C11*%
X287750000Y-119041928D03*
D15*
%TO.P,J14,6,Pin_7*%
%TO.N,/LTC6811_3/C12*%
X290250000Y-119041928D03*
%TD*%
D12*
%TO.P,TH20,1*%
%TO.N,/LTC6811_4/T5*%
X304295000Y-152200000D03*
D13*
%TO.P,TH20,2*%
%TO.N,GND_PACK*%
X306195000Y-152200000D03*
%TD*%
D12*
%TO.P,TH17,1*%
%TO.N,/LTC6811_4/T2*%
X304300000Y-158800000D03*
D13*
%TO.P,TH17,2*%
%TO.N,GND_PACK*%
X306200000Y-158800000D03*
%TD*%
D14*
%TO.P,J17,0,Pin_1*%
%TO.N,/LTC6811_4/C1_G*%
X305400000Y-118958072D03*
%TO.P,J17,1,Pin_2*%
%TO.N,/LTC6811_4/C1*%
X307900000Y-118958072D03*
%TO.P,J17,2,Pin_3*%
%TO.N,/LTC6811_4/C2*%
X310400000Y-118958072D03*
%TO.P,J17,3,Pin_4*%
%TO.N,/LTC6811_4/C3*%
X312900000Y-118958072D03*
%TO.P,J17,4,Pin_5*%
%TO.N,/LTC6811_4/C4*%
X315400000Y-118958072D03*
%TO.P,J17,5,Pin_6*%
%TO.N,/LTC6811_4/C5*%
X317900000Y-118958072D03*
D15*
%TO.P,J17,6,Pin_7*%
%TO.N,/LTC6811_4/C6*%
X320400000Y-118958072D03*
%TD*%
D16*
%TO.P,J22,1,Pin_1*%
%TO.N,Net-(J22-Pin_1)*%
X239300000Y-158057500D03*
D11*
%TO.P,J22,2,Pin_2*%
%TO.N,Net-(J22-Pin_2)*%
X239300000Y-154097500D03*
%TD*%
D12*
%TO.P,TH18,1*%
%TO.N,/LTC6811_4/T3*%
X304300000Y-156500000D03*
D13*
%TO.P,TH18,2*%
%TO.N,GND_PACK*%
X306200000Y-156500000D03*
%TD*%
D12*
%TO.P,TH15,1*%
%TO.N,/LTC6811_3/T5*%
X249545000Y-150100000D03*
D13*
%TO.P,TH15,2*%
%TO.N,GND_PACK*%
X251445000Y-150100000D03*
%TD*%
D14*
%TO.P,J16,0,Pin_1*%
%TO.N,/LTC6811_4/C6*%
X333150000Y-118925000D03*
%TO.P,J16,1,Pin_2*%
%TO.N,/LTC6811_4/C7*%
X335650000Y-118925000D03*
%TO.P,J16,2,Pin_3*%
%TO.N,/LTC6811_4/C8*%
X338150000Y-118925000D03*
%TO.P,J16,3,Pin_4*%
%TO.N,/LTC6811_4/C9*%
X340650000Y-118925000D03*
%TO.P,J16,4,Pin_5*%
%TO.N,/LTC6811_4/C10*%
X343150000Y-118925000D03*
%TO.P,J16,5,Pin_6*%
%TO.N,/LTC6811_4/C11*%
X345650000Y-118925000D03*
D15*
%TO.P,J16,6,Pin_7*%
%TO.N,/LTC6811_4/C12*%
X348150000Y-118925000D03*
%TD*%
D12*
%TO.P,TH12,1*%
%TO.N,/LTC6811_3/T2*%
X249545000Y-156900000D03*
D13*
%TO.P,TH12,2*%
%TO.N,GND_PACK*%
X251445000Y-156900000D03*
%TD*%
D12*
%TO.P,TH13,1*%
%TO.N,/LTC6811_3/T3*%
X249550000Y-154300000D03*
D13*
%TO.P,TH13,2*%
%TO.N,GND_PACK*%
X251450000Y-154300000D03*
%TD*%
D12*
%TO.P,TH14,1*%
%TO.N,/LTC6811_3/T4*%
X249545000Y-152200000D03*
D13*
%TO.P,TH14,2*%
%TO.N,GND_PACK*%
X251445000Y-152200000D03*
%TD*%
D17*
%TO.N,GND_PACK*%
X267250000Y-118141928D03*
X278000000Y-164000000D03*
D18*
X276950000Y-141241928D03*
D17*
X267000000Y-164000000D03*
X359450000Y-127400000D03*
X306000000Y-121958072D03*
X294050000Y-160500000D03*
X244000000Y-148000000D03*
X302000000Y-148000000D03*
X359400000Y-131875000D03*
X330000000Y-154000000D03*
X328000000Y-115958072D03*
X243600000Y-115800000D03*
X257900000Y-148950000D03*
X294050000Y-155041928D03*
X248000000Y-146000000D03*
D18*
X258150000Y-141241928D03*
D17*
X356000000Y-149958072D03*
X265800000Y-155591928D03*
X256000000Y-160000000D03*
D18*
X262850000Y-141241928D03*
D17*
X354000000Y-147958072D03*
X314000000Y-160000000D03*
X324000000Y-117958072D03*
X328000000Y-117958072D03*
X356000000Y-147958072D03*
X324000000Y-168000000D03*
D18*
X311575000Y-141100000D03*
D17*
X235750000Y-136050000D03*
X296050000Y-128041928D03*
X290050000Y-148041928D03*
X269025000Y-151225000D03*
X282050000Y-151241928D03*
X334000000Y-115958072D03*
X295050000Y-140041928D03*
D18*
X344275000Y-141100000D03*
X244050000Y-141241928D03*
D17*
X293000000Y-165000000D03*
X314000000Y-167000000D03*
X328000000Y-119958072D03*
X336000000Y-169500000D03*
X329975000Y-120150000D03*
X278000000Y-168000000D03*
X341975000Y-149000000D03*
X338000000Y-115958072D03*
X318000000Y-168000000D03*
X296050000Y-124041928D03*
X316000000Y-162000000D03*
X235750000Y-140050000D03*
X265800000Y-158300000D03*
X354000000Y-149958072D03*
X350000000Y-147958072D03*
X320000000Y-162000000D03*
X238000000Y-132100000D03*
X344700000Y-148658072D03*
D18*
X253550000Y-141241928D03*
D17*
X259500000Y-148950000D03*
X240000000Y-146000000D03*
X357475000Y-142500000D03*
X269250000Y-120291928D03*
X358000000Y-149958072D03*
X358000000Y-147958072D03*
X322000000Y-154000000D03*
D18*
X330275000Y-141100000D03*
D17*
X263000000Y-164000000D03*
X318000000Y-162000000D03*
X315500000Y-165500000D03*
X274000000Y-168000000D03*
X238000000Y-140041928D03*
X276750000Y-161641928D03*
X296050000Y-136041928D03*
X238000000Y-148000000D03*
X238000000Y-144041928D03*
X303000000Y-167000000D03*
X310000000Y-164000000D03*
X260000000Y-160000000D03*
X290050000Y-146041928D03*
X308000000Y-167000000D03*
X296050000Y-160500000D03*
X280050000Y-168041928D03*
X304000000Y-119958072D03*
X281250000Y-116141928D03*
X276000000Y-164000000D03*
X239250000Y-141141928D03*
X336000000Y-164000000D03*
X352000000Y-149958072D03*
X258000000Y-162000000D03*
X296050000Y-120000000D03*
X242000000Y-146000000D03*
X306775000Y-148000000D03*
X350000000Y-115958072D03*
X274000000Y-164000000D03*
X294050000Y-148041928D03*
X310775000Y-148000000D03*
X273250000Y-116141928D03*
X314775000Y-148000000D03*
X330000000Y-115958072D03*
X235750000Y-132050000D03*
X244000000Y-146000000D03*
X242000000Y-130000000D03*
X301000000Y-160500000D03*
X330700000Y-157658072D03*
X261000000Y-150225000D03*
X239250000Y-144141928D03*
X310000000Y-167000000D03*
X332200000Y-159658072D03*
X326000000Y-154000000D03*
X299200000Y-160500000D03*
X277250000Y-116141928D03*
X242000000Y-128000000D03*
D18*
X290850000Y-141241928D03*
D17*
X334000000Y-151000000D03*
X331000000Y-169500000D03*
X303000000Y-165000000D03*
X336000000Y-162500000D03*
X312000000Y-160000000D03*
X258000000Y-166000000D03*
X238000000Y-130000000D03*
X357475000Y-139500000D03*
X359400000Y-136075000D03*
X235700000Y-148300000D03*
X303000000Y-160500000D03*
X295050000Y-142041928D03*
X346000000Y-115958072D03*
X308000000Y-169500000D03*
D18*
X306975000Y-141100000D03*
D17*
X310000000Y-161500000D03*
X320000000Y-164000000D03*
X312000000Y-161500000D03*
X276000000Y-168000000D03*
X303000000Y-163000000D03*
X301975000Y-144000000D03*
X294050000Y-146041928D03*
X302000000Y-121958072D03*
D18*
X272150000Y-141241928D03*
D17*
X306000000Y-123958072D03*
X303000000Y-169000000D03*
X240000000Y-148000000D03*
X326000000Y-169500000D03*
X294050000Y-153041928D03*
D18*
X339575000Y-141100000D03*
X281550000Y-141241928D03*
X286150000Y-141241928D03*
D17*
X310000000Y-169500000D03*
X330800000Y-165500000D03*
D18*
X325675000Y-141100000D03*
D17*
X336000000Y-166000000D03*
X302000000Y-123958072D03*
X289250000Y-116141928D03*
X293000000Y-163000000D03*
X340000000Y-151000000D03*
X292050000Y-148041928D03*
X308000000Y-164000000D03*
X280050000Y-151241928D03*
D18*
X334975000Y-141100000D03*
D17*
X301975000Y-128000000D03*
X293000000Y-169000000D03*
X318000000Y-164000000D03*
X272050000Y-151241928D03*
X293250000Y-116141928D03*
X300000000Y-115958072D03*
X292050000Y-150041928D03*
X303975000Y-128000000D03*
D18*
X316275000Y-141100000D03*
D17*
X296050000Y-132041928D03*
X314000000Y-161500000D03*
D18*
X353575000Y-141100000D03*
D17*
X258000000Y-158000000D03*
X262000000Y-158000000D03*
X331975000Y-152000000D03*
X293000000Y-167000000D03*
X322000000Y-168000000D03*
X338000000Y-151000000D03*
X294050000Y-150041928D03*
X258000000Y-164000000D03*
X282050000Y-168041928D03*
X320000000Y-168000000D03*
X285250000Y-116141928D03*
X235750000Y-144050000D03*
X296050000Y-116000000D03*
X265000000Y-164000000D03*
X342000000Y-115958072D03*
X314000000Y-164000000D03*
X240000000Y-130000000D03*
X350000000Y-149958072D03*
X326000000Y-156000000D03*
X330000000Y-117958072D03*
X359400000Y-123950000D03*
X238000000Y-128000000D03*
X271250000Y-118141928D03*
X256250000Y-148950000D03*
X336000000Y-168000000D03*
X319299250Y-158524122D03*
D18*
X248750000Y-141241928D03*
D17*
X303975000Y-130000000D03*
D18*
X320975000Y-141100000D03*
D17*
X276050000Y-151241928D03*
X240000000Y-128000000D03*
X238000000Y-146000000D03*
X235700000Y-128000000D03*
D18*
X267550000Y-141241928D03*
D17*
X238000000Y-136041928D03*
D18*
X348875000Y-141100000D03*
D17*
X258000000Y-160000000D03*
X258000000Y-168000000D03*
X296050000Y-158041928D03*
X301975000Y-141000000D03*
X301975000Y-130000000D03*
X265000000Y-167000000D03*
X256000000Y-158000000D03*
X246000000Y-146000000D03*
X336000000Y-151000000D03*
X242000000Y-148000000D03*
D18*
%TO.N,/LTC6811_3/cell1/S*%
X262400000Y-149529428D03*
X262400000Y-156929428D03*
%TO.N,/LTC6811_4/cell1/S*%
X315900000Y-150800000D03*
X315900000Y-159800000D03*
%TD*%
D19*
%TO.N,/LTC6811_3/cell1/S*%
X262400000Y-156929428D02*
X262400000Y-149529428D01*
%TO.N,/LTC6811_4/cell1/S*%
X315900000Y-159800000D02*
X315900000Y-150800000D01*
%TD*%
%TA.AperFunction,Conductor*%
%TO.N,GND_PACK*%
G36*
X297343039Y-115030185D02*
G01*
X297388794Y-115082989D01*
X297400000Y-115134500D01*
X297400000Y-160976000D01*
X297380315Y-161043039D01*
X297327511Y-161088794D01*
X297276000Y-161100000D01*
X294600000Y-161100000D01*
X294600000Y-169727299D01*
X294580315Y-169794338D01*
X294527511Y-169840093D01*
X294476397Y-169851298D01*
X255224397Y-169977105D01*
X255157295Y-169957636D01*
X255111371Y-169904979D01*
X255100000Y-169853106D01*
X255100000Y-159200000D01*
X245524000Y-159200000D01*
X245456961Y-159180315D01*
X245411206Y-159127511D01*
X245400000Y-159076000D01*
X245400000Y-151100000D01*
X235134500Y-151100000D01*
X235067461Y-151080315D01*
X235021706Y-151027511D01*
X235010500Y-150976000D01*
X235010500Y-150099999D01*
X248339357Y-150099999D01*
X248339357Y-150100000D01*
X248359884Y-150321535D01*
X248359885Y-150321537D01*
X248420769Y-150535523D01*
X248420775Y-150535538D01*
X248519938Y-150734683D01*
X248519943Y-150734691D01*
X248654018Y-150912235D01*
X248814312Y-151058363D01*
X248850593Y-151118075D01*
X248848832Y-151187922D01*
X248814312Y-151241637D01*
X248654018Y-151387764D01*
X248519943Y-151565308D01*
X248519938Y-151565316D01*
X248420775Y-151764461D01*
X248420769Y-151764476D01*
X248359885Y-151978462D01*
X248359884Y-151978464D01*
X248339357Y-152199999D01*
X248339357Y-152200000D01*
X248359884Y-152421535D01*
X248359885Y-152421537D01*
X248420769Y-152635523D01*
X248420775Y-152635538D01*
X248519938Y-152834683D01*
X248519943Y-152834691D01*
X248654018Y-153012235D01*
X248816812Y-153160642D01*
X248853093Y-153220354D01*
X248851332Y-153290201D01*
X248816812Y-153343916D01*
X248659018Y-153487764D01*
X248524943Y-153665308D01*
X248524938Y-153665316D01*
X248425775Y-153864461D01*
X248425769Y-153864476D01*
X248364885Y-154078462D01*
X248364884Y-154078464D01*
X248344357Y-154299999D01*
X248344357Y-154300000D01*
X248364884Y-154521535D01*
X248364885Y-154521537D01*
X248425769Y-154735523D01*
X248425775Y-154735538D01*
X248524938Y-154934683D01*
X248524943Y-154934691D01*
X248659020Y-155112238D01*
X248823437Y-155262123D01*
X248823439Y-155262125D01*
X249012595Y-155379245D01*
X249012596Y-155379245D01*
X249012599Y-155379247D01*
X249220060Y-155459618D01*
X249316493Y-155477644D01*
X249378771Y-155509311D01*
X249414044Y-155569623D01*
X249411110Y-155639431D01*
X249370902Y-155696572D01*
X249316491Y-155721420D01*
X249215071Y-155740379D01*
X249215062Y-155740381D01*
X249215060Y-155740382D01*
X249083864Y-155791207D01*
X249007601Y-155820752D01*
X249007595Y-155820754D01*
X248818439Y-155937874D01*
X248818437Y-155937876D01*
X248654020Y-156087761D01*
X248519943Y-156265308D01*
X248519938Y-156265316D01*
X248420775Y-156464461D01*
X248420769Y-156464476D01*
X248359885Y-156678462D01*
X248359884Y-156678464D01*
X248339357Y-156899999D01*
X248339357Y-156900000D01*
X248359884Y-157121535D01*
X248359885Y-157121537D01*
X248420769Y-157335523D01*
X248420775Y-157335538D01*
X248519938Y-157534683D01*
X248519943Y-157534691D01*
X248654020Y-157712238D01*
X248818437Y-157862123D01*
X248818439Y-157862125D01*
X249007595Y-157979245D01*
X249007596Y-157979245D01*
X249007599Y-157979247D01*
X249215060Y-158059618D01*
X249433757Y-158100500D01*
X249433759Y-158100500D01*
X249656241Y-158100500D01*
X249656243Y-158100500D01*
X249874940Y-158059618D01*
X250082401Y-157979247D01*
X250271562Y-157862124D01*
X250435981Y-157712236D01*
X250570058Y-157534689D01*
X250669229Y-157335528D01*
X250730115Y-157121536D01*
X250750643Y-156900000D01*
X250730115Y-156678464D01*
X250669229Y-156464472D01*
X250669224Y-156464461D01*
X250570061Y-156265316D01*
X250570056Y-156265308D01*
X250435979Y-156087761D01*
X250271562Y-155937876D01*
X250271560Y-155937874D01*
X250082404Y-155820754D01*
X250082398Y-155820752D01*
X249874940Y-155740382D01*
X249778506Y-155722355D01*
X249716228Y-155690687D01*
X249680955Y-155630375D01*
X249683889Y-155560567D01*
X249724098Y-155503427D01*
X249778505Y-155478579D01*
X249879940Y-155459618D01*
X250087401Y-155379247D01*
X250276562Y-155262124D01*
X250440981Y-155112236D01*
X250575058Y-154934689D01*
X250674229Y-154735528D01*
X250735115Y-154521536D01*
X250755643Y-154300000D01*
X250735115Y-154078464D01*
X250674229Y-153864472D01*
X250674224Y-153864461D01*
X250575061Y-153665316D01*
X250575056Y-153665308D01*
X250440981Y-153487764D01*
X250278187Y-153339357D01*
X250241906Y-153279645D01*
X250243667Y-153209798D01*
X250278187Y-153156084D01*
X250435981Y-153012236D01*
X250570058Y-152834689D01*
X250669229Y-152635528D01*
X250730115Y-152421536D01*
X250750643Y-152200000D01*
X250730115Y-151978464D01*
X250669229Y-151764472D01*
X250669224Y-151764461D01*
X250570061Y-151565316D01*
X250570056Y-151565308D01*
X250435979Y-151387761D01*
X250275688Y-151241637D01*
X250239406Y-151181926D01*
X250241167Y-151112078D01*
X250275688Y-151058363D01*
X250435979Y-150912238D01*
X250435982Y-150912235D01*
X250570058Y-150734689D01*
X250669229Y-150535528D01*
X250730115Y-150321536D01*
X250750643Y-150100000D01*
X250730115Y-149878464D01*
X250669229Y-149664472D01*
X250601985Y-149529428D01*
X250601984Y-149529425D01*
X261644751Y-149529425D01*
X261644751Y-149529430D01*
X261663686Y-149697485D01*
X261719542Y-149857115D01*
X261719544Y-149857118D01*
X261730493Y-149874543D01*
X261749500Y-149940515D01*
X261749500Y-156518339D01*
X261730495Y-156584310D01*
X261719544Y-156601738D01*
X261663685Y-156761371D01*
X261644751Y-156929425D01*
X261644751Y-156929430D01*
X261663685Y-157097484D01*
X261719545Y-157257122D01*
X261719547Y-157257125D01*
X261809518Y-157400312D01*
X261809523Y-157400318D01*
X261929109Y-157519904D01*
X261929115Y-157519909D01*
X262072302Y-157609880D01*
X262072305Y-157609882D01*
X262072309Y-157609883D01*
X262072310Y-157609884D01*
X262144913Y-157635288D01*
X262231943Y-157665742D01*
X262399997Y-157684677D01*
X262400000Y-157684677D01*
X262400003Y-157684677D01*
X262568056Y-157665742D01*
X262568059Y-157665741D01*
X262727690Y-157609884D01*
X262727692Y-157609882D01*
X262727694Y-157609882D01*
X262727697Y-157609880D01*
X262870884Y-157519909D01*
X262870885Y-157519908D01*
X262870890Y-157519905D01*
X262990477Y-157400318D01*
X263031181Y-157335538D01*
X263080452Y-157257125D01*
X263080454Y-157257122D01*
X263080454Y-157257120D01*
X263080456Y-157257118D01*
X263136313Y-157097487D01*
X263136313Y-157097486D01*
X263136314Y-157097484D01*
X263155249Y-156929430D01*
X263155249Y-156929425D01*
X263136314Y-156761371D01*
X263107303Y-156678464D01*
X263080456Y-156601738D01*
X263069504Y-156584309D01*
X263050500Y-156518339D01*
X263050500Y-149940515D01*
X263069506Y-149874543D01*
X263080456Y-149857118D01*
X263136313Y-149697487D01*
X263155249Y-149529428D01*
X263155249Y-149529425D01*
X263136314Y-149361371D01*
X263080454Y-149201733D01*
X263080452Y-149201730D01*
X262990481Y-149058543D01*
X262990476Y-149058537D01*
X262870890Y-148938951D01*
X262870884Y-148938946D01*
X262727697Y-148848975D01*
X262727694Y-148848973D01*
X262568056Y-148793113D01*
X262400003Y-148774179D01*
X262399997Y-148774179D01*
X262231943Y-148793113D01*
X262072305Y-148848973D01*
X262072302Y-148848975D01*
X261929115Y-148938946D01*
X261929109Y-148938951D01*
X261809523Y-149058537D01*
X261809518Y-149058543D01*
X261719547Y-149201730D01*
X261719545Y-149201733D01*
X261663685Y-149361371D01*
X261644751Y-149529425D01*
X250601984Y-149529425D01*
X250570061Y-149465316D01*
X250570056Y-149465308D01*
X250435979Y-149287761D01*
X250271562Y-149137876D01*
X250271560Y-149137874D01*
X250082404Y-149020754D01*
X250082398Y-149020752D01*
X249874940Y-148940382D01*
X249656243Y-148899500D01*
X249433757Y-148899500D01*
X249215060Y-148940382D01*
X249083864Y-148991207D01*
X249007601Y-149020752D01*
X249007595Y-149020754D01*
X248818439Y-149137874D01*
X248818437Y-149137876D01*
X248654020Y-149287761D01*
X248519943Y-149465308D01*
X248519938Y-149465316D01*
X248420775Y-149664461D01*
X248420769Y-149664476D01*
X248359885Y-149878462D01*
X248359884Y-149878464D01*
X248339357Y-150099999D01*
X235010500Y-150099999D01*
X235010500Y-123124000D01*
X235030185Y-123056961D01*
X235082989Y-123011206D01*
X235134500Y-123000000D01*
X243000000Y-123000000D01*
X243000000Y-118810641D01*
X245849500Y-118810641D01*
X245849500Y-119273214D01*
X245882753Y-119483167D01*
X245948444Y-119685342D01*
X246044951Y-119874748D01*
X246169890Y-120046714D01*
X246320213Y-120197037D01*
X246492179Y-120321976D01*
X246492181Y-120321977D01*
X246492184Y-120321979D01*
X246681588Y-120418485D01*
X246883757Y-120484174D01*
X247093713Y-120517428D01*
X247093714Y-120517428D01*
X247306286Y-120517428D01*
X247306287Y-120517428D01*
X247516243Y-120484174D01*
X247718412Y-120418485D01*
X247907816Y-120321979D01*
X247929789Y-120306014D01*
X248079786Y-120197037D01*
X248079788Y-120197034D01*
X248079792Y-120197032D01*
X248230104Y-120046720D01*
X248349683Y-119882132D01*
X248405011Y-119839468D01*
X248474624Y-119833489D01*
X248536420Y-119866094D01*
X248550313Y-119882127D01*
X248653925Y-120024737D01*
X248669896Y-120046720D01*
X248820213Y-120197037D01*
X248992179Y-120321976D01*
X248992181Y-120321977D01*
X248992184Y-120321979D01*
X249181588Y-120418485D01*
X249383757Y-120484174D01*
X249593713Y-120517428D01*
X249593714Y-120517428D01*
X249806286Y-120517428D01*
X249806287Y-120517428D01*
X250016243Y-120484174D01*
X250218412Y-120418485D01*
X250407816Y-120321979D01*
X250429789Y-120306014D01*
X250579786Y-120197037D01*
X250579788Y-120197034D01*
X250579792Y-120197032D01*
X250730104Y-120046720D01*
X250849683Y-119882132D01*
X250905011Y-119839468D01*
X250974624Y-119833489D01*
X251036420Y-119866094D01*
X251050313Y-119882127D01*
X251153925Y-120024737D01*
X251169896Y-120046720D01*
X251320213Y-120197037D01*
X251492179Y-120321976D01*
X251492181Y-120321977D01*
X251492184Y-120321979D01*
X251681588Y-120418485D01*
X251883757Y-120484174D01*
X252093713Y-120517428D01*
X252093714Y-120517428D01*
X252306286Y-120517428D01*
X252306287Y-120517428D01*
X252516243Y-120484174D01*
X252718412Y-120418485D01*
X252907816Y-120321979D01*
X252929789Y-120306014D01*
X253079786Y-120197037D01*
X253079788Y-120197034D01*
X253079792Y-120197032D01*
X253230104Y-120046720D01*
X253349683Y-119882132D01*
X253405011Y-119839468D01*
X253474624Y-119833489D01*
X253536420Y-119866094D01*
X253550313Y-119882127D01*
X253653925Y-120024737D01*
X253669896Y-120046720D01*
X253820213Y-120197037D01*
X253992179Y-120321976D01*
X253992181Y-120321977D01*
X253992184Y-120321979D01*
X254181588Y-120418485D01*
X254383757Y-120484174D01*
X254593713Y-120517428D01*
X254593714Y-120517428D01*
X254806286Y-120517428D01*
X254806287Y-120517428D01*
X255016243Y-120484174D01*
X255218412Y-120418485D01*
X255407816Y-120321979D01*
X255429789Y-120306014D01*
X255579786Y-120197037D01*
X255579788Y-120197034D01*
X255579792Y-120197032D01*
X255730104Y-120046720D01*
X255849683Y-119882132D01*
X255905011Y-119839468D01*
X255974624Y-119833489D01*
X256036420Y-119866094D01*
X256050313Y-119882127D01*
X256153925Y-120024737D01*
X256169896Y-120046720D01*
X256320213Y-120197037D01*
X256492179Y-120321976D01*
X256492181Y-120321977D01*
X256492184Y-120321979D01*
X256681588Y-120418485D01*
X256883757Y-120484174D01*
X257093713Y-120517428D01*
X257093714Y-120517428D01*
X257306286Y-120517428D01*
X257306287Y-120517428D01*
X257516243Y-120484174D01*
X257718412Y-120418485D01*
X257907816Y-120321979D01*
X257929789Y-120306014D01*
X258079786Y-120197037D01*
X258079788Y-120197034D01*
X258079792Y-120197032D01*
X258230104Y-120046720D01*
X258349683Y-119882132D01*
X258405011Y-119839468D01*
X258474624Y-119833489D01*
X258536420Y-119866094D01*
X258550313Y-119882127D01*
X258653925Y-120024737D01*
X258669896Y-120046720D01*
X258820213Y-120197037D01*
X258992179Y-120321976D01*
X258992181Y-120321977D01*
X258992184Y-120321979D01*
X259181588Y-120418485D01*
X259383757Y-120484174D01*
X259593713Y-120517428D01*
X259593714Y-120517428D01*
X259806286Y-120517428D01*
X259806287Y-120517428D01*
X260016243Y-120484174D01*
X260218412Y-120418485D01*
X260407816Y-120321979D01*
X260579792Y-120197032D01*
X260718604Y-120058219D01*
X260779923Y-120024737D01*
X260849615Y-120029721D01*
X260905549Y-120071592D01*
X260911821Y-120080806D01*
X260915185Y-120086261D01*
X260915186Y-120086262D01*
X261007288Y-120235584D01*
X261131344Y-120359640D01*
X261280666Y-120451742D01*
X261447203Y-120506927D01*
X261549991Y-120517428D01*
X262850008Y-120517427D01*
X262952797Y-120506927D01*
X263119334Y-120451742D01*
X263268656Y-120359640D01*
X263392712Y-120235584D01*
X263484814Y-120086262D01*
X263539999Y-119919725D01*
X263550500Y-119816937D01*
X263550499Y-118810641D01*
X273899500Y-118810641D01*
X273899500Y-119273214D01*
X273932753Y-119483167D01*
X273998444Y-119685342D01*
X274094951Y-119874748D01*
X274219890Y-120046714D01*
X274370213Y-120197037D01*
X274542179Y-120321976D01*
X274542181Y-120321977D01*
X274542184Y-120321979D01*
X274731588Y-120418485D01*
X274933757Y-120484174D01*
X275143713Y-120517428D01*
X275143714Y-120517428D01*
X275356286Y-120517428D01*
X275356287Y-120517428D01*
X275566243Y-120484174D01*
X275768412Y-120418485D01*
X275957816Y-120321979D01*
X275979789Y-120306014D01*
X276129786Y-120197037D01*
X276129788Y-120197034D01*
X276129792Y-120197032D01*
X276280104Y-120046720D01*
X276399683Y-119882132D01*
X276455011Y-119839468D01*
X276524624Y-119833489D01*
X276586420Y-119866094D01*
X276600313Y-119882127D01*
X276703925Y-120024737D01*
X276719896Y-120046720D01*
X276870213Y-120197037D01*
X277042179Y-120321976D01*
X277042181Y-120321977D01*
X277042184Y-120321979D01*
X277231588Y-120418485D01*
X277433757Y-120484174D01*
X277643713Y-120517428D01*
X277643714Y-120517428D01*
X277856286Y-120517428D01*
X277856287Y-120517428D01*
X278066243Y-120484174D01*
X278268412Y-120418485D01*
X278457816Y-120321979D01*
X278479789Y-120306014D01*
X278629786Y-120197037D01*
X278629788Y-120197034D01*
X278629792Y-120197032D01*
X278780104Y-120046720D01*
X278899683Y-119882132D01*
X278955011Y-119839468D01*
X279024624Y-119833489D01*
X279086420Y-119866094D01*
X279100313Y-119882127D01*
X279203925Y-120024737D01*
X279219896Y-120046720D01*
X279370213Y-120197037D01*
X279542179Y-120321976D01*
X279542181Y-120321977D01*
X279542184Y-120321979D01*
X279731588Y-120418485D01*
X279933757Y-120484174D01*
X280143713Y-120517428D01*
X280143714Y-120517428D01*
X280356286Y-120517428D01*
X280356287Y-120517428D01*
X280566243Y-120484174D01*
X280768412Y-120418485D01*
X280957816Y-120321979D01*
X280979789Y-120306014D01*
X281129786Y-120197037D01*
X281129788Y-120197034D01*
X281129792Y-120197032D01*
X281280104Y-120046720D01*
X281399683Y-119882132D01*
X281455011Y-119839468D01*
X281524624Y-119833489D01*
X281586420Y-119866094D01*
X281600313Y-119882127D01*
X281703925Y-120024737D01*
X281719896Y-120046720D01*
X281870213Y-120197037D01*
X282042179Y-120321976D01*
X282042181Y-120321977D01*
X282042184Y-120321979D01*
X282231588Y-120418485D01*
X282433757Y-120484174D01*
X282643713Y-120517428D01*
X282643714Y-120517428D01*
X282856286Y-120517428D01*
X282856287Y-120517428D01*
X283066243Y-120484174D01*
X283268412Y-120418485D01*
X283457816Y-120321979D01*
X283479789Y-120306014D01*
X283629786Y-120197037D01*
X283629788Y-120197034D01*
X283629792Y-120197032D01*
X283780104Y-120046720D01*
X283899683Y-119882132D01*
X283955011Y-119839468D01*
X284024624Y-119833489D01*
X284086420Y-119866094D01*
X284100313Y-119882127D01*
X284203925Y-120024737D01*
X284219896Y-120046720D01*
X284370213Y-120197037D01*
X284542179Y-120321976D01*
X284542181Y-120321977D01*
X284542184Y-120321979D01*
X284731588Y-120418485D01*
X284933757Y-120484174D01*
X285143713Y-120517428D01*
X285143714Y-120517428D01*
X285356286Y-120517428D01*
X285356287Y-120517428D01*
X285566243Y-120484174D01*
X285768412Y-120418485D01*
X285957816Y-120321979D01*
X285979789Y-120306014D01*
X286129786Y-120197037D01*
X286129788Y-120197034D01*
X286129792Y-120197032D01*
X286280104Y-120046720D01*
X286399683Y-119882132D01*
X286455011Y-119839468D01*
X286524624Y-119833489D01*
X286586420Y-119866094D01*
X286600313Y-119882127D01*
X286703925Y-120024737D01*
X286719896Y-120046720D01*
X286870213Y-120197037D01*
X287042179Y-120321976D01*
X287042181Y-120321977D01*
X287042184Y-120321979D01*
X287231588Y-120418485D01*
X287433757Y-120484174D01*
X287643713Y-120517428D01*
X287643714Y-120517428D01*
X287856286Y-120517428D01*
X287856287Y-120517428D01*
X288066243Y-120484174D01*
X288268412Y-120418485D01*
X288457816Y-120321979D01*
X288629792Y-120197032D01*
X288768604Y-120058219D01*
X288829923Y-120024737D01*
X288899615Y-120029721D01*
X288955549Y-120071592D01*
X288961821Y-120080806D01*
X288965185Y-120086261D01*
X288965186Y-120086262D01*
X289057288Y-120235584D01*
X289181344Y-120359640D01*
X289330666Y-120451742D01*
X289497203Y-120506927D01*
X289599991Y-120517428D01*
X290900008Y-120517427D01*
X291002797Y-120506927D01*
X291169334Y-120451742D01*
X291318656Y-120359640D01*
X291442712Y-120235584D01*
X291534814Y-120086262D01*
X291589999Y-119919725D01*
X291600500Y-119816937D01*
X291600499Y-118266920D01*
X291589999Y-118164131D01*
X291534814Y-117997594D01*
X291442712Y-117848272D01*
X291318656Y-117724216D01*
X291169334Y-117632114D01*
X291002797Y-117576929D01*
X291002795Y-117576928D01*
X290900010Y-117566428D01*
X289599998Y-117566428D01*
X289599981Y-117566429D01*
X289497203Y-117576928D01*
X289497200Y-117576929D01*
X289330668Y-117632113D01*
X289330663Y-117632115D01*
X289181342Y-117724217D01*
X289057289Y-117848270D01*
X288961821Y-118003049D01*
X288909873Y-118049773D01*
X288840910Y-118060996D01*
X288776828Y-118033152D01*
X288768601Y-118025633D01*
X288629786Y-117886818D01*
X288457820Y-117761879D01*
X288268414Y-117665372D01*
X288268413Y-117665371D01*
X288268412Y-117665371D01*
X288066243Y-117599682D01*
X288066241Y-117599681D01*
X288066240Y-117599681D01*
X287904957Y-117574136D01*
X287856287Y-117566428D01*
X287643713Y-117566428D01*
X287595042Y-117574136D01*
X287433760Y-117599681D01*
X287231585Y-117665372D01*
X287042179Y-117761879D01*
X286870213Y-117886818D01*
X286719894Y-118037137D01*
X286719890Y-118037142D01*
X286600318Y-118201721D01*
X286544989Y-118244387D01*
X286475375Y-118250366D01*
X286413580Y-118217761D01*
X286399682Y-118201721D01*
X286280109Y-118037142D01*
X286280105Y-118037137D01*
X286129786Y-117886818D01*
X285957820Y-117761879D01*
X285768414Y-117665372D01*
X285768413Y-117665371D01*
X285768412Y-117665371D01*
X285566243Y-117599682D01*
X285566241Y-117599681D01*
X285566240Y-117599681D01*
X285404957Y-117574136D01*
X285356287Y-117566428D01*
X285143713Y-117566428D01*
X285095042Y-117574136D01*
X284933760Y-117599681D01*
X284731585Y-117665372D01*
X284542179Y-117761879D01*
X284370213Y-117886818D01*
X284219894Y-118037137D01*
X284219890Y-118037142D01*
X284100318Y-118201721D01*
X284044989Y-118244387D01*
X283975375Y-118250366D01*
X283913580Y-118217761D01*
X283899682Y-118201721D01*
X283780109Y-118037142D01*
X283780105Y-118037137D01*
X283629786Y-117886818D01*
X283457820Y-117761879D01*
X283268414Y-117665372D01*
X283268413Y-117665371D01*
X283268412Y-117665371D01*
X283066243Y-117599682D01*
X283066241Y-117599681D01*
X283066240Y-117599681D01*
X282904957Y-117574136D01*
X282856287Y-117566428D01*
X282643713Y-117566428D01*
X282595042Y-117574136D01*
X282433760Y-117599681D01*
X282231585Y-117665372D01*
X282042179Y-117761879D01*
X281870213Y-117886818D01*
X281719894Y-118037137D01*
X281719890Y-118037142D01*
X281600318Y-118201721D01*
X281544989Y-118244387D01*
X281475375Y-118250366D01*
X281413580Y-118217761D01*
X281399682Y-118201721D01*
X281280109Y-118037142D01*
X281280105Y-118037137D01*
X281129786Y-117886818D01*
X280957820Y-117761879D01*
X280768414Y-117665372D01*
X280768413Y-117665371D01*
X280768412Y-117665371D01*
X280566243Y-117599682D01*
X280566241Y-117599681D01*
X280566240Y-117599681D01*
X280404957Y-117574136D01*
X280356287Y-117566428D01*
X280143713Y-117566428D01*
X280095042Y-117574136D01*
X279933760Y-117599681D01*
X279731585Y-117665372D01*
X279542179Y-117761879D01*
X279370213Y-117886818D01*
X279219894Y-118037137D01*
X279219890Y-118037142D01*
X279100318Y-118201721D01*
X279044989Y-118244387D01*
X278975375Y-118250366D01*
X278913580Y-118217761D01*
X278899682Y-118201721D01*
X278780109Y-118037142D01*
X278780105Y-118037137D01*
X278629786Y-117886818D01*
X278457820Y-117761879D01*
X278268414Y-117665372D01*
X278268413Y-117665371D01*
X278268412Y-117665371D01*
X278066243Y-117599682D01*
X278066241Y-117599681D01*
X278066240Y-117599681D01*
X277904957Y-117574136D01*
X277856287Y-117566428D01*
X277643713Y-117566428D01*
X277595042Y-117574136D01*
X277433760Y-117599681D01*
X277231585Y-117665372D01*
X277042179Y-117761879D01*
X276870213Y-117886818D01*
X276719894Y-118037137D01*
X276719890Y-118037142D01*
X276600318Y-118201721D01*
X276544989Y-118244387D01*
X276475375Y-118250366D01*
X276413580Y-118217761D01*
X276399682Y-118201721D01*
X276280109Y-118037142D01*
X276280105Y-118037137D01*
X276129786Y-117886818D01*
X275957820Y-117761879D01*
X275768414Y-117665372D01*
X275768413Y-117665371D01*
X275768412Y-117665371D01*
X275566243Y-117599682D01*
X275566241Y-117599681D01*
X275566240Y-117599681D01*
X275404957Y-117574136D01*
X275356287Y-117566428D01*
X275143713Y-117566428D01*
X275095042Y-117574136D01*
X274933760Y-117599681D01*
X274731585Y-117665372D01*
X274542179Y-117761879D01*
X274370213Y-117886818D01*
X274219890Y-118037141D01*
X274094951Y-118209107D01*
X273998444Y-118398513D01*
X273932753Y-118600688D01*
X273899500Y-118810641D01*
X263550499Y-118810641D01*
X263550499Y-118266920D01*
X263539999Y-118164131D01*
X263484814Y-117997594D01*
X263392712Y-117848272D01*
X263268656Y-117724216D01*
X263119334Y-117632114D01*
X262952797Y-117576929D01*
X262952795Y-117576928D01*
X262850010Y-117566428D01*
X261549998Y-117566428D01*
X261549981Y-117566429D01*
X261447203Y-117576928D01*
X261447200Y-117576929D01*
X261280668Y-117632113D01*
X261280663Y-117632115D01*
X261131342Y-117724217D01*
X261007289Y-117848270D01*
X260911821Y-118003049D01*
X260859873Y-118049773D01*
X260790910Y-118060996D01*
X260726828Y-118033152D01*
X260718601Y-118025633D01*
X260579786Y-117886818D01*
X260407820Y-117761879D01*
X260218414Y-117665372D01*
X260218413Y-117665371D01*
X260218412Y-117665371D01*
X260016243Y-117599682D01*
X260016241Y-117599681D01*
X260016240Y-117599681D01*
X259854957Y-117574136D01*
X259806287Y-117566428D01*
X259593713Y-117566428D01*
X259545042Y-117574136D01*
X259383760Y-117599681D01*
X259181585Y-117665372D01*
X258992179Y-117761879D01*
X258820213Y-117886818D01*
X258669894Y-118037137D01*
X258669890Y-118037142D01*
X258550318Y-118201721D01*
X258494989Y-118244387D01*
X258425375Y-118250366D01*
X258363580Y-118217761D01*
X258349682Y-118201721D01*
X258230109Y-118037142D01*
X258230105Y-118037137D01*
X258079786Y-117886818D01*
X257907820Y-117761879D01*
X257718414Y-117665372D01*
X257718413Y-117665371D01*
X257718412Y-117665371D01*
X257516243Y-117599682D01*
X257516241Y-117599681D01*
X257516240Y-117599681D01*
X257354957Y-117574136D01*
X257306287Y-117566428D01*
X257093713Y-117566428D01*
X257045042Y-117574136D01*
X256883760Y-117599681D01*
X256681585Y-117665372D01*
X256492179Y-117761879D01*
X256320213Y-117886818D01*
X256169894Y-118037137D01*
X256169890Y-118037142D01*
X256050318Y-118201721D01*
X255994989Y-118244387D01*
X255925375Y-118250366D01*
X255863580Y-118217761D01*
X255849682Y-118201721D01*
X255730109Y-118037142D01*
X255730105Y-118037137D01*
X255579786Y-117886818D01*
X255407820Y-117761879D01*
X255218414Y-117665372D01*
X255218413Y-117665371D01*
X255218412Y-117665371D01*
X255016243Y-117599682D01*
X255016241Y-117599681D01*
X255016240Y-117599681D01*
X254854957Y-117574136D01*
X254806287Y-117566428D01*
X254593713Y-117566428D01*
X254545042Y-117574136D01*
X254383760Y-117599681D01*
X254181585Y-117665372D01*
X253992179Y-117761879D01*
X253820213Y-117886818D01*
X253669894Y-118037137D01*
X253669890Y-118037142D01*
X253550318Y-118201721D01*
X253494989Y-118244387D01*
X253425375Y-118250366D01*
X253363580Y-118217761D01*
X253349682Y-118201721D01*
X253230109Y-118037142D01*
X253230105Y-118037137D01*
X253079786Y-117886818D01*
X252907820Y-117761879D01*
X252718414Y-117665372D01*
X252718413Y-117665371D01*
X252718412Y-117665371D01*
X252516243Y-117599682D01*
X252516241Y-117599681D01*
X252516240Y-117599681D01*
X252354957Y-117574136D01*
X252306287Y-117566428D01*
X252093713Y-117566428D01*
X252045042Y-117574136D01*
X251883760Y-117599681D01*
X251681585Y-117665372D01*
X251492179Y-117761879D01*
X251320213Y-117886818D01*
X251169894Y-118037137D01*
X251169890Y-118037142D01*
X251050318Y-118201721D01*
X250994989Y-118244387D01*
X250925375Y-118250366D01*
X250863580Y-118217761D01*
X250849682Y-118201721D01*
X250730109Y-118037142D01*
X250730105Y-118037137D01*
X250579786Y-117886818D01*
X250407820Y-117761879D01*
X250218414Y-117665372D01*
X250218413Y-117665371D01*
X250218412Y-117665371D01*
X250016243Y-117599682D01*
X250016241Y-117599681D01*
X250016240Y-117599681D01*
X249854957Y-117574136D01*
X249806287Y-117566428D01*
X249593713Y-117566428D01*
X249545042Y-117574136D01*
X249383760Y-117599681D01*
X249181585Y-117665372D01*
X248992179Y-117761879D01*
X248820213Y-117886818D01*
X248669894Y-118037137D01*
X248669890Y-118037142D01*
X248550318Y-118201721D01*
X248494989Y-118244387D01*
X248425375Y-118250366D01*
X248363580Y-118217761D01*
X248349682Y-118201721D01*
X248230109Y-118037142D01*
X248230105Y-118037137D01*
X248079786Y-117886818D01*
X247907820Y-117761879D01*
X247718414Y-117665372D01*
X247718413Y-117665371D01*
X247718412Y-117665371D01*
X247516243Y-117599682D01*
X247516241Y-117599681D01*
X247516240Y-117599681D01*
X247354957Y-117574136D01*
X247306287Y-117566428D01*
X247093713Y-117566428D01*
X247045042Y-117574136D01*
X246883760Y-117599681D01*
X246681585Y-117665372D01*
X246492179Y-117761879D01*
X246320213Y-117886818D01*
X246169890Y-118037141D01*
X246044951Y-118209107D01*
X245948444Y-118398513D01*
X245882753Y-118600688D01*
X245849500Y-118810641D01*
X243000000Y-118810641D01*
X243000000Y-115152908D01*
X243019685Y-115085869D01*
X243072489Y-115040114D01*
X243123795Y-115028909D01*
X254611072Y-115010500D01*
X297276000Y-115010500D01*
X297343039Y-115030185D01*
G37*
%TD.AperFunction*%
%TD*%
%TA.AperFunction,Conductor*%
%TO.N,GND_PACK*%
G36*
X351993039Y-115030185D02*
G01*
X352038794Y-115082989D01*
X352050000Y-115134500D01*
X352050000Y-122950000D01*
X359865500Y-122950000D01*
X359932539Y-122969685D01*
X359978294Y-123022489D01*
X359989500Y-123074000D01*
X359989500Y-151384072D01*
X359969815Y-151451111D01*
X359917011Y-151496866D01*
X359865500Y-151508072D01*
X346500000Y-151508072D01*
X346500000Y-160926000D01*
X346480315Y-160993039D01*
X346427511Y-161038794D01*
X346376000Y-161050000D01*
X338900000Y-161050000D01*
X338900000Y-169826309D01*
X338880315Y-169893348D01*
X338827511Y-169939103D01*
X338776310Y-169950309D01*
X323100000Y-169989500D01*
X301524000Y-169989500D01*
X301456961Y-169969815D01*
X301411206Y-169917011D01*
X301400000Y-169865500D01*
X301400000Y-161100000D01*
X299024000Y-161100000D01*
X298956961Y-161080315D01*
X298911206Y-161027511D01*
X298900000Y-160976000D01*
X298900000Y-152199999D01*
X303089357Y-152199999D01*
X303089357Y-152200000D01*
X303109884Y-152421535D01*
X303109885Y-152421537D01*
X303170769Y-152635523D01*
X303170775Y-152635538D01*
X303269938Y-152834683D01*
X303269943Y-152834691D01*
X303404020Y-153012238D01*
X303545464Y-153141181D01*
X303568438Y-153162124D01*
X303614392Y-153190577D01*
X303620845Y-153194573D01*
X303667480Y-153246601D01*
X303678584Y-153315583D01*
X303650631Y-153379617D01*
X303620845Y-153405427D01*
X303568436Y-153437877D01*
X303404020Y-153587761D01*
X303269943Y-153765308D01*
X303269938Y-153765316D01*
X303170775Y-153964461D01*
X303170769Y-153964476D01*
X303109885Y-154178462D01*
X303109884Y-154178464D01*
X303089357Y-154399999D01*
X303089357Y-154400000D01*
X303109884Y-154621535D01*
X303109885Y-154621537D01*
X303170769Y-154835523D01*
X303170775Y-154835538D01*
X303269938Y-155034683D01*
X303269943Y-155034691D01*
X303404018Y-155212235D01*
X303566812Y-155360642D01*
X303603093Y-155420354D01*
X303601332Y-155490201D01*
X303566812Y-155543916D01*
X303409018Y-155687764D01*
X303274943Y-155865308D01*
X303274938Y-155865316D01*
X303175775Y-156064461D01*
X303175769Y-156064476D01*
X303114885Y-156278462D01*
X303114884Y-156278464D01*
X303094357Y-156499999D01*
X303094357Y-156500000D01*
X303114884Y-156721535D01*
X303114885Y-156721537D01*
X303175769Y-156935523D01*
X303175775Y-156935538D01*
X303274938Y-157134683D01*
X303274943Y-157134691D01*
X303409020Y-157312238D01*
X303550464Y-157441181D01*
X303573438Y-157462124D01*
X303679617Y-157527867D01*
X303706598Y-157544573D01*
X303753233Y-157596601D01*
X303764337Y-157665583D01*
X303736384Y-157729617D01*
X303706598Y-157755427D01*
X303573436Y-157837877D01*
X303409020Y-157987761D01*
X303274943Y-158165308D01*
X303274938Y-158165316D01*
X303175775Y-158364461D01*
X303175769Y-158364476D01*
X303114885Y-158578462D01*
X303114884Y-158578464D01*
X303094357Y-158799999D01*
X303094357Y-158800000D01*
X303114884Y-159021535D01*
X303114885Y-159021537D01*
X303175769Y-159235523D01*
X303175775Y-159235538D01*
X303274938Y-159434683D01*
X303274943Y-159434691D01*
X303409020Y-159612238D01*
X303573437Y-159762123D01*
X303573439Y-159762125D01*
X303762595Y-159879245D01*
X303762596Y-159879245D01*
X303762599Y-159879247D01*
X303970060Y-159959618D01*
X304188757Y-160000500D01*
X304188759Y-160000500D01*
X304411241Y-160000500D01*
X304411243Y-160000500D01*
X304629940Y-159959618D01*
X304837401Y-159879247D01*
X305026562Y-159762124D01*
X305166282Y-159634751D01*
X305190979Y-159612238D01*
X305297420Y-159471288D01*
X305325058Y-159434689D01*
X305424229Y-159235528D01*
X305485115Y-159021536D01*
X305505643Y-158800000D01*
X305485115Y-158578464D01*
X305424229Y-158364472D01*
X305424224Y-158364461D01*
X305325061Y-158165316D01*
X305325056Y-158165308D01*
X305190979Y-157987761D01*
X305026562Y-157837876D01*
X305026560Y-157837874D01*
X304893402Y-157755427D01*
X304846766Y-157703399D01*
X304835662Y-157634418D01*
X304863615Y-157570383D01*
X304893402Y-157544573D01*
X305026560Y-157462125D01*
X305026559Y-157462125D01*
X305026562Y-157462124D01*
X305190981Y-157312236D01*
X305325058Y-157134689D01*
X305424229Y-156935528D01*
X305485115Y-156721536D01*
X305505643Y-156500000D01*
X305485115Y-156278464D01*
X305424229Y-156064472D01*
X305424224Y-156064461D01*
X305325061Y-155865316D01*
X305325056Y-155865308D01*
X305190981Y-155687764D01*
X305028187Y-155539357D01*
X304991906Y-155479645D01*
X304993667Y-155409798D01*
X305028187Y-155356084D01*
X305185981Y-155212236D01*
X305320058Y-155034689D01*
X305419229Y-154835528D01*
X305480115Y-154621536D01*
X305500643Y-154400000D01*
X305480115Y-154178464D01*
X305419229Y-153964472D01*
X305419224Y-153964461D01*
X305320061Y-153765316D01*
X305320056Y-153765308D01*
X305185979Y-153587761D01*
X305021562Y-153437876D01*
X305021560Y-153437874D01*
X304969155Y-153405427D01*
X304922519Y-153353400D01*
X304911415Y-153284418D01*
X304939368Y-153220384D01*
X304969155Y-153194573D01*
X305021560Y-153162125D01*
X305021559Y-153162125D01*
X305021562Y-153162124D01*
X305185981Y-153012236D01*
X305320058Y-152834689D01*
X305419229Y-152635528D01*
X305480115Y-152421536D01*
X305500643Y-152200000D01*
X305491383Y-152100072D01*
X305480115Y-151978464D01*
X305480114Y-151978462D01*
X305419230Y-151764476D01*
X305419229Y-151764472D01*
X305419224Y-151764461D01*
X305320061Y-151565316D01*
X305320056Y-151565308D01*
X305185979Y-151387761D01*
X305021562Y-151237876D01*
X305021560Y-151237874D01*
X304832404Y-151120754D01*
X304832398Y-151120752D01*
X304624940Y-151040382D01*
X304406243Y-150999500D01*
X304183757Y-150999500D01*
X303965060Y-151040382D01*
X303833864Y-151091207D01*
X303757601Y-151120752D01*
X303757595Y-151120754D01*
X303568439Y-151237874D01*
X303568437Y-151237876D01*
X303404020Y-151387761D01*
X303269943Y-151565308D01*
X303269938Y-151565316D01*
X303170775Y-151764461D01*
X303170769Y-151764476D01*
X303109885Y-151978462D01*
X303109884Y-151978464D01*
X303089357Y-152199999D01*
X298900000Y-152199999D01*
X298900000Y-150799997D01*
X315144751Y-150799997D01*
X315144751Y-150800002D01*
X315163686Y-150968057D01*
X315219542Y-151127687D01*
X315219544Y-151127690D01*
X315230493Y-151145115D01*
X315249500Y-151211087D01*
X315249500Y-159388911D01*
X315230495Y-159454882D01*
X315219544Y-159472310D01*
X315163685Y-159631943D01*
X315144751Y-159799997D01*
X315144751Y-159800002D01*
X315163685Y-159968056D01*
X315219545Y-160127694D01*
X315219547Y-160127697D01*
X315309518Y-160270884D01*
X315309523Y-160270890D01*
X315429109Y-160390476D01*
X315429115Y-160390481D01*
X315572302Y-160480452D01*
X315572305Y-160480454D01*
X315572309Y-160480455D01*
X315572310Y-160480456D01*
X315644913Y-160505860D01*
X315731943Y-160536314D01*
X315899997Y-160555249D01*
X315900000Y-160555249D01*
X315900003Y-160555249D01*
X316068056Y-160536314D01*
X316068059Y-160536313D01*
X316227690Y-160480456D01*
X316227692Y-160480454D01*
X316227694Y-160480454D01*
X316227697Y-160480452D01*
X316370884Y-160390481D01*
X316370885Y-160390480D01*
X316370890Y-160390477D01*
X316490477Y-160270890D01*
X316580452Y-160127697D01*
X316580454Y-160127694D01*
X316580454Y-160127692D01*
X316580456Y-160127690D01*
X316636313Y-159968059D01*
X316636313Y-159968058D01*
X316636314Y-159968056D01*
X316655249Y-159800002D01*
X316655249Y-159799997D01*
X316636314Y-159631943D01*
X316623417Y-159595088D01*
X316580456Y-159472310D01*
X316569504Y-159454881D01*
X316550500Y-159388911D01*
X316550500Y-151211087D01*
X316569506Y-151145115D01*
X316580456Y-151127690D01*
X316636313Y-150968059D01*
X316655249Y-150800000D01*
X316655249Y-150799997D01*
X316636314Y-150631943D01*
X316580454Y-150472305D01*
X316580452Y-150472302D01*
X316490481Y-150329115D01*
X316490476Y-150329109D01*
X316370890Y-150209523D01*
X316370884Y-150209518D01*
X316227697Y-150119547D01*
X316227694Y-150119545D01*
X316068056Y-150063685D01*
X315900003Y-150044751D01*
X315899997Y-150044751D01*
X315731943Y-150063685D01*
X315572305Y-150119545D01*
X315572302Y-150119547D01*
X315429115Y-150209518D01*
X315429109Y-150209523D01*
X315309523Y-150329109D01*
X315309518Y-150329115D01*
X315219547Y-150472302D01*
X315219545Y-150472305D01*
X315163685Y-150631943D01*
X315144751Y-150799997D01*
X298900000Y-150799997D01*
X298900000Y-118726785D01*
X304049500Y-118726785D01*
X304049500Y-119189359D01*
X304082754Y-119399315D01*
X304137697Y-119568412D01*
X304148444Y-119601486D01*
X304244951Y-119790892D01*
X304369890Y-119962858D01*
X304520213Y-120113181D01*
X304692179Y-120238120D01*
X304692181Y-120238121D01*
X304692184Y-120238123D01*
X304881588Y-120334629D01*
X305083757Y-120400318D01*
X305293713Y-120433572D01*
X305293714Y-120433572D01*
X305506286Y-120433572D01*
X305506287Y-120433572D01*
X305716243Y-120400318D01*
X305918412Y-120334629D01*
X306107816Y-120238123D01*
X306153340Y-120205048D01*
X306279786Y-120113181D01*
X306279788Y-120113178D01*
X306279792Y-120113176D01*
X306430104Y-119962864D01*
X306549683Y-119798276D01*
X306605011Y-119755612D01*
X306674624Y-119749633D01*
X306736420Y-119782238D01*
X306750313Y-119798271D01*
X306833518Y-119912793D01*
X306869896Y-119962864D01*
X307020213Y-120113181D01*
X307192179Y-120238120D01*
X307192181Y-120238121D01*
X307192184Y-120238123D01*
X307381588Y-120334629D01*
X307583757Y-120400318D01*
X307793713Y-120433572D01*
X307793714Y-120433572D01*
X308006286Y-120433572D01*
X308006287Y-120433572D01*
X308216243Y-120400318D01*
X308418412Y-120334629D01*
X308607816Y-120238123D01*
X308653340Y-120205048D01*
X308779786Y-120113181D01*
X308779788Y-120113178D01*
X308779792Y-120113176D01*
X308930104Y-119962864D01*
X309049683Y-119798276D01*
X309105011Y-119755612D01*
X309174624Y-119749633D01*
X309236420Y-119782238D01*
X309250313Y-119798271D01*
X309333518Y-119912793D01*
X309369896Y-119962864D01*
X309520213Y-120113181D01*
X309692179Y-120238120D01*
X309692181Y-120238121D01*
X309692184Y-120238123D01*
X309881588Y-120334629D01*
X310083757Y-120400318D01*
X310293713Y-120433572D01*
X310293714Y-120433572D01*
X310506286Y-120433572D01*
X310506287Y-120433572D01*
X310716243Y-120400318D01*
X310918412Y-120334629D01*
X311107816Y-120238123D01*
X311153340Y-120205048D01*
X311279786Y-120113181D01*
X311279788Y-120113178D01*
X311279792Y-120113176D01*
X311430104Y-119962864D01*
X311549683Y-119798276D01*
X311605011Y-119755612D01*
X311674624Y-119749633D01*
X311736420Y-119782238D01*
X311750313Y-119798271D01*
X311833518Y-119912793D01*
X311869896Y-119962864D01*
X312020213Y-120113181D01*
X312192179Y-120238120D01*
X312192181Y-120238121D01*
X312192184Y-120238123D01*
X312381588Y-120334629D01*
X312583757Y-120400318D01*
X312793713Y-120433572D01*
X312793714Y-120433572D01*
X313006286Y-120433572D01*
X313006287Y-120433572D01*
X313216243Y-120400318D01*
X313418412Y-120334629D01*
X313607816Y-120238123D01*
X313653340Y-120205048D01*
X313779786Y-120113181D01*
X313779788Y-120113178D01*
X313779792Y-120113176D01*
X313930104Y-119962864D01*
X314049683Y-119798276D01*
X314105011Y-119755612D01*
X314174624Y-119749633D01*
X314236420Y-119782238D01*
X314250313Y-119798271D01*
X314333518Y-119912793D01*
X314369896Y-119962864D01*
X314520213Y-120113181D01*
X314692179Y-120238120D01*
X314692181Y-120238121D01*
X314692184Y-120238123D01*
X314881588Y-120334629D01*
X315083757Y-120400318D01*
X315293713Y-120433572D01*
X315293714Y-120433572D01*
X315506286Y-120433572D01*
X315506287Y-120433572D01*
X315716243Y-120400318D01*
X315918412Y-120334629D01*
X316107816Y-120238123D01*
X316153340Y-120205048D01*
X316279786Y-120113181D01*
X316279788Y-120113178D01*
X316279792Y-120113176D01*
X316430104Y-119962864D01*
X316549683Y-119798276D01*
X316605011Y-119755612D01*
X316674624Y-119749633D01*
X316736420Y-119782238D01*
X316750313Y-119798271D01*
X316833518Y-119912793D01*
X316869896Y-119962864D01*
X317020213Y-120113181D01*
X317192179Y-120238120D01*
X317192181Y-120238121D01*
X317192184Y-120238123D01*
X317381588Y-120334629D01*
X317583757Y-120400318D01*
X317793713Y-120433572D01*
X317793714Y-120433572D01*
X318006286Y-120433572D01*
X318006287Y-120433572D01*
X318216243Y-120400318D01*
X318418412Y-120334629D01*
X318607816Y-120238123D01*
X318772248Y-120118657D01*
X318779784Y-120113182D01*
X318779784Y-120113181D01*
X318779792Y-120113176D01*
X318918604Y-119974363D01*
X318979923Y-119940881D01*
X319049615Y-119945865D01*
X319105549Y-119987736D01*
X319111821Y-119996950D01*
X319115185Y-120002405D01*
X319115186Y-120002406D01*
X319207288Y-120151728D01*
X319331344Y-120275784D01*
X319480666Y-120367886D01*
X319647203Y-120423071D01*
X319749991Y-120433572D01*
X321050008Y-120433571D01*
X321152797Y-120423071D01*
X321319334Y-120367886D01*
X321468656Y-120275784D01*
X321592712Y-120151728D01*
X321684814Y-120002406D01*
X321739999Y-119835869D01*
X321750500Y-119733081D01*
X321750499Y-118693713D01*
X331799500Y-118693713D01*
X331799500Y-119156287D01*
X331832754Y-119366243D01*
X331843498Y-119399311D01*
X331898444Y-119568414D01*
X331994951Y-119757820D01*
X332119890Y-119929786D01*
X332270213Y-120080109D01*
X332442179Y-120205048D01*
X332442181Y-120205049D01*
X332442184Y-120205051D01*
X332631588Y-120301557D01*
X332833757Y-120367246D01*
X333043713Y-120400500D01*
X333043714Y-120400500D01*
X333256286Y-120400500D01*
X333256287Y-120400500D01*
X333466243Y-120367246D01*
X333668412Y-120301557D01*
X333857816Y-120205051D01*
X333931208Y-120151729D01*
X334029786Y-120080109D01*
X334029788Y-120080106D01*
X334029792Y-120080104D01*
X334180104Y-119929792D01*
X334299683Y-119765204D01*
X334355011Y-119722540D01*
X334424624Y-119716561D01*
X334486420Y-119749166D01*
X334500313Y-119765199D01*
X334603925Y-119907809D01*
X334619896Y-119929792D01*
X334770213Y-120080109D01*
X334942179Y-120205048D01*
X334942181Y-120205049D01*
X334942184Y-120205051D01*
X335131588Y-120301557D01*
X335333757Y-120367246D01*
X335543713Y-120400500D01*
X335543714Y-120400500D01*
X335756286Y-120400500D01*
X335756287Y-120400500D01*
X335966243Y-120367246D01*
X336168412Y-120301557D01*
X336357816Y-120205051D01*
X336431208Y-120151729D01*
X336529786Y-120080109D01*
X336529788Y-120080106D01*
X336529792Y-120080104D01*
X336680104Y-119929792D01*
X336799683Y-119765204D01*
X336855011Y-119722540D01*
X336924624Y-119716561D01*
X336986420Y-119749166D01*
X337000313Y-119765199D01*
X337103925Y-119907809D01*
X337119896Y-119929792D01*
X337270213Y-120080109D01*
X337442179Y-120205048D01*
X337442181Y-120205049D01*
X337442184Y-120205051D01*
X337631588Y-120301557D01*
X337833757Y-120367246D01*
X338043713Y-120400500D01*
X338043714Y-120400500D01*
X338256286Y-120400500D01*
X338256287Y-120400500D01*
X338466243Y-120367246D01*
X338668412Y-120301557D01*
X338857816Y-120205051D01*
X338931208Y-120151729D01*
X339029786Y-120080109D01*
X339029788Y-120080106D01*
X339029792Y-120080104D01*
X339180104Y-119929792D01*
X339299683Y-119765204D01*
X339355011Y-119722540D01*
X339424624Y-119716561D01*
X339486420Y-119749166D01*
X339500313Y-119765199D01*
X339603925Y-119907809D01*
X339619896Y-119929792D01*
X339770213Y-120080109D01*
X339942179Y-120205048D01*
X339942181Y-120205049D01*
X339942184Y-120205051D01*
X340131588Y-120301557D01*
X340333757Y-120367246D01*
X340543713Y-120400500D01*
X340543714Y-120400500D01*
X340756286Y-120400500D01*
X340756287Y-120400500D01*
X340966243Y-120367246D01*
X341168412Y-120301557D01*
X341357816Y-120205051D01*
X341431208Y-120151729D01*
X341529786Y-120080109D01*
X341529788Y-120080106D01*
X341529792Y-120080104D01*
X341680104Y-119929792D01*
X341799683Y-119765204D01*
X341855011Y-119722540D01*
X341924624Y-119716561D01*
X341986420Y-119749166D01*
X342000313Y-119765199D01*
X342103925Y-119907809D01*
X342119896Y-119929792D01*
X342270213Y-120080109D01*
X342442179Y-120205048D01*
X342442181Y-120205049D01*
X342442184Y-120205051D01*
X342631588Y-120301557D01*
X342833757Y-120367246D01*
X343043713Y-120400500D01*
X343043714Y-120400500D01*
X343256286Y-120400500D01*
X343256287Y-120400500D01*
X343466243Y-120367246D01*
X343668412Y-120301557D01*
X343857816Y-120205051D01*
X343931208Y-120151729D01*
X344029786Y-120080109D01*
X344029788Y-120080106D01*
X344029792Y-120080104D01*
X344180104Y-119929792D01*
X344299683Y-119765204D01*
X344355011Y-119722540D01*
X344424624Y-119716561D01*
X344486420Y-119749166D01*
X344500313Y-119765199D01*
X344603925Y-119907809D01*
X344619896Y-119929792D01*
X344770213Y-120080109D01*
X344942179Y-120205048D01*
X344942181Y-120205049D01*
X344942184Y-120205051D01*
X345131588Y-120301557D01*
X345333757Y-120367246D01*
X345543713Y-120400500D01*
X345543714Y-120400500D01*
X345756286Y-120400500D01*
X345756287Y-120400500D01*
X345966243Y-120367246D01*
X346168412Y-120301557D01*
X346357816Y-120205051D01*
X346529792Y-120080104D01*
X346668604Y-119941291D01*
X346729923Y-119907809D01*
X346799615Y-119912793D01*
X346855549Y-119954664D01*
X346861821Y-119963878D01*
X346865185Y-119969333D01*
X346865186Y-119969334D01*
X346957288Y-120118656D01*
X347081344Y-120242712D01*
X347230666Y-120334814D01*
X347397203Y-120389999D01*
X347499991Y-120400500D01*
X348800008Y-120400499D01*
X348902797Y-120389999D01*
X349069334Y-120334814D01*
X349218656Y-120242712D01*
X349342712Y-120118656D01*
X349434814Y-119969334D01*
X349489999Y-119802797D01*
X349500500Y-119700009D01*
X349500499Y-118149992D01*
X349489999Y-118047203D01*
X349434814Y-117880666D01*
X349342712Y-117731344D01*
X349218656Y-117607288D01*
X349069334Y-117515186D01*
X348902797Y-117460001D01*
X348902795Y-117460000D01*
X348800010Y-117449500D01*
X347499998Y-117449500D01*
X347499981Y-117449501D01*
X347397203Y-117460000D01*
X347397200Y-117460001D01*
X347230668Y-117515185D01*
X347230663Y-117515187D01*
X347081342Y-117607289D01*
X346957289Y-117731342D01*
X346861821Y-117886121D01*
X346809873Y-117932845D01*
X346740910Y-117944068D01*
X346676828Y-117916224D01*
X346668601Y-117908705D01*
X346529786Y-117769890D01*
X346357820Y-117644951D01*
X346168414Y-117548444D01*
X346168413Y-117548443D01*
X346168412Y-117548443D01*
X345966243Y-117482754D01*
X345966241Y-117482753D01*
X345966240Y-117482753D01*
X345804957Y-117457208D01*
X345756287Y-117449500D01*
X345543713Y-117449500D01*
X345495042Y-117457208D01*
X345333760Y-117482753D01*
X345233945Y-117515185D01*
X345132161Y-117548257D01*
X345131585Y-117548444D01*
X344942179Y-117644951D01*
X344770213Y-117769890D01*
X344619894Y-117920209D01*
X344619890Y-117920214D01*
X344500318Y-118084793D01*
X344444989Y-118127459D01*
X344375375Y-118133438D01*
X344313580Y-118100833D01*
X344299682Y-118084793D01*
X344180109Y-117920214D01*
X344180105Y-117920209D01*
X344029786Y-117769890D01*
X343857820Y-117644951D01*
X343668414Y-117548444D01*
X343668413Y-117548443D01*
X343668412Y-117548443D01*
X343466243Y-117482754D01*
X343466241Y-117482753D01*
X343466240Y-117482753D01*
X343304957Y-117457208D01*
X343256287Y-117449500D01*
X343043713Y-117449500D01*
X342995042Y-117457208D01*
X342833760Y-117482753D01*
X342733945Y-117515185D01*
X342632161Y-117548257D01*
X342631585Y-117548444D01*
X342442179Y-117644951D01*
X342270213Y-117769890D01*
X342119894Y-117920209D01*
X342119890Y-117920214D01*
X342000318Y-118084793D01*
X341944989Y-118127459D01*
X341875375Y-118133438D01*
X341813580Y-118100833D01*
X341799682Y-118084793D01*
X341680109Y-117920214D01*
X341680105Y-117920209D01*
X341529786Y-117769890D01*
X341357820Y-117644951D01*
X341168414Y-117548444D01*
X341168413Y-117548443D01*
X341168412Y-117548443D01*
X340966243Y-117482754D01*
X340966241Y-117482753D01*
X340966240Y-117482753D01*
X340804957Y-117457208D01*
X340756287Y-117449500D01*
X340543713Y-117449500D01*
X340495042Y-117457208D01*
X340333760Y-117482753D01*
X340233945Y-117515185D01*
X340132161Y-117548257D01*
X340131585Y-117548444D01*
X339942179Y-117644951D01*
X339770213Y-117769890D01*
X339619894Y-117920209D01*
X339619890Y-117920214D01*
X339500318Y-118084793D01*
X339444989Y-118127459D01*
X339375375Y-118133438D01*
X339313580Y-118100833D01*
X339299682Y-118084793D01*
X339180109Y-117920214D01*
X339180105Y-117920209D01*
X339029786Y-117769890D01*
X338857820Y-117644951D01*
X338668414Y-117548444D01*
X338668413Y-117548443D01*
X338668412Y-117548443D01*
X338466243Y-117482754D01*
X338466241Y-117482753D01*
X338466240Y-117482753D01*
X338304957Y-117457208D01*
X338256287Y-117449500D01*
X338043713Y-117449500D01*
X337995042Y-117457208D01*
X337833760Y-117482753D01*
X337733945Y-117515185D01*
X337632161Y-117548257D01*
X337631585Y-117548444D01*
X337442179Y-117644951D01*
X337270213Y-117769890D01*
X337119894Y-117920209D01*
X337119890Y-117920214D01*
X337000318Y-118084793D01*
X336944989Y-118127459D01*
X336875375Y-118133438D01*
X336813580Y-118100833D01*
X336799682Y-118084793D01*
X336680109Y-117920214D01*
X336680105Y-117920209D01*
X336529786Y-117769890D01*
X336357820Y-117644951D01*
X336168414Y-117548444D01*
X336168413Y-117548443D01*
X336168412Y-117548443D01*
X335966243Y-117482754D01*
X335966241Y-117482753D01*
X335966240Y-117482753D01*
X335804957Y-117457208D01*
X335756287Y-117449500D01*
X335543713Y-117449500D01*
X335495042Y-117457208D01*
X335333760Y-117482753D01*
X335233945Y-117515185D01*
X335132161Y-117548257D01*
X335131585Y-117548444D01*
X334942179Y-117644951D01*
X334770213Y-117769890D01*
X334619894Y-117920209D01*
X334619890Y-117920214D01*
X334500318Y-118084793D01*
X334444989Y-118127459D01*
X334375375Y-118133438D01*
X334313580Y-118100833D01*
X334299682Y-118084793D01*
X334180109Y-117920214D01*
X334180105Y-117920209D01*
X334029786Y-117769890D01*
X333857820Y-117644951D01*
X333668414Y-117548444D01*
X333668413Y-117548443D01*
X333668412Y-117548443D01*
X333466243Y-117482754D01*
X333466241Y-117482753D01*
X333466240Y-117482753D01*
X333304957Y-117457208D01*
X333256287Y-117449500D01*
X333043713Y-117449500D01*
X332995042Y-117457208D01*
X332833760Y-117482753D01*
X332733945Y-117515185D01*
X332632161Y-117548257D01*
X332631585Y-117548444D01*
X332442179Y-117644951D01*
X332270213Y-117769890D01*
X332119890Y-117920213D01*
X331994951Y-118092179D01*
X331898444Y-118281585D01*
X331832753Y-118483760D01*
X331827515Y-118516832D01*
X331799500Y-118693713D01*
X321750499Y-118693713D01*
X321750499Y-118183064D01*
X321739999Y-118080275D01*
X321684814Y-117913738D01*
X321592712Y-117764416D01*
X321468656Y-117640360D01*
X321319334Y-117548258D01*
X321152797Y-117493073D01*
X321152795Y-117493072D01*
X321050010Y-117482572D01*
X319749998Y-117482572D01*
X319749981Y-117482573D01*
X319647203Y-117493072D01*
X319647200Y-117493073D01*
X319480668Y-117548257D01*
X319480663Y-117548259D01*
X319331342Y-117640361D01*
X319207289Y-117764414D01*
X319111821Y-117919193D01*
X319059873Y-117965917D01*
X318990910Y-117977140D01*
X318926828Y-117949296D01*
X318918601Y-117941777D01*
X318779786Y-117802962D01*
X318607820Y-117678023D01*
X318418414Y-117581516D01*
X318418413Y-117581515D01*
X318418412Y-117581515D01*
X318216243Y-117515826D01*
X318216241Y-117515825D01*
X318216240Y-117515825D01*
X318054957Y-117490280D01*
X318006287Y-117482572D01*
X317793713Y-117482572D01*
X317745042Y-117490280D01*
X317583760Y-117515825D01*
X317381585Y-117581516D01*
X317192179Y-117678023D01*
X317020213Y-117802962D01*
X316869894Y-117953281D01*
X316869890Y-117953286D01*
X316750318Y-118117865D01*
X316694989Y-118160531D01*
X316625375Y-118166510D01*
X316563580Y-118133905D01*
X316549682Y-118117865D01*
X316430109Y-117953286D01*
X316430105Y-117953281D01*
X316279786Y-117802962D01*
X316107820Y-117678023D01*
X315918414Y-117581516D01*
X315918413Y-117581515D01*
X315918412Y-117581515D01*
X315716243Y-117515826D01*
X315716241Y-117515825D01*
X315716240Y-117515825D01*
X315554957Y-117490280D01*
X315506287Y-117482572D01*
X315293713Y-117482572D01*
X315245042Y-117490280D01*
X315083760Y-117515825D01*
X314881585Y-117581516D01*
X314692179Y-117678023D01*
X314520213Y-117802962D01*
X314369894Y-117953281D01*
X314369890Y-117953286D01*
X314250318Y-118117865D01*
X314194989Y-118160531D01*
X314125375Y-118166510D01*
X314063580Y-118133905D01*
X314049682Y-118117865D01*
X313930109Y-117953286D01*
X313930105Y-117953281D01*
X313779786Y-117802962D01*
X313607820Y-117678023D01*
X313418414Y-117581516D01*
X313418413Y-117581515D01*
X313418412Y-117581515D01*
X313216243Y-117515826D01*
X313216241Y-117515825D01*
X313216240Y-117515825D01*
X313054957Y-117490280D01*
X313006287Y-117482572D01*
X312793713Y-117482572D01*
X312745042Y-117490280D01*
X312583760Y-117515825D01*
X312381585Y-117581516D01*
X312192179Y-117678023D01*
X312020213Y-117802962D01*
X311869894Y-117953281D01*
X311869890Y-117953286D01*
X311750318Y-118117865D01*
X311694989Y-118160531D01*
X311625375Y-118166510D01*
X311563580Y-118133905D01*
X311549682Y-118117865D01*
X311430109Y-117953286D01*
X311430105Y-117953281D01*
X311279786Y-117802962D01*
X311107820Y-117678023D01*
X310918414Y-117581516D01*
X310918413Y-117581515D01*
X310918412Y-117581515D01*
X310716243Y-117515826D01*
X310716241Y-117515825D01*
X310716240Y-117515825D01*
X310554957Y-117490280D01*
X310506287Y-117482572D01*
X310293713Y-117482572D01*
X310245042Y-117490280D01*
X310083760Y-117515825D01*
X309881585Y-117581516D01*
X309692179Y-117678023D01*
X309520213Y-117802962D01*
X309369894Y-117953281D01*
X309369890Y-117953286D01*
X309250318Y-118117865D01*
X309194989Y-118160531D01*
X309125375Y-118166510D01*
X309063580Y-118133905D01*
X309049682Y-118117865D01*
X308930109Y-117953286D01*
X308930105Y-117953281D01*
X308779786Y-117802962D01*
X308607820Y-117678023D01*
X308418414Y-117581516D01*
X308418413Y-117581515D01*
X308418412Y-117581515D01*
X308216243Y-117515826D01*
X308216241Y-117515825D01*
X308216240Y-117515825D01*
X308054957Y-117490280D01*
X308006287Y-117482572D01*
X307793713Y-117482572D01*
X307745042Y-117490280D01*
X307583760Y-117515825D01*
X307381585Y-117581516D01*
X307192179Y-117678023D01*
X307020213Y-117802962D01*
X306869894Y-117953281D01*
X306869890Y-117953286D01*
X306750318Y-118117865D01*
X306694989Y-118160531D01*
X306625375Y-118166510D01*
X306563580Y-118133905D01*
X306549682Y-118117865D01*
X306430109Y-117953286D01*
X306430105Y-117953281D01*
X306279786Y-117802962D01*
X306107820Y-117678023D01*
X305918414Y-117581516D01*
X305918413Y-117581515D01*
X305918412Y-117581515D01*
X305716243Y-117515826D01*
X305716241Y-117515825D01*
X305716240Y-117515825D01*
X305554957Y-117490280D01*
X305506287Y-117482572D01*
X305293713Y-117482572D01*
X305245042Y-117490280D01*
X305083760Y-117515825D01*
X304881585Y-117581516D01*
X304692179Y-117678023D01*
X304520213Y-117802962D01*
X304369890Y-117953285D01*
X304244951Y-118125251D01*
X304148444Y-118314657D01*
X304082753Y-118516832D01*
X304054738Y-118693713D01*
X304049500Y-118726785D01*
X298900000Y-118726785D01*
X298900000Y-115173797D01*
X298919685Y-115106758D01*
X298972489Y-115061003D01*
X299023795Y-115049797D01*
X323034500Y-115010500D01*
X351926000Y-115010500D01*
X351993039Y-115030185D01*
G37*
%TD.AperFunction*%
%TD*%
D20*
X267250000Y-118141928D03*
X278000000Y-164000000D03*
D21*
X276950000Y-141241928D03*
D20*
X267000000Y-164000000D03*
X359450000Y-127400000D03*
X306000000Y-121958072D03*
X294050000Y-160500000D03*
X244000000Y-148000000D03*
X302000000Y-148000000D03*
X359400000Y-131875000D03*
X330000000Y-154000000D03*
X328000000Y-115958072D03*
X243600000Y-115800000D03*
X257900000Y-148950000D03*
X294050000Y-155041928D03*
X248000000Y-146000000D03*
D21*
X258150000Y-141241928D03*
D20*
X356000000Y-149958072D03*
X265800000Y-155591928D03*
X256000000Y-160000000D03*
D21*
X262850000Y-141241928D03*
D20*
X354000000Y-147958072D03*
X314000000Y-160000000D03*
X324000000Y-117958072D03*
X328000000Y-117958072D03*
X356000000Y-147958072D03*
X324000000Y-168000000D03*
D21*
X311575000Y-141100000D03*
D20*
X235750000Y-136050000D03*
X296050000Y-128041928D03*
X290050000Y-148041928D03*
X269025000Y-151225000D03*
X282050000Y-151241928D03*
X334000000Y-115958072D03*
X295050000Y-140041928D03*
D21*
X344275000Y-141100000D03*
X244050000Y-141241928D03*
D20*
X293000000Y-165000000D03*
X314000000Y-167000000D03*
X328000000Y-119958072D03*
X336000000Y-169500000D03*
X329975000Y-120150000D03*
X278000000Y-168000000D03*
X341975000Y-149000000D03*
X338000000Y-115958072D03*
X318000000Y-168000000D03*
X296050000Y-124041928D03*
X316000000Y-162000000D03*
X235750000Y-140050000D03*
X265800000Y-158300000D03*
X354000000Y-149958072D03*
X350000000Y-147958072D03*
X320000000Y-162000000D03*
X238000000Y-132100000D03*
X344700000Y-148658072D03*
D21*
X253550000Y-141241928D03*
D20*
X259500000Y-148950000D03*
X240000000Y-146000000D03*
X357475000Y-142500000D03*
X269250000Y-120291928D03*
X358000000Y-149958072D03*
X358000000Y-147958072D03*
X322000000Y-154000000D03*
D21*
X330275000Y-141100000D03*
D20*
X263000000Y-164000000D03*
X318000000Y-162000000D03*
X315500000Y-165500000D03*
X274000000Y-168000000D03*
X238000000Y-140041928D03*
X276750000Y-161641928D03*
X296050000Y-136041928D03*
X238000000Y-148000000D03*
X238000000Y-144041928D03*
X303000000Y-167000000D03*
X310000000Y-164000000D03*
X260000000Y-160000000D03*
X290050000Y-146041928D03*
X308000000Y-167000000D03*
X296050000Y-160500000D03*
X280050000Y-168041928D03*
X304000000Y-119958072D03*
X281250000Y-116141928D03*
X276000000Y-164000000D03*
X239250000Y-141141928D03*
X336000000Y-164000000D03*
X352000000Y-149958072D03*
X258000000Y-162000000D03*
X296050000Y-120000000D03*
X242000000Y-146000000D03*
X306775000Y-148000000D03*
X350000000Y-115958072D03*
X274000000Y-164000000D03*
X294050000Y-148041928D03*
X310775000Y-148000000D03*
X273250000Y-116141928D03*
X314775000Y-148000000D03*
X330000000Y-115958072D03*
X235750000Y-132050000D03*
X244000000Y-146000000D03*
X242000000Y-130000000D03*
X301000000Y-160500000D03*
X330700000Y-157658072D03*
X261000000Y-150225000D03*
X239250000Y-144141928D03*
X310000000Y-167000000D03*
X332200000Y-159658072D03*
X326000000Y-154000000D03*
X299200000Y-160500000D03*
X277250000Y-116141928D03*
X242000000Y-128000000D03*
D21*
X290850000Y-141241928D03*
D20*
X334000000Y-151000000D03*
X331000000Y-169500000D03*
X303000000Y-165000000D03*
X336000000Y-162500000D03*
X312000000Y-160000000D03*
X258000000Y-166000000D03*
X238000000Y-130000000D03*
X357475000Y-139500000D03*
X359400000Y-136075000D03*
X235700000Y-148300000D03*
X303000000Y-160500000D03*
X295050000Y-142041928D03*
X346000000Y-115958072D03*
X308000000Y-169500000D03*
D21*
X306975000Y-141100000D03*
D20*
X310000000Y-161500000D03*
X320000000Y-164000000D03*
X312000000Y-161500000D03*
X276000000Y-168000000D03*
X303000000Y-163000000D03*
X301975000Y-144000000D03*
X294050000Y-146041928D03*
X302000000Y-121958072D03*
D21*
X272150000Y-141241928D03*
D20*
X306000000Y-123958072D03*
X303000000Y-169000000D03*
X240000000Y-148000000D03*
X326000000Y-169500000D03*
X294050000Y-153041928D03*
D21*
X339575000Y-141100000D03*
X281550000Y-141241928D03*
X286150000Y-141241928D03*
D20*
X310000000Y-169500000D03*
X330800000Y-165500000D03*
D21*
X325675000Y-141100000D03*
D20*
X336000000Y-166000000D03*
X302000000Y-123958072D03*
X289250000Y-116141928D03*
X293000000Y-163000000D03*
X340000000Y-151000000D03*
X292050000Y-148041928D03*
X308000000Y-164000000D03*
X280050000Y-151241928D03*
D21*
X334975000Y-141100000D03*
D20*
X301975000Y-128000000D03*
X293000000Y-169000000D03*
X318000000Y-164000000D03*
X272050000Y-151241928D03*
X293250000Y-116141928D03*
X300000000Y-115958072D03*
X292050000Y-150041928D03*
X303975000Y-128000000D03*
D21*
X316275000Y-141100000D03*
D20*
X296050000Y-132041928D03*
X314000000Y-161500000D03*
D21*
X353575000Y-141100000D03*
D20*
X258000000Y-158000000D03*
X262000000Y-158000000D03*
X331975000Y-152000000D03*
X293000000Y-167000000D03*
X322000000Y-168000000D03*
X338000000Y-151000000D03*
X294050000Y-150041928D03*
X258000000Y-164000000D03*
X282050000Y-168041928D03*
X320000000Y-168000000D03*
X285250000Y-116141928D03*
X235750000Y-144050000D03*
X296050000Y-116000000D03*
X265000000Y-164000000D03*
X342000000Y-115958072D03*
X314000000Y-164000000D03*
X240000000Y-130000000D03*
X350000000Y-149958072D03*
X326000000Y-156000000D03*
X330000000Y-117958072D03*
X359400000Y-123950000D03*
X238000000Y-128000000D03*
X271250000Y-118141928D03*
X256250000Y-148950000D03*
X336000000Y-168000000D03*
X319299250Y-158524122D03*
D21*
X248750000Y-141241928D03*
D20*
X303975000Y-130000000D03*
D21*
X320975000Y-141100000D03*
D20*
X276050000Y-151241928D03*
X240000000Y-128000000D03*
X238000000Y-146000000D03*
X235700000Y-128000000D03*
D21*
X267550000Y-141241928D03*
D20*
X238000000Y-136041928D03*
D21*
X348875000Y-141100000D03*
D20*
X258000000Y-160000000D03*
X258000000Y-168000000D03*
X296050000Y-158041928D03*
X301975000Y-141000000D03*
X301975000Y-130000000D03*
X265000000Y-167000000D03*
X256000000Y-158000000D03*
X246000000Y-146000000D03*
X336000000Y-151000000D03*
X242000000Y-148000000D03*
D21*
X262400000Y-149529428D03*
X262400000Y-156929428D03*
X315900000Y-150800000D03*
X315900000Y-159800000D03*
D20*
X355750000Y-153950572D03*
X355750000Y-157910572D03*
X304295000Y-154400000D03*
X306195000Y-154400000D03*
X247200000Y-119041928D03*
X249700000Y-119041928D03*
X252200000Y-119041928D03*
X254700000Y-119041928D03*
X257200000Y-119041928D03*
X259700000Y-119041928D03*
X262200000Y-119041928D03*
X275250000Y-119041928D03*
X277750000Y-119041928D03*
X280250000Y-119041928D03*
X282750000Y-119041928D03*
X285250000Y-119041928D03*
X287750000Y-119041928D03*
X290250000Y-119041928D03*
X356000000Y-118908072D03*
X304295000Y-152200000D03*
X306195000Y-152200000D03*
X304300000Y-158800000D03*
X306200000Y-158800000D03*
X305400000Y-118958072D03*
X307900000Y-118958072D03*
X310400000Y-118958072D03*
X312900000Y-118958072D03*
X315400000Y-118958072D03*
X317900000Y-118958072D03*
X320400000Y-118958072D03*
X355900000Y-165908072D03*
X239000000Y-166000000D03*
X239300000Y-158057500D03*
X239300000Y-154097500D03*
X304300000Y-156500000D03*
X306200000Y-156500000D03*
X239150000Y-119050000D03*
X249545000Y-150100000D03*
X251445000Y-150100000D03*
X333150000Y-118925000D03*
X335650000Y-118925000D03*
X338150000Y-118925000D03*
X340650000Y-118925000D03*
X343150000Y-118925000D03*
X345650000Y-118925000D03*
X348150000Y-118925000D03*
X249545000Y-156900000D03*
X251445000Y-156900000D03*
X249550000Y-154300000D03*
X251450000Y-154300000D03*
X249545000Y-152200000D03*
X251445000Y-152200000D03*
M02*
