M48
; DRILL file {KiCad 8.0.3} date 2024-06-10T18:07:08+0900
; FORMAT={-:-/ absolute / inch / decimal}
; #@! TF.CreationDate,2024-06-10T18:07:08+09:00
; #@! TF.GenerationSoftware,Kicad,Pcbnew,8.0.3
; #@! TF.FileFunction,Plated,1,2,PTH
FMAT,2
INCH
; #@! TA.AperFunction,Plated,PTH,ViaDrill
T1C0.0118
; #@! TA.AperFunction,Plated,PTH,ComponentDrill
T2C0.0197
; #@! TA.AperFunction,Plated,PTH,ComponentDrill
T3C0.0315
; #@! TA.AperFunction,Plated,PTH,ComponentDrill
T4C0.0394
; #@! TA.AperFunction,Plated,PTH,ComponentDrill
T5C0.0669
; #@! TA.AperFunction,Plated,PTH,ComponentDrill
T6C0.1260
; #@! TA.AperFunction,Plated,PTH,ComponentDrill
T7C0.2441
%
G90
G05
T1
X2.126Y-2.9134
X2.126Y-3.0709
X2.126Y-3.2283
X2.126Y-3.3858
X2.126Y-3.5433
X2.126Y-3.7008
X2.126Y-3.8583
X2.126Y-4.0157
X2.126Y-4.1732
X2.126Y-4.3307
X2.126Y-4.4882
X2.126Y-4.6457
X2.126Y-4.8031
X2.126Y-5.4331
X2.2835Y-3.0709
X2.2835Y-3.2283
X2.2835Y-3.3858
X2.2835Y-3.5433
X2.2835Y-3.7008
X2.2835Y-4.1732
X2.2835Y-4.3307
X2.2835Y-4.4882
X2.2835Y-4.6457
X2.2835Y-4.8031
X2.2835Y-4.9606
X2.2835Y-5.1181
X2.2835Y-5.2756
X2.2835Y-5.4331
X2.4409Y-4.6457
X2.4409Y-4.8031
X2.4409Y-4.9606
X2.4409Y-5.1181
X2.4409Y-5.2756
X2.4409Y-5.4331
X2.4409Y-5.5906
X2.4409Y-5.748
X2.5354Y-3.9843
X2.5354Y-4.1299
X2.5354Y-4.6575
X2.5622Y-4.1866
X2.5984Y-2.7559
X2.5984Y-2.9134
X2.5984Y-3.0709
X2.5984Y-3.2283
X2.5984Y-3.3858
X2.5984Y-3.5433
X2.5984Y-3.7008
X2.5984Y-3.8583
X2.5984Y-4.3307
X2.5984Y-4.4882
X2.5984Y-4.9606
X2.5984Y-5.1181
X2.5984Y-5.5906
X2.5984Y-5.748
X2.6378Y-5.315
X2.6378Y-5.3543
X2.6378Y-5.3937
X2.6772Y-5.315
X2.6772Y-5.3543
X2.7283Y-4.6575
X2.7559Y-2.7559
X2.7559Y-2.9134
X2.7559Y-3.0709
X2.7559Y-3.2283
X2.7559Y-3.3858
X2.7559Y-3.5433
X2.7559Y-3.7008
X2.7559Y-3.8583
X2.7559Y-4.3307
X2.7559Y-4.4882
X2.7559Y-4.8031
X2.7559Y-4.9606
X2.7559Y-5.1181
X2.7559Y-5.2756
X2.7559Y-5.4331
X2.7559Y-5.5906
X2.7559Y-5.748
X2.9134Y-2.7559
X2.9134Y-2.9134
X2.9134Y-3.0709
X2.9134Y-3.2283
X2.9134Y-3.3858
X2.9134Y-3.5433
X2.9134Y-3.7008
X2.9134Y-3.8583
X2.9134Y-4.3307
X2.9134Y-4.4882
X2.9134Y-4.6457
X2.9134Y-4.9606
X2.9134Y-5.1181
X2.9134Y-5.2756
X3.0709Y-2.7559
X3.0709Y-2.9134
X3.0709Y-3.0709
X3.0709Y-3.2283
X3.0709Y-3.3858
X3.0709Y-3.5433
X3.0709Y-3.7008
X3.0709Y-3.8583
X3.0709Y-4.3307
X3.0709Y-4.4882
X3.0709Y-4.6457
X3.0709Y-4.8031
X3.0709Y-4.9606
X3.0709Y-5.1181
X3.0709Y-5.5906
X3.0709Y-5.748
X3.2283Y-2.7559
X3.2283Y-2.9134
X3.2283Y-3.0709
X3.2283Y-3.2283
X3.2283Y-3.3858
X3.2283Y-3.5433
X3.2283Y-3.7008
X3.2283Y-3.8583
X3.2283Y-4.3307
X3.2283Y-4.4882
X3.2283Y-4.6457
X3.2283Y-4.8031
X3.2283Y-4.9606
X3.2283Y-5.4331
X3.2283Y-5.5906
X3.2283Y-5.748
X3.3858Y-4.6457
X3.3858Y-4.8031
X3.3858Y-4.9606
X3.3858Y-5.1575
X3.3858Y-5.2756
X3.3858Y-5.4331
X3.3858Y-5.5906
X3.3858Y-5.748
X3.5079Y-3.7717
X3.5433Y-3.0709
X3.5433Y-3.1496
X3.5433Y-4.3307
X3.5433Y-4.4882
X3.5433Y-4.6457
X3.5433Y-4.8031
X3.5433Y-4.9606
X3.5433Y-5.1575
X3.5433Y-5.2756
X3.5827Y-3.7717
X3.622Y-2.4409
X3.622Y-2.5197
X3.622Y-2.5984
X3.622Y-2.6772
X3.622Y-2.7559
X3.622Y-3.0709
X3.622Y-3.1496
X3.622Y-3.2283
X3.622Y-3.3071
X3.622Y-3.3858
X3.6378Y-3.937
X3.6417Y-4.3504
X3.6417Y-4.4094
X3.6417Y-4.4882
X3.6417Y-4.6457
X3.7008Y-2.6772
X3.7008Y-2.7559
X3.7008Y-2.8346
X3.7008Y-3.0709
X3.7008Y-3.1496
X3.7008Y-3.3858
X3.7008Y-4.0157
X3.7008Y-4.9606
X3.7008Y-5.1575
X3.7008Y-5.2756
X3.7402Y-4.0157
X3.7402Y-4.1732
X3.7598Y-4.3504
X3.7598Y-4.4094
X3.7598Y-4.4882
X3.7598Y-4.6457
X3.7795Y-2.8346
X3.7795Y-3.622
X3.7795Y-3.6614
X3.7795Y-3.7008
X3.7795Y-3.7402
X3.7795Y-4.0157
X3.7795Y-4.1732
X3.811Y-3.8465
X3.8189Y-4.0157
X3.8189Y-4.1732
X3.8583Y-2.8346
X3.8583Y-3.2283
X3.8583Y-3.3858
X3.8583Y-4.0157
X3.8583Y-4.252
X3.8583Y-4.3307
X3.8583Y-4.4094
X3.8583Y-4.4882
X3.8583Y-4.6457
X3.8583Y-4.8031
X3.8583Y-4.9606
X3.8583Y-5.1575
X3.8583Y-5.2756
X3.8583Y-5.4331
X3.8583Y-5.5906
X3.8583Y-5.748
X3.8976Y-2.4803
X3.8976Y-2.6772
X3.8976Y-2.7559
X3.8976Y-4.0157
X3.937Y-2.8346
X3.937Y-4.252
X3.937Y-4.3307
X3.937Y-4.4094
X3.937Y-4.4882
X3.9476Y-5.6563
X3.9764Y-3.9764
X4.0157Y-2.5197
X4.0157Y-2.5984
X4.0157Y-2.6772
X4.0157Y-2.8346
X4.0157Y-3.0709
X4.0157Y-3.2283
X4.0157Y-3.3858
X4.0157Y-3.7008
X4.0157Y-3.8976
X4.0157Y-4.0157
X4.0157Y-4.9606
X4.0157Y-5.1575
X4.022Y-5.6563
X4.0945Y-2.5197
X4.0945Y-2.5984
X4.0945Y-2.6772
X4.0945Y-2.8346
X4.0945Y-3.8976
X4.0945Y-3.9764
X4.0945Y-5.5906
X4.0945Y-5.6693
X4.1024Y-3.8465
X4.1024Y-3.937
X4.1732Y-2.4409
X4.1732Y-2.5197
X4.1732Y-2.5984
X4.1732Y-2.6772
X4.1732Y-2.7559
X4.1732Y-2.8346
X4.1732Y-3.0709
X4.1732Y-3.2283
X4.1732Y-3.3858
X4.1732Y-3.7008
X4.1732Y-3.8583
X4.1732Y-4.0551
X4.1732Y-4.1732
X4.1732Y-4.3307
X4.1732Y-4.4882
X4.1732Y-4.6457
X4.1732Y-4.8031
X4.1732Y-4.9606
X4.1732Y-5.1575
X4.1732Y-5.3543
X4.1732Y-5.4331
X4.1732Y-5.5118
X4.1732Y-5.5906
X4.1732Y-5.6693
X4.3307Y-3.0709
X4.3307Y-3.2283
X4.3307Y-3.3858
X4.3307Y-3.7008
X4.3307Y-3.8583
X4.3307Y-4.0551
X4.3307Y-4.1732
X4.3307Y-4.3307
X4.3307Y-4.6457
X4.3307Y-4.8031
X4.3307Y-4.9606
X4.3307Y-5.1575
X4.4094Y-4.0551
X4.4882Y-3.0709
X4.4882Y-3.2283
X4.4882Y-3.3858
X4.4882Y-3.7008
X4.4882Y-3.8583
X4.4882Y-4.0551
X4.4882Y-4.9606
X4.4882Y-5.1575
X4.6457Y-3.0709
X4.6457Y-3.2283
X4.6457Y-3.3858
X4.6457Y-3.5433
X4.6457Y-3.7008
X4.6457Y-3.8583
X4.6457Y-4.0157
X4.6457Y-4.1732
X4.6457Y-4.3307
X4.6457Y-4.4882
X4.6457Y-4.6457
X4.6457Y-4.8031
X4.6457Y-4.9606
X4.6457Y-5.1575
X4.6457Y-5.2756
X4.6457Y-5.4331
X4.8031Y-2.4409
X4.8031Y-2.5984
X4.8031Y-2.7559
X4.8031Y-2.9134
X4.8031Y-3.0709
X4.8031Y-3.2283
X4.8031Y-3.3858
X4.8031Y-3.5433
X4.8031Y-3.8583
X4.8031Y-4.0157
X4.8031Y-4.1732
X4.8031Y-4.3307
X4.8031Y-4.4882
X4.8031Y-4.6457
X4.8031Y-4.8031
X4.8031Y-4.9606
X4.8031Y-5.2756
X4.8031Y-5.4331
X4.9606Y-2.4409
X4.9606Y-2.5984
X4.9606Y-2.7559
X4.9606Y-2.9134
X4.9606Y-3.0709
X4.9606Y-3.2283
X4.9606Y-3.3858
X4.9606Y-3.7008
X4.9606Y-3.8583
X4.9606Y-4.0157
X4.9606Y-4.1732
X4.9606Y-4.3307
X4.9606Y-4.4882
X4.9606Y-4.6457
X4.9606Y-4.8031
X4.9606Y-4.9606
X4.9606Y-5.1181
X4.9606Y-5.2756
X4.9606Y-5.4331
X5.1181Y-3.0709
X5.1181Y-3.2283
X5.1181Y-3.7008
X5.1181Y-3.8583
X5.1181Y-4.6457
X5.1181Y-4.8031
X5.1181Y-4.9606
X5.1181Y-5.1181
X5.1181Y-5.2756
X5.1181Y-5.4331
X5.2756Y-3.2283
X5.2756Y-3.3858
X5.2756Y-4.6457
X5.2756Y-4.8031
X5.2756Y-4.9606
X5.2756Y-5.1181
X5.2756Y-5.2756
X5.2756Y-5.4331
X5.4331Y-4.6457
X5.4331Y-4.8031
X5.4331Y-4.9606
X5.4331Y-5.1181
X5.4331Y-5.2756
X5.4331Y-5.4331
X5.5906Y-4.6457
X5.5906Y-4.8031
X5.5906Y-4.9606
X5.5906Y-5.1181
X5.5906Y-5.2756
X5.5906Y-5.4331
X5.748Y-3.2283
X5.748Y-3.3858
X5.748Y-3.7008
X5.748Y-3.8583
X5.748Y-4.6457
X5.748Y-4.8031
X5.748Y-4.9606
X5.748Y-5.4331
T2
X5.4833Y-3.0748
X5.4833Y-3.2913
X5.4833Y-3.7165
X5.4833Y-3.9331
T3
X2.3976Y-2.6866
X2.3976Y-2.7866
X2.3976Y-2.8866
X2.3976Y-2.9866
X2.3976Y-3.0866
X2.3976Y-3.1866
X2.3976Y-3.2866
X2.3976Y-3.3866
X2.3976Y-3.4866
X2.3976Y-3.5866
X2.3976Y-3.6866
X2.3976Y-3.7866
X2.3976Y-3.8866
X2.3976Y-3.9866
X2.3976Y-4.0866
X2.3976Y-4.1866
X2.3976Y-4.2866
X2.3976Y-4.3866
X2.3976Y-4.4866
X3.3976Y-2.6866
X3.3976Y-2.7866
X3.3976Y-2.8866
X3.3976Y-2.9866
X3.3976Y-3.0866
X3.3976Y-3.1866
X3.3976Y-3.2866
X3.3976Y-3.3866
X3.3976Y-3.4866
X3.3976Y-3.5866
X3.3976Y-3.6866
X3.3976Y-3.7866
X3.3976Y-3.8866
X3.3976Y-3.9866
X3.3976Y-4.0866
X3.3976Y-4.1866
X3.3976Y-4.2866
X3.3976Y-4.3866
X3.3976Y-4.4866
T4
X2.2441Y-3.8291
X2.2441Y-3.9291
X2.2441Y-4.0291
X2.2441Y-4.1291
X3.7512Y-2.4409
X3.8512Y-2.4409
X3.9512Y-2.4409
X4.0512Y-2.4409
T5
X2.1508Y-5.1583
X2.1508Y-5.3142
X3.6172Y-5.7327
X3.7731Y-5.7327
X5.0094Y-5.7343
X5.1654Y-5.7343
X5.7382Y-5.1631
X5.7382Y-5.319
T6
X2.1654Y-5.7126
X2.1693Y-2.5607
X4.4016Y-2.563
X5.7087Y-5.7087
T7
X5.4833Y-2.6811
X5.4833Y-4.3268
M30
