%TF.GenerationSoftware,KiCad,Pcbnew,8.0.3*%
%TF.CreationDate,2024-06-10T17:44:00+09:00*%
%TF.ProjectId,ESP32_Master,45535033-325f-44d6-9173-7465722e6b69,rev?*%
%TF.SameCoordinates,Original*%
%TF.FileFunction,Soldermask,Bot*%
%TF.FilePolarity,Negative*%
%FSLAX46Y46*%
G04 Gerber Fmt 4.6, Leading zero omitted, Abs format (unit mm)*
G04 Created by KiCad (PCBNEW 8.0.3) date 2024-06-10 17:44:00*
%MOMM*%
%LPD*%
G01*
G04 APERTURE LIST*
G04 Aperture macros list*
%AMRoundRect*
0 Rectangle with rounded corners*
0 $1 Rounding radius*
0 $2 $3 $4 $5 $6 $7 $8 $9 X,Y pos of 4 corners*
0 Add a 4 corners polygon primitive as box body*
4,1,4,$2,$3,$4,$5,$6,$7,$8,$9,$2,$3,0*
0 Add four circle primitives for the rounded corners*
1,1,$1+$1,$2,$3*
1,1,$1+$1,$4,$5*
1,1,$1+$1,$6,$7*
1,1,$1+$1,$8,$9*
0 Add four rect primitives between the rounded corners*
20,1,$1+$1,$2,$3,$4,$5,0*
20,1,$1+$1,$4,$5,$6,$7,0*
20,1,$1+$1,$6,$7,$8,$9,0*
20,1,$1+$1,$8,$9,$2,$3,0*%
%AMOutline4P*
0 Free polygon, 4 corners , with rotation*
0 The origin of the aperture is its center*
0 number of corners: always 4*
0 $1 to $8 corner X, Y*
0 $9 Rotation angle, in degrees counterclockwise*
0 create outline with 4 corners*
4,1,4,$1,$2,$3,$4,$5,$6,$7,$8,$1,$2,$9*%
G04 Aperture macros list end*
%ADD10RoundRect,0.250001X1.099999X1.099999X-1.099999X1.099999X-1.099999X-1.099999X1.099999X-1.099999X0*%
%ADD11C,2.700000*%
%ADD12R,20.000000X15.000000*%
%ADD13Outline4P,-10.000000X-2.500000X10.000000X-2.500000X5.000000X2.500000X-5.000000X2.500000X0.000000*%
%ADD14R,10.000000X6.000000*%
%ADD15Outline4P,-10.000000X-2.500000X10.000000X-2.500000X5.000000X2.500000X-5.000000X2.500000X180.000000*%
%ADD16C,5.700000*%
%ADD17R,1.700000X1.700000*%
%ADD18O,1.700000X1.700000*%
%ADD19R,1.600000X1.600000*%
%ADD20O,1.600000X1.600000*%
%ADD21RoundRect,0.250001X1.099999X-1.099999X1.099999X1.099999X-1.099999X1.099999X-1.099999X-1.099999X0*%
%ADD22RoundRect,0.250001X-1.099999X1.099999X-1.099999X-1.099999X1.099999X-1.099999X1.099999X1.099999X0*%
G04 APERTURE END LIST*
D10*
%TO.C,J7*%
X131200000Y-145650000D03*
D11*
X127240000Y-145650000D03*
%TD*%
D12*
%TO.C,R13*%
X139275000Y-109900000D03*
D13*
X139275000Y-99900000D03*
D14*
X139275000Y-94400000D03*
X139275000Y-83600000D03*
D15*
X139275000Y-78100000D03*
D12*
X139275000Y-68100000D03*
%TD*%
D16*
%TO.C,J12*%
X55000000Y-145100000D03*
%TD*%
D17*
%TO.C,J2*%
X102900000Y-62000000D03*
D18*
X100360000Y-62000000D03*
X97820000Y-62000000D03*
X95280000Y-62000000D03*
%TD*%
D16*
%TO.C,J10*%
X145000000Y-145000000D03*
%TD*%
D17*
%TO.C,J6*%
X57000000Y-97260000D03*
D18*
X57000000Y-99800000D03*
X57000000Y-102340000D03*
X57000000Y-104880000D03*
%TD*%
D10*
%TO.C,J3*%
X95837500Y-145610000D03*
D11*
X91877500Y-145610000D03*
%TD*%
D19*
%TO.C,U8*%
X60900000Y-68240000D03*
D20*
X60900000Y-70780000D03*
X60900000Y-73320000D03*
X60900000Y-75860000D03*
X60900000Y-78400000D03*
X60900000Y-80940000D03*
X60900000Y-83480000D03*
X60900000Y-86020000D03*
X60900000Y-88560000D03*
X60900000Y-91100000D03*
X60900000Y-93640000D03*
X60900000Y-96180000D03*
X60900000Y-98720000D03*
X60900000Y-101260000D03*
X60900000Y-103800000D03*
X60900000Y-106340000D03*
X60900000Y-108880000D03*
X60900000Y-111420000D03*
X60900000Y-113960000D03*
X86300000Y-113960000D03*
X86300000Y-111420000D03*
X86300000Y-108880000D03*
X86300000Y-106340000D03*
X86300000Y-103800000D03*
X86300000Y-101260000D03*
X86300000Y-98720000D03*
X86300000Y-96180000D03*
X86300000Y-93640000D03*
X86300000Y-91100000D03*
X86300000Y-88560000D03*
X86300000Y-86020000D03*
X86300000Y-83480000D03*
X86300000Y-80940000D03*
X86300000Y-78400000D03*
X86300000Y-75860000D03*
X86300000Y-73320000D03*
X86300000Y-70780000D03*
X86300000Y-68240000D03*
%TD*%
D21*
%TO.C,J1*%
X54630000Y-134980000D03*
D11*
X54630000Y-131020000D03*
%TD*%
D16*
%TO.C,J11*%
X55100000Y-65042500D03*
%TD*%
D22*
%TO.C,J8*%
X145750000Y-131142500D03*
D11*
X145750000Y-135102500D03*
%TD*%
D16*
%TO.C,J9*%
X111800000Y-65100000D03*
%TD*%
M02*
