M48
METRIC,TZ
T1C0.300
T2C0.400
T3C0.700
T4C0.800
T5C0.950
T6C1.000
T7C1.400
T8C1.700
T9C3.200
%
G90
G05
T1
X27715Y19108
X55200Y28158
X58275Y29946
X58275Y28158
X62600Y19458
X64772Y47758
X64807Y50008
X85500Y28758
X90000Y28758
X94400Y28758
X98900Y28758
X102100Y20958
X102100Y12958
X103400Y28758
X107800Y28758
X112300Y28758
X116900Y28758
X121400Y28758
X125900Y28758
X130400Y28758
X133900Y27658
X145000Y28758
X149400Y28758
X153800Y28758
X158300Y28758
X161550Y21308
X161550Y12958
X162700Y28758
X167050Y28758
X171500Y28758
X175900Y28758
X180400Y28758
X184700Y28758
X189100Y28758
X204000Y28758
X208700Y28758
X213500Y28758
X218100Y28758
X222350Y20471
X222350Y13071
X222800Y28758
X227500Y28758
X232100Y28758
X236900Y28758
X241500Y28758
X246100Y28758
X250800Y28758
X266975Y28858
X271575Y28858
X275900Y19158
X275900Y10158
X276275Y28858
X280975Y28858
X285675Y28858
X290275Y28858
X294975Y28858
X299575Y28858
X304275Y28858
X308875Y28858
X313575Y28858
T2
X2000Y33958
X4000Y45958
X4000Y41958
X4000Y27958
X4000Y23958
X4000Y19958
X4000Y15958
X4000Y11958
X6000Y43958
X6000Y39958
X6000Y31958
X8000Y36958
X8000Y31958
X8500Y42458
X10000Y47958
X10000Y31958
X11000Y22500
X11100Y4300
X12000Y47958
X12000Y41958
X12000Y35958
X12200Y21200
X12200Y9400
X13200Y16900
X13200Y14900
X14000Y25958
X14600Y18900
X16000Y47958
X16000Y45958
X16000Y41958
X16000Y33958
X16000Y29958
X16000Y27958
X16000Y25958
X16000Y23958
X16000Y17600
X16000Y15958
X16000Y12958
X16000Y7958
X16000Y2958
X18000Y37958
X20000Y47958
X20000Y27958
X20000Y25958
X20000Y19958
X20000Y15958
X20000Y11958
X20000Y7958
X20000Y3958
X22000Y37958
X22000Y35958
X22000Y33958
X22000Y31958
X22000Y29958
X22000Y27958
X22000Y25958
X24000Y37958
X24000Y35958
X25000Y48958
X25000Y44958
X26000Y37958
X26000Y35958
X28000Y7958
X28000Y3958
X32000Y47958
X32000Y43958
X32000Y39958
X32000Y35958
X32000Y31958
X32000Y23958
X32000Y19958
X32000Y15958
X32000Y11958
X32000Y7958
X32000Y3958
X36000Y39958
X36000Y35958
X36000Y31958
X36000Y23958
X36000Y11958
X36000Y7958
X36000Y3958
X40000Y39958
X40000Y31958
X40000Y23958
X40000Y11958
X40000Y7958
X40000Y3958
X44000Y39958
X44000Y31958
X44000Y23958
X44000Y11958
X44000Y7958
X44000Y3958
X48000Y39958
X48000Y31958
X48000Y23958
X48000Y11958
X48000Y7958
X48000Y3958
X52000Y43958
X52000Y39958
X52000Y35958
X52000Y31958
X52000Y23958
X52000Y19958
X52000Y15958
X52000Y11958
X52000Y7958
X52000Y3958
X58000Y53958
X58000Y51958
X58000Y49958
X58000Y47958
X58000Y45958
X58000Y43958
X58000Y41958
X58000Y39958
X58000Y37958
X58000Y35958
X58000Y33958
X58000Y21958
X58000Y19958
X58000Y17958
X58000Y15958
X58000Y13958
X58000Y11958
X60000Y53958
X60000Y47958
X60000Y45958
X60000Y43958
X60000Y41958
X60000Y39958
X60000Y37958
X60000Y35958
X60000Y33958
X60000Y13958
X60000Y11958
X62000Y53958
X62000Y31958
X62000Y13958
X62000Y11958
X62400Y26158
X62416Y29558
X62416Y27708
X64000Y53958
X64000Y33958
X64000Y31958
X64000Y13958
X64000Y11958
X66000Y53958
X66000Y51958
X66000Y39958
X66000Y37958
X66000Y35958
X66000Y33958
X66000Y31958
X66000Y13958
X66000Y11958
X68000Y42000
X68000Y40000
X68000Y38000
X68000Y35958
X68000Y33958
X68000Y31958
X68000Y29958
X68000Y27958
X68000Y25958
X68000Y17958
X68000Y15958
X68000Y13958
X68000Y11958
X70000Y27958
X70000Y25958
X70000Y23958
X70000Y21958
X70000Y19958
X70000Y17958
X70000Y11958
X72000Y46000
X72000Y30000
X72000Y11958
X74000Y11958
X76000Y46000
X76000Y41958
X76000Y37958
X76000Y33958
X76000Y29958
X76000Y25958
X76000Y21958
X76000Y17958
X76000Y13958
X76000Y11958
X78600Y51958
X78600Y47958
X78600Y41958
X78600Y33958
X78600Y29958
X78600Y25958
X78600Y21958
X78600Y17958
X78600Y13958
X78700Y37958
X80750Y28058
X80750Y25958
X80750Y23958
X80750Y21958
X81000Y41958
X81000Y39958
X82000Y23958
X83000Y41958
X83000Y39958
X84000Y46958
X84000Y44958
X84000Y23958
X86000Y48958
X86000Y23958
X86000Y9958
X88000Y23958
X90000Y9958
X94000Y19858
X94000Y11958
X94000Y9958
X98000Y19858
X98000Y11958
X98000Y9958
X101000Y19958
X101000Y18708
X102000Y9958
X102000Y5958
X102000Y1958
X103750Y18708
X105200Y51858
X105700Y14358
X106000Y18708
X106000Y9858
X106500Y3358
X107200Y51858
X107200Y49708
X108100Y4944
X109200Y53858
X109200Y49708
X109200Y17958
X111200Y53858
X111200Y51858
X111200Y49708
X111200Y17858
X113000Y5958
X113000Y3958
X113200Y53858
X113200Y17858
X114000Y1858
X115200Y17858
X117200Y53858
X118000Y5858
X118000Y1858
X119200Y19858
X121200Y53858
X122000Y9958
X125100Y5958
X125200Y53858
X126000Y21858
X126000Y19708
X126000Y9958
X127900Y3158
X129200Y53858
X130000Y21858
X130000Y17858
X131000Y15958
X131000Y9958
X133000Y23958
X133000Y21958
X133000Y19958
X133000Y15958
X133200Y53858
X134000Y17858
X134000Y12958
X134000Y9958
X134000Y7958
X134000Y5958
X134000Y3958
X134000Y1958
X136500Y46058
X136500Y41958
X136500Y37958
X136500Y33958
X136500Y29958
X136500Y25958
X136500Y21958
X136500Y17958
X136500Y13958
X136500Y9958
X138400Y46058
X138400Y41958
X138400Y37958
X138400Y33958
X138400Y29958
X138400Y25958
X138400Y21958
X138400Y17958
X138400Y13958
X138400Y9958
X140500Y28058
X140500Y25958
X141200Y41858
X141200Y39858
X141200Y23858
X142000Y7958
X142000Y5958
X142000Y3958
X142000Y1958
X143200Y23858
X145200Y23858
X147200Y23858
X148000Y7958
X148000Y5858
X148000Y2858
X149000Y21958
X151200Y19858
X153000Y5858
X153000Y2858
X153200Y19858
X154000Y12958
X154000Y10000
X154000Y7958
X155200Y19858
X158000Y12958
X158000Y9958
X158000Y1958
X160000Y12958
X162000Y9958
X162000Y1958
X164900Y14458
X166000Y50958
X166000Y10958
X166000Y1958
X168000Y53958
X169200Y17858
X170000Y50958
X172000Y53958
X173200Y17858
X174000Y10300
X176000Y53958
X176000Y18958
X176000Y8400
X178000Y6000
X178000Y1858
X179000Y20958
X180000Y53958
X181000Y20958
X182000Y9958
X182000Y1858
X183000Y20958
X184000Y53958
X186000Y22958
X186000Y20958
X186000Y9958
X186700Y4458
X188000Y53958
X188000Y22958
X190000Y22958
X190000Y20958
X190000Y9958
X192000Y53958
X192000Y17958
X192000Y15958
X193200Y31858
X193200Y27858
X194000Y13858
X194000Y10100
X194000Y6000
X194000Y2000
X195600Y53958
X195600Y49958
X195600Y45958
X195600Y41958
X195600Y37958
X195600Y33958
X195600Y29958
X195600Y25958
X195600Y21958
X195600Y17958
X195600Y13958
X197400Y53958
X197400Y49958
X197400Y45958
X197400Y41958
X197400Y37958
X197400Y33958
X197400Y29958
X197400Y25958
X197400Y21958
X197400Y17958
X197400Y13958
X197400Y9958
X198000Y6000
X198000Y2000
X199200Y28858
X199200Y25858
X200000Y54000
X200000Y42000
X200000Y40000
X200000Y23958
X200000Y21958
X200000Y18000
X200000Y14000
X201000Y42000
X201000Y40000
X202000Y46000
X202000Y5858
X202000Y1858
X203000Y48000
X204000Y23958
X204000Y21958
X205000Y49000
X208000Y23958
X208000Y21958
X208000Y8000
X208600Y5858
X208600Y2858
X210000Y8000
X212000Y19958
X212000Y10000
X212000Y8000
X213200Y5858
X213200Y2858
X214000Y19958
X214000Y12000
X214000Y10000
X214000Y8000
X216000Y19958
X216000Y12000
X216000Y10000
X216000Y8000
X218000Y19958
X218000Y12000
X218000Y10000
X218000Y8000
X218000Y5858
X218000Y1858
X220000Y12000
X220000Y10000
X220000Y8000
X221000Y20958
X221000Y19958
X221000Y18958
X222000Y12000
X222000Y10000
X222000Y1858
X224000Y18758
X224000Y10000
X225750Y14408
X226000Y10000
X226000Y1858
X227200Y51858
X228000Y18758
X229200Y49708
X231200Y51858
X232000Y18758
X233200Y53858
X234800Y10158
X236000Y18758
X236700Y8358
X237200Y53858
X240000Y18758
X240000Y3958
X240000Y1958
X241200Y53858
X242000Y18758
X242000Y1958
X245200Y53858
X246000Y18758
X247200Y4400
X248000Y21958
X248000Y19958
X248000Y18758
X249200Y53858
X250000Y23958
X250000Y21958
X250000Y19958
X252000Y21958
X252000Y19958
X252000Y7958
X252000Y5958
X252000Y3958
X252000Y1958
X253200Y53858
X254000Y23958
X254000Y21958
X254000Y19958
X254000Y16958
X254000Y14958
X254000Y9958
X254000Y7958
X254000Y5958
X254000Y3958
X254000Y1958
X255000Y29958
X255000Y27958
X256000Y54000
X256000Y50000
X256000Y45958
X256000Y41958
X256000Y37958
X256000Y33958
X256000Y11958
X256000Y9958
X256000Y7958
X256000Y5958
X256000Y3958
X256000Y1958
X258800Y45958
X258800Y41958
X258800Y37958
X258800Y33958
X258800Y29958
X260000Y54000
X260000Y7958
X260000Y5958
X260000Y3958
X260000Y1958
X261975Y41958
X261975Y39958
X261975Y28958
X261975Y25958
X262000Y48000
X262000Y46000
X262000Y21958
X262000Y7958
X262000Y5958
X262000Y3958
X262000Y1958
X263975Y41958
X263975Y39958
X264000Y50000
X266000Y48000
X266000Y46000
X266775Y21958
X268000Y5958
X268000Y2958
X270000Y5958
X270000Y2958
X270775Y21958
X272000Y9958
X274000Y9958
X274000Y5958
X274000Y2958
X274775Y21958
X274800Y17958
X276000Y7958
X278000Y7958
X278000Y5958
X278000Y1958
X279299Y11434
X280000Y7958
X280000Y5958
X280000Y1958
X282000Y15958
X282000Y1958
X284000Y52000
X284000Y1958
X286000Y15958
X286000Y13958
X288000Y54000
X288000Y52000
X288000Y50000
X289975Y49808
X290000Y54000
X290000Y52000
X290000Y15958
X290700Y12300
X291975Y17958
X292200Y10300
X294000Y54000
X294000Y18958
X296000Y18958
X296000Y5958
X296000Y1958
X298000Y54000
X298000Y18958
X300000Y18958
X301975Y20958
X302000Y54000
X304700Y21300
X306000Y54000
X310000Y54000
X310000Y22000
X310000Y20000
X312000Y20000
X314000Y22000
X314000Y20000
X316000Y22000
X316000Y20000
X317475Y30458
X317475Y27458
X318000Y22000
X318000Y20000
X319000Y45958
X319000Y37958
X319000Y33958
T3
X84495Y19458
X84495Y17258
X84495Y15058
X84495Y12858
X86395Y19458
X86395Y17258
X86395Y15058
X86395Y12858
X144095Y19158
X144095Y16958
X144095Y14658
X144095Y11958
X145995Y19158
X145995Y16958
X145995Y14658
X145995Y11958
X205195Y18058
X205195Y15358
X205195Y13158
X205195Y10958
X207095Y18058
X207095Y15358
X207095Y13158
X207095Y10958
X264295Y17758
X264295Y15558
X264300Y13458
X264300Y11158
X266195Y17758
X266195Y15558
X266200Y13458
X266200Y11158
T4
X1600Y28498
X1600Y25958
X1600Y23418
X1600Y20878
X1600Y18338
X1600Y15798
X1600Y13258
X1600Y10718
X9220Y28498
X9220Y25958
X9220Y23418
X9220Y20878
X9220Y18338
X9220Y15798
X9220Y13258
X9220Y10718
X17680Y34688
X17680Y32148
X17680Y29608
X17680Y27068
X17680Y24528
X17680Y21988
X17680Y19448
X17680Y16908
X17680Y14368
X17680Y11828
X17680Y9288
X17680Y6748
X17680Y4208
X17680Y1668
X25300Y34688
X25300Y32148
X25300Y29608
X25300Y27068
X25300Y24528
X25300Y21988
X25300Y19448
X25300Y16908
X25300Y14368
X25300Y11828
X25300Y9288
X25300Y6748
X25300Y4208
X25300Y1668
X30365Y47178
X30365Y44638
X30365Y42098
X30365Y39558
X30365Y37018
X30365Y34478
X30365Y31938
X30365Y29398
X30365Y26858
X30365Y24318
X30365Y21778
X30365Y19238
X30365Y16698
X30365Y14158
X30365Y11618
X30365Y9078
X30365Y6538
X30365Y3998
X30365Y1458
X55765Y47178
X55765Y44638
X55765Y42098
X55765Y39558
X55765Y37018
X55765Y34478
X55765Y31938
X55765Y29398
X55765Y26858
X55765Y24318
X55765Y21778
X55765Y19238
X55765Y16698
X55765Y14158
X55765Y11618
X55765Y9078
X55765Y6538
X55765Y3998
X55765Y1458
T5
X87700Y50958
X90200Y50958
X92700Y50958
X95200Y50958
X97700Y50958
X100200Y50958
X102700Y50958
X114700Y50958
X117200Y50958
X119700Y50958
X122200Y50958
X124700Y50958
X127200Y50958
X129700Y50958
X147200Y50958
X149700Y50958
X152200Y50958
X154700Y50958
X157200Y50958
X159700Y50958
X162200Y50958
X173600Y50958
X176100Y50958
X178600Y50958
X181100Y50958
X183600Y50958
X186100Y50958
X188600Y50958
X207150Y50958
X209650Y50958
X212150Y50958
X214650Y50958
X217150Y50958
X219650Y50958
X222150Y50958
X235200Y50958
X237700Y50958
X240200Y50958
X242700Y50958
X245200Y50958
X247700Y50958
X250200Y50958
X265400Y51000
X267900Y51000
X270400Y51000
X272900Y51000
X275400Y51000
X277900Y51000
X280400Y51000
X292300Y51025
X294800Y51025
X297300Y51025
X299800Y51025
X302300Y51025
X304800Y51025
X307300Y51025
T6
X1900Y45098
X1900Y42558
X1900Y40018
X1900Y37478
T7
X72000Y38750
X72000Y33250
T8
X72450Y6916
X72450Y2956
X82550Y6961
X82550Y3001
X315750Y15958
X315750Y11998
T9
X4000Y50958
X4000Y3958
X71000Y50958
X138400Y50958
X172700Y3958
X234100Y3958
X316000Y51000
X316000Y4000
M30
