%TF.GenerationSoftware,KiCad,Pcbnew,8.0.4*%
%TF.CreationDate,2024-08-06T18:21:14+08:00*%
%TF.ProjectId,LTC6811_ESP32_V3,4c544336-3831-4315-9f45-535033325f56,rev?*%
%TF.SameCoordinates,Original*%
%TF.FileFunction,Soldermask,Bot*%
%TF.FilePolarity,Negative*%
%FSLAX46Y46*%
G04 Gerber Fmt 4.6, Leading zero omitted, Abs format (unit mm)*
G04 Created by KiCad (PCBNEW 8.0.4) date 2024-08-06 18:21:14*
%MOMM*%
%LPD*%
G01*
G04 APERTURE LIST*
G04 Aperture macros list*
%AMRoundRect*
0 Rectangle with rounded corners*
0 $1 Rounding radius*
0 $2 $3 $4 $5 $6 $7 $8 $9 X,Y pos of 4 corners*
0 Add a 4 corners polygon primitive as box body*
4,1,4,$2,$3,$4,$5,$6,$7,$8,$9,$2,$3,0*
0 Add four circle primitives for the rounded corners*
1,1,$1+$1,$2,$3*
1,1,$1+$1,$4,$5*
1,1,$1+$1,$6,$7*
1,1,$1+$1,$8,$9*
0 Add four rect primitives between the rounded corners*
20,1,$1+$1,$2,$3,$4,$5,0*
20,1,$1+$1,$4,$5,$6,$7,0*
20,1,$1+$1,$6,$7,$8,$9,0*
20,1,$1+$1,$8,$9,$2,$3,0*%
G04 Aperture macros list end*
%ADD10R,1.600000X1.600000*%
%ADD11O,1.600000X1.600000*%
%ADD12RoundRect,0.250001X-1.099999X1.099999X-1.099999X-1.099999X1.099999X-1.099999X1.099999X1.099999X0*%
%ADD13C,2.700000*%
%ADD14C,1.400000*%
%ADD15O,1.400000X1.400000*%
%ADD16O,1.700000X1.950000*%
%ADD17RoundRect,0.250000X0.600000X0.725000X-0.600000X0.725000X-0.600000X-0.725000X0.600000X-0.725000X0*%
%ADD18C,5.700000*%
%ADD19RoundRect,0.250001X1.099999X-1.099999X1.099999X1.099999X-1.099999X1.099999X-1.099999X-1.099999X0*%
%ADD20RoundRect,0.250001X1.099999X1.399999X-1.099999X1.399999X-1.099999X-1.399999X1.099999X-1.399999X0*%
%ADD21O,2.700000X3.300000*%
%ADD22R,1.700000X1.700000*%
%ADD23O,1.700000X1.700000*%
G04 APERTURE END LIST*
D10*
%TO.C,U8*%
X30365000Y47178072D03*
D11*
X30365000Y44638072D03*
X30365000Y42098072D03*
X30365000Y39558072D03*
X30365000Y37018072D03*
X30365000Y34478072D03*
X30365000Y31938072D03*
X30365000Y29398072D03*
X30365000Y26858072D03*
X30365000Y24318072D03*
X30365000Y21778072D03*
X30365000Y19238072D03*
X30365000Y16698072D03*
X30365000Y14158072D03*
X30365000Y11618072D03*
X30365000Y9078072D03*
X30365000Y6538072D03*
X30365000Y3998072D03*
X30365000Y1458072D03*
X55765000Y1458072D03*
X55765000Y3998072D03*
X55765000Y6538072D03*
X55765000Y9078072D03*
X55765000Y11618072D03*
X55765000Y14158072D03*
X55765000Y16698072D03*
X55765000Y19238072D03*
X55765000Y21778072D03*
X55765000Y24318072D03*
X55765000Y26858072D03*
X55765000Y29398072D03*
X55765000Y31938072D03*
X55765000Y34478072D03*
X55765000Y37018072D03*
X55765000Y39558072D03*
X55765000Y42098072D03*
X55765000Y44638072D03*
X55765000Y47178072D03*
%TD*%
D12*
%TO.C,J9*%
X315750000Y15957500D03*
D13*
X315750000Y11997500D03*
%TD*%
D14*
%TO.C,TH19*%
X264295000Y15558072D03*
D15*
X266195000Y15558072D03*
%TD*%
D16*
%TO.C,J15*%
X207150000Y50958072D03*
X209650000Y50958072D03*
X212150000Y50958072D03*
X214650000Y50958072D03*
X217150000Y50958072D03*
X219650000Y50958072D03*
D17*
X222150000Y50958072D03*
%TD*%
D16*
%TO.C,J14*%
X235200000Y50958072D03*
X237700000Y50958072D03*
X240200000Y50958072D03*
X242700000Y50958072D03*
X245200000Y50958072D03*
X247700000Y50958072D03*
D17*
X250200000Y50958072D03*
%TD*%
D18*
%TO.C,J1*%
X316000000Y51000000D03*
%TD*%
D14*
%TO.C,TH8*%
X144095000Y14658072D03*
D15*
X145995000Y14658072D03*
%TD*%
D18*
%TO.C,J19*%
X138400000Y50958072D03*
%TD*%
D19*
%TO.C,J20*%
X82550000Y3000572D03*
D13*
X82550000Y6960572D03*
%TD*%
D10*
%TO.C,SW1*%
X1600000Y28498072D03*
D11*
X1600000Y25958072D03*
X1600000Y23418072D03*
X1600000Y20878072D03*
X1600000Y18338072D03*
X1600000Y15798072D03*
X1600000Y13258072D03*
X1600000Y10718072D03*
X9220000Y10718072D03*
X9220000Y13258072D03*
X9220000Y15798072D03*
X9220000Y18338072D03*
X9220000Y20878072D03*
X9220000Y23418072D03*
X9220000Y25958072D03*
X9220000Y28498072D03*
%TD*%
D14*
%TO.C,TH20*%
X264295000Y17758072D03*
D15*
X266195000Y17758072D03*
%TD*%
D14*
%TO.C,TH17*%
X264300000Y11158072D03*
D15*
X266200000Y11158072D03*
%TD*%
D16*
%TO.C,J17*%
X265400000Y51000000D03*
X267900000Y51000000D03*
X270400000Y51000000D03*
X272900000Y51000000D03*
X275400000Y51000000D03*
X277900000Y51000000D03*
D17*
X280400000Y51000000D03*
%TD*%
D14*
%TO.C,TH3*%
X84495000Y15058072D03*
D15*
X86395000Y15058072D03*
%TD*%
D18*
%TO.C,J8*%
X316000000Y4000000D03*
%TD*%
D14*
%TO.C,TH9*%
X144095000Y16958072D03*
D15*
X145995000Y16958072D03*
%TD*%
D14*
%TO.C,TH7*%
X144095000Y11958072D03*
D15*
X145995000Y11958072D03*
%TD*%
D18*
%TO.C,J2*%
X234100000Y3958072D03*
%TD*%
D10*
%TO.C,U1*%
X25300000Y1668072D03*
D11*
X25300000Y4208072D03*
X25300000Y6748072D03*
X25300000Y9288072D03*
X25300000Y11828072D03*
X25300000Y14368072D03*
X25300000Y16908072D03*
X25300000Y19448072D03*
X25300000Y21988072D03*
X25300000Y24528072D03*
X25300000Y27068072D03*
X25300000Y29608072D03*
X25300000Y32148072D03*
X25300000Y34688072D03*
X17680000Y34688072D03*
X17680000Y32148072D03*
X17680000Y29608072D03*
X17680000Y27068072D03*
X17680000Y24528072D03*
X17680000Y21988072D03*
X17680000Y19448072D03*
X17680000Y16908072D03*
X17680000Y14368072D03*
X17680000Y11828072D03*
X17680000Y9288072D03*
X17680000Y6748072D03*
X17680000Y4208072D03*
X17680000Y1668072D03*
%TD*%
D12*
%TO.C,J21*%
X72450000Y6915572D03*
D13*
X72450000Y2955572D03*
%TD*%
D16*
%TO.C,J11*%
X87700000Y50958072D03*
X90200000Y50958072D03*
X92700000Y50958072D03*
X95200000Y50958072D03*
X97700000Y50958072D03*
X100200000Y50958072D03*
D17*
X102700000Y50958072D03*
%TD*%
D14*
%TO.C,TH5*%
X84495000Y19458072D03*
D15*
X86395000Y19458072D03*
%TD*%
D20*
%TO.C,J6*%
X72000000Y33250000D03*
D21*
X72000000Y38750000D03*
%TD*%
D14*
%TO.C,TH18*%
X264300000Y13458072D03*
D15*
X266200000Y13458072D03*
%TD*%
D18*
%TO.C,J4*%
X172700000Y3958072D03*
%TD*%
D16*
%TO.C,J10*%
X114700000Y50958072D03*
X117200000Y50958072D03*
X119700000Y50958072D03*
X122200000Y50958072D03*
X124700000Y50958072D03*
X127200000Y50958072D03*
D17*
X129700000Y50958072D03*
%TD*%
D18*
%TO.C,J3*%
X4000000Y50958072D03*
%TD*%
D14*
%TO.C,TH4*%
X84495000Y17258072D03*
D15*
X86395000Y17258072D03*
%TD*%
D16*
%TO.C,J13*%
X147200000Y50958072D03*
X149700000Y50958072D03*
X152200000Y50958072D03*
X154700000Y50958072D03*
X157200000Y50958072D03*
X159700000Y50958072D03*
D17*
X162200000Y50958072D03*
%TD*%
D18*
%TO.C,J18*%
X71000000Y50958072D03*
%TD*%
D14*
%TO.C,TH15*%
X205195000Y18058072D03*
D15*
X207095000Y18058072D03*
%TD*%
D16*
%TO.C,J12*%
X173600000Y50958072D03*
X176100000Y50958072D03*
X178600000Y50958072D03*
X181100000Y50958072D03*
X183600000Y50958072D03*
X186100000Y50958072D03*
D17*
X188600000Y50958072D03*
%TD*%
D16*
%TO.C,J16*%
X292300000Y51025000D03*
X294800000Y51025000D03*
X297300000Y51025000D03*
X299800000Y51025000D03*
X302300000Y51025000D03*
X304800000Y51025000D03*
D17*
X307300000Y51025000D03*
%TD*%
D14*
%TO.C,TH12*%
X205195000Y10958072D03*
D15*
X207095000Y10958072D03*
%TD*%
D18*
%TO.C,J7*%
X4000000Y3958072D03*
%TD*%
D14*
%TO.C,TH10*%
X144095000Y19158072D03*
D15*
X145995000Y19158072D03*
%TD*%
D14*
%TO.C,TH13*%
X205195000Y13158072D03*
D15*
X207095000Y13158072D03*
%TD*%
D14*
%TO.C,TH14*%
X205195000Y15358072D03*
D15*
X207095000Y15358072D03*
%TD*%
D22*
%TO.C,J5*%
X1900000Y45098072D03*
D23*
X1900000Y42558072D03*
X1900000Y40018072D03*
X1900000Y37478072D03*
%TD*%
D14*
%TO.C,TH2*%
X84495000Y12858072D03*
D15*
X86395000Y12858072D03*
%TD*%
M02*
