M48
; DRILL file {KiCad 9.0.4} date 2025-10-02T14:04:06+0900
; FORMAT={-:-/ absolute / inch / decimal}
; #@! TF.CreationDate,2025-10-02T14:04:06+09:00
; #@! TF.GenerationSoftware,Kicad,Pcbnew,9.0.4
; #@! TF.FileFunction,Plated,1,2,PTH
FMAT,2
INCH
; #@! TA.AperFunction,Plated,PTH,ViaDrill
T1C0.0118
; #@! TA.AperFunction,Plated,PTH,ViaDrill
T2C0.0157
; #@! TA.AperFunction,Plated,PTH,ComponentDrill
T3C0.0276
; #@! TA.AperFunction,Plated,PTH,ComponentDrill
T4C0.0315
; #@! TA.AperFunction,Plated,PTH,ComponentDrill
T5C0.0374
; #@! TA.AperFunction,Plated,PTH,ComponentDrill
T6C0.0669
%
G90
G05
T1
X0.9055Y1.7244
X0.9055Y1.4055
X1.126Y1.7638
X1.4488Y0.1614
X1.4803Y1.1066
X2.4208Y1.2082
X2.4724Y1.1063
X2.4803Y1.189
X2.6181Y1.1535
X3.2047Y1.1339
X3.3819Y1.1339
X3.5551Y1.1339
X3.7323Y1.1339
X3.8583Y0.8268
X3.8583Y0.5118
X3.9094Y1.1339
X4.0827Y1.1339
X4.2598Y1.1339
X4.4409Y1.1339
X4.6181Y1.1339
X4.7953Y1.1339
X4.9724Y1.1339
X5.1102Y1.0906
X5.5472Y1.1339
X5.7205Y1.1339
X5.8937Y1.1339
X6.0709Y1.1339
X6.1988Y0.8406
X6.1988Y0.5118
X6.2441Y1.1339
X6.4154Y1.1339
X6.5906Y1.1339
X6.7638Y1.1339
X6.9409Y1.1339
X7.1102Y1.1339
X7.2835Y1.1339
T2
X0.1575Y0.7874
X0.1575Y0.6299
X0.1575Y0.4724
X0.2362Y1.4961
X0.2362Y1.3386
X0.315Y1.4961
X0.315Y1.3386
X0.315Y1.2598
X0.315Y1.1811
X0.315Y1.0236
X0.315Y0.9449
X0.315Y0.8661
X0.315Y0.7874
X0.315Y0.6299
X0.315Y0.4724
X0.3937Y2.126
X0.3937Y1.9685
X0.3937Y1.3386
X0.3937Y1.2598
X0.3937Y1.1811
X0.4724Y1.4961
X0.4724Y1.4173
X0.4724Y1.3386
X0.4724Y1.2598
X0.4724Y1.1811
X0.4724Y0.9449
X0.6299Y1.4961
X0.6299Y0.9449
X0.6299Y0.0787
X0.7874Y2.0472
X0.7874Y1.9685
X0.7874Y1.8898
X0.7874Y1.4961
X0.7874Y0.9449
X0.7874Y0.0787
X0.8622Y1.7441
X0.8622Y1.2756
X0.8661Y1.9685
X0.9449Y1.9685
X0.9449Y1.8898
X0.9449Y1.3386
X0.9449Y0.9449
X0.9449Y0.3937
X0.9449Y0.315
X0.9449Y0.0787
X0.9843Y1.6732
X0.9843Y1.6142
X0.9843Y1.5354
X1.0039Y1.4764
X1.0236Y2.126
X1.0236Y1.2598
X1.0236Y1.1811
X1.0236Y1.1024
X1.0236Y0.4724
X1.0433Y0.6299
X1.1024Y1.9685
X1.1024Y1.8898
X1.1024Y1.811
X1.1024Y1.4764
X1.1024Y0.9449
X1.1024Y0.315
X1.1024Y0.0787
X1.1811Y2.126
X1.1811Y1.9685
X1.1811Y1.8898
X1.1811Y0.3937
X1.2598Y0.4724
X1.2598Y0.0787
X1.2717Y1.1614
X1.2795Y1.2598
X1.2992Y1.6929
X1.3386Y2.126
X1.3386Y2.0472
X1.3386Y1.9685
X1.4961Y2.126
X1.4961Y2.0472
X1.4961Y1.9685
X1.5748Y1.8898
X1.5748Y1.7323
X1.5748Y1.5748
X1.5748Y1.4173
X1.5748Y1.2598
X1.5748Y0.9449
X1.5748Y0.7874
X1.5748Y0.6299
X1.5748Y0.4724
X1.5748Y0.315
X1.5748Y0.1575
X1.7323Y1.8898
X1.7323Y1.7323
X1.7323Y1.5748
X1.7323Y1.4173
X1.7323Y1.2598
X1.7323Y0.9449
X1.7323Y0.7874
X1.7323Y0.6299
X1.7323Y0.4724
X1.7323Y0.315
X1.7323Y0.1575
X1.8898Y1.8898
X1.8898Y1.7323
X1.8898Y1.5748
X1.8898Y1.4173
X1.8898Y1.2598
X1.8898Y0.9449
X1.8898Y0.7874
X1.8898Y0.6299
X1.8898Y0.4724
X1.8898Y0.315
X1.8898Y0.1575
X2.0472Y1.8898
X2.0472Y1.7323
X2.0472Y1.5748
X2.0472Y1.4173
X2.0472Y1.2598
X2.0472Y0.9449
X2.0472Y0.7874
X2.0472Y0.6299
X2.0472Y0.4724
X2.0472Y0.315
X2.0472Y0.1575
X2.2047Y1.8898
X2.2047Y1.7323
X2.2047Y1.5748
X2.2047Y1.4173
X2.2047Y1.2598
X2.2047Y0.9449
X2.2047Y0.7874
X2.2047Y0.6299
X2.2047Y0.4724
X2.2047Y0.315
X2.3622Y2.126
X2.3622Y1.9685
X2.4409Y2.126
X2.4409Y1.9685
X2.5197Y1.7323
X2.5197Y1.5748
X2.5197Y1.4173
X2.5197Y0.9449
X2.5197Y0.7874
X2.5197Y0.6299
X2.5197Y0.4724
X2.6772Y1.7323
X2.6772Y1.5748
X2.687Y1.128
X2.689Y1.0689
X2.7953Y1.3386
X2.8346Y1.7323
X2.8346Y1.5748
X2.8346Y1.4173
X2.8346Y0.9449
X2.8346Y0.7874
X2.8346Y0.6299
X2.8346Y0.4724
X2.8366Y1.0689
X2.9331Y2.0472
X2.9331Y1.8898
X2.9331Y1.6535
X2.9331Y1.3386
X2.9331Y1.1811
X2.9331Y1.0236
X2.9331Y0.8661
X2.9331Y0.7087
X2.9331Y0.5512
X2.937Y1.4961
X3.0177Y1.1063
X3.0177Y1.0236
X3.0177Y0.9449
X3.0177Y0.8661
X3.0276Y1.6535
X3.0276Y1.5748
X3.0315Y0.2362
X3.0315Y0.126
X3.0669Y0.9449
X3.1063Y1.6535
X3.1063Y1.5748
X3.1102Y0.2362
X3.1102Y0.1299
X3.1457Y1.8504
X3.1457Y1.7717
X3.1457Y0.9449
X3.189Y0.2362
X3.189Y0.126
X3.2244Y1.9291
X3.2244Y0.9449
X3.2244Y0.3937
X3.3031Y0.9449
X3.3819Y0.3937
X3.5394Y0.7835
X3.5394Y0.4724
X3.5394Y0.3937
X3.6969Y0.7835
X3.6969Y0.4724
X3.6969Y0.3937
X3.815Y0.7874
X3.815Y0.7382
X3.8543Y0.3937
X3.8543Y0.2362
X3.8543Y0.0787
X3.9232Y0.7382
X3.9803Y2.0433
X4.0Y0.5669
X4.0118Y0.7382
X4.0118Y0.3898
X4.0315Y0.1339
X4.0591Y2.0433
X4.0591Y1.9587
X4.0945Y0.1963
X4.1378Y2.122
X4.1378Y1.9587
X4.1378Y0.7087
X4.2165Y2.122
X4.2165Y2.0433
X4.2165Y1.9587
X4.2165Y0.7047
X4.2874Y0.2362
X4.2874Y0.1575
X4.2953Y2.122
X4.2953Y0.7047
X4.3268Y0.0748
X4.374Y0.7047
X4.4528Y2.122
X4.4843Y0.2323
X4.4843Y0.0748
X4.5315Y0.7835
X4.6102Y2.122
X4.6417Y0.3937
X4.7638Y0.2362
X4.7677Y2.122
X4.7992Y0.8622
X4.7992Y0.7776
X4.7992Y0.3937
X4.874Y0.126
X4.9252Y2.122
X4.9567Y0.8622
X4.9567Y0.7047
X4.9961Y0.6299
X4.9961Y0.3937
X5.0394Y2.126
X5.0748Y0.9449
X5.0748Y0.8661
X5.0748Y0.7874
X5.0748Y0.6299
X5.1142Y0.7047
X5.1142Y0.5118
X5.1142Y0.3937
X5.1142Y0.315
X5.1142Y0.2362
X5.1142Y0.1575
X5.1142Y0.0787
X5.1969Y2.126
X5.1969Y1.9685
X5.2126Y1.815
X5.2126Y1.6535
X5.2126Y1.4961
X5.2126Y1.3386
X5.2126Y1.1811
X5.2126Y1.0236
X5.2126Y0.8661
X5.2126Y0.7087
X5.2126Y0.5512
X5.2126Y0.3937
X5.2874Y1.815
X5.2874Y1.6535
X5.2874Y1.4961
X5.2874Y1.3386
X5.2874Y1.1811
X5.2874Y1.0236
X5.2874Y0.8661
X5.2874Y0.7087
X5.2874Y0.5512
X5.2874Y0.3937
X5.3543Y2.126
X5.3543Y1.9803
X5.3701Y1.1063
X5.3701Y1.0236
X5.3976Y1.6496
X5.3976Y1.5709
X5.3976Y0.9409
X5.4291Y0.315
X5.4291Y0.2362
X5.4291Y0.1575
X5.4291Y0.0787
X5.4764Y0.9409
X5.5118Y2.126
X5.5512Y1.8898
X5.5512Y1.811
X5.5551Y0.9409
X5.6339Y0.9409
X5.6654Y0.315
X5.6654Y0.2323
X5.6654Y0.1142
X5.7047Y0.8661
X5.748Y0.7874
X5.8268Y0.8268
X5.8268Y0.748
X5.8622Y0.2323
X5.8622Y0.1142
X5.9016Y0.5118
X5.9016Y0.3954
X5.9016Y0.315
X5.9055Y0.8268
X5.9055Y0.748
X5.9843Y0.8268
X6.0591Y0.5118
X6.0591Y0.3937
X6.0591Y0.0787
X6.063Y0.8268
X6.1378Y0.5118
X6.1417Y0.8268
X6.2165Y0.3937
X6.2165Y0.0787
X6.3307Y0.5709
X6.374Y2.0079
X6.374Y0.0787
X6.4528Y2.126
X6.5Y0.7047
X6.5315Y2.0079
X6.5354Y0.0787
X6.6102Y2.126
X6.6142Y0.1575
X6.6575Y0.7047
X6.7677Y2.126
X6.7677Y0.748
X6.7717Y0.3937
X6.8504Y0.3937
X6.8858Y0.8268
X6.9252Y2.126
X6.9291Y0.3937
X6.9646Y0.8268
X7.0079Y0.3937
X7.0079Y0.315
X7.0079Y0.2362
X7.0079Y0.1575
X7.0079Y0.0787
X7.0433Y0.8268
X7.0827Y2.126
X7.1614Y0.9055
X7.1614Y0.8268
X7.1654Y0.3937
X7.2402Y2.126
X7.2402Y0.9055
X7.3189Y0.9055
X7.3189Y0.8268
X7.3228Y0.3937
X7.3976Y2.126
X7.3976Y0.7087
X7.3976Y0.6299
X7.4016Y0.4724
X7.4449Y1.2559
X7.4449Y1.0984
X7.4764Y0.5472
X7.5591Y1.7323
X7.5591Y1.5748
X7.5591Y1.4173
X7.5591Y1.2598
X7.5591Y1.1024
X7.5591Y0.9449
X7.5591Y0.7874
X7.7165Y1.7323
X7.7165Y1.5748
X7.7165Y1.4173
X7.7165Y1.2598
X7.7165Y1.1024
X7.7165Y0.9449
X7.7165Y0.7874
T3
X3.1652Y0.7677
X3.1652Y0.6811
X3.1652Y0.5945
X3.1652Y0.5079
X3.24Y0.7677
X3.24Y0.6811
X3.24Y0.5945
X3.24Y0.5079
X5.5116Y0.7559
X5.5116Y0.6693
X5.5116Y0.5787
X5.5116Y0.4724
X5.5864Y0.7559
X5.5864Y0.6693
X5.5864Y0.5787
X5.5864Y0.4724
T4
X0.4732Y1.0499
X0.4732Y0.7499
X0.5732Y1.0499
X0.5732Y0.7499
X0.6732Y1.0499
X0.6732Y0.7499
X0.7732Y1.0499
X0.7732Y0.7499
X0.8732Y1.0499
X0.8732Y0.7499
X0.9732Y1.0499
X0.9732Y0.7499
X1.0732Y1.0499
X1.0732Y0.7499
X1.1732Y1.0499
X1.1732Y0.7499
X1.3923Y1.8574
X1.3923Y1.7574
X1.3923Y1.6574
X1.3923Y1.5574
X1.3923Y1.4574
X1.3923Y1.3574
X1.3923Y1.2574
X1.3923Y1.1574
X1.3923Y1.0574
X1.3923Y0.9574
X1.3923Y0.8574
X1.3923Y0.7574
X1.3923Y0.6574
X1.3923Y0.5574
X1.3923Y0.4574
X1.3923Y0.3574
X1.3923Y0.2574
X1.3923Y0.1574
X1.3923Y0.0574
X2.3923Y1.8574
X2.3923Y1.7574
X2.3923Y1.6574
X2.3923Y1.5574
X2.3923Y1.4574
X2.3923Y1.3574
X2.3923Y1.2574
X2.3923Y1.1574
X2.3923Y1.0574
X2.3923Y0.9574
X2.3923Y0.8574
X2.3923Y0.7574
X2.3923Y0.6574
X2.3923Y0.5574
X2.3923Y0.4574
X2.3923Y0.3574
X2.3923Y0.2574
X2.3923Y0.1574
X2.3923Y0.0574
T5
X0.1181Y1.7087
X0.1181Y1.6102
X0.1181Y1.5118
X0.1181Y1.4134
X0.189Y1.1811
X0.189Y1.0827
X0.189Y0.9843
X0.189Y0.8858
X0.3898Y1.7087
X0.3898Y1.6102
X0.3898Y1.5118
X0.3898Y1.4134
X3.2913Y2.0079
X3.3898Y2.0079
X3.4882Y2.0079
X3.5866Y2.0079
X3.685Y2.0079
X3.7835Y2.0079
X3.8819Y2.0079
X4.3543Y2.0079
X4.4528Y2.0079
X4.5512Y2.0079
X4.6496Y2.0079
X4.748Y2.0079
X4.8465Y2.0079
X4.9449Y2.0079
X5.6339Y2.0079
X5.7323Y2.0079
X5.8307Y2.0079
X5.9291Y2.0079
X6.0276Y2.0079
X6.126Y2.0079
X6.2244Y2.0079
X6.6732Y2.0079
X6.7717Y2.0079
X6.8701Y2.0079
X6.9685Y2.0079
X7.0669Y2.0079
X7.1654Y2.0079
X7.2638Y2.0079
T6
X7.7047Y0.626
X7.7047Y0.4701
M30
